<svg width="58" height="58" viewBox="0 0 58 58" fill="none" xmlns="http://www.w3.org/2000/svg">
<path d="M29 18.125C30.8125 10.9702 37.6581 7.31683 52.5625 7.25C52.8008 7.2491 53.0369 7.29537 53.2572 7.38614C53.4775 7.4769 53.6777 7.61038 53.8461 7.77886C54.0146 7.94735 54.1481 8.14751 54.2389 8.36782C54.3296 8.58813 54.3759 8.82422 54.375 9.0625V41.6875C54.375 42.1682 54.1841 42.6292 53.8441 42.9691C53.5042 43.309 53.0432 43.5 52.5625 43.5C38.0625 43.5 32.4608 46.4238 29 50.75M29 18.125C27.1875 10.9702 20.3419 7.31683 5.43751 7.25C5.19924 7.2491 4.96315 7.29537 4.74284 7.38614C4.52253 7.4769 4.32236 7.61038 4.15388 7.77886C3.98539 7.94735 3.85192 8.14751 3.76115 8.36782C3.67038 8.58813 3.62411 8.82422 3.62501 9.0625V41.4689C3.62501 42.5881 4.31829 43.5 5.43751 43.5C19.9375 43.5 25.5597 46.4453 29 50.75M29 18.125V50.75" stroke="#0071DC" stroke-width="4" stroke-linecap="round" stroke-linejoin="round"/>
</svg>
