<svg width="58" height="58" viewBox="0 0 58 58" fill="none" xmlns="http://www.w3.org/2000/svg">
<path d="M17.6719 21.5625C17.6719 22.2422 17.5397 22.8841 17.2754 23.4883C17.0111 24.0924 16.6523 24.6211 16.1992 25.0742C15.7461 25.5273 15.2174 25.8861 14.6133 26.1504C14.0091 26.4147 13.3672 26.5469 12.6875 26.5469C12.0078 26.5469 11.3659 26.4147 10.7617 26.1504C10.1576 25.8861 9.62891 25.5273 9.17578 25.0742C8.72266 24.6211 8.36393 24.0924 8.09961 23.4883C7.83529 22.8841 7.70313 22.2422 7.70313 21.5625C7.70313 20.8828 7.83529 20.2409 8.09961 19.6367C8.36393 19.0326 8.72266 18.5039 9.17578 18.0508C9.62891 17.5977 10.1576 17.2389 10.7617 16.9746C11.3659 16.7103 12.0078 16.5781 12.6875 16.5781C13.3672 16.5781 14.0091 16.7103 14.6133 16.9746C15.2174 17.2389 15.7461 17.5977 16.1992 18.0508C16.6523 18.5039 17.0111 19.0326 17.2754 19.6367C17.5397 20.2409 17.6719 20.8828 17.6719 21.5625ZM12.6875 23.8281C13.3105 23.8281 13.8392 23.611 14.2734 23.1768C14.7077 22.7425 14.9342 22.2044 14.9531 21.5625C14.9531 20.9395 14.736 20.4108 14.3018 19.9766C13.8675 19.5423 13.3294 19.3158 12.6875 19.2969C12.0645 19.2969 11.5358 19.514 11.1016 19.9482C10.6673 20.3825 10.4408 20.9206 10.4219 21.5625C10.4219 22.1855 10.639 22.7142 11.0732 23.1484C11.5075 23.5827 12.0456 23.8092 12.6875 23.8281ZM27.1875 27.4531C27.8672 27.4531 28.5091 27.5853 29.1133 27.8496C29.7174 28.1139 30.2461 28.4727 30.6992 28.9258C31.1523 29.3789 31.5111 29.9076 31.7754 30.5117C32.0397 31.1159 32.1719 31.7578 32.1719 32.4375C32.1719 33.1172 32.0397 33.7591 31.7754 34.3633C31.5111 34.9674 31.1523 35.4961 30.6992 35.9492C30.2461 36.4023 29.7174 36.7611 29.1133 37.0254C28.5091 37.2897 27.8672 37.4219 27.1875 37.4219C26.5078 37.4219 25.8659 37.2897 25.2617 37.0254C24.6576 36.7611 24.1289 36.4023 23.6758 35.9492C23.2227 35.4961 22.8639 34.9674 22.5996 34.3633C22.3353 33.7591 22.2031 33.1172 22.2031 32.4375C22.2031 31.7578 22.3353 31.1159 22.5996 30.5117C22.8639 29.9076 23.2227 29.3789 23.6758 28.9258C24.1289 28.4727 24.6576 28.1139 25.2617 27.8496C25.8659 27.5853 26.5078 27.4531 27.1875 27.4531ZM27.1875 34.7031C27.8105 34.7031 28.3392 34.486 28.7734 34.0518C29.2077 33.6175 29.4342 33.0794 29.4531 32.4375C29.4531 31.8145 29.236 31.2858 28.8018 30.8516C28.3675 30.4173 27.8294 30.1908 27.1875 30.1719C26.5645 30.1719 26.0358 30.389 25.6016 30.8232C25.1673 31.2575 24.9408 31.7956 24.9219 32.4375C24.9219 33.0605 25.139 33.5892 25.5732 34.0234C26.0075 34.4577 26.5456 34.6842 27.1875 34.7031ZM23.4676 16.8811C23.6993 16.4177 24.173 16.125 24.6911 16.125C25.7079 16.125 26.3693 17.1951 25.9145 18.1046L16.4074 37.1189C16.1757 37.5823 15.702 37.875 15.1839 37.875C14.1671 37.875 13.5057 36.8049 13.9605 35.8954L23.4676 16.8811ZM38.6324 8.875C39.428 8.875 40.1911 9.19107 40.7537 9.75368L55.8787 24.8787C57.0503 26.0503 57.0503 27.9497 55.8787 29.1213L40.7537 44.2463C40.1911 44.8089 39.428 45.125 38.6324 45.125H3C1.34315 45.125 0 43.7819 0 42.125V11.875C0 10.2181 1.34315 8.875 3 8.875H38.6324ZM37.1314 41.5C37.927 41.5 38.6901 41.1839 39.2527 40.6213L50.7527 29.1213C51.9243 27.9497 51.9243 26.0503 50.7527 24.8787L39.2527 13.3787C38.6901 12.8161 37.927 12.5 37.1314 12.5H6.625C4.96815 12.5 3.625 13.8431 3.625 15.5V38.5C3.625 40.1569 4.96815 41.5 6.625 41.5H37.1314ZM43.5 25.1875C43.9909 25.1875 44.4157 25.3669 44.7744 25.7256C45.1331 26.0843 45.3125 26.5091 45.3125 27C45.3125 27.4909 45.1331 27.9157 44.7744 28.2744C44.4157 28.6331 43.9909 28.8125 43.5 28.8125C43.0091 28.8125 42.5843 28.6331 42.2256 28.2744C41.8669 27.9157 41.6875 27.4909 41.6875 27C41.6875 26.5091 41.8669 26.0843 42.2256 25.7256C42.5843 25.3669 43.0091 25.1875 43.5 25.1875Z" fill="#0071DC"/>
</svg>
