<svg width="98" height="37" viewBox="0 0 98 37" fill="none" xmlns="http://www.w3.org/2000/svg">
<path d="M46.882 1.74358C45.7111 1.74358 44.7896 2.13845 44.1176 2.9282C43.4456 3.71794 43.1096 4.79999 43.1096 6.17435C43.1096 7.53845 43.4201 8.62051 44.0412 9.42051C44.6725 10.2103 45.6143 10.6051 46.8667 10.6051C47.3452 10.6051 47.7983 10.5641 48.226 10.482C48.6536 10.4 49.0711 10.2974 49.4783 10.1744V11.3744C49.0711 11.5282 48.6485 11.641 48.2107 11.7128C47.7831 11.7846 47.2689 11.8205 46.6681 11.8205C45.5583 11.8205 44.6318 11.5897 43.8885 11.1282C43.1452 10.6667 42.5852 10.0102 42.2085 9.15897C41.842 8.30769 41.6587 7.30769 41.6587 6.15897C41.6587 5.05128 41.8572 4.07692 42.2543 3.23589C42.6616 2.38461 43.2572 1.72307 44.0412 1.25128C44.8252 0.769224 45.7772 0.528198 46.8972 0.528198C48.0478 0.528198 49.0507 0.743583 49.906 1.17435L49.3561 2.34358C49.0201 2.18974 48.6434 2.05128 48.226 1.9282C47.8187 1.80512 47.3707 1.74358 46.882 1.74358ZM58.7921 7.5282C58.7921 8.8923 58.446 9.94871 57.7536 10.6974C57.0714 11.4461 56.1449 11.8205 54.974 11.8205C54.2511 11.8205 53.6045 11.6564 53.0343 11.3282C52.4743 10.9897 52.0314 10.5026 51.7056 9.86666C51.3798 9.22051 51.2169 8.44102 51.2169 7.5282C51.2169 6.1641 51.558 5.11281 52.2401 4.37435C52.9223 3.63589 53.8489 3.26666 55.0198 3.26666C55.7631 3.26666 56.4147 3.43589 56.9747 3.77435C57.5449 4.10256 57.9878 4.58461 58.3034 5.22051C58.6292 5.84615 58.7921 6.61538 58.7921 7.5282ZM52.6067 7.5282C52.6067 8.50256 52.7951 9.27692 53.1718 9.85128C53.5587 10.4154 54.1696 10.6974 55.0045 10.6974C55.8292 10.6974 56.4351 10.4154 56.822 9.85128C57.2089 9.27692 57.4023 8.50256 57.4023 7.5282C57.4023 6.55384 57.2089 5.78974 56.822 5.23589C56.4351 4.68205 55.8241 4.40512 54.9892 4.40512C54.1543 4.40512 53.5485 4.68205 53.1718 5.23589C52.7951 5.78974 52.6067 6.55384 52.6067 7.5282ZM67.5049 5.49743C67.5049 6.01025 67.3521 6.41025 67.0467 6.69743C66.7412 6.98461 66.3492 7.17948 65.8707 7.28204V7.34358C66.3798 7.41538 66.8227 7.59999 67.1994 7.89743C67.5761 8.18461 67.7645 8.63589 67.7645 9.25128C67.7645 9.94871 67.5049 10.5282 66.9856 10.9897C66.4765 11.441 65.6314 11.6667 64.4503 11.6667H60.9223V3.42051H64.435C65.0154 3.42051 65.5347 3.48717 65.9929 3.62051C66.4612 3.74358 66.8278 3.95897 67.0925 4.26666C67.3674 4.5641 67.5049 4.97435 67.5049 5.49743ZM66.1456 5.66666C66.1456 5.27692 66.003 4.99487 65.7179 4.82051C65.443 4.63589 64.9899 4.54358 64.3587 4.54358H62.2663V6.80512H64.1143C65.4685 6.80512 66.1456 6.42563 66.1456 5.66666ZM66.3747 9.25128C66.3747 8.77948 66.1965 8.44102 65.8401 8.23589C65.4838 8.03076 64.9594 7.9282 64.267 7.9282H62.2663V10.5744H64.2976C64.9696 10.5744 65.4838 10.4769 65.8401 10.282C66.1965 10.0769 66.3747 9.73333 66.3747 9.25128ZM72.8834 3.26666C73.5859 3.26666 74.1867 3.42051 74.6856 3.7282C75.1947 4.03589 75.5816 4.47179 75.8463 5.03589C76.1212 5.58974 76.2587 6.24102 76.2587 6.98974V7.80512H70.6536C70.6739 8.73846 70.9081 9.45128 71.3561 9.94358C71.8143 10.4256 72.4507 10.6667 73.2652 10.6667C73.7845 10.6667 74.2427 10.6205 74.6398 10.5282C75.047 10.4256 75.4645 10.282 75.8921 10.0974V11.282C75.4747 11.4667 75.0623 11.6 74.655 11.682C74.2478 11.7744 73.7641 11.8205 73.2041 11.8205C72.4303 11.8205 71.743 11.6615 71.1423 11.3436C70.5518 11.0256 70.0885 10.5538 69.7525 9.9282C69.4267 9.2923 69.2638 8.51794 69.2638 7.60512C69.2638 6.70256 69.4114 5.9282 69.7067 5.28205C70.0121 4.63589 70.4347 4.13845 70.9743 3.78974C71.5241 3.44102 72.1605 3.26666 72.8834 3.26666ZM72.8681 4.37435C72.2267 4.37435 71.7176 4.58461 71.3409 5.00512C70.9743 5.41538 70.7554 5.98974 70.6841 6.7282H74.8536C74.8434 6.03076 74.6805 5.46666 74.3649 5.03589C74.0492 4.59487 73.5503 4.37435 72.8681 4.37435ZM83.9937 4.55897H81.3209V11.6667H79.9922V4.55897H77.35V3.42051H83.9937V4.55897Z" fill="#0071DC"/>
<path d="M46.7755 30.3385C46.4497 31.0667 46.1188 31.6769 45.7828 32.1692C45.457 32.6513 45.0701 33.0154 44.6221 33.2615C44.1741 33.4974 43.6039 33.6154 42.9115 33.6154C42.6264 33.6154 42.3566 33.5949 42.1021 33.5539C41.8577 33.5128 41.6337 33.4564 41.4301 33.3846V32.0154C41.6337 32.1077 41.8526 32.1846 42.0868 32.2462C42.321 32.2974 42.5653 32.3231 42.8199 32.3231C43.3901 32.3231 43.8381 32.2 44.1639 31.9539C44.4999 31.7077 44.8104 31.2718 45.0955 30.6462L40.8955 22.4769H42.4075L45.4468 28.5231C45.4977 28.6256 45.5588 28.759 45.6301 28.9231C45.7013 29.0769 45.7624 29.2256 45.8133 29.3692H45.8744C45.9151 29.2564 45.9661 29.1231 46.0271 28.9692C46.0882 28.8051 46.1391 28.6718 46.1799 28.5692L48.8068 22.4769H50.2577L46.7755 30.3385ZM52.4339 28.2154C52.4339 29.159 52.9583 29.6308 54.007 29.6308C54.5161 29.6308 54.9794 29.5539 55.3968 29.4C55.8143 29.2359 56.2419 29.0205 56.6797 28.7539V25.2154H58.0237V33.4615H56.6797V29.7846C56.2216 30.0821 55.7685 30.318 55.3205 30.4923C54.8827 30.6564 54.3532 30.7385 53.7321 30.7385C52.8972 30.7385 52.2456 30.518 51.7772 30.0769C51.319 29.6359 51.0899 29.0462 51.0899 28.3077V25.2154H52.4339V28.2154ZM63.7859 25.0615C64.4884 25.0615 65.0892 25.2154 65.5881 25.5231C66.0972 25.8308 66.4841 26.2667 66.7488 26.8308C67.0237 27.3846 67.1612 28.0359 67.1612 28.7846V29.6H61.5561C61.5764 30.5333 61.8106 31.2462 62.2586 31.7385C62.7168 32.2205 63.3532 32.4615 64.1677 32.4615C64.687 32.4615 65.1452 32.4154 65.5423 32.3231C65.9495 32.2205 66.367 32.0769 66.7946 31.8923V33.0769C66.3772 33.2615 65.9648 33.3949 65.5575 33.4769C65.1503 33.5692 64.6666 33.6154 64.1066 33.6154C63.3328 33.6154 62.6455 33.4564 62.0448 33.1385C61.4543 32.8205 60.991 32.3487 60.655 31.7231C60.3292 31.0872 60.1663 30.3128 60.1663 29.4C60.1663 28.4974 60.3139 27.7231 60.6092 27.0769C60.9146 26.4308 61.3372 25.9333 61.8768 25.5846C62.4266 25.2359 63.063 25.0615 63.7859 25.0615ZM63.7706 26.1692C63.1292 26.1692 62.6201 26.3795 62.2433 26.8C61.8768 27.2103 61.6579 27.7846 61.5866 28.5231H65.7561C65.7459 27.8256 65.583 27.2615 65.2673 26.8308C64.9517 26.3897 64.4528 26.1692 63.7706 26.1692ZM70.5891 25.2154V28.6462H75.0335V25.2154H76.3775V33.4615H75.0335V29.7846H70.5891V33.4615H69.2451V25.2154H70.5891ZM78.9695 33.4615V25.2154H80.3135V28.6H82.4364C83.4953 28.6 84.2793 28.7949 84.7884 29.1846C85.2975 29.5744 85.5521 30.159 85.5521 30.9385C85.5521 31.7077 85.3026 32.3231 84.8037 32.7846C84.3048 33.2359 83.4953 33.4615 82.3753 33.4615H78.9695ZM86.9113 33.4615V25.2154H88.2553V33.4615H86.9113ZM82.2532 32.3692C82.8335 32.3692 83.307 32.2718 83.6735 32.0769C84.0401 31.8718 84.2233 31.518 84.2233 31.0154C84.2233 30.5128 84.0553 30.1744 83.7193 30C83.3833 29.8154 82.8997 29.7231 82.2684 29.7231H80.3135V32.3692H82.2532ZM92.7963 29.2462L89.9709 25.2154H91.4981L93.6058 28.3231L95.6981 25.2154H97.2101L94.3847 29.2462L97.3629 33.4615H95.8356L93.6058 30.1692L91.3454 33.4615H89.8334L92.7963 29.2462Z" fill="#0071DC"/>
<path d="M97.9998 17.4359H40.7271" stroke="#0071DC"/>
<path d="M17.1818 36.0257C26.6711 36.0257 34.3636 28.2767 34.3636 18.718C34.3636 9.15918 26.6711 1.41026 17.1818 1.41026C7.69256 1.41026 0 9.15918 0 18.718C0 28.2767 7.69256 36.0257 17.1818 36.0257Z" fill="#0071DC"/>
<path d="M15.349 7.94872C13.3975 7.94872 11.8617 8.6068 10.7417 9.92308C9.62174 11.2394 9.06174 13.0427 9.06174 15.3333C9.06174 17.6068 9.57932 19.4103 10.6145 20.7436C11.6666 22.0599 13.2363 22.718 15.3236 22.718C16.1212 22.718 16.8763 22.6496 17.589 22.5128C18.3017 22.376 18.9975 22.2051 19.6763 22V24C18.9975 24.2564 18.2932 24.4445 17.5636 24.5641C16.8508 24.6837 15.9939 24.7436 14.9926 24.7436C13.143 24.7436 11.5987 24.359 10.3599 23.5897C9.12114 22.8205 8.18779 21.7265 7.55992 20.3077C6.94901 18.8888 6.64355 17.2222 6.64355 15.3077C6.64355 13.4615 6.97446 11.8376 7.63628 10.4359C8.31507 9.01705 9.30779 7.91449 10.6145 7.12821C11.9211 6.32479 13.5078 5.92308 15.3745 5.92308C17.2921 5.92308 18.9636 6.28205 20.389 7L19.4726 8.94872C18.9126 8.69231 18.2848 8.46154 17.589 8.25641C16.9103 8.05129 16.1636 7.94872 15.349 7.94872Z" fill="white"/>
<path d="M22.8073 25.6923C22.2643 26.906 21.7128 27.9231 21.1528 28.7436C20.6097 29.5471 19.9649 30.1539 19.2182 30.5641C18.4715 30.9573 17.5213 31.1539 16.3673 31.1539C15.8922 31.1539 15.4424 31.1196 15.0182 31.0513C14.611 30.983 14.2377 30.8889 13.8982 30.7692V28.4872C14.2377 28.641 14.6024 28.7692 14.9928 28.8718C15.3831 28.9573 15.7904 29 16.2146 29C17.1649 29 17.9115 28.7949 18.4546 28.3846C19.0146 27.9744 19.5322 27.2478 20.0073 26.2051L13.0073 12.5898H15.5273L20.5928 22.6667C20.6777 22.8376 20.7795 23.0599 20.8982 23.3333C21.017 23.5898 21.1188 23.8376 21.2037 24.0769H21.3055C21.3733 23.8889 21.4582 23.6667 21.5601 23.4103C21.6619 23.1368 21.7468 22.9145 21.8146 22.7436L26.1928 12.5898H28.611L22.8073 25.6923Z" fill="white"/>
</svg>
