<svg width="86" height="34" viewBox="0 0 86 34" fill="none" xmlns="http://www.w3.org/2000/svg">
<g clip-path="url(#clip0_147_518)">
<path d="M3.096 11.7859H11.9342V8.78517H3.096V3.81678H13.0654V0.81601H0V19.9196H13.1911V16.9188H3.096V11.7859Z" fill="#2D2D2D"/>
<path d="M25.6811 7.752C24.5612 6.15064 22.7203 5.20059 20.7593 5.21187C17.306 5.21187 14.0513 7.90994 14.0513 12.6875C14.0513 17.465 17.359 20.2158 20.7593 20.2158C22.7588 20.2246 24.6207 19.204 25.6811 17.5177V19.9196H28.9888V0H25.6811V7.752ZM21.5465 17.3532C19.3039 17.3532 17.392 15.5237 17.392 12.7467C17.392 9.83148 19.2774 8.08103 21.5465 8.08103C23.8156 8.08103 25.734 9.91045 25.734 12.6875C25.734 15.4645 23.7627 17.3532 21.5465 17.3532Z" fill="#2D2D2D"/>
<path d="M40.1555 13.6417C40.1555 15.8791 38.8325 17.215 36.8941 17.215C34.9558 17.215 33.8048 15.9317 33.8048 13.6943V5.51459H30.4971V14.6814C30.4971 18.0376 32.3825 20.2157 35.6372 20.2157C37.4891 20.2307 39.2096 19.266 40.1555 17.6822V19.9196H43.4632V5.51459H40.1555V13.6417Z" fill="#2D2D2D"/>
<path d="M50.6009 11.4043L50.3231 11.3253C48.7354 10.8054 47.3395 10.3711 47.3395 9.3511C47.3395 8.3311 48.0804 7.89678 49.3704 7.89678C50.8255 7.99177 52.2304 8.46364 53.4455 9.26555L54.7686 6.91626C53.1949 5.88505 51.3603 5.31705 49.4763 5.2776C46.5788 5.26452 44.3229 6.92942 44.3229 9.66039C44.3229 12.3914 46.7044 13.3456 48.8412 13.9707L49.086 14.0497C50.6737 14.5169 52.0695 14.8986 52.0695 15.9646C52.0695 17.0307 51.2492 17.5703 49.8269 17.5703C48.0909 17.5006 46.4235 16.8777 45.0704 15.7936L43.5952 18.031C45.3449 19.3966 47.4972 20.1527 49.7211 20.1828C52.7311 20.1828 55.0861 18.6825 55.0861 15.6554C55.0861 13.0165 52.7046 12.0623 50.6009 11.4043Z" fill="#2D2D2D"/>
<path d="M63.984 5.21186C59.8259 5.28062 56.5041 8.6767 56.5488 12.8133C56.5935 16.9499 59.9879 20.2742 64.1465 20.2542C68.3052 20.234 71.6669 16.877 71.6711 12.7401C71.6732 10.7222 70.8601 8.78818 69.4145 7.37251C67.969 5.95685 66.0123 5.17831 63.984 5.21186ZM63.984 17.3795C62.7821 17.3607 61.6381 16.8621 60.8095 15.9958C59.9809 15.1295 59.5372 13.9681 59.5782 12.773C59.5782 10.2131 61.2717 8.16657 63.9245 8.16657C65.1323 8.17464 66.2852 8.66905 67.1204 9.53699C67.9555 10.4049 68.4016 11.5724 68.3568 12.773C68.3568 15.2802 66.6633 17.3795 63.984 17.3795Z" fill="#2D2D2D"/>
<path d="M80.8067 5.21188C78.9544 5.1952 77.2341 6.16373 76.295 7.75201V5.51459H72.9873V19.9196H76.295V11.7859C76.295 9.54853 77.6181 8.21266 79.5498 8.21266C81.4815 8.21266 82.6392 9.49588 82.6392 11.7333V19.9196H85.9469V10.7528C85.9535 7.39666 84.0615 5.21188 80.8067 5.21188Z" fill="#2D2D2D"/>
<path d="M0.866615 24.5689H0V32.1945H5.19969V31.3998H0.866615V24.5689Z" fill="#808080"/>
<path d="M8.81156 26.4408C8.05681 26.4611 7.34216 26.7826 6.82922 27.3327C6.31627 27.8828 6.04835 28.6149 6.08602 29.3636C6.0479 30.1322 6.3295 30.8826 6.86488 31.439C7.40026 31.9954 8.14238 32.3089 8.9174 32.3062C9.81234 32.3307 10.6697 31.9486 11.246 31.2684L10.7234 30.8021C10.2708 31.3135 9.61625 31.6036 8.93063 31.5968C7.87217 31.5981 6.99894 30.7745 6.94602 29.7249H11.4511C11.4511 29.5935 11.4511 29.5081 11.4511 29.4293C11.4577 27.7741 10.4919 26.4408 8.81156 26.4408ZM6.94602 29.0681C6.98084 28.0594 7.77765 27.2399 8.79171 27.1699C9.92294 27.1502 10.5051 28.05 10.5845 29.0484L6.94602 29.0681Z" fill="#808080"/>
<path d="M14.9772 26.4736C14.2591 26.4737 13.5506 26.6378 12.9066 26.9531L13.1646 27.6428C13.6987 27.3773 14.2873 27.2379 14.8846 27.2355C15.9497 27.2355 16.5649 27.761 16.5649 28.7659V28.9367C16.0014 28.7772 15.4176 28.6998 14.8317 28.7068C13.3895 28.7068 12.4038 29.3636 12.4038 30.5459C12.4038 31.7282 13.4557 32.3193 14.5207 32.3193C15.3137 32.3319 16.0644 31.9653 16.5384 31.3341V32.1748H17.3786V28.7528C17.4171 28.1434 17.2019 27.5449 16.7832 27.0976C16.2868 26.6628 15.6383 26.4387 14.9772 26.4736ZM16.5781 30.1255C16.5781 31.0188 15.7313 31.6428 14.6861 31.6428C13.8923 31.6428 13.2307 31.229 13.2307 30.5196C13.2307 29.8103 13.8923 29.3636 14.9177 29.3636C15.4796 29.3637 16.0388 29.4433 16.5781 29.6001V30.1255Z" fill="#808080"/>
<path d="M19.9256 28.05V26.5656H19.0854V32.1945H19.9256V29.9482C19.9256 28.2536 20.9378 27.3669 22.1814 27.3669H22.2476V26.4671C21.2135 26.4515 20.2824 27.0862 19.9256 28.05Z" fill="#808080"/>
<path d="M26.2104 26.4408C25.4058 26.4208 24.6565 26.8459 24.2654 27.5443V26.5656H23.4253V32.1945H24.2654V28.9696C24.2356 28.5057 24.4035 28.0508 24.7281 27.716C25.0528 27.3812 25.5043 27.1973 25.9722 27.2093C26.4194 27.1878 26.853 27.3647 27.1559 27.692C27.4587 28.0193 27.5995 28.4633 27.5401 28.9039V32.188H28.3868V28.7068C28.4475 28.1079 28.2417 27.5126 27.8233 27.077C27.4049 26.6414 26.8158 26.409 26.2104 26.4408Z" fill="#808080"/>
<path d="M31.0064 26.5656H30.1597V32.1945H31.0064V26.5656Z" fill="#808080"/>
<path d="M31.0659 24.4047H30.1001V25.3308H31.0659V24.4047Z" fill="#808080"/>
<path d="M35.6501 26.4408C34.8565 26.4301 34.1216 26.8543 33.7382 27.5443V26.5656H32.8584V32.1945H33.7382V28.9696C33.7085 28.5069 33.8755 28.0531 34.1987 27.7185C34.5219 27.3838 34.9716 27.1991 35.4384 27.2093C35.881 27.1958 36.3073 27.3761 36.6041 27.7024C36.9009 28.0287 37.0383 28.468 36.9798 28.9039V32.188H37.8266V28.7068C37.8872 28.1079 37.6814 27.5126 37.263 27.077C36.8446 26.6414 36.2555 26.409 35.6501 26.4408Z" fill="#808080"/>
<path d="M44.0783 27.5771C43.5756 26.8528 42.7413 26.4262 41.8555 26.4408C40.3758 26.4408 39.1763 27.6318 39.1763 29.1009C39.1763 30.57 40.3758 31.761 41.8555 31.761C42.7537 31.7661 43.5931 31.3184 44.0849 30.5722V31.229C44.1259 31.7772 43.9186 32.315 43.5195 32.696C43.1204 33.0771 42.571 33.2616 42.0209 33.1994C41.2343 33.2018 40.4682 32.9506 39.8378 32.4835L39.4541 33.1403C40.2077 33.6727 41.1092 33.9596 42.0341 33.9614C42.8281 34.008 43.6076 33.7358 44.1973 33.206C44.699 32.6743 44.9616 31.9632 44.925 31.2356V26.5656H44.0783V27.5771ZM42.0209 31.0188C41.4984 31.0367 40.9912 30.8422 40.6166 30.4801C40.2419 30.1181 40.0324 29.6199 40.0363 29.1009C40.0226 28.579 40.2291 28.0751 40.606 27.7109C40.9828 27.3467 41.4957 27.1553 42.0209 27.183C42.7492 27.1231 43.4495 27.475 43.8322 28.0931C44.2149 28.7113 44.2149 29.4905 43.8322 30.1087C43.4495 30.7268 42.7492 31.0787 42.0209 31.0188Z" fill="#808080"/>
<path d="M47.6176 31.0517H46.6055V32.1945H47.6176V31.0517Z" fill="#808080"/>
<path d="M57.3356 28.2536C58.083 27.9862 58.5753 27.2754 58.5595 26.4868C58.5699 26.0234 58.3909 25.5756 58.0633 25.2454C57.5136 24.7775 56.8012 24.5417 56.0787 24.5886H52.771V32.1945H56.1845C57.8715 32.1945 58.9763 31.4195 58.9763 30.1124C58.9828 29.0484 58.2485 28.5229 57.3356 28.2536ZM53.6376 25.3439H55.9728C57.071 25.3439 57.6796 25.83 57.6796 26.5853C57.6796 27.4983 56.9519 27.9712 55.9067 27.9712H53.6376V25.3439ZM56.2308 31.4195H53.6508V28.7068H56.0787C57.4018 28.7068 58.1162 29.1863 58.1162 30.0205C58.1162 30.8546 57.3819 31.4195 56.2308 31.4195Z" fill="#808080"/>
<path d="M62.8463 26.4408C62.0892 26.4576 61.3711 26.7776 60.8553 27.3281C60.3395 27.8786 60.0698 28.6127 60.1075 29.3636C60.0694 30.1322 60.351 30.8826 60.8864 31.439C61.4217 31.9954 62.1638 32.3089 62.9389 32.3062C63.8417 32.3299 64.7054 31.9399 65.2807 31.2487L64.7515 30.7824C64.3004 31.292 63.6487 31.582 62.9653 31.5771C61.9069 31.5784 61.0336 30.7548 60.9807 29.7052H65.4924C65.498 29.6067 65.498 29.5081 65.4924 29.4096C65.4924 27.7741 64.5133 26.4408 62.8463 26.4408ZM60.9741 29.0681C61.0089 28.0594 61.8057 27.2399 62.8198 27.1699C63.9444 27.1699 64.5332 28.0434 64.6324 29.0681H60.9741Z" fill="#808080"/>
<path d="M67.9929 24.8644H67.1461V26.5656H66.3589V27.3012H67.1461V30.6773C67.0967 31.1132 67.2504 31.5477 67.5635 31.8573C67.8766 32.1668 68.3148 32.3176 68.7537 32.2668C69.1077 32.2727 69.4577 32.1915 69.7724 32.0303V31.3341C69.5194 31.4656 69.2377 31.5333 68.9521 31.5311C68.6898 31.571 68.424 31.4855 68.2351 31.3005C68.0462 31.1155 67.9564 30.8528 67.9929 30.5919V27.3078H69.7923V26.5656H67.9929V24.8644Z" fill="#808080"/>
<path d="M72.3192 24.8644H71.4459V26.5656H70.6587V27.3012H71.4459V30.6773C71.3965 31.1132 71.5502 31.5477 71.8633 31.8573C72.1764 32.1668 72.6146 32.3176 73.0535 32.2668C73.412 32.285 73.7693 32.2127 74.0921 32.0566V31.3341C73.8394 31.4664 73.5574 31.5341 73.2718 31.5311C73.0095 31.571 72.7437 31.4855 72.5548 31.3005C72.3659 31.1155 72.2761 30.8528 72.3125 30.5919V27.3078H74.1185V26.5656H72.3125L72.3192 24.8644Z" fill="#808080"/>
<path d="M77.7173 26.4408C76.9626 26.4611 76.2479 26.7826 75.735 27.3327C75.222 27.8828 74.9541 28.6149 74.9918 29.3636C74.9537 30.1322 75.2353 30.8826 75.7706 31.439C76.306 31.9954 77.0481 32.3089 77.8232 32.3062C78.726 32.3299 79.5897 31.9399 80.165 31.2487L79.6358 30.7824C79.1863 31.2942 78.5335 31.5847 77.8496 31.5771C76.7912 31.5784 75.9179 30.7548 75.865 29.7052H80.3701C80.3757 29.6067 80.3757 29.5081 80.3701 29.4096C80.3635 27.7741 79.3844 26.4408 77.7173 26.4408ZM75.8452 29.0681C75.88 28.0594 76.6768 27.2399 77.6909 27.1699C78.8155 27.1699 79.4109 28.0434 79.5035 29.0681H75.8452Z" fill="#808080"/>
<path d="M82.5799 28.05V26.5656H81.7397V32.1945H82.5799V29.9482C82.5799 28.2536 83.592 27.3669 84.8357 27.3669H84.9019V26.4671C83.8678 26.4515 82.9367 27.0862 82.5799 28.05Z" fill="#808080"/>
<path d="M85.9999 31.0517H84.9878V32.1945H85.9999V31.0517Z" fill="#808080"/>
</g>
<defs>
<clipPath id="clip0_147_518">
<rect width="86" height="34" fill="white"/>
</clipPath>
</defs>
</svg>
