<svg width="116" height="16" viewBox="0 0 116 16" fill="none" xmlns="http://www.w3.org/2000/svg">
<g clip-path="url(#clip0_147_498)">
<path d="M46.6772 8.7527C46.9969 7.37501 48.0242 6.77514 49.2049 6.77514C50.3856 6.77514 51.543 7.37076 51.6986 8.7527H46.6772ZM53.2821 13.1063L53.4505 11.2102C50.6755 12.7378 47.2484 12.9521 46.7283 10.2782H53.7361V9.43189C53.6509 6.5523 51.462 5.12964 49.2049 5.12964C46.8967 5.12964 44.6396 6.60371 44.6396 9.60114C44.6396 14.1391 49.4905 15.069 53.2821 13.1063Z" fill="#181818"/>
<path d="M36.483 8.7527C36.8027 7.37501 37.83 6.77514 39.0108 6.77514C40.1894 6.77514 41.3488 7.37076 41.5044 8.7527H36.483ZM43.0858 13.1063L43.2542 11.2102C40.4792 12.7378 37.0521 12.9521 36.532 10.2782H43.5398V9.43189C43.4545 6.5523 41.2657 5.12964 39.0086 5.12964C36.7004 5.12964 34.4434 6.60371 34.4434 9.60114C34.4434 14.1391 39.2963 15.069 43.0858 13.1063Z" fill="#181818"/>
<path d="M57.1718 1.60727H55.2344V13.8348H57.1718V10.0746C57.9134 10.0746 58.4867 10.0746 59.075 10.6167C59.8998 11.463 60.5073 12.5471 61.0635 13.8348H63.2862C62.7474 12.1079 61.0465 9.41474 59.2434 9.41474V9.15974C60.7268 9.15974 62.5447 6.82224 63.033 5.36744H60.9953C60.5243 6.38301 59.8998 7.31499 59.0409 8.07774C58.4676 8.61981 57.777 8.60268 57.1718 8.60268V1.60727Z" fill="#181818"/>
<path d="M66.982 7.2122V4.06265H69.8464C71.3788 4.06265 71.9694 4.84254 71.9694 5.63743C71.9694 6.41731 71.3788 7.2122 69.8464 7.2122H66.982ZM66.982 12.0544V8.90483H70.3179C71.8502 8.90483 72.4402 9.6847 72.4402 10.4796C72.4402 11.2595 71.8178 12.0544 70.2836 12.0544H66.982ZM70.2668 2.28433H64.9595V13.8327H70.7713C73.2479 13.8327 74.4952 12.4271 74.4952 10.7346C74.4952 9.24333 73.4162 8.17851 71.5815 8.05851V7.78858C73.3333 7.46714 73.99 6.36589 73.99 5.21534C73.99 3.65556 72.777 2.28433 70.2668 2.28433Z" fill="#181818"/>
<path d="M75.9844 5.36531V13.8327H77.9221V8.14419C78.6468 7.41575 79.5885 7.16294 81.1233 7.16294H81.8991L81.7476 5.21533H81.1252C79.8442 5.21533 78.6318 5.77454 78.1609 6.94225H77.9239V5.36531H75.9844Z" fill="#181818"/>
<path d="M84.2604 9.59899C84.2604 7.73712 85.3113 6.78793 86.7264 6.78793C87.8714 6.78793 88.6703 7.14362 89.3781 7.87206V11.3259C88.6703 12.0544 87.8714 12.41 86.7264 12.41C85.3138 12.41 84.2604 11.463 84.2604 9.59899ZM89.38 5.3653V6.60155H89.1605C88.4015 5.60312 87.5197 5.09534 86.2212 5.09534C83.5763 5.09534 82.2554 7.24643 82.2554 9.59899C82.2554 11.9515 83.5763 14.1026 86.2212 14.1026C87.5197 14.1026 88.4015 13.5949 89.1605 12.5964H89.38V13.8327H91.3177V5.3653H89.38Z" fill="#181818"/>
<path d="M93.6489 13.8327H95.5866V5.36531H93.6489V13.8327ZM94.6274 4.28332C95.435 4.28332 95.9745 3.74126 95.9745 2.92923C95.9745 2.1172 95.435 1.57513 94.6274 1.57513C93.8197 1.57513 93.2803 2.1172 93.2803 2.92923C93.2784 3.74126 93.8172 4.28332 94.6274 4.28332Z" fill="#181818"/>
<path d="M99.8575 5.3653H97.9204V13.8327H99.8575V7.87206C100.565 7.17787 101.347 6.78793 102.289 6.78793C103.317 6.78793 104.284 7.36431 104.284 9.09118V13.8327H106.222V8.65199C106.222 6.46657 105.203 5.09534 103.099 5.09534C101.955 5.09534 100.802 5.58598 100.043 6.67011H99.8575V5.3653Z" fill="#181818"/>
<path d="M107.848 7.8228C107.848 9.32899 109.246 9.92249 110.324 10.1603L112.801 10.6852C113.608 10.8545 113.979 11.0924 113.979 11.4973C113.979 12.1079 113.138 12.395 111.908 12.395C110.459 12.395 108.792 11.8358 107.864 11.328L108.033 13.2413C109.112 13.8005 110.51 14.1047 111.805 14.1047C114.214 14.1047 116 13.3099 116 11.4116C116 9.87105 114.719 9.29474 113.22 8.97337L110.963 8.49987C110.256 8.34774 109.868 8.10993 109.868 7.70499C109.868 7.12862 110.627 6.82437 111.84 6.82437C113.204 6.82437 114.67 7.33218 115.444 7.75637L115.275 5.84308C114.348 5.36958 113.152 5.09748 111.94 5.09748C109.736 5.09533 107.848 5.87522 107.848 7.8228Z" fill="#181818"/>
<path d="M27.3907 7.45433V9.31189H30.9841V11.3923C30.0144 11.9558 29.0127 12.2129 28.06 12.2129C25.7816 12.2129 23.71 10.726 23.71 8.07777C23.71 5.4296 25.7838 3.94267 28.06 3.94267C29.5221 3.94267 31.0779 4.53615 32.4888 5.7317L32.28 3.36847C30.916 2.47073 29.4155 2.04651 27.8319 2.04651C24.6648 2.04651 21.5659 4.18049 21.5659 8.07564C21.5659 11.9708 24.6648 14.1048 27.8319 14.1048C29.4155 14.1048 31.0673 13.7491 32.9364 12.3608V7.45433H27.3907Z" fill="#181818"/>
<path d="M6.49114 1.87005L6.35449 0.627006C4.52064 0.0643183 2.56508 1.46141 1.37594 3.04464C0.697041 3.96462 0.135566 4.98516 0.714123 5.90514C-0.238041 6.79087 -0.238041 8.7485 0.714123 9.65138C0.135566 10.5714 0.697041 11.5919 1.37594 12.5119C2.53305 14.0437 4.0104 15.0494 5.53898 15.0494C7.11878 15.0494 8.39335 13.7378 8.39335 12.1375V10.9287C8.39335 10.1114 8.08807 9.65138 7.49241 9.02238L6.59148 8.05106C6.60857 7.9655 6.60857 7.897 6.60857 7.81356C6.60857 7.15031 6.13248 6.67322 5.47067 6.67322C4.84301 6.67322 4.34984 7.15031 4.34984 7.81356C4.34984 8.4105 4.84301 8.90256 5.47067 8.90256C5.55606 8.90256 5.62438 8.88544 5.67348 8.88544L6.60857 9.87388C6.96511 10.2654 7.13587 10.5543 7.13587 11.0314V12.1375C7.13587 13.5174 6.01506 14.0951 4.77469 13.6351C3.94208 13.3292 3.09239 12.6981 2.31103 11.6775C1.61504 10.7062 1.76662 10.2483 2.15731 9.97444C2.49676 9.77119 2.85329 9.80331 3.466 10.5714C3.43397 10.6719 3.4169 10.7918 3.4169 10.9116C3.4169 11.5406 3.92714 12.0519 4.53771 12.0519C5.1483 12.0519 5.64145 11.5406 5.64145 10.9116C5.64145 10.2997 5.1483 9.78831 4.53771 9.78831H4.45232C3.72219 8.85125 2.83834 8.20513 1.61504 8.85125C1.17312 8.45969 1.24144 7.06263 1.61504 6.70531C2.83834 7.35144 3.72219 6.70531 4.45232 5.76821H4.53771C5.1483 5.76821 5.64145 5.25688 5.64145 4.64498C5.64145 4.01597 5.1483 3.50463 4.53771 3.50463C3.92714 3.50463 3.4169 4.01597 3.4169 4.64498C3.4169 4.76479 3.43397 4.88246 3.46813 4.98516C2.85755 5.75109 2.4989 5.78533 2.15945 5.58207C1.76876 5.31036 1.61504 4.85037 2.31316 3.87904C3.28026 2.61888 4.94548 1.24104 6.49114 1.87005ZM8.47661 13.6865L8.61325 14.9296C10.4471 15.4922 12.4026 14.0951 13.5918 12.5119C14.2707 11.5919 14.8322 10.5714 14.2536 9.65138C15.2058 8.76563 15.2058 6.808 14.2536 5.90514C14.8322 4.98516 14.2707 3.96462 13.5918 3.04464C12.4347 1.51276 10.9573 0.509334 9.42874 0.509334C7.84896 0.509334 6.57439 1.82084 6.57439 3.42119V4.63C6.57439 5.44729 6.87967 5.90728 7.47533 6.53629L8.37626 7.50763C8.35917 7.59319 8.35917 7.66169 8.35917 7.74513C8.35917 8.40838 8.83527 8.88544 9.49709 8.88544C10.1247 8.88544 10.6179 8.40838 10.6179 7.74513C10.6179 7.14819 10.1247 6.65611 9.49709 6.65611C9.41165 6.65611 9.34336 6.67322 9.29428 6.67322L8.35917 5.68477C8.00263 5.29324 7.83187 5.00441 7.83187 4.52731V3.42119C7.83187 2.04121 8.95271 1.46355 10.193 1.92354C11.0257 2.22949 11.8753 2.86064 12.6567 3.88118C13.3527 4.85251 13.2011 5.31036 12.8105 5.58422C12.471 5.78747 12.1145 5.75538 11.5017 4.9873C11.5359 4.8846 11.553 4.76693 11.553 4.64712C11.553 4.01811 11.0428 3.50677 10.4321 3.50677C9.82158 3.50677 9.3284 4.01811 9.3284 4.64712C9.3284 5.25901 9.82158 5.77035 10.4321 5.77035H10.5176C11.2477 6.70745 12.1315 7.35356 13.3548 6.70745C13.7968 7.099 13.7284 8.49606 13.3548 8.85338C12.1315 8.20725 11.2477 8.85338 10.5176 9.79044H10.4321C9.82158 9.79044 9.3284 10.3018 9.3284 10.9137C9.3284 11.5427 9.82158 12.0541 10.4321 12.0541C11.0428 12.0541 11.553 11.5427 11.553 10.9137C11.553 10.7939 11.5359 10.6762 11.5017 10.5735C12.1123 9.80756 12.471 9.77337 12.8105 9.97662C13.2011 10.2483 13.3548 10.7083 12.6567 11.6796C11.6875 12.9377 10.0223 14.3155 8.47661 13.6865Z" fill="#181818"/>
</g>
<defs>
<clipPath id="clip0_147_498">
<rect width="116" height="15" fill="white" transform="translate(0 0.5)"/>
</clipPath>
</defs>
</svg>
