<svg width="50" height="50" viewBox="0 0 50 50" fill="none" xmlns="http://www.w3.org/2000/svg">
<path d="M21.6838 4.70595L21.2273 0.436249C15.1013 -1.49651 8.56869 3.30231 4.59635 8.74052C2.32848 11.9005 0.45286 15.406 2.38554 18.566C-0.79518 21.6084 -0.79518 28.3326 2.38554 31.4338C0.45286 34.5939 2.32848 38.0994 4.59635 41.2593C8.46171 46.5211 13.3968 49.9753 18.5031 49.9753C23.7804 49.9753 28.0381 45.4702 28.0381 39.9734V35.8213C28.0381 33.0139 27.0183 31.4338 25.0285 29.2733L22.019 25.937C22.076 25.6431 22.076 25.4078 22.076 25.1212C22.076 22.843 20.4857 21.2042 18.2749 21.2042C16.1781 21.2042 14.5307 22.843 14.5307 25.1212C14.5307 27.1716 16.1781 28.8618 18.2749 28.8618C18.5601 28.8618 18.7883 28.8029 18.9524 28.8029L22.076 32.1981C23.2671 33.5431 23.8375 34.5351 23.8375 36.174V39.9734C23.8375 44.7133 20.0934 46.6976 15.9499 45.1175C13.1686 44.0667 10.3302 41.8988 7.72002 38.3933C5.39508 35.057 5.90144 33.4842 7.20654 32.5435C8.34046 31.8454 9.53146 31.9557 11.5782 34.5939C11.4712 34.9393 11.4142 35.3509 11.4142 35.7624C11.4142 37.923 13.1187 39.6795 15.1583 39.6795C17.198 39.6795 18.8454 37.923 18.8454 35.7624C18.8454 33.6607 17.198 31.9042 15.1583 31.9042H14.8731C12.434 28.6855 9.48152 26.4662 5.39508 28.6855C3.91883 27.3405 4.14706 22.5418 5.39508 21.3145C9.48152 23.5338 12.434 21.3145 14.8731 18.0957H15.1583C17.198 18.0957 18.8454 16.3393 18.8454 14.2375C18.8454 12.0769 17.198 10.3205 15.1583 10.3205C13.1187 10.3205 11.4142 12.0769 11.4142 14.2375C11.4142 14.649 11.4712 15.0532 11.5854 15.406C9.54571 18.0369 8.3476 18.1545 7.21367 17.4563C5.90856 16.523 5.39508 14.943 7.72714 11.6066C10.9578 7.27807 16.5205 2.54539 21.6838 4.70595ZM28.3162 45.294L28.7727 49.5638C34.8987 51.4965 41.4312 46.6976 45.4037 41.2593C47.6715 38.0994 49.5471 34.5939 47.6144 31.4338C50.7952 28.3914 50.7952 21.6672 47.6144 18.566C49.5471 15.406 47.6715 11.9005 45.4037 8.74052C41.5383 3.47869 36.6031 0.03206 31.4969 0.03206C26.2196 0.03206 21.9619 4.53694 21.9619 10.0339V14.186C21.9619 16.9933 22.9817 18.5733 24.9715 20.7339L27.981 24.0703C27.924 24.3642 27.924 24.5995 27.924 24.8861C27.924 27.1643 29.5144 28.8029 31.7252 28.8029C33.8219 28.8029 35.4692 27.1643 35.4692 24.8861C35.4692 22.8357 33.8219 21.1455 31.7252 21.1455C31.4398 21.1455 31.2117 21.2042 31.0477 21.2042L27.924 17.8091C26.7329 16.4642 26.1625 15.4721 26.1625 13.8333V10.0339C26.1625 5.29388 29.9067 3.30968 34.05 4.88968C36.8315 5.94058 39.6698 8.1085 42.28 11.6139C44.605 14.9503 44.0985 16.523 42.7935 17.4637C41.6596 18.1618 40.4685 18.0516 38.4217 15.4133C38.5358 15.0606 38.5929 14.6564 38.5929 14.2448C38.5929 12.0843 36.8885 10.3279 34.8487 10.3279C32.8092 10.3279 31.1617 12.0843 31.1617 14.2448C31.1617 16.3466 32.8092 18.103 34.8487 18.103H35.1342C37.5731 21.3218 40.5256 23.5411 44.6121 21.3218C46.0883 22.6667 45.86 27.4655 44.6121 28.6928C40.5256 26.4734 37.5731 28.6928 35.1342 31.9115H34.8487C32.8092 31.9115 31.1617 33.668 31.1617 35.7697C31.1617 37.9303 32.8092 39.6868 34.8487 39.6868C36.8885 39.6868 38.5929 37.9303 38.5929 35.7697C38.5929 35.3582 38.5358 34.9539 38.4217 34.6012C40.4615 31.9703 41.6596 31.8529 42.7935 32.551C44.0985 33.4842 44.6121 35.0643 42.28 38.4006C39.0423 42.7219 33.4796 47.4545 28.3162 45.294Z" fill="#181818"/>
</svg>
