<svg width="99" height="34" viewBox="0 0 99 34" fill="none" xmlns="http://www.w3.org/2000/svg">
<g clip-path="url(#clip0_147_510)">
<path d="M0.86084 2.16363L13.4049 0.865448L25.8875 2.16363V25.3454L13.4049 32.7636L0.86084 25.3454V2.16363Z" stroke="#2E2E2E" stroke-width="1.6"/>
<path d="M1.04541 12.92L12.9746 5.93454L25.8262 12.92V13.6618L13.405 21.0182L1.04541 13.6618V12.92Z" stroke="#2E2E2E"/>
<path d="M13.4049 20.2764L15.1881 19.1018L13.4049 17.9273V16.7527L16.295 18.4837L17.2173 17.9273L13.4049 15.64V14.28L18.2627 17.2473L19.2465 16.6909L13.4049 13.0437V11.7455L21.3372 16.6291V21.8218L13.4049 26.6436L5.34961 21.9455V20.5855L13.4049 25.4691V24.1709L5.34961 19.4109V18.2364L13.4049 22.9346V20.2764ZM41.0142 24.6655C41.1987 24.6655 41.3832 24.6037 41.5061 24.5418V25.7782C41.1372 25.9018 40.7682 25.9637 40.3993 25.9637C39.7229 25.9637 39.1695 25.7164 38.862 25.0364C38.1241 25.6546 37.2018 26.0255 35.972 26.0255C34.5577 26.0255 33.2664 25.2837 33.2664 23.6764C33.2664 21.6982 35.1111 21.08 36.6484 21.08C37.3248 21.08 38.0012 21.1418 38.6161 21.3273V21.08C38.6161 20.0909 37.9397 19.4727 36.5869 19.4727C35.6645 19.4727 34.6807 19.6582 33.8198 20.0909V18.5455C34.7422 18.2364 35.726 18.0509 36.7713 18.0509C38.9235 18.0509 40.3378 19.1018 40.3378 21.3891V24.1091C40.3993 24.5418 40.7068 24.6655 41.0142 24.6655ZM35.0496 23.6146C35.0496 24.3564 35.726 24.7273 36.4639 24.7273C37.2633 24.7273 38.0627 24.4182 38.6776 23.8V22.5018C38.1241 22.3782 37.5707 22.3164 37.0173 22.3164C36.095 22.3782 35.0496 22.6873 35.0496 23.6146ZM46.4254 17.9891C47.2863 17.9891 48.0856 18.1746 48.762 18.6073V20.1527C48.2086 19.7818 47.4092 19.5346 46.6714 19.5346C45.3186 19.5346 43.9658 20.2764 43.9658 22.0691C43.9658 23.8 45.3186 24.6037 46.6714 24.6037C47.4707 24.6037 48.2086 24.4182 48.885 23.9855V25.5927C48.1471 25.9637 47.3477 26.1491 46.3639 26.1491C44.3347 26.1491 42.244 24.9127 42.244 22.1309C42.1825 19.2255 44.3962 17.9891 46.4254 17.9891ZM57.5552 24.6655C57.7397 24.6655 57.9241 24.6037 58.0471 24.5418V25.7782C57.6782 25.9018 57.3092 25.9637 56.9403 25.9637C56.2639 25.9637 55.7105 25.7164 55.403 25.0364C54.6651 25.6546 53.7428 26.0255 52.513 26.0255C51.0987 26.0255 49.8074 25.2837 49.8074 23.6764C49.8074 21.6982 51.6521 21.08 53.1894 21.08C53.8658 21.08 54.5422 21.1418 55.1571 21.3273V21.08C55.1571 20.0909 54.4807 19.4727 53.1279 19.4727C52.2055 19.4727 51.2217 19.6582 50.3608 20.0909V18.5455C51.2832 18.2364 52.267 18.0509 53.3123 18.0509C55.4645 18.0509 56.8788 19.1018 56.8788 21.3891V24.1091C57.0018 24.5418 57.2477 24.6655 57.5552 24.6655ZM51.6521 23.6146C51.6521 24.3564 52.3285 24.7273 53.0664 24.7273C53.8658 24.7273 54.6651 24.4182 55.28 23.8V22.5018C54.7266 22.3782 54.1732 22.3164 53.6198 22.3164C52.6974 22.3782 51.6521 22.6873 51.6521 23.6146ZM67.0248 14.6509V25.84H65.4875V24.6037C64.8726 25.3455 64.0117 26.0255 62.5359 26.0255C60.1993 26.0255 58.7235 24.1709 58.7235 21.9455C58.7235 19.72 60.1993 17.8655 62.5359 17.8655C63.8887 17.8655 64.7496 18.4837 65.303 19.04V14.5273H67.0248V14.6509ZM62.9049 19.4727C61.5521 19.4727 60.5068 20.5236 60.5068 22.0073C60.5068 23.4909 61.4906 24.5418 62.9049 24.5418C63.9502 24.5418 64.9341 23.9236 65.3645 22.9346V21.08C64.9341 20.0909 63.9502 19.4727 62.9049 19.4727ZM72.5589 17.9891C75.572 17.9891 76.6788 20.4618 76.1869 22.6873H70.4068C70.5912 24.0473 71.944 24.6655 73.3583 24.6655C74.2192 24.6655 75.0186 24.48 75.7564 24.1091V25.5927C75.08 25.9018 74.0962 26.1491 72.9894 26.1491C70.6527 26.1491 68.6235 24.7891 68.6235 22.0691C68.685 19.2255 70.7757 17.9891 72.5589 17.9891ZM72.6819 19.4109C71.5136 19.4109 70.5297 20.0909 70.4068 21.3891H74.6496C74.7111 20.7091 74.3422 19.4109 72.6819 19.4109ZM77.9086 25.9018V18.1746H79.4459V19.1637C79.8763 18.6691 80.7372 17.9891 81.967 17.9891C83.1353 17.9891 83.9347 18.4837 84.3651 19.2255C85.0415 18.5455 85.9024 17.9891 87.0707 17.9891C89.0999 17.9891 89.9608 19.4727 89.9608 21.08V25.9018H88.2391V21.1418C88.2391 20.1527 87.6241 19.5346 86.7018 19.5346C85.8409 19.5346 85.226 20.0909 84.7956 20.5855C84.7956 20.7709 84.8571 20.9564 84.8571 21.1418V25.9637H83.1353V21.2037C83.1353 20.2146 82.5204 19.5964 81.5981 19.5964C80.6757 19.5964 79.9993 20.2764 79.5689 20.7709V25.9637L77.9086 25.9018ZM97.4627 18.1746H99.2459L95.6794 26.8909C94.8801 28.8691 93.7732 29.5491 92.6049 29.5491C92.236 29.5491 91.9285 29.4873 91.621 29.4255V27.9418C91.867 28.0037 92.113 28.0655 92.4204 28.0655C93.2198 28.0655 93.8962 27.4473 94.3266 26.2727L94.5111 25.9018L90.8832 18.1746H92.7279L95.3105 23.9855L97.4627 18.1746ZM35.603 1.17456V5.56365C36.2794 4.88365 37.1403 4.51274 38.0627 4.51274C39.9689 4.51274 41.1987 5.81092 41.1987 7.66547V12.4255H39.4769V7.91274C39.4769 6.67638 38.7391 6.0582 37.6937 6.0582C36.7099 6.0582 35.972 6.7382 35.5415 7.35638V12.4255H33.8198V1.17456H35.603ZM45.872 1.9782V4.6982H48.6391V6.18183H45.872V9.70547C45.872 10.6946 46.3639 11.0655 47.3477 11.0655C47.9012 11.0655 48.3931 10.9418 48.885 10.7564V12.24C48.2086 12.4873 47.5322 12.6109 46.8558 12.5491C45.38 12.5491 44.2117 11.8073 44.2117 10.0146V6.18183H42.8589V4.6982H44.2117V2.41092L45.872 1.9782ZM50.7912 12.4255V4.6982H52.3285V5.68729C52.7589 5.25456 53.6198 4.51274 54.8496 4.51274C56.0179 4.51274 56.8173 5.00729 57.2477 5.74911C57.9241 5.06911 58.785 4.51274 59.9533 4.51274C61.9825 4.51274 62.8434 5.99638 62.8434 7.60365V12.4255H61.1217V7.66547C61.1217 6.67638 60.5068 6.0582 59.5844 6.0582C58.7235 6.0582 58.1086 6.61456 57.6782 7.10911C57.6782 7.29456 57.7397 7.48002 57.7397 7.66547V12.4873H56.0179V7.72729C56.0179 6.7382 55.403 6.12001 54.4807 6.12001C53.5583 6.12001 52.8819 6.80002 52.4515 7.29456V12.4873L50.7912 12.4255ZM65.3645 1.17456H67.0863V12.3637H65.3645V1.17456Z" fill="#2E2E2E"/>
</g>
<defs>
<clipPath id="clip0_147_510">
<rect width="99" height="34" fill="white"/>
</clipPath>
</defs>
</svg>
