<svg width="63" height="14" viewBox="0 0 63 14" fill="none" xmlns="http://www.w3.org/2000/svg">
<g clip-path="url(#clip0_147_514)">
<path fill-rule="evenodd" clip-rule="evenodd" d="M8.77921 9.97914C8.77921 12.178 7.02813 13.7726 4.24667 13.7726C2.63385 13.7279 1.10542 13.0419 0 11.8667L0.93023 10.8378C1.8009 11.6668 2.82534 12.4725 4.22826 12.4725C5.78658 12.4725 7.46671 11.5986 7.46671 10.0295C7.46671 8.7262 6.4309 7.87608 4.25425 7.20574C1.77383 6.4477 0.513845 5.41893 0.513845 3.48484C0.513845 1.57077 2.13389 0 4.44214 0C6.16615 0 7.24475 0.734758 8.29462 1.67366L7.3801 2.68889C6.4596 1.87345 5.58245 1.32062 4.50603 1.32062C3.17079 1.32062 1.85287 2.18154 1.85287 3.42094C1.85287 4.54393 2.49829 5.2592 4.77676 5.9566C6.86356 6.59928 8.77921 7.59564 8.77921 9.97914ZM20.0378 1.26818C20.0378 1.87122 20.5265 2.36009 21.1294 2.36009C21.419 2.36023 21.6967 2.24524 21.9014 2.04043C22.1062 1.83563 22.2211 1.55781 22.221 1.26818C22.221 0.665134 21.7323 0.17627 21.1294 0.17627C20.5265 0.17627 20.0378 0.665134 20.0378 1.26818ZM30.6012 0.400065H29.2854V13.5569H30.6012V0.400065ZM33.672 13.119C33.672 13.119 34.482 13.7768 37.1806 13.7768L37.179 13.7763C39.843 13.7763 42.005 11.8281 42.005 9.16631C42.005 6.50446 39.8446 4.56389 37.1806 4.56389C36.4249 4.54366 35.6747 4.69703 34.9877 5.01222V0.400065H33.672V13.119ZM43.5412 9.17783C43.541 11.8408 45.6997 13.9997 48.3629 14.0001C51.0262 14.0001 53.1854 11.8413 53.1856 9.17821C53.1856 6.51522 51.0268 4.35646 48.3636 4.35635C45.7005 4.35626 43.5414 6.5149 43.5412 9.17783ZM61.1641 13.561H62.8816L59.0843 9.03815L62.6255 4.79634H60.9178L58.2283 8.01805L55.5253 4.79634H53.8079L57.3744 9.04406L53.6037 13.561H55.3109L58.2299 10.0642L61.1641 13.561ZM48.3711 5.6582C46.9508 5.65799 45.6702 6.51344 45.1266 7.82555C44.583 9.13774 44.8834 10.6481 45.8877 11.6525C46.892 12.6568 48.4025 12.9572 49.7146 12.4135C51.0268 11.8699 51.8822 10.5893 51.882 9.16905C51.8816 7.23017 50.31 5.6585 48.3711 5.6582ZM37.1804 5.88238C36.3947 5.89343 35.6305 6.14102 34.9875 6.59285V12.0233C35.669 12.3545 36.4241 12.5055 37.1804 12.4619C39.1178 12.4619 40.6891 11.1081 40.6891 9.17216C40.6891 7.23622 39.1162 5.88184 37.1788 5.88184L37.1804 5.88238ZM24.9002 0.400213H26.216V13.557H24.9002V0.400213ZM16.7853 13.558L12.1829 8.95561L16.3494 4.7864H18.2099L14.0433 8.95561L18.6458 13.558H16.7853ZM10.863 0.400065V13.5569H12.1787V0.400065H10.863ZM20.5178 13.558H21.8335V4.7864H20.5178V13.558Z" fill="#181818"/>
</g>
<defs>
<clipPath id="clip0_147_514">
<rect width="63" height="14" fill="white"/>
</clipPath>
</defs>
</svg>
