<svg width="199" height="160" viewBox="0 0 199 160" fill="none" xmlns="http://www.w3.org/2000/svg">
<g clip-path="url(#clip0_392_2)">
<path d="M104 0H94C49.8172 0 14 35.8172 14 80C14 124.183 49.8172 160 94 160H104C148.183 160 184 124.183 184 80C184 35.8172 148.183 0 104 0Z" fill="white"/>
<path d="M16.2467 42.9453C8.90427 42.7291 2.69922 49.7396 2.69922 58.7688V99.1819C2.69922 108.217 8.90153 115.142 16.2413 114.848L188.78 107.879C191.233 107.78 193.499 106.275 195.17 103.823C196.839 101.373 197.881 98.0195 197.881 94.3502V61.4012C197.881 57.732 196.838 54.3931 195.169 51.9651C193.498 49.5347 191.234 48.0562 188.786 47.9832L16.2467 42.9453Z" fill="url(#paint0_linear_392_2)" stroke="#EFDEDE"/>
<path d="M54.0834 74.8145L54.0842 74.8135C54.3059 74.5476 54.3706 74.1555 54.2755 73.7971C54.1788 73.4331 53.9575 73.2264 53.7332 73.1857L43.4249 71.3302C43.4251 71.3302 43.4248 71.3302 43.4249 71.3302L43.5128 70.838C43.1279 70.7693 42.7912 70.4669 42.6193 70.0408L54.0834 74.8145ZM54.0834 74.8145L46.6537 83.7769L46.6513 83.7798C46.2839 84.2298 46.1193 84.846 46.207 85.4455C46.207 85.446 46.2071 85.4466 46.2072 85.4471L47.9731 98.0351C48.0337 98.4665 47.8751 98.8243 47.6627 99.0184C47.46 99.2037 47.2363 99.2314 47.0284 99.1016L47.0266 99.1005L37.6863 93.3272L37.6831 93.3253C37.1661 93.011 36.5405 93.024 36.0314 93.3533L36.0283 93.3554L26.489 99.6302L54.0834 74.8145ZM42.1556 70.2277L37.4685 58.62C37.314 58.2385 37.0508 58.1099 36.8503 58.1075C36.6534 58.1051 36.3967 58.2229 36.2442 58.5994L36.2435 58.6011L31.4942 70.2027L31.4937 70.204C31.2625 70.7643 30.8014 71.1999 30.2026 71.3032C30.2027 71.3031 30.2025 71.3032 30.2026 71.3032L19.3996 73.1724C19.3998 73.1724 19.3994 73.1725 19.3996 73.1724C19.1342 73.2193 18.8959 73.4481 18.7947 73.8206C18.6943 74.1899 18.7623 74.5993 19.0051 74.8834C19.0049 74.8832 19.0053 74.8837 19.0051 74.8834L26.8535 83.9895L26.8544 83.9905C27.2457 84.4471 27.4073 85.0764 27.3202 85.6856L25.4783 98.6133C25.4148 99.0602 25.5807 99.4088 25.7939 99.5889C25.9945 99.7583 26.2408 99.793 26.489 99.6302L42.1556 70.2277ZM42.1556 70.2277C42.1556 70.2276 42.1557 70.2278 42.1556 70.2277Z" fill="white"/>
<path d="M54.0834 74.8145L54.0842 74.8135C54.3059 74.5476 54.3706 74.1555 54.2755 73.7971C54.1788 73.4331 53.9575 73.2264 53.7332 73.1857L43.4249 71.3302M54.0834 74.8145L42.6193 70.0408C42.7912 70.4669 43.1279 70.7693 43.5128 70.838L43.4249 71.3302M54.0834 74.8145L46.6537 83.7769L46.6513 83.7798C46.2839 84.2298 46.1193 84.846 46.207 85.4455C46.207 85.446 46.2071 85.4466 46.2072 85.4471L47.9731 98.0351C48.0337 98.4665 47.8751 98.8243 47.6627 99.0184C47.46 99.2037 47.2363 99.2314 47.0284 99.1016L47.0266 99.1005L37.6863 93.3272L37.6831 93.3253C37.1661 93.011 36.5405 93.024 36.0314 93.3533L36.0283 93.3554L26.489 99.6302M54.0834 74.8145L26.489 99.6302M43.4249 71.3302C43.4248 71.3302 43.4251 71.3302 43.4249 71.3302ZM26.489 99.6302C26.2408 99.793 25.9945 99.7583 25.7939 99.5889C25.5807 99.4088 25.4148 99.0602 25.4783 98.6133L27.3202 85.6856C27.4073 85.0764 27.2457 84.4471 26.8544 83.9905L26.8535 83.9895L19.0051 74.8834M26.489 99.6302L42.1556 70.2277M42.1556 70.2277L37.4685 58.62C37.314 58.2385 37.0508 58.1099 36.8503 58.1075C36.6534 58.1051 36.3967 58.2229 36.2442 58.5994L36.2435 58.6011L31.4942 70.2027L31.4937 70.204C31.2625 70.7643 30.8014 71.1999 30.2026 71.3032M42.1556 70.2277C42.1557 70.2278 42.1556 70.2276 42.1556 70.2277ZM30.2026 71.3032C30.2025 71.3032 30.2027 71.3031 30.2026 71.3032ZM30.2026 71.3032L19.3996 73.1724M19.3996 73.1724C19.3994 73.1725 19.3998 73.1724 19.3996 73.1724ZM19.3996 73.1724C19.1342 73.2193 18.8959 73.4481 18.7947 73.8206C18.6943 74.1899 18.7623 74.5993 19.0051 74.8834M19.0051 74.8834C19.0053 74.8837 19.0049 74.8832 19.0051 74.8834Z" stroke="#EFDEDE"/>
<path d="M75.4522 59.154L75.4528 59.1555L79.8024 70.3286C79.8026 70.329 79.8028 70.3295 79.803 70.33C80.0072 70.8616 80.4353 71.3047 81.0127 71.4047L90.5763 73.191C90.7625 73.2257 90.9652 73.4081 91.0546 73.7606C91.1421 74.1053 91.0799 74.4829 90.876 74.7373L83.975 83.3703L83.9727 83.3732C83.6292 83.8096 83.4751 84.4081 83.554 84.9872L85.1897 97.1169C85.2453 97.5318 85.097 97.8745 84.9055 98.0572C84.7257 98.2285 84.5449 98.245 84.3759 98.1357L84.3749 98.1351L75.7081 92.5611L75.7066 92.5602C75.2121 92.2445 74.6038 92.2584 74.1184 92.5889L65.2792 98.6238L65.2783 98.6244C65.0713 98.7664 64.8708 98.7399 64.6955 98.5857C64.5044 98.4176 64.3485 98.0843 64.4071 97.6541C64.4071 97.6542 64.4071 97.654 64.4071 97.6541L66.1115 85.2143L66.1117 85.213C66.19 84.6301 66.0379 84.0215 65.6819 83.5812L65.678 83.5764L58.4064 74.8065L58.4056 74.8055C58.1829 74.5383 58.1178 74.147 58.2113 73.7914C58.3061 73.4305 58.5252 73.2253 58.7498 73.1846L68.7563 71.384L68.7604 71.3832C69.32 71.2776 69.7689 70.8574 69.9796 70.3022L74.3834 59.1313C74.3833 59.1315 74.3834 59.1311 74.3834 59.1313C74.526 58.7727 74.7574 58.6748 74.9148 58.6768C75.0742 58.6789 75.3099 58.785 75.4522 59.154Z" fill="url(#paint1_linear_392_2)"/>
<path d="M64.4071 97.6541C64.3485 98.0843 64.5044 98.4176 64.6955 98.5857C64.8708 98.7399 65.0713 98.7664 65.2783 98.6244L65.2792 98.6238L74.1184 92.5889C74.6038 92.2584 75.2121 92.2445 75.7066 92.5602L75.7081 92.5611L84.3749 98.1351L84.3759 98.1357C84.5449 98.245 84.7257 98.2285 84.9055 98.0572C85.097 97.8745 85.2453 97.5318 85.1897 97.1169L83.554 84.9872C83.4751 84.4081 83.6292 83.8096 83.9727 83.3732L83.975 83.3703L90.876 74.7373C91.0799 74.4829 91.1421 74.1053 91.0546 73.7606C90.9652 73.4081 90.7625 73.2257 90.5763 73.191L81.0127 71.4047C80.4353 71.3047 80.0072 70.8616 79.803 70.33C79.8028 70.3295 79.8026 70.329 79.8024 70.3286L75.4528 59.1555L75.4522 59.154C75.3099 58.785 75.0742 58.6789 74.9148 58.6768C74.7574 58.6748 74.526 58.7727 74.3834 59.1313M64.4071 97.6541C64.4071 97.654 64.4071 97.6542 64.4071 97.6541ZM64.4071 97.6541L66.1115 85.2143L66.1117 85.213C66.19 84.6301 66.0379 84.0215 65.6819 83.5812L65.678 83.5764L58.4064 74.8065L58.4056 74.8055C58.1829 74.5383 58.1178 74.147 58.2113 73.7914C58.3061 73.4305 58.5252 73.2253 58.7498 73.1846L68.7563 71.384L68.7604 71.3832C69.32 71.2776 69.7689 70.8574 69.9796 70.3022L74.3834 59.1313M74.3834 59.1313C74.3834 59.1311 74.3833 59.1315 74.3834 59.1313Z" stroke="#EFDEDE"/>
<path d="M110.729 59.6511L110.73 59.6514L114.771 70.4283L114.772 70.43C114.966 70.9418 115.369 71.3761 115.915 71.4793C115.916 71.4794 115.916 71.4795 115.917 71.4796L124.822 73.1973C124.969 73.2256 125.156 73.3842 125.24 73.7294C125.321 74.0634 125.262 74.4277 125.077 74.6697C125.076 74.6698 125.076 74.6699 125.076 74.6699L118.659 82.9906C118.659 82.9909 118.659 82.9911 118.658 82.9913C118.326 83.4189 118.193 84.003 118.262 84.5496V84.5513L119.788 96.2559C119.842 96.6603 119.702 96.9868 119.53 97.1551C119.373 97.3102 119.228 97.317 119.091 97.2257C119.09 97.2257 119.09 97.2255 119.09 97.2255L111.029 91.8441L111.026 91.8425C110.549 91.5277 109.968 91.5429 109.501 91.8719L109.5 91.8722L101.28 97.6799C101.176 97.7536 101.092 97.7669 101.029 97.7609C100.961 97.7545 100.879 97.722 100.795 97.6452C100.625 97.4887 100.478 97.1692 100.532 96.7509C100.532 96.7512 100.532 96.7506 100.532 96.7509L102.119 84.7614C102.119 84.7609 102.119 84.7604 102.119 84.7599C102.197 84.1922 102.053 83.6049 101.712 83.1779C101.712 83.178 101.712 83.1778 101.712 83.1779L94.9566 74.7256C94.9568 74.7258 94.9564 74.7254 94.9566 74.7256C94.7552 74.4711 94.6938 74.0938 94.7807 73.7499C94.8699 73.397 95.0701 73.2179 95.2483 73.184C95.2481 73.1841 95.2485 73.184 95.2483 73.184L104.544 71.4458C104.545 71.4457 104.545 71.4456 104.546 71.4455C105.106 71.3438 105.518 70.9035 105.713 70.3888L109.809 59.613C109.938 59.2758 110.141 59.2027 110.259 59.2051C110.383 59.2077 110.597 59.2958 110.729 59.6511Z" fill="url(#paint2_linear_392_2)"/>
<path d="M100.532 96.7509C100.478 97.1692 100.625 97.4887 100.795 97.6452C100.879 97.722 100.961 97.7545 101.029 97.7609C101.092 97.7669 101.176 97.7536 101.28 97.6799L109.5 91.8722L109.501 91.8719C109.968 91.5429 110.549 91.5277 111.026 91.8425L111.029 91.8441L119.09 97.2255C119.09 97.2255 119.09 97.2257 119.091 97.2257C119.228 97.317 119.373 97.3102 119.53 97.1551C119.702 96.9868 119.842 96.6603 119.788 96.2559L118.262 84.5513V84.5496C118.193 84.003 118.326 83.4189 118.658 82.9913C118.659 82.9911 118.659 82.9909 118.659 82.9906L125.076 74.6699C125.076 74.6699 125.076 74.6698 125.077 74.6697C125.262 74.4277 125.321 74.0634 125.24 73.7294C125.156 73.3842 124.969 73.2256 124.822 73.1973L115.917 71.4796C115.916 71.4795 115.916 71.4794 115.915 71.4793C115.369 71.3761 114.966 70.9418 114.772 70.43L114.771 70.4283L110.73 59.6514L110.729 59.6511C110.597 59.2958 110.383 59.2077 110.259 59.2051C110.141 59.2027 109.938 59.2758 109.809 59.613L105.713 70.3888C105.518 70.9035 105.106 71.3438 104.546 71.4455C104.545 71.4456 104.545 71.4457 104.544 71.4458L95.2483 73.184M100.532 96.7509C100.532 96.7506 100.532 96.7512 100.532 96.7509ZM100.532 96.7509L102.119 84.7614C102.119 84.7609 102.119 84.7604 102.119 84.7599C102.197 84.1922 102.053 83.6049 101.712 83.1779M101.712 83.1779C101.712 83.1778 101.712 83.178 101.712 83.1779ZM101.712 83.1779L94.9566 74.7256M94.9566 74.7256C94.9564 74.7254 94.9568 74.7258 94.9566 74.7256ZM94.9566 74.7256C94.7552 74.4711 94.6938 74.0938 94.7807 73.7499C94.8699 73.397 95.0701 73.2179 95.2483 73.184M95.2483 73.184C95.2485 73.184 95.2481 73.1841 95.2483 73.184Z" stroke="#EFDEDE"/>
<path d="M37.8489 56.5206L37.8501 56.5209L42.6147 69.0987L42.6158 69.1006C42.8446 69.6979 43.3197 70.2048 43.9635 70.3253C43.9647 70.3254 43.9647 70.3255 43.9659 70.3256L54.4653 72.3303C54.6386 72.3634 54.8591 72.5485 54.9581 72.9514C55.0537 73.3412 54.9841 73.7663 54.766 74.0488C54.7648 74.0489 54.7648 74.049 54.7648 74.049L47.1988 83.7601C47.1988 83.7604 47.1988 83.7607 47.1976 83.7609C46.8062 84.26 46.6494 84.9417 46.7307 85.5796V85.5816L48.53 99.242C48.5936 99.714 48.4286 100.095 48.2258 100.291C48.0407 100.472 47.8697 100.48 47.7082 100.374C47.707 100.374 47.707 100.374 47.707 100.374L38.2027 94.093L38.1991 94.0911C37.6367 93.7237 36.9517 93.7415 36.4011 94.1254L36.3999 94.1258L26.7081 100.904C26.5855 100.99 26.4864 101.005 26.4121 100.998C26.332 100.991 26.2353 100.953 26.1362 100.863C25.9358 100.681 25.7625 100.308 25.8262 99.8197C25.8262 99.8201 25.8262 99.8194 25.8262 99.8197L27.6973 85.8268C27.6973 85.8262 27.6973 85.8256 27.6973 85.825C27.7893 85.1625 27.6195 84.477 27.2174 83.9787C27.2174 83.9788 27.2174 83.9786 27.2174 83.9787L19.2528 74.114C19.2531 74.1143 19.2526 74.1138 19.2528 74.114C19.0154 73.817 18.943 73.3766 19.0454 72.9753C19.1506 72.5634 19.3866 72.3544 19.5967 72.3148C19.5965 72.3149 19.597 72.3148 19.5967 72.3148L30.5565 70.2862C30.5577 70.2861 30.5577 70.2859 30.5589 70.2858C31.2191 70.1671 31.7049 69.6533 31.9348 69.0525L36.7642 56.4761C36.9163 56.0826 37.1557 55.9973 37.2948 56.0001C37.441 56.0031 37.6933 56.1059 37.8489 56.5206Z" fill="#FFC33A"/>
<path d="M25.8262 99.8197C25.7625 100.308 25.9358 100.681 26.1362 100.863C26.2353 100.953 26.332 100.991 26.4121 100.998C26.4864 101.005 26.5855 100.99 26.7081 100.904L36.3999 94.1258L36.4011 94.1254C36.9517 93.7415 37.6367 93.7237 38.1991 94.0911L38.2027 94.093L47.707 100.374C47.707 100.374 47.707 100.374 47.7082 100.374C47.8697 100.48 48.0407 100.472 48.2258 100.291C48.4286 100.095 48.5936 99.714 48.53 99.242L46.7307 85.5816V85.5796C46.6494 84.9417 46.8062 84.26 47.1976 83.7609C47.1988 83.7607 47.1988 83.7604 47.1988 83.7601L54.7648 74.049C54.7648 74.049 54.7648 74.0489 54.766 74.0488C54.9841 73.7663 55.0537 73.3412 54.9581 72.9514C54.8591 72.5485 54.6386 72.3634 54.4653 72.3303L43.9659 70.3256C43.9647 70.3255 43.9647 70.3254 43.9635 70.3253C43.3197 70.2048 42.8446 69.6979 42.6158 69.1006L42.6147 69.0987L37.8501 56.5209L37.8489 56.5206C37.6933 56.1059 37.441 56.0031 37.2948 56.0001C37.1557 55.9973 36.9163 56.0826 36.7642 56.4761L31.9348 69.0525C31.7049 69.6533 31.2191 70.1671 30.5589 70.2858C30.5577 70.2859 30.5577 70.2861 30.5565 70.2862L19.5967 72.3148M25.8262 99.8197C25.8262 99.8194 25.8262 99.8201 25.8262 99.8197ZM25.8262 99.8197L27.6973 85.8268C27.6973 85.8262 27.6973 85.8256 27.6973 85.825C27.7893 85.1625 27.6195 84.477 27.2174 83.9787M27.2174 83.9787C27.2174 83.9786 27.2174 83.9788 27.2174 83.9787ZM27.2174 83.9787L19.2528 74.114M19.2528 74.114C19.2526 74.1138 19.2531 74.1143 19.2528 74.114ZM19.2528 74.114C19.0154 73.817 18.943 73.3766 19.0454 72.9753C19.1506 72.5634 19.3866 72.3544 19.5967 72.3148M19.5967 72.3148C19.597 72.3148 19.5965 72.3149 19.5967 72.3148Z" stroke="#EFDEDE"/>
<path d="M143.573 60.113L143.574 60.1145L147.346 70.5179C147.346 70.5183 147.347 70.5187 147.347 70.5191C147.524 71.0144 147.903 71.4491 148.442 71.555C148.442 71.555 148.442 71.5551 148.443 71.5552L156.75 73.218L156.752 73.2184C156.864 73.2404 157.037 73.3771 157.117 73.7164C157.192 74.0404 157.135 74.3912 156.964 74.6202L156.963 74.6216L150.977 82.6616C150.977 82.6614 150.977 82.6618 150.977 82.6616C150.66 83.0844 150.546 83.6449 150.606 84.1664V84.1718L152.029 95.477C152.029 95.4769 152.029 95.4771 152.029 95.477C152.077 95.8675 151.946 96.18 151.79 96.3384C151.714 96.416 151.645 96.4451 151.599 96.4525C151.56 96.4586 151.507 96.4552 151.434 96.4054C151.433 96.4051 151.433 96.4049 151.433 96.4047L143.916 91.2035L143.913 91.2018C143.453 90.8871 142.885 90.9033 142.436 91.2318L134.779 96.8332C134.69 96.8988 134.623 96.9072 134.577 96.9027C134.526 96.8976 134.457 96.8714 134.382 96.8001C134.228 96.6541 134.09 96.3488 134.141 95.9461L135.619 84.3727C135.619 84.3729 135.619 84.3725 135.619 84.3727C135.687 83.84 135.566 83.2593 135.235 82.8397L128.949 74.6844C128.949 74.6843 128.949 74.6842 128.948 74.684C128.763 74.4417 128.704 74.0789 128.785 73.7469C128.868 73.4031 129.053 73.2465 129.197 73.2187L137.857 71.5416L137.858 71.5414C138.393 71.4368 138.78 71.0066 138.966 70.5115L138.967 70.508L142.781 60.1024C142.907 59.7594 143.095 59.7043 143.175 59.7051C143.259 59.706 143.449 59.7682 143.573 60.113Z" fill="url(#paint3_linear_392_2)"/>
<path d="M150.977 82.6616L156.963 74.6216L156.964 74.6202C157.135 74.3912 157.192 74.0404 157.117 73.7164C157.037 73.3771 156.864 73.2404 156.752 73.2184L156.75 73.218L148.443 71.5552C148.442 71.5551 148.442 71.555 148.442 71.555C147.903 71.4491 147.524 71.0144 147.347 70.5191C147.347 70.5187 147.346 70.5183 147.346 70.5179L143.574 60.1145L143.573 60.113C143.449 59.7682 143.259 59.706 143.175 59.7051C143.095 59.7043 142.907 59.7594 142.781 60.1024L138.967 70.508L138.966 70.5115C138.78 71.0066 138.393 71.4368 137.858 71.5414L137.857 71.5416L129.197 73.2187C129.053 73.2465 128.868 73.4031 128.785 73.7469C128.704 74.0789 128.763 74.4417 128.948 74.684C128.949 74.6842 128.949 74.6843 128.949 74.6844L135.235 82.8397C135.566 83.2593 135.687 83.84 135.619 84.3727M150.977 82.6616C150.977 82.6618 150.977 82.6614 150.977 82.6616ZM150.977 82.6616C150.66 83.0844 150.546 83.6449 150.606 84.1664V84.1718L152.029 95.477M152.029 95.477C152.029 95.4771 152.029 95.4769 152.029 95.477ZM152.029 95.477C152.077 95.8675 151.946 96.18 151.79 96.3384C151.714 96.416 151.645 96.4451 151.599 96.4525C151.56 96.4586 151.507 96.4552 151.434 96.4054C151.433 96.4051 151.433 96.4049 151.433 96.4047L143.916 91.2035L143.913 91.2018C143.453 90.8871 142.885 90.9033 142.436 91.2318L134.779 96.8332C134.69 96.8988 134.623 96.9072 134.577 96.9027C134.526 96.8976 134.457 96.8714 134.382 96.8001C134.228 96.6541 134.09 96.3488 134.141 95.9461L135.619 84.3727M135.619 84.3727C135.619 84.3725 135.619 84.3729 135.619 84.3727Z" stroke="#EFDEDE"/>
<path d="M174.232 60.5424L177.758 70.6044C177.926 71.0811 178.281 71.5068 178.801 71.6158L178.802 71.616L186.566 73.2238C186.567 73.2238 186.567 73.2239 186.567 73.2239C186.65 73.2419 186.811 73.3617 186.888 73.6947C186.96 74.009 186.908 74.3472 186.752 74.567C186.751 74.5673 186.751 74.5675 186.751 74.5678L181.151 82.3394L181.15 82.3411C180.861 82.7458 180.745 83.2942 180.806 83.8041V83.8054L182.132 94.7334C182.178 95.1131 182.055 95.4126 181.915 95.5601C181.846 95.632 181.789 95.6542 181.758 95.6593C181.735 95.6629 181.696 95.6637 181.633 95.6194C181.632 95.6191 181.632 95.6188 181.632 95.6185L174.61 90.5896L174.609 90.5885C174.166 90.2736 173.613 90.2914 173.184 90.6073L173.179 90.611L166.025 96.0199C165.947 96.0785 165.895 96.0818 165.866 96.0788C165.831 96.0752 165.774 96.0558 165.708 95.9906C165.571 95.856 165.44 95.5641 165.489 95.1678L166.87 83.9851L166.871 83.9818C166.931 83.4653 166.816 82.9163 166.518 82.5043L166.514 82.4978L160.638 74.6158C160.638 74.6159 160.638 74.6156 160.638 74.6158C160.468 74.3865 160.413 74.0362 160.489 73.7134C160.568 73.3746 160.74 73.2398 160.849 73.2182L160.85 73.218L168.94 71.596L168.944 71.5951C169.456 71.488 169.829 71.072 170.001 70.5769L173.567 60.5236L173.568 60.5197C173.681 60.1934 173.846 60.1625 173.891 60.1631C173.942 60.1637 174.115 60.2067 174.232 60.5424Z" fill="url(#paint4_linear_392_2)"/>
<path d="M160.638 74.6158L166.514 82.4978L166.518 82.5043C166.816 82.9163 166.931 83.4653 166.871 83.9818L166.87 83.9851L165.489 95.1678C165.44 95.5641 165.571 95.856 165.708 95.9906C165.774 96.0558 165.831 96.0752 165.866 96.0788C165.895 96.0818 165.947 96.0785 166.025 96.0199L173.179 90.611L173.184 90.6073C173.613 90.2914 174.166 90.2736 174.609 90.5885L174.61 90.5896L181.632 95.6185C181.632 95.6188 181.632 95.6191 181.633 95.6194C181.696 95.6637 181.735 95.6629 181.758 95.6593C181.789 95.6542 181.846 95.632 181.915 95.5601C182.055 95.4126 182.178 95.1131 182.132 94.7334L180.806 83.8054V83.8041C180.745 83.2942 180.861 82.7458 181.15 82.3411L181.151 82.3394L186.751 74.5678C186.751 74.5675 186.751 74.5673 186.752 74.567C186.908 74.3472 186.96 74.009 186.888 73.6947C186.811 73.3617 186.65 73.2419 186.567 73.2239C186.567 73.2239 186.567 73.2238 186.566 73.2238L178.802 71.616L178.801 71.6158C178.281 71.5068 177.926 71.0811 177.758 70.6044L174.232 60.5424C174.115 60.2067 173.942 60.1637 173.891 60.1631C173.846 60.1625 173.681 60.1934 173.568 60.5197L173.567 60.5236L170.001 70.5769C169.829 71.072 169.456 71.488 168.944 71.5951L168.94 71.596L160.85 73.218L160.849 73.2182C160.74 73.2398 160.568 73.3746 160.489 73.7134C160.413 74.0362 160.468 74.3865 160.638 74.6158ZM160.638 74.6158C160.638 74.6156 160.638 74.6159 160.638 74.6158Z" stroke="#EFDEDE"/>
<g opacity="0.1">
<path d="M100.118 103.37L100.263 102.891L100.119 103.37C113.333 107.357 123.747 100.243 133.484 93.2322C133.807 92.999 134.13 92.766 134.453 92.5334C139.006 89.2483 143.425 86.0601 147.985 84.0161C152.847 81.8365 157.828 80.9782 163.246 82.7073C170.247 84.9417 178.772 91.7844 186.896 111.185L16.2403 118.488C7.68454 118.85 0.5 110.826 0.5 100.334V59.8388C0.5 49.3463 7.6869 41.2363 16.2456 41.5066L44.7533 42.4094C46.597 43.6035 48.4085 44.8961 50.1876 46.2873C62.6519 56.0391 69.3942 67.6445 75.3986 77.9797C75.78 78.6362 76.1584 79.2876 76.5352 79.9331C82.824 90.7078 88.6799 99.9175 100.118 103.37Z" fill="#97A6B7" stroke="#EFDEDE"/>
</g>
</g>
<defs>
<linearGradient id="paint0_linear_392_2" x1="44.1426" y1="161.688" x2="135.161" y2="23.5724" gradientUnits="userSpaceOnUse">
<stop offset="0.00359712" stop-color="white"/>
<stop offset="1" stop-color="white"/>
</linearGradient>
<linearGradient id="paint1_linear_392_2" x1="103.838" y1="52.8954" x2="50.7262" y2="107.083" gradientUnits="userSpaceOnUse">
<stop stop-color="#FFE5AD"/>
<stop offset="0.9964" stop-color="#FFC221"/>
</linearGradient>
<linearGradient id="paint2_linear_392_2" x1="120.448" y1="71.803" x2="67.2559" y2="126.072" gradientUnits="userSpaceOnUse">
<stop stop-color="#FFD885"/>
<stop offset="0.9964" stop-color="#FFC221"/>
</linearGradient>
<linearGradient id="paint3_linear_392_2" x1="128.249" y1="78.2978" x2="157.645" y2="78.2978" gradientUnits="userSpaceOnUse">
<stop stop-color="#FFDE96"/>
<stop offset="1" stop-color="#FFC221"/>
</linearGradient>
<linearGradient id="paint4_linear_392_2" x1="173.688" y1="59.663" x2="173.688" y2="96.5796" gradientUnits="userSpaceOnUse">
<stop stop-color="#FFC221"/>
<stop offset="1" stop-color="#FFE191"/>
</linearGradient>
<clipPath id="clip0_392_2">
<rect width="199" height="160" fill="white"/>
</clipPath>
</defs>
</svg>
