<svg width="170" height="165" viewBox="0 0 170 165" fill="none" xmlns="http://www.w3.org/2000/svg">
<rect y="2" width="170" height="160" rx="80" fill="white"/>
<path d="M116.685 28.8214L113.17 28.8274C112.927 26.5037 112.37 24.2748 111.54 22.1823L114.516 20.4574C115.328 19.9891 115.606 18.9221 115.138 18.0803L113.887 15.8337C113.419 14.986 112.37 14.6778 111.546 15.1401L108.611 16.8058C107.242 14.8912 105.612 13.1662 103.769 11.6783L105.458 8.77965C105.944 7.94976 105.654 6.85313 104.812 6.33148L102.565 4.93846C101.717 4.41088 100.627 4.65985 100.129 5.49567L98.4335 8.36471C96.258 7.35106 93.9106 6.62194 91.4269 6.23071V2.82817C91.4269 1.82638 90.6029 0.972778 89.5774 0.925356L86.8388 0.800875C85.8014 0.753452 84.9597 1.53592 84.9597 2.55549V5.99953C82.4048 6.21293 79.9389 6.78792 77.627 7.67709L75.8013 4.56501C75.2619 3.65213 74.0704 3.29647 73.1338 3.77661L70.6323 5.06294C69.6838 5.54902 69.3637 6.69308 69.9091 7.61188L71.8001 10.7951C69.7313 12.2592 67.8759 14.0139 66.3109 15.9997L62.8847 14.0613C61.9125 13.51 60.6677 13.7945 60.1046 14.7015L58.5989 17.1141C58.0298 18.021 58.3677 19.2066 59.3517 19.746L62.8965 21.7081C61.9125 23.9725 61.2486 26.397 60.9641 28.9281L56.7139 28.9341C55.5698 28.9341 54.6392 29.8054 54.6392 30.8724V33.7118C54.6392 34.7788 55.5698 35.6324 56.7139 35.6206L61.0767 35.5672C61.4442 38.045 62.1734 40.3984 63.2048 42.5916L59.3517 44.779C58.3677 45.3362 58.0358 46.5218 58.5989 47.4228L60.1046 49.8117C60.6677 50.7068 61.9125 50.9735 62.8847 50.4104L66.7792 48.1519C68.3323 49.9895 70.1462 51.6078 72.1557 52.9534L69.9091 56.759C69.3637 57.6897 69.6838 58.8278 70.6323 59.2961L73.1338 60.5469C74.0704 61.0151 75.2619 60.6417 75.8013 59.717L78.0301 55.8936C80.2293 56.6701 82.553 57.1621 84.9656 57.334V61.5961C84.9656 62.6097 85.8074 63.3862 86.8447 63.321L89.5834 63.1551C90.6029 63.0958 91.4328 62.2303 91.4328 61.2285V57.0139C93.7684 56.6167 95.9913 55.9173 98.066 54.9629L100.135 58.4366C100.627 59.2665 101.717 59.4976 102.571 58.9641L104.818 57.5355C105.659 57.002 105.944 55.9054 105.464 55.0755L103.46 51.6611C105.256 50.2385 106.851 48.5965 108.214 46.7766L111.558 48.6261C112.382 49.0826 113.425 48.7565 113.899 47.9029L115.15 45.6385C115.618 44.7908 115.34 43.7298 114.527 43.2733L111.291 41.4417C112.168 39.3847 112.779 37.1974 113.087 34.9211L116.697 34.8737C117.628 34.8618 118.38 34.0734 118.38 33.1191V30.5701C118.369 29.598 117.616 28.8214 116.685 28.8214ZM88.214 49.8057C77.8108 50.191 69.1029 42.1174 69.1029 31.7557C69.1029 21.3939 77.8108 13.2077 88.214 13.4626C98.2675 13.7056 106.163 21.7852 106.163 31.5186C106.169 41.252 98.2675 49.4323 88.214 49.8057Z" fill="#97A6B7"/>
<path d="M76.5721 3.63426L74.0705 3.55127L73.2051 5.79197L76.5721 3.63426Z" fill="#97A6B7"/>
<path d="M101.409 4.67163L104.296 4.70127V6.82934L101.409 4.67163Z" fill="#97A6B7"/>
<path d="M112.411 14.9443L115.292 15.0629L114.575 16.6752L112.411 14.9443Z" fill="#97A6B7"/>
<path d="M116.934 28.8511L119.839 29.0823L118.89 30.4931L116.934 28.8511Z" fill="#97A6B7"/>
<path d="M112.097 48.8039L114.919 49.207L115.263 46.9011L112.097 48.8039Z" fill="#97A6B7"/>
<path d="M101.303 59.1952L103.834 59.6517L104.035 57.7844L101.303 59.1952Z" fill="#97A6B7"/>
<path d="M88.6352 63.6827L86.3589 63.2796L88.321 60.375L88.6352 63.6827Z" fill="#97A6B7"/>
<path d="M76.3172 61.2404L73.6675 60.6892L75.7126 58.2173L76.3172 61.2404Z" fill="#97A6B7"/>
<path d="M61.4321 13.7944L64.1945 13.8834L63.1038 15.8988L61.4321 13.7944Z" fill="#97A6B7"/>
<path d="M55.9312 35.4724L58.4682 35.8459L58.2667 33.7771L55.9312 35.4724Z" fill="#97A6B7"/>
<path d="M61.373 50.6417L63.8508 51.0448L64.0524 49.4087L61.373 50.6417Z" fill="#97A6B7"/>
<path d="M119.524 29.0526L115.979 29.0585C115.736 26.7171 115.173 24.4704 114.332 22.3602L117.331 20.6233C118.149 20.1491 118.428 19.0762 117.959 18.2285L116.697 15.9641C116.223 15.1105 115.167 14.7963 114.337 15.2646L111.38 16.9422C110.004 15.0097 108.356 13.2729 106.495 11.7732L108.196 8.85077C108.682 8.00903 108.398 6.90646 107.55 6.37889L105.286 4.97401C104.426 4.44051 103.33 4.69541 102.832 5.53715L101.124 8.4299C98.9312 7.41032 96.5601 6.66935 94.0645 6.27812V2.84594C94.0645 1.83229 93.2287 0.972764 92.2032 0.925342L89.4468 0.80086C88.4035 0.753438 87.5558 1.54183 87.5558 2.56733V6.03508C84.9772 6.24848 82.4935 6.8294 80.1639 7.72449L78.3204 4.58871C77.7809 3.66397 76.5776 3.30831 75.6351 3.79438L73.1099 5.08664C72.1555 5.57864 71.8295 6.72863 72.3807 7.65336L74.2895 10.8603C72.2029 12.3363 70.3357 14.1028 68.7529 16.1064L65.303 14.1561C64.3249 13.6048 63.0682 13.8894 62.4992 14.8022L60.9816 17.2326C60.4067 18.1514 60.7505 19.337 61.7404 19.8883L65.3148 21.8622C64.3249 24.1444 63.6551 26.5867 63.3646 29.1415L59.0788 29.1474C57.9229 29.1474 56.9863 30.0248 56.9863 31.0977V33.9608C56.9863 35.0397 57.9229 35.8992 59.0788 35.8814L63.4772 35.828C63.8507 38.3236 64.5798 40.7007 65.6231 42.9058L61.7404 45.1109C60.7505 45.6741 60.4126 46.8656 60.9816 47.7784L62.4992 50.1851C63.0682 51.0861 64.3249 51.3588 65.303 50.7897L69.2272 48.5135C70.798 50.3689 72.6179 51.999 74.6452 53.3565L72.3807 57.1977C71.8295 58.1342 72.1555 59.2783 73.1099 59.7584L75.6351 61.0151C76.5776 61.4834 77.7809 61.11 78.3204 60.1793L80.567 56.3203C82.784 57.1028 85.1314 57.6007 87.5558 57.7667V62.0644C87.5558 63.0899 88.4035 63.8664 89.4468 63.8071L92.2032 63.6411C93.2346 63.5819 94.0645 62.7105 94.0645 61.6968V57.4466C96.4238 57.0435 98.6645 56.3381 100.751 55.3778L102.832 58.8811C103.33 59.717 104.426 59.9541 105.286 59.4087L107.55 57.9683C108.398 57.4288 108.688 56.3203 108.196 55.4905L106.175 52.0464C107.983 50.6119 109.595 48.9581 110.965 47.1264L114.337 48.9936C115.167 49.4501 116.223 49.124 116.697 48.2645L117.959 45.9823C118.434 45.1287 118.149 44.0617 117.331 43.5934L114.071 41.7499C114.954 39.6811 115.57 37.47 115.885 35.176L119.524 35.1286C120.461 35.1167 121.22 34.3224 121.22 33.3562V30.7835C121.22 29.8291 120.461 29.0467 119.524 29.0526ZM90.822 50.2029C80.3299 50.5941 71.5509 42.4494 71.5509 32.0046C71.5509 21.5599 80.3299 13.3085 90.822 13.5633C100.959 13.8123 108.925 21.9571 108.925 31.7675C108.925 41.578 100.959 49.8294 90.822 50.2029Z" fill="#D8DEE8"/>
<path d="M156.206 108.058V30.8906C156.206 29.3078 154.896 29.1241 153.295 29.0648L20.7323 22.568C18.7169 22.485 17.0571 23.878 17.0571 25.6682V110.951L156.206 108.058Z" fill="#97A6B7"/>
<path d="M17.0571 110.945V127.975C17.0571 129.76 18.711 131.153 20.7323 131.064L152.708 124.324C154.309 124.259 156.211 124.045 156.211 122.462V107.56L17.0571 110.945Z" fill="#97A6B7"/>
<path d="M109.299 142.546C106.91 141.751 105.126 139.724 104.622 137.234L101.143 120.026L71.3971 121.081L67.7338 139.007C67.224 141.52 69.275 144.04 71.6342 144.964L84.0766 149.831C86.3885 150.738 88.8781 151.099 91.35 150.886L117.652 148.634C118.422 148.568 119.039 147.964 119.128 147.187C119.216 146.411 119.756 145.539 119.021 145.296L109.299 142.546Z" fill="#97A6B7"/>
<path d="M109.596 141.496C107.207 140.714 105.422 138.71 104.925 136.25L101.451 119.255L72.4285 120.299L68.7711 137.999C68.2613 140.477 69.6128 142.966 71.978 143.879L84.4085 148.687C86.7204 149.582 89.2041 149.937 91.676 149.73L117.948 147.507C118.718 147.442 119.329 146.843 119.424 146.079C119.513 145.314 119.05 144.591 118.321 144.348L109.596 141.496Z" fill="url(#paint0_linear_147_1722)"/>
<path d="M157.077 30.8904V108.058L75.0604 109.759L17.8989 110.945V25.6621C17.8989 23.8779 19.5765 22.4848 21.5919 22.5619L32.7836 23.0124L154.172 27.891C155.779 27.9621 157.077 29.3077 157.077 30.8904Z" fill="url(#paint1_linear_147_1722)"/>
<path d="M22.0483 37.5354V104.152C22.0483 105.817 23.5836 107.133 25.4568 107.08L151.28 103.5C152.779 103.458 154.006 102.207 154.006 100.725V41.3114L22.0483 37.5354Z" fill="url(#paint2_linear_147_1722)"/>
<path d="M154.006 41.3114V34.4944C154.006 33.0421 152.803 31.8091 151.333 31.7558L25.3857 27.0551C23.5481 26.9839 22.0425 28.2643 22.0425 29.8945V37.5413L154.006 41.3114Z" fill="url(#paint3_linear_147_1722)"/>
<path d="M31.254 32.3487C31.254 32.9236 30.7324 33.3682 30.0862 33.3504C29.4401 33.3327 28.9185 32.8466 28.9185 32.2716C28.9185 31.6966 29.4401 31.252 30.0862 31.2698C30.7324 31.2935 31.254 31.7737 31.254 32.3487Z" fill="white"/>
<path d="M36.2805 32.5084C36.2805 33.0775 35.7648 33.5221 35.1305 33.5043C34.4903 33.4865 33.9746 33.0064 33.9746 32.4373C33.9746 31.8682 34.4903 31.4237 35.1305 31.4414C35.7648 31.4651 36.2805 31.9394 36.2805 32.5084Z" fill="white"/>
<path d="M41.248 32.6744C41.248 33.2375 40.7382 33.6821 40.1099 33.6643C39.4815 33.6465 38.9658 33.1664 38.9658 32.6032C38.9658 32.0342 39.4756 31.5955 40.1099 31.6133C40.7382 31.6311 41.248 32.1112 41.248 32.6744Z" fill="white"/>
<path d="M157.077 107.56V122.462C157.077 124.045 155.785 125.391 154.184 125.462L149.383 125.663L21.5978 131.064C19.5823 131.147 17.9048 129.76 17.9048 127.975V110.945L74.8944 109.558L157.077 107.56Z" fill="url(#paint4_linear_147_1722)"/>
<path opacity="0.1" d="M149.389 125.664L21.5978 131.064C19.5823 131.147 17.9048 129.76 17.9048 127.975V25.6621C17.9048 23.8779 19.5823 22.4848 21.5978 22.5619L32.7894 23.0124C34.5085 24.1624 36.0438 25.585 37.2708 27.2745C37.3242 27.3515 37.3834 27.4227 37.4309 27.4997C38.3852 28.8572 39.0669 30.268 39.5411 31.7262C39.7545 32.3605 39.9205 33.0066 40.0569 33.6587C40.3651 35.0991 40.5192 36.5692 40.5844 38.063C40.7208 41.2166 40.4718 44.4531 40.4837 47.6364C40.5074 54.0976 40.9164 60.553 45.2022 65.7516C48.3794 69.6047 53.5485 71.0688 57.8402 73.3095C62.8491 75.9237 67.2416 79.3914 69.7846 84.5426C72.9086 90.8676 69.9743 97.7319 71.972 104.264C72.1261 104.768 72.3098 105.26 72.5173 105.734C73.122 107.122 73.94 108.396 74.924 109.558C74.9773 109.623 75.0366 109.694 75.0959 109.759C78.9134 114.152 85.0308 116.89 90.3303 118.218C101.208 120.939 112.488 116.227 123.283 115.853C131.06 115.586 141.819 117.341 147.539 123.192C148.227 123.897 148.849 124.739 149.389 125.664Z" fill="white"/>
<path d="M111.256 65.1172V88.2295C111.256 90.7251 109.72 93.037 107.077 94.9279C106.442 95.3784 105.755 95.8112 105.002 96.2083C100.888 98.4016 95.1024 99.765 88.6827 99.765C82.2688 99.765 76.4715 98.4016 72.3576 96.2083C68.469 94.1336 66.0801 91.3238 66.0801 88.2295V65.1172H111.256Z" fill="url(#paint5_linear_147_1722)"/>
<path opacity="0.3" d="M107.094 94.9278C106.46 95.3783 105.766 95.811 105.014 96.2082C100.9 98.4015 95.1083 99.7649 88.6944 99.7649C82.2806 99.7649 76.4832 98.4015 72.3694 96.2082C68.4808 94.1335 66.0859 91.3237 66.0859 88.2294V76.2375C69.3106 77.6365 73.7565 80.3811 74.5864 84.815C75.8905 91.7505 85.4223 94.1038 94.9008 92.533C99.074 91.8454 103.449 92.9301 107.094 94.9278Z" fill="url(#paint6_linear_147_1722)"/>
<path d="M123.117 67.2689L89.216 50.5229L55.3091 67.2689H54.0347V67.8142L89.3108 85.23L124.587 67.8142V67.2689H123.117Z" fill="url(#paint7_linear_147_1722)"/>
<path d="M89.216 49.7285L53.9517 67.1384L89.216 84.5542L124.48 67.1384L89.216 49.7285Z" fill="url(#paint8_linear_147_1722)"/>
<path d="M124.267 91.3178C124.006 91.3178 123.727 91.1104 123.727 90.8495V68.0217C123.727 67.506 123.443 67.0495 122.927 67.0495H89.21C88.9492 67.0495 88.7417 66.8776 88.7417 66.6168C88.7417 66.356 88.9492 66.1841 89.21 66.1841H122.927C123.959 66.1841 124.8 66.9843 124.8 68.0158V90.8436C124.806 91.1103 124.528 91.3178 124.267 91.3178Z" fill="url(#paint9_linear_147_1722)"/>
<path d="M125.482 87.1688L125.067 86.4575C124.913 86.1907 124.623 86.0247 124.314 86.0307C124.006 86.0366 123.722 86.2085 123.579 86.4812L123.212 87.2162C123.117 87.3941 123.087 87.5956 123.087 87.7971V94.0094C123.087 94.1399 123.668 94.2525 124.38 94.2525C125.091 94.2525 125.672 94.1458 125.672 94.0094V87.7794C125.666 87.5719 125.589 87.3585 125.482 87.1688Z" fill="url(#paint10_linear_147_1722)"/>
<path d="M10.4355 129.7L46.8617 128.112L88.8244 129.582L47.4248 138.633L10.4355 129.7Z" fill="url(#paint11_linear_147_1722)"/>
<path d="M39.7841 164.793L10.2816 156.849C7.31183 156.049 5 153.103 5 150.252V150.222C5 147.365 7.3059 145.45 10.2816 145.978L41.9241 151.159L39.7841 164.793Z" fill="url(#paint12_linear_147_1722)"/>
<path d="M88.8721 158.829L41.201 164.153C38.2134 164.484 35.7593 162.404 35.7593 159.499V157.525C35.7593 154.621 38.2134 152.066 41.201 151.829L88.8721 148.035C86.7677 151.965 86.2757 155.64 88.8721 158.829Z" fill="url(#paint13_linear_147_1722)"/>
<path d="M89.2871 159.363L41.6041 164.769C37.7096 165.207 34.4849 162.481 34.4849 158.681V158.639C34.4849 154.84 37.7096 151.491 41.6041 151.188L89.2871 147.472C89.5716 147.448 89.8087 147.691 89.8087 148.005C89.8087 148.319 89.5776 148.598 89.2871 148.622L41.6041 152.504C38.4683 152.759 35.8838 155.456 35.8838 158.509V158.551C35.8838 161.603 38.4683 163.803 41.6041 163.459L89.2871 158.213C89.5716 158.183 89.8087 158.414 89.8087 158.728C89.8087 159.043 89.5776 159.327 89.2871 159.363Z" fill="url(#paint14_linear_147_1722)"/>
<path d="M41.023 151.188L10.2816 145.978C7.31183 145.456 5 141.562 5 137.27V137.222C5 132.937 7.3059 129.534 10.2816 129.647L42.8903 130.856L41.023 151.188Z" fill="url(#paint15_linear_147_1722)"/>
<path d="M88.872 146.636L43.8743 150.032C39.4344 150.364 35.7651 147.104 35.7651 142.741V139.777C35.7651 135.414 39.4403 131.775 43.8743 131.656L88.872 130.429C86.7558 136.31 86.2875 141.822 88.872 146.636Z" fill="url(#paint16_linear_147_1722)"/>
<path d="M89.2871 147.466L41.6041 151.182C37.7096 151.485 34.4849 147.092 34.4849 141.384V141.319C34.4849 135.61 37.7096 130.886 41.6041 130.785L89.2871 129.599C89.5716 129.594 89.8087 129.973 89.8087 130.447C89.8087 130.921 89.5775 131.318 89.2871 131.324L41.6041 132.753C38.4683 132.848 35.8838 136.653 35.8838 141.242V141.307C35.8838 145.895 38.4683 149.434 41.6041 149.208L89.2871 145.735C89.5716 145.711 89.8087 146.085 89.8087 146.559C89.8087 147.039 89.5775 147.442 89.2871 147.466Z" fill="url(#paint17_linear_147_1722)"/>
<path opacity="0.5" d="M31.4914 146.891L24.9175 145.741C23.3822 141.55 23.5008 137.703 24.9175 133.109L31.4914 133.577C30.1458 138.414 30.3473 142.801 31.4914 146.891Z" fill="white"/>
<path d="M84.9595 75.7693L85.0247 58.5907C85.0306 57.4822 85.9138 56.7412 86.6785 57.2036L100.146 65.4076C100.976 65.9174 100.97 67.5001 100.129 68.0573L86.6015 77.0497C85.8368 77.5536 84.9595 76.8719 84.9595 75.7693Z" fill="white"/>
<defs>
<linearGradient id="paint0_linear_147_1722" x1="93.6135" y1="126.143" x2="94.0657" y2="143.098" gradientUnits="userSpaceOnUse">
<stop stop-color="#444B8C"/>
<stop offset="0.9964" stop-color="#26264F"/>
</linearGradient>
<linearGradient id="paint1_linear_147_1722" x1="66.2803" y1="59.669" x2="156.015" y2="103.33" gradientUnits="userSpaceOnUse">
<stop stop-color="#444B8C"/>
<stop offset="0.6447" stop-color="#313365"/>
<stop offset="0.9964" stop-color="#26264F"/>
</linearGradient>
<linearGradient id="paint2_linear_147_1722" x1="22.0474" y1="72.3052" x2="154.006" y2="72.3052" gradientUnits="userSpaceOnUse">
<stop stop-color="white"/>
<stop offset="0.9964" stop-color="#EBEFF2"/>
</linearGradient>
<linearGradient id="paint3_linear_147_1722" x1="60.4117" y1="-63.7549" x2="104.045" y2="93.6001" gradientUnits="userSpaceOnUse">
<stop stop-color="#87C4FD"/>
<stop offset="0.9964" stop-color="#0071DC"/>
</linearGradient>
<linearGradient id="paint4_linear_147_1722" x1="47.1165" y1="99.0401" x2="136.857" y2="142.704" gradientUnits="userSpaceOnUse">
<stop stop-color="#444B8C"/>
<stop offset="0.9964" stop-color="#26264F"/>
</linearGradient>
<linearGradient id="paint5_linear_147_1722" x1="77.8813" y1="376.409" x2="89.0795" y2="65.2655" gradientUnits="userSpaceOnUse">
<stop stop-color="#82BDF5"/>
<stop offset="0.9964" stop-color="#0071DC"/>
</linearGradient>
<linearGradient id="paint6_linear_147_1722" x1="86.0788" y1="99.7037" x2="86.8964" y2="76.9855" gradientUnits="userSpaceOnUse">
<stop stop-color="#8EC8FE"/>
<stop offset="0.9964" stop-color="#0071DC"/>
</linearGradient>
<linearGradient id="paint7_linear_147_1722" x1="92.6506" y1="42.6341" x2="87.9701" y2="77.5518" gradientUnits="userSpaceOnUse">
<stop stop-color="#809BF9"/>
<stop offset="0.9964" stop-color="#0071DC"/>
</linearGradient>
<linearGradient id="paint8_linear_147_1722" x1="91.925" y1="32.7045" x2="85.8085" y2="110.429" gradientUnits="userSpaceOnUse">
<stop stop-color="#8DC8FF"/>
<stop offset="0.9964" stop-color="#0071DC"/>
</linearGradient>
<linearGradient id="paint9_linear_147_1722" x1="127.077" y1="43.4183" x2="85.9569" y2="114.939" gradientUnits="userSpaceOnUse">
<stop stop-color="#FFC444"/>
<stop offset="0.9964" stop-color="#F36F56"/>
</linearGradient>
<linearGradient id="paint10_linear_147_1722" x1="122.575" y1="107.684" x2="125.266" y2="82.5258" gradientUnits="userSpaceOnUse">
<stop stop-color="#FFC444"/>
<stop offset="0.9964" stop-color="#F36F56"/>
</linearGradient>
<linearGradient id="paint11_linear_147_1722" x1="10.4373" y1="133.373" x2="88.8235" y2="133.373" gradientUnits="userSpaceOnUse">
<stop stop-color="#FFC444"/>
<stop offset="0.9964" stop-color="#F36F56"/>
</linearGradient>
<linearGradient id="paint12_linear_147_1722" x1="19.117" y1="164.451" x2="25.5068" y2="149.917" gradientUnits="userSpaceOnUse">
<stop stop-color="#8BC6FD"/>
<stop offset="0.9964" stop-color="#0071DC"/>
</linearGradient>
<linearGradient id="paint13_linear_147_1722" x1="35.7644" y1="156.114" x2="88.8744" y2="156.114" gradientUnits="userSpaceOnUse">
<stop stop-color="#FFF0C9"/>
<stop offset="1" stop-color="#FFE294"/>
</linearGradient>
<linearGradient id="paint14_linear_147_1722" x1="34.4828" y1="156.139" x2="89.8085" y2="156.139" gradientUnits="userSpaceOnUse">
<stop stop-color="#84C2FD"/>
<stop offset="0.9964" stop-color="#0071DC"/>
</linearGradient>
<linearGradient id="paint15_linear_147_1722" x1="28.393" y1="125.262" x2="17.1908" y2="162.996" gradientUnits="userSpaceOnUse">
<stop stop-color="#FFC444"/>
<stop offset="0.9964" stop-color="#F36F56"/>
</linearGradient>
<linearGradient id="paint16_linear_147_1722" x1="35.7643" y1="140.239" x2="88.8743" y2="140.239" gradientUnits="userSpaceOnUse">
<stop stop-color="#FFF4D9"/>
<stop offset="1" stop-color="#FFDC80"/>
</linearGradient>
<linearGradient id="paint17_linear_147_1722" x1="34.4828" y1="140.403" x2="89.8085" y2="140.403" gradientUnits="userSpaceOnUse">
<stop stop-color="#FFC444"/>
<stop offset="0.9964" stop-color="#F36F56"/>
</linearGradient>
</defs>
</svg>
