<svg width="209" height="160" viewBox="0 0 209 160" fill="none" xmlns="http://www.w3.org/2000/svg">
<rect x="18" width="170" height="160" rx="80" fill="white"/>
<path d="M6.50928 39.4808V129.236C6.50928 136.626 12.1891 142.669 19.322 142.854C50.9707 143.698 161.609 145.757 191.725 145.282C196.903 145.203 201.104 140.901 201.236 135.544C201.817 114.695 202.768 64.5521 199.281 41.2754C198.541 36.3667 194.552 32.6983 189.771 32.54C163.273 31.6691 45.9513 28.8717 15.8612 29.5842C10.6569 29.7162 6.50928 34.097 6.50928 39.4808Z" fill="url(#paint0_linear_147_1800)"/>
<path d="M11.9512 39.0321V124.301C11.9512 128.603 15.2798 132.113 19.4539 132.192L187.393 134.329C191.514 134.382 194.895 130.951 194.922 126.676L195.212 42.1462C195.212 39.0848 192.861 36.5777 189.929 36.4985L17.9745 32.9094C14.6722 32.883 11.9512 35.6276 11.9512 39.0321Z" fill="url(#paint1_linear_147_1800)"/>
<path opacity="0.4" d="M16.9971 42.1989V119.92C16.9971 123.852 20.1672 127.046 24.0771 127.098L182.902 129.051C186.812 129.104 190.008 125.964 190.008 122.084L190.272 45.0491C190.272 42.2517 188.053 39.9821 185.279 39.9029L22.6769 36.6305C19.5596 36.5777 16.9971 39.0848 16.9971 42.1989Z" fill="white"/>
<path opacity="0.65" d="M196.164 137.892L11.9248 134.646C11.7663 134.646 11.6606 134.514 11.6606 134.382C11.6606 134.224 11.7663 134.118 11.9248 134.118L196.164 137.364C196.322 137.364 196.428 137.496 196.428 137.628C196.428 137.76 196.322 137.892 196.164 137.892Z" fill="white"/>
<path d="M208.739 143.382C208.739 145.942 206.678 148 204.116 148H4.66025C2.09771 148 0.0371094 145.942 0.0371094 143.382C0.0371094 140.822 2.09771 138.763 4.66025 138.763H204.116C206.678 138.763 208.739 140.822 208.739 143.382Z" fill="url(#paint2_linear_147_1800)"/>
<g opacity="0.7">
<path d="M76.015 45.4451C75.3017 44.7326 74.3507 44.2839 73.3468 44.2839H24.8171C22.73 44.2839 21.1714 46.0521 21.1714 48.137V54.7347C21.1714 55.7376 21.5148 56.714 22.2281 57.4266C22.9414 58.1391 23.8924 58.535 24.8963 58.5086L73.3468 57.7961C75.4074 57.7697 77.0453 56.107 77.0717 54.0486L77.0982 48.137C77.1246 47.1342 76.7283 46.1577 76.015 45.4451Z" fill="white"/>
<path d="M76.147 64.8424C75.4865 64.209 74.6147 63.8659 73.6901 63.8923L25.9793 65.0007C25.0547 65.0271 24.1829 65.423 23.5753 66.0827C22.9412 66.7689 22.6242 67.6662 22.6771 68.5635L25.7151 119.63C25.8208 121.424 27.3266 122.849 29.1495 122.823L73.8222 122.19C75.6714 122.163 77.1773 120.659 77.1773 118.812V67.2703C77.1773 66.373 76.781 65.4757 76.147 64.8424Z" fill="white"/>
</g>
<path opacity="0.7" d="M185.966 47.9257C184.672 45.7881 172.414 46.5534 169.006 46.2367C164.277 45.8145 162.666 47.1076 162.771 51.3302C162.771 51.3302 164.409 112.821 164.409 112.847C164.541 117.65 170.353 116.595 173.946 116.225C177.882 115.803 184.461 117.202 184.619 112.029C184.619 112.029 186.574 51.3565 186.574 51.0662C186.627 49.9314 186.495 48.7966 185.966 47.9257Z" fill="white"/>
<path d="M159.126 24.1741V42.7533C159.126 44.2576 158.201 45.4979 157.065 45.4979H89.2505C88.2995 45.4979 87.4805 46.3424 87.2427 47.5828L86.0275 54.0486C85.869 54.9195 84.9708 54.9722 84.733 54.1541L83.1744 48.6912C82.8574 47.6356 82.0912 46.923 81.2459 46.923H78.3399C77.2039 46.923 76.2793 45.6827 76.2793 44.1784V25.0714C76.2793 23.5671 77.2039 22.3531 78.3135 22.3267L157.039 21.4294C158.175 21.4294 159.126 22.6698 159.126 24.1741Z" fill="white"/>
<path d="M86.7406 42.1198C91.3365 42.1198 95.0622 38.3034 95.0622 33.5955C95.0622 28.8877 91.3365 25.0713 86.7406 25.0713C82.1447 25.0713 78.4189 28.8877 78.4189 33.5955C78.4189 38.3034 82.1447 42.1198 86.7406 42.1198Z" fill="url(#paint3_linear_147_1800)"/>
<path d="M89.7524 30.1383C89.7524 31.669 88.5107 33.3316 86.9785 33.3316C85.4462 33.3316 84.2046 31.669 84.2046 30.1383C84.2046 28.6077 85.4462 27.5256 86.9785 27.5256C88.5107 27.5256 89.7524 28.6077 89.7524 30.1383Z" fill="white"/>
<path d="M83.5443 39.2167H90.3337C91.047 39.2167 91.681 38.7681 91.8924 38.0819L92.2622 36.9471C92.5264 36.1026 92.1037 35.2053 91.2848 34.915C88.5373 33.9122 85.6842 34.0441 82.7518 35.0206C81.9328 35.2845 81.4837 36.1554 81.695 36.9999L81.9857 38.0291C82.1442 38.7417 82.8046 39.2167 83.5443 39.2167Z" fill="white"/>
<path d="M150.488 35.8125C150.488 36.7098 149.774 37.4223 148.876 37.4223H101.403C100.505 37.4223 99.7915 36.7098 99.7915 35.8125C99.7915 34.9152 100.505 34.2026 101.403 34.2026H148.876C149.774 34.2026 150.488 34.9416 150.488 35.8125Z" fill="url(#paint4_linear_147_1800)"/>
<path d="M128.429 41.1435C128.429 42.0144 127.742 42.7006 126.87 42.7006H101.456C100.584 42.7006 99.8975 42.0144 99.8975 41.1435V41.0908C99.8975 40.2199 100.584 39.5337 101.456 39.5337H126.87C127.742 39.5337 128.429 40.2199 128.429 41.0908V41.1435Z" fill="url(#paint5_linear_147_1800)"/>
<path d="M150.884 41.1435C150.884 42.0144 150.197 42.7006 149.325 42.7006H130.78C129.908 42.7006 129.221 42.0144 129.221 41.1435V41.0908C129.221 40.2199 129.908 39.5337 130.78 39.5337H149.325C150.197 39.5337 150.884 40.2199 150.884 41.0908V41.1435Z" fill="url(#paint6_linear_147_1800)"/>
<path d="M106.501 27.7105C106.581 27.6313 106.607 27.4994 106.581 27.3938C106.554 27.2882 106.448 27.2091 106.316 27.1827L103.833 26.8132L102.724 24.57C102.671 24.4644 102.565 24.3853 102.433 24.3853C102.301 24.3853 102.195 24.4644 102.142 24.57L101.112 26.6549C101.059 26.734 100.98 26.8132 100.874 26.8132L98.5495 27.1563C98.4438 27.1827 98.3381 27.2619 98.2853 27.3674C98.2589 27.473 98.2853 27.6049 98.3645 27.6841L100.029 29.3203C100.108 29.3995 100.135 29.5051 100.108 29.5843L99.7119 31.8803C99.6854 31.9858 99.7383 32.1178 99.8439 32.1969C99.9496 32.2761 100.055 32.2761 100.161 32.2233L102.222 31.1413C102.301 31.0885 102.433 31.0885 102.512 31.1413L104.573 32.2233C104.678 32.2761 104.811 32.2761 104.89 32.1969C104.995 32.1178 105.022 32.0122 105.022 31.8803L104.626 29.5843C104.599 29.4787 104.652 29.3731 104.705 29.3203L106.501 27.7105Z" fill="url(#paint7_linear_147_1800)"/>
<path d="M117.597 27.7105C117.676 27.6313 117.703 27.4994 117.676 27.3938C117.65 27.2882 117.544 27.2091 117.412 27.1827L114.929 26.8132L113.819 24.57C113.766 24.4644 113.661 24.3853 113.529 24.3853C113.397 24.3853 113.291 24.4644 113.238 24.57L112.208 26.6549C112.155 26.734 112.076 26.8132 111.97 26.8132L109.645 27.1563C109.54 27.1827 109.434 27.2619 109.381 27.3674C109.355 27.473 109.381 27.6049 109.46 27.6841L111.125 29.3203C111.204 29.3995 111.23 29.5051 111.204 29.5843L110.808 31.8803C110.781 31.9858 110.834 32.1178 110.94 32.1969C111.045 32.2761 111.151 32.2761 111.257 32.2233L113.317 31.1413C113.397 31.0885 113.529 31.0885 113.608 31.1413L115.668 32.2233C115.774 32.2761 115.906 32.2761 115.985 32.1969C116.091 32.1178 116.118 32.0122 116.118 31.8803L115.721 29.5843C115.695 29.4787 115.748 29.3731 115.801 29.3203L117.597 27.7105Z" fill="url(#paint8_linear_147_1800)"/>
<path d="M128.692 27.7105C128.771 27.6313 128.798 27.4994 128.771 27.3938C128.745 27.2882 128.639 27.2091 128.507 27.1827L126.024 26.8132L124.914 24.57C124.862 24.4644 124.756 24.3853 124.624 24.3853C124.492 24.3853 124.386 24.4644 124.333 24.57L123.303 26.6549C123.25 26.734 123.171 26.8132 123.065 26.8132L120.74 27.1563C120.635 27.1827 120.529 27.2619 120.476 27.3674C120.45 27.473 120.476 27.6049 120.555 27.6841L122.22 29.3203C122.299 29.3995 122.325 29.5051 122.299 29.5843L121.903 31.8803C121.876 31.9858 121.929 32.1178 122.035 32.1969C122.141 32.2761 122.246 32.2761 122.352 32.2233L124.412 31.1413C124.492 31.0885 124.624 31.0885 124.703 31.1413L126.764 32.2233C126.869 32.2761 127.001 32.2761 127.081 32.1969C127.186 32.1178 127.213 32.0122 127.213 31.8803L126.817 29.5843C126.79 29.4787 126.843 29.3731 126.896 29.3203L128.692 27.7105Z" fill="url(#paint9_linear_147_1800)"/>
<path d="M139.788 27.7105C139.867 27.6313 139.894 27.4994 139.867 27.3938C139.841 27.2882 139.735 27.2091 139.603 27.1827L137.12 26.8132L136.01 24.57C135.957 24.4644 135.852 24.3853 135.72 24.3853C135.587 24.3853 135.482 24.4644 135.429 24.57L134.399 26.6549C134.346 26.734 134.267 26.8132 134.161 26.8132L131.836 27.1563C131.73 27.1827 131.625 27.2619 131.572 27.3674C131.546 27.473 131.572 27.6049 131.651 27.6841L133.315 29.3203C133.395 29.3995 133.421 29.5051 133.395 29.5843L132.998 31.8803C132.972 31.9858 133.025 32.1178 133.131 32.1969C133.236 32.2761 133.342 32.2761 133.448 32.2233L135.508 31.1413C135.587 31.0885 135.72 31.0885 135.799 31.1413L137.859 32.2233C137.965 32.2761 138.097 32.2761 138.176 32.1969C138.282 32.1178 138.308 32.0122 138.308 31.8803L137.912 29.5843C137.886 29.4787 137.939 29.3731 137.991 29.3203L139.788 27.7105Z" fill="url(#paint10_linear_147_1800)"/>
<path d="M150.884 27.7105C150.963 27.6313 150.989 27.4994 150.963 27.3938C150.936 27.2882 150.831 27.2091 150.699 27.1827L148.215 26.8132L147.106 24.57C147.053 24.4644 146.947 24.3853 146.815 24.3853C146.683 24.3853 146.577 24.4644 146.525 24.57L145.494 26.6549C145.441 26.734 145.362 26.8132 145.257 26.8132L142.932 27.1563C142.826 27.1827 142.72 27.2619 142.668 27.3674C142.641 27.473 142.668 27.6049 142.747 27.6841L144.411 29.3203C144.49 29.3995 144.517 29.5051 144.49 29.5843L144.094 31.8803C144.068 31.9858 144.121 32.1178 144.226 32.1969C144.332 32.2761 144.438 32.2761 144.543 32.2233L146.604 31.1413C146.683 31.0885 146.815 31.0885 146.894 31.1413L148.955 32.2233C149.061 32.2761 149.193 32.2761 149.272 32.1969C149.378 32.1178 149.404 32.0122 149.404 31.8803L149.008 29.5843C148.982 29.4787 149.034 29.3731 149.087 29.3203L150.884 27.7105Z" fill="url(#paint11_linear_147_1800)"/>
<path d="M159.126 60.8838V79.463C159.126 80.9673 158.201 82.2076 157.065 82.2076H89.2505C88.2995 82.2076 87.4805 83.0521 87.2427 84.2925L86.0275 90.7583C85.869 91.6292 84.9708 91.682 84.733 90.8638L83.1744 85.4009C82.8574 84.3453 82.0912 83.6327 81.2459 83.6327H78.3399C77.2039 83.6327 76.2793 82.3924 76.2793 80.8881V61.7811C76.2793 60.2768 77.2039 59.0628 78.3135 59.0364L157.039 58.1392C158.175 58.1392 159.126 59.3531 159.126 60.8838Z" fill="white"/>
<path d="M78.4458 70.3053C78.4458 75.0028 82.1707 78.8295 86.7675 78.8295C91.3642 78.8295 95.0891 75.0028 95.0891 70.3053C95.0891 65.6077 91.3642 61.781 86.7675 61.781C82.1707 61.781 78.4458 65.5813 78.4458 70.3053Z" fill="url(#paint12_linear_147_1800)"/>
<path d="M89.7524 66.848C89.7524 68.3787 88.5107 70.0413 86.9785 70.0413C85.4462 70.0413 84.2046 68.3787 84.2046 66.848C84.2046 65.3174 85.4462 64.2354 86.9785 64.2354C88.5107 64.2354 89.7524 65.3174 89.7524 66.848Z" fill="white"/>
<path d="M83.5443 75.9265H90.3337C91.047 75.9265 91.681 75.4778 91.8924 74.7916L92.2622 73.6568C92.5264 72.8123 92.1037 71.915 91.2848 71.6247C88.5373 70.6219 85.6842 70.7538 82.7518 71.7303C81.9328 71.9942 81.4837 72.8651 81.695 73.7096L81.9857 74.7389C82.1442 75.425 82.8046 75.9265 83.5443 75.9265Z" fill="white"/>
<path d="M99.897 72.5222C99.897 73.4195 100.61 74.132 101.508 74.132H148.981C149.88 74.132 150.593 73.4195 150.593 72.5222C150.593 71.6249 149.88 70.9124 148.981 70.9124H101.508C100.637 70.9124 99.897 71.6249 99.897 72.5222Z" fill="url(#paint13_linear_147_1800)"/>
<path d="M150.883 78.0378C150.883 77.1669 150.197 76.4807 149.325 76.4807H123.911C123.039 76.4807 122.352 77.1669 122.352 78.0378V78.0906C122.352 78.9615 123.039 79.6476 123.911 79.6476H149.325C150.197 79.6476 150.883 78.9615 150.883 78.0906V78.0378Z" fill="url(#paint14_linear_147_1800)"/>
<path d="M121.56 78.0378C121.56 77.1669 120.873 76.4807 120.001 76.4807H101.456C100.584 76.4807 99.897 77.1669 99.897 78.0378V78.0906C99.897 78.9615 100.584 79.6476 101.456 79.6476H120.001C120.873 79.6476 121.56 78.9615 121.56 78.0906V78.0378Z" fill="url(#paint15_linear_147_1800)"/>
<path d="M106.501 64.3936C106.581 64.3144 106.607 64.1825 106.581 64.0769C106.554 63.9714 106.448 63.8922 106.316 63.8658L103.833 63.4963L102.724 61.2531C102.671 61.1475 102.565 61.0684 102.433 61.0684C102.301 61.0684 102.195 61.1475 102.142 61.2531L101.112 63.338C101.059 63.4171 100.98 63.4963 100.874 63.4963L98.5495 63.8394C98.4438 63.8658 98.3381 63.945 98.2853 64.0505C98.2589 64.1561 98.2853 64.288 98.3645 64.3672L100.029 66.0034C100.108 66.0826 100.135 66.1882 100.108 66.2674L99.7119 68.5634C99.6854 68.6689 99.7383 68.8009 99.8439 68.8801C99.9496 68.9592 100.055 68.9592 100.161 68.9064L102.222 67.8244C102.301 67.7716 102.433 67.7716 102.512 67.8244L104.573 68.9064C104.678 68.9592 104.811 68.9592 104.89 68.8801C104.995 68.8009 105.022 68.6953 105.022 68.5634L104.626 66.2674C104.599 66.1618 104.652 66.0562 104.705 66.0034L106.501 64.3936Z" fill="url(#paint16_linear_147_1800)"/>
<path d="M117.597 64.3936C117.676 64.3144 117.703 64.1825 117.676 64.0769C117.65 63.9714 117.544 63.8922 117.412 63.8658L114.929 63.4963L113.819 61.2531C113.766 61.1475 113.661 61.0684 113.529 61.0684C113.397 61.0684 113.291 61.1475 113.238 61.2531L112.208 63.338C112.155 63.4171 112.076 63.4963 111.97 63.4963L109.645 63.8394C109.54 63.8658 109.434 63.945 109.381 64.0505C109.355 64.1561 109.381 64.288 109.46 64.3672L111.125 66.0034C111.204 66.0826 111.23 66.1882 111.204 66.2674L110.808 68.5634C110.781 68.6689 110.834 68.8009 110.94 68.8801C111.045 68.9592 111.151 68.9592 111.257 68.9064L113.317 67.8244C113.397 67.7716 113.529 67.7716 113.608 67.8244L115.668 68.9064C115.774 68.9592 115.906 68.9592 115.985 68.8801C116.091 68.8009 116.118 68.6953 116.118 68.5634L115.721 66.2674C115.695 66.1618 115.748 66.0562 115.801 66.0034L117.597 64.3936Z" fill="url(#paint17_linear_147_1800)"/>
<path d="M128.692 64.3936C128.771 64.3144 128.798 64.1825 128.771 64.0769C128.745 63.9714 128.639 63.8922 128.507 63.8658L126.024 63.4963L124.914 61.2531C124.862 61.1475 124.756 61.0684 124.624 61.0684C124.492 61.0684 124.386 61.1475 124.333 61.2531L123.303 63.338C123.25 63.4171 123.171 63.4963 123.065 63.4963L120.74 63.8394C120.635 63.8658 120.529 63.945 120.476 64.0505C120.45 64.1561 120.476 64.288 120.555 64.3672L122.22 66.0034C122.299 66.0826 122.325 66.1882 122.299 66.2674L121.903 68.5634C121.876 68.6689 121.929 68.8009 122.035 68.8801C122.141 68.9592 122.246 68.9592 122.352 68.9064L124.412 67.8244C124.492 67.7716 124.624 67.7716 124.703 67.8244L126.764 68.9064C126.869 68.9592 127.001 68.9592 127.081 68.8801C127.186 68.8009 127.213 68.6953 127.213 68.5634L126.817 66.2674C126.79 66.1618 126.843 66.0562 126.896 66.0034L128.692 64.3936Z" fill="url(#paint18_linear_147_1800)"/>
<path d="M139.788 64.3936C139.867 64.3144 139.894 64.1825 139.867 64.0769C139.841 63.9714 139.735 63.8922 139.603 63.8658L137.12 63.4963L136.01 61.2531C135.957 61.1475 135.852 61.0684 135.72 61.0684C135.587 61.0684 135.482 61.1475 135.429 61.2531L134.399 63.338C134.346 63.4171 134.267 63.4963 134.161 63.4963L131.836 63.8394C131.73 63.8658 131.625 63.945 131.572 64.0505C131.546 64.1561 131.572 64.288 131.651 64.3672L133.315 66.0034C133.395 66.0826 133.421 66.1882 133.395 66.2674L132.998 68.5634C132.972 68.6689 133.025 68.8009 133.131 68.8801C133.236 68.9592 133.342 68.9592 133.448 68.9064L135.508 67.8244C135.587 67.7716 135.72 67.7716 135.799 67.8244L137.859 68.9064C137.965 68.9592 138.097 68.9592 138.176 68.8801C138.282 68.8009 138.308 68.6953 138.308 68.5634L137.912 66.2674C137.886 66.1618 137.939 66.0562 137.991 66.0034L139.788 64.3936Z" fill="url(#paint19_linear_147_1800)"/>
<path d="M150.884 64.3936C150.963 64.3144 150.989 64.1825 150.963 64.0769C150.936 63.9714 150.831 63.8922 150.699 63.8658L148.215 63.4963L147.106 61.2531C147.053 61.1475 146.947 61.0684 146.815 61.0684C146.683 61.0684 146.577 61.1475 146.525 61.2531L145.494 63.338C145.441 63.4171 145.362 63.4963 145.257 63.4963L142.932 63.8394C142.826 63.8658 142.72 63.945 142.668 64.0505C142.641 64.1561 142.668 64.288 142.747 64.3672L144.411 66.0034C144.49 66.0826 144.517 66.1882 144.49 66.2674L144.094 68.5634C144.068 68.6689 144.121 68.8009 144.226 68.8801C144.332 68.9592 144.438 68.9592 144.543 68.9064L146.604 67.8244C146.683 67.7716 146.815 67.7716 146.894 67.8244L148.955 68.9064C149.061 68.9592 149.193 68.9592 149.272 68.8801C149.378 68.8009 149.404 68.6953 149.404 68.5634L149.008 66.2674C148.982 66.1618 149.034 66.0562 149.087 66.0034L150.884 64.3936Z" fill="url(#paint20_linear_147_1800)"/>
<path d="M159.126 97.488V116.067C159.126 117.571 158.201 118.812 157.065 118.812H89.2505C88.2995 118.812 87.4805 119.656 87.2427 120.897L86.0275 127.362C85.869 128.233 84.9708 128.286 84.733 127.468L83.1744 122.005C82.8574 120.949 82.0912 120.237 81.2459 120.237H78.3399C77.2039 120.237 76.2793 118.997 76.2793 117.492V98.3853C76.2793 96.881 77.2039 95.667 78.3135 95.6406L157.039 94.7433C158.175 94.7169 159.126 95.9573 159.126 97.488Z" fill="white"/>
<path d="M86.7406 115.434C91.3365 115.434 95.0622 111.617 95.0622 106.91C95.0622 102.202 91.3365 98.3853 86.7406 98.3853C82.1447 98.3853 78.4189 102.202 78.4189 106.91C78.4189 111.617 82.1447 115.434 86.7406 115.434Z" fill="url(#paint21_linear_147_1800)"/>
<path d="M89.7524 103.452C89.7524 104.983 88.5107 106.646 86.9785 106.646C85.4462 106.646 84.2046 104.983 84.2046 103.452C84.2046 101.922 85.4462 100.84 86.9785 100.84C88.5107 100.813 89.7524 101.922 89.7524 103.452Z" fill="white"/>
<path d="M83.5443 112.531H90.3337C91.047 112.531 91.681 112.082 91.8924 111.396L92.2622 110.261C92.5264 109.417 92.1037 108.519 91.2848 108.229C88.5373 107.226 85.6842 107.358 82.7518 108.335C81.9328 108.598 81.4837 109.469 81.695 110.314L81.9857 111.343C82.1442 112.029 82.8046 112.531 83.5443 112.531Z" fill="white"/>
<path d="M150.488 109.126C150.488 110.023 149.774 110.736 148.876 110.736H101.403C100.505 110.736 99.7915 110.023 99.7915 109.126C99.7915 108.229 100.505 107.516 101.403 107.516H148.876C149.774 107.516 150.488 108.229 150.488 109.126Z" fill="url(#paint22_linear_147_1800)"/>
<path d="M128.429 114.51C128.429 115.381 127.742 116.067 126.87 116.067H101.456C100.584 116.067 99.8975 115.381 99.8975 114.51V114.457C99.8975 113.587 100.584 112.9 101.456 112.9H126.87C127.742 112.9 128.429 113.587 128.429 114.457V114.51Z" fill="url(#paint23_linear_147_1800)"/>
<path d="M150.884 114.51C150.884 115.381 150.197 116.067 149.325 116.067H130.78C129.908 116.067 129.221 115.381 129.221 114.51V114.457C129.221 113.587 129.908 112.9 130.78 112.9H149.325C150.197 112.9 150.884 113.587 150.884 114.457V114.51Z" fill="url(#paint24_linear_147_1800)"/>
<path d="M106.501 100.998C106.581 100.919 106.607 100.787 106.581 100.681C106.554 100.576 106.448 100.496 106.316 100.47L103.833 100.101L102.724 97.8573C102.671 97.7518 102.565 97.6726 102.433 97.6726C102.301 97.6726 102.195 97.7518 102.142 97.8573L101.112 99.9422C101.059 100.021 100.98 100.101 100.874 100.101L98.5495 100.444C98.4438 100.47 98.3381 100.549 98.2853 100.655C98.2589 100.76 98.2853 100.892 98.3645 100.971L100.029 102.608C100.108 102.687 100.135 102.792 100.108 102.872L99.7119 105.168C99.6854 105.273 99.7383 105.405 99.8439 105.484C99.9496 105.563 100.055 105.563 100.161 105.511L102.222 104.429C102.301 104.376 102.433 104.376 102.512 104.429L104.573 105.511C104.678 105.563 104.811 105.563 104.89 105.484C104.995 105.405 105.022 105.3 105.022 105.168L104.626 102.872C104.599 102.766 104.652 102.66 104.705 102.608L106.501 100.998Z" fill="url(#paint25_linear_147_1800)"/>
<path d="M117.597 100.998C117.676 100.919 117.703 100.787 117.676 100.681C117.65 100.576 117.544 100.496 117.412 100.47L114.929 100.101L113.819 97.8573C113.766 97.7518 113.661 97.6726 113.529 97.6726C113.397 97.6726 113.291 97.7518 113.238 97.8573L112.208 99.9422C112.155 100.021 112.076 100.101 111.97 100.101L109.645 100.444C109.54 100.47 109.434 100.549 109.381 100.655C109.355 100.76 109.381 100.892 109.46 100.971L111.125 102.608C111.204 102.687 111.23 102.792 111.204 102.872L110.808 105.168C110.781 105.273 110.834 105.405 110.94 105.484C111.045 105.563 111.151 105.563 111.257 105.511L113.317 104.429C113.397 104.376 113.529 104.376 113.608 104.429L115.668 105.511C115.774 105.563 115.906 105.563 115.985 105.484C116.091 105.405 116.118 105.3 116.118 105.168L115.721 102.872C115.695 102.766 115.748 102.66 115.801 102.608L117.597 100.998Z" fill="url(#paint26_linear_147_1800)"/>
<path d="M128.692 100.998C128.771 100.919 128.798 100.787 128.771 100.681C128.745 100.576 128.639 100.496 128.507 100.47L126.024 100.101L124.914 97.8573C124.862 97.7518 124.756 97.6726 124.624 97.6726C124.492 97.6726 124.386 97.7518 124.333 97.8573L123.303 99.9422C123.25 100.021 123.171 100.101 123.065 100.101L120.74 100.444C120.635 100.47 120.529 100.549 120.476 100.655C120.45 100.76 120.476 100.892 120.555 100.971L122.22 102.608C122.299 102.687 122.325 102.792 122.299 102.872L121.903 105.168C121.876 105.273 121.929 105.405 122.035 105.484C122.141 105.563 122.246 105.563 122.352 105.511L124.412 104.429C124.492 104.376 124.624 104.376 124.703 104.429L126.764 105.511C126.869 105.563 127.001 105.563 127.081 105.484C127.186 105.405 127.213 105.3 127.213 105.168L126.817 102.872C126.79 102.766 126.843 102.66 126.896 102.608L128.692 100.998Z" fill="url(#paint27_linear_147_1800)"/>
<path d="M139.788 100.998C139.867 100.919 139.894 100.787 139.867 100.681C139.841 100.576 139.735 100.496 139.603 100.47L137.12 100.101L136.01 97.8573C135.957 97.7518 135.852 97.6726 135.72 97.6726C135.587 97.6726 135.482 97.7518 135.429 97.8573L134.399 99.9422C134.346 100.021 134.267 100.101 134.161 100.101L131.836 100.444C131.73 100.47 131.625 100.549 131.572 100.655C131.546 100.76 131.572 100.892 131.651 100.971L133.315 102.608C133.395 102.687 133.421 102.792 133.395 102.872L132.998 105.168C132.972 105.273 133.025 105.405 133.131 105.484C133.236 105.563 133.342 105.563 133.448 105.511L135.508 104.429C135.587 104.376 135.72 104.376 135.799 104.429L137.859 105.511C137.965 105.563 138.097 105.563 138.176 105.484C138.282 105.405 138.308 105.3 138.308 105.168L137.912 102.872C137.886 102.766 137.939 102.66 137.991 102.608L139.788 100.998Z" fill="url(#paint28_linear_147_1800)"/>
<path d="M150.884 100.998C150.963 100.919 150.989 100.787 150.963 100.681C150.936 100.576 150.831 100.496 150.699 100.47L148.215 100.101L147.106 97.8573C147.053 97.7518 146.947 97.6726 146.815 97.6726C146.683 97.6726 146.577 97.7518 146.525 97.8573L145.494 99.9422C145.441 100.021 145.362 100.101 145.257 100.101L142.932 100.444C142.826 100.47 142.72 100.549 142.668 100.655C142.641 100.76 142.668 100.892 142.747 100.971L144.411 102.608C144.49 102.687 144.517 102.792 144.49 102.872L144.094 105.168C144.068 105.273 144.121 105.405 144.226 105.484C144.332 105.563 144.438 105.563 144.543 105.511L146.604 104.429C146.683 104.376 146.815 104.376 146.894 104.429L148.955 105.511C149.061 105.563 149.193 105.563 149.272 105.484C149.378 105.405 149.404 105.3 149.404 105.168L149.008 102.872C148.982 102.766 149.034 102.66 149.087 102.608L150.884 100.998Z" fill="url(#paint29_linear_147_1800)"/>
<path d="M180.895 93.3974C180.604 93.3974 180.366 93.1863 180.313 92.896C180.261 92.632 180.234 92.3945 180.181 92.1306C180.129 91.8139 180.34 91.4972 180.657 91.4445C180.974 91.3917 181.291 91.6028 181.344 91.9195C181.397 92.1834 181.449 92.4473 181.476 92.7112C181.529 93.0279 181.317 93.3446 180.974 93.3974C180.947 93.371 180.921 93.3974 180.895 93.3974ZM180.34 90.8111C180.076 90.8111 179.838 90.6263 179.759 90.3624C179.706 90.0985 179.627 89.861 179.547 89.6235C179.468 89.3068 179.653 88.9637 179.97 88.8845C180.287 88.8054 180.63 88.9901 180.71 89.3068C180.789 89.5707 180.842 89.8346 180.921 90.0985C181 90.4152 180.815 90.7319 180.498 90.8375C180.446 90.7847 180.393 90.8111 180.34 90.8111ZM179.574 88.2776C179.336 88.2776 179.098 88.1192 179.019 87.8817C178.94 87.6442 178.834 87.3803 178.755 87.1427C178.649 86.826 178.808 86.483 179.098 86.3774C179.415 86.2718 179.759 86.4302 179.864 86.7205C179.97 86.9844 180.049 87.2219 180.129 87.4858C180.234 87.8025 180.076 88.1456 179.759 88.2512C179.706 88.2512 179.653 88.2776 179.574 88.2776ZM178.596 85.8232C178.359 85.8232 178.147 85.6912 178.042 85.4801C177.936 85.2426 177.83 85.0051 177.725 84.7676C177.592 84.4773 177.724 84.1078 178.015 83.9758C178.306 83.8439 178.676 83.9758 178.808 84.2661C178.913 84.5037 179.045 84.7412 179.151 85.0051C179.283 85.2954 179.151 85.6649 178.834 85.7968C178.781 85.7968 178.702 85.8232 178.596 85.8232ZM177.46 83.448C177.249 83.448 177.038 83.3425 176.932 83.1313C176.8 82.8938 176.694 82.6827 176.562 82.4452C176.404 82.1549 176.509 81.7854 176.773 81.6271C177.064 81.4687 177.434 81.5743 177.592 81.8382C177.725 82.0757 177.857 82.3132 177.989 82.5507C178.147 82.841 178.042 83.2105 177.751 83.3689C177.645 83.4216 177.54 83.448 177.46 83.448ZM176.113 81.1784C175.928 81.1784 175.717 81.0728 175.611 80.9145C175.479 80.7034 175.32 80.4922 175.188 80.2547C175.003 79.9908 175.083 79.6214 175.347 79.4366C175.611 79.2519 175.981 79.331 176.166 79.595C176.324 79.8061 176.456 80.0436 176.615 80.2547C176.8 80.545 176.721 80.9145 176.43 81.0728C176.324 81.152 176.219 81.1784 176.113 81.1784ZM174.607 79.0144C174.422 79.0144 174.237 78.9352 174.132 78.7768C173.973 78.5657 173.815 78.3546 173.656 78.1698C173.445 77.9059 173.498 77.5365 173.762 77.3253C174.026 77.1142 174.396 77.167 174.607 77.4309C174.766 77.642 174.924 77.8532 175.083 78.0643C175.268 78.3282 175.215 78.6977 174.951 78.9088C174.871 78.9616 174.739 79.0144 174.607 79.0144ZM49.3861 77.7476C49.0691 77.7476 48.7785 77.4837 48.7785 77.1406C48.7785 76.8239 49.0427 76.5336 49.3861 76.5336C49.6503 76.5336 49.9145 76.5336 50.1787 76.5336C50.4957 76.5336 50.7599 76.7975 50.7863 77.1142C50.7863 77.4309 50.5221 77.7212 50.2051 77.7212C49.9145 77.7476 49.6503 77.7476 49.3861 77.7476ZM47.5369 77.7212C47.2463 77.7212 46.9821 77.6948 46.7179 77.6948C46.4009 77.6684 46.1367 77.4045 46.1367 77.0614C46.1631 76.7447 46.4273 76.4808 46.7708 76.4808C47.0349 76.4808 47.2991 76.5072 47.5633 76.5072C47.8803 76.5072 48.1445 76.7975 48.1445 77.1142C48.1181 77.4573 47.8539 77.7212 47.5369 77.7212ZM52.0279 77.6684C51.7109 77.6684 51.4467 77.4309 51.4203 77.0878C51.3939 76.7711 51.6581 76.4808 52.0015 76.4544C52.2657 76.4544 52.5299 76.4281 52.7941 76.4017C53.1111 76.3753 53.4017 76.6392 53.4281 76.9559C53.4545 77.2726 53.1903 77.5629 52.8733 77.5893C52.6091 77.6156 52.3449 77.6156 52.0808 77.642C52.0544 77.6684 52.0543 77.6684 52.0279 77.6684ZM44.8951 77.5629C44.8687 77.5629 44.8687 77.5629 44.8423 77.5629C44.5781 77.5365 44.3139 77.5101 44.0497 77.4837C43.7327 77.4573 43.4685 77.167 43.5214 76.8239C43.5478 76.5072 43.8384 76.2433 44.1818 76.2961C44.446 76.3225 44.7102 76.3489 44.9743 76.3753C45.2914 76.4017 45.5555 76.692 45.5291 77.0087C45.4763 77.3253 45.2121 77.5629 44.8951 77.5629ZM54.6697 77.5101C54.3527 77.5101 54.0885 77.2726 54.0621 76.9559C54.0357 76.6392 54.2735 76.3489 54.6169 76.3225C54.8811 76.2961 55.1453 76.2697 55.4094 76.2433C55.7529 76.2169 56.017 76.4544 56.0699 76.7711C56.0963 77.0878 55.8585 77.3781 55.5415 77.4309C55.2773 77.4573 55.0132 77.4837 54.749 77.5101C54.6961 77.5101 54.6961 77.5101 54.6697 77.5101ZM42.2797 77.2726C42.2533 77.2726 42.2269 77.2726 42.2005 77.2726C41.9363 77.2462 41.6721 77.1934 41.4079 77.1406C41.0909 77.0878 40.8531 76.7711 40.906 76.4544C40.9588 76.1377 41.2758 75.9002 41.5928 75.953C41.857 76.0058 42.1212 76.0322 42.359 76.0586C42.676 76.1114 42.9137 76.4017 42.8609 76.7447C42.8345 77.0614 42.5703 77.2726 42.2797 77.2726ZM57.2851 77.2462C56.9945 77.2462 56.7303 77.035 56.7039 76.7183C56.6775 76.4017 56.8888 76.085 57.2323 76.0586C57.4964 76.0322 57.7606 76.0058 58.0248 75.953C58.3418 75.9002 58.6588 76.1377 58.6853 76.4808C58.7381 76.7975 58.5003 77.1142 58.1569 77.1406C57.8927 77.167 57.6285 77.2198 57.3644 77.2462C57.3379 77.2462 57.3115 77.2462 57.2851 77.2462ZM172.969 76.9559C172.811 76.9559 172.626 76.8767 172.52 76.7447C172.362 76.56 172.177 76.3489 172.018 76.1641C171.807 75.9266 171.833 75.5308 172.071 75.3196C172.309 75.1085 172.705 75.1349 172.916 75.3724C173.101 75.5835 173.26 75.7683 173.445 75.9794C173.656 76.2169 173.63 76.6128 173.392 76.8239C173.233 76.9031 173.101 76.9559 172.969 76.9559ZM59.9269 76.8767C59.6363 76.8767 59.3721 76.6656 59.3457 76.3753C59.2929 76.0586 59.5306 75.7419 59.8476 75.6891C60.1118 75.6627 60.376 75.6099 60.6138 75.5572C60.9308 75.5044 61.2478 75.7155 61.3006 76.0586C61.3535 76.3753 61.1421 76.692 60.7987 76.7447C60.5345 76.7975 60.2703 76.8239 60.0061 76.8767C59.9797 76.8767 59.9533 76.8767 59.9269 76.8767ZM39.6643 76.8239C39.6115 76.8239 39.5851 76.8239 39.5322 76.8239C39.2681 76.7711 39.0039 76.7184 38.7397 76.6656C38.4227 76.5864 38.2113 76.2697 38.2906 75.953C38.3699 75.6363 38.6869 75.4252 39.0039 75.5044C39.2681 75.5572 39.5058 75.6099 39.77 75.6627C40.087 75.7419 40.2984 76.0322 40.2455 76.3753C40.1927 76.6392 39.9549 76.8239 39.6643 76.8239ZM62.5159 76.4544C62.2253 76.4544 61.9875 76.2433 61.9347 75.953C61.8818 75.6363 62.0932 75.3196 62.4102 75.2669L63.1763 75.1349C63.4933 75.0821 63.8103 75.2933 63.8632 75.6099C63.916 75.9266 63.7047 76.2433 63.3876 76.2961L62.5951 76.4544C62.5951 76.4544 62.5423 76.4544 62.5159 76.4544ZM37.1018 76.1905C37.049 76.1905 36.9961 76.1905 36.9433 76.1641C36.6791 76.085 36.4149 76.0058 36.1772 75.9266C35.8601 75.8211 35.6752 75.5044 35.7809 75.1877C35.8866 74.871 36.2036 74.6863 36.5206 74.7918C36.7584 74.871 37.0225 74.9502 37.2603 75.0029C37.5773 75.0821 37.7622 75.4252 37.683 75.7419C37.6037 76.0322 37.366 76.1905 37.1018 76.1905ZM65.1048 75.953C64.8142 75.953 64.5765 75.7683 64.5236 75.478C64.4708 75.1613 64.6557 74.8446 64.9991 74.7654C65.2633 74.7126 65.5011 74.6599 65.7653 74.6071C66.0823 74.5279 66.3993 74.739 66.4785 75.0557C66.5578 75.3724 66.3465 75.6891 66.0294 75.7683C65.7653 75.8211 65.5011 75.8738 65.2369 75.9266C65.1841 75.953 65.1576 75.953 65.1048 75.953ZM34.5921 75.3988C34.5128 75.3988 34.46 75.3988 34.3807 75.3724C34.1166 75.2932 33.8788 75.1877 33.6146 75.0821C33.2976 74.9502 33.1655 74.6071 33.2712 74.3168C33.4033 74.0001 33.7467 73.8681 34.0373 73.9737C34.2751 74.0793 34.5128 74.1584 34.777 74.2376C35.094 74.3432 35.2525 74.6862 35.1204 75.0029C35.0676 75.2405 34.8298 75.3988 34.5921 75.3988ZM67.6938 75.3988C67.4296 75.3988 67.1654 75.2141 67.1126 74.9238C67.0333 74.6071 67.2447 74.2904 67.5617 74.2112C67.8259 74.1584 68.0636 74.1057 68.3278 74.0265C68.6448 73.9473 68.9618 74.1584 69.0411 74.4751C69.1203 74.7918 68.909 75.1085 68.592 75.1877C68.3278 75.2405 68.0636 75.2932 67.8259 75.3724C67.773 75.3988 67.7466 75.3988 67.6938 75.3988ZM171.173 75.0029C171.014 75.0029 170.856 74.9502 170.75 74.8182C170.565 74.6335 170.38 74.4487 170.195 74.264C169.958 74.0265 169.958 73.657 170.195 73.4195C170.433 73.182 170.803 73.182 171.041 73.4195C171.226 73.6042 171.411 73.789 171.596 74.0001C171.833 74.2376 171.833 74.6071 171.596 74.8446C171.49 74.9502 171.331 75.0029 171.173 75.0029ZM70.2563 74.7918C69.9921 74.7918 69.7544 74.6071 69.6751 74.3432C69.5959 74.0265 69.8072 73.7098 70.1242 73.6306C70.3884 73.5778 70.6262 73.4987 70.8903 73.4459C71.2074 73.3667 71.5244 73.5514 71.6036 73.8945C71.6829 74.2112 71.498 74.5279 71.1545 74.6071C70.8903 74.6599 70.6526 74.739 70.3884 74.7918C70.362 74.7918 70.3091 74.7918 70.2563 74.7918ZM32.1352 74.396C32.056 74.396 31.9767 74.3696 31.8975 74.3432C31.6597 74.2376 31.4219 74.1057 31.1578 74.0001C30.8672 73.8417 30.7351 73.4987 30.8936 73.2084C31.0521 72.9181 31.3955 72.7861 31.6861 72.9445C31.9239 73.05 32.1616 73.182 32.3994 73.2875C32.69 73.4195 32.8221 73.789 32.69 74.0793C32.5843 74.264 32.373 74.396 32.1352 74.396ZM72.8453 74.1584C72.5811 74.1584 72.3433 73.9737 72.2641 73.7098C72.1848 73.3931 72.3697 73.0764 72.6868 72.9709C72.9509 72.9181 73.1887 72.8389 73.4529 72.7861C73.7699 72.7069 74.0869 72.8917 74.1926 73.2084C74.2718 73.5251 74.0869 73.8417 73.7699 73.9473C73.5057 74.0265 73.268 74.0793 73.0038 74.1584C72.9245 74.1584 72.8717 74.1584 72.8453 74.1584ZM75.3814 73.4987C75.1172 73.4987 74.8795 73.3139 74.8002 73.05C74.7209 72.7333 74.9059 72.4166 75.2229 72.3111L75.989 72.0999C76.306 72.0208 76.623 72.2055 76.7287 72.5222C76.808 72.8389 76.623 73.1556 76.306 73.2611L75.5399 73.4723C75.4871 73.4723 75.4342 73.4987 75.3814 73.4987ZM29.8104 73.182C29.7048 73.182 29.5991 73.1556 29.5198 73.1028C29.2821 72.9709 29.0443 72.8389 28.833 72.6805C28.5424 72.4958 28.4631 72.1527 28.6216 71.8624C28.8066 71.5721 29.15 71.493 29.4406 71.6513C29.6519 71.7833 29.8897 71.9152 30.101 72.0472C30.3916 72.2055 30.4973 72.575 30.3124 72.8653C30.2067 73.0764 30.0218 73.182 29.8104 73.182ZM169.297 73.182C169.165 73.182 169.007 73.1292 168.901 73.0236C168.716 72.8389 168.505 72.6805 168.32 72.4958C168.082 72.2847 168.056 71.9152 168.267 71.6513C168.478 71.4138 168.848 71.3874 169.112 71.5985C169.324 71.7833 169.508 71.9416 169.72 72.1263C169.958 72.3375 169.984 72.7333 169.773 72.9709C169.614 73.1028 169.456 73.182 169.297 73.182ZM77.9439 72.7861C77.6798 72.7861 77.442 72.6014 77.3627 72.3375C77.2835 72.0208 77.4684 71.6777 77.7854 71.5985L78.5515 71.3874C78.8686 71.3082 79.212 71.493 79.2912 71.8096C79.3705 72.1263 79.1856 72.4694 78.8686 72.5486L78.1024 72.7597C78.0496 72.7861 77.9968 72.7861 77.9439 72.7861ZM80.4801 72.0736C80.2159 72.0736 79.9781 71.9152 79.8989 71.6513C79.8196 71.3346 79.9781 70.9915 80.2951 70.9124L81.0612 70.7012C81.3783 70.6221 81.7217 70.7804 81.8009 71.0971C81.9066 71.4138 81.7217 71.7569 81.4047 71.836L80.6386 72.0472C80.5857 72.0472 80.5329 72.0736 80.4801 72.0736ZM27.5649 71.7569C27.4328 71.7569 27.3272 71.7305 27.2215 71.6513C27.0101 71.493 26.7724 71.3346 26.561 71.1763C26.2969 70.9915 26.244 70.5957 26.4289 70.3318C26.6139 70.0679 27.0101 70.0151 27.2743 70.1998C27.4857 70.3582 27.697 70.5165 27.9084 70.6484C28.1725 70.8332 28.2518 71.2027 28.0404 71.493C27.9612 71.6777 27.7763 71.7569 27.5649 71.7569ZM167.289 71.4666C167.157 71.4666 167.025 71.4138 166.92 71.3346C166.708 71.1763 166.523 71.0179 166.312 70.8596C166.048 70.6485 165.995 70.279 166.206 70.0151C166.418 69.7512 166.787 69.6984 167.052 69.9095C167.263 70.0679 167.474 70.2262 167.686 70.4109C167.95 70.6221 167.976 70.9915 167.765 71.2554C167.633 71.3874 167.448 71.4666 167.289 71.4666ZM83.0162 71.3346C82.752 71.3346 82.5142 71.1763 82.435 70.9124C82.3293 70.5957 82.5142 70.2526 82.8313 70.1734L83.5974 69.9359C83.9144 69.8303 84.2578 70.0151 84.3371 70.3318C84.4427 70.6485 84.2578 70.9915 83.9408 71.0707L83.1747 71.3082C83.1218 71.3082 83.069 71.3346 83.0162 71.3346ZM85.5523 70.5693C85.2881 70.5693 85.0504 70.4109 84.9711 70.147C84.8654 69.8303 85.0504 69.4873 85.3674 69.4081L86.1335 69.1706C86.4505 69.065 86.7939 69.2497 86.8732 69.5664C86.9789 69.8831 86.7939 70.2262 86.4769 70.3054L85.7108 70.5429C85.658 70.5693 85.6051 70.5693 85.5523 70.5693ZM25.5043 70.147C25.3722 70.147 25.2137 70.0942 25.108 69.9887C24.8967 69.8039 24.7118 69.6192 24.5004 69.4345C24.2627 69.2233 24.2363 68.8275 24.474 68.59C24.6854 68.3524 25.0816 68.3261 25.3194 68.5636C25.5043 68.7483 25.6892 68.9067 25.9006 69.0914C26.1383 69.3025 26.1648 69.672 25.9534 69.9359C25.8213 70.0679 25.6628 70.147 25.5043 70.147ZM165.176 69.8831C165.044 69.8831 164.938 69.8567 164.833 69.7776C164.621 69.6192 164.41 69.4873 164.199 69.3289C163.934 69.1442 163.855 68.7747 164.04 68.5108C164.225 68.2469 164.595 68.1677 164.859 68.3524C165.07 68.5108 165.308 68.6691 165.519 68.8011C165.784 68.9858 165.863 69.3553 165.652 69.6456C165.546 69.7776 165.361 69.8831 165.176 69.8831ZM88.062 69.8039C87.7978 69.8039 87.5601 69.6456 87.4808 69.3817C87.3751 69.065 87.5601 68.7219 87.8771 68.6427L88.6432 68.4052C88.9602 68.2997 89.3036 68.4844 89.3829 68.8011C89.4886 69.1178 89.3036 69.4609 88.9866 69.54L88.2205 69.7776C88.1941 69.8039 88.1413 69.8039 88.062 69.8039ZM90.5981 69.0386C90.3339 69.0386 90.0962 68.8803 90.0169 68.6164C89.9113 68.2997 90.0962 67.9566 90.4132 67.8774L91.1793 67.6399C91.4963 67.5343 91.8398 67.7191 91.919 68.0358C92.0247 68.3524 91.8398 68.6955 91.5228 68.7747L90.7566 69.0122C90.7038 69.0386 90.651 69.0386 90.5981 69.0386ZM162.983 68.4052C162.878 68.4052 162.772 68.3788 162.666 68.3261C162.455 68.1941 162.217 68.0621 162.006 67.9038C161.715 67.7455 161.636 67.376 161.794 67.0857C161.953 66.7954 162.323 66.7162 162.613 66.8746C162.851 67.0065 163.063 67.1649 163.3 67.2968C163.591 67.4816 163.67 67.851 163.485 68.1149C163.38 68.2997 163.168 68.4052 162.983 68.4052ZM23.6022 68.3261C23.4437 68.3261 23.2852 68.2733 23.1795 68.1413C22.9946 67.9566 22.8097 67.7455 22.6248 67.5343C22.4134 67.2968 22.4398 66.9009 22.6776 66.6898C22.9154 66.4787 23.3116 66.5051 23.523 66.7426C23.6815 66.9273 23.8664 67.1385 24.0513 67.3232C24.2891 67.5607 24.2627 67.9302 24.0249 68.1677C23.8928 68.2469 23.7343 68.3261 23.6022 68.3261ZM93.1343 68.2733C92.8701 68.2733 92.6323 68.1149 92.5531 67.851C92.4474 67.5343 92.6323 67.1912 92.9493 67.1121L93.7154 66.8746C94.0324 66.769 94.3759 66.9537 94.4552 67.2704C94.5608 67.5871 94.3759 67.9302 94.0589 68.0094L93.2928 68.2469C93.2399 68.2733 93.1871 68.2733 93.1343 68.2733ZM95.6704 67.5079C95.4062 67.5079 95.1684 67.3496 95.0892 67.0857C94.9835 66.769 95.1684 66.4259 95.4854 66.3467L96.2516 66.1092C96.5686 66.0037 96.912 66.1884 96.9913 66.5051C97.0969 66.8218 96.912 67.1649 96.595 67.244L95.8289 67.4815C95.776 67.5079 95.7232 67.5079 95.6704 67.5079ZM160.711 67.0593C160.606 67.0593 160.526 67.0329 160.421 66.9801C160.183 66.8482 159.972 66.7426 159.734 66.6106C159.443 66.4523 159.338 66.0828 159.496 65.7925C159.655 65.5022 160.024 65.3967 160.315 65.555C160.553 65.687 160.791 65.8189 161.028 65.9245C161.319 66.0828 161.425 66.4523 161.266 66.7426C161.108 66.9537 160.923 67.0593 160.711 67.0593ZM98.2065 66.769C97.9423 66.769 97.7046 66.6106 97.6253 66.3467C97.5461 66.0301 97.7046 65.687 98.0216 65.6078L98.7877 65.3967C99.1047 65.3175 99.4481 65.4758 99.5274 65.7925C99.6066 66.1092 99.4481 66.4523 99.1311 66.5315L98.365 66.7426C98.3122 66.769 98.2593 66.769 98.2065 66.769ZM21.8851 66.294C21.7001 66.294 21.5152 66.2148 21.4095 66.0564C21.251 65.8453 21.0925 65.6342 20.934 65.3967C20.7491 65.1328 20.8019 64.7633 21.0661 64.5522C21.3303 64.3674 21.7001 64.4202 21.9115 64.6841C22.07 64.8952 22.2285 65.1064 22.3606 65.3175C22.5719 65.5814 22.5191 65.9509 22.2549 66.162C22.1492 66.2676 22.0172 66.294 21.8851 66.294ZM100.743 66.0564C100.478 66.0564 100.241 65.8717 100.161 65.6342C100.082 65.3175 100.267 64.9744 100.584 64.8952L101.35 64.6841C101.667 64.6049 102.011 64.7897 102.09 65.1064C102.169 65.4231 101.984 65.7398 101.667 65.8453L100.901 66.0564C100.848 66.03 100.795 66.0564 100.743 66.0564ZM158.36 65.8453C158.281 65.8453 158.175 65.8189 158.096 65.7925C157.858 65.687 157.62 65.555 157.383 65.4495C157.092 65.3175 156.96 64.948 157.092 64.6577C157.224 64.3674 157.594 64.2355 157.885 64.3674C158.122 64.473 158.36 64.6049 158.598 64.7105C158.889 64.8425 159.021 65.2119 158.888 65.5022C158.783 65.7397 158.571 65.8453 158.36 65.8453ZM103.279 65.3439C103.015 65.3439 102.777 65.1592 102.698 64.8952C102.618 64.5786 102.803 64.2619 103.12 64.1563L103.886 63.9452C104.203 63.866 104.52 64.0507 104.626 64.3674C104.705 64.6841 104.52 65.0008 104.203 65.1064L103.437 65.3175C103.384 65.3439 103.332 65.3439 103.279 65.3439ZM155.956 64.7633C155.877 64.7633 155.798 64.7369 155.718 64.7105C155.481 64.6049 155.243 64.4994 155.005 64.4202C154.688 64.2882 154.556 63.9452 154.662 63.6549C154.794 63.3382 155.137 63.2062 155.428 63.3118C155.666 63.4174 155.93 63.5229 156.167 63.6021C156.484 63.734 156.617 64.0771 156.484 64.3938C156.405 64.6313 156.167 64.7633 155.956 64.7633ZM105.841 64.6577C105.577 64.6577 105.339 64.473 105.26 64.2091C105.181 63.8924 105.366 63.5757 105.683 63.4701L106.449 63.2854C106.766 63.2062 107.083 63.391 107.162 63.7077C107.241 64.0243 107.057 64.341 106.739 64.4202L105.973 64.6049C105.921 64.6577 105.894 64.6577 105.841 64.6577ZM20.3792 64.1299C20.1679 64.1299 19.983 64.0243 19.8773 63.8396C19.7452 63.6021 19.5867 63.391 19.4546 63.1534C19.2961 62.8631 19.3754 62.4937 19.666 62.3353C19.9565 62.177 20.3264 62.2562 20.4849 62.5465C20.617 62.7576 20.7491 62.9951 20.8812 63.2062C21.0661 63.4965 20.9604 63.866 20.6963 64.0243C20.5906 64.1035 20.4849 64.1299 20.3792 64.1299ZM108.404 64.0243C108.14 64.0243 107.902 63.8396 107.823 63.5757C107.743 63.259 107.955 62.9423 108.272 62.8631C108.536 62.8104 108.8 62.7312 109.038 62.6784C109.355 62.5992 109.672 62.8104 109.751 63.1271C109.83 63.4437 109.619 63.7604 109.302 63.8396C109.038 63.8924 108.8 63.9716 108.536 64.0243C108.483 64.0243 108.43 64.0243 108.404 64.0243ZM153.473 63.8132C153.42 63.8132 153.341 63.8132 153.261 63.7868C153.024 63.7077 152.76 63.6285 152.522 63.5229C152.205 63.4174 152.046 63.0743 152.152 62.7576C152.258 62.4409 152.601 62.2825 152.918 62.3881C153.182 62.4673 153.42 62.5728 153.684 62.652C154.001 62.7576 154.16 63.1007 154.054 63.4174C153.948 63.6549 153.711 63.8132 153.473 63.8132ZM110.966 63.4174C110.702 63.4174 110.438 63.2326 110.385 62.9423C110.306 62.6256 110.517 62.3089 110.834 62.2298C111.098 62.177 111.363 62.1242 111.6 62.045C111.917 61.9659 112.234 62.177 112.314 62.4937C112.393 62.8104 112.182 63.1271 111.865 63.2062C111.6 63.259 111.363 63.3118 111.098 63.3646C111.046 63.4174 111.019 63.4174 110.966 63.4174ZM150.963 63.0215C150.91 63.0215 150.857 63.0215 150.805 62.9951L150.673 62.9687C150.461 62.9159 150.25 62.8368 150.038 62.784C149.721 62.7048 149.537 62.3617 149.616 62.045C149.695 61.7283 150.038 61.5436 150.356 61.6228C150.567 61.6756 150.778 61.7547 151.016 61.8075L151.148 61.8339C151.465 61.9131 151.65 62.2562 151.544 62.5728C151.465 62.8368 151.227 63.0215 150.963 63.0215ZM113.555 62.8631C113.265 62.8631 113.027 62.6784 112.974 62.3881C112.921 62.0714 113.106 61.7547 113.45 61.6756C113.714 61.6228 113.978 61.57 114.242 61.5172C114.559 61.4644 114.876 61.6756 114.955 61.9922C115.008 62.3089 114.797 62.6256 114.48 62.7048C114.216 62.7576 113.952 62.8104 113.714 62.8631C113.635 62.8631 113.582 62.8631 113.555 62.8631ZM116.144 62.3617C115.854 62.3617 115.616 62.1506 115.563 61.8603C115.51 61.5436 115.722 61.2269 116.039 61.1741C116.303 61.1213 116.567 61.0686 116.831 61.0422C117.148 60.9894 117.465 61.2005 117.518 61.5172C117.571 61.8339 117.36 62.1506 117.042 62.2034C116.778 62.2562 116.514 62.3089 116.276 62.3353C116.224 62.3617 116.171 62.3617 116.144 62.3617ZM148.401 62.3353C148.348 62.3353 148.295 62.3353 148.268 62.3089C148.004 62.2562 147.767 62.177 147.502 62.1242C147.185 62.045 146.974 61.7283 147.053 61.4116C147.133 61.095 147.45 60.8838 147.767 60.963C148.031 61.0158 148.295 61.0686 148.559 61.1477C148.876 61.2269 149.087 61.5436 149.008 61.8603C148.929 62.1506 148.665 62.3353 148.401 62.3353ZM118.76 61.9131C118.469 61.9131 118.205 61.7019 118.178 61.4116C118.126 61.095 118.337 60.7783 118.68 60.7255C118.945 60.6727 119.209 60.6463 119.473 60.5935C119.79 60.5407 120.107 60.7783 120.16 61.095C120.213 61.4117 119.975 61.7283 119.658 61.7811C119.394 61.8339 119.13 61.8603 118.892 61.9131C118.812 61.9131 118.786 61.9131 118.76 61.9131ZM19.0848 61.8339C18.8734 61.8339 18.6621 61.7019 18.5564 61.5172C18.4243 61.2797 18.3186 61.0422 18.213 60.7783C18.0809 60.488 18.213 60.1185 18.5036 59.9865C18.7942 59.8546 19.164 59.9865 19.2961 60.2768C19.4018 60.5144 19.5075 60.7519 19.6395 60.963C19.798 61.2533 19.666 61.6228 19.3754 61.7547C19.2697 61.8075 19.1904 61.8339 19.0848 61.8339ZM145.812 61.7811C145.785 61.7811 145.732 61.7811 145.706 61.7811C145.442 61.7283 145.204 61.6756 144.94 61.6492C144.623 61.5964 144.385 61.2797 144.464 60.963C144.517 60.6463 144.834 60.4088 145.151 60.488C145.415 60.5407 145.68 60.5935 145.944 60.6199C146.261 60.6727 146.472 60.9894 146.419 61.3061C146.34 61.5964 146.102 61.7811 145.812 61.7811ZM121.375 61.5436C121.084 61.5436 120.82 61.3325 120.794 61.0158C120.741 60.6991 120.979 60.3824 121.296 60.356C121.56 60.3296 121.824 60.2768 122.088 60.2505C122.405 60.1977 122.722 60.4352 122.749 60.7783C122.802 61.095 122.564 61.4116 122.22 61.438C121.956 61.4644 121.692 61.5172 121.428 61.5436C121.428 61.5436 121.401 61.5436 121.375 61.5436ZM143.223 61.3589C143.196 61.3589 143.17 61.3589 143.143 61.3589C142.879 61.3325 142.615 61.2797 142.377 61.2533C142.06 61.2005 141.823 60.9102 141.875 60.5935C141.928 60.2768 142.219 60.0393 142.536 60.0921C142.8 60.1185 143.064 60.1713 143.328 60.1977C143.645 60.2504 143.883 60.5407 143.83 60.8838C143.751 61.1477 143.513 61.3589 143.223 61.3589ZM123.99 61.2005C123.7 61.2005 123.436 60.963 123.409 60.6727C123.383 60.356 123.621 60.0393 123.938 60.0129C124.202 59.9865 124.466 59.9601 124.73 59.9338C125.047 59.9074 125.364 60.1449 125.391 60.4616C125.417 60.7783 125.179 61.095 124.862 61.1213C124.598 61.1477 124.334 61.1741 124.07 61.2005C124.017 61.2005 124.017 61.2005 123.99 61.2005ZM140.607 61.0158C140.581 61.0158 140.554 61.0158 140.554 61.0158C140.29 60.9894 140.026 60.963 139.762 60.9366C139.445 60.9102 139.181 60.6199 139.234 60.2768C139.26 59.9602 139.551 59.6962 139.894 59.749C140.158 59.7754 140.422 59.8018 140.687 59.8282C141.004 59.8546 141.241 60.1449 141.215 60.488C141.162 60.8047 140.898 61.0158 140.607 61.0158ZM126.606 60.963C126.289 60.963 126.025 60.7255 125.998 60.4088C125.972 60.0921 126.21 59.8018 126.553 59.7754C126.817 59.749 127.081 59.7226 127.345 59.7226C127.663 59.6962 127.953 59.9338 127.98 60.2768C128.006 60.5935 127.768 60.8838 127.425 60.9102C127.161 60.9366 126.896 60.9366 126.632 60.963C126.659 60.963 126.632 60.963 126.606 60.963ZM137.965 60.8047H137.939C137.675 60.7783 137.411 60.7783 137.147 60.7519C136.83 60.7255 136.565 60.4616 136.592 60.1185C136.618 59.8018 136.882 59.5379 137.226 59.5643C137.49 59.5907 137.754 59.5907 138.018 59.6171C138.335 59.6435 138.6 59.9338 138.573 60.2505C138.547 60.5671 138.283 60.8047 137.965 60.8047ZM129.248 60.7783C128.931 60.7783 128.666 60.5407 128.64 60.2241C128.614 59.9074 128.878 59.6171 129.195 59.5907C129.459 59.5643 129.723 59.5643 129.987 59.5643C130.331 59.5643 130.595 59.8018 130.621 60.1449C130.648 60.4616 130.384 60.7519 130.04 60.7783C129.776 60.7783 129.512 60.8047 129.248 60.8047C129.274 60.7783 129.248 60.7783 129.248 60.7783ZM135.324 60.6991C135.06 60.6991 134.795 60.6991 134.531 60.6727C134.214 60.6727 133.95 60.4088 133.95 60.0657C133.95 59.749 134.214 59.4587 134.558 59.4851C134.822 59.4851 135.086 59.4851 135.35 59.5115C135.667 59.5115 135.931 59.8018 135.931 60.1185C135.905 60.4352 135.641 60.6991 135.324 60.6991ZM131.889 60.6991C131.572 60.6991 131.308 60.4352 131.282 60.1185C131.282 59.8018 131.546 59.5115 131.863 59.5115C132.127 59.5115 132.391 59.5115 132.655 59.5115C132.973 59.5115 133.263 59.7754 133.263 60.0921C133.263 60.4088 132.999 60.6991 132.682 60.6991C132.418 60.6727 132.154 60.6727 131.889 60.6991ZM18.0016 59.4323C17.7639 59.4323 17.5261 59.3004 17.4468 59.0629C17.3412 58.8253 17.2619 58.5614 17.1562 58.2975C17.0506 57.9808 17.2091 57.6378 17.4997 57.5322C17.8167 57.4266 18.1601 57.585 18.2658 57.8753C18.3451 58.1128 18.4507 58.3503 18.53 58.5878C18.6621 58.9045 18.5036 59.2476 18.1866 59.3532C18.1601 59.4059 18.0809 59.4323 18.0016 59.4323ZM17.1562 56.9252C16.8921 56.9252 16.6543 56.7668 16.5751 56.5029C16.4958 56.239 16.4165 55.9751 16.3637 55.7376C16.2845 55.4209 16.4694 55.1042 16.7864 54.9987C17.1034 54.9195 17.4204 55.1042 17.5261 55.4209C17.6054 55.6584 17.6582 55.9223 17.7374 56.1599C17.8431 56.4766 17.6582 56.8196 17.3412 56.8988C17.2619 56.9252 17.2091 56.9252 17.1562 56.9252ZM16.4958 54.3653C16.2316 54.3653 15.9674 54.1805 15.9146 53.8902C15.8618 53.6263 15.8089 53.3624 15.7561 53.0985C15.7033 52.7818 15.9146 52.4651 16.2316 52.4124C16.5486 52.3596 16.8657 52.5707 16.9185 52.8874C16.9713 53.1513 17.0242 53.3888 17.077 53.6527C17.1563 53.9694 16.9449 54.2861 16.6279 54.3653C16.5751 54.3653 16.5222 54.3653 16.4958 54.3653ZM16.0203 51.779C15.7297 51.779 15.4655 51.5679 15.4391 51.2512C15.4127 50.9873 15.3598 50.7233 15.3334 50.4594C15.307 50.1427 15.5448 49.8261 15.8618 49.7997C16.1788 49.7733 16.4958 50.0108 16.5222 50.3275C16.5486 50.5914 16.5751 50.8553 16.6279 51.0928C16.6807 51.4095 16.443 51.7262 16.1259 51.7526C16.0731 51.779 16.0467 51.779 16.0203 51.779ZM15.7825 49.1663C15.4655 49.1663 15.2013 48.9288 15.1749 48.6121C15.1485 48.3482 15.1485 48.0843 15.1485 47.8203C15.1485 47.5037 15.3862 47.2134 15.7297 47.2134C16.0731 47.2134 16.3373 47.4509 16.3373 47.794C16.3373 48.0579 16.3637 48.3218 16.3637 48.5593C16.3901 48.876 16.126 49.1663 15.8089 49.1927C15.8089 49.1399 15.7825 49.1663 15.7825 49.1663ZM15.7297 46.5272C15.3862 46.5272 15.1221 46.2369 15.1221 45.9202C15.1221 45.6563 15.1485 45.3924 15.1485 45.1285C15.1749 44.8118 15.4391 44.5479 15.7825 44.5479C16.0995 44.5743 16.3637 44.8382 16.3637 45.1813C16.3637 45.4452 16.3373 45.7091 16.3373 45.9466C16.3373 46.2633 16.0731 46.5272 15.7297 46.5272ZM15.8882 43.8881C15.8618 43.8881 15.8618 43.8881 15.8353 43.8881C15.5183 43.8617 15.2542 43.5714 15.307 43.2283C15.3334 42.9644 15.3598 42.7005 15.3862 42.4366C15.4127 42.1199 15.7297 41.8824 16.0467 41.9088C16.3637 41.9352 16.6015 42.2519 16.5751 42.5686C16.5486 42.8325 16.5222 43.0964 16.4958 43.3339C16.4694 43.6506 16.2052 43.8881 15.8882 43.8881ZM16.258 41.2754C16.2316 41.2754 16.1788 41.2754 16.1524 41.2754C15.8354 41.2226 15.5976 40.9059 15.6768 40.5893C15.7297 40.3253 15.7825 40.0614 15.8353 39.7975C15.8882 39.4808 16.2052 39.2697 16.5486 39.3225C16.8657 39.3753 17.077 39.692 17.0242 40.035C16.9713 40.299 16.9185 40.5365 16.8921 40.8004C16.7864 41.0643 16.5222 41.2754 16.258 41.2754ZM16.8128 38.6891C16.76 38.6891 16.7071 38.6891 16.6543 38.6627C16.3373 38.5835 16.1524 38.2669 16.2316 37.9238C16.3109 37.6599 16.3637 37.396 16.443 37.1584C16.5222 36.8417 16.8657 36.657 17.1827 36.7362C17.4997 36.8154 17.6846 37.1584 17.6054 37.4751C17.5261 37.7127 17.4733 37.9766 17.394 38.2141C17.3148 38.5044 17.077 38.6891 16.8128 38.6891ZM17.5789 36.1556C17.5261 36.1556 17.4469 36.1556 17.394 36.1292C17.077 36.0236 16.9185 35.6805 17.0242 35.3639C17.1034 35.1 17.2091 34.8624 17.2883 34.5985C17.394 34.2818 17.7374 34.1235 18.0545 34.2554C18.3715 34.361 18.53 34.7041 18.3979 35.0208C18.3186 35.2583 18.213 35.4958 18.1337 35.7597C18.0545 35.9972 17.8167 36.1556 17.5789 36.1556ZM18.53 33.7012C18.4507 33.7012 18.3715 33.6748 18.2922 33.6485C18.0016 33.5165 17.8431 33.1734 18.0016 32.8567C18.1073 32.6192 18.213 32.3553 18.3451 32.1178C18.4771 31.8275 18.847 31.6955 19.1376 31.8275C19.4282 31.9594 19.5603 32.3289 19.4282 32.6192C19.3225 32.8567 19.2169 33.0942 19.1112 33.3318C18.9791 33.5693 18.7677 33.7012 18.53 33.7012ZM19.7188 31.3524C19.6131 31.3524 19.5339 31.3261 19.4282 31.2733C19.1376 31.1149 19.0319 30.7455 19.1904 30.4552C19.3225 30.2176 19.4546 29.9801 19.5867 29.7426C19.7452 29.4523 20.1151 29.3731 20.4057 29.5315C20.6963 29.6898 20.7755 30.0593 20.617 30.3496C20.4849 30.5607 20.3528 30.7982 20.2207 31.0358C20.1415 31.2469 19.9301 31.3524 19.7188 31.3524ZM21.0925 29.0828C20.9869 29.0828 20.8548 29.0564 20.7491 28.9773C20.4849 28.7925 20.4057 28.4231 20.5906 28.1592C20.7491 27.948 20.8812 27.7105 21.0397 27.4994C21.2246 27.2355 21.5945 27.1563 21.8586 27.341C22.1228 27.5258 22.2021 27.8952 22.0172 28.1592C21.8586 28.3703 21.7266 28.5814 21.568 28.7925C21.4624 29.0037 21.2775 29.0828 21.0925 29.0828ZM22.6512 26.9452C22.5191 26.9452 22.387 26.8924 22.2813 26.8132C22.0172 26.6021 21.9643 26.2326 22.1757 25.9687C22.3342 25.7576 22.5191 25.5465 22.6776 25.3353C22.8889 25.0714 23.2588 25.045 23.523 25.2562C23.7872 25.4673 23.8136 25.8368 23.6022 26.1007C23.4437 26.3118 23.2852 26.4965 23.1267 26.7077C22.9946 26.866 22.8097 26.9452 22.6512 26.9452ZM24.3419 24.9395C24.2098 24.9395 24.0513 24.8867 23.9457 24.7811C23.7079 24.57 23.6815 24.1741 23.9192 23.9366C24.1042 23.7255 24.2891 23.5408 24.474 23.356C24.7118 23.1185 25.0816 23.1185 25.3194 23.3296C25.5572 23.5671 25.5572 23.9366 25.3458 24.1741C25.1609 24.3589 25.0024 24.5436 24.8174 24.7547C24.6589 24.8603 24.5004 24.9395 24.3419 24.9395ZM26.1912 23.0657C26.0327 23.0657 25.8742 23.0129 25.7685 22.881C25.5307 22.6435 25.5572 22.274 25.7949 22.0365C25.9798 21.8517 26.1912 21.667 26.3761 21.4823C26.6139 21.2711 27.0101 21.2711 27.2215 21.535C27.4328 21.7726 27.4328 22.1684 27.1687 22.3796C26.9837 22.5643 26.7988 22.7226 26.5875 22.9074C26.4818 23.0129 26.3497 23.0657 26.1912 23.0657ZM28.1725 21.2975C27.9876 21.2975 27.8291 21.2184 27.7234 21.0864C27.5121 20.8225 27.5385 20.453 27.8027 20.2419C28.014 20.0835 28.2254 19.8988 28.4367 19.7405C28.7009 19.5293 29.0707 19.5821 29.2821 19.846C29.4934 20.1099 29.4406 20.4794 29.1764 20.6905C28.9651 20.8489 28.7801 21.0072 28.5688 21.192C28.4367 21.2711 28.3046 21.2975 28.1725 21.2975ZM30.286 19.7141C30.101 19.7141 29.9161 19.6349 29.8104 19.4766C29.6255 19.2126 29.6784 18.8432 29.9425 18.6321C30.1539 18.4737 30.3916 18.3154 30.603 18.1834C30.8672 17.9987 31.237 18.0778 31.4219 18.3417C31.6069 18.6057 31.5276 18.9751 31.2634 19.1599C31.0521 19.3182 30.8407 19.4502 30.6294 19.6085C30.5237 19.6613 30.3916 19.7141 30.286 19.7141ZM32.4787 18.2362C32.2673 18.2362 32.0824 18.1306 31.9767 17.9459C31.7918 17.6556 31.8975 17.2861 32.1616 17.1278C32.3994 16.9958 32.6107 16.8375 32.8485 16.7055C33.1391 16.5472 33.509 16.6263 33.6675 16.9166C33.826 17.2069 33.7467 17.5764 33.4561 17.7348C33.2448 17.8667 33.007 17.9987 32.7957 18.1306C32.69 18.2098 32.5843 18.2362 32.4787 18.2362ZM34.7506 16.9166C34.5393 16.9166 34.3279 16.8111 34.2222 16.6C34.0637 16.3097 34.1694 15.9402 34.46 15.7818C34.6978 15.6499 34.9355 15.5443 35.1733 15.4124C35.4639 15.254 35.8337 15.386 35.9658 15.6763C36.1243 15.9666 35.9922 16.336 35.7016 16.468C35.4639 16.5736 35.2261 16.7055 35.0148 16.8375C34.9619 16.9166 34.8563 16.9166 34.7506 16.9166ZM37.1282 15.7554C36.8904 15.7554 36.6791 15.6235 36.5734 15.4124C36.4413 15.1221 36.5734 14.7526 36.864 14.6206C37.1018 14.5151 37.3396 14.4095 37.6037 14.3039C37.8943 14.172 38.2642 14.3039 38.3963 14.6206C38.5284 14.9109 38.3963 15.2804 38.0793 15.4124C37.8415 15.5179 37.6037 15.6235 37.366 15.7291C37.2867 15.7291 37.2075 15.7554 37.1282 15.7554ZM39.5587 14.7262C39.3209 14.7262 39.0831 14.5942 39.0039 14.3567C38.8718 14.04 39.0303 13.697 39.3473 13.5914C39.5851 13.4858 39.8493 13.4067 40.087 13.3011C40.404 13.1955 40.7475 13.3539 40.8531 13.6442C40.9588 13.9609 40.8003 14.3039 40.5097 14.4095C40.272 14.4887 40.0342 14.5942 39.77 14.6734C39.6908 14.7262 39.6379 14.7262 39.5587 14.7262ZM42.042 13.8553C41.7778 13.8553 41.5664 13.697 41.4608 13.4331C41.3551 13.1164 41.54 12.7733 41.857 12.6941C42.1212 12.6149 42.359 12.5358 42.6231 12.4566C42.9402 12.351 43.2836 12.5358 43.3628 12.8524C43.4685 13.1691 43.2836 13.5122 42.9666 13.5914C42.7288 13.6706 42.4646 13.7497 42.2269 13.8289C42.174 13.8553 42.0948 13.8553 42.042 13.8553ZM44.5781 13.1164C44.3139 13.1164 44.0761 12.9316 43.9969 12.6677C43.9176 12.351 44.1026 12.0343 44.4196 11.9288C44.6837 11.8496 44.9479 11.7968 45.2121 11.744C45.5291 11.6649 45.8461 11.876 45.9254 12.1927C46.0046 12.5094 45.7933 12.8261 45.4763 12.9052C45.2121 12.958 44.9743 13.0372 44.7102 13.09C44.6837 13.1164 44.6309 13.1164 44.5781 13.1164ZM47.167 12.5358C46.8764 12.5358 46.6387 12.351 46.5858 12.0607C46.533 11.744 46.7443 11.4273 47.0614 11.3482C47.3255 11.2954 47.5897 11.2426 47.8539 11.1898C48.1709 11.137 48.4879 11.3482 48.5408 11.6649C48.5936 11.9815 48.3823 12.2982 48.0652 12.351C47.8011 12.4038 47.5633 12.4566 47.2991 12.483C47.2463 12.5358 47.1934 12.5358 47.167 12.5358ZM49.756 12.1135C49.4654 12.1135 49.2012 11.9024 49.1748 11.5857C49.122 11.269 49.3597 10.9523 49.6767 10.9259C49.9409 10.8995 50.2051 10.8467 50.4693 10.8204C50.7863 10.7676 51.1033 11.0051 51.1297 11.3482C51.1561 11.6649 50.9448 11.9815 50.6014 12.0079C50.3372 12.0343 50.073 12.0607 49.8352 12.1135C49.8088 12.0871 49.7824 12.1135 49.756 12.1135ZM52.3978 11.8232C52.0808 11.8232 51.8166 11.5857 51.7902 11.269C51.7638 10.9523 52.0015 10.662 52.3449 10.6356C52.6091 10.6092 52.8733 10.5828 53.1375 10.5828C53.4809 10.5564 53.7451 10.8204 53.7715 11.137C53.7979 11.4537 53.5338 11.744 53.2167 11.7704C52.9526 11.7968 52.6884 11.7968 52.4242 11.8232H52.3978ZM58.4739 11.744H58.4475C58.1833 11.7176 57.9191 11.7176 57.655 11.7176C57.3379 11.7176 57.0738 11.4273 57.0738 11.1107C57.0738 10.794 57.3644 10.5301 57.6814 10.5301C57.9456 10.5301 58.2097 10.5564 58.4739 10.5564C58.7909 10.5828 59.0551 10.8467 59.0287 11.1898C59.0287 11.5065 58.7645 11.744 58.4739 11.744ZM55.0396 11.6913C54.7226 11.6913 54.4584 11.4273 54.432 11.1107C54.432 10.794 54.6961 10.5037 55.0132 10.5037C55.2773 10.5037 55.5415 10.5037 55.8057 10.5037C56.1227 10.5037 56.4133 10.7676 56.4133 11.1107C56.4133 11.4273 56.1491 11.7176 55.8057 11.7176C55.5679 11.6649 55.3038 11.6913 55.0396 11.6913Z" fill="white"/>
<path d="M64.682 8.36597L64.4971 13.1163L67.7993 11.1634L64.682 8.36597Z" fill="url(#paint30_linear_147_1800)"/>
<path d="M86.1599 6.36026L72.9245 17.1805C72.6604 17.3916 72.3434 17.4708 72.0263 17.4444C71.7093 17.418 71.4187 17.2333 71.2074 16.9694L60.8251 3.29892C60.7195 3.14057 60.693 2.92944 60.7987 2.7711C60.9044 2.61275 61.0893 2.50719 61.2742 2.53358L86.1599 6.36026Z" fill="url(#paint31_linear_147_1800)"/>
<path d="M64.6821 8.36581L86.1599 6.36011L66.3465 10.5826L66.2408 11.8758L64.6821 8.36581Z" fill="url(#paint32_linear_147_1800)"/>
<path d="M67.3502 11.8759L64.4971 13.1163L66.3463 10.5828L67.3502 11.8759Z" fill="url(#paint33_linear_147_1800)"/>
<defs>
<linearGradient id="paint0_linear_147_1800" x1="6.50767" y1="87.415" x2="201.808" y2="87.415" gradientUnits="userSpaceOnUse">
<stop stop-color="#2B3582"/>
<stop offset="1" stop-color="#150E42"/>
</linearGradient>
<linearGradient id="paint1_linear_147_1800" x1="11.9427" y1="83.6617" x2="195.188" y2="83.6617" gradientUnits="userSpaceOnUse">
<stop stop-color="#53D8FF"/>
<stop offset="1" stop-color="#0071DC"/>
</linearGradient>
<linearGradient id="paint2_linear_147_1800" x1="103.782" y1="122.605" x2="105.048" y2="166.117" gradientUnits="userSpaceOnUse">
<stop stop-color="#2B3582"/>
<stop offset="1" stop-color="#150E42"/>
</linearGradient>
<linearGradient id="paint3_linear_147_1800" x1="78.3686" y1="21.2026" x2="96.871" y2="48.6201" gradientUnits="userSpaceOnUse">
<stop stop-color="#53D8FF"/>
<stop offset="1" stop-color="#3840F7"/>
</linearGradient>
<linearGradient id="paint4_linear_147_1800" x1="125.043" y1="37.3759" x2="121.247" y2="99.5031" gradientUnits="userSpaceOnUse">
<stop stop-color="#53D8FF"/>
<stop offset="1" stop-color="#3840F7"/>
</linearGradient>
<linearGradient id="paint5_linear_147_1800" x1="114.09" y1="42.3137" x2="111.164" y2="90.2055" gradientUnits="userSpaceOnUse">
<stop stop-color="#53D8FF"/>
<stop offset="1" stop-color="#3840F7"/>
</linearGradient>
<linearGradient id="paint6_linear_147_1800" x1="139.986" y1="42.2076" x2="137.319" y2="85.8535" gradientUnits="userSpaceOnUse">
<stop stop-color="#53D8FF"/>
<stop offset="1" stop-color="#3840F7"/>
</linearGradient>
<linearGradient id="paint7_linear_147_1800" x1="100.996" y1="31.5055" x2="104.003" y2="24.0611" gradientUnits="userSpaceOnUse">
<stop stop-color="#FFE8AB"/>
<stop offset="1" stop-color="#FFC221"/>
</linearGradient>
<linearGradient id="paint8_linear_147_1800" x1="112.092" y1="31.5055" x2="115.098" y2="24.0611" gradientUnits="userSpaceOnUse">
<stop stop-color="#FDF53F"/>
<stop offset="1" stop-color="#FFC221"/>
</linearGradient>
<linearGradient id="paint9_linear_147_1800" x1="123.186" y1="31.5055" x2="126.193" y2="24.0611" gradientUnits="userSpaceOnUse">
<stop stop-color="#FFDC81"/>
<stop offset="1" stop-color="#FFC221"/>
</linearGradient>
<linearGradient id="paint10_linear_147_1800" x1="134.281" y1="31.5055" x2="137.288" y2="24.0611" gradientUnits="userSpaceOnUse">
<stop stop-color="#53D8FF"/>
<stop offset="1" stop-color="#3840F7"/>
</linearGradient>
<linearGradient id="paint11_linear_147_1800" x1="145.377" y1="31.5055" x2="148.383" y2="24.0611" gradientUnits="userSpaceOnUse">
<stop stop-color="#53D8FF"/>
<stop offset="1" stop-color="#3840F7"/>
</linearGradient>
<linearGradient id="paint12_linear_147_1800" x1="78.369" y1="57.902" x2="96.8715" y2="85.3196" gradientUnits="userSpaceOnUse">
<stop stop-color="#53D8FF"/>
<stop offset="1" stop-color="#3840F7"/>
</linearGradient>
<linearGradient id="paint13_linear_147_1800" x1="125.348" y1="74.0753" x2="129.144" y2="136.203" gradientUnits="userSpaceOnUse">
<stop stop-color="#53D8FF"/>
<stop offset="1" stop-color="#3840F7"/>
</linearGradient>
<linearGradient id="paint14_linear_147_1800" x1="136.691" y1="79.2607" x2="139.617" y2="127.152" gradientUnits="userSpaceOnUse">
<stop stop-color="#53D8FF"/>
<stop offset="1" stop-color="#3840F7"/>
</linearGradient>
<linearGradient id="paint15_linear_147_1800" x1="110.795" y1="79.1546" x2="113.462" y2="122.801" gradientUnits="userSpaceOnUse">
<stop stop-color="#53D8FF"/>
<stop offset="1" stop-color="#3840F7"/>
</linearGradient>
<linearGradient id="paint16_linear_147_1800" x1="100.996" y1="68.2047" x2="104.003" y2="60.7603" gradientUnits="userSpaceOnUse">
<stop stop-color="#FFC221"/>
<stop offset="1" stop-color="#F0C655"/>
</linearGradient>
<linearGradient id="paint17_linear_147_1800" x1="112.091" y1="68.2047" x2="115.098" y2="60.7603" gradientUnits="userSpaceOnUse">
<stop stop-color="#FFFB9C"/>
<stop offset="1" stop-color="#FFC221"/>
</linearGradient>
<linearGradient id="paint18_linear_147_1800" x1="123.186" y1="68.2047" x2="126.193" y2="60.7603" gradientUnits="userSpaceOnUse">
<stop stop-color="#FDF53F"/>
<stop offset="1" stop-color="#FFB900"/>
</linearGradient>
<linearGradient id="paint19_linear_147_1800" x1="134.281" y1="68.2047" x2="137.288" y2="60.7603" gradientUnits="userSpaceOnUse">
<stop stop-color="#FDF53F"/>
<stop offset="1" stop-color="#FFC221"/>
</linearGradient>
<linearGradient id="paint20_linear_147_1800" x1="145.377" y1="68.2047" x2="148.383" y2="60.7603" gradientUnits="userSpaceOnUse">
<stop stop-color="#FDF53F"/>
<stop offset="1" stop-color="#FFC221"/>
</linearGradient>
<linearGradient id="paint21_linear_147_1800" x1="78.3686" y1="94.502" x2="96.871" y2="121.92" gradientUnits="userSpaceOnUse">
<stop stop-color="#53D8FF"/>
<stop offset="1" stop-color="#3840F7"/>
</linearGradient>
<linearGradient id="paint22_linear_147_1800" x1="125.043" y1="110.675" x2="121.247" y2="172.802" gradientUnits="userSpaceOnUse">
<stop stop-color="#53D8FF"/>
<stop offset="1" stop-color="#3840F7"/>
</linearGradient>
<linearGradient id="paint23_linear_147_1800" x1="114.09" y1="115.68" x2="111.164" y2="163.572" gradientUnits="userSpaceOnUse">
<stop stop-color="#53D8FF"/>
<stop offset="1" stop-color="#3840F7"/>
</linearGradient>
<linearGradient id="paint24_linear_147_1800" x1="139.986" y1="115.574" x2="137.319" y2="159.22" gradientUnits="userSpaceOnUse">
<stop stop-color="#53D8FF"/>
<stop offset="1" stop-color="#3840F7"/>
</linearGradient>
<linearGradient id="paint25_linear_147_1800" x1="100.996" y1="104.805" x2="104.003" y2="97.3603" gradientUnits="userSpaceOnUse">
<stop stop-color="#FFC221"/>
<stop offset="1" stop-color="#FFB900"/>
</linearGradient>
<linearGradient id="paint26_linear_147_1800" x1="112.092" y1="104.805" x2="115.098" y2="97.3603" gradientUnits="userSpaceOnUse">
<stop stop-color="#53D8FF"/>
<stop offset="1" stop-color="#3840F7"/>
</linearGradient>
<linearGradient id="paint27_linear_147_1800" x1="123.186" y1="104.805" x2="126.193" y2="97.3603" gradientUnits="userSpaceOnUse">
<stop stop-color="#53D8FF"/>
<stop offset="1" stop-color="#3840F7"/>
</linearGradient>
<linearGradient id="paint28_linear_147_1800" x1="134.281" y1="104.805" x2="137.288" y2="97.3603" gradientUnits="userSpaceOnUse">
<stop stop-color="#53D8FF"/>
<stop offset="1" stop-color="#3840F7"/>
</linearGradient>
<linearGradient id="paint29_linear_147_1800" x1="145.377" y1="104.805" x2="148.383" y2="97.3603" gradientUnits="userSpaceOnUse">
<stop stop-color="#53D8FF"/>
<stop offset="1" stop-color="#3840F7"/>
</linearGradient>
<linearGradient id="paint30_linear_147_1800" x1="50.3801" y1="16.0452" x2="69.3513" y2="5.29507" gradientUnits="userSpaceOnUse">
<stop stop-color="#4792D9"/>
<stop offset="1" stop-color="#489DED"/>
</linearGradient>
<linearGradient id="paint31_linear_147_1800" x1="61.8544" y1="13.9473" x2="84.1962" y2="-6.4591" gradientUnits="userSpaceOnUse">
<stop stop-color="#3887D3"/>
<stop offset="0.973958" stop-color="#4A9EED"/>
</linearGradient>
<linearGradient id="paint32_linear_147_1800" x1="51.8886" y1="16.1473" x2="69.6103" y2="6.10506" gradientUnits="userSpaceOnUse">
<stop stop-color="#3886CF"/>
<stop offset="1" stop-color="#4FA6F8"/>
</linearGradient>
<linearGradient id="paint33_linear_147_1800" x1="61.3835" y1="12.188" x2="70.7073" y2="11.3865" gradientUnits="userSpaceOnUse">
<stop stop-color="#3D8AD3"/>
<stop offset="1" stop-color="#4F9FEA"/>
</linearGradient>
</defs>
</svg>
