<svg width="183" height="146" viewBox="0 0 183 146" fill="none" xmlns="http://www.w3.org/2000/svg">
<path opacity="0.57" d="M66.0756 63.8002C77.8209 52.0549 77.8209 33.012 66.0756 21.2667C54.3303 9.5214 35.2874 9.5214 23.5421 21.2667C11.7968 33.012 11.7968 52.0549 23.5421 63.8002C35.2874 75.5455 54.3303 75.5455 66.0756 63.8002Z" fill="white"/>
<path d="M44.8136 68.1865C58.9848 68.1865 70.4728 56.6984 70.4728 42.5272C70.4728 28.356 58.9848 16.868 44.8136 16.868C30.6423 16.868 19.1543 28.356 19.1543 42.5272C19.1543 56.6984 30.6423 68.1865 44.8136 68.1865Z" fill="url(#paint0_linear_147_1547)"/>
<path d="M44.8137 69.4717C29.951 69.4717 17.8691 57.3899 17.8691 42.5272C17.8691 27.6645 29.951 15.5826 44.8137 15.5826C59.6764 15.5826 71.7582 27.6645 71.7582 42.5272C71.7582 57.3899 59.6764 69.4717 44.8137 69.4717ZM44.8137 18.1532C31.3765 18.1532 20.4397 29.09 20.4397 42.5272C20.4397 55.9644 31.3765 66.9011 44.8137 66.9011C58.2509 66.9011 69.1876 55.9644 69.1876 42.5272C69.1876 29.09 58.2509 18.1532 44.8137 18.1532Z" fill="white"/>
<path d="M44.8136 58.1616C53.448 58.1616 60.4475 51.162 60.4475 42.5277C60.4475 33.8933 53.448 26.8937 44.8136 26.8937C36.1792 26.8937 29.1797 33.8933 29.1797 42.5277C29.1797 51.162 36.1792 58.1616 44.8136 58.1616Z" fill="url(#paint1_linear_147_1547)"/>
<path d="M44.8133 59.4705C35.489 59.4705 27.894 51.8755 27.894 42.5512C27.894 33.227 35.489 25.632 44.8133 25.632C54.1375 25.632 61.7325 33.227 61.7325 42.5512C61.7558 51.8755 54.1609 59.4705 44.8133 59.4705ZM44.8133 28.1793C36.8911 28.1793 30.4646 34.6291 30.4646 42.5279C30.4646 50.45 36.9145 56.8765 44.8133 56.8765C52.712 56.8765 59.1619 50.4266 59.1619 42.5279C59.1852 34.6057 52.7354 28.1793 44.8133 28.1793Z" fill="white"/>
<path d="M44.8138 48.5797C48.1566 48.5797 50.8664 45.8698 50.8664 42.5271C50.8664 39.1843 48.1566 36.4745 44.8138 36.4745C41.4711 36.4745 38.7612 39.1843 38.7612 42.5271C38.7612 45.8698 41.4711 48.5797 44.8138 48.5797Z" fill="url(#paint2_linear_147_1547)"/>
<path d="M44.8135 49.8889C40.7706 49.8889 37.4756 46.5939 37.4756 42.551C37.4756 38.5082 40.7706 35.2131 44.8135 35.2131C48.8563 35.2131 52.1514 38.5082 52.1514 42.551C52.1747 46.5939 48.8797 49.8889 44.8135 49.8889ZM44.8135 37.7604C42.1728 37.7604 40.0462 39.9103 40.0462 42.5277C40.0462 45.1684 42.1961 47.2949 44.8135 47.2949C47.4542 47.2949 49.5808 45.145 49.5808 42.5277C49.6041 39.9103 47.4542 37.7604 44.8135 37.7604Z" fill="white"/>
<path d="M81.2691 5.97858L82.087 6.79649L51.4034 37.4801L50.5854 36.6856L81.2691 5.97858Z" fill="url(#paint3_linear_147_1547)"/>
<path d="M51.1465 34.7225C51.6139 34.2551 53.8106 36.4518 53.3432 36.9192L45.2108 43.2989C44.907 43.5326 44.5097 43.1354 44.7667 42.8549L51.1465 34.7225Z" fill="url(#paint4_linear_147_1547)"/>
<path d="M82.0637 6.81989L86.2 7.24053L80.5213 12.8958C78.6752 14.742 76.0812 15.6768 73.4639 15.4197L82.0637 6.81989Z" fill="url(#paint5_linear_147_1547)"/>
<path d="M81.2457 6.00193L80.8251 1.8656L75.1464 7.54429C73.3002 9.39045 72.3654 11.9844 72.6225 14.6018L81.2457 6.00193Z" fill="url(#paint6_linear_147_1547)"/>
<path d="M120.833 128.923L152.381 68.491H145.908C144.716 68.491 144.062 67.1122 144.81 66.1775L178.438 25.1881C179.887 23.412 182.784 24.5337 182.644 26.8239L180.284 66.9019C180.144 69.1921 178.111 70.898 175.82 70.6409L171.31 70.1268L140.019 137.897C139.201 139.673 137.448 140.795 135.485 140.795H124.642L120.833 128.923Z" fill="url(#paint7_linear_147_1547)"/>
<path d="M94.7534 86.5319L117.024 136.004C118.333 138.925 121.254 140.818 124.479 140.818H135.953C137.472 140.818 138.874 140 139.622 138.668L140.019 137.944C138.781 137.944 137.659 137.243 137.098 136.144L107.419 78.0022L94.7534 86.5319Z" fill="url(#paint8_linear_147_1547)"/>
<path d="M110.411 83.8678C108.167 82.1151 104.919 82.6293 103.33 84.9895L70.613 134.181C67.9956 138.131 63.5789 140.491 58.835 140.491H54.2312L50.4922 129.695C50.4922 129.695 80.9421 83.0265 88.7707 75.9691C88.7707 75.9691 96.576 68.935 104.288 74.2398C106.321 75.6419 107.863 77.6516 108.821 79.9418L110.411 83.8678Z" fill="url(#paint9_linear_147_1547)"/>
<path d="M14.854 100.647C14.854 100.647 20.3457 93.7995 30.9553 92.7245C30.9553 92.7245 36.003 94.4538 46.0517 112.448C56.1004 130.466 62.7606 138.668 70.5893 134.181L69.9349 135.256C67.8084 138.808 63.9524 140.982 59.8161 140.982H55.5162C50.7489 140.982 46.2854 138.691 43.4811 134.812C35.6759 123.946 19.668 102.329 14.854 100.647Z" fill="url(#paint10_linear_147_1547)"/>
<path d="M178.836 39.5362C178.812 39.5362 178.812 39.5362 178.789 39.5362C178.602 39.5128 178.462 39.3492 178.485 39.1389L178.695 37.1759C178.719 36.989 178.882 36.8487 179.093 36.8721C179.28 36.8955 179.42 37.0591 179.396 37.2694L179.186 39.2324C179.163 39.4193 179.022 39.5362 178.836 39.5362Z" fill="white"/>
<path d="M150.768 64.2374C150.698 64.2374 150.628 64.2141 150.558 64.1673C150.395 64.0505 150.371 63.8402 150.488 63.6766L178.251 27.5947C178.578 27.1507 179.139 27.0105 179.653 27.2208C180.167 27.4311 180.447 27.9219 180.4 28.4594L179.91 32.7827C179.886 32.9696 179.723 33.1098 179.512 33.0865C179.326 33.0631 179.185 32.8995 179.209 32.6892L179.699 28.3659C179.723 28.0855 179.559 27.9219 179.396 27.8518C179.232 27.7817 178.975 27.7817 178.811 28.0154L151.049 64.0972C150.979 64.1907 150.885 64.2374 150.768 64.2374Z" fill="white"/>
<path d="M87.7892 102.072C87.7191 102.072 87.649 102.049 87.6022 102.002C87.4386 101.885 87.3919 101.675 87.5088 101.511L101.857 80.2221C102.371 79.4509 103.26 79.0302 104.171 79.1003C105.106 79.1704 105.9 79.7079 106.297 80.5726C106.391 80.7362 106.297 80.9465 106.134 81.04C105.97 81.1334 105.76 81.04 105.667 80.8764C105.386 80.2688 104.802 79.8715 104.124 79.8014C103.446 79.7547 102.815 80.0585 102.442 80.6193L88.093 101.909C88.0229 102.002 87.906 102.072 87.7892 102.072Z" fill="white"/>
<path d="M84.0734 107.587C84.0033 107.587 83.9332 107.564 83.8864 107.517C83.7228 107.4 83.6761 107.19 83.7929 107.026L84.7043 105.671C84.8212 105.507 85.0315 105.461 85.1951 105.577C85.3587 105.694 85.4054 105.905 85.2886 106.068L84.3772 107.424C84.2837 107.54 84.1668 107.587 84.0734 107.587Z" fill="white"/>
<path opacity="0.5" d="M28.4315 9.5073C28.0576 6.30573 31.7031 1.7955 38.2932 5.79161C38.4802 4.27262 46.7295 -0.424565 50.562 9.48393C51.2163 7.07691 57.2222 8.2921 58.2972 12.3583C60.5406 11.3535 65.9856 16.4012 58.7879 17.2658C49.6272 18.3875 28.6184 18.0604 24.856 12.5453C21.0936 7.03017 28.4315 9.5073 28.4315 9.5073Z" fill="url(#paint11_linear_147_1547)"/>
<path opacity="0.5" d="M67.7853 20.9585C67.575 19.1824 69.5847 16.7053 73.2303 18.902C73.3238 18.0607 77.9041 15.4667 80.0073 20.9351C80.3579 19.6031 83.6763 20.2808 84.2839 22.5242C85.5224 21.9633 88.5371 24.7443 84.5643 25.235C79.4932 25.8426 67.9022 25.679 65.8223 22.641C63.7425 19.5797 67.7853 20.9585 67.7853 20.9585Z" fill="url(#paint12_linear_147_1547)"/>
<path d="M106.672 16.0038C106.859 15.7935 107.139 15.7 107.396 15.7234L136.14 18.3641V14.2979C136.14 14.0875 136.233 13.9006 136.397 13.7837C136.561 13.6669 136.771 13.6435 136.981 13.7136L156.05 21.0282C156.284 21.1216 156.448 21.3553 156.448 21.6124C156.448 21.8694 156.284 22.1031 156.05 22.1966L136.958 29.5111C136.771 29.5812 136.561 29.5579 136.397 29.441C136.233 29.3242 136.14 29.1372 136.14 28.9269V26.3563L110.691 27.5481C109.826 27.5949 109.055 27.0106 108.845 26.1927L106.508 16.7516C106.438 16.4946 106.485 16.2141 106.672 16.0038Z" fill="url(#paint13_linear_147_1547)"/>
<path d="M153.48 21.6822C153.433 21.6822 153.386 21.6822 153.363 21.6588L138.407 16.097C138.337 16.0736 138.22 16.097 138.126 16.1437C138.056 16.1905 137.986 16.3073 137.986 16.4008V19.2752C137.986 19.4622 137.823 19.6257 137.636 19.6257C137.449 19.6257 137.285 19.4622 137.285 19.2752V16.4008C137.285 16.0736 137.449 15.7465 137.729 15.5829C138.01 15.3959 138.36 15.3492 138.641 15.4427L153.597 21.0045C153.784 21.0746 153.877 21.2849 153.807 21.4485C153.76 21.5887 153.644 21.6822 153.48 21.6822Z" fill="white"/>
<path d="M135.299 19.9533C135.275 19.9533 135.252 19.9533 135.252 19.9533L133.709 19.6962C133.522 19.6729 133.382 19.4859 133.429 19.299C133.452 19.112 133.639 18.9718 133.826 19.0185L135.369 19.2756C135.556 19.2989 135.696 19.4859 135.649 19.6729C135.602 19.8364 135.462 19.9533 135.299 19.9533Z" fill="white"/>
<path d="M129.9 36.5216C129.713 36.2879 129.409 36.1711 129.105 36.2178L98.0475 39.0688V34.6754C98.0475 34.4418 97.954 34.2314 97.7671 34.1146C97.5801 33.9977 97.3464 33.951 97.1361 34.0445L76.5246 41.9666C76.2675 42.0601 76.0806 42.3171 76.0806 42.5976C76.0806 42.878 76.2441 43.1351 76.5246 43.2285L97.1595 51.1506C97.3698 51.2208 97.5801 51.1974 97.7671 51.0805C97.954 50.9637 98.0475 50.7534 98.0475 50.5197V47.7388L125.553 49.0241C126.488 49.0708 127.306 48.4398 127.539 47.5518L130.063 37.3395C130.157 37.0591 130.087 36.7553 129.9 36.5216Z" fill="url(#paint14_linear_147_1547)"/>
<path d="M79.2357 42.6443C79.0955 42.6443 78.9553 42.5509 78.9085 42.4106C78.8384 42.2237 78.9319 42.0367 79.1189 41.9666L95.3136 35.9374C95.6174 35.8206 95.9446 35.8673 96.2484 36.0776C96.5055 36.2646 96.669 36.5917 96.669 36.9423V40.0737C96.669 40.2607 96.5054 40.4243 96.3185 40.4243C96.1315 40.4243 95.968 40.2607 95.968 40.0737V36.9423C95.968 36.8254 95.9212 36.7086 95.8511 36.6385C95.6875 36.5216 95.5941 36.5684 95.5707 36.5917L79.3525 42.621C79.3058 42.6443 79.2824 42.6443 79.2357 42.6443Z" fill="white"/>
<path d="M98.9595 40.7749C98.7959 40.7749 98.6323 40.6581 98.6089 40.4711C98.5856 40.2842 98.7024 40.0972 98.8893 40.0739L100.549 39.7934C100.736 39.7701 100.922 39.8869 100.946 40.0739C100.969 40.2608 100.852 40.4478 100.665 40.4711L99.0062 40.7516C99.0062 40.7749 98.9828 40.7749 98.9595 40.7749Z" fill="white"/>
<path d="M108.658 68.4438L162.827 68.2101C163.341 68.2101 163.762 68.6307 163.762 69.1448L163.645 88.0972C163.645 88.6113 163.201 89.0319 162.687 89.0086C157.92 88.8684 108.962 88.2374 108.027 88.2841C107.092 88.3309 107.606 73.3513 107.746 69.3318C107.746 68.8411 108.167 68.4438 108.658 68.4438Z" fill="url(#paint15_linear_147_1547)"/>
<path d="M162.711 88.3075C159.649 88.214 130.391 87.8401 116.323 87.6765C112.233 87.6298 109.312 87.583 108.541 87.583H108.448L108.424 87.4896C108.097 85.62 108.097 79.3571 108.448 69.3551C108.448 69.2383 108.541 69.1448 108.658 69.1448L162.827 68.9111C162.897 68.9111 162.944 68.9345 162.991 68.9812C163.038 69.028 163.061 69.0747 163.061 69.1448L162.944 88.0972C162.944 88.214 162.827 88.3075 162.711 88.3075ZM108.634 87.3493C109.546 87.3727 112.374 87.3961 116.323 87.4428C130.391 87.6298 159.649 87.9803 162.711 88.0738L162.804 69.1215L108.658 69.3785C108.331 79.1702 108.331 85.3863 108.634 87.3493Z" fill="white"/>
<path opacity="0.64" d="M110.972 73.3278C110.972 73.8419 111.135 74.2626 111.346 74.2626H132.097C132.308 74.2626 132.471 73.8419 132.471 73.3278C132.471 72.8137 132.308 72.3931 132.097 72.3931H111.369C111.159 72.4164 110.972 72.8371 110.972 73.3278Z" fill="white"/>
<path opacity="0.64" d="M110.972 76.5061C110.972 77.0202 111.135 77.4408 111.346 77.4408H132.097C132.308 77.4408 132.471 77.0202 132.471 76.5061C132.471 75.9919 132.308 75.5713 132.097 75.5713H111.369C111.159 75.5713 110.972 75.9919 110.972 76.5061Z" fill="white"/>
<path opacity="0.64" d="M110.972 79.6608C110.972 80.175 111.135 80.5956 111.346 80.5956H132.097C132.308 80.5956 132.471 80.175 132.471 79.6608C132.471 79.1467 132.308 78.7261 132.097 78.7261H111.369C111.159 78.7494 110.972 79.1467 110.972 79.6608Z" fill="white"/>
<path opacity="0.64" d="M110.972 82.8391C110.972 83.3532 111.135 83.7738 111.346 83.7738H132.097C132.308 83.7738 132.471 83.3532 132.471 82.8391C132.471 82.3249 132.308 81.9043 132.097 81.9043H111.369C111.159 81.9043 110.972 82.3249 110.972 82.8391Z" fill="white"/>
<path d="M141.231 74.7996C141.684 72.8645 140.483 70.9281 138.548 70.4745C136.613 70.0209 134.677 71.2219 134.223 73.1571C133.77 75.0922 134.971 77.0286 136.906 77.4821C138.841 77.9357 140.777 76.7347 141.231 74.7996Z" fill="white"/>
<path d="M149.241 76.5375C150.646 75.1321 150.646 72.8535 149.241 71.4481C147.835 70.0426 145.557 70.0426 144.151 71.4481C142.746 72.8535 142.746 75.1321 144.151 76.5375C145.557 77.943 147.835 77.943 149.241 76.5375Z" fill="white"/>
<path d="M155.676 77.6979C157.664 77.6979 159.275 76.0867 159.275 74.0991C159.275 72.1115 157.664 70.5002 155.676 70.5002C153.688 70.5002 152.077 72.1115 152.077 74.0991C152.077 76.0867 153.688 77.6979 155.676 77.6979Z" fill="white"/>
<path d="M139.878 73.2344C139.995 73.5148 140.042 73.7952 140.042 74.1224C140.042 75.4077 139.014 76.4359 137.728 76.4359C136.443 76.4359 135.415 75.4077 135.415 74.1224C135.415 72.8371 136.443 71.8088 137.728 71.8088C137.775 71.8088 137.798 71.8088 137.845 71.8088V71.2246C137.798 71.2246 137.775 71.2246 137.728 71.2246C136.116 71.2246 134.831 72.5333 134.831 74.1224C134.831 75.7348 136.139 77.0201 137.728 77.0201C139.341 77.0201 140.626 75.7115 140.626 74.1224C140.626 73.7251 140.556 73.3512 140.416 73.0007L139.878 73.2344Z" fill="url(#paint16_linear_147_1547)"/>
<path d="M147.917 76.0624C147.567 76.2961 147.146 76.413 146.679 76.413C145.393 76.413 144.365 75.3847 144.365 74.0994C144.365 72.8141 145.393 71.7859 146.679 71.7859C146.725 71.7859 146.749 71.7859 146.795 71.7859V71.2017C146.749 71.2017 146.725 71.2017 146.679 71.2017C145.066 71.2017 143.781 72.5103 143.781 74.0994C143.781 75.7119 145.089 76.9972 146.679 76.9972C147.239 76.9972 147.753 76.8336 148.198 76.5532L147.917 76.0624Z" fill="url(#paint17_linear_147_1547)"/>
<path d="M157.615 75.4081C157.195 76.0157 156.494 76.413 155.699 76.413C154.414 76.413 153.385 75.3847 153.385 74.0994C153.385 72.8141 154.414 71.7859 155.699 71.7859C155.746 71.7859 155.769 71.7859 155.816 71.7859V71.2017C155.769 71.2017 155.746 71.2017 155.699 71.2017C154.087 71.2017 152.801 72.5103 152.801 74.0994C152.801 75.7119 154.11 76.9972 155.699 76.9972C156.681 76.9972 157.569 76.5064 158.083 75.7353L157.615 75.4081Z" fill="url(#paint18_linear_147_1547)"/>
<g opacity="0.64">
<path d="M140.673 79.1235H134.784C134.41 79.1235 134.106 79.4273 134.106 79.8012C134.106 80.1751 134.41 80.4789 134.784 80.4789H140.673C141.047 80.4789 141.351 80.1751 141.351 79.8012C141.351 79.4273 141.047 79.1235 140.673 79.1235Z" fill="white"/>
<path d="M149.647 79.1235H143.758C143.384 79.1235 143.08 79.4273 143.08 79.8012C143.08 80.1751 143.384 80.4789 143.758 80.4789H149.647C150.021 80.4789 150.324 80.1751 150.324 79.8012C150.324 79.4273 150.021 79.1235 149.647 79.1235Z" fill="white"/>
<path d="M152.731 80.4557H158.62C158.994 80.4557 159.298 80.1519 159.298 79.778C159.298 79.4041 158.994 79.1003 158.62 79.1003H152.731C152.358 79.1003 152.054 79.4041 152.054 79.778C152.077 80.1753 152.381 80.4557 152.731 80.4557Z" fill="white"/>
<path d="M140.673 81.2032H134.784C134.41 81.2032 134.106 81.507 134.106 81.8809V85.807C134.106 86.1809 134.41 86.4847 134.784 86.4847H140.673C141.047 86.4847 141.351 86.1809 141.351 85.807V81.8809C141.351 81.507 141.047 81.2032 140.673 81.2032Z" fill="white"/>
<path d="M149.647 81.2032H143.758C143.384 81.2032 143.08 81.507 143.08 81.8809V85.807C143.08 86.1809 143.384 86.4847 143.758 86.4847H149.647C150.021 86.4847 150.324 86.1809 150.324 85.807V81.8809C150.324 81.507 150.021 81.2032 149.647 81.2032Z" fill="white"/>
<path d="M158.62 81.2032H152.731C152.358 81.2032 152.054 81.507 152.054 81.8809V85.807C152.054 86.1809 152.358 86.4847 152.731 86.4847H158.62C158.994 86.4847 159.298 86.1809 159.298 85.807V81.8809C159.298 81.507 158.994 81.2032 158.62 81.2032Z" fill="white"/>
</g>
<path d="M133.849 42.4807C134.316 42.5742 134.784 42.6676 135.228 42.7611C135.345 42.7845 135.438 42.9247 135.391 43.0415C135.345 43.1584 135.228 43.2519 135.111 43.2051C134.667 43.0883 134.2 42.9948 133.755 42.9247C133.639 42.9013 133.545 42.7845 133.569 42.6443C133.592 42.5508 133.709 42.4573 133.849 42.4807Z" fill="white"/>
<path d="M137.892 43.6028C138.756 43.9533 139.621 44.374 140.369 44.9348C140.462 45.0049 140.486 45.1685 140.415 45.262C140.345 45.3555 140.182 45.3788 140.088 45.3087C139.364 44.7712 138.546 44.374 137.705 44.0468C137.588 44.0001 137.518 43.8599 137.564 43.743C137.635 43.6028 137.775 43.5561 137.892 43.6028Z" fill="white"/>
<path d="M142.215 47.108C142.402 47.552 142.519 48.0427 142.543 48.5335C142.566 49.0242 142.519 49.515 142.402 49.9824C142.379 50.0992 142.239 50.1927 142.122 50.1459C142.005 50.1226 141.912 49.9824 141.958 49.8655C142.075 49.4449 142.122 49.0009 142.099 48.5568C142.075 48.1128 141.982 47.6922 141.795 47.2949C141.748 47.1781 141.795 47.0379 141.912 46.9911C142.028 46.9444 142.169 46.9911 142.215 47.108Z" fill="white"/>
<path d="M141.14 52.5061C140.579 53.2539 139.902 53.9316 139.201 54.5392C139.107 54.6326 138.944 54.6093 138.873 54.5158C138.78 54.4223 138.803 54.2587 138.897 54.1886C139.598 53.6044 140.229 52.9501 140.766 52.249C140.836 52.1555 141 52.1322 141.094 52.2023C141.187 52.249 141.21 52.4126 141.14 52.5061Z" fill="white"/>
<path d="M136.887 56.152C136.093 56.6194 135.251 57.04 134.387 57.3906C134.27 57.4373 134.13 57.3906 134.083 57.2504C134.036 57.1335 134.083 56.9933 134.223 56.9466C135.064 56.596 135.882 56.1988 136.677 55.7547C136.794 55.6846 136.934 55.7314 137.004 55.8482C137.051 55.9417 137.004 56.0819 136.887 56.152Z" fill="white"/>
<path d="M131.769 58.325C130.881 58.6055 129.993 58.8625 129.105 59.0962C128.988 59.1196 128.848 59.0495 128.825 58.9326C128.801 58.8158 128.872 58.6756 128.988 58.6522C129.876 58.4185 130.764 58.1615 131.629 57.881C131.746 57.8343 131.886 57.9044 131.933 58.0212C131.956 58.1381 131.886 58.2783 131.769 58.325Z" fill="white"/>
<path d="M126.394 59.7274C125.482 59.9144 124.571 60.078 123.66 60.2415C123.543 60.2649 123.403 60.1714 123.403 60.0546C123.379 59.9378 123.473 59.7975 123.589 59.7975C124.501 59.634 125.389 59.4704 126.3 59.2834C126.417 59.2601 126.557 59.3302 126.581 59.4704C126.604 59.5872 126.534 59.7041 126.394 59.7274Z" fill="white"/>
<path d="M120.926 60.6621L118.168 60.9892C118.052 61.0126 117.935 60.9191 117.911 60.7789C117.888 60.6621 117.981 60.5452 118.122 60.5218L120.856 60.1947C120.973 60.1713 121.089 60.2648 121.113 60.405C121.16 60.5218 121.066 60.6387 120.926 60.6621Z" fill="white"/>
<path d="M115.434 61.2696L112.676 61.5033C112.56 61.5033 112.443 61.4098 112.419 61.2929C112.419 61.1761 112.513 61.0592 112.63 61.0359L115.387 60.8022C115.504 60.8022 115.621 60.8957 115.644 61.0125C115.644 61.1527 115.551 61.2696 115.434 61.2696Z" fill="white"/>
<path d="M109.919 61.7372C109.008 61.8073 108.097 61.9007 107.162 61.9942C107.045 62.0176 106.928 61.9007 106.905 61.7839C106.881 61.667 106.998 61.5502 107.115 61.5268C108.027 61.4334 108.961 61.3399 109.873 61.2698C109.99 61.2698 110.106 61.3633 110.13 61.4801C110.153 61.5969 110.036 61.7372 109.919 61.7372Z" fill="white"/>
<path d="M104.428 62.3443C103.517 62.4846 102.605 62.6248 101.717 62.8117C101.6 62.8351 101.46 62.7416 101.437 62.6248C101.413 62.5079 101.507 62.3677 101.624 62.3443C102.535 62.1808 103.446 62.0172 104.358 61.877C104.475 61.8536 104.592 61.9471 104.615 62.0639C104.638 62.2041 104.568 62.321 104.428 62.3443Z" fill="white"/>
<path d="M99.0296 63.3729C98.1415 63.5832 97.2535 63.8169 96.3655 64.0739C96.2486 64.1207 96.1084 64.0272 96.085 63.9104C96.0383 63.7935 96.1318 63.6533 96.2486 63.6299C97.1367 63.3729 98.0247 63.1392 98.9361 62.9289C99.0529 62.9055 99.1931 62.9756 99.2165 63.0924C99.2165 63.2327 99.1464 63.3495 99.0296 63.3729Z" fill="white"/>
<path d="M93.7243 64.8919C92.8597 65.1957 91.995 65.4995 91.1537 65.85C91.0369 65.8968 90.8967 65.85 90.8499 65.7332C90.8032 65.6163 90.8499 65.4761 90.9668 65.4294C91.8314 65.0788 92.6961 64.7517 93.5607 64.4712C93.6776 64.4245 93.8178 64.4946 93.8645 64.6115C93.9113 64.7283 93.8412 64.8452 93.7243 64.8919Z" fill="white"/>
<path d="M88.6298 66.9483C87.8119 67.3455 86.994 67.7662 86.1761 68.2102C86.0592 68.2803 85.919 68.2336 85.8723 68.1167C85.8022 67.9999 85.8489 67.8597 85.9658 67.8129C86.7837 67.3689 87.6016 66.9483 88.4429 66.551C88.5597 66.5043 88.7 66.551 88.7467 66.6678C88.7934 66.7613 88.7467 66.9015 88.6298 66.9483Z" fill="white"/>
<path d="M83.8159 69.6122C83.0447 70.1029 82.2969 70.6171 81.5491 71.1779C81.4556 71.248 81.292 71.2247 81.2219 71.1312C81.1518 71.0377 81.1752 70.8741 81.2687 70.804C82.0165 70.2432 82.7876 69.729 83.5588 69.2383C83.6757 69.1682 83.8159 69.1916 83.886 69.3084C83.9561 69.4019 83.9327 69.5421 83.8159 69.6122Z" fill="white"/>
<path d="M79.3991 72.8842C78.6981 73.4684 78.0204 74.0994 77.366 74.7303C77.2725 74.8238 77.1323 74.8238 77.0389 74.7303C76.9454 74.6368 76.9454 74.4966 77.0389 74.4032C77.6932 73.7488 78.3943 73.1412 79.0953 72.5336C79.1888 72.4402 79.329 72.4635 79.4225 72.557C79.516 72.6505 79.4926 72.7907 79.3991 72.8842Z" fill="white"/>
<path d="M75.473 76.7164C74.8654 77.3941 74.2812 78.0952 73.7203 78.8196C73.6502 78.9131 73.4866 78.9365 73.3932 78.8664C73.2997 78.7963 73.2763 78.6327 73.3464 78.5392C73.9073 77.8148 74.5149 77.0903 75.1225 76.3893C75.216 76.2958 75.3562 76.2958 75.4496 76.3659C75.5431 76.4827 75.5665 76.623 75.473 76.7164Z" fill="white"/>
<path d="M72.1083 81.0633C71.5942 81.8344 71.1035 82.6056 70.6361 83.4002C70.566 83.517 70.4258 83.5404 70.3089 83.4936C70.1921 83.4235 70.1687 83.2833 70.2154 83.1665C70.6828 82.3719 71.1736 81.5774 71.6877 80.8062C71.7578 80.6894 71.898 80.666 72.0149 80.7361C72.1551 80.8062 72.1784 80.9464 72.1083 81.0633Z" fill="white"/>
<path d="M69.3272 85.8073C68.9066 86.6252 68.5093 87.4432 68.1588 88.2844C68.112 88.4013 67.9718 88.448 67.855 88.4013C67.7381 88.3545 67.6914 88.2143 67.7381 88.0975C68.112 87.2562 68.5093 86.4149 68.9299 85.597C68.9767 85.4802 69.1169 85.4334 69.2338 85.5035C69.3272 85.5503 69.374 85.6905 69.3272 85.8073Z" fill="white"/>
<path d="M67.1076 90.8316L66.6168 92.1169L66.1027 93.4022C66.056 93.5191 65.9157 93.5892 65.7989 93.5424C65.6821 93.4957 65.6119 93.3555 65.6587 93.2386L66.1494 91.9533L66.6402 90.668C66.6869 90.5512 66.8271 90.4811 66.944 90.5278C67.0842 90.5746 67.1543 90.7148 67.1076 90.8316Z" fill="white"/>
<path d="M65.027 95.9724C64.8634 96.393 64.7232 96.8137 64.6063 97.2577C64.5129 97.7017 64.4428 98.1457 64.3727 98.5897C64.3493 98.7066 64.2558 98.8 64.1156 98.8C63.9987 98.7767 63.9053 98.6598 63.9053 98.543C63.952 98.0756 64.0221 97.6082 64.139 97.1642C64.2558 96.6968 64.396 96.2528 64.583 95.8088C64.6297 95.6919 64.7699 95.6218 64.8868 95.6686C65.027 95.7153 65.0737 95.8555 65.027 95.9724Z" fill="white"/>
<path d="M64.1861 101.324L64.116 102.726C64.116 102.843 63.9991 102.96 63.8823 102.936C63.7654 102.936 63.6486 102.819 63.672 102.703L63.7421 101.3C63.7421 101.184 63.8589 101.067 63.9758 101.09C64.0926 101.09 64.1861 101.207 64.1861 101.324Z" fill="white"/>
<path d="M35.2323 115.626H33.0122V139.743H35.2323V115.626Z" fill="url(#paint19_linear_147_1547)"/>
<path d="M24.3657 140.187H43.8788V139.509C43.8788 139.088 43.5283 138.738 43.1077 138.738H25.1836C24.7162 138.738 24.3423 139.112 24.3423 139.579V140.187H24.3657Z" fill="url(#paint20_linear_147_1547)"/>
<path d="M20.6729 114.738C20.6729 116.14 21.8179 117.285 23.2201 117.285H44.2055C45.6077 117.285 46.7528 116.14 46.7528 114.738V112.424C46.7528 111.022 45.6077 109.877 44.2055 109.877H23.2201C21.8179 109.877 20.6729 111.022 20.6729 112.424V114.738Z" fill="url(#paint21_linear_147_1547)"/>
<path d="M46.5422 135.442C46.5422 135.442 52.8986 140.022 51.8003 143.107C51.8003 143.107 44.8363 140.092 43.995 137.732C43.1537 135.372 44.1352 134.32 44.1352 134.32L46.5422 135.442Z" fill="url(#paint22_linear_147_1547)"/>
<path d="M45.5842 131.609L44.5326 134.623C44.369 135.068 44.5326 135.605 44.9299 135.862C45.1402 135.979 45.4206 136.119 45.7945 136.189C46.332 136.306 46.8929 136.072 47.15 135.582L48.3885 133.245L45.5842 131.609Z" fill="url(#paint23_linear_147_1547)"/>
<path d="M35.4655 104.524C35.4655 104.524 48.5288 106.791 54.1374 111.979C59.746 117.167 48.9962 133.689 48.9962 133.689C48.9962 133.689 47.2435 133.689 45.0936 131.843C45.0936 131.843 51.4733 119.41 45.9816 115.788C39.8121 111.722 32.6846 110.787 32.6846 110.787L35.3487 104.921L35.4655 104.524Z" fill="#2E2E2E"/>
<path d="M50.7014 141.424C49.2993 140.77 45.3266 138.012 44.6722 137.872C43.9945 137.755 42.8494 138.526 42.8494 138.526C42.8494 138.526 42.569 139.04 42.8728 139.929C43.8076 141.05 45.864 143.2 48.645 143.995C50.6781 144.579 52.127 144.041 53.015 143.387C52.5009 142.639 51.6362 141.845 50.7014 141.424Z" fill="#2E2E2E"/>
<path d="M48.6452 143.995C45.8643 143.2 43.8078 141.05 42.873 139.928C43.0834 140.536 43.5508 141.307 44.5556 142.195C47.0561 144.439 51.8 145.233 52.8049 145.093C53.6228 144.976 53.5293 144.228 53.0152 143.41C52.1038 144.041 50.6783 144.579 48.6452 143.995Z" fill="#2E2E2E"/>
<path d="M41.6577 136.587C41.6811 136.984 42.4523 138.293 42.9196 139.04C43.13 139.391 43.5272 139.601 43.9479 139.601C44.2049 139.601 44.5087 139.578 44.7892 139.508C45.2098 139.391 45.4435 138.947 45.3033 138.526L44.3919 135.442L41.6577 136.587Z" fill="url(#paint24_linear_147_1547)"/>
<path d="M22.8694 100.598C22.8694 100.598 19.9717 108.357 22.8694 110.717C25.7672 113.077 32.7078 115.741 34.2502 120.439C35.7925 125.136 38.4333 134.273 41.9386 137.521C41.9386 137.521 44.4157 137.288 45.3271 136.306C45.3271 136.306 43.3174 122.659 42.0087 119.153C40.8636 116.115 39.1811 111.745 35.9561 109.292C35.0214 108.59 35.1849 107.492 35.629 106.394L36.4001 104.431L22.8694 100.598Z" fill="#2E2E2E"/>
<path d="M53.1553 94.5223C48.2946 94.8261 49.8135 87.0442 49.8837 86.717L42.499 91.9283C42.499 91.9283 42.8963 96.088 49.0424 98.2614C50.6081 98.8222 52.0102 98.8456 53.2722 98.5652C52.7347 97.0228 52.8515 95.6207 53.1553 94.5223Z" fill="url(#paint25_linear_147_1547)"/>
<path d="M62.5732 92.1621C60.7505 90.9001 58.694 92.1621 58.694 92.1621C56.2636 93.7512 54.4642 94.4289 53.1555 94.499C52.8517 95.5973 52.7349 96.9995 53.2723 98.5652C55.9832 97.981 57.9228 96.018 58.7874 95.0131C59.0912 94.6392 59.6287 94.5924 60.0026 94.8729C60.3765 95.1767 60.7505 95.5739 60.6803 96.018C60.5401 96.8592 61.5216 97.1397 61.6151 96.8359C61.6852 96.5321 61.2879 94.7093 61.2879 94.7093C61.2879 94.7093 63.2509 96.6957 64.0221 97.4435C64.7933 98.2146 65.7514 97.4435 65.7514 97.4435C65.7514 97.4435 64.396 93.424 62.5732 92.1621Z" fill="url(#paint26_linear_147_1547)"/>
<path d="M30.4641 74.7054C30.4641 74.7054 37.5449 71.8778 50.7251 82.7444C50.7251 82.7444 51.8235 85.0346 50.6316 87.0443C49.4398 89.0774 37.989 98.9626 36.4232 104.431C36.4232 104.431 29.5995 106.651 22.542 101.393C22.542 101.416 23.1496 86.1563 30.4641 74.7054Z" fill="url(#paint27_linear_147_1547)"/>
<path d="M44.4624 72.1812L40.9804 76.411C40.6298 76.8316 40.5597 77.4158 40.7934 77.9066C41.2842 78.8881 42.4292 80.337 44.9765 80.1266C45.7243 80.0565 46.402 79.6125 46.7292 78.9348L49.1595 73.8871L44.4624 72.1812Z" fill="url(#paint28_linear_147_1547)"/>
<path d="M24.9726 92.8162C24.1547 89.4745 32.4741 81.9963 32.4741 81.9963L30.4409 74.7052C30.4409 74.7052 12.4467 86.6702 17.0505 96.2982C17.7048 97.677 18.5694 98.6351 19.5977 99.2895C21.0466 95.4102 23.3601 93.6108 24.9726 92.8162Z" fill="url(#paint29_linear_147_1547)"/>
<path d="M24.9721 92.3257C24.8786 92.3257 24.8085 92.2556 24.7851 92.1855C23.9438 88.7502 32.0062 81.4824 32.3567 81.1786C32.4268 81.1085 32.567 81.1085 32.6371 81.202C32.7073 81.2721 32.7073 81.4123 32.6138 81.4824C32.5203 81.5525 24.3879 88.9138 25.159 92.092C25.1824 92.2088 25.1123 92.3023 25.0188 92.3257C24.9955 92.3257 24.9721 92.3257 24.9721 92.3257Z" fill="url(#paint30_linear_147_1547)"/>
<path d="M37.5919 92.5126C37.5919 92.5126 27.7067 96.3451 25.2997 93.4707C25.1361 93.2838 25.0193 93.0501 24.9725 92.8164C23.3601 93.611 21.0465 95.4104 19.5977 99.313C24.7856 102.631 33.6658 97.4668 36.0729 95.9479C36.4701 95.6908 36.9375 95.6207 37.4049 95.7142C38.3397 95.9011 39.9288 96.1815 40.7934 96.0647C42.0553 95.8778 43.8781 100.318 45.9112 98.9391C45.9112 98.9157 44.1586 91.1806 37.5919 92.5126Z" fill="url(#paint31_linear_147_1547)"/>
<path d="M52.057 65.965C52.1038 66.1052 51.2391 75.336 51.2391 75.336L45.9811 74.7284L45.4903 65.8481C45.4669 65.8715 51.4494 63.6982 52.057 65.965Z" fill="url(#paint32_linear_147_1547)"/>
<path d="M46.8457 67.6947L46.7288 72.3919C46.7288 72.462 46.7288 72.5088 46.7522 72.5789C46.8457 72.9294 47.2429 74.1446 48.4581 73.6539C49.5565 73.2098 50.5614 72.8126 51.3092 72.9528C51.6363 73.0229 51.87 73.3267 51.8467 73.6539C51.7765 74.4951 51.5662 76.388 51.1222 78.0005C51.0287 78.3277 50.7016 78.538 50.3744 78.4679C49.3695 78.2809 47.2663 77.8603 45.6305 77.1125C45.4202 77.019 45.2566 76.8087 45.2566 76.5516C45.1865 75.3832 44.9294 71.8077 44.6957 70.8262C44.4854 69.9148 43.2702 69.4708 42.7561 69.3306C42.5925 69.2838 42.4523 69.167 42.3588 69.0034C42.055 68.4426 41.611 67.1573 43.2235 66.4094C43.574 66.2459 43.7142 65.8486 43.5506 65.5214C43.2235 64.8437 43.0131 63.8155 44.2517 63.0677C45.5136 62.3199 46.5886 62.9274 47.1728 63.4416C47.4065 63.6519 47.7571 63.6519 48.0141 63.4416C48.1543 63.3247 48.3413 63.278 48.5983 63.3948C48.9489 63.5584 49.3462 63.3715 49.4864 63.0209C49.7434 62.3432 50.3043 61.572 51.613 61.6421C53.9499 61.7824 54.5107 64.3062 54.0667 65.872C53.6227 67.4377 51.0988 67.1339 49.7668 66.5263C48.7619 66.0589 47.5935 66.7833 47.1027 67.1806C46.9391 67.3208 46.8457 67.5078 46.8457 67.6947Z" fill="url(#paint33_linear_147_1547)"/>
<path d="M44.673 72.5552C44.673 72.5552 45.3273 69.7976 44.2757 69.2601C43.2241 68.7227 41.8219 69.2134 42.3594 71.1063C43.0138 73.4432 44.673 72.5552 44.673 72.5552Z" fill="url(#paint34_linear_147_1547)"/>
<path d="M42.64 100.085C42.6633 100.085 42.6633 100.085 42.6867 100.085L63.4151 100.062C63.9292 100.062 64.3499 99.641 64.3499 99.1269C64.3499 98.6128 63.9292 98.1921 63.4151 98.1921L42.6867 98.2155C42.1726 98.2155 41.752 98.6361 41.752 99.1503C41.7753 99.6644 42.1492 100.062 42.64 100.085Z" fill="url(#paint35_linear_147_1547)"/>
<path d="M82.0405 81.2731H64.7942C63.5322 81.2731 62.3638 81.9975 61.8263 83.166L53.8574 100.085H75.3102C76.1282 100.085 76.876 99.5944 77.1798 98.8233L83.3726 83.166C83.6764 82.2546 83.022 81.2731 82.0405 81.2731Z" fill="#2E2E2E"/>
<path d="M69.8888 89.9431C69.5149 91.1115 69.7953 92.2332 70.4964 92.4669C71.2209 92.7006 72.0855 91.9528 72.4594 90.7844C72.8333 89.6159 72.5529 88.4942 71.8518 88.2605C71.1507 88.0268 70.2627 88.7746 69.8888 89.9431Z" fill="url(#paint36_linear_147_1547)"/>
<path d="M79.2352 144.511C79.352 144.511 79.4689 144.487 79.5857 144.44C80.0297 144.254 80.2401 143.763 80.0531 143.342L61.8018 102.236C61.6149 101.815 61.1008 101.605 60.6568 101.792C60.2127 101.979 60.0024 102.47 60.1894 102.89L78.4406 143.996C78.5808 144.324 78.908 144.511 79.2352 144.511Z" fill="url(#paint37_linear_147_1547)"/>
<path d="M58.6709 144.511C58.998 144.511 59.3252 144.324 59.4654 143.996L77.7167 102.89C77.9036 102.47 77.6933 101.955 77.2493 101.792C76.8053 101.605 76.2912 101.815 76.1042 102.236L57.853 143.342C57.666 143.763 57.8763 144.277 58.3203 144.44C58.4372 144.487 58.554 144.511 58.6709 144.511Z" fill="url(#paint38_linear_147_1547)"/>
<path d="M22.7288 144.511C22.8457 144.511 22.9625 144.487 23.0794 144.44C23.5234 144.254 23.7337 143.763 23.5468 143.342L5.2955 102.236C5.10855 101.815 4.59443 101.605 4.15041 101.792C3.7064 101.979 3.49608 102.47 3.68303 102.89L21.9343 143.996C22.0511 144.324 22.3783 144.511 22.7288 144.511Z" fill="url(#paint39_linear_147_1547)"/>
<path d="M2.14109 144.51C2.46825 144.51 2.79542 144.323 2.93563 143.996L21.1869 102.89C21.3738 102.469 21.1635 101.955 20.7195 101.792C20.2755 101.605 19.7614 101.815 19.5744 102.236L1.32317 143.342C1.13622 143.763 1.34654 144.277 1.79055 144.44C1.9074 144.487 2.02424 144.51 2.14109 144.51Z" fill="url(#paint40_linear_147_1547)"/>
<path d="M0.0144199 100.973C-0.0323183 100.693 0.0377882 100.436 0.178003 100.202C0.341586 99.9918 0.575276 99.875 0.808967 99.875H83.8861C84.2132 99.875 84.517 100.062 84.6806 100.366C84.8442 100.67 84.8676 101.043 84.7507 101.371L83.8393 103.544C83.629 104.035 83.185 104.362 82.6942 104.362H1.39319C0.925813 104.362 0.551907 103.988 0.458431 103.497L0.0144199 100.973Z" fill="url(#paint41_linear_147_1547)"/>
<path d="M139.084 139.556C139.084 139.556 139.271 140.654 139.364 141.729C139.411 142.15 139.084 142.524 138.64 142.547C137.191 142.617 134.106 142.734 132.985 142.664C132.821 142.664 132.704 142.477 132.774 142.337C132.821 142.197 132.914 142.103 133.055 142.033L138.172 139.696L139.084 139.556Z" fill="#2E2E2E"/>
<path d="M139.247 138.902L139.084 140.21C139.084 140.21 138.195 140.631 137.588 140.164L137.962 138.691L139.247 138.902Z" fill="url(#paint42_linear_147_1547)"/>
<path d="M139.131 114.247C139.201 114.598 139.481 131.354 137.705 138.855C137.682 138.972 137.728 139.112 137.845 139.159C138.126 139.276 138.663 139.439 139.294 139.463C139.504 139.463 139.668 139.346 139.738 139.159C140.252 137.406 142.706 128.69 143.033 120.347C143.384 111.022 143.033 120.02 143.033 120.02L142.823 114.271L139.131 114.247Z" fill="#2E2E2E"/>
<path d="M144.95 140.117C144.95 140.117 145.254 140.678 145.557 142.15C145.604 142.407 145.417 142.664 145.16 142.688C144.693 142.734 143.945 142.805 143.361 142.781C143.08 142.781 142.87 142.547 142.917 142.267C142.987 141.73 143.174 140.842 143.805 140.164L144.95 140.117Z" fill="#2E2E2E"/>
<path d="M145.229 138.434L144.855 140.421C144.855 140.421 144.505 140.678 143.78 140.491L143.944 138.364L145.229 138.434Z" fill="url(#paint43_linear_147_1547)"/>
<path d="M146.211 114.762C147.683 123.595 145.884 136.612 145.3 139.159C145.253 139.322 145.136 139.439 144.973 139.463C144.716 139.509 144.272 139.533 143.828 139.416C143.687 139.369 143.571 139.229 143.571 139.089C143.5 137.032 143.641 124.39 142.262 119.389C142.192 119.132 142.028 118.921 141.818 118.758L139.177 116.865L138.967 113.827L146.211 114.762Z" fill="#2E2E2E"/>
<path d="M136.887 98.0058C141.28 97.9357 146.117 99.1509 146.117 99.1509C147.426 106.793 146.351 115.603 146.351 115.603C142.963 116.491 139.107 115.065 139.107 115.065C138.546 111.864 135.905 102.89 135.905 102.89C133.755 102.633 132.003 102.002 130.53 101.184C131.652 99.8987 132.166 98.2629 132.4 97.2814C133.942 97.7721 135.531 98.0292 136.887 98.0058Z" fill="url(#paint44_linear_147_1547)"/>
<path d="M123.917 91.5325C124.337 91.0184 124.898 91.2521 124.898 91.2521C125.552 93.9863 128.941 96.183 132.423 97.2813C132.189 98.2394 131.675 99.8753 130.553 101.184C124.758 97.9356 123.917 91.5325 123.917 91.5325Z" fill="url(#paint45_linear_147_1547)"/>
<path d="M124.01 91.6728C123.963 91.813 124.478 92.0233 124.805 91.4391C124.805 91.1586 124.992 89.9435 124.828 89.7331C123.94 88.5179 122.187 86.9756 122.187 86.9756C121.884 87.256 122.141 87.5598 122.141 87.5598L122.982 88.4478C122.795 88.775 122.585 89.0321 122.491 89.4293C122.421 89.7098 122.468 90.0369 122.608 90.294C122.748 90.5511 122.959 90.9016 123.146 91.182C123.496 91.6728 124.01 91.6728 124.01 91.6728Z" fill="url(#paint46_linear_147_1547)"/>
<path d="M123.333 88.9854L124.104 89.6397L124.338 90.294L123.66 91.0418C123.66 91.0418 123.426 89.7565 123.263 89.4761C123.099 89.219 123.169 89.0788 123.333 88.9854Z" fill="url(#paint47_linear_147_1547)"/>
<path d="M144.435 103.404L146.118 99.151C146.118 99.151 150.207 101.932 150.885 105.461C150.114 105.507 148.712 105.718 147.309 106.419C147.029 104.76 144.435 103.404 144.435 103.404Z" fill="url(#paint48_linear_147_1547)"/>
<path d="M140.836 107.4C140.836 107.4 145.44 109.994 147.006 107.774C147.333 107.307 147.403 106.863 147.333 106.419C148.712 105.718 150.114 105.531 150.908 105.461C151.119 106.536 151.002 107.657 150.371 108.802C147.66 113.78 140.252 108.522 140.252 108.522L140.836 107.4Z" fill="url(#paint49_linear_147_1547)"/>
<path d="M141.398 110.695L138.874 101.909C138.851 101.815 138.757 101.745 138.664 101.722C138.22 101.675 136.888 101.511 135.369 101.395C133.523 101.231 131.396 101.114 130.134 101.231C129.947 101.254 129.854 101.441 129.924 101.605C130.648 103.077 133.616 109.036 135.112 110.976C135.158 111.046 135.228 111.069 135.322 111.069L141.141 111.023C141.328 111.023 141.445 110.859 141.398 110.695Z" fill="url(#paint50_linear_147_1547)"/>
<path d="M135.112 100.647L133.289 100.343C133.195 100.319 133.102 100.413 133.149 100.506L133.336 101.044C133.359 101.091 133.382 101.137 133.452 101.137L135.205 101.371C135.299 101.394 135.369 101.301 135.345 101.207L135.229 100.74C135.205 100.693 135.158 100.647 135.112 100.647Z" fill="url(#paint51_linear_147_1547)"/>
<path d="M136.467 102.189L136.327 101.418C136.304 101.348 136.257 101.277 136.163 101.277L132.494 100.904C132.378 100.88 132.261 100.997 132.307 101.114L132.541 102.095C132.564 102.165 132.635 102.236 132.705 102.236L136.304 102.423C136.397 102.399 136.491 102.306 136.467 102.189Z" fill="url(#paint52_linear_147_1547)"/>
<path d="M140.79 108.569C140.79 108.569 141.141 107.12 141.001 106.629C140.86 106.115 140.58 105.461 139.669 105.601C138.757 105.741 137.682 106.138 137.682 106.138C137.682 106.138 137.729 106.793 138.43 106.582L138.009 106.909C138.009 106.909 138.079 107.447 138.664 107.167L138.243 107.611C138.243 107.611 138.5 108.055 138.921 107.774C139.365 107.494 139.575 108.756 140.79 108.569Z" fill="url(#paint53_linear_147_1547)"/>
<path d="M141.328 94.4305L142.73 98.4734C142.753 98.5435 142.73 98.6136 142.66 98.6603C142.286 98.8707 140.907 99.4783 139.248 98.4267C139.084 98.3098 138.967 98.1462 138.921 97.9359L138.477 94.4305H141.328Z" fill="url(#paint54_linear_147_1547)"/>
<path d="M138.289 90.6917C138.289 90.6917 136.747 93.5894 136.957 94.7345C137.144 95.903 139.06 95.8095 140.72 94.8747L141.888 91.7666L138.289 90.6917Z" fill="url(#paint55_linear_147_1547)"/>
<path d="M140.626 93.3556C140.556 93.3322 140.533 93.2387 140.579 93.192C140.696 93.0051 140.93 92.6312 141 92.2806C141 92.2806 141.281 92.0937 140.299 91.86C139.318 91.6263 137.869 91.2524 137.565 90.4345C137.261 89.6165 138.056 87.5834 139.294 89.2193C139.341 89.2894 139.434 89.2894 139.481 89.2193C139.691 88.9622 140.229 88.4014 140.977 88.7285C141.678 89.0323 141.748 89.5464 141.748 89.8269C141.748 89.897 141.818 89.9671 141.888 89.9437C142.239 89.8736 143.103 89.8269 143.501 90.6915C143.828 91.416 143.617 91.8132 143.431 92.0236C143.36 92.0937 143.384 92.1871 143.477 92.2105C143.711 92.2806 144.015 92.4909 143.991 93.0284C143.945 93.7762 143.103 93.7061 142.87 93.6828C142.823 93.6828 142.8 93.6828 142.753 93.7295C142.542 93.9632 141.608 94.9213 140.603 95.0382C140.509 95.0382 140.439 94.9681 140.486 94.8746L140.93 93.6127C140.953 93.5425 140.93 93.4958 140.86 93.4724L140.626 93.3556Z" fill="#2E2E2E"/>
<path d="M140.463 93.5427C140.463 93.5427 141.561 92.7949 141.631 93.4259C141.701 94.0569 140.65 94.3373 140.112 94.1036L140.463 93.5427Z" fill="url(#paint56_linear_147_1547)"/>
<path d="M83.8161 135.045C83.746 135.045 83.6525 134.999 83.6058 134.929C83.4422 134.672 83.2786 134.391 83.1384 134.111C83.0683 133.994 83.115 133.854 83.2319 133.784C83.3487 133.713 83.4889 133.76 83.5591 133.877C83.6993 134.157 83.8628 134.415 84.0264 134.672C84.0965 134.788 84.0498 134.929 83.9563 134.999C83.8862 135.022 83.8395 135.045 83.8161 135.045Z" fill="#0071DC"/>
<path d="M82.1569 131.376C82.0634 131.376 81.9699 131.306 81.9232 131.213C81.7596 130.652 81.6194 130.091 81.5025 129.53L81.4791 129.343C81.4558 129.227 81.5493 129.086 81.6661 129.063C81.783 129.04 81.9232 129.133 81.9465 129.25L81.9699 129.437C82.0868 129.998 82.227 130.535 82.3905 131.073C82.4373 131.19 82.3672 131.33 82.227 131.353C82.2036 131.376 82.1802 131.376 82.1569 131.376ZM81.4324 126.446C81.2922 126.446 81.1987 126.329 81.1987 126.212C81.1987 125.581 81.2455 124.927 81.3389 124.296C81.3623 124.179 81.4791 124.085 81.596 124.085C81.7128 124.109 81.8063 124.226 81.8063 124.342C81.7362 124.95 81.6895 125.581 81.6895 126.212C81.6661 126.352 81.5726 126.446 81.4324 126.446ZM82.2503 121.538C82.227 121.538 82.2036 121.538 82.1802 121.515C82.0634 121.468 81.9933 121.351 82.04 121.211C82.2503 120.603 82.484 119.996 82.7411 119.412C82.7878 119.295 82.928 119.248 83.0449 119.295C83.1617 119.341 83.2085 119.482 83.1617 119.598C82.9047 120.159 82.671 120.744 82.4607 121.351C82.4373 121.491 82.3438 121.538 82.2503 121.538ZM84.5171 117.121C84.4704 117.121 84.4237 117.098 84.3769 117.075C84.2834 117.005 84.2601 116.864 84.3302 116.747C84.7041 116.233 85.1247 115.719 85.5454 115.252C85.6389 115.158 85.7791 115.158 85.8725 115.228C85.966 115.322 85.966 115.462 85.8959 115.556C85.4753 116.023 85.078 116.514 84.7041 117.005C84.6574 117.075 84.5872 117.121 84.5171 117.121ZM87.9991 113.569C87.929 113.569 87.8589 113.546 87.8122 113.476C87.7421 113.382 87.7654 113.219 87.8589 113.149C88.373 112.775 88.9105 112.424 89.4714 112.097C89.5882 112.027 89.7284 112.074 89.7986 112.19C89.8687 112.307 89.8219 112.448 89.7051 112.518C89.1676 112.821 88.6301 113.172 88.1393 113.546C88.0926 113.569 88.0459 113.569 87.9991 113.569ZM92.4159 111.279C92.3224 111.279 92.2289 111.209 92.2056 111.115C92.1588 110.999 92.2289 110.858 92.3458 110.812C92.9534 110.601 93.5843 110.438 94.2153 110.298C94.3321 110.274 94.4724 110.344 94.4957 110.485C94.5191 110.601 94.449 110.742 94.3088 110.765C93.7012 110.905 93.0936 111.069 92.5094 111.256C92.4626 111.256 92.4393 111.279 92.4159 111.279ZM99.1929 110.461C98.562 110.391 97.931 110.368 97.3 110.391C97.1598 110.391 97.0663 110.298 97.0663 110.157C97.0663 110.017 97.1598 109.924 97.3 109.924C97.9544 109.9 98.5853 109.924 99.2163 109.994C99.3331 110.017 99.45 110.111 99.4266 110.251C99.4266 110.368 99.3098 110.461 99.1929 110.461Z" fill="#0071DC"/>
<path d="M103.119 111.35C103.096 111.35 103.072 111.35 103.049 111.326C102.768 111.233 102.465 111.116 102.184 111.046C102.067 110.999 101.997 110.882 102.021 110.765C102.067 110.649 102.184 110.579 102.301 110.602C102.605 110.695 102.909 110.789 103.212 110.906C103.329 110.952 103.399 111.093 103.353 111.209C103.306 111.303 103.236 111.35 103.119 111.35Z" fill="#0071DC"/>
<path d="M112.538 120.206C112.444 120.206 112.351 120.159 112.327 120.066C112.21 119.785 112.07 119.505 111.93 119.225C111.883 119.108 111.93 118.968 112.023 118.921C112.14 118.874 112.28 118.921 112.327 119.014C112.467 119.295 112.608 119.575 112.724 119.879C112.771 119.996 112.724 120.136 112.608 120.183C112.608 120.206 112.584 120.206 112.538 120.206Z" fill="#0071DC"/>
<path d="M97.1606 142.804C96.5296 142.781 95.8987 142.734 95.2677 142.641C95.1509 142.617 95.0574 142.5 95.0808 142.383C95.1041 142.267 95.221 142.173 95.3378 142.196C95.9454 142.29 96.553 142.337 97.184 142.36C97.3242 142.36 97.4177 142.477 97.4177 142.594C97.3943 142.711 97.3008 142.804 97.1606 142.804ZM100.199 142.617C100.082 142.617 99.9883 142.524 99.9649 142.43C99.9415 142.313 100.035 142.173 100.152 142.173C100.339 142.15 100.526 142.103 100.713 142.08C101.133 141.986 101.554 141.893 101.951 141.776C102.068 141.752 102.208 141.823 102.232 141.939C102.255 142.056 102.185 142.196 102.068 142.22C101.647 142.337 101.227 142.43 100.783 142.524C100.596 142.57 100.409 142.594 100.222 142.617H100.199ZM104.849 141.122C104.756 141.122 104.685 141.075 104.639 140.981C104.592 140.864 104.639 140.724 104.756 140.678C105.293 140.397 105.854 140.093 106.345 139.766C106.461 139.696 106.602 139.719 106.672 139.836C106.742 139.953 106.719 140.093 106.602 140.163C106.064 140.514 105.527 140.818 104.943 141.098C104.919 141.122 104.896 141.122 104.849 141.122ZM108.869 138.317C108.798 138.317 108.752 138.294 108.705 138.247C108.611 138.154 108.611 138.013 108.705 137.92C109.149 137.499 109.57 137.032 109.967 136.565C110.06 136.471 110.201 136.448 110.294 136.541C110.388 136.635 110.411 136.775 110.317 136.868C109.92 137.359 109.476 137.826 109.032 138.247C108.985 138.294 108.915 138.317 108.869 138.317ZM111.836 134.438C111.79 134.438 111.766 134.438 111.72 134.415C111.603 134.344 111.556 134.204 111.626 134.087C111.93 133.55 112.187 132.989 112.421 132.428C112.467 132.311 112.608 132.241 112.724 132.311C112.841 132.358 112.911 132.498 112.841 132.615C112.608 133.199 112.327 133.784 112.023 134.321C112 134.391 111.93 134.438 111.836 134.438ZM113.542 129.834C113.519 129.834 113.519 129.834 113.496 129.834C113.379 129.811 113.285 129.694 113.309 129.554C113.425 128.946 113.519 128.339 113.566 127.731C113.566 127.591 113.683 127.497 113.823 127.521C113.963 127.521 114.056 127.638 114.033 127.778C113.986 128.409 113.893 129.04 113.753 129.647C113.729 129.764 113.636 129.834 113.542 129.834ZM113.776 124.95C113.659 124.95 113.566 124.857 113.542 124.74C113.496 124.272 113.425 123.782 113.332 123.314C113.309 123.174 113.285 123.057 113.262 122.94C113.239 122.824 113.309 122.683 113.449 122.66C113.566 122.637 113.706 122.707 113.729 122.847C113.753 122.987 113.776 123.104 113.823 123.244C113.916 123.735 113.986 124.226 114.033 124.716C114.056 124.833 113.963 124.95 113.823 124.973C113.776 124.95 113.776 124.95 113.776 124.95Z" fill="#0071DC"/>
<path d="M92.3461 141.916C92.3227 141.916 92.2994 141.916 92.276 141.893C91.9722 141.799 91.6918 141.682 91.388 141.565C91.2711 141.519 91.201 141.378 91.2711 141.262C91.3179 141.145 91.4581 141.075 91.5749 141.145C91.8554 141.262 92.1592 141.378 92.4396 141.472C92.5564 141.519 92.6265 141.659 92.5798 141.776C92.5331 141.846 92.4396 141.916 92.3461 141.916Z" fill="#0071DC"/>
<path d="M91.4815 137.196C91.5516 137.242 91.6451 137.242 91.7152 137.196L93.6548 135.84C94.683 136.261 95.7814 136.541 96.9031 136.611L98.0248 138.691C98.0716 138.761 98.1417 138.808 98.2351 138.785L101.039 138.341C101.133 138.317 101.18 138.271 101.203 138.177L101.6 135.84C102.652 135.396 103.61 134.812 104.451 134.088L106.718 134.765C106.788 134.789 106.882 134.765 106.928 134.695L108.588 132.382C108.634 132.312 108.634 132.218 108.588 132.148L107.232 130.208C107.653 129.18 107.933 128.082 108.003 126.96L110.083 125.838C110.153 125.792 110.2 125.721 110.177 125.628L109.733 122.824C109.709 122.73 109.663 122.683 109.569 122.66L107.232 122.263C106.788 121.211 106.204 120.253 105.48 119.412L106.157 117.145C106.181 117.075 106.157 116.981 106.087 116.935L103.774 115.275C103.704 115.229 103.61 115.229 103.54 115.275L101.6 116.631C100.572 116.21 99.4737 115.93 98.352 115.86L97.2303 113.78C97.1835 113.71 97.1134 113.663 97.0199 113.686L94.2157 114.13C94.1222 114.154 94.0754 114.2 94.0521 114.294L93.6548 116.631C92.6032 117.075 91.6451 117.659 90.8038 118.384L88.537 117.706C88.4669 117.682 88.3734 117.706 88.3267 117.776L86.6674 120.09C86.6207 120.16 86.6207 120.253 86.6674 120.323L88.0228 122.263C87.6022 123.291 87.3218 124.389 87.2517 125.511L85.1718 126.633C85.1017 126.68 85.055 126.75 85.0783 126.843L85.5224 129.647C85.5457 129.741 85.5925 129.788 85.6859 129.811L88.0228 130.208C88.4669 131.26 89.0511 132.218 89.7755 133.059L89.0978 135.326C89.0745 135.396 89.0978 135.49 89.1679 135.536L91.4815 137.196Z" fill="url(#paint57_linear_147_1547)"/>
<path d="M97.6267 129.11C97.2761 129.11 96.9022 129.04 96.5751 128.9C95.8506 128.619 95.2898 128.082 94.986 127.381C94.6822 126.68 94.6588 125.885 94.9626 125.184C95.243 124.459 95.7805 123.899 96.4816 123.595C97.9305 122.964 99.6364 123.642 100.267 125.09C100.571 125.792 100.595 126.586 100.291 127.287C100.01 128.012 99.4728 128.572 98.7717 128.876C98.3978 129.04 98.0239 129.11 97.6267 129.11ZM97.6267 124.062C97.3462 124.062 97.0424 124.109 96.762 124.249C96.2245 124.483 95.8272 124.903 95.6169 125.441C95.4066 125.978 95.4066 126.563 95.6403 127.1C95.874 127.638 96.2946 128.035 96.8321 128.245C97.3696 128.456 97.9538 128.456 98.4913 128.222C99.0288 127.988 99.4261 127.568 99.6364 127.03C99.8467 126.493 99.8467 125.908 99.613 125.371C99.2625 124.553 98.468 124.062 97.6267 124.062Z" fill="white"/>
<path d="M97.65 133.386C97.6033 133.386 97.5566 133.386 97.5332 133.386C97.4864 133.386 97.4163 133.386 97.3696 133.386C97.3462 133.386 97.3229 133.386 97.2995 133.386L97.3462 132.685C97.8136 132.709 98.281 132.685 98.725 132.615C100.337 132.358 101.74 131.517 102.768 130.255C102.838 130.161 102.908 130.091 102.978 129.998C103.796 128.876 104.217 127.567 104.217 126.212C104.217 125.862 104.193 125.511 104.123 125.16C103.843 123.455 102.908 121.936 101.506 120.931C100.104 119.926 98.3745 119.505 96.6685 119.786C94.9626 120.066 93.4436 121.001 92.4387 122.403C91.6208 123.525 91.2002 124.833 91.2002 126.189C91.2002 126.539 91.2235 126.89 91.2936 127.24C91.4806 128.409 91.9713 129.484 92.7425 130.395L92.205 130.839C91.3638 129.858 90.8029 128.642 90.6159 127.357C90.5458 126.96 90.5225 126.586 90.5225 126.189C90.5225 124.693 90.9898 123.244 91.8779 121.982C92.9996 120.417 94.6588 119.388 96.5751 119.084C98.468 118.781 100.384 119.225 101.95 120.346C103.516 121.468 104.544 123.127 104.848 125.044C104.918 125.441 104.941 125.815 104.941 126.212C104.941 127.708 104.474 129.157 103.586 130.418C102.464 131.984 100.805 133.012 98.8886 133.316C98.8419 133.316 98.7951 133.34 98.7484 133.34C98.3277 133.363 98.0006 133.386 97.65 133.386Z" fill="white"/>
<path d="M109.335 118.594C109.265 118.594 109.171 118.547 109.124 118.477C108.961 118.197 108.797 117.916 108.657 117.636C108.61 117.519 108.657 117.379 108.774 117.332C108.891 117.285 109.031 117.332 109.078 117.449C109.218 117.729 109.358 117.986 109.522 118.243C109.592 118.36 109.545 118.5 109.452 118.57C109.428 118.594 109.382 118.594 109.335 118.594Z" fill="#0071DC"/>
<path d="M108.096 115.135C107.979 115.135 107.885 115.042 107.862 114.925C107.792 114.481 107.769 114.037 107.769 113.57C107.769 113.43 107.769 113.313 107.769 113.172C107.769 113.032 107.885 112.939 108.002 112.939C108.142 112.939 108.236 113.056 108.236 113.172C108.236 113.289 108.236 113.43 108.236 113.546C108.236 113.967 108.259 114.411 108.329 114.832C108.353 114.949 108.259 115.089 108.142 115.089C108.119 115.135 108.096 115.135 108.096 115.135ZM108.54 110.719C108.516 110.719 108.493 110.719 108.47 110.695C108.353 110.649 108.283 110.508 108.329 110.392C108.516 109.854 108.773 109.317 109.077 108.802C109.147 108.686 109.288 108.662 109.404 108.709C109.521 108.779 109.545 108.919 109.498 109.036C109.217 109.504 108.984 110.018 108.797 110.532C108.727 110.649 108.633 110.719 108.54 110.719ZM111.017 107.026C110.947 107.026 110.9 107.003 110.853 106.956C110.76 106.863 110.783 106.723 110.877 106.629C111.297 106.232 111.788 105.881 112.279 105.577C112.396 105.507 112.536 105.554 112.606 105.648C112.676 105.764 112.629 105.905 112.536 105.975C112.068 106.255 111.624 106.606 111.204 106.98C111.134 107.003 111.064 107.026 111.017 107.026ZM114.92 104.947C114.826 104.947 114.709 104.876 114.686 104.76C114.662 104.643 114.733 104.503 114.849 104.479C115.013 104.432 115.177 104.409 115.34 104.362C115.737 104.292 116.158 104.222 116.579 104.199C116.696 104.199 116.812 104.292 116.836 104.409C116.836 104.549 116.742 104.643 116.625 104.666C116.228 104.689 115.831 104.736 115.457 104.806C115.293 104.83 115.13 104.876 114.99 104.923C114.966 104.923 114.943 104.947 114.92 104.947Z" fill="#0071DC"/>
<path d="M120.271 105.204C120.248 105.204 120.225 105.204 120.201 105.18C119.921 105.087 119.617 104.993 119.337 104.923C119.22 104.9 119.126 104.76 119.173 104.643C119.196 104.526 119.337 104.432 119.453 104.479C119.757 104.549 120.061 104.643 120.365 104.76C120.482 104.806 120.552 104.947 120.505 105.063C120.458 105.134 120.365 105.204 120.271 105.204Z" fill="#0071DC"/>
<path d="M125.739 110.601C125.646 110.601 125.552 110.555 125.529 110.461C125.412 110.181 125.295 109.9 125.155 109.62C125.108 109.503 125.155 109.363 125.249 109.316C125.365 109.269 125.506 109.316 125.552 109.41C125.693 109.69 125.833 109.994 125.926 110.298C125.973 110.415 125.903 110.555 125.786 110.601C125.809 110.578 125.786 110.601 125.739 110.601Z" fill="#0071DC"/>
<path d="M117.257 122.987C117.14 122.987 117.023 122.893 117.023 122.753C117.023 122.613 117.116 122.52 117.257 122.52C117.794 122.52 118.355 122.449 118.892 122.356C119.009 122.333 119.15 122.403 119.173 122.543C119.196 122.66 119.126 122.8 118.986 122.823C118.402 122.94 117.817 122.987 117.257 122.987ZM121.486 121.912C121.393 121.912 121.323 121.865 121.276 121.795C121.206 121.678 121.253 121.538 121.37 121.468C121.86 121.211 122.304 120.907 122.725 120.58C122.818 120.51 122.982 120.51 123.052 120.627C123.122 120.72 123.122 120.884 123.005 120.954C122.561 121.304 122.071 121.632 121.58 121.889C121.557 121.912 121.51 121.912 121.486 121.912ZM124.735 119.014C124.688 119.014 124.641 118.991 124.595 118.967C124.478 118.897 124.454 118.757 124.524 118.64C124.828 118.196 125.109 117.706 125.319 117.215C125.366 117.098 125.506 117.051 125.623 117.098C125.74 117.145 125.786 117.285 125.74 117.402C125.506 117.916 125.226 118.43 124.898 118.897C124.875 118.967 124.805 119.014 124.735 119.014ZM126.277 114.925H126.254C126.137 114.901 126.043 114.784 126.043 114.668C126.09 114.317 126.114 113.966 126.114 113.616C126.114 113.429 126.114 113.242 126.09 113.032C126.09 112.892 126.184 112.798 126.3 112.775C126.441 112.775 126.534 112.868 126.558 112.985C126.581 113.195 126.581 113.382 126.581 113.593C126.581 113.966 126.558 114.34 126.511 114.714C126.487 114.831 126.394 114.925 126.277 114.925Z" fill="#0071DC"/>
<path d="M114.546 122.613C114.522 122.613 114.499 122.613 114.476 122.613C114.172 122.52 113.868 122.403 113.564 122.286C113.447 122.239 113.377 122.099 113.447 121.982C113.494 121.865 113.634 121.795 113.751 121.865C114.032 121.982 114.312 122.076 114.616 122.169C114.733 122.216 114.803 122.333 114.779 122.45C114.756 122.543 114.663 122.613 114.546 122.613Z" fill="#0071DC"/>
<path d="M113.682 119.716C113.728 119.739 113.775 119.739 113.799 119.716L114.897 118.945C115.481 119.178 116.089 119.342 116.743 119.389L117.374 120.557C117.397 120.604 117.444 120.627 117.491 120.604L119.08 120.347C119.127 120.347 119.173 120.3 119.173 120.253L119.407 118.945C119.991 118.711 120.552 118.36 121.02 117.94L122.305 118.337C122.352 118.36 122.398 118.337 122.422 118.29L123.356 116.982C123.38 116.935 123.38 116.888 123.356 116.865L122.585 115.766C122.819 115.182 122.983 114.575 123.029 113.92L124.198 113.289C124.244 113.266 124.268 113.219 124.244 113.172L123.987 111.583C123.987 111.537 123.941 111.49 123.894 111.49L122.585 111.256C122.352 110.672 122.001 110.111 121.58 109.644L121.978 108.358C122.001 108.312 121.978 108.265 121.931 108.242L120.622 107.307C120.576 107.283 120.529 107.283 120.505 107.307L119.407 108.078C118.823 107.844 118.215 107.681 117.561 107.634L116.93 106.465C116.907 106.419 116.86 106.395 116.813 106.419L115.224 106.676C115.177 106.676 115.131 106.723 115.131 106.769L114.897 108.078C114.313 108.312 113.752 108.662 113.284 109.083L111.999 108.686C111.952 108.662 111.906 108.686 111.882 108.732L110.947 110.041C110.924 110.088 110.924 110.134 110.947 110.158L111.719 111.256C111.485 111.84 111.321 112.448 111.275 113.102L110.106 113.733C110.059 113.757 110.036 113.803 110.059 113.85L110.317 115.439C110.317 115.486 110.363 115.533 110.41 115.533L111.719 115.766C111.952 116.351 112.303 116.911 112.724 117.379L112.326 118.664C112.303 118.711 112.326 118.758 112.373 118.781L113.682 119.716Z" fill="url(#paint58_linear_147_1547)"/>
<path d="M117.164 115.299C116.486 115.299 115.808 114.902 115.528 114.224C115.13 113.336 115.551 112.284 116.462 111.887C117.351 111.49 118.402 111.91 118.799 112.822C119.197 113.71 118.776 114.761 117.865 115.159C117.631 115.252 117.397 115.299 117.164 115.299ZM117.164 112.448C117.023 112.448 116.883 112.471 116.743 112.541C116.486 112.658 116.276 112.868 116.159 113.126C116.042 113.383 116.065 113.686 116.182 113.943C116.416 114.481 117.047 114.738 117.608 114.504C118.145 114.271 118.402 113.64 118.168 113.079C118.052 112.822 117.841 112.611 117.584 112.495C117.421 112.471 117.304 112.448 117.164 112.448Z" fill="white"/>
<path d="M117.164 117.729C117.093 117.729 117.023 117.729 116.953 117.729L117 117.028C117.257 117.052 117.491 117.028 117.748 116.981C119.594 116.678 120.856 114.995 120.692 113.172C120.692 113.102 120.669 113.009 120.669 112.939C120.365 111.022 118.542 109.714 116.626 110.017C114.897 110.298 113.658 111.794 113.658 113.499C113.658 113.686 113.682 113.873 113.705 114.06C113.798 114.691 114.079 115.276 114.499 115.766L113.962 116.21C113.471 115.626 113.144 114.925 113.027 114.154C112.98 113.92 112.98 113.686 112.98 113.476C112.98 111.443 114.453 109.644 116.533 109.316C118.823 108.943 121.019 110.508 121.393 112.822C121.44 113.055 121.44 113.289 121.44 113.499C121.44 115.533 119.968 117.332 117.888 117.659C117.748 117.683 117.608 117.706 117.467 117.706C117.444 117.706 117.421 117.706 117.397 117.706C117.304 117.729 117.234 117.729 117.164 117.729Z" fill="white"/>
<defs>
<linearGradient id="paint0_linear_147_1547" x1="67.1748" y1="12.8528" x2="9.39343" y2="89.5669" gradientUnits="userSpaceOnUse">
<stop stop-color="#5EB0FF"/>
<stop offset="1" stop-color="#0071DC"/>
</linearGradient>
<linearGradient id="paint1_linear_147_1547" x1="67.1748" y1="12.8532" x2="9.39359" y2="89.5672" gradientUnits="userSpaceOnUse">
<stop stop-color="#59AEFF"/>
<stop offset="1" stop-color="#0071DC"/>
</linearGradient>
<linearGradient id="paint2_linear_147_1547" x1="67.175" y1="12.8527" x2="9.39385" y2="89.5665" gradientUnits="userSpaceOnUse">
<stop stop-color="#52ABFF"/>
<stop offset="1" stop-color="#0071DC"/>
</linearGradient>
<linearGradient id="paint3_linear_147_1547" x1="36.185" y1="39.9745" x2="69.0051" y2="20.1203" gradientUnits="userSpaceOnUse">
<stop stop-color="#55ACFF"/>
<stop offset="1" stop-color="#0071DC"/>
</linearGradient>
<linearGradient id="paint4_linear_147_1547" x1="47.2491" y1="39.9663" x2="70.481" y2="20.6964" gradientUnits="userSpaceOnUse">
<stop stop-color="#FFCC47"/>
<stop offset="1" stop-color="#FFC221"/>
</linearGradient>
<linearGradient id="paint5_linear_147_1547" x1="78.1373" y1="12.4981" x2="109.812" y2="-13.7744" gradientUnits="userSpaceOnUse">
<stop stop-color="#FFCD48"/>
<stop offset="1" stop-color="#FFC221"/>
</linearGradient>
<linearGradient id="paint6_linear_147_1547" x1="75.571" y1="9.93193" x2="101.843" y2="-21.7422" gradientUnits="userSpaceOnUse">
<stop stop-color="#FFCC46"/>
<stop offset="1" stop-color="#FFC221"/>
</linearGradient>
<linearGradient id="paint7_linear_147_1547" x1="189.992" y1="25.0181" x2="116.511" y2="144.018" gradientUnits="userSpaceOnUse">
<stop stop-color="#FFCD48"/>
<stop offset="1" stop-color="#FFC221"/>
</linearGradient>
<linearGradient id="paint8_linear_147_1547" x1="140.173" y1="108.317" x2="81.2146" y2="111.785" gradientUnits="userSpaceOnUse">
<stop stop-color="#FFCD48"/>
<stop offset="1" stop-color="#FFC221"/>
</linearGradient>
<linearGradient id="paint9_linear_147_1547" x1="114.143" y1="105.681" x2="46.2983" y2="106.982" gradientUnits="userSpaceOnUse">
<stop stop-color="#FFCA3E"/>
<stop offset="1" stop-color="#FFC221"/>
</linearGradient>
<linearGradient id="paint10_linear_147_1547" x1="60.7112" y1="142.25" x2="36.0019" y2="108.112" gradientUnits="userSpaceOnUse">
<stop stop-color="#FFCC45"/>
<stop offset="0.2814" stop-color="#FFD156"/>
<stop offset="1" stop-color="#FFC221"/>
</linearGradient>
<linearGradient id="paint11_linear_147_1547" x1="24.4695" y1="7.19002" x2="62.028" y2="16.633" gradientUnits="userSpaceOnUse">
<stop stop-color="#0071DC"/>
<stop offset="1" stop-color="#99CDFF"/>
</linearGradient>
<linearGradient id="paint12_linear_147_1547" x1="65.5959" y1="19.6814" x2="86.3547" y2="24.9005" gradientUnits="userSpaceOnUse">
<stop stop-color="#0071DC"/>
<stop offset="1" stop-color="#9ED0FF"/>
</linearGradient>
<linearGradient id="paint13_linear_147_1547" x1="140.709" y1="11.0651" x2="111.683" y2="36.1052" gradientUnits="userSpaceOnUse">
<stop stop-color="#FFCC47"/>
<stop offset="1" stop-color="#FFC221"/>
</linearGradient>
<linearGradient id="paint14_linear_147_1547" x1="93.1039" y1="31.1855" x2="124.478" y2="58.251" gradientUnits="userSpaceOnUse">
<stop stop-color="#5EB0FF"/>
<stop offset="1" stop-color="#0071DC"/>
</linearGradient>
<linearGradient id="paint15_linear_147_1547" x1="147.237" y1="60.8497" x2="94.3173" y2="142.804" gradientUnits="userSpaceOnUse">
<stop stop-color="#56ADFF"/>
<stop offset="1" stop-color="#0071DC"/>
</linearGradient>
<linearGradient id="paint16_linear_147_1547" x1="142.657" y1="69.4465" x2="130.075" y2="81.3871" gradientUnits="userSpaceOnUse">
<stop stop-color="#FFCD49"/>
<stop offset="1" stop-color="#FFC221"/>
</linearGradient>
<linearGradient id="paint17_linear_147_1547" x1="150.777" y1="70.173" x2="139.608" y2="80.7728" gradientUnits="userSpaceOnUse">
<stop stop-color="#FFCD48"/>
<stop offset="1" stop-color="#FFC221"/>
</linearGradient>
<linearGradient id="paint18_linear_147_1547" x1="159.824" y1="70.1951" x2="148.655" y2="80.795" gradientUnits="userSpaceOnUse">
<stop stop-color="#FFCF4F"/>
<stop offset="1" stop-color="#FFC221"/>
</linearGradient>
<linearGradient id="paint19_linear_147_1547" x1="35.8718" y1="138.616" x2="31.0537" y2="108.308" gradientUnits="userSpaceOnUse">
<stop stop-color="#FFC631"/>
<stop offset="1" stop-color="#FFC221"/>
</linearGradient>
<linearGradient id="paint20_linear_147_1547" x1="33.979" y1="138.857" x2="29.0603" y2="107.917" gradientUnits="userSpaceOnUse">
<stop stop-color="#FFC837"/>
<stop offset="1" stop-color="#FFC221"/>
</linearGradient>
<linearGradient id="paint21_linear_147_1547" x1="37.8835" y1="139.757" x2="32.7628" y2="107.547" gradientUnits="userSpaceOnUse">
<stop stop-color="#FFC734"/>
<stop offset="1" stop-color="#FFC221"/>
</linearGradient>
<linearGradient id="paint22_linear_147_1547" x1="51.973" y1="130.827" x2="48.0378" y2="138.566" gradientUnits="userSpaceOnUse">
<stop stop-color="#2B3582"/>
<stop offset="1" stop-color="#150E42"/>
</linearGradient>
<linearGradient id="paint23_linear_147_1547" x1="44.49" y1="133.906" x2="48.4102" y2="133.906" gradientUnits="userSpaceOnUse">
<stop stop-color="#F9B776"/>
<stop offset="1" stop-color="#F47960"/>
</linearGradient>
<linearGradient id="paint24_linear_147_1547" x1="41.6548" y1="137.524" x2="45.3339" y2="137.524" gradientUnits="userSpaceOnUse">
<stop stop-color="#F9B776"/>
<stop offset="1" stop-color="#F47960"/>
</linearGradient>
<linearGradient id="paint25_linear_147_1547" x1="55.8203" y1="104.807" x2="46.7693" y2="90.6402" gradientUnits="userSpaceOnUse">
<stop stop-color="#50C7FE"/>
<stop offset="1" stop-color="#0071DC"/>
</linearGradient>
<linearGradient id="paint26_linear_147_1547" x1="52.897" y1="95.0972" x2="65.7312" y2="95.0972" gradientUnits="userSpaceOnUse">
<stop stop-color="#F9B776"/>
<stop offset="1" stop-color="#F47960"/>
</linearGradient>
<linearGradient id="paint27_linear_147_1547" x1="46.9776" y1="79.7272" x2="18.1195" y2="100.715" gradientUnits="userSpaceOnUse">
<stop stop-color="#53D8FF"/>
<stop offset="1" stop-color="#3840F7"/>
</linearGradient>
<linearGradient id="paint28_linear_147_1547" x1="40.6514" y1="76.156" x2="49.1668" y2="76.156" gradientUnits="userSpaceOnUse">
<stop stop-color="#F9B776"/>
<stop offset="1" stop-color="#F47960"/>
</linearGradient>
<linearGradient id="paint29_linear_147_1547" x1="42.8393" y1="74.0366" x2="13.9812" y2="95.0243" gradientUnits="userSpaceOnUse">
<stop stop-color="#53D8FF"/>
<stop offset="1" stop-color="#3840F7"/>
</linearGradient>
<linearGradient id="paint30_linear_147_1547" x1="22.1411" y1="87.0946" x2="47.3264" y2="85.6517" gradientUnits="userSpaceOnUse">
<stop stop-color="#53D8FF"/>
<stop offset="1" stop-color="#3840F7"/>
</linearGradient>
<linearGradient id="paint31_linear_147_1547" x1="34.8446" y1="95.2517" x2="2.24323" y2="151.903" gradientUnits="userSpaceOnUse">
<stop stop-color="#F9B776"/>
<stop offset="1" stop-color="#F47960"/>
</linearGradient>
<linearGradient id="paint32_linear_147_1547" x1="50.0395" y1="66.5472" x2="43.2511" y2="82.8438" gradientUnits="userSpaceOnUse">
<stop stop-color="#F9B776"/>
<stop offset="1" stop-color="#F47960"/>
</linearGradient>
<linearGradient id="paint33_linear_147_1547" x1="43.0161" y1="71.8688" x2="55.3288" y2="68.6911" gradientUnits="userSpaceOnUse">
<stop stop-color="#2E2E2E"/>
<stop offset="1" stop-color="#2E2E2E"/>
</linearGradient>
<linearGradient id="paint34_linear_147_1547" x1="37.7304" y1="81.2425" x2="43.8089" y2="70.6265" gradientUnits="userSpaceOnUse">
<stop stop-color="#F9B776"/>
<stop offset="1" stop-color="#F47960"/>
</linearGradient>
<linearGradient id="paint35_linear_147_1547" x1="39.1331" y1="94.5771" x2="55.5802" y2="99.9714" gradientUnits="userSpaceOnUse">
<stop stop-color="#2B3582"/>
<stop offset="1" stop-color="#150E42"/>
</linearGradient>
<linearGradient id="paint36_linear_147_1547" x1="68.8872" y1="86.9105" x2="74.2616" y2="95.0036" gradientUnits="userSpaceOnUse">
<stop stop-color="#53D8FF"/>
<stop offset="0.0572917" stop-color="#54ACFF"/>
<stop offset="1" stop-color="#0071DC"/>
</linearGradient>
<linearGradient id="paint37_linear_147_1547" x1="80.1118" y1="123.13" x2="60.1104" y2="123.13" gradientUnits="userSpaceOnUse">
<stop stop-color="#0071DC"/>
<stop offset="1" stop-color="#A3D2FF"/>
</linearGradient>
<linearGradient id="paint38_linear_147_1547" x1="77.8025" y1="123.13" x2="57.8011" y2="123.13" gradientUnits="userSpaceOnUse">
<stop stop-color="#0071DC"/>
<stop offset="1" stop-color="#9FD0FF"/>
</linearGradient>
<linearGradient id="paint39_linear_147_1547" x1="23.5904" y1="123.13" x2="3.58907" y2="123.13" gradientUnits="userSpaceOnUse">
<stop stop-color="#0071DC"/>
<stop offset="1" stop-color="#9ED0FF"/>
</linearGradient>
<linearGradient id="paint40_linear_147_1547" x1="21.2811" y1="123.13" x2="1.27973" y2="123.13" gradientUnits="userSpaceOnUse">
<stop stop-color="#0071DC"/>
<stop offset="1" stop-color="#A7D4FF"/>
</linearGradient>
<linearGradient id="paint41_linear_147_1547" x1="84.8284" y1="102.137" x2="-0.00656342" y2="102.137" gradientUnits="userSpaceOnUse">
<stop stop-color="#9BCEFF"/>
<stop offset="1" stop-color="#0071DC"/>
</linearGradient>
<linearGradient id="paint42_linear_147_1547" x1="139.239" y1="139.55" x2="137.577" y2="139.55" gradientUnits="userSpaceOnUse">
<stop stop-color="#F9B776"/>
<stop offset="1" stop-color="#F47960"/>
</linearGradient>
<linearGradient id="paint43_linear_147_1547" x1="145.229" y1="139.465" x2="143.794" y2="139.465" gradientUnits="userSpaceOnUse">
<stop stop-color="#F9B776"/>
<stop offset="1" stop-color="#F47960"/>
</linearGradient>
<linearGradient id="paint44_linear_147_1547" x1="137.786" y1="97.2519" x2="145.966" y2="141.407" gradientUnits="userSpaceOnUse">
<stop stop-color="#93CAFF"/>
<stop offset="1" stop-color="#0071DC"/>
</linearGradient>
<linearGradient id="paint45_linear_147_1547" x1="122.928" y1="93.2961" x2="148.29" y2="108.803" gradientUnits="userSpaceOnUse">
<stop stop-color="#F9B776"/>
<stop offset="1" stop-color="#F47960"/>
</linearGradient>
<linearGradient id="paint46_linear_147_1547" x1="122.71" y1="87.1706" x2="125.643" y2="95.5495" gradientUnits="userSpaceOnUse">
<stop stop-color="#F9B776"/>
<stop offset="1" stop-color="#F47960"/>
</linearGradient>
<linearGradient id="paint47_linear_147_1547" x1="124.964" y1="92.5239" x2="122.755" y2="88.0678" gradientUnits="userSpaceOnUse">
<stop stop-color="#F9B776"/>
<stop offset="1" stop-color="#F47960"/>
</linearGradient>
<linearGradient id="paint48_linear_147_1547" x1="146.043" y1="95.7222" x2="154.223" y2="139.877" gradientUnits="userSpaceOnUse">
<stop stop-color="#94CBFF"/>
<stop offset="1" stop-color="#0071DC"/>
</linearGradient>
<linearGradient id="paint49_linear_147_1547" x1="150.981" y1="108.215" x2="140.235" y2="108.215" gradientUnits="userSpaceOnUse">
<stop stop-color="#F9B776"/>
<stop offset="1" stop-color="#F47960"/>
</linearGradient>
<linearGradient id="paint50_linear_147_1547" x1="136.984" y1="100.575" x2="131.075" y2="125.196" gradientUnits="userSpaceOnUse">
<stop stop-color="#53D8FF"/>
<stop offset="1" stop-color="#3840F7"/>
</linearGradient>
<linearGradient id="paint51_linear_147_1547" x1="133.285" y1="96.694" x2="134.543" y2="102.22" gradientUnits="userSpaceOnUse">
<stop stop-color="#53D8FF"/>
<stop offset="1" stop-color="#3840F7"/>
</linearGradient>
<linearGradient id="paint52_linear_147_1547" x1="133.944" y1="99.012" x2="134.545" y2="102.623" gradientUnits="userSpaceOnUse">
<stop stop-color="#53D8FF"/>
<stop offset="1" stop-color="#3840F7"/>
</linearGradient>
<linearGradient id="paint53_linear_147_1547" x1="141.033" y1="107.088" x2="137.685" y2="107.088" gradientUnits="userSpaceOnUse">
<stop stop-color="#F9B776"/>
<stop offset="1" stop-color="#F47960"/>
</linearGradient>
<linearGradient id="paint54_linear_147_1547" x1="142.73" y1="96.7269" x2="138.481" y2="96.7269" gradientUnits="userSpaceOnUse">
<stop stop-color="#F9B776"/>
<stop offset="1" stop-color="#F47960"/>
</linearGradient>
<linearGradient id="paint55_linear_147_1547" x1="137.47" y1="94.0241" x2="142.142" y2="91.1749" gradientUnits="userSpaceOnUse">
<stop stop-color="#F9B776"/>
<stop offset="1" stop-color="#F47960"/>
</linearGradient>
<linearGradient id="paint56_linear_147_1547" x1="138.698" y1="95.0868" x2="142.901" y2="92.5233" gradientUnits="userSpaceOnUse">
<stop stop-color="#F9B776"/>
<stop offset="1" stop-color="#F47960"/>
</linearGradient>
<linearGradient id="paint57_linear_147_1547" x1="96.242" y1="113.798" x2="99.0119" y2="138.69" gradientUnits="userSpaceOnUse">
<stop stop-color="#0071DC"/>
<stop offset="1" stop-color="#9DCFFF"/>
</linearGradient>
<linearGradient id="paint58_linear_147_1547" x1="116.375" y1="106.48" x2="117.942" y2="120.563" gradientUnits="userSpaceOnUse">
<stop stop-color="#0071DC"/>
<stop offset="1" stop-color="#9ED0FF"/>
</linearGradient>
</defs>
</svg>
