<svg width="106" height="122" viewBox="0 0 106 122" fill="none" xmlns="http://www.w3.org/2000/svg">
<path d="M38.0159 67.1367C35.5257 67.1815 33.4937 64.9254 33.4937 62.1064V8.38204C33.4937 5.56309 35.5257 3.32187 38.0159 3.3916L121.713 5.67764C123.904 5.7374 125.682 7.92881 125.682 10.5635V60.7517C125.682 63.3864 123.904 65.5629 121.713 65.6027L38.0159 67.1367Z" fill="#9AA9B8"/>
<path d="M121.713 7.23159L38.016 5.04516C36.3824 5.00034 35.0576 6.5144 35.0576 8.42192V62.0866C35.0576 63.9941 36.3824 65.5181 38.016 65.4882L121.713 64.0538C123.152 64.0289 124.318 62.5597 124.318 60.7767V10.5287C124.318 8.74565 123.152 7.26645 121.713 7.23159Z" fill="url(#paint0_linear_147_923)"/>
<path d="M89.7234 56.6081L83.8564 56.6728V45.5464L89.7234 45.5315V56.6081Z" fill="#D5DDE5"/>
<path d="M99.3902 56.4986L93.6079 56.5633V41.8809H99.3902V56.4986Z" fill="#D5DDE5"/>
<path d="M108.918 56.3939L103.216 56.4536V37.0796L108.918 37.0995V56.3939Z" fill="#D5DDE5"/>
<path d="M83.8561 36.0636C83.7217 36.0636 83.5922 36.0337 83.4627 35.9739C82.9447 35.7299 82.7007 35.0724 82.9198 34.5047C83.1688 33.8522 83.7765 33.7725 84.1002 33.7327C84.3442 33.6978 84.6779 33.6729 85.1013 33.6331C98.9619 32.4079 108.853 26.3616 114.675 15.7133C114.954 15.2053 115.552 15.0509 116.01 15.3747C116.468 15.6984 116.613 16.3707 116.334 16.8837C112.394 24.1004 106.647 29.3798 99.206 32.5722C93.1945 35.1521 87.6562 35.6502 85.2756 35.8643C84.8821 35.8992 84.4737 35.9341 84.2845 35.9639C84.15 36.0287 84.0056 36.0636 83.8561 36.0636Z" fill="#D5DDE5"/>
<path opacity="0.68" d="M44.9783 16.6845C44.9783 17.6407 44.2512 18.4028 43.3547 18.3878C42.4582 18.3729 41.7261 17.581 41.7261 16.6247C41.7261 15.6635 42.4532 14.9015 43.3547 14.9214C44.2512 14.9413 44.9783 15.7282 44.9783 16.6845Z" fill="#D5DDE5"/>
<path opacity="0.68" d="M75.2452 21.0075L47.4292 20.5842V12.8744L75.2452 13.4521V21.0075Z" fill="#D5DDE5"/>
<path opacity="0.68" d="M44.9783 27.2132C44.9783 28.1694 44.2512 28.9414 43.3547 28.9314C42.4582 28.9215 41.7261 28.1396 41.7261 27.1783C41.7261 26.2171 42.4532 25.4501 43.3547 25.4601C44.2512 25.47 44.9783 26.252 44.9783 27.2132Z" fill="#D5DDE5"/>
<path opacity="0.68" d="M75.2452 31.3021L47.4292 31.093V23.3832L75.2452 23.7468V31.3021Z" fill="#D5DDE5"/>
<path opacity="0.68" d="M44.9783 48.2606C44.9783 49.2168 44.2512 49.9988 43.3547 50.0038C42.4582 50.0087 41.7261 49.2368 41.7261 48.2755C41.7261 47.3143 42.4532 46.5374 43.3547 46.5324C44.2512 46.5274 44.9783 47.3043 44.9783 48.2606Z" fill="#D5DDE5"/>
<path opacity="0.68" d="M75.2452 50.0038L47.4292 50.1732V46.3183L75.2452 46.2236V50.0038Z" fill="#D5DDE5"/>
<path opacity="0.68" d="M44.9783 55.1786C44.9783 56.1348 44.2512 56.9167 43.3547 56.9267C42.4582 56.9367 41.7261 56.1697 41.7261 55.2084C41.7261 54.2472 42.4532 53.4653 43.3547 53.4603C44.2512 53.4503 44.9783 54.2223 44.9783 55.1786Z" fill="#D5DDE5"/>
<path opacity="0.68" d="M75.2452 56.7674L47.4292 57.0812V53.2263L75.2452 52.9922V56.7674Z" fill="#D5DDE5"/>
<path d="M130.762 111.448L1.29492 110.342V113.61C1.29492 114.496 1.85772 115.248 2.62471 115.383L39.2362 121.812C39.6695 121.887 40.1128 121.907 40.551 121.872L129.358 114.541C130.15 114.476 130.762 113.719 130.762 112.808V111.448Z" fill="#2E2E2E"/>
<path d="M83.7816 106.214L2.63467 112.185C1.18037 112.29 0 111.154 0 109.65V49.222C0 47.7129 1.18037 46.4927 2.63467 46.4927H83.7816C84.9769 46.4927 85.9431 47.5983 85.9431 48.963V103.589C85.9431 104.949 84.9769 106.124 83.7816 106.214Z" fill="#2E2E2E"/>
<path d="M85.0765 106.214L3.92959 112.185C2.47529 112.29 1.29492 111.154 1.29492 109.65V49.222C1.29492 47.7129 2.47529 46.4927 3.92959 46.4927H85.0765C86.2718 46.4927 87.238 47.5983 87.238 48.963V103.589C87.238 104.949 86.2718 106.124 85.0765 106.214Z" fill="url(#paint1_linear_147_923)"/>
<path d="M82.5465 102.364L6.96778 107.553C5.7874 107.633 4.82617 106.702 4.82617 105.472V52.564C4.82617 51.3338 5.7874 50.3327 6.96778 50.3228L82.5465 49.999C83.5327 49.9941 84.3295 50.9005 84.3295 52.0211V100.207C84.3295 101.333 83.5327 102.294 82.5465 102.364Z" fill="url(#paint2_linear_147_923)"/>
<path d="M47.3696 48.1463C47.3696 48.7091 46.9513 49.1623 46.4383 49.1673C45.9203 49.1673 45.502 48.714 45.502 48.1512C45.502 47.5885 45.9203 47.1302 46.4383 47.1302C46.9513 47.1302 47.3696 47.5835 47.3696 48.1463Z" fill="white"/>
<path opacity="0.48" d="M3.92951 112.185L84.663 106.243L85.0714 106.214C85.6193 106.174 86.1173 105.9 86.5008 105.491C80.6886 105.173 77.0827 103.111 74.7569 100.979C70.0802 96.7009 70.892 92.4824 65.8518 89.6684C59.5664 86.1622 54.6208 90.6048 49.8495 86.217C46.9558 83.5574 48.3753 81.5752 44.8192 77.6007C40.8747 73.198 38.3097 74.6772 34.3503 70.7177C29.3399 65.7074 31.8451 61.8126 27.532 58.2167C22.2975 53.8538 16.6497 57.893 11.6692 53.7094C9.51761 51.9065 8.34221 49.2817 7.72464 46.4927H3.93449C2.48019 46.4927 1.29982 47.7179 1.29982 49.222V109.65C1.29484 111.159 2.47521 112.295 3.92951 112.185Z" fill="white"/>
<path d="M88.3088 105.885L1.29492 112.17L39.2362 118.834C39.6695 118.909 40.1128 118.929 40.551 118.894L130.767 111.448L89.6984 105.925C89.2352 105.865 88.772 105.85 88.3088 105.885Z" fill="url(#paint3_linear_147_923)"/>
<path d="M13.9902 112.225L86.4313 106.911L108.853 109.899L37.0349 115.582L13.9902 112.225Z" fill="#2E2E2E"/>
<path d="M44.8241 44.5105L47.3442 44.4956C47.3442 44.4956 53.3805 36.8605 57.4595 36.4372L57.838 14.9215C42.2143 14.9713 28.4233 23.7768 22.1479 36.7858L44.8241 44.5105Z" fill="url(#paint4_linear_147_923)"/>
<path d="M74.9611 54.0481C73.6811 61.1154 67.2414 66.6736 59.3523 66.9226C57.4099 66.9824 55.1438 65.817 55.1438 65.817C55.1438 65.817 53.0669 65.9315 52.7083 65.7921L40.3916 84.8623C46.1142 87.4472 52.5838 88.7122 59.3473 88.3237C79.0202 87.1932 94.4846 72.3862 96.2028 54.5561L74.9611 54.0481Z" fill="url(#paint5_linear_147_923)"/>
<path d="M36.5413 82.8552L39.0067 82.9399L48.9726 63.7302C45.2572 60.976 42.8665 56.6928 42.8665 51.8368C42.8665 50.6614 43.006 49.5209 43.27 48.4152L22.9745 40.7552L20.5042 40.7851C19.284 44.3711 18.6216 48.1811 18.6216 52.1356C18.6216 65.2144 25.7985 76.4802 36.5413 82.8552Z" fill="url(#paint6_linear_147_923)"/>
<path d="M61.7622 36.5318C68.949 37.6026 74.4724 43.1708 75.1298 50.0488L109.869 51.0549C109.869 51.0499 109.869 51.0399 109.869 51.0349C109.869 51.0349 109.869 51.025 109.869 51.015C109.869 50.9901 115.108 50.1733 115.108 50.1683C115.108 49.9293 67.6541 0.0498047 67.6541 0.0498047L62.3897 0.916409C62.3848 0.911428 61.9714 24.6583 61.7622 36.5318Z" fill="url(#paint7_linear_147_923)"/>
<path d="M47.3089 44.5105C49.8241 40.1078 54.5057 37 59.9444 36.4372L60.3229 14.9215C44.6992 14.9713 30.9082 23.7768 24.6328 36.7858L47.3089 44.5105Z" fill="url(#paint8_linear_147_923)"/>
<path d="M77.4459 54.0481C76.1659 61.1154 69.7261 66.6736 61.837 66.9226C59.4863 66.9973 57.2351 66.5889 55.1981 65.797L42.8813 84.8673C48.6039 87.4522 55.0736 88.7172 61.837 88.3287C81.5099 87.1982 96.9743 72.3912 98.6926 54.5611L77.4459 54.0481Z" fill="url(#paint9_linear_147_923)"/>
<path d="M39.0267 82.8552L51.453 63.7302C47.7375 60.976 45.3469 56.6928 45.3469 51.8368C45.3469 50.6614 45.4864 49.5209 45.7503 48.4152L22.9896 40.7852C21.7693 44.3711 21.1069 48.1812 21.1069 52.1357C21.1069 65.2144 28.2838 76.4802 39.0267 82.8552Z" fill="url(#paint10_linear_147_923)"/>
<path d="M67.002 35.6254C74.1888 36.6962 79.7121 42.2643 80.3695 49.1424L115.108 50.1484C115.108 50.1335 115.108 50.1185 115.108 50.1036C115.108 24.6185 94.803 2.80899 67.6245 0L67.002 35.6254Z" fill="url(#paint11_linear_147_923)"/>
<g opacity="0.3">
<path d="M57.0863 66.3996C56.4388 66.2353 55.8063 66.0311 55.1937 65.792L42.877 84.8622C48.5995 87.4471 55.0692 88.7121 61.8326 88.3237C67.2962 88.0099 72.4361 86.6403 77.048 84.4439C72.3913 83.7367 68.2375 81.9736 64.9205 79.0301C61.1453 75.6733 58.695 71.0115 57.0863 66.3996Z" fill="url(#paint12_linear_147_923)"/>
</g>
<g opacity="0.3">
<path d="M52.9524 23.463C51.4881 20.7636 49.3963 18.7216 47.0505 17.1577C37.1792 20.5644 29.0461 27.6366 24.6284 36.7858L47.3045 44.5105C48.8784 41.7563 51.2989 39.5101 54.2274 38.0757C54.8201 32.3482 55.4924 28.1397 52.9524 23.463Z" fill="url(#paint13_linear_147_923)"/>
</g>
<defs>
<linearGradient id="paint0_linear_147_923" x1="35.293" y1="78.7357" x2="141.037" y2="-26.4043" gradientUnits="userSpaceOnUse">
<stop offset="0.00359712" stop-color="#EBEDF0"/>
<stop offset="1" stop-color="white"/>
</linearGradient>
<linearGradient id="paint1_linear_147_923" x1="1.29572" y1="79.343" x2="87.2382" y2="79.343" gradientUnits="userSpaceOnUse">
<stop stop-color="#82C2FF"/>
<stop offset="0.9964" stop-color="#0071DC"/>
</linearGradient>
<linearGradient id="paint2_linear_147_923" x1="62.3586" y1="51.303" x2="0.742636" y2="138.25" gradientUnits="userSpaceOnUse">
<stop stop-color="#FFF0C8"/>
<stop offset="0.9964" stop-color="#FFF6DE"/>
</linearGradient>
<linearGradient id="paint3_linear_147_923" x1="1.29572" y1="112.388" x2="130.764" y2="112.388" gradientUnits="userSpaceOnUse">
<stop stop-color="#7DC0FF"/>
<stop offset="0.9964" stop-color="#0071DC"/>
</linearGradient>
<linearGradient id="paint4_linear_147_923" x1="38.4084" y1="11.5547" x2="46.1616" y2="81.6432" gradientUnits="userSpaceOnUse">
<stop stop-color="#FFC221"/>
<stop offset="1" stop-color="#FFDB7A"/>
</linearGradient>
<linearGradient id="paint5_linear_147_923" x1="66.8957" y1="66.8674" x2="97.1441" y2="127.963" gradientUnits="userSpaceOnUse">
<stop stop-color="#FFC221"/>
<stop offset="1" stop-color="#FFDA78"/>
</linearGradient>
<linearGradient id="paint6_linear_147_923" x1="19.2604" y1="41.2346" x2="63.603" y2="98.2466" gradientUnits="userSpaceOnUse">
<stop stop-color="#FFC221"/>
<stop offset="1" stop-color="#FFD76F"/>
</linearGradient>
<linearGradient id="paint7_linear_147_923" x1="105.954" y1="1.54218" x2="76.421" y2="42.7265" gradientUnits="userSpaceOnUse">
<stop stop-color="#FFC221"/>
<stop offset="1" stop-color="#FFD565"/>
</linearGradient>
<linearGradient id="paint8_linear_147_923" x1="40.8991" y1="11.6029" x2="48.5806" y2="81.0433" gradientUnits="userSpaceOnUse">
<stop stop-color="#FFCF4F"/>
<stop offset="0.9964" stop-color="#FFC221"/>
</linearGradient>
<linearGradient id="paint9_linear_147_923" x1="69.3809" y1="66.8674" x2="99.6294" y2="127.963" gradientUnits="userSpaceOnUse">
<stop offset="0.00359712" stop-color="#A6D4FF"/>
<stop offset="1" stop-color="#0071DC"/>
</linearGradient>
<linearGradient id="paint10_linear_147_923" x1="21.7551" y1="41.2461" x2="64.5282" y2="96.24" gradientUnits="userSpaceOnUse">
<stop stop-color="#82C2FF"/>
<stop offset="0.9964" stop-color="#0071DC"/>
</linearGradient>
<linearGradient id="paint11_linear_147_923" x1="112.924" y1="-4.98734" x2="80.5196" y2="40.2007" gradientUnits="userSpaceOnUse">
<stop stop-color="#FFDD84"/>
<stop offset="1" stop-color="#FFC221"/>
</linearGradient>
<linearGradient id="paint12_linear_147_923" x1="54.9437" y1="74.4998" x2="84.5472" y2="134.293" gradientUnits="userSpaceOnUse">
<stop offset="0.00359712" stop-color="#FFE7A9"/>
<stop offset="1" stop-color="#FFC221"/>
</linearGradient>
<linearGradient id="paint13_linear_147_923" x1="37.347" y1="12.0654" x2="45.0126" y2="81.3622" gradientUnits="userSpaceOnUse">
<stop stop-color="#FFCF52"/>
<stop offset="0.9964" stop-color="#FFC221"/>
</linearGradient>
</defs>
</svg>
