<svg width="90" height="112" viewBox="0 0 90 112" fill="none" xmlns="http://www.w3.org/2000/svg">
<path d="M13.9666 7.48159C13.5416 24.4113 12.1603 82.8074 12.8175 103.503C12.8883 105.695 14.671 107.454 16.8984 107.525C27.9055 107.879 59.5768 108.78 77.5809 108.037C81.3312 107.883 84.3142 104.888 84.3929 101.193C84.7668 83.4213 85.5932 33.4428 83.6295 10.5472C83.3933 7.80428 81.2092 5.62019 78.427 5.34471C66.4361 4.16412 34.5955 1.27561 19.0392 2.27124C16.2333 2.44833 14.0374 4.71113 13.9666 7.48159Z" fill="url(#paint0_linear_147_771)"/>
<path d="M18.4411 12.7391C17.839 26.6032 15.9422 72.7329 16.5443 89.7886C16.6309 92.2835 18.6261 94.2984 21.1565 94.444C31.5654 95.0422 58.2665 96.3684 73.5355 95.1642C76.2862 94.9478 78.4428 92.7558 78.5923 90.0444C79.3676 75.8969 81.5871 32.9469 81.0125 16.0841C80.922 13.3924 78.8048 11.1965 76.0816 10.9564C64.8187 9.96079 35.8942 7.59174 22.9195 8.28829C20.4796 8.41422 18.5434 10.3386 18.4411 12.7391Z" fill="#E9F4FF"/>
<path opacity="0.5" d="M41.1714 5.2266C41.1714 5.74606 41.5807 6.17501 42.108 6.20256C44.7092 6.33636 52.0328 6.71808 55.307 6.90304C55.9524 6.93846 56.4601 6.36784 56.3381 5.74213L56.3184 5.63587C56.2358 5.21086 55.8737 4.88816 55.4369 4.84881C53.2252 4.64811 46.547 4.09717 42.1237 4.25064C41.5925 4.27032 41.1714 4.7032 41.1714 5.2266Z" fill="#0071DC"/>
<path d="M90.7877 33.9111L62.8942 34.8831C61.0052 34.95 59.4626 33.3877 59.5531 31.4987L60.8636 3.98305C60.9462 2.25939 62.3669 0.90564 64.0905 0.90564H90.6735C92.4562 0.90564 93.9044 2.35383 93.9044 4.13653V30.6802C93.9084 32.4235 92.5271 33.8481 90.7877 33.9111Z" fill="url(#paint1_linear_147_771)"/>
<path opacity="0.51" d="M62.7803 33.0808C62.3868 33.0808 62.0208 32.9234 61.7492 32.64C61.4777 32.3567 61.34 31.9828 61.3557 31.5893L62.6662 4.07362C62.7016 3.31017 63.3273 2.71594 64.0907 2.71594H90.6738C91.4608 2.71594 92.1023 3.3574 92.1023 4.14446V30.6881C92.1023 31.4595 91.4962 32.0891 90.7249 32.1127L62.8314 33.0847C62.8157 33.0808 62.796 33.0808 62.7803 33.0808Z" fill="white"/>
<path opacity="0.51" d="M64.3107 31.9986C63.9526 31.9986 63.6181 31.8569 63.3702 31.5932C63.1222 31.3335 62.9963 30.9911 63.0121 30.633L64.2084 5.51391C64.2399 4.81736 64.8144 4.27429 65.511 4.27429H89.78C90.5002 4.27429 91.0826 4.86065 91.0826 5.57688V29.8066C91.0826 30.511 90.5317 31.0856 89.8233 31.1092L64.3579 31.9946C64.3422 31.9986 64.3265 31.9986 64.3107 31.9986Z" fill="white"/>
<path d="M76.7505 19.9565C76.8292 19.9565 76.9079 19.9723 76.9866 19.9998C77.0653 20.0274 77.1401 20.0785 77.2109 20.1533L78.5293 21.5385C77.9508 22.2941 77.2306 22.8608 76.3609 23.2425C75.4912 23.6242 74.4641 23.8171 73.2796 23.8171C72.1934 23.8171 71.2174 23.6321 70.3556 23.2622C69.4938 22.8923 68.7618 22.3807 68.1636 21.7274C67.5655 21.0741 67.1051 20.3028 66.7824 19.4095C66.4597 18.5162 66.3022 17.5442 66.3022 16.4934C66.3022 15.427 66.4872 14.4432 66.8532 13.5498C67.2192 12.6565 67.7347 11.8852 68.3919 11.2359C69.0491 10.5865 69.8401 10.0828 70.757 9.72078C71.674 9.35873 72.6853 9.18164 73.7951 9.18164C74.3342 9.18164 74.8379 9.22887 75.3141 9.32331C75.7903 9.41776 76.235 9.54763 76.6442 9.71684C77.0574 9.88213 77.4352 10.0828 77.7855 10.315C78.1318 10.5472 78.4387 10.8069 78.7103 11.0863L77.5887 12.5896C77.5179 12.6801 77.4313 12.7667 77.3329 12.8415C77.2345 12.9163 77.0968 12.9556 76.9197 12.9556C76.8017 12.9556 76.6915 12.9281 76.5852 12.8769C76.479 12.8257 76.3688 12.7588 76.2507 12.6841C76.1327 12.6093 76.0028 12.5267 75.8611 12.4401C75.7194 12.3535 75.5542 12.2709 75.3613 12.1961C75.1685 12.1213 74.9403 12.0584 74.6845 12.0033C74.4247 11.9521 74.1217 11.9246 73.7754 11.9246C73.1733 11.9246 72.6224 12.0308 72.1226 12.2433C71.6228 12.4558 71.1978 12.7628 70.8397 13.1563C70.4815 13.5538 70.2021 14.0339 70.0054 14.5966C69.8047 15.1594 69.7063 15.793 69.7063 16.4934C69.7063 17.2293 69.8047 17.8787 70.0054 18.4493C70.2061 19.0199 70.4776 19.5 70.82 19.8896C71.1624 20.2792 71.5638 20.5744 72.0242 20.779C72.4846 20.9836 72.9726 21.082 73.4999 21.082C73.803 21.082 74.0784 21.0663 74.3263 21.0387C74.5743 21.0112 74.8065 20.96 75.019 20.8853C75.2315 20.8144 75.4361 20.72 75.6289 20.6058C75.8218 20.4917 76.0185 20.3501 76.2153 20.1769C76.294 20.11 76.3806 20.0588 76.4711 20.0155C76.5577 19.9801 76.6521 19.9565 76.7505 19.9565Z" fill="url(#paint2_linear_147_771)"/>
<path d="M86.4276 21.0702C86.4827 21.0702 86.5378 21.082 86.5929 21.1017C86.648 21.1214 86.6991 21.1568 86.7503 21.208L87.6711 22.18C87.2658 22.7073 86.7621 23.1048 86.1521 23.3724C85.5461 23.64 84.8259 23.7738 83.9956 23.7738C83.2321 23.7738 82.5513 23.6439 81.9492 23.3842C81.3471 23.1245 80.8355 22.7664 80.4144 22.3099C79.9934 21.8534 79.6707 21.3103 79.4463 20.6846C79.222 20.0589 79.1079 19.3781 79.1079 18.6461C79.1079 17.8984 79.2378 17.2097 79.4936 16.584C79.7494 15.9583 80.1075 15.4191 80.5718 14.9626C81.0323 14.5101 81.5832 14.1559 82.2247 13.904C82.8661 13.6522 83.5745 13.5262 84.3497 13.5262C84.7275 13.5262 85.0817 13.5577 85.4123 13.6246C85.7428 13.6915 86.0537 13.782 86.3449 13.9001C86.6322 14.0182 86.8998 14.1559 87.1438 14.3212C87.3878 14.4825 87.6042 14.6635 87.7892 14.8603L87.0061 15.915C86.9549 15.9779 86.8959 16.037 86.829 16.0921C86.7621 16.1432 86.6637 16.1708 86.5417 16.1708C86.4591 16.1708 86.3804 16.1511 86.3095 16.1157C86.2348 16.0803 86.16 16.033 86.0773 15.9819C85.9947 15.9307 85.9042 15.8717 85.8058 15.8087C85.7074 15.7458 85.5894 15.6907 85.4556 15.6356C85.3218 15.5844 85.1604 15.5372 84.9794 15.5018C84.7984 15.4664 84.5859 15.4467 84.3419 15.4467C83.9208 15.4467 83.5351 15.5214 83.1849 15.671C82.8346 15.8205 82.5356 16.033 82.2876 16.3124C82.0358 16.5919 81.8429 16.9264 81.7013 17.3199C81.5596 17.7134 81.4927 18.1581 81.4927 18.6461C81.4927 19.1616 81.5635 19.6181 81.7013 20.0156C81.8429 20.413 82.0318 20.7515 82.2719 21.023C82.5119 21.2945 82.7953 21.5031 83.1141 21.6448C83.4368 21.7865 83.7791 21.8573 84.1451 21.8573C84.3576 21.8573 84.5504 21.8455 84.7236 21.8258C84.8967 21.8061 85.0581 21.7707 85.2076 21.7196C85.3572 21.6684 85.4989 21.6054 85.6327 21.5228C85.7665 21.4441 85.9042 21.3418 86.0419 21.2237C86.097 21.1765 86.156 21.1411 86.219 21.1096C86.2898 21.086 86.3568 21.0702 86.4276 21.0702Z" fill="url(#paint3_linear_147_771)"/>
<path d="M69.4898 58.5579L41.5963 59.53C39.7074 59.5969 38.1647 58.0345 38.2553 56.1456L39.5657 28.6299C39.6484 26.9062 41.069 25.5525 42.7927 25.5525H69.3757C71.1584 25.5525 72.6066 27.0007 72.6066 28.7834V55.327C72.6066 57.0704 71.2292 58.4989 69.4898 58.5579Z" fill="url(#paint4_linear_147_771)"/>
<path opacity="0.51" d="M41.478 57.7276C41.0845 57.7276 40.7185 57.5702 40.447 57.2869C40.1755 57.0035 40.0377 56.6297 40.0535 56.2362L41.3639 28.7205C41.3993 27.957 42.025 27.3628 42.7885 27.3628H69.3755C70.1625 27.3628 70.804 28.0042 70.804 28.7913V55.335C70.804 56.1063 70.1979 56.7359 69.4266 56.7596L41.5331 57.7316C41.5135 57.7276 41.4977 57.7276 41.478 57.7276Z" fill="white"/>
<path opacity="0.51" d="M43.0129 56.6454C42.6547 56.6454 42.3202 56.5037 42.0723 56.2401C41.8244 55.9803 41.6985 55.638 41.7142 55.2798L42.9105 30.1608C42.942 29.4642 43.5166 28.9211 44.2131 28.9211H68.4822C69.2024 28.9211 69.7848 29.5075 69.7848 30.2237V54.4534C69.7848 55.1579 69.2338 55.7324 68.5255 55.756L43.0601 56.6415C43.0443 56.6454 43.0286 56.6454 43.0129 56.6454Z" fill="white"/>
<path d="M45.3111 35.564H52.2333C53.3863 35.564 54.2718 35.8512 54.8896 36.4219C55.5074 36.9925 55.8144 37.7008 55.8144 38.543C55.8144 39.2514 55.594 39.8574 55.1533 40.365C54.8581 40.7035 54.4292 40.9711 53.8625 41.1639C54.7243 41.3725 55.354 41.7267 55.7593 42.2304C56.1646 42.7341 56.3693 43.3677 56.3693 44.1272C56.3693 44.749 56.2237 45.3039 55.9364 45.7997C55.6491 46.2956 55.2517 46.6852 54.7519 46.9764C54.441 47.1574 53.9727 47.2873 53.347 47.3699C52.5127 47.4801 51.9617 47.5312 51.6902 47.5312H45.3071V35.564H45.3111ZM49.0417 40.2588H50.6513C51.2298 40.2588 51.6312 40.1604 51.8555 39.9597C52.0798 39.7629 52.1939 39.4757 52.1939 39.0979C52.1939 38.7516 52.0798 38.4761 51.8555 38.2833C51.6312 38.0865 51.2376 37.9881 50.6749 37.9881H49.0417V40.2588ZM49.0417 44.9615H50.9267C51.5643 44.9615 52.0129 44.8474 52.2726 44.6231C52.5324 44.3987 52.6662 44.0918 52.6662 43.714C52.6662 43.3598 52.5363 43.0765 52.2766 42.86C52.0168 42.6436 51.5643 42.5373 50.9189 42.5373H49.0417V44.9615Z" fill="url(#paint5_linear_147_771)"/>
<path d="M58.105 35.564H61.4618V39.7118C61.7924 39.3655 62.1702 39.1018 62.5912 38.9287C63.0123 38.7555 63.4806 38.6689 63.9922 38.6689C65.0469 38.6689 65.9205 39.0467 66.6131 39.8062C67.3057 40.5657 67.6481 41.6558 67.6481 43.0765C67.6481 44.0249 67.4907 44.8592 67.1759 45.5793C66.861 46.2995 66.4242 46.8386 65.8654 47.1967C65.3066 47.5549 64.6888 47.7319 64.0079 47.7319C63.4255 47.7319 62.8903 47.606 62.4063 47.3581C62.0403 47.1613 61.6428 46.7953 61.2139 46.2562V47.5391H58.105V35.564ZM61.4342 43.1709C61.4342 43.9186 61.5759 44.4578 61.8553 44.7923C62.1347 45.1268 62.4889 45.296 62.9218 45.296C63.3193 45.296 63.6538 45.1307 63.9214 44.8001C64.189 44.4696 64.3267 43.9186 64.3267 43.1394C64.3267 42.4547 64.1929 41.951 63.9292 41.6283C63.6656 41.3056 63.3468 41.1482 62.969 41.1482C62.5165 41.1482 62.1505 41.3174 61.8632 41.6519C61.5799 41.9864 61.4342 42.494 61.4342 43.1709Z" fill="url(#paint6_linear_147_771)"/>
<path d="M49.3884 81.4574L21.7192 82.4216C19.846 82.4885 18.3152 80.938 18.4057 79.0648L19.7043 51.7734C19.787 50.0655 21.1958 48.7196 22.9077 48.7196H49.2742C51.0451 48.7196 52.4776 50.156 52.4776 51.9229V78.2502C52.4815 79.9778 51.116 81.3945 49.3884 81.4574Z" fill="url(#paint7_linear_147_771)"/>
<path opacity="0.51" d="M21.6089 80.631C21.2193 80.631 20.8573 80.4736 20.5857 80.1903C20.3181 79.9069 20.1765 79.537 20.1961 79.1474L21.4948 51.856C21.5302 51.1005 22.152 50.5062 22.9076 50.5062H49.2741C50.0533 50.5062 50.6909 51.1398 50.6909 51.9229V78.2502C50.6909 79.0175 50.0927 79.6393 49.3253 79.6629L21.6561 80.6271C21.6404 80.631 21.6247 80.631 21.6089 80.631Z" fill="white"/>
<path opacity="0.51" d="M23.1282 79.5606C22.774 79.5606 22.4395 79.4189 22.1955 79.1592C21.9476 78.8995 21.8217 78.561 21.8414 78.2069L23.0259 53.2924C23.0574 52.6037 23.6241 52.0607 24.3167 52.0607H48.389C49.1012 52.0607 49.6797 52.6392 49.6797 53.3514V77.3844C49.6797 78.0849 49.1327 78.6516 48.4322 78.6752L23.1754 79.5567C23.1597 79.5567 23.1439 79.5606 23.1282 79.5606Z" fill="white"/>
<path d="M32.5297 67.8531H28.3504L27.768 69.8208H24.0098L28.4882 57.9047H32.5022L36.9806 69.8208H33.1239L32.5297 67.8531ZM31.7663 65.2755L30.4519 60.9939L29.1493 65.2755H31.7663Z" fill="url(#paint8_linear_147_771)"/>
<path d="M40.9471 63.9847L37.787 63.6502C37.9051 63.0993 38.0783 62.6625 38.3026 62.3476C38.5269 62.0289 38.8496 61.7573 39.2746 61.5212C39.5776 61.352 39.9948 61.2221 40.526 61.1316C41.0573 61.0411 41.6318 60.9939 42.2497 60.9939C43.2414 60.9939 44.0363 61.049 44.6384 61.1592C45.2405 61.2694 45.7403 61.5016 46.1417 61.8557C46.425 62.0997 46.6454 62.446 46.8068 62.8907C46.9681 63.3393 47.0508 63.7644 47.0508 64.1697V67.983C47.0508 68.3883 47.0783 68.7071 47.1295 68.9393C47.1806 69.1715 47.2948 69.4627 47.4679 69.8208H44.3629C44.237 69.6004 44.1583 69.4312 44.119 69.3131C44.0796 69.1951 44.0442 69.0141 44.0048 68.7661C43.572 69.1833 43.1391 69.4824 42.7141 69.6595C42.1277 69.8995 41.4508 70.0176 40.6756 70.0176C39.6445 70.0176 38.8653 69.7775 38.3301 69.3013C37.7949 68.8252 37.5312 68.2349 37.5312 67.5383C37.5312 66.8811 37.7241 66.342 38.1097 65.9209C38.4954 65.4998 39.2038 65.185 40.2387 64.9764C41.4784 64.7285 42.2851 64.5514 42.6511 64.453C43.021 64.3547 43.4106 64.2209 43.8199 64.0595C43.8199 63.6542 43.7372 63.3669 43.568 63.2055C43.3988 63.0442 43.1036 62.9616 42.6826 62.9616C42.1395 62.9616 41.7342 63.0481 41.4626 63.2213C41.2462 63.3551 41.077 63.6109 40.9471 63.9847ZM43.8159 65.7241C43.3594 65.8855 42.8872 66.0311 42.3953 66.1531C41.7224 66.3302 41.2973 66.5073 41.1203 66.6804C40.9353 66.8575 40.8448 67.0621 40.8448 67.2904C40.8448 67.5501 40.9353 67.7626 41.1163 67.9279C41.2973 68.0932 41.5649 68.1758 41.9152 68.1758C42.2851 68.1758 42.6275 68.0853 42.9423 67.9082C43.2611 67.7311 43.4854 67.5108 43.6152 67.255C43.749 66.9992 43.8159 66.6647 43.8159 66.2515V65.7241Z" fill="url(#paint9_linear_147_771)"/>
<path d="M56.1807 87.4707C56.1807 87.4707 49.6638 88.2145 47.5545 85.9399C47.46 85.8376 47.5663 85.7038 47.7394 85.7038H48.979C49.2742 85.7038 49.4277 85.4519 49.223 85.2984C48.5737 84.8104 47.5859 83.9329 47.3813 83.0041C47.3262 82.7562 47.6725 82.5634 47.9952 82.6696C49.7071 83.2402 54.5121 84.7317 57.6564 84.6727L56.1807 87.4707Z" fill="url(#paint10_linear_147_771)"/>
<path d="M56.1805 89.883L97.8712 91.3037C99.4847 91.3588 100.819 90.068 100.819 88.4545V85.1331C100.819 83.559 99.5437 82.2839 97.9696 82.2839H57.1368C56.1805 82.2839 55.3305 82.7168 55.0236 83.3622C54.4411 84.5704 53.717 86.6206 54.2207 88.6395C54.39 89.3242 55.2006 89.8397 56.1805 89.883Z" fill="url(#paint11_linear_147_771)"/>
<path opacity="0.37" d="M86.2622 89.7177L95.8093 90.0286C96.6003 90.0561 97.2614 89.6036 97.2614 89.0408V84.4326C97.2614 83.8856 96.6397 83.4448 95.8723 83.4448H86.3252C85.5578 83.4448 84.936 83.8856 84.936 84.4326V88.7339C84.936 89.2573 85.5185 89.6902 86.2622 89.7177Z" fill="white"/>
<path d="M58.1129 110.744L96.7773 111.02C98.0012 111.027 98.9969 110.04 98.9969 108.816V100.245C98.9969 99.009 97.9776 98.0133 96.7419 98.0448L58.9551 98.9657C58.0657 98.9932 57.2944 99.4025 56.9953 99.9967C56.1807 101.618 54.9843 105.148 56.6647 109.929C56.83 110.402 57.4242 110.74 58.1129 110.744Z" fill="url(#paint12_linear_147_771)"/>
<path d="M58.7821 99.0759L96.321 98.2259C97.7063 98.1944 98.8121 97.061 98.8121 95.6758V92.9526C98.8121 91.5595 97.6944 90.4222 96.3013 90.4025L58.4397 89.8515C57.5858 89.8358 56.8105 90.2254 56.5665 90.8039C55.504 93.3185 55.4017 95.8135 56.9876 98.277C57.3064 98.7847 58.0147 99.0995 58.7821 99.0759Z" fill="url(#paint13_linear_147_771)"/>
<path opacity="0.57" d="M59.9351 98.3715L61.6077 98.281C62.1153 98.2534 62.497 97.9426 62.4655 97.5805L61.95 91.2683C61.9225 90.9377 61.5565 90.6701 61.0882 90.6465L59.9351 90.5835C59.396 90.556 58.9316 90.859 58.9316 91.2447V97.7104C58.9316 98.096 59.396 98.403 59.9351 98.3715Z" fill="white"/>
<path opacity="0.57" d="M63.9295 98.1117H64.5394C65.0117 98.1117 65.3855 97.8323 65.3659 97.4978L65.0117 91.4492C64.992 91.1344 64.63 90.8865 64.1853 90.8865H63.5399C63.0676 90.8865 62.6898 91.1659 62.7135 91.5004L63.107 97.549C63.1227 97.8638 63.4887 98.1117 63.9295 98.1117Z" fill="white"/>
<path d="M73.5669 109.922L82.1065 110.394C82.8149 110.433 83.4052 109.748 83.4052 108.891V101.87C83.4052 101.04 82.8503 100.367 82.1616 100.367H73.622C72.9372 100.367 72.3784 101.04 72.3784 101.87V108.418C72.3824 109.221 72.9057 109.882 73.5669 109.922Z" fill="#73BAFC"/>
<path d="M86.7462 98.5171H84.8101V110.909H86.7462V98.5171Z" fill="#73BAFC"/>
<path d="M25.8942 83.067C25.0048 82.4531 24.017 81.9927 22.9742 81.7093C22.5806 81.6031 20.4634 82.217 19.1569 82.1894C17.3585 82.1501 15.5325 81.3315 14.0489 81.7015C12.5771 82.0674 11.3729 82.5475 10.6803 83.0395C8.59848 84.5191 7.37854 87.2778 6.63477 90.0128C8.04361 91.461 9.81843 92.1025 9.81843 92.1025L10.1451 105.388L17.9999 109.406L26.9685 104.904L26.6458 91.9215C26.6458 91.9215 29.495 90.5953 29.7036 90.1112C29.9161 89.6311 28.4088 84.7946 25.8942 83.067Z" fill="url(#paint14_linear_147_771)"/>
<path d="M29.5737 90.0562C29.5737 90.0562 33.391 100.634 24.6861 104.983C22.8798 104.743 23.5724 101.744 23.5724 101.744C23.5724 101.744 27.3542 100.906 26.2169 92.0828C27.2676 91.221 29.5737 90.0562 29.5737 90.0562Z" fill="url(#paint15_linear_147_771)"/>
<path d="M6.82012 90.0562C6.82012 90.0562 4.19527 101.099 11.7078 104.983C13.5141 104.743 12.8215 101.744 12.8215 101.744C12.8215 101.744 9.77554 100.245 10.1769 92.0828C9.12621 91.221 6.82012 90.0562 6.82012 90.0562Z" fill="url(#paint16_linear_147_771)"/>
<path d="M10.1728 103.9H26.7444C26.9254 103.9 27.071 103.751 27.071 103.574V92.5943C27.071 92.4133 26.9215 92.2677 26.7444 92.2677H10.1728C9.9918 92.2677 9.84619 92.4172 9.84619 92.5943V103.574C9.84619 103.751 9.9918 103.9 10.1728 103.9Z" fill="url(#paint17_linear_147_771)"/>
<path d="M2.29033 107.348C4.26192 106.895 8.81901 107.139 8.81901 107.139L9.00397 107.643L9.31092 110.138C9.31092 110.138 4.97027 110.921 2.8334 110.917C2.61696 110.917 2.41626 110.886 2.2313 110.827C2.1644 110.768 2.10143 110.709 2.0424 110.642C1.13335 109.65 1.39701 108.194 2.29033 107.348Z" fill="#2E2E2E"/>
<path d="M2.09362 107.399C2.15658 107.383 2.21955 107.364 2.29038 107.348C1.39707 108.194 1.13734 109.65 2.04246 110.642C2.10149 110.709 2.16839 110.768 2.23135 110.827C0.625745 110.327 0.43685 107.863 2.09362 107.399Z" fill="#2E2E2E"/>
<path d="M10.1256 106.998L9.35429 107.029C8.94108 107.045 8.54755 107.249 8.27208 107.588C7.99267 107.93 7.851 108.379 7.87461 108.839C7.89429 109.205 8.04383 109.548 8.29175 109.792C8.53968 110.036 8.86631 110.158 9.19294 110.134L10.3735 110.051L10.1256 106.998Z" fill="url(#paint18_linear_147_771)"/>
<path d="M36.0748 107.108C34.0914 106.714 29.5421 107.1 29.5421 107.1L29.369 107.608L29.125 110.11C29.125 110.11 33.4814 110.76 35.6222 110.693C35.8386 110.685 36.0393 110.646 36.2204 110.587C36.2833 110.528 36.3463 110.465 36.4053 110.398C37.2868 109.374 36.9878 107.926 36.0748 107.108Z" fill="#2E2E2E"/>
<path d="M36.2715 107.151C36.2085 107.135 36.1416 107.12 36.0747 107.108C36.9877 107.926 37.2868 109.375 36.4053 110.394C36.3462 110.461 36.2833 110.524 36.2203 110.583C37.8102 110.036 37.94 107.568 36.2715 107.151Z" fill="url(#paint19_linear_147_771)"/>
<path d="M28.2317 107.001L29.003 107.009C29.4162 107.013 29.8137 107.206 30.101 107.537C30.3883 107.867 30.5417 108.316 30.5299 108.776C30.5181 109.142 30.3765 109.489 30.1364 109.74C29.8964 109.992 29.5737 110.126 29.2431 110.11L28.0625 110.063L28.2317 107.001Z" fill="url(#paint20_linear_147_771)"/>
<path d="M1.7396 99.5284C2.63292 97.4702 4.82095 97.1357 6.68235 98.0999C6.71384 98.1432 18.504 104.184 28.8972 106.832C28.5981 107.785 28.4446 108.8 28.4131 109.8C28.4053 110.02 28.4092 110.24 28.4249 110.457C20.452 110.047 11.8022 107.387 4.36445 105.054C2.05836 104.306 0.747904 101.807 1.7396 99.5284Z" fill="#2E2E2E"/>
<path d="M10.0707 109.953C10.1022 108.804 9.87786 107.734 9.40169 106.742C9.38988 106.695 9.3702 106.651 9.3584 106.608C9.95263 106.423 10.72 106.175 11.7275 105.833C19.1101 103.306 24.7415 100.756 30.1172 97.8205C32.2068 96.6793 34.5798 97.4427 35.2488 99.9141C35.847 102.118 34.5365 104.003 32.5452 104.664C26.5951 106.643 29.6921 106.093 27.752 106.718C22.5338 108.332 16.0406 109.804 10.0668 110.205C10.0628 110.118 10.0668 110.036 10.0707 109.953Z" fill="#2E2E2E"/>
<path d="M22.9785 81.7093C22.9785 81.7093 22.1836 85.1488 18.3309 85.0779C14.4035 85.0071 14.0532 81.6975 14.0532 81.6975L16.619 81.1505L16.8316 78.2935L20.6882 78.5807L20.759 81.2961L22.9785 81.7093Z" fill="url(#paint21_linear_147_771)"/>
<path fill-rule="evenodd" clip-rule="evenodd" d="M12.6129 77.3333C12.6129 77.3333 10.6138 76.2747 11.3458 74.6848C11.3458 74.6848 9.78344 73.6419 10.421 71.8592C10.421 71.8592 9.62603 66.0861 15.895 66.826C15.895 66.826 18.9291 63.6344 22.8369 67.3572C22.8369 67.3572 24.47 67.31 24.9265 69.2816C24.9265 69.2816 28.8382 75.3105 22.0026 76.4793L12.6129 77.3333Z" fill="#2E2E2E"/>
<path fill-rule="evenodd" clip-rule="evenodd" d="M12.172 72.4338C12.172 72.4338 10.4286 81.9415 16.489 82.2839C22.5494 82.6262 22.8603 76.2353 22.8603 76.2353C22.8603 76.2353 23.9976 72.9139 22.4313 71.5011C20.8651 70.0883 12.9748 70.8833 12.172 72.4338Z" fill="url(#paint22_linear_147_771)"/>
<path fill-rule="evenodd" clip-rule="evenodd" d="M12.2821 76.6996C12.2821 76.6996 12.1759 75.6135 11.255 75.8417C10.3342 76.07 12.2979 78.1675 12.2979 78.1675L12.2821 76.6996Z" fill="url(#paint23_linear_147_771)"/>
<path fill-rule="evenodd" clip-rule="evenodd" d="M22.7892 74.7792C22.7892 74.7792 17.0043 75.5427 16.0402 72.3669C16.0402 72.3669 15.2098 72.8627 14.4582 71.9615C14.4582 71.9615 13.0297 75.342 11.6484 74.0945C11.6484 74.0945 10.2789 70.0411 13.8836 69.8758C17.4884 69.7105 20.8412 69.6869 22.0651 70.1946C23.2929 70.7022 24.9733 72.5361 22.7892 74.7792Z" fill="#2E2E2E"/>
<path fill-rule="evenodd" clip-rule="evenodd" d="M22.5258 77.2388L22.27 74.3582C22.27 74.3582 23.6277 72.7526 24.0252 74.1968C24.4226 75.645 23.2145 77.1129 22.5258 77.2388Z" fill="url(#paint24_linear_147_771)"/>
<path d="M17.4454 97.2419C17.3549 97.8598 17.6855 98.4186 18.3033 98.5091C18.9212 98.5996 19.4957 98.1746 19.5862 97.5568C19.6767 96.9389 19.3934 96.325 18.7795 96.2345C18.1577 96.144 17.5359 96.6241 17.4454 97.2419Z" fill="url(#paint25_linear_147_771)"/>
<defs>
<linearGradient id="paint0_linear_147_771" x1="12.6422" y1="55.1928" x2="84.8877" y2="55.1928" gradientUnits="userSpaceOnUse">
<stop stop-color="#2495FF"/>
<stop offset="1" stop-color="#0071DC"/>
</linearGradient>
<linearGradient id="paint1_linear_147_771" x1="90.4543" y1="3.03823" x2="62.8557" y2="33.3848" gradientUnits="userSpaceOnUse">
<stop stop-color="#57ADFF"/>
<stop offset="1" stop-color="#0071DC"/>
</linearGradient>
<linearGradient id="paint2_linear_147_771" x1="78.4756" y1="-18.7587" x2="68.8883" y2="40.4572" gradientUnits="userSpaceOnUse">
<stop stop-color="#5AAFFF"/>
<stop offset="1" stop-color="#0071DC"/>
</linearGradient>
<linearGradient id="paint3_linear_147_771" x1="91.2941" y1="-15.4773" x2="79.451" y2="37.817" gradientUnits="userSpaceOnUse">
<stop stop-color="#53ABFF"/>
<stop offset="1" stop-color="#0071DC"/>
</linearGradient>
<linearGradient id="paint4_linear_147_771" x1="69.1532" y1="27.6859" x2="41.5546" y2="58.0325" gradientUnits="userSpaceOnUse">
<stop stop-color="#0071DC"/>
<stop offset="1" stop-color="#5EB0FF"/>
</linearGradient>
<linearGradient id="paint5_linear_147_771" x1="51.0216" y1="52.0494" x2="50.1756" y2="22.4413" gradientUnits="userSpaceOnUse">
<stop stop-color="#0071DC"/>
<stop offset="1" stop-color="#55ACFF"/>
</linearGradient>
<linearGradient id="paint6_linear_147_771" x1="63.0618" y1="51.7053" x2="62.2159" y2="22.0973" gradientUnits="userSpaceOnUse">
<stop stop-color="#0071DC"/>
<stop offset="1" stop-color="#59AEFF"/>
</linearGradient>
<linearGradient id="paint7_linear_147_771" x1="49.0573" y1="50.8342" x2="21.6826" y2="80.9345" gradientUnits="userSpaceOnUse">
<stop stop-color="#58AEFF"/>
<stop offset="1" stop-color="#0071DC"/>
</linearGradient>
<linearGradient id="paint8_linear_147_771" x1="31.6446" y1="30.55" x2="29.9527" y2="88.356" gradientUnits="userSpaceOnUse">
<stop stop-color="#53ABFF"/>
<stop offset="1" stop-color="#0071DC"/>
</linearGradient>
<linearGradient id="paint9_linear_147_771" x1="43.5995" y1="30.8999" x2="41.9076" y2="88.7059" gradientUnits="userSpaceOnUse">
<stop stop-color="#55ACFF"/>
<stop offset="1" stop-color="#0071DC"/>
</linearGradient>
<linearGradient id="paint10_linear_147_771" x1="71.3709" y1="78.7508" x2="121.776" y2="62.3889" gradientUnits="userSpaceOnUse">
<stop stop-color="#0071DC"/>
<stop offset="1" stop-color="#9CCFFF"/>
</linearGradient>
<linearGradient id="paint11_linear_147_771" x1="76.5687" y1="78.8133" x2="83.694" y2="140.302" gradientUnits="userSpaceOnUse">
<stop stop-color="#2696FF"/>
<stop offset="1" stop-color="#0071DC"/>
<stop offset="1" stop-color="#0071DC"/>
</linearGradient>
<linearGradient id="paint12_linear_147_771" x1="57.6514" y1="93.085" x2="84.9276" y2="108.635" gradientUnits="userSpaceOnUse">
<stop stop-color="#84C3FF"/>
<stop offset="1" stop-color="#0071DC"/>
</linearGradient>
<linearGradient id="paint13_linear_147_771" x1="77.4625" y1="84.1272" x2="77.0317" y2="112.558" gradientUnits="userSpaceOnUse">
<stop stop-color="#FFC221"/>
<stop offset="1" stop-color="#FFD35E"/>
</linearGradient>
<linearGradient id="paint14_linear_147_771" x1="18.1669" y1="76.2645" x2="18.1403" y2="48.8135" gradientUnits="userSpaceOnUse">
<stop stop-color="#98CDFF"/>
<stop offset="1" stop-color="#0071DC"/>
</linearGradient>
<linearGradient id="paint15_linear_147_771" x1="31.5232" y1="87.2115" x2="16.5934" y2="123.276" gradientUnits="userSpaceOnUse">
<stop stop-color="#FFD5A1"/>
<stop offset="1" stop-color="#FFD6A2"/>
</linearGradient>
<linearGradient id="paint16_linear_147_771" x1="5.05662" y1="87.134" x2="19.9864" y2="123.198" gradientUnits="userSpaceOnUse">
<stop stop-color="#FFD6A2"/>
<stop offset="1" stop-color="#FFD7A6"/>
</linearGradient>
<linearGradient id="paint17_linear_147_771" x1="18.2616" y1="90.04" x2="19.0382" y2="121.493" gradientUnits="userSpaceOnUse">
<stop stop-color="#3A9FFF"/>
<stop offset="1" stop-color="#0071DC"/>
</linearGradient>
<linearGradient id="paint18_linear_147_771" x1="3.91611" y1="94.2476" x2="12.5281" y2="117.574" gradientUnits="userSpaceOnUse">
<stop stop-color="#FFD5A1"/>
<stop offset="1" stop-color="#FFD6A2"/>
</linearGradient>
<linearGradient id="paint19_linear_147_771" x1="38.012" y1="105.384" x2="47.512" y2="84.2072" gradientUnits="userSpaceOnUse">
<stop stop-color="#2B3582"/>
<stop offset="1" stop-color="#150E42"/>
</linearGradient>
<linearGradient id="paint20_linear_147_771" x1="21.1701" y1="87.2182" x2="29.7866" y2="110.557" gradientUnits="userSpaceOnUse">
<stop stop-color="#FFD7A6"/>
<stop offset="1" stop-color="#FFD7A5"/>
</linearGradient>
<linearGradient id="paint21_linear_147_771" x1="18.4174" y1="90.1892" x2="18.616" y2="72.9055" gradientUnits="userSpaceOnUse">
<stop stop-color="#FFD7A5"/>
<stop offset="1" stop-color="#FFD8A6"/>
</linearGradient>
<linearGradient id="paint22_linear_147_771" x1="17.3454" y1="82.0189" x2="17.8466" y2="67.1648" gradientUnits="userSpaceOnUse">
<stop stop-color="#FFDBAD"/>
<stop offset="1" stop-color="#FFCE8F"/>
</linearGradient>
<linearGradient id="paint23_linear_147_771" x1="11.4977" y1="81.8216" x2="11.9989" y2="66.9676" gradientUnits="userSpaceOnUse">
<stop stop-color="#FFD6A2"/>
<stop offset="1" stop-color="#FFD5A1"/>
</linearGradient>
<linearGradient id="paint24_linear_147_771" x1="22.9284" y1="82.2072" x2="23.4297" y2="67.353" gradientUnits="userSpaceOnUse">
<stop stop-color="#FFD6A3"/>
<stop offset="1" stop-color="#FFD7A5"/>
</linearGradient>
<linearGradient id="paint25_linear_147_771" x1="18.3494" y1="89.4674" x2="18.8511" y2="113.478" gradientUnits="userSpaceOnUse">
<stop stop-color="#53D8FF"/>
<stop offset="1" stop-color="#3840F7"/>
</linearGradient>
</defs>
</svg>
