<svg width="158" height="153" viewBox="0 0 158 153" fill="none" xmlns="http://www.w3.org/2000/svg">
<path d="M65.8317 151.449C26.7019 145.523 -5.09874 108.528 0.681149 67.404C5.61039 32.336 36.3576 5.04202 73.2284 2.46755C75.8986 2.28164 78.597 2.22531 81.3236 2.30418C101.891 2.89569 120.166 11.1261 133.686 23.576C147.139 35.9639 155.882 52.5374 157.471 69.9222C161.707 116.178 114.504 158.823 65.8317 151.449Z" fill="#F4F7FA" fill-opacity="0.5"/>
<path d="M134.447 103.255V29.3613C134.447 27.8459 133.191 27.6713 131.658 27.6093L4.72033 21.39C2.78807 21.3112 1.20508 22.6463 1.20508 24.3589V106.021L134.447 103.255Z" fill="#97A6B7"/>
<path d="M1.20508 106.021V122.33C1.20508 124.037 2.78807 125.372 4.72033 125.287L131.095 118.831C132.627 118.769 134.447 118.561 134.447 117.046V102.776L1.20508 106.021Z" fill="#97A6B7"/>
<path d="M89.5313 136.278C87.2441 135.518 85.5316 133.58 85.0527 131.191L81.7234 114.713L53.2408 115.727L49.7368 132.892C49.2467 135.298 51.2127 137.709 53.4717 138.593L65.3864 143.258C67.6004 144.125 69.9833 144.469 72.355 144.266L97.5364 142.114C98.2744 142.052 98.8659 141.472 98.9504 140.729C99.0349 139.985 99.5531 139.151 98.849 138.92L89.5313 136.278Z" fill="#97A6B7"/>
<path d="M89.8131 135.275C87.5259 134.526 85.819 132.611 85.3401 130.25L82.0164 113.981L54.2267 114.978L50.7227 131.929C50.2326 134.301 51.5283 136.684 53.7929 137.557L65.6964 142.159C67.9103 143.016 70.2932 143.359 72.6536 143.156L97.8125 141.027C98.5505 140.965 99.1364 140.396 99.2209 139.658C99.3054 138.926 98.866 138.233 98.1618 138.002L89.8131 135.275Z" fill="url(#paint0_linear_147_2045)"/>
<path d="M135.376 29.3614V103.255L56.779 104.883L1.98828 106.021V24.3589C1.98828 22.652 3.60507 21.3168 5.53734 21.3901L16.2634 21.8182L132.548 26.494C134.081 26.5559 135.376 27.846 135.376 29.3614Z" fill="url(#paint1_linear_147_2045)"/>
<path d="M5.98242 35.7217V99.5089C5.98242 101.103 7.45275 102.359 9.24981 102.309L129.732 98.8836C131.168 98.8442 132.346 97.6499 132.346 96.2246V39.3383L5.98242 35.7217Z" fill="url(#paint2_linear_147_2045)"/>
<path d="M132.34 39.3382V32.8091C132.34 31.4177 131.191 30.2346 129.783 30.1839L9.18221 25.6885C7.42458 25.6209 5.98242 26.8433 5.98242 28.4038V35.7216L132.34 39.3382Z" fill="#BFC8D6"/>
<path d="M14.799 30.7586C14.799 31.305 14.2976 31.7332 13.6836 31.7163C13.0639 31.6994 12.5625 31.2374 12.5625 30.6853C12.5625 30.1333 13.0639 29.7051 13.6836 29.7277C14.2976 29.7446 14.799 30.2065 14.799 30.7586Z" fill="white"/>
<path d="M19.6102 30.9163C19.6102 31.4627 19.1144 31.8852 18.506 31.8683C17.8976 31.8514 17.4019 31.3895 17.4019 30.843C17.4019 30.2966 17.8976 29.8685 18.506 29.891C19.1144 29.9135 19.6102 30.3698 19.6102 30.9163Z" fill="white"/>
<path d="M24.3645 31.0684C24.3645 31.6092 23.8744 32.0317 23.2716 32.0148C22.6688 31.9979 22.1787 31.5416 22.1787 30.9951C22.1787 30.4543 22.6688 30.0262 23.2716 30.0487C23.88 30.0712 24.3645 30.5275 24.3645 31.0684Z" fill="white"/>
<path d="M135.376 102.782V117.051C135.376 118.567 134.092 119.857 132.56 119.924L127.94 120.121L5.55397 125.293C3.62171 125.377 1.99365 124.042 1.99365 122.335V106.027L56.621 104.697L135.376 102.782Z" fill="url(#paint3_linear_147_2045)"/>
<path opacity="0.1" d="M127.918 120.116L5.53734 125.287C3.60507 125.372 1.98828 124.037 1.98828 122.33V24.3589C1.98828 22.652 3.60507 21.3168 5.53734 21.3901L16.2634 21.8182C17.9083 22.9224 19.3787 24.28 20.556 25.9025C20.6067 25.9757 20.6631 26.0433 20.7138 26.1165C21.6264 27.4122 22.2799 28.7699 22.7362 30.167C22.939 30.7754 23.1024 31.3894 23.2319 32.0147C23.5305 33.3949 23.6713 34.8033 23.7333 36.2342C23.8629 39.2537 23.6263 42.3521 23.6375 45.4054C23.6601 51.5909 24.0488 57.7764 28.1555 62.7563C31.1976 66.4462 36.1437 67.8433 40.2561 69.9896C45.0502 72.4909 49.2583 75.8146 51.6976 80.7495C54.689 86.8054 51.8779 93.3796 53.7932 99.6327C53.9397 100.117 54.1143 100.585 54.3115 101.041C54.8918 102.371 55.6748 103.587 56.6156 104.703C56.6663 104.77 56.7226 104.832 56.779 104.894C60.435 109.097 66.2882 111.722 71.3639 112.995C81.7801 115.598 92.5793 111.085 102.917 110.731C110.364 110.477 120.668 112.156 126.143 117.761C126.808 118.426 127.4 119.231 127.918 120.116Z" fill="white"/>
<path d="M37.6703 41.9576C37.6703 40.9098 36.814 40.0366 35.7943 40.0141L13.6043 39.4958C12.5565 39.4733 11.627 40.3127 11.627 41.383V64.2322C11.627 65.2969 12.5396 66.1701 13.5874 66.1757L35.7605 66.3503C36.7802 66.356 37.6703 65.5166 37.6703 64.4631V41.9576Z" fill="white"/>
<path d="M37.6703 72.3218C37.6703 71.2739 36.814 70.4177 35.7943 70.412L13.6043 70.2937C12.5565 70.2881 11.627 71.15 11.627 72.2147V95.0639C11.627 96.1286 12.5846 96.9849 13.6325 96.9736L35.8112 96.7483C36.8309 96.737 37.6703 95.8807 37.6703 94.8273V72.3218Z" fill="white"/>
<path d="M70.0738 42.6842C70.0738 41.6533 69.2738 40.8027 68.2992 40.7801L47.0274 40.2844C46.0247 40.2619 45.1909 41.09 45.1909 42.1322V64.5306C45.1909 65.5728 46.019 66.4291 47.0274 66.4347L68.2936 66.5981C69.2738 66.6037 70.0738 65.7756 70.0738 64.7503V42.6842Z" fill="white"/>
<path d="M70.0738 72.4569C70.0738 71.426 69.2738 70.5922 68.2992 70.5866L47.0274 70.4739C46.0247 70.4683 45.1909 71.3133 45.1909 72.3555V94.754C45.1909 95.7961 46.0528 96.6355 47.0556 96.6243L68.2823 96.4045C69.2625 96.3933 70.0738 95.5539 70.0738 94.523V72.4569Z" fill="white"/>
<path d="M101.131 43.3772C101.131 42.3688 100.449 41.5294 99.5084 41.5069L79.1041 41.028C78.1352 41.0055 77.4028 41.8167 77.4028 42.842V64.8124C77.4028 65.8376 78.1802 66.6714 79.1492 66.6827L99.514 66.8404C100.455 66.846 101.131 66.0348 101.131 65.0264V43.3772Z" fill="white"/>
<path d="M101.131 72.5923C101.131 71.5839 100.449 70.7614 99.5084 70.7558L79.1041 70.6431C78.1352 70.6375 77.4028 71.4656 77.4028 72.4909V94.4612C77.4028 95.4865 78.1633 96.309 79.1267 96.2977L99.5028 96.0893C100.444 96.078 101.131 95.2555 101.131 94.2415V72.5923Z" fill="white"/>
<path d="M126.504 42.3351L106.122 41.8563C105.373 41.8394 104.798 42.4365 104.798 43.1858V45.5406C104.798 46.2954 105.407 46.9151 106.156 46.932L126.504 47.3489C127.236 47.3658 127.755 46.7743 127.755 46.0307V43.7041C127.755 42.9717 127.236 42.352 126.504 42.3351Z" fill="#D8DEE8"/>
<path d="M126.504 51.0671L106.122 50.6896C105.373 50.6783 104.798 51.2755 104.798 52.0247V54.3795C104.798 55.1344 105.407 55.7541 106.156 55.7653L126.504 56.0808C127.236 56.0921 127.755 55.5006 127.755 54.7569V52.4303C127.755 51.6924 127.236 51.0783 126.504 51.0671Z" fill="#D8DEE8"/>
<path d="M49.337 55.9677C48.9934 55.9734 48.6497 55.872 48.3681 55.6523C47.7484 55.1621 47.6808 54.2833 48.2216 53.7031L56.0802 45.1572C56.3337 44.8811 56.7055 44.7347 57.0942 44.7516C57.4773 44.7685 57.8435 44.9544 58.0914 45.2473L60.6996 48.3457L63.6516 44.9994C64.091 44.4981 64.8571 44.4868 65.3528 44.96C65.8486 45.4332 65.9049 46.2163 65.4711 46.712L61.6517 51.1399C61.4151 51.4159 61.0658 51.5737 60.6996 51.5737C60.3278 51.5737 59.9786 51.4103 59.7363 51.123L57.0942 48.0528L50.4412 55.4663C50.1482 55.7875 49.7426 55.9565 49.337 55.9677Z" fill="url(#paint4_linear_147_2045)"/>
<path d="M66.2937 47.3825L63.0488 44.3292L67.2063 42.949L67.4992 42.9546L66.5528 47.3599L66.2937 47.3825Z" fill="url(#paint5_linear_147_2045)"/>
<path d="M49.63 55.9734C49.2863 55.979 48.9427 55.8776 48.661 55.6579C48.0414 55.1678 47.9738 54.289 48.5146 53.7087L56.3676 45.1628C56.6211 44.8868 56.9929 44.7403 57.3816 44.7572C57.7646 44.7741 58.1308 44.96 58.3787 45.2529L60.987 48.3457L63.9389 44.9994C64.3783 44.4981 65.1444 44.4868 65.6402 44.96C66.1359 45.4332 66.1866 46.2163 65.7585 46.712L61.939 51.1399C61.7024 51.4159 61.3531 51.5737 60.987 51.5737C60.6208 51.5737 60.2659 51.4103 60.0237 51.123L57.3816 48.0584L50.7341 55.472C50.4468 55.7931 50.0412 55.9621 49.63 55.9734Z" fill="url(#paint6_linear_147_2045)"/>
<path d="M66.5528 47.3599L63.3418 44.3348L67.4993 42.9546L66.5528 47.3599Z" fill="url(#paint7_linear_147_2045)"/>
<path d="M59.1673 49.0781C59.1673 49.0781 60.2996 49.4274 60.4179 51.14C60.232 51.1231 59.8039 51.1287 59.8039 51.1287C59.8039 51.1287 59.8827 49.8837 59.0771 49.6302C59.1447 49.4837 59.1673 49.0781 59.1673 49.0781Z" fill="white"/>
<path d="M55.0044 48.8978C55.0326 49.2133 55.0607 49.5231 55.0889 49.8386C55.6522 49.709 56.2663 49.5569 56.9254 49.54C57.7817 49.5175 58.5647 49.6189 59.2633 49.7823C59.2971 49.7428 59.359 49.6527 59.3928 49.495C59.4435 49.2471 59.359 49.0387 59.3421 49.0049C58.9872 48.8866 58.5985 48.7795 58.1873 48.7063C57.0043 48.4922 55.9283 48.6556 55.0044 48.8978Z" fill="url(#paint8_linear_147_2045)"/>
<path d="M54.9536 49.1682C54.9536 49.0555 54.9649 48.9147 55.0043 48.8978C55.0437 48.8809 55.0944 48.9879 55.117 49.0443C55.1282 49.0668 55.1451 49.1231 55.162 49.309C55.1789 49.5456 55.162 49.6583 55.1395 49.7315C55.1282 49.7766 55.1113 49.8386 55.0888 49.8386C55.0663 49.8386 55.0494 49.7991 55.0268 49.7203C54.993 49.6076 54.948 49.4273 54.9536 49.1682Z" fill="url(#paint9_linear_147_2045)"/>
<path d="M53.917 51.1229C54.1536 51.168 54.7282 51.2976 54.7282 51.2976C54.7282 51.2976 54.3564 50.1934 55.0606 49.6977C55.0775 49.6132 55.1 49.4836 55.0775 49.3259C55.0606 49.2019 55.0268 49.1062 54.993 49.0386C54.6888 49.185 54.0353 49.6977 53.917 51.1229Z" fill="white"/>
<path d="M49.0215 51.3315C49.0215 51.3315 49.0497 50.7513 50.0411 50.7682C50.1989 50.8752 50.2045 51.3484 50.2045 51.3484L49.0215 51.3315Z" fill="url(#paint10_linear_147_2045)"/>
<path d="M48.1427 62.6941L50.8524 64.2433L52.4861 58.6718L49.7877 51.1343L49.0215 51.3314L47.8554 62.1026C47.8329 62.3448 47.9455 62.5814 48.1427 62.6941Z" fill="url(#paint11_linear_147_2045)"/>
<path opacity="0.3" d="M52.486 58.6718L49.7876 51.1343L49.0215 51.3314C49.213 51.9962 49.3032 53.0778 49.3426 53.6806C49.5229 56.2382 50.1256 56.9592 49.8327 58.7338C49.5905 60.2154 49.0609 60.4069 49.106 61.404C49.1567 62.4913 49.8383 63.4095 50.6495 64.1306L50.8467 64.2433L52.486 58.6718Z" fill="url(#paint12_linear_147_2045)"/>
<path d="M49.7876 51.1343L64.519 51.3821L66.8118 63.1954L50.8523 64.2433L49.7876 51.1343Z" fill="url(#paint13_linear_147_2045)"/>
<g opacity="0.2">
<path d="M64.519 51.3821L59.5841 51.2976C59.494 51.5398 59.3531 51.8722 59.1503 52.2497C56.9308 56.3452 51.8382 56.7958 51.9283 57.4831C52.0691 58.5028 63.3698 57.2071 63.6571 58.6042C63.7979 59.2745 61.4206 60.773 58.9363 61.3251C55.9505 61.9842 53.7479 61.0885 52.2776 62.6377C51.7818 63.1616 51.5621 63.7813 51.4551 64.1981L66.8174 63.1954L64.519 51.3821Z" fill="url(#paint14_linear_147_2045)"/>
</g>
<path d="M50.0412 50.7681C49.8722 50.7625 49.6412 50.7399 49.3877 50.8751C49.3313 50.9033 49.2863 50.9371 49.2412 50.9709L49.3595 50.9315C49.5454 50.8808 49.8102 50.954 49.906 51.1343C50.0243 51.354 50.0693 51.8554 50.0919 52.1032C50.1651 52.8074 50.6214 57.2015 50.6214 57.2015C50.6552 57.5733 50.9594 57.855 51.3143 57.855L64.9979 57.3705C65.0993 57.3705 65.2007 57.3423 65.2852 57.2803C65.4598 57.1564 65.5443 56.9367 65.4993 56.7226L64.812 51.5342C64.7557 51.2357 64.5022 51.016 64.2149 51.0103L50.0412 50.7681Z" fill="url(#paint15_linear_147_2045)"/>
<path d="M50.1878 50.7738C50.0188 50.7681 49.8217 50.7456 49.602 50.7963C49.54 50.8076 49.4442 50.8357 49.4048 50.8695C49.4048 50.8695 49.8724 50.7738 50.0526 51.1399C50.1597 51.3653 50.216 51.861 50.2385 52.1089C50.3118 52.8131 50.7681 57.2071 50.7681 57.2071C50.8019 57.579 51.1061 57.8606 51.461 57.8606L65.2967 57.7649C65.3981 57.7649 65.4995 57.7367 65.584 57.6747C65.7586 57.5508 65.8431 57.3311 65.798 57.117L64.9587 51.5456C64.9023 51.247 64.6488 51.0273 64.3615 51.0216L50.1878 50.7738Z" fill="url(#paint16_linear_147_2045)"/>
<path opacity="0.1" d="M65.8037 57.1114L64.9643 51.5399C64.908 51.2414 64.6545 51.0216 64.3672 51.016L50.1878 50.7738C50.0188 50.7681 49.8217 50.7456 49.602 50.7963C49.54 50.8076 49.4442 50.8357 49.4048 50.8695C49.4048 50.8695 49.8724 50.7738 50.0526 51.1399C50.0695 51.1737 50.0864 51.2188 50.0977 51.2639C51.4554 51.3371 52.8074 51.3259 54.1594 51.4273C56.824 51.6301 59.5168 51.6751 62.018 52.7117C62.818 53.044 63.3644 54.1989 63.1447 54.7228C62.987 55.1002 62.4574 55.0664 62.2715 55.5622C62.0744 56.0861 62.5476 56.4523 62.3504 56.8184C62.142 57.2015 61.5166 57.01 60.5026 57.2747C59.9449 57.4212 59.5111 57.6409 59.2464 57.7987L65.3023 57.7536C65.4037 57.7536 65.5051 57.7254 65.5896 57.6635C65.7642 57.5395 65.8431 57.3198 65.8037 57.1114Z" fill="url(#paint17_linear_147_2045)"/>
<path d="M59.2126 58.7169L57.4775 59.0831L57.2916 59.0944C57.1057 59.1057 56.9479 58.9535 56.9423 58.762L56.8634 56.9086C56.8578 56.7114 57.0043 56.5537 57.1845 56.5537H57.3704L59.1112 56.7847C59.2802 56.7847 59.4154 56.7058 59.4266 56.8861L59.4999 58.6212C59.5111 58.8014 59.3816 58.7057 59.2126 58.7169Z" fill="url(#paint18_linear_147_2045)"/>
<path d="M59.3478 58.9704L57.4268 59.0944C57.2409 59.1056 57.0832 58.9535 57.0776 58.762L56.9987 56.9142C56.9931 56.7171 57.1395 56.5593 57.3198 56.5593H59.2464C59.4154 56.5593 59.5563 56.7114 59.5619 56.8917L59.6351 58.6268C59.6408 58.8014 59.5112 58.9648 59.3478 58.9704Z" fill="url(#paint19_linear_147_2045)"/>
<path d="M36.9432 54.9259C36.87 55.3484 36.6615 55.6695 36.3122 55.8948L23.085 46.5771L23.7272 45.6025L36.9432 54.9259Z" fill="url(#paint20_linear_147_2045)"/>
<path d="M23.7272 45.6026C23.699 46.0533 23.4906 46.38 23.085 46.5772L20.364 43.9914C20.3358 43.9576 20.3696 43.9126 20.4034 43.9295L23.7272 45.6026Z" fill="url(#paint21_linear_147_2045)"/>
<path d="M20.364 43.9914L21.423 44.9997C21.5526 44.8871 21.6427 44.7462 21.6991 44.5829L20.4034 43.9294C20.364 43.9125 20.3302 43.9632 20.364 43.9914Z" fill="url(#paint22_linear_147_2045)"/>
<path d="M16.8262 41.062C16.8262 41.062 17.0177 42.5605 18.4486 43.9125C19.8739 45.2589 21.4625 45.3209 21.6822 44.8308C21.9075 44.3407 21.7948 43.0731 20.9048 42.5718C20.0203 42.0648 17.7219 41.9465 16.8262 41.062Z" fill="url(#paint23_linear_147_2045)"/>
<path d="M16.8262 41.062C16.8262 41.062 17.0177 42.5605 18.4486 43.9125C19.8739 45.2589 21.4625 45.3209 21.6822 44.8308C21.9075 44.3407 21.7948 43.0731 20.9048 42.5718C20.0203 42.0648 17.7219 41.9465 16.8262 41.062Z" fill="url(#paint24_linear_147_2045)"/>
<g opacity="0.3">
<path d="M16.8262 41.062C16.9107 41.1465 17.0121 41.2254 17.1191 41.2986C17.4458 42.2901 17.8684 42.6675 18.2458 42.7971C18.781 42.983 19.1359 42.645 19.7499 42.9323C20.5611 43.3154 20.5273 44.166 21.1414 44.4026C21.2991 44.4646 21.5019 44.4871 21.7723 44.4139C21.7611 44.5773 21.7272 44.7181 21.6765 44.8251C21.4512 45.3152 19.8682 45.2589 18.443 43.9069C17.0177 42.5605 16.8262 41.062 16.8262 41.062Z" fill="url(#paint25_linear_147_2045)"/>
</g>
<path d="M32.031 56.0636C31.1747 52.5146 27.451 52.6723 24.7583 53.6356C24.1837 53.8384 23.5527 53.8215 22.9781 53.5849C22.4655 53.3709 21.9697 52.9878 21.8402 52.278C21.5585 50.7175 22.4993 49.1909 20.7304 47.9966C18.9615 46.8023 12.2971 47.3544 13.114 53.7652C13.9308 60.1704 17.8348 65.0884 24.2738 65.4039C30.6734 65.7306 32.9493 59.8493 32.031 56.0636ZM17.1475 51.8611C16.8771 50.8077 17.2996 49.788 18.0939 49.5908C18.8882 49.3937 19.7502 50.0809 20.0206 51.1344C20.291 52.1878 19.8685 53.2019 19.0741 53.4047C18.2798 53.6075 17.4179 52.9146 17.1475 51.8611Z" fill="url(#paint26_linear_147_2045)"/>
<path d="M32.3972 55.3539C31.5409 51.8048 27.8229 51.9626 25.1301 52.9259C24.5555 53.1287 23.9245 53.1118 23.3556 52.8752C22.8486 52.6611 22.3472 52.278 22.2176 51.5682C21.9359 50.0078 22.8767 48.4811 21.1135 47.2868C19.3446 46.0926 12.6859 46.639 13.5027 53.0498C14.3195 59.455 18.2235 64.3674 24.6569 64.6941C31.0339 65.0152 33.3098 59.1396 32.3972 55.3539ZM17.5137 51.1457C17.2433 50.0923 17.6658 49.0726 18.4601 48.8755C19.2544 48.6783 20.1163 49.3656 20.3867 50.419C20.6572 51.4725 20.2346 52.4865 19.4403 52.6893C18.6516 52.8921 17.7897 52.1992 17.5137 51.1457Z" fill="url(#paint27_linear_147_2045)"/>
<path d="M17.7392 54.8469C17.7392 55.7201 17.0801 56.4242 16.2745 56.413C15.4633 56.4017 14.8042 55.6806 14.8042 54.8074C14.8042 53.9343 15.4633 53.2301 16.2745 53.2413C17.0801 53.2526 17.7392 53.9681 17.7392 54.8469Z" fill="url(#paint28_linear_147_2045)"/>
<path d="M21.0009 58.8016C21.0009 59.6748 20.3474 60.3733 19.5418 60.3677C18.7306 60.3564 18.0771 59.641 18.0771 58.7678C18.0771 57.8946 18.7306 57.1961 19.5418 57.2017C20.3474 57.213 21.0009 57.9284 21.0009 58.8016Z" fill="url(#paint29_linear_147_2045)"/>
<path d="M26.1439 60.2381C26.1439 61.1732 25.4453 61.9225 24.5834 61.9112C23.7215 61.8999 23.0229 61.1394 23.0229 60.2043C23.0229 59.2691 23.7215 58.5199 24.5834 58.5311C25.4453 58.5424 26.1439 59.3085 26.1439 60.2381Z" fill="url(#paint30_linear_147_2045)"/>
<path d="M30.375 58.2327C30.375 59.1622 29.6821 59.9114 28.8258 59.9002C27.9695 59.8889 27.271 59.1284 27.271 58.1933C27.271 57.2581 27.9695 56.5145 28.8258 56.5258C29.6821 56.537 30.375 57.2975 30.375 58.2327Z" fill="url(#paint31_linear_147_2045)"/>
<path d="M33.7382 77.5439L33.6988 90.8162C33.6988 91.4641 33.1861 92.0612 32.5439 92.1344L23.0685 93.2048C22.3362 93.2893 21.7334 92.771 21.7334 92.0668V77.6847C21.7334 77.0143 22.2686 76.4679 22.9446 76.4003C22.9897 76.3947 23.0291 76.3947 23.0742 76.3947L32.5834 76.3665C33.2312 76.3609 33.7439 76.8904 33.7382 77.5439Z" fill="url(#paint32_linear_147_2045)"/>
<path d="M34.4088 77.5326L34.3694 90.7542C34.3694 91.4021 33.8849 91.9936 33.254 92.0668L23.8518 93.1316C23.1251 93.2161 22.4941 92.7034 22.4941 91.9992V77.6678C22.4941 77.0031 23.0406 76.4566 23.711 76.389C23.756 76.3834 23.8124 76.3834 23.8574 76.3834L33.2934 76.3552C33.93 76.3552 34.4088 76.8791 34.4088 77.5326Z" fill="url(#paint33_linear_147_2045)"/>
<g opacity="0.3">
<path d="M34.4088 77.5157L34.3976 80.8395L22.4941 81.2507V77.6509C22.4941 77.0031 23.0124 76.4736 23.6603 76.3891C23.7166 76.3834 23.7898 76.3891 23.8518 76.3891L33.2878 76.3609C33.93 76.3553 34.4088 76.8623 34.4088 77.5157Z" fill="url(#paint34_linear_147_2045)"/>
<path d="M34.4034 79.8197L34.3978 81.1999C33.2486 81.5773 31.136 81.8815 28.7024 81.9829C27.6264 82.028 26.5842 82.028 25.6378 81.9886C24.3816 81.9379 23.3168 81.8139 22.5 81.6449V80.1464C22.8098 80.0676 23.0915 79.9943 23.4239 79.9267C24.1506 79.7803 25.0294 79.6563 25.9871 79.5606C26.8434 79.4761 27.7672 79.4254 28.7193 79.4028C29.9474 79.3747 31.0797 79.4028 32.0599 79.4761C32.1332 79.4817 32.212 79.4873 32.2853 79.493C32.5162 79.5099 32.7416 79.5324 32.9556 79.5606C33.0289 79.5718 33.1077 79.5775 33.1753 79.5887C33.3443 79.6113 33.4852 79.6338 33.6373 79.6563C33.9246 79.707 34.1837 79.7577 34.4034 79.8197Z" fill="url(#paint35_linear_147_2045)"/>
</g>
<path d="M33.8281 80.1353C33.8281 80.3325 33.6704 80.4959 33.4789 80.5071L23.7105 80.8226C23.4908 80.8282 23.3105 80.6649 23.3105 80.4508V78.0453C23.3105 77.8313 23.4908 77.6566 23.7105 77.6566L33.4845 77.5439C33.676 77.5439 33.8338 77.7017 33.8338 77.8988L33.8281 80.1353Z" fill="white"/>
<path d="M33.6088 80.0959C33.6088 80.2198 33.5074 80.3268 33.3891 80.3268L23.6715 80.6254C23.5306 80.631 23.418 80.524 23.418 80.3888V77.9946C23.418 77.8594 23.5306 77.7524 23.6715 77.7467L33.3948 77.6284C33.5187 77.6284 33.6145 77.7298 33.6145 77.8538L33.6088 80.0959Z" fill="url(#paint36_linear_147_2045)"/>
<path d="M32.2739 78.7663C32.2739 78.8282 32.2232 78.8677 32.1613 78.8677H32.1556C32.0937 78.8677 32.043 78.8282 32.043 78.7663V78.3043C32.043 78.2424 32.0937 78.1973 32.1556 78.1917H32.1613C32.2232 78.1917 32.2739 78.2367 32.2739 78.2987V78.7663Z" fill="url(#paint37_linear_147_2045)"/>
<path d="M33.1699 78.7494C33.1699 78.8114 33.1192 78.8508 33.0629 78.8564H33.0572C32.9953 78.8564 32.9502 78.817 32.9502 78.755V78.2931C32.9502 78.2311 33.0009 78.1861 33.0572 78.1804H33.0629C33.1248 78.1804 33.1699 78.2255 33.1699 78.2875V78.7494Z" fill="url(#paint38_linear_147_2045)"/>
<path d="M32.2681 79.7973C32.2681 79.8593 32.2174 79.9213 32.1554 79.9213H32.1498C32.0878 79.9213 32.0371 79.8649 32.0371 79.803V79.3297C32.0371 79.2678 32.0878 79.2058 32.1498 79.2058H32.1554C32.2174 79.2058 32.2681 79.2621 32.2681 79.3241V79.7973Z" fill="url(#paint39_linear_147_2045)"/>
<path d="M33.164 79.7804C33.164 79.8423 33.1133 79.8592 33.057 79.9099H33.0514C32.9894 79.9099 32.9443 79.848 32.9443 79.786V79.2903C32.9443 79.2283 32.995 79.1438 33.0514 79.1438H33.057C33.119 79.1438 33.164 79.2227 33.164 79.2846V79.7804Z" fill="url(#paint40_linear_147_2045)"/>
<path opacity="0.3" d="M32.9498 78.9918C32.9498 79.0538 32.8991 79.1045 32.8371 79.1045L32.4033 79.1158C32.3414 79.1158 32.3188 79.0707 32.3188 79.0031V78.9975C32.3188 78.9355 32.347 78.8848 32.4033 78.8848L32.8484 78.8735C32.9104 78.8792 32.9498 78.9242 32.9498 78.9918Z" fill="url(#paint41_linear_147_2045)"/>
<path d="M32.9498 78.0341C32.9498 78.096 32.8991 78.1467 32.8428 78.1467L32.409 78.1524C32.347 78.1524 32.3188 78.1017 32.3188 78.0397V78.0341C32.3188 77.9721 32.347 77.9214 32.409 77.9214L32.854 77.9158C32.9104 77.9158 32.9498 77.9665 32.9498 78.0341Z" fill="url(#paint42_linear_147_2045)"/>
<path d="M32.9497 80.0001C32.9497 80.062 32.899 80.1127 32.837 80.1127L32.3807 80.124C32.3188 80.124 32.2681 80.0789 32.2681 80.017V80.0113C32.2681 79.9494 32.3188 79.8987 32.3807 79.8987L32.837 79.8874C32.899 79.8818 32.9497 79.9325 32.9497 80.0001Z" fill="url(#paint43_linear_147_2045)"/>
<path opacity="0.3" d="M29.4289 91.6386C29.3895 91.8583 29.3275 92.0837 29.2317 92.2977C29.1979 92.371 29.1585 92.4498 29.119 92.5343L23.8518 93.1315C23.1251 93.216 22.4941 92.7033 22.4941 91.9992V77.6508C22.4941 77.003 23.0124 76.4622 23.6603 76.3777C23.6772 76.3833 23.6997 76.389 23.7166 76.3946C24.3982 76.6087 25.1418 77.003 25.5813 77.741C25.8573 78.2029 26.0207 78.7944 25.9869 79.5662C25.9756 79.7634 25.9531 79.9774 25.9193 80.2028C25.8967 80.3324 25.8742 80.4676 25.8517 80.6028C25.8235 80.7718 25.7953 80.9464 25.7672 81.121C25.7221 81.4027 25.6883 81.6956 25.6545 81.9886C25.6263 82.2703 25.6038 82.5519 25.5925 82.8336C25.5925 82.8899 25.5869 82.9406 25.5869 82.997C25.5813 83.1716 25.5813 83.3519 25.5869 83.5265C25.5925 83.6448 25.5982 83.7631 25.6094 83.8814C25.6658 84.5405 25.8179 85.1715 26.1221 85.7179C26.353 86.1291 26.6967 86.439 27.0572 86.7319C27.153 86.8052 27.2488 86.884 27.3445 86.9573C27.6713 87.2108 27.9867 87.4755 28.2684 87.7685C28.274 87.7741 28.2797 87.7854 28.2909 87.791C28.4261 87.9375 28.5501 88.0896 28.6684 88.2529C28.7979 88.4332 28.905 88.6247 28.9951 88.8276C29.0289 88.9064 29.0627 88.9853 29.0909 89.0642C29.1416 89.1994 29.1866 89.3402 29.2261 89.4867C29.243 89.5486 29.2599 89.6162 29.2768 89.6838V89.6895C29.3444 89.9542 29.4007 90.2246 29.4345 90.5063C29.4852 90.8781 29.4909 91.2612 29.4289 91.6386Z" fill="white"/>
<path d="M25.6151 83.673C25.6151 83.8138 25.4968 83.9321 25.3503 83.9434L23.5814 84.0391C23.435 84.0448 23.311 83.9377 23.311 83.7969V83.1434C23.311 83.0026 23.4293 82.8787 23.5814 82.873L25.3503 82.7942C25.4968 82.7885 25.6151 82.8956 25.6151 83.0364V83.673Z" fill="url(#paint44_linear_147_2045)"/>
<path d="M28.471 83.5265C28.471 83.6673 28.3584 83.78 28.2175 83.7912L26.5106 83.8814C26.3698 83.887 26.2515 83.78 26.2515 83.6391V82.9969C26.2515 82.8561 26.3698 82.7378 26.5106 82.7322L28.2175 82.6533C28.3584 82.6477 28.471 82.7547 28.471 82.8899V83.5265Z" fill="url(#paint45_linear_147_2045)"/>
<path d="M31.1248 83.3914C31.1248 83.5266 31.0178 83.6449 30.8826 83.6505L29.2376 83.7407C29.1024 83.7463 28.9897 83.6449 28.9897 83.5041V82.8731C28.9897 82.7379 29.1024 82.6196 29.2376 82.614L30.8826 82.5407C31.0178 82.5351 31.1248 82.6421 31.1248 82.7773V83.3914Z" fill="url(#paint46_linear_147_2045)"/>
<path d="M33.7781 83.2561C33.7781 83.3913 33.6711 83.504 33.5415 83.5096L31.9585 83.5941C31.8233 83.5997 31.7163 83.4983 31.7163 83.3631V82.7491C31.7163 82.6139 31.8233 82.5012 31.9585 82.4956L33.5415 82.4223C33.6711 82.4167 33.7781 82.5181 33.7781 82.6533V83.2561Z" fill="url(#paint47_linear_147_2045)"/>
<path d="M25.6151 85.7349C25.6151 85.8757 25.4968 85.9997 25.3503 86.0053L23.5814 86.1236C23.435 86.1349 23.311 86.0278 23.311 85.8814V85.2279C23.311 85.087 23.4293 84.9631 23.5814 84.9518L25.3503 84.8448C25.4968 84.8335 25.6151 84.9406 25.6095 85.0814L25.6151 85.7349Z" fill="url(#paint48_linear_147_2045)"/>
<path d="M28.4654 85.5489C28.4654 85.6841 28.3527 85.8081 28.2119 85.8137L26.5106 85.9264C26.3698 85.9376 26.2515 85.8306 26.2515 85.6898V85.0532C26.2515 84.9123 26.3698 84.794 26.5106 84.7828L28.2119 84.6814C28.3527 84.6757 28.4654 84.7771 28.4654 84.918V85.5489Z" fill="url(#paint49_linear_147_2045)"/>
<path d="M31.119 85.3799C31.119 85.5151 31.0119 85.6334 30.8767 85.639L29.2318 85.7517C29.0966 85.763 28.9839 85.6559 28.9839 85.5207V84.8954C28.9839 84.7602 29.0966 84.6419 29.2318 84.6307L30.8767 84.5349C31.0119 84.5293 31.119 84.6307 31.119 84.7659V85.3799Z" fill="url(#paint50_linear_147_2045)"/>
<path d="M33.7723 85.2053C33.7723 85.3405 33.6652 85.4532 33.5357 85.4644L31.9527 85.5715C31.8175 85.5827 31.7104 85.4757 31.7104 85.3461V84.7321C31.7104 84.5969 31.8175 84.4786 31.9527 84.4729L33.5357 84.3772C33.6652 84.3715 33.7723 84.4729 33.7666 84.6025L33.7723 85.2053Z" fill="url(#paint51_linear_147_2045)"/>
<path d="M25.6092 87.7517C25.6092 87.8925 25.4909 88.0165 25.3445 88.0277L23.5756 88.1686C23.4291 88.1798 23.3052 88.0728 23.3052 87.932V87.2785C23.3052 87.1377 23.4235 87.0137 23.5756 87.0025L25.3445 86.8729C25.4909 86.8616 25.6036 86.9686 25.6036 87.1095L25.6092 87.7517Z" fill="url(#paint52_linear_147_2045)"/>
<path d="M28.4654 87.5263C28.4654 87.6615 28.3527 87.7854 28.2119 87.7967L26.5106 87.9319C26.3698 87.9432 26.2515 87.8418 26.2515 87.7009V87.0643C26.2515 86.9235 26.3698 86.8052 26.5106 86.7939L28.2119 86.67C28.3527 86.6587 28.4654 86.7658 28.4654 86.901V87.5263Z" fill="url(#paint53_linear_147_2045)"/>
<path d="M31.1187 87.3178C31.1187 87.453 31.0117 87.5713 30.8765 87.5826L29.2371 87.7121C29.1019 87.7234 28.9893 87.622 28.9893 87.4812V86.8558C28.9893 86.7206 29.1019 86.5967 29.2371 86.5911L30.8765 86.4728C31.0117 86.4615 31.1187 86.5629 31.1187 86.6981V87.3178Z" fill="url(#paint54_linear_147_2045)"/>
<path d="M33.7664 87.1095C33.7664 87.2447 33.6594 87.3573 33.5298 87.3686L31.9468 87.4982C31.8116 87.5094 31.7046 87.408 31.7046 87.2728V86.6588C31.7046 86.5236 31.8116 86.4053 31.9468 86.3997L33.5298 86.287C33.6594 86.2757 33.7664 86.3771 33.7608 86.5123L33.7664 87.1095Z" fill="url(#paint55_linear_147_2045)"/>
<path d="M25.6092 89.7119C25.6092 89.8528 25.4909 89.9767 25.3445 89.988L23.5756 90.1513C23.4291 90.1626 23.3052 90.0612 23.3052 89.9204V89.2725C23.3052 89.1317 23.4235 89.0021 23.5756 88.9909L25.3445 88.8387C25.4909 88.8275 25.6036 88.9289 25.6036 89.0697L25.6092 89.7119Z" fill="url(#paint56_linear_147_2045)"/>
<path d="M28.4595 89.4529C28.4595 89.5881 28.3469 89.712 28.206 89.7233L26.5047 89.881C26.3639 89.8923 26.2456 89.7909 26.2456 89.65V89.0134C26.2456 88.8726 26.3639 88.7487 26.5047 88.7374L28.206 88.5909C28.3469 88.5797 28.4595 88.6811 28.4595 88.8163V89.4529Z" fill="url(#paint57_linear_147_2045)"/>
<path d="M31.1133 89.2106C31.1133 89.3458 31.0063 89.4641 30.8711 89.4754L29.2318 89.6275C29.0966 89.6387 28.9839 89.5373 28.9839 89.4021V88.7768C28.9839 88.6416 29.0966 88.5177 29.2318 88.5064L30.8711 88.3656C31.0063 88.3543 31.1133 88.4557 31.1133 88.5909V89.2106Z" fill="url(#paint58_linear_147_2045)"/>
<path d="M25.6095 91.8188C25.6095 91.9596 25.4912 92.0835 25.3503 92.1004L23.5814 92.292C23.435 92.3089 23.311 92.2075 23.311 92.061V91.4132C23.311 91.2723 23.4293 91.1428 23.5814 91.1259L25.3503 90.9512C25.4968 90.9343 25.6095 91.0414 25.6095 91.1766V91.8188Z" fill="url(#paint59_linear_147_2045)"/>
<path d="M28.4542 91.5146C28.4542 91.6498 28.3415 91.7738 28.2007 91.7907L26.4994 91.9709C26.3585 91.9878 26.2402 91.8864 26.2402 91.7456V91.109C26.2402 90.9682 26.3585 90.8443 26.4994 90.833L28.2007 90.664C28.3415 90.6527 28.4542 90.7485 28.4542 90.8893V91.5146Z" fill="url(#paint60_linear_147_2045)"/>
<path d="M31.1075 91.2387C31.1075 91.3739 31.0004 91.4922 30.8652 91.5091L29.2259 91.6837C29.0907 91.7006 28.978 91.5992 28.978 91.464V90.8387C28.978 90.7035 29.0907 90.5796 29.2259 90.5683L30.8652 90.405C31.0004 90.3937 31.1075 90.4895 31.1075 90.6247V91.2387Z" fill="url(#paint61_linear_147_2045)"/>
<path d="M33.5188 88.1403L31.9358 88.2755C31.8006 88.2868 31.7049 88.4389 31.7049 88.5741V88.9177V89.205L31.6992 90.512V90.895V91.1485C31.6992 91.2838 31.8006 91.4021 31.9302 91.3908L33.5132 91.2218C33.6428 91.2105 33.7554 91.0697 33.7554 90.9345V90.6866V90.3092L33.7611 89.0248V88.7375V88.3938C33.7611 88.2642 33.6484 88.129 33.5188 88.1403Z" fill="url(#paint62_linear_147_2045)"/>
<path d="M25.7162 83.6674C25.7162 83.8082 25.5979 83.9265 25.4514 83.9378L23.6825 84.0335C23.536 84.0392 23.4121 83.9321 23.4121 83.7913V83.1378C23.4121 82.997 23.5304 82.873 23.6825 82.8674L25.4514 82.7885C25.5979 82.7829 25.7105 82.8899 25.7105 83.0308L25.7162 83.6674Z" fill="url(#paint63_linear_147_2045)"/>
<path d="M28.471 83.5265C28.471 83.6673 28.3584 83.78 28.2175 83.7912L26.5106 83.8814C26.3698 83.887 26.2515 83.78 26.2515 83.6391V82.9969C26.2515 82.8561 26.3698 82.7378 26.5106 82.7322L28.2175 82.6533C28.3584 82.6477 28.471 82.7547 28.471 82.8899V83.5265Z" fill="url(#paint64_linear_147_2045)"/>
<path d="M31.2144 83.3858C31.2144 83.521 31.1074 83.6393 30.9722 83.6449L29.3328 83.735C29.1976 83.7407 29.085 83.6393 29.085 83.4984V82.8731C29.085 82.7379 29.1976 82.6196 29.3328 82.614L30.9722 82.5407C31.1074 82.5351 31.2144 82.6421 31.2144 82.7773V83.3858Z" fill="url(#paint65_linear_147_2045)"/>
<path d="M33.8621 83.2505C33.8621 83.3857 33.7551 83.4983 33.6255 83.504L32.0425 83.5885C31.9073 83.5941 31.8003 83.4927 31.8003 83.3575V82.7435C31.8003 82.6083 31.9073 82.4956 32.0425 82.49L33.6255 82.4167C33.7551 82.4111 33.8621 82.5125 33.8565 82.6477L33.8621 83.2505Z" fill="url(#paint66_linear_147_2045)"/>
<path d="M25.7105 85.7293C25.7105 85.8701 25.5922 85.994 25.4514 85.9997L23.6825 86.118C23.536 86.1292 23.4121 86.0222 23.4121 85.8757V85.2223C23.4121 85.0814 23.5304 84.9575 23.6825 84.9462L25.4514 84.8392C25.5979 84.8279 25.7105 84.935 25.7105 85.0758V85.7293Z" fill="url(#paint67_linear_147_2045)"/>
<path d="M28.4654 85.5489C28.4654 85.6841 28.3527 85.8081 28.2119 85.8137L26.5106 85.9264C26.3698 85.9376 26.2515 85.8306 26.2515 85.6898V85.0532C26.2515 84.9123 26.3698 84.794 26.5106 84.7828L28.2119 84.6814C28.3527 84.6757 28.4654 84.7771 28.4654 84.918V85.5489Z" fill="url(#paint68_linear_147_2045)"/>
<path d="M31.2144 85.3743C31.2144 85.5095 31.1074 85.6278 30.9722 85.6334L29.3328 85.7405C29.1976 85.7517 29.085 85.6447 29.085 85.5095V84.8842C29.085 84.749 29.1976 84.6307 29.3328 84.6194L30.9722 84.5237C31.1074 84.518 31.2144 84.6194 31.2144 84.7546V85.3743Z" fill="url(#paint69_linear_147_2045)"/>
<path d="M33.8563 85.1997C33.8563 85.3349 33.7492 85.4476 33.6197 85.4532L32.0367 85.5602C31.9015 85.5715 31.7944 85.4645 31.7944 85.3349V84.7209C31.7944 84.5857 31.9015 84.473 32.0367 84.4617L33.6197 84.3659C33.7492 84.3603 33.8563 84.4617 33.8506 84.5913L33.8563 85.1997Z" fill="url(#paint70_linear_147_2045)"/>
<path d="M25.7105 87.7404C25.7105 87.8813 25.5922 88.0052 25.4514 88.0165L23.6825 88.1573C23.536 88.1686 23.4121 88.0616 23.4121 87.9207V87.2729C23.4121 87.132 23.5304 87.0081 23.6825 86.9968L25.4514 86.8673C25.5979 86.856 25.7105 86.963 25.7105 87.1039V87.7404Z" fill="url(#paint71_linear_147_2045)"/>
<path d="M28.4654 87.5263C28.4654 87.6615 28.3527 87.7854 28.2119 87.7967L26.5106 87.9319C26.3698 87.9432 26.2515 87.8418 26.2515 87.7009V87.0643C26.2515 86.9235 26.3698 86.8052 26.5106 86.7939L28.2119 86.67C28.3527 86.6587 28.4654 86.7658 28.4654 86.901V87.5263Z" fill="url(#paint72_linear_147_2045)"/>
<path d="M31.2085 87.3122C31.2085 87.4474 31.1015 87.5657 30.9663 87.5769L29.327 87.7065C29.1918 87.7178 29.0791 87.6164 29.0791 87.4755V86.8502C29.0791 86.715 29.1918 86.5911 29.327 86.5855L30.9663 86.4672C31.1015 86.4559 31.2085 86.5573 31.2085 86.6925V87.3122Z" fill="url(#paint73_linear_147_2045)"/>
<path d="M33.8511 87.1039C33.8511 87.2391 33.744 87.3517 33.6145 87.363L32.0371 87.4926C31.9019 87.5038 31.7949 87.4024 31.8005 87.2672V86.6532C31.8005 86.518 31.9075 86.3997 32.0427 86.394L33.6201 86.2814C33.7497 86.2701 33.8511 86.3715 33.8511 86.5067V87.1039Z" fill="url(#paint74_linear_147_2045)"/>
<path d="M25.7105 89.7063C25.7105 89.8471 25.5922 89.9711 25.4514 89.9823L23.6825 90.1457C23.536 90.157 23.4121 90.0556 23.4121 89.9147V89.2669C23.4121 89.1261 23.5304 88.9965 23.6825 88.9852L25.4514 88.8331C25.5979 88.8219 25.7105 88.9233 25.7105 89.0641V89.7063Z" fill="url(#paint75_linear_147_2045)"/>
<path d="M28.4595 89.4529C28.4595 89.5881 28.3469 89.712 28.206 89.7233L26.5047 89.881C26.3639 89.8923 26.2456 89.7909 26.2456 89.65V89.0134C26.2456 88.8726 26.3639 88.7487 26.5047 88.7374L28.206 88.5909C28.3469 88.5797 28.4595 88.6811 28.4595 88.8163V89.4529Z" fill="url(#paint76_linear_147_2045)"/>
<path d="M31.2032 89.1994C31.2032 89.3346 31.0961 89.4529 30.9609 89.4642L29.3216 89.6163C29.1864 89.6275 29.0737 89.5261 29.0737 89.3909V88.7656C29.0737 88.6304 29.1864 88.5065 29.3216 88.4952L30.9609 88.3544C31.0961 88.3431 31.2032 88.4445 31.2032 88.5797V89.1994Z" fill="url(#paint77_linear_147_2045)"/>
<path d="M25.7049 91.8078C25.7049 91.9486 25.5866 92.0725 25.4458 92.0894L23.6825 92.281C23.536 92.2979 23.4121 92.1965 23.4121 92.05V91.4022C23.4121 91.2613 23.5304 91.1317 23.6825 91.1205L25.4458 90.9459C25.5922 90.929 25.7049 91.036 25.7049 91.1712V91.8078Z" fill="url(#paint78_linear_147_2045)"/>
<path d="M28.4542 91.5146C28.4542 91.6498 28.3415 91.7738 28.2007 91.7907L26.4994 91.9709C26.3585 91.9878 26.2402 91.8864 26.2402 91.7456V91.109C26.2402 90.9682 26.3585 90.8443 26.4994 90.833L28.2007 90.664C28.3415 90.6527 28.4542 90.7485 28.4542 90.8893V91.5146Z" fill="url(#paint79_linear_147_2045)"/>
<path d="M31.1973 91.2275C31.1973 91.3627 31.0903 91.481 30.9551 91.4979L29.3157 91.6725C29.1805 91.6894 29.0679 91.588 29.0679 91.4528V90.8275C29.0679 90.6923 29.1805 90.5684 29.3157 90.5571L30.9551 90.3937C31.0903 90.3825 31.1973 90.4782 31.1973 90.6134V91.2275Z" fill="url(#paint80_linear_147_2045)"/>
<path d="M33.6087 88.1347L32.0313 88.2699C31.8961 88.2812 31.7947 88.4389 31.7947 88.5685V88.9121V89.1994L31.7891 90.5064V90.8894V91.1429C31.7891 91.2781 31.8905 91.3964 32.0257 91.3852L33.603 91.2162C33.7326 91.2049 33.8396 91.0641 33.8396 90.9289V90.681V90.3036L33.8453 89.0191V88.7318V88.3882C33.8509 88.2586 33.7382 88.1234 33.6087 88.1347Z" fill="url(#paint81_linear_147_2045)"/>
<path d="M13.6606 86.5235L21.5136 86.1404L30.4708 86.4277L21.6319 88.4501L13.6606 86.5235Z" fill="url(#paint82_linear_147_2045)"/>
<path d="M19.9928 94.2131L13.627 92.5174C12.9848 92.3484 12.4834 91.7006 12.4834 91.0697V91.064C12.4834 90.4331 12.9848 90.0049 13.627 90.1176L20.4547 91.2105L19.9928 94.2131Z" fill="url(#paint83_linear_147_2045)"/>
<path d="M30.4763 92.816L20.2968 94.0666C19.6545 94.1455 19.125 93.6948 19.125 93.0526V92.6188C19.125 91.9822 19.6545 91.4132 20.2968 91.3569L30.4763 90.4556C30.0313 91.3231 29.9299 92.1231 30.4763 92.816Z" fill="#D8DEE8"/>
<path d="M30.5666 92.9344L20.3814 94.2019C19.542 94.3089 18.8491 93.7118 18.8491 92.878V92.8668C18.8491 92.033 19.542 91.2894 20.3814 91.2162L30.5666 90.3317C30.6286 90.3261 30.6793 90.3768 30.6793 90.45C30.6793 90.5176 30.6286 90.5796 30.5666 90.5852L20.3814 91.5035C19.7054 91.5654 19.1533 92.1626 19.1533 92.833V92.8442C19.1533 93.5146 19.711 93.9935 20.3814 93.9146L30.5666 92.6809C30.6286 92.6752 30.6793 92.7259 30.6793 92.7935C30.6793 92.8611 30.6286 92.9231 30.5666 92.9344Z" fill="url(#paint84_linear_147_2045)"/>
<path d="M20.2575 91.2218L13.627 90.1176C12.9848 90.0049 12.4834 89.1487 12.4834 88.2022V88.191C12.4834 87.2446 12.9848 86.4897 13.627 86.5122L20.6575 86.7488L20.2575 91.2218Z" fill="url(#paint85_linear_147_2045)"/>
<path d="M30.4763 90.1514L20.8714 90.9569C19.9193 91.0358 19.125 90.326 19.125 89.3627V88.7092C19.125 87.7515 19.9137 86.9459 20.8714 86.9121L30.4763 86.6023C30.0313 87.898 29.9299 89.1035 30.4763 90.1514Z" fill="#D8DEE8"/>
<path d="M30.5666 90.3317L20.3814 91.2161C19.542 91.2894 18.8491 90.326 18.8491 89.0698V89.0585C18.8491 87.8023 19.542 86.7601 20.3814 86.7376L30.5666 86.4333C30.6286 86.4333 30.6793 86.5122 30.6793 86.6193C30.6793 86.7207 30.6286 86.8108 30.5666 86.8108L20.3814 87.1713C19.7054 87.1939 19.1533 88.0332 19.1533 89.0416V89.0529C19.1533 90.0613 19.711 90.8387 20.3814 90.7823L30.5666 89.9542C30.6286 89.9486 30.6793 90.0275 30.6793 90.1345C30.6793 90.2415 30.6286 90.3317 30.5666 90.3317Z" fill="url(#paint86_linear_147_2045)"/>
<path opacity="0.5" d="M18.207 90.2866L16.793 90.0444C16.4607 89.1261 16.4888 88.2755 16.793 87.2615L18.207 87.3572C17.9197 88.422 17.9592 89.3909 18.207 90.2866Z" fill="white"/>
<path d="M56.1481 80.5861V75.409L52.9258 75.4033V80.5917C52.9258 81.0987 52.6216 81.5494 52.1653 81.7184C49.1908 82.8394 47.0332 85.9097 47.0332 88.7376C47.0332 92.2754 50.402 94.0668 54.5369 94.0274C58.6493 93.9936 61.973 92.1571 61.973 88.6531C61.973 85.8533 59.8549 82.8169 56.903 81.7128C56.4467 81.5438 56.1481 81.0931 56.1481 80.5861Z" fill="url(#paint87_linear_147_2045)"/>
<path d="M48.3235 86.2814C47.8446 86.9687 47.5742 87.7517 47.5742 88.5742C47.5742 91.3797 50.7008 93.6274 54.5371 93.5936C58.3566 93.5598 61.4437 91.2783 61.4437 88.501C61.4437 87.6841 61.1789 86.9124 60.7057 86.2307L48.3235 86.2814Z" fill="url(#paint88_linear_147_2045)"/>
<path d="M60.7001 86.2306C60.7001 86.5405 57.9454 86.7996 54.5371 86.8165C51.112 86.8334 48.3291 86.5912 48.3291 86.2813C48.3291 85.9715 51.1176 85.7067 54.5371 85.6955C57.9454 85.6842 60.7001 85.9208 60.7001 86.2306Z" fill="url(#paint89_linear_147_2045)"/>
<g opacity="0.3">
<path d="M55.1848 91.7064C54.351 91.7121 52.6272 91.7177 51.2977 90.3826C50.4921 89.5714 49.4894 87.9264 49.9738 86.5575C50.7118 84.4844 54.2778 84.7097 54.5257 82.9972C54.6383 82.2198 53.9116 82.0789 53.7426 80.7325C53.5567 79.2453 54.3398 78.6538 54.3285 77.2905C54.3229 76.8004 54.2158 76.1638 53.8046 75.4033H52.9258V80.5917C52.9258 81.0987 52.6216 81.5494 52.1653 81.7184C49.1908 82.8394 47.0332 85.9097 47.0332 88.7376C47.0332 92.2754 50.402 94.0668 54.5369 94.0274C58.6493 93.9936 61.973 92.1571 61.973 88.6531C61.973 88.4503 61.9618 88.2532 61.9392 88.0504C60.79 89.4024 58.3902 91.6952 55.1848 91.7064Z" fill="white"/>
</g>
<path d="M56.0129 76.0455L53.061 76.0398C52.7793 76.0398 52.5483 75.7976 52.5483 75.5047C52.5483 75.2061 52.7793 74.9695 53.061 74.9695L56.0129 74.9751C56.2946 74.9751 56.5255 75.2174 56.5255 75.5103C56.5255 75.8032 56.2946 76.0455 56.0129 76.0455Z" fill="url(#paint90_linear_147_2045)"/>
<path d="M63.2684 72.4287C65.7471 72.5188 67.8202 74.1131 68.2258 76.1186V76.1242C68.2483 76.2369 68.2652 76.3439 68.2765 76.4566C68.2765 76.4622 68.2765 76.4735 68.2765 76.4791C68.2821 76.5298 68.2878 76.5862 68.2878 76.6369C68.2878 76.6481 68.2878 76.6538 68.2878 76.665C68.2878 76.7214 68.2934 76.7721 68.2934 76.8284C68.2934 79.1606 66.0288 80.9295 63.2684 80.7831C63.1951 80.7774 63.1219 80.7718 63.0487 80.7662C63.043 80.7662 63.0318 80.7662 63.0261 80.7662C62.9585 80.7605 62.8909 80.7493 62.8233 80.7436C62.8121 80.7436 62.8008 80.7436 62.7895 80.738C62.7219 80.7267 62.66 80.7211 62.5924 80.7098C62.5811 80.7098 62.5698 80.7042 62.5529 80.7042C62.491 80.6929 62.4234 80.6817 62.3614 80.6704C62.3501 80.6704 62.3332 80.6648 62.322 80.6648C62.26 80.6535 62.198 80.6366 62.1361 80.6197C62.1248 80.6141 62.1135 80.6141 62.1023 80.6084C62.0403 80.5915 61.9783 80.5746 61.9164 80.5577C61.9051 80.5521 61.8938 80.5521 61.8826 80.5465C61.8262 80.5296 61.7755 80.5127 61.7192 80.4958C61.7079 80.4901 61.691 80.4845 61.6798 80.4845C61.6234 80.4676 61.5727 80.4451 61.5164 80.4282C61.5051 80.4225 61.4938 80.4225 61.4826 80.4169C59.6348 79.7184 58.3335 78.1466 58.3335 76.389C58.3448 74.1018 60.5362 72.3273 63.2684 72.4287Z" fill="url(#paint91_linear_147_2045)"/>
<path d="M57.8154 76.3834C57.8154 78.6706 60.0125 80.6367 62.7447 80.7831C65.5107 80.9296 67.7753 79.1607 67.7753 76.8285C67.7753 74.4962 65.5107 72.5245 62.7447 72.4231C60.0068 72.3274 57.8154 74.0963 57.8154 76.3834Z" fill="url(#paint92_linear_147_2045)"/>
<g opacity="0.3">
<path d="M61.5392 79.6621C62.1363 78.4622 61.5336 77.2791 62.3448 76.5186C63.1672 75.7469 64.2489 76.5468 65.4093 75.9328C65.86 75.6962 66.3614 75.2229 66.7388 74.2258C67.3923 74.9638 67.781 75.8652 67.781 76.8285C67.781 79.1607 65.5164 80.9296 62.7504 80.7831C62.1194 80.7493 61.5223 80.6198 60.9702 80.4113C61.235 80.1691 61.4153 79.9043 61.5392 79.6621Z" fill="url(#paint93_linear_147_2045)"/>
</g>
<path d="M62.9982 76.6424C62.9982 76.879 62.8179 77.0649 62.5982 77.0593C62.3785 77.0536 62.1982 76.8621 62.1982 76.6255C62.1982 76.3889 62.3729 76.203 62.5982 76.2086C62.8179 76.2086 62.9926 76.4058 62.9982 76.6424Z" fill="white"/>
<path d="M61.5898 79.2113C61.3644 79.2057 61.1729 79.1324 61.0095 79.0029C60.311 78.4452 60.4518 76.9805 61.3306 75.6566C61.9841 74.6708 62.8798 74.0286 63.6065 74.0286C63.8375 74.0286 64.0347 74.0962 64.2037 74.2201C64.936 74.7665 64.7895 76.2707 63.8769 77.6283C63.2122 78.6198 62.3108 79.2395 61.5898 79.2113ZM63.6122 74.299C62.9699 74.2933 62.1362 74.9074 61.5391 75.8144C60.7616 76.9861 60.5926 78.3438 61.156 78.7944C61.2743 78.8902 61.4264 78.9409 61.5954 78.9465C62.2263 78.9691 63.0657 78.3776 63.6741 77.4706C64.4741 76.2819 64.6543 74.8905 64.0628 74.4454C63.9389 74.3497 63.7868 74.299 63.6122 74.299Z" fill="white"/>
<path d="M63.6233 79.2846C62.8909 79.2564 61.9952 78.5748 61.3361 77.5607C60.4573 76.1974 60.3164 74.7328 61.0093 74.2088C61.1727 74.0849 61.3642 74.0229 61.5896 74.0229C62.305 74.0229 63.2064 74.6764 63.8824 75.6904C64.8063 77.0819 64.9584 78.5973 64.226 79.1156C64.0514 79.2395 63.8486 79.2958 63.6233 79.2846ZM61.5839 74.2877C61.4149 74.2877 61.2685 74.3328 61.1445 74.4229C60.5812 74.8511 60.7558 76.2087 61.5333 77.4143C62.136 78.3494 62.9754 78.9973 63.6176 79.0198C63.7923 79.0254 63.9444 78.986 64.0683 78.8959C64.6598 78.4734 64.4739 77.0706 63.6627 75.8482C63.0543 74.913 62.2149 74.2934 61.5839 74.2877Z" fill="white"/>
<path d="M62.6487 78.1804L62.5755 78.2142C61.8488 78.1804 61.1728 78.0114 60.6714 77.7016C60.1475 77.3805 59.8602 76.9693 59.8658 76.5299C59.8771 75.6623 61.0432 75.0032 62.5417 75.0201L62.6149 75.0257C63.6458 75.0539 64.5923 75.3975 65.0824 75.9327C65.3077 76.1806 65.426 76.4228 65.4204 76.6989C65.4147 77.5946 64.181 78.2593 62.6487 78.1804ZM62.5417 75.2905C61.2009 75.2736 60.1193 75.8369 60.108 76.5467C60.1024 76.8848 60.3446 77.2171 60.7841 77.4875C61.2573 77.7748 61.8882 77.9495 62.5755 77.9776H62.6487C64.0176 78.0171 65.1556 77.4537 65.1612 76.7214C65.1612 76.513 65.0767 76.3101 64.8965 76.113C64.4514 75.6285 63.5726 75.313 62.6093 75.2849L62.5417 75.2905Z" fill="white"/>
<path d="M89.4304 50.3402C89.4078 50.3346 89.3853 50.3346 89.3628 50.3346C89.3571 50.0811 89.329 49.8219 89.2895 49.5741C89.3121 49.5684 89.3346 49.5572 89.3571 49.5459C89.774 49.3544 89.9825 48.8248 89.8191 48.3516C89.6557 47.8728 89.1825 47.6362 88.7544 47.8277C88.7318 47.839 88.7093 47.8502 88.6924 47.8615C88.5685 47.6362 88.4276 47.4221 88.2699 47.2193C88.2868 47.2024 88.3037 47.1799 88.315 47.1573C88.6023 46.7461 88.5403 46.1433 88.1741 45.8053C87.8023 45.4673 87.2671 45.5236 86.9742 45.9461C86.9573 45.9687 86.946 45.9912 86.9348 46.0137C86.7151 45.8785 86.4897 45.7659 86.2588 45.6701C86.2644 45.6419 86.27 45.6194 86.27 45.5912C86.332 45.0504 85.994 44.5378 85.5095 44.4477C85.025 44.3519 84.58 44.7237 84.5237 45.2701C84.518 45.2983 84.518 45.3265 84.518 45.3546C84.2645 45.3603 84.0167 45.3884 83.7688 45.4391C83.7632 45.411 83.7519 45.3828 83.7406 45.3546C83.5378 44.8307 83.0026 44.566 82.5407 44.7631C82.0788 44.9603 81.8703 45.5462 82.0844 46.0644C82.0957 46.0926 82.1069 46.1152 82.1182 46.1433C81.9098 46.2898 81.707 46.4588 81.5154 46.6447C81.4929 46.6278 81.476 46.6053 81.4535 46.5884C81.0366 46.2391 80.4563 46.3067 80.1578 46.7405C79.8648 47.1742 79.9662 47.8052 80.3887 48.1432C80.4113 48.1601 80.4338 48.177 80.4563 48.1939C80.3493 48.4418 80.2592 48.7009 80.1916 48.96C80.169 48.9544 80.1409 48.9488 80.1127 48.9431C79.6001 48.8643 79.155 49.2417 79.1156 49.7712C79.0762 50.3008 79.4592 50.7853 79.9606 50.8585C79.9888 50.8641 80.0113 50.8641 80.0395 50.8641C80.0676 51.1345 80.1127 51.3993 80.1747 51.6584C80.1521 51.6641 80.124 51.6753 80.1014 51.6866C79.6451 51.8894 79.4536 52.4415 79.6677 52.9147C79.8817 53.3823 80.4169 53.5963 80.8619 53.3992C80.8845 53.3879 80.907 53.3766 80.9295 53.3654C81.076 53.5794 81.2337 53.7822 81.4084 53.9681C81.3915 53.985 81.3746 54.0076 81.3633 54.0301C81.0817 54.4301 81.1774 54.9934 81.5718 55.2864C81.9605 55.5737 82.4956 55.4835 82.7717 55.0892C82.7886 55.0667 82.7998 55.0498 82.8111 55.0272C83.0308 55.1343 83.2562 55.2244 83.4815 55.292C83.4759 55.3145 83.4702 55.3427 83.4702 55.3652C83.4195 55.8441 83.7519 56.2722 84.2138 56.3173C84.6701 56.3623 85.0757 56.0187 85.1321 55.5455C85.1377 55.523 85.1377 55.4948 85.1377 55.4723C85.3687 55.4497 85.5997 55.4103 85.825 55.354C85.8306 55.3765 85.8419 55.399 85.8475 55.4216C86.0222 55.8553 86.4954 56.0412 86.9066 55.8497C87.3178 55.6582 87.515 55.1512 87.346 54.7174C87.3347 54.6949 87.3291 54.6723 87.3178 54.6554C87.5094 54.5202 87.6897 54.3681 87.8587 54.1935C87.8756 54.2104 87.8925 54.2273 87.9094 54.2385C88.2586 54.5202 88.7544 54.4357 89.0248 54.0526C89.2952 53.6696 89.2445 53.1288 88.9008 52.8415C88.8839 52.8246 88.867 52.8133 88.8445 52.802C88.9515 52.5767 89.0417 52.3457 89.1149 52.1091C89.1374 52.1147 89.16 52.1204 89.1825 52.1204C89.6163 52.1823 90.0219 51.8387 90.0895 51.3542C90.1684 50.8585 89.8698 50.4078 89.4304 50.3402ZM87.2559 52.5823C86.2531 54.0019 84.3603 54.3061 82.9857 53.2414C81.5605 52.1373 81.2112 49.9909 82.2647 48.4643C83.3238 46.932 85.3349 46.6898 86.7151 47.9009C88.0389 49.0727 88.2643 51.1514 87.2559 52.5823Z" fill="url(#paint94_linear_147_2045)"/>
<path d="M97.779 46.5489C97.7621 46.5489 97.7508 46.5433 97.7339 46.5433C97.7283 46.3743 97.7114 46.1997 97.6832 46.0307C97.7001 46.025 97.7114 46.0194 97.7283 46.0138C98.01 45.8898 98.1452 45.5293 98.0381 45.2138C97.9311 44.8927 97.61 44.735 97.3283 44.8589C97.3114 44.8645 97.3001 44.8702 97.2832 44.8814C97.1987 44.7293 97.1086 44.5885 97.0016 44.4477C97.0128 44.4364 97.0241 44.4195 97.0354 44.4082C97.2269 44.1322 97.1875 43.7266 96.9396 43.5012C96.6917 43.2703 96.3312 43.3153 96.1397 43.5914C96.1284 43.6083 96.1228 43.6196 96.1115 43.6365C95.965 43.5463 95.8129 43.4675 95.6608 43.4055C95.6665 43.3886 95.6664 43.3717 95.6721 43.3492C95.7115 42.9886 95.4862 42.645 95.1651 42.5774C94.8383 42.5154 94.5454 42.7633 94.506 43.1294C94.506 43.1463 94.506 43.1689 94.5003 43.1858C94.3313 43.1914 94.1623 43.2083 93.999 43.2421C93.9933 43.2252 93.9877 43.2027 93.9821 43.1858C93.8469 42.8365 93.4863 42.6562 93.1821 42.7858C92.8723 42.9154 92.7371 43.3097 92.8779 43.659C92.8835 43.6759 92.8948 43.6928 92.9004 43.7097C92.7596 43.8055 92.6244 43.9181 92.5005 44.0421C92.4892 44.0308 92.4723 44.0139 92.461 44.0026C92.185 43.766 91.7963 43.8111 91.5991 44.104C91.4019 44.3913 91.4752 44.8138 91.7512 45.0448C91.7681 45.0561 91.7794 45.0673 91.7963 45.0786C91.723 45.2476 91.6667 45.4166 91.616 45.5912C91.5991 45.5856 91.5822 45.5856 91.5653 45.58C91.2273 45.5293 90.9287 45.7772 90.9006 46.1377C90.8724 46.4926 91.1259 46.8193 91.4639 46.8644C91.4808 46.8644 91.4977 46.87 91.5146 46.87C91.5315 47.0503 91.5653 47.2306 91.6048 47.4052C91.5879 47.4108 91.571 47.4165 91.5597 47.4221C91.2555 47.5573 91.1259 47.9291 91.2724 48.2446C91.4132 48.5601 91.7681 48.7065 92.0667 48.5713C92.0836 48.5657 92.0949 48.5544 92.1118 48.5488C92.2075 48.6896 92.3146 48.8248 92.4329 48.9544C92.4216 48.9657 92.4103 48.9826 92.4047 48.9938C92.2188 49.2642 92.2808 49.6417 92.5455 49.8332C92.8047 50.0248 93.1652 49.9684 93.3455 49.7036C93.3567 49.6924 93.3624 49.6755 93.3736 49.6642C93.5201 49.7375 93.6722 49.7994 93.8243 49.8445C93.8187 49.8614 93.8187 49.8783 93.8187 49.8952C93.7849 50.2163 94.0102 50.5036 94.3144 50.5374C94.6186 50.5712 94.889 50.3402 94.9285 50.0191C94.9285 50.0022 94.9285 49.9853 94.9341 49.9684C95.0918 49.9572 95.2439 49.929 95.396 49.8896C95.4017 49.9065 95.4073 49.9234 95.4129 49.9346C95.5312 50.2276 95.8467 50.3515 96.1228 50.2276C96.3988 50.098 96.5284 49.76 96.4157 49.467C96.4101 49.4501 96.4044 49.4389 96.3988 49.422C96.5284 49.3318 96.6467 49.2304 96.7593 49.1121C96.7706 49.1234 96.7819 49.1347 96.7931 49.1459C97.0241 49.3375 97.3565 49.2811 97.5424 49.022C97.7226 48.7629 97.6888 48.4023 97.4579 48.2052C97.4466 48.1939 97.4353 48.1883 97.4184 48.177C97.4917 48.0249 97.548 47.8728 97.5987 47.7151C97.6156 47.7207 97.6269 47.7207 97.6438 47.7263C97.9367 47.7658 98.2071 47.5404 98.2522 47.2137C98.2691 46.8982 98.0719 46.594 97.779 46.5489ZM96.3256 48.0474C95.6552 48.9995 94.3933 49.2023 93.475 48.4812C92.523 47.7376 92.292 46.2954 92.9906 45.2758C93.6947 44.2449 95.0411 44.0871 95.9594 44.904C96.8495 45.6927 97.0016 47.0897 96.3256 48.0474Z" fill="url(#paint95_linear_147_2045)"/>
<path d="M89.4304 49.6585C85.1828 49.5796 81.7295 53.1963 81.7295 57.7312V59.8099L97.0637 59.9958V57.934C97.0637 53.4442 93.6554 49.7374 89.4304 49.6585Z" fill="url(#paint96_linear_147_2045)"/>
<path d="M91.5599 59.9338L87.2954 59.8831V50.0584C87.2954 49.2472 87.9151 48.5994 88.6756 48.6163L90.1854 48.6445C90.9459 48.6614 91.5599 49.3261 91.5599 50.1373V59.9338Z" fill="url(#paint97_linear_147_2045)"/>
<path d="M97.0072 61.8493L81.7857 61.6859C81.2675 61.6803 80.8506 61.2296 80.8506 60.6832C80.8506 60.1311 81.2731 59.6917 81.7857 59.6973L97.0072 59.8832C97.5143 59.8889 97.9255 60.3339 97.9255 60.8803C97.9255 61.4211 97.5143 61.8549 97.0072 61.8493Z" fill="url(#paint98_linear_147_2045)"/>
<path d="M81.9658 61.5676C82.2926 63.1394 85.5149 64.4012 89.4357 64.4407C93.3341 64.4745 96.517 63.2858 96.8381 61.731L81.9658 61.5676Z" fill="url(#paint99_linear_147_2045)"/>
<path d="M89.1543 78.8453L95.1032 78.941V77.6679C95.1032 77.3073 94.63 77.0876 94.4047 77.3355L94.2807 77.6228C94.0723 77.8482 93.785 77.9158 93.5258 77.7975L89.1543 75.8032V78.8453Z" fill="url(#paint100_linear_147_2045)"/>
<path d="M88.5685 78.8396L83.4421 78.7551L83.2393 77.6228C83.2393 77.3073 83.7125 77.1665 83.8815 77.3805L84.0674 77.6115C84.2307 77.8143 84.4617 77.8707 84.6645 77.7693L88.5628 75.8145V78.8396H88.5685Z" fill="url(#paint101_linear_147_2045)"/>
<path d="M88.9458 78.8904L94.8947 78.9862V77.7131C94.8947 77.3525 94.5342 77.161 94.3144 77.4032L94.0722 77.668C93.8638 77.8933 93.5765 77.9609 93.3173 77.8426L88.9458 75.8484V78.8904Z" fill="url(#paint102_linear_147_2045)"/>
<path d="M88.3657 78.8792L83.2393 78.8003V77.6905C83.2393 77.375 83.5097 77.206 83.6843 77.4201L83.8702 77.6511C84.0336 77.8539 84.2645 77.9102 84.4673 77.8088L88.3657 75.8484V78.8792Z" fill="url(#paint103_linear_147_2045)"/>
<path d="M89.6554 88.3713L94.9001 78.8114L100.105 88.2699L100.15 88.2361L94.9001 78.6931L94.8776 78.7325L89.6104 88.3375L89.6554 88.3713Z" fill="url(#paint104_linear_147_2045)"/>
<path d="M89.4526 88.3544C89.4526 88.7826 91.8919 90.4219 94.8945 90.405C97.8859 90.3825 100.303 88.7206 100.303 88.2981C100.303 87.8756 97.8859 87.5432 94.8945 87.5545C91.8975 87.5714 89.4526 87.9319 89.4526 88.3544Z" fill="url(#paint105_linear_147_2045)"/>
<path d="M89.4526 88.3264C89.4526 88.7545 91.8919 89.0869 94.8945 89.07C97.8859 89.0531 100.303 88.6925 100.303 88.27C100.303 87.8475 97.8859 87.5151 94.8945 87.5264C91.8975 87.5433 89.4526 87.8982 89.4526 88.3264Z" fill="url(#paint106_linear_147_2045)"/>
<path opacity="0.7" d="M89.6328 88.2587C89.6328 88.591 91.9932 88.8445 94.8944 88.8276C97.7844 88.8107 100.122 88.5291 100.122 88.2023C100.122 87.87 97.7844 87.6165 94.8944 87.6334C91.9932 87.6446 89.6328 87.9263 89.6328 88.2587Z" fill="url(#paint107_linear_147_2045)"/>
<path d="M94.2578 78.7495C94.2578 79.1721 94.5451 79.5157 94.9 79.5157C95.2549 79.5157 95.5422 79.1721 95.5422 78.7495C95.5422 78.327 95.2549 77.9834 94.9 77.9834C94.5451 77.989 94.2578 78.327 94.2578 78.7495Z" fill="url(#paint108_linear_147_2045)"/>
<path d="M78.597 86.9687L83.239 78.6876L87.8528 86.8898L87.8922 86.856L83.239 78.5918L83.2165 78.6256L78.5576 86.9405L78.597 86.9687Z" fill="url(#paint109_linear_147_2045)"/>
<path d="M78.417 86.9574C78.417 87.3292 80.5802 88.7488 83.2336 88.7375C85.8813 88.7206 88.022 87.2841 88.022 86.9179C88.022 86.5518 85.8813 86.2588 83.2336 86.2701C80.5802 86.2757 78.417 86.5856 78.417 86.9574Z" fill="url(#paint110_linear_147_2045)"/>
<path d="M78.417 86.9293C78.417 87.3011 80.5802 87.5884 83.2336 87.5771C85.8813 87.5659 88.022 87.256 88.022 86.8899C88.022 86.5237 85.8813 86.2307 83.2336 86.242C80.5802 86.2476 78.417 86.5575 78.417 86.9293Z" fill="url(#paint111_linear_147_2045)"/>
<path opacity="0.8" d="M78.5806 86.8843C78.5806 87.1828 80.6706 87.4082 83.2394 87.3969C85.8026 87.3857 87.8701 87.1378 87.8701 86.8392C87.8701 86.5463 85.797 86.3153 83.2394 86.3266C80.6649 86.3378 78.5806 86.5913 78.5806 86.8843Z" fill="url(#paint112_linear_147_2045)"/>
<path d="M82.6704 78.6369C82.6704 79.0031 82.9239 79.3017 83.2394 79.3017C83.5549 79.3017 83.8084 79.0031 83.8084 78.6369C83.8084 78.2707 83.5549 77.9722 83.2394 77.9722C82.9239 77.9778 82.6704 78.2707 82.6704 78.6369Z" fill="url(#paint113_linear_147_2045)"/>
<path d="M88.1573 73.8316L89.1657 73.7865C89.3967 73.7753 89.5825 74.0062 89.5825 74.2992V75.1893L89.3121 79.3298C89.2952 79.6059 89.115 79.8087 88.9009 79.803L88.4164 79.7918C88.208 79.7861 88.0334 79.5721 88.0165 79.3017L87.7573 75.2456V74.3724C87.7573 74.0795 87.932 73.8429 88.1573 73.8316Z" fill="url(#paint114_linear_147_2045)"/>
<path d="M87.9429 73.8316L88.9513 73.7865C89.1823 73.7753 89.3682 74.0062 89.3682 74.2992V75.1893L89.0978 79.3298C89.0809 79.6059 88.9006 79.8087 88.6866 79.803L88.2021 79.7918C87.9936 79.7861 87.819 79.5721 87.8021 79.3017L87.543 75.24V74.3668C87.543 74.0795 87.7232 73.8429 87.9429 73.8316Z" fill="url(#paint115_linear_147_2045)"/>
<g opacity="0.2">
<path d="M88.1518 77.8313C88.4616 76.5357 89.025 75.9892 89.1095 74.7442C89.132 74.4062 89.1151 74.0908 89.0813 73.8091C89.2447 73.871 89.363 74.0626 89.363 74.2992V75.1893L89.0926 79.3298C89.0757 79.6059 88.8954 79.8087 88.6813 79.803L88.1969 79.7918C88.1124 79.7918 88.0391 79.758 87.9771 79.7016C87.949 78.9073 88.0448 78.282 88.1518 77.8313Z" fill="url(#paint116_linear_147_2045)"/>
</g>
<path opacity="0.3" d="M91.2607 24.8435C91.2607 24.8435 118.296 46.628 135.444 45.9069C118.577 31.8853 107.282 23.8351 91.2607 24.8435Z" fill="#BFC8D6"/>
<path d="M155.64 55.4555C155.364 55.4499 155.048 55.2189 155.048 54.9429L155.448 30.4093C155.46 29.8516 155.319 29.446 154.761 29.4347L118.527 28.8432C118.251 28.8376 118.031 28.5165 118.031 28.2348C118.037 27.9588 118.268 27.6433 118.544 27.6433L154.778 28.2348C155.888 28.2517 156.66 29.3108 156.637 30.4206L156.237 54.9541C156.243 55.2415 155.922 55.4612 155.64 55.4555Z" fill="url(#paint117_linear_147_2045)"/>
<path d="M157.234 51.0221L156.766 50.2503C156.609 49.9574 156.276 49.7771 155.944 49.7771C155.612 49.7771 155.296 49.9574 155.133 50.2503L154.688 51.0334C154.586 51.2249 154.513 51.4333 154.507 51.653L154.4 58.3286C154.4 58.4695 155.127 58.599 155.888 58.6103C156.654 58.6216 157.386 58.5202 157.386 58.3737L157.493 51.6812C157.499 51.4559 157.347 51.2249 157.234 51.0221Z" fill="url(#paint118_linear_147_2045)"/>
<path d="M106.156 28.584C110.697 30.1895 115.124 32.2006 119.44 34.6174L153.691 29.0234L155.308 29.5191L155.448 29.0685L155.493 28.9107L124.65 0L82.9068 6.73757L82.8674 6.86151L82.7266 7.31218L83.9941 7.70089L106.156 28.584Z" fill="url(#paint119_linear_147_2045)"/>
<path d="M120.437 35.1864L155.217 29.5079L124.448 0.518311L82.7266 7.32912L104.781 28.1108C110.156 29.9022 115.372 32.2627 120.437 35.1864Z" fill="url(#paint120_linear_147_2045)"/>
<path d="M120.578 35.2651C124.611 37.6763 131.304 42.076 135.444 45.9067L141.111 27.384C141.292 26.7925 141.14 26.1277 140.7 25.401C138.65 22.0435 130.329 17.503 119.806 14.2863C109.283 11.0696 99.8466 10.1739 96.2693 11.8132C95.7173 12.0667 95.3004 12.3822 95.0582 12.754C94.9511 12.9005 94.8723 13.0582 94.8216 13.2272L91.2612 24.8433C93.6216 25.2039 96.844 25.8066 100.596 26.8375C110.843 29.6486 118.037 33.7441 120.578 35.2651Z" fill="url(#paint121_linear_147_2045)"/>
<path opacity="0.3" d="M102.241 27.3109C102.077 26.5166 102.032 25.6941 102.117 24.8435C102.629 19.6945 98.0777 15.1427 95.0525 12.7485C95.03 12.726 95.0018 12.7091 94.9793 12.6865L91.2612 24.8378C94.9906 25.4181 98.6523 26.2349 102.241 27.3109Z" fill="url(#paint122_linear_147_2045)"/>
<defs>
<linearGradient id="paint0_linear_147_2045" x1="74.5096" y1="120.573" x2="74.9425" y2="136.808" gradientUnits="userSpaceOnUse">
<stop stop-color="#444B8C"/>
<stop offset="0.9964" stop-color="#26264F"/>
</linearGradient>
<linearGradient id="paint1_linear_147_2045" x1="48.3557" y1="56.922" x2="134.341" y2="98.7586" gradientUnits="userSpaceOnUse">
<stop stop-color="#444B8C"/>
<stop offset="0.6447" stop-color="#313365"/>
<stop offset="0.9964" stop-color="#26264F"/>
</linearGradient>
<linearGradient id="paint2_linear_147_2045" x1="58.7301" y1="192.535" x2="70.9446" y2="44.3857" gradientUnits="userSpaceOnUse">
<stop stop-color="white"/>
<stop offset="0.9964" stop-color="#EBEFF2"/>
</linearGradient>
<linearGradient id="paint3_linear_147_2045" x1="29.9892" y1="94.6004" x2="115.989" y2="136.444" gradientUnits="userSpaceOnUse">
<stop stop-color="#444B8C"/>
<stop offset="0.9964" stop-color="#26264F"/>
</linearGradient>
<linearGradient id="paint4_linear_147_2045" x1="54.2434" y1="53.349" x2="45.6769" y2="63.7037" gradientUnits="userSpaceOnUse">
<stop offset="0.003597" stop-color="#F36F56"/>
<stop offset="1" stop-color="#FFC444"/>
</linearGradient>
<linearGradient id="paint5_linear_147_2045" x1="56.6353" y1="55.7149" x2="47.9217" y2="66.2474" gradientUnits="userSpaceOnUse">
<stop offset="0.003597" stop-color="#F36F56"/>
<stop offset="1" stop-color="#FFC444"/>
</linearGradient>
<linearGradient id="paint6_linear_147_2045" x1="51.5388" y1="55.7716" x2="66.8207" y2="40.4897" gradientUnits="userSpaceOnUse">
<stop stop-color="#FFC444"/>
<stop offset="0.9964" stop-color="#F36F56"/>
</linearGradient>
<linearGradient id="paint7_linear_147_2045" x1="53.5586" y1="57.2355" x2="68.5431" y2="42.2511" gradientUnits="userSpaceOnUse">
<stop stop-color="#FFC444"/>
<stop offset="0.9964" stop-color="#F36F56"/>
</linearGradient>
<linearGradient id="paint8_linear_147_2045" x1="56.977" y1="52.5713" x2="57.2699" y2="48.2101" gradientUnits="userSpaceOnUse">
<stop offset="0.0999605" stop-color="#0071DC"/>
<stop offset="1" stop-color="#5494D2"/>
</linearGradient>
<linearGradient id="paint9_linear_147_2045" x1="55.157" y1="49.4199" x2="58.5539" y2="51.241" gradientUnits="userSpaceOnUse">
<stop offset="0.0999605" stop-color="#0071DC"/>
<stop offset="0.267" stop-color="#0071DC"/>
<stop offset="0.4803" stop-color="#0071DC"/>
<stop offset="0.7186" stop-color="#0071DC"/>
<stop offset="0.9736" stop-color="#0071DC"/>
<stop offset="1" stop-color="#3F7FBC"/>
</linearGradient>
<linearGradient id="paint10_linear_147_2045" x1="50.0147" y1="54.9826" x2="48.1017" y2="37.4955" gradientUnits="userSpaceOnUse">
<stop offset="0.0999605" stop-color="#311944"/>
<stop offset="0.6853" stop-color="#6D2F66"/>
<stop offset="1" stop-color="#893976"/>
</linearGradient>
<linearGradient id="paint11_linear_147_2045" x1="58.418" y1="62.1977" x2="45.6653" y2="55.0967" gradientUnits="userSpaceOnUse">
<stop stop-color="#0071DC"/>
<stop offset="1" stop-color="#4782B9"/>
</linearGradient>
<linearGradient id="paint12_linear_147_2045" x1="46.9249" y1="52.3778" x2="50.7361" y2="58.7688" gradientUnits="userSpaceOnUse">
<stop stop-color="#0071DC"/>
<stop offset="1" stop-color="#4D8DCA"/>
</linearGradient>
<linearGradient id="paint13_linear_147_2045" x1="57.3733" y1="44.7078" x2="58.7702" y2="63.4566" gradientUnits="userSpaceOnUse">
<stop offset="0.0999605" stop-color="#0071DC"/>
<stop offset="0.6853" stop-color="#0071DC"/>
<stop offset="1" stop-color="#7EC0FF"/>
</linearGradient>
<linearGradient id="paint14_linear_147_2045" x1="54.5436" y1="55.1361" x2="65.7173" y2="63.7454" gradientUnits="userSpaceOnUse">
<stop stop-color="#0071DC"/>
<stop offset="0.0001" stop-color="#0071DC"/>
<stop offset="1" stop-color="#406B94"/>
</linearGradient>
<linearGradient id="paint15_linear_147_2045" x1="51.6961" y1="54.2885" x2="56.4181" y2="54.1051" gradientUnits="userSpaceOnUse">
<stop offset="0.0999605" stop-color="#0071DC"/>
<stop offset="0.6853" stop-color="#0071DC"/>
<stop offset="1" stop-color="#68B6FF"/>
</linearGradient>
<linearGradient id="paint16_linear_147_2045" x1="58.9794" y1="69.4346" x2="57.4222" y2="51.9353" gradientUnits="userSpaceOnUse">
<stop offset="0.0999605" stop-color="#0071DC"/>
<stop offset="0.9736" stop-color="#AAD6FF"/>
</linearGradient>
<linearGradient id="paint17_linear_147_2045" x1="59.7422" y1="73.5303" x2="57.0962" y2="49.3427" gradientUnits="userSpaceOnUse">
<stop stop-color="#3D5770"/>
<stop offset="1" stop-color="#0071DC"/>
</linearGradient>
<linearGradient id="paint18_linear_147_2045" x1="63.5882" y1="60.7038" x2="55.3504" y2="56.3976" gradientUnits="userSpaceOnUse">
<stop stop-color="#FFC444"/>
<stop offset="0.9964" stop-color="#F36F56"/>
</linearGradient>
<linearGradient id="paint19_linear_147_2045" x1="56.1897" y1="57.0617" x2="64.6395" y2="60.0853" gradientUnits="userSpaceOnUse">
<stop stop-color="#FFC444"/>
<stop offset="0.9964" stop-color="#F36F56"/>
</linearGradient>
<linearGradient id="paint20_linear_147_2045" x1="29.4176" y1="51.0167" x2="32.3496" y2="49.7132" gradientUnits="userSpaceOnUse">
<stop stop-color="#40447E"/>
<stop offset="0.9964" stop-color="#3C3B6B"/>
</linearGradient>
<linearGradient id="paint21_linear_147_2045" x1="20.5097" y1="43.705" x2="27.9924" y2="49.8723" gradientUnits="userSpaceOnUse">
<stop stop-color="#FFC444"/>
<stop offset="0.9964" stop-color="#F36F56"/>
</linearGradient>
<linearGradient id="paint22_linear_147_2045" x1="19.6691" y1="43.4611" x2="22.5112" y2="45.4589" gradientUnits="userSpaceOnUse">
<stop stop-color="#AB316D"/>
<stop offset="1" stop-color="#792D3D"/>
</linearGradient>
<linearGradient id="paint23_linear_147_2045" x1="16.5721" y1="41.7176" x2="21.0805" y2="44.0834" gradientUnits="userSpaceOnUse">
<stop stop-color="#FFD988"/>
<stop offset="1" stop-color="#FFC444"/>
</linearGradient>
<linearGradient id="paint24_linear_147_2045" x1="16.5721" y1="41.7176" x2="21.0805" y2="44.0834" gradientUnits="userSpaceOnUse">
<stop stop-color="#FFD988"/>
<stop offset="1" stop-color="#FFC444"/>
</linearGradient>
<linearGradient id="paint25_linear_147_2045" x1="16.4411" y1="41.9673" x2="20.9495" y2="44.333" gradientUnits="userSpaceOnUse">
<stop stop-color="#FF9085"/>
<stop offset="1" stop-color="#FB6FBB"/>
</linearGradient>
<linearGradient id="paint26_linear_147_2045" x1="37.3416" y1="56.0477" x2="24.6457" y2="56.3807" gradientUnits="userSpaceOnUse">
<stop stop-color="#FFC444"/>
<stop offset="0.9964" stop-color="#F36F56"/>
</linearGradient>
<linearGradient id="paint27_linear_147_2045" x1="34.0341" y1="56.6029" x2="3.11497" y2="54.3996" gradientUnits="userSpaceOnUse">
<stop stop-color="#FFC444"/>
<stop offset="0.9964" stop-color="#F36F56"/>
</linearGradient>
<linearGradient id="paint28_linear_147_2045" x1="22.1422" y1="39.8764" x2="15.921" y2="55.7067" gradientUnits="userSpaceOnUse">
<stop offset="0.0999605" stop-color="#311944"/>
<stop offset="0.267" stop-color="#371B47"/>
<stop offset="0.4803" stop-color="#462150"/>
<stop offset="0.7186" stop-color="#612A5F"/>
<stop offset="0.9736" stop-color="#853774"/>
<stop offset="1" stop-color="#893976"/>
</linearGradient>
<linearGradient id="paint29_linear_147_2045" x1="20.1902" y1="57.1243" x2="18.3759" y2="61.741" gradientUnits="userSpaceOnUse">
<stop stop-color="#AA80F9"/>
<stop offset="0.9964" stop-color="#6165D7"/>
</linearGradient>
<linearGradient id="paint30_linear_147_2045" x1="25.2784" y1="58.4472" x2="23.338" y2="63.3846" gradientUnits="userSpaceOnUse">
<stop stop-color="#FF9085"/>
<stop offset="1" stop-color="#FB6FBB"/>
</linearGradient>
<linearGradient id="paint31_linear_147_2045" x1="27.6098" y1="61.2951" x2="25.6754" y2="66.2171" gradientUnits="userSpaceOnUse">
<stop offset="0.00359712" stop-color="#E38DDD"/>
<stop offset="1" stop-color="#9571F6"/>
</linearGradient>
<linearGradient id="paint32_linear_147_2045" x1="27.3412" y1="112.553" x2="27.645" y2="89.9507" gradientUnits="userSpaceOnUse">
<stop stop-color="#444B8C"/>
<stop offset="0.9964" stop-color="#26264F"/>
</linearGradient>
<linearGradient id="paint33_linear_147_2045" x1="28.0534" y1="112.404" x2="28.356" y2="89.8916" gradientUnits="userSpaceOnUse">
<stop stop-color="#AA80F9"/>
<stop offset="0.9964" stop-color="#6165D7"/>
</linearGradient>
<linearGradient id="paint34_linear_147_2045" x1="22.4957" y1="78.8046" x2="34.4079" y2="78.8046" gradientUnits="userSpaceOnUse">
<stop stop-color="#8AC6FF"/>
<stop offset="0.9964" stop-color="#0071DC"/>
</linearGradient>
<linearGradient id="paint35_linear_147_2045" x1="22.4959" y1="80.7034" x2="34.4013" y2="80.7034" gradientUnits="userSpaceOnUse">
<stop stop-color="#0071DC"/>
<stop offset="0.479167" stop-color="#2F6BDA"/>
<stop offset="0.9964" stop-color="#0071DC"/>
</linearGradient>
<linearGradient id="paint36_linear_147_2045" x1="28.6547" y1="75.8001" x2="27.8296" y2="94.6125" gradientUnits="userSpaceOnUse">
<stop offset="0.00359712" stop-color="#9DCFFF"/>
<stop offset="1" stop-color="#0071DC"/>
</linearGradient>
<linearGradient id="paint37_linear_147_2045" x1="32.1885" y1="77.8813" x2="32.0264" y2="81.5775" gradientUnits="userSpaceOnUse">
<stop stop-color="#311944"/>
<stop offset="1" stop-color="#A03976"/>
</linearGradient>
<linearGradient id="paint38_linear_147_2045" x1="33.0865" y1="77.8661" x2="32.9243" y2="81.5641" gradientUnits="userSpaceOnUse">
<stop stop-color="#311944"/>
<stop offset="1" stop-color="#A03976"/>
</linearGradient>
<linearGradient id="paint39_linear_147_2045" x1="32.1877" y1="78.8653" x2="32.0141" y2="82.8244" gradientUnits="userSpaceOnUse">
<stop stop-color="#311944"/>
<stop offset="1" stop-color="#A03976"/>
</linearGradient>
<linearGradient id="paint40_linear_147_2045" x1="33.0879" y1="78.78" x2="32.9026" y2="83.0046" gradientUnits="userSpaceOnUse">
<stop stop-color="#311944"/>
<stop offset="1" stop-color="#A03976"/>
</linearGradient>
<linearGradient id="paint41_linear_147_2045" x1="33.2457" y1="79.0254" x2="29.7833" y2="78.8736" gradientUnits="userSpaceOnUse">
<stop stop-color="#311944"/>
<stop offset="1" stop-color="#A03976"/>
</linearGradient>
<linearGradient id="paint42_linear_147_2045" x1="33.2459" y1="78.0618" x2="29.7824" y2="77.9099" gradientUnits="userSpaceOnUse">
<stop stop-color="#311944"/>
<stop offset="1" stop-color="#A03976"/>
</linearGradient>
<linearGradient id="paint43_linear_147_2045" x1="33.2683" y1="80.0359" x2="29.5411" y2="79.8724" gradientUnits="userSpaceOnUse">
<stop stop-color="#311944"/>
<stop offset="1" stop-color="#A03976"/>
</linearGradient>
<linearGradient id="paint44_linear_147_2045" x1="34.7834" y1="77.6668" x2="15.769" y2="88.2444" gradientUnits="userSpaceOnUse">
<stop stop-color="#444B8C"/>
<stop offset="0.9964" stop-color="#3E4177"/>
</linearGradient>
<linearGradient id="paint45_linear_147_2045" x1="35.1443" y1="78.9347" x2="16.7822" y2="89.1494" gradientUnits="userSpaceOnUse">
<stop stop-color="#444B8C"/>
<stop offset="0.9964" stop-color="#3E4177"/>
</linearGradient>
<linearGradient id="paint46_linear_147_2045" x1="35.4765" y1="80.117" x2="17.711" y2="89.9998" gradientUnits="userSpaceOnUse">
<stop stop-color="#444B8C"/>
<stop offset="0.9964" stop-color="#3E4177"/>
</linearGradient>
<linearGradient id="paint47_linear_147_2045" x1="35.9458" y1="81.2194" x2="18.7654" y2="90.7766" gradientUnits="userSpaceOnUse">
<stop stop-color="#444B8C"/>
<stop offset="0.9964" stop-color="#3E4177"/>
</linearGradient>
<linearGradient id="paint48_linear_147_2045" x1="35.7538" y1="79.2054" x2="16.6342" y2="89.8415" gradientUnits="userSpaceOnUse">
<stop stop-color="#444B8C"/>
<stop offset="0.9964" stop-color="#3E4177"/>
</linearGradient>
<linearGradient id="paint49_linear_147_2045" x1="36.0678" y1="80.459" x2="17.6043" y2="90.73" gradientUnits="userSpaceOnUse">
<stop stop-color="#444B8C"/>
<stop offset="0.9964" stop-color="#3E4177"/>
</linearGradient>
<linearGradient id="paint50_linear_147_2045" x1="36.3567" y1="81.6275" x2="18.4933" y2="91.5648" gradientUnits="userSpaceOnUse">
<stop stop-color="#444B8C"/>
<stop offset="0.9964" stop-color="#3E4177"/>
</linearGradient>
<linearGradient id="paint51_linear_147_2045" x1="36.7843" y1="82.7157" x2="19.5095" y2="92.3255" gradientUnits="userSpaceOnUse">
<stop stop-color="#444B8C"/>
<stop offset="0.9964" stop-color="#3E4177"/>
</linearGradient>
<linearGradient id="paint52_linear_147_2045" x1="36.7323" y1="80.6889" x2="17.5101" y2="91.382" gradientUnits="userSpaceOnUse">
<stop stop-color="#444B8C"/>
<stop offset="0.9964" stop-color="#3E4177"/>
</linearGradient>
<linearGradient id="paint53_linear_147_2045" x1="36.9997" y1="81.9291" x2="18.4373" y2="92.2552" gradientUnits="userSpaceOnUse">
<stop stop-color="#444B8C"/>
<stop offset="0.9964" stop-color="#3E4177"/>
</linearGradient>
<linearGradient id="paint54_linear_147_2045" x1="37.2453" y1="83.085" x2="19.2864" y2="93.0754" gradientUnits="userSpaceOnUse">
<stop stop-color="#444B8C"/>
<stop offset="0.9964" stop-color="#3E4177"/>
</linearGradient>
<linearGradient id="paint55_linear_147_2045" x1="37.6314" y1="84.1598" x2="20.2644" y2="93.8209" gradientUnits="userSpaceOnUse">
<stop stop-color="#444B8C"/>
<stop offset="0.9964" stop-color="#3E4177"/>
</linearGradient>
<linearGradient id="paint56_linear_147_2045" x1="37.7191" y1="82.1175" x2="18.3969" y2="92.8662" gradientUnits="userSpaceOnUse">
<stop stop-color="#444B8C"/>
<stop offset="0.9964" stop-color="#3E4177"/>
</linearGradient>
<linearGradient id="paint57_linear_147_2045" x1="37.9395" y1="83.3456" x2="19.2808" y2="93.7253" gradientUnits="userSpaceOnUse">
<stop stop-color="#444B8C"/>
<stop offset="0.9964" stop-color="#3E4177"/>
</linearGradient>
<linearGradient id="paint58_linear_147_2045" x1="38.1426" y1="84.4897" x2="20.0907" y2="94.5318" gradientUnits="userSpaceOnUse">
<stop stop-color="#444B8C"/>
<stop offset="0.9964" stop-color="#3E4177"/>
</linearGradient>
<linearGradient id="paint59_linear_147_2045" x1="38.7208" y1="83.6806" x2="19.2916" y2="94.4889" gradientUnits="userSpaceOnUse">
<stop stop-color="#444B8C"/>
<stop offset="0.9964" stop-color="#3E4177"/>
</linearGradient>
<linearGradient id="paint60_linear_147_2045" x1="38.893" y1="84.8945" x2="20.1311" y2="95.3316" gradientUnits="userSpaceOnUse">
<stop stop-color="#444B8C"/>
<stop offset="0.9964" stop-color="#3E4177"/>
</linearGradient>
<linearGradient id="paint61_linear_147_2045" x1="39.0513" y1="86.0251" x2="20.8997" y2="96.1227" gradientUnits="userSpaceOnUse">
<stop stop-color="#444B8C"/>
<stop offset="0.9964" stop-color="#3E4177"/>
</linearGradient>
<linearGradient id="paint62_linear_147_2045" x1="38.9092" y1="86.31" x2="21.4025" y2="96.0489" gradientUnits="userSpaceOnUse">
<stop stop-color="#444B8C"/>
<stop offset="0.9964" stop-color="#3E4177"/>
</linearGradient>
<linearGradient id="paint63_linear_147_2045" x1="24.6206" y1="82.1152" x2="24.3002" y2="89.4186" gradientUnits="userSpaceOnUse">
<stop stop-color="#444B8C"/>
<stop offset="0.9964" stop-color="#26264F"/>
</linearGradient>
<linearGradient id="paint64_linear_147_2045" x1="27.4171" y1="82.0036" x2="27.1034" y2="89.1557" gradientUnits="userSpaceOnUse">
<stop stop-color="#444B8C"/>
<stop offset="0.9964" stop-color="#26264F"/>
</linearGradient>
<linearGradient id="paint65_linear_147_2045" x1="30.2047" y1="81.8924" x2="29.8976" y2="88.8944" gradientUnits="userSpaceOnUse">
<stop stop-color="#444B8C"/>
<stop offset="0.9964" stop-color="#26264F"/>
</linearGradient>
<linearGradient id="paint66_linear_147_2045" x1="32.89" y1="81.785" x2="32.5892" y2="88.6429" gradientUnits="userSpaceOnUse">
<stop stop-color="#444B8C"/>
<stop offset="0.9964" stop-color="#26264F"/>
</linearGradient>
<linearGradient id="paint67_linear_147_2045" x1="24.6203" y1="84.1697" x2="24.2942" y2="91.6038" gradientUnits="userSpaceOnUse">
<stop stop-color="#444B8C"/>
<stop offset="0.9964" stop-color="#26264F"/>
</linearGradient>
<linearGradient id="paint68_linear_147_2045" x1="27.4154" y1="84.0206" x2="27.0962" y2="91.2987" gradientUnits="userSpaceOnUse">
<stop stop-color="#444B8C"/>
<stop offset="0.9964" stop-color="#26264F"/>
</linearGradient>
<linearGradient id="paint69_linear_147_2045" x1="30.2018" y1="83.8721" x2="29.8893" y2="90.9951" gradientUnits="userSpaceOnUse">
<stop stop-color="#444B8C"/>
<stop offset="0.9964" stop-color="#26264F"/>
</linearGradient>
<linearGradient id="paint70_linear_147_2045" x1="32.8855" y1="83.7289" x2="32.5796" y2="90.7034" gradientUnits="userSpaceOnUse">
<stop stop-color="#444B8C"/>
<stop offset="0.9964" stop-color="#26264F"/>
</linearGradient>
<linearGradient id="paint71_linear_147_2045" x1="24.62" y1="86.1743" x2="24.2883" y2="93.7364" gradientUnits="userSpaceOnUse">
<stop stop-color="#444B8C"/>
<stop offset="0.9964" stop-color="#26264F"/>
</linearGradient>
<linearGradient id="paint72_linear_147_2045" x1="27.4138" y1="85.9888" x2="27.0891" y2="93.3901" gradientUnits="userSpaceOnUse">
<stop stop-color="#444B8C"/>
<stop offset="0.9964" stop-color="#26264F"/>
</linearGradient>
<linearGradient id="paint73_linear_147_2045" x1="30.1986" y1="85.8038" x2="29.881" y2="93.0455" gradientUnits="userSpaceOnUse">
<stop stop-color="#444B8C"/>
<stop offset="0.9964" stop-color="#26264F"/>
</linearGradient>
<linearGradient id="paint74_linear_147_2045" x1="32.8819" y1="85.6257" x2="32.571" y2="92.7144" gradientUnits="userSpaceOnUse">
<stop stop-color="#444B8C"/>
<stop offset="0.9964" stop-color="#26264F"/>
</linearGradient>
<linearGradient id="paint75_linear_147_2045" x1="24.6197" y1="88.129" x2="24.2826" y2="95.8163" gradientUnits="userSpaceOnUse">
<stop stop-color="#444B8C"/>
<stop offset="0.9964" stop-color="#26264F"/>
</linearGradient>
<linearGradient id="paint76_linear_147_2045" x1="27.412" y1="87.9082" x2="27.082" y2="95.4299" gradientUnits="userSpaceOnUse">
<stop stop-color="#444B8C"/>
<stop offset="0.9964" stop-color="#26264F"/>
</linearGradient>
<linearGradient id="paint77_linear_147_2045" x1="30.196" y1="87.6878" x2="29.8733" y2="95.0455" gradientUnits="userSpaceOnUse">
<stop stop-color="#444B8C"/>
<stop offset="0.9964" stop-color="#26264F"/>
</linearGradient>
<linearGradient id="paint78_linear_147_2045" x1="24.6195" y1="90.2251" x2="24.2764" y2="98.0469" gradientUnits="userSpaceOnUse">
<stop stop-color="#444B8C"/>
<stop offset="0.9964" stop-color="#26264F"/>
</linearGradient>
<linearGradient id="paint79_linear_147_2045" x1="27.4105" y1="89.9659" x2="27.0749" y2="97.6173" gradientUnits="userSpaceOnUse">
<stop stop-color="#444B8C"/>
<stop offset="0.9964" stop-color="#26264F"/>
</linearGradient>
<linearGradient id="paint80_linear_147_2045" x1="30.1928" y1="89.7078" x2="29.8646" y2="97.1902" gradientUnits="userSpaceOnUse">
<stop stop-color="#444B8C"/>
<stop offset="0.9964" stop-color="#26264F"/>
</linearGradient>
<linearGradient id="paint81_linear_147_2045" x1="32.9607" y1="86.5215" x2="32.1587" y2="104.807" gradientUnits="userSpaceOnUse">
<stop stop-color="#444B8C"/>
<stop offset="0.9964" stop-color="#26264F"/>
</linearGradient>
<linearGradient id="paint82_linear_147_2045" x1="22.6137" y1="85.3454" x2="20.555" y2="89.5806" gradientUnits="userSpaceOnUse">
<stop stop-color="#FFD780"/>
<stop offset="1" stop-color="#FFC444"/>
</linearGradient>
<linearGradient id="paint83_linear_147_2045" x1="15.5169" y1="94.1611" x2="16.9197" y2="90.9703" gradientUnits="userSpaceOnUse">
<stop stop-color="#FFC444"/>
<stop offset="0.9964" stop-color="#F36F56"/>
</linearGradient>
<linearGradient id="paint84_linear_147_2045" x1="18.852" y1="92.2743" x2="30.6771" y2="92.2743" gradientUnits="userSpaceOnUse">
<stop stop-color="#FFC444"/>
<stop offset="0.9964" stop-color="#F36F56"/>
</linearGradient>
<linearGradient id="paint85_linear_147_2045" x1="17.5519" y1="85.5419" x2="15.0881" y2="93.841" gradientUnits="userSpaceOnUse">
<stop stop-color="#FFDA8B"/>
<stop offset="1" stop-color="#FFC444"/>
</linearGradient>
<linearGradient id="paint86_linear_147_2045" x1="18.852" y1="88.827" x2="30.6771" y2="88.827" gradientUnits="userSpaceOnUse">
<stop stop-color="#FFD988"/>
<stop offset="1" stop-color="#FFC444"/>
</linearGradient>
<linearGradient id="paint87_linear_147_2045" x1="60.1757" y1="75.7715" x2="46.2367" y2="107.196" gradientUnits="userSpaceOnUse">
<stop offset="0.00359712" stop-color="#BBDEFF"/>
<stop offset="1" stop-color="#0071DC"/>
</linearGradient>
<linearGradient id="paint88_linear_147_2045" x1="47.576" y1="89.9139" x2="61.4418" y2="89.9139" gradientUnits="userSpaceOnUse">
<stop stop-color="#4386C5"/>
<stop offset="0.9964" stop-color="#004E97"/>
</linearGradient>
<linearGradient id="paint89_linear_147_2045" x1="54.2879" y1="86.561" x2="57.5534" y2="82.1907" gradientUnits="userSpaceOnUse">
<stop stop-color="#AED8FF"/>
<stop offset="0.9964" stop-color="#0071DC"/>
</linearGradient>
<linearGradient id="paint90_linear_147_2045" x1="55.0555" y1="74.3323" x2="53.377" y2="78.1162" gradientUnits="userSpaceOnUse">
<stop offset="0.00359712" stop-color="#8DBFEE"/>
<stop offset="1" stop-color="#0071DC"/>
</linearGradient>
<linearGradient id="paint91_linear_147_2045" x1="58.2507" y1="75.4113" x2="65.8034" y2="77.1954" gradientUnits="userSpaceOnUse">
<stop stop-color="#311944"/>
<stop offset="1" stop-color="#893976"/>
</linearGradient>
<linearGradient id="paint92_linear_147_2045" x1="64.6022" y1="73.2569" x2="57.9219" y2="85.6469" gradientUnits="userSpaceOnUse">
<stop stop-color="#FFC444"/>
<stop offset="0.9964" stop-color="#F36F56"/>
</linearGradient>
<linearGradient id="paint93_linear_147_2045" x1="66.5052" y1="74.0889" x2="59.9736" y2="87.1962" gradientUnits="userSpaceOnUse">
<stop stop-color="#FFC444"/>
<stop offset="0.9964" stop-color="#F36F56"/>
</linearGradient>
<linearGradient id="paint94_linear_147_2045" x1="89.2044" y1="56.0622" x2="72.6732" y2="35.1226" gradientUnits="userSpaceOnUse">
<stop stop-color="#98CDFF"/>
<stop offset="0.9964" stop-color="#0071DC"/>
</linearGradient>
<linearGradient id="paint95_linear_147_2045" x1="97.6467" y1="50.3764" x2="86.5536" y2="36.3251" gradientUnits="userSpaceOnUse">
<stop stop-color="#80C1FF"/>
<stop offset="0.9964" stop-color="#0071DC"/>
</linearGradient>
<linearGradient id="paint96_linear_147_2045" x1="84.0016" y1="43.5477" x2="93.3381" y2="68.7158" gradientUnits="userSpaceOnUse">
<stop stop-color="#FFC444"/>
<stop offset="0.9964" stop-color="#F36F56"/>
</linearGradient>
<linearGradient id="paint97_linear_147_2045" x1="87.7994" y1="50.0889" x2="95.7358" y2="73.3896" gradientUnits="userSpaceOnUse">
<stop stop-color="#FFC444"/>
<stop offset="0.9964" stop-color="#F36F56"/>
</linearGradient>
<linearGradient id="paint98_linear_147_2045" x1="80.8494" y1="60.7731" x2="97.926" y2="60.7731" gradientUnits="userSpaceOnUse">
<stop stop-color="#FFC444"/>
<stop offset="0.9964" stop-color="#F36F56"/>
</linearGradient>
<linearGradient id="paint99_linear_147_2045" x1="87.2441" y1="55.8664" x2="91.8467" y2="68.2734" gradientUnits="userSpaceOnUse">
<stop stop-color="#FFC444"/>
<stop offset="0.9964" stop-color="#F36F56"/>
</linearGradient>
<linearGradient id="paint100_linear_147_2045" x1="89.1523" y1="77.3702" x2="95.1009" y2="77.3702" gradientUnits="userSpaceOnUse">
<stop stop-color="#98CDFF"/>
<stop offset="0.9964" stop-color="#0071DC"/>
</linearGradient>
<linearGradient id="paint101_linear_147_2045" x1="83.2427" y1="77.3242" x2="88.5705" y2="77.3242" gradientUnits="userSpaceOnUse">
<stop stop-color="#A6D4FF"/>
<stop offset="0.9964" stop-color="#0071DC"/>
</linearGradient>
<linearGradient id="paint102_linear_147_2045" x1="88.9483" y1="77.4142" x2="94.8984" y2="77.4142" gradientUnits="userSpaceOnUse">
<stop stop-color="#8FC9FF"/>
<stop offset="0.9964" stop-color="#0071DC"/>
</linearGradient>
<linearGradient id="paint103_linear_147_2045" x1="83.2376" y1="77.3684" x2="88.3664" y2="77.3684" gradientUnits="userSpaceOnUse">
<stop stop-color="#91C9FF"/>
<stop offset="0.9964" stop-color="#0071DC"/>
</linearGradient>
<linearGradient id="paint104_linear_147_2045" x1="89.6118" y1="83.5335" x2="100.15" y2="83.5335" gradientUnits="userSpaceOnUse">
<stop stop-color="#8DC8FF"/>
<stop offset="0.9964" stop-color="#0071DC"/>
</linearGradient>
<linearGradient id="paint105_linear_147_2045" x1="89.4549" y1="88.9799" x2="100.305" y2="88.9799" gradientUnits="userSpaceOnUse">
<stop stop-color="#8CC7FF"/>
<stop offset="0.9964" stop-color="#0071DC"/>
</linearGradient>
<linearGradient id="paint106_linear_147_2045" x1="89.4549" y1="88.2976" x2="100.305" y2="88.2976" gradientUnits="userSpaceOnUse">
<stop stop-color="#92CAFF"/>
<stop offset="0.9964" stop-color="#0071DC"/>
</linearGradient>
<linearGradient id="paint107_linear_147_2045" x1="89.6342" y1="88.2281" x2="100.128" y2="88.2281" gradientUnits="userSpaceOnUse">
<stop stop-color="#8CC7FF"/>
<stop offset="0.9964" stop-color="#0071DC"/>
</linearGradient>
<linearGradient id="paint108_linear_147_2045" x1="94.2575" y1="78.7521" x2="95.5381" y2="78.7521" gradientUnits="userSpaceOnUse">
<stop stop-color="#95CBFF"/>
<stop offset="0.9964" stop-color="#0071DC"/>
</linearGradient>
<linearGradient id="paint109_linear_147_2045" x1="78.5576" y1="82.7797" x2="87.8905" y2="82.7797" gradientUnits="userSpaceOnUse">
<stop stop-color="#8EC8FF"/>
<stop offset="0.9964" stop-color="#0071DC"/>
</linearGradient>
<linearGradient id="paint110_linear_147_2045" x1="78.4189" y1="87.4995" x2="88.028" y2="87.4995" gradientUnits="userSpaceOnUse">
<stop stop-color="#7FBDF7"/>
<stop offset="0.9964" stop-color="#4896DF"/>
</linearGradient>
<linearGradient id="paint111_linear_147_2045" x1="78.4189" y1="86.9047" x2="88.028" y2="86.9047" gradientUnits="userSpaceOnUse">
<stop stop-color="#0071DC"/>
<stop offset="0.9964" stop-color="#0071DC"/>
</linearGradient>
<linearGradient id="paint112_linear_147_2045" x1="78.5779" y1="86.8646" x2="87.8713" y2="86.8646" gradientUnits="userSpaceOnUse">
<stop stop-color="#91C9FF"/>
<stop offset="0.9964" stop-color="#0071DC"/>
</linearGradient>
<linearGradient id="paint113_linear_147_2045" x1="82.6705" y1="78.6394" x2="83.8047" y2="78.6394" gradientUnits="userSpaceOnUse">
<stop stop-color="#94CBFF"/>
<stop offset="0.9964" stop-color="#0071DC"/>
</linearGradient>
<linearGradient id="paint114_linear_147_2045" x1="87.7545" y1="76.7924" x2="89.5786" y2="76.7924" gradientUnits="userSpaceOnUse">
<stop stop-color="#92CAFF"/>
<stop offset="0.9964" stop-color="#0071DC"/>
</linearGradient>
<linearGradient id="paint115_linear_147_2045" x1="87.5416" y1="76.792" x2="89.3661" y2="76.792" gradientUnits="userSpaceOnUse">
<stop stop-color="#94C9FC"/>
<stop offset="0.9964" stop-color="#0071DC"/>
</linearGradient>
<linearGradient id="paint116_linear_147_2045" x1="87.9744" y1="76.8035" x2="89.3666" y2="76.8035" gradientUnits="userSpaceOnUse">
<stop stop-color="#99CDFF"/>
<stop offset="0.9964" stop-color="#0071DC"/>
</linearGradient>
<linearGradient id="paint117_linear_147_2045" x1="159.727" y1="3.73007" x2="113.916" y2="80.4872" gradientUnits="userSpaceOnUse">
<stop stop-color="#FFC444"/>
<stop offset="0.9964" stop-color="#F36F56"/>
</linearGradient>
<linearGradient id="paint118_linear_147_2045" x1="153.721" y1="73.0197" x2="157.054" y2="46.0274" gradientUnits="userSpaceOnUse">
<stop stop-color="#FFC444"/>
<stop offset="0.9964" stop-color="#F36F56"/>
</linearGradient>
<linearGradient id="paint119_linear_147_2045" x1="114.715" y1="44.7656" x2="120.873" y2="7.46006" gradientUnits="userSpaceOnUse">
<stop stop-color="#88C5FF"/>
<stop offset="0.9964" stop-color="#0071DC"/>
</linearGradient>
<linearGradient id="paint120_linear_147_2045" x1="132.584" y1="-16.1279" x2="101.86" y2="61.842" gradientUnits="userSpaceOnUse">
<stop stop-color="#8AC6FF"/>
<stop offset="0.9964" stop-color="#0071DC"/>
</linearGradient>
<linearGradient id="paint121_linear_147_2045" x1="34.5278" y1="262.741" x2="120.106" y2="15.165" gradientUnits="userSpaceOnUse">
<stop stop-color="#89C6FF"/>
<stop offset="0.9964" stop-color="#0071DC"/>
</linearGradient>
<linearGradient id="paint122_linear_147_2045" x1="92.6284" y1="37.3047" x2="100.48" y2="14.5905" gradientUnits="userSpaceOnUse">
<stop stop-color="#94CBFF"/>
<stop offset="0.9964" stop-color="#0071DC"/>
</linearGradient>
</defs>
</svg>
