<svg width="160" height="166" viewBox="0 0 160 166" fill="none" xmlns="http://www.w3.org/2000/svg">
<path d="M110.222 139.445C107.956 137.952 113.445 124.551 118.393 115.682C122.458 108.399 127.239 102.246 128.623 102.955C129.678 103.497 128.357 107.868 129.315 108.214C130.601 108.681 133.299 100.96 135.929 101.22C137.549 101.381 138.945 104.553 138.997 107.465C139.089 112.724 134.787 116.207 125.428 125.341C113.428 137.047 111.393 140.212 110.222 139.445Z" fill="url(#paint0_linear_147_980)"/>
<path opacity="0.3" d="M114.085 130.784C115.348 127.001 115.239 124.591 117.534 122.146C119.54 120.012 120.774 120.618 123.139 118.15C125.814 115.353 124.88 113.888 127.123 111.726C130.237 108.722 133.236 110.388 135.877 107.69C136.713 106.836 137.572 105.481 137.993 103.209C138.581 104.403 138.968 105.971 138.991 107.47C139.083 112.729 134.781 116.212 125.422 125.346C113.428 137.052 111.387 140.218 110.222 139.451C110.043 139.336 109.916 139.146 109.83 138.892C112.102 135.795 113.353 132.987 114.085 130.784Z" fill="white"/>
<path d="M105.892 146.307C110.73 135.49 116.219 127.757 120.331 122.723C129.592 111.386 134.101 111.028 136.079 111.184C138.714 111.386 142.099 112.891 142.618 115.417C143.593 120.139 134.113 126.344 135.145 128.126C135.681 129.048 138.299 127.526 139.36 128.737C140.807 130.392 137.999 135.628 137.25 136.891C131.414 146.653 112.114 146.532 105.892 146.307Z" fill="url(#paint1_linear_147_980)"/>
<path opacity="0.5" d="M115.222 138.038C119.564 135.253 120.861 135.536 123.191 132.958C127.487 128.207 125.913 124.124 129.897 121.085C132.74 118.917 134.39 120.341 138.374 118.046C139.995 117.112 141.327 115.953 142.411 114.765C142.497 114.972 142.572 115.192 142.618 115.411C143.593 120.133 134.113 126.338 135.145 128.12C135.681 129.043 138.299 127.52 139.36 128.731C140.808 130.386 137.999 135.622 137.25 136.885C131.42 146.648 112.119 146.527 105.897 146.307C105.984 146.111 106.076 145.915 106.163 145.719C109.623 141.965 112.829 139.572 115.222 138.038Z" fill="white"/>
<path d="M72.7458 80.2528C70.543 80.8237 68.0576 80.1202 66.4892 78.3038L44.3979 52.6488C42.3854 50.3134 42.6564 46.8362 45.0033 44.8641C47.3734 42.8804 52.0442 42.7766 54.0913 45.1293L76.6093 70.9977C78.7314 73.4369 78.3969 76.9717 75.8712 78.8804C75.2542 79.3533 73.4723 80.0683 72.7458 80.2528Z" fill="url(#paint2_linear_147_980)"/>
<path opacity="0.3" d="M45.0033 44.8641C47.3733 42.8804 52.0442 42.7766 54.0913 45.1293L74.6775 68.7833C72.5728 68.9217 70.2892 69.7175 67.4521 68.5066C62.7236 66.4883 63.1792 61.7713 59.0677 59.0496C57.1879 57.804 54.1432 56.841 48.9591 57.9539L44.3921 52.6546C42.3854 50.3134 42.6564 46.8362 45.0033 44.8641Z" fill="url(#paint3_linear_147_980)"/>
<path d="M35.6328 41.4099C35.7366 41.3753 35.8462 41.3464 35.9558 41.3291L43.5733 38.74L50.0836 58.617L42.6679 60.9351C42.4949 61.0447 42.3104 61.1311 42.1143 61.2003C39.4964 62.0595 35.9212 58.3229 34.1336 52.862C32.3402 47.3897 33.0091 42.2633 35.6328 41.4099Z" fill="url(#paint4_linear_147_980)"/>
<path d="M43.5733 38.7401C42.8467 46.3057 45.0034 52.9025 50.0836 58.6171L112.932 58.2769L95.2465 2.30188L43.5733 38.7401Z" fill="url(#paint5_linear_147_980)"/>
<path opacity="0.3" d="M92.2075 46.9054C86.1297 46.6286 81.8798 39.334 75.5194 41.1274C70.5256 42.5344 70.6064 47.7992 65.6126 48.866C60.4978 49.9558 57.9259 44.8987 51.7789 44.8352C48.9822 44.8064 46.4045 45.8271 44.0864 47.384C45.0379 51.4494 47.0273 55.186 50.0778 58.6171L112.926 58.2768L103.36 40.4354C98.8274 45.5445 95.1542 47.0438 92.2075 46.9054Z" fill="url(#paint6_linear_147_980)"/>
<path d="M92.6457 33.7924C97.8643 49.7252 108.284 60.6122 115.925 58.1096C123.565 55.607 125.526 40.6661 120.313 24.7333C115.094 8.80061 104.674 -2.08647 97.0339 0.416177C89.3934 2.91882 87.4328 17.8597 92.6457 33.7924Z" fill="url(#paint7_linear_147_980)"/>
<path d="M115.602 57.1295C117.222 56.599 118.595 55.3938 119.679 53.5543C120.78 51.6802 121.536 49.2467 121.916 46.3231C122.723 40.1703 121.807 32.6162 119.333 25.0564C116.859 17.4966 113.128 10.8594 108.838 6.37886C106.796 4.24527 104.749 2.72869 102.754 1.86949C100.794 1.02759 98.9771 0.866126 97.3568 1.39664C95.7364 1.92715 94.364 3.13234 93.2799 4.97184C92.1785 6.84594 91.4231 9.27939 91.0425 12.203C90.7023 14.7748 90.6677 17.5946 90.9214 20.5528C91.2731 24.6758 95.1828 27.8128 96.6244 32.2126C98.1583 36.8892 97.1722 42.4711 99.4961 46.1501C100.932 48.4163 102.483 50.4404 104.121 52.1472C106.162 54.2808 108.209 55.7974 110.204 56.6566C112.165 57.5043 113.981 57.66 115.602 57.1295Z" fill="url(#paint8_linear_147_980)"/>
<mask id="mask0_147_980" style="mask-type:luminance" maskUnits="userSpaceOnUse" x="90" y="1" width="33" height="57">
<path d="M115.602 57.1295C117.222 56.599 118.595 55.3938 119.679 53.5543C120.78 51.6802 121.536 49.2467 121.916 46.3231C122.723 40.1703 121.807 32.6162 119.333 25.0564C116.859 17.4966 113.128 10.8594 108.838 6.37886C106.796 4.24527 104.749 2.72869 102.754 1.86949C100.794 1.02759 98.9772 0.866126 97.3568 1.39664C95.7364 1.92715 94.364 3.13234 93.2799 4.97184C92.1785 6.84594 91.4231 9.27939 91.0425 12.203C90.2352 18.3558 91.1521 25.9099 93.6259 33.4697C96.0997 41.0295 99.8306 47.6667 104.121 52.1472C106.162 54.2808 108.209 55.7974 110.204 56.6566C112.165 57.5043 113.981 57.66 115.602 57.1295Z" fill="white"/>
</mask>
<g mask="url(#mask0_147_980)">
<path d="M107.742 29.2659C110.135 36.572 107.194 43.9646 101.261 45.7406C95.4192 47.4936 88.8627 43.1342 86.5331 36.0299C84.2092 28.9256 86.9367 21.6022 92.7147 19.6474C98.585 17.6637 105.349 21.9598 107.742 29.2659Z" fill="url(#paint9_linear_147_980)"/>
</g>
<mask id="mask1_147_980" style="mask-type:luminance" maskUnits="userSpaceOnUse" x="90" y="1" width="33" height="57">
<path d="M115.602 57.1295C117.222 56.599 118.595 55.3938 119.679 53.5543C120.78 51.6802 121.536 49.2467 121.916 46.3231C122.723 40.1703 121.807 32.6162 119.333 25.0564C116.859 17.4966 113.128 10.8594 108.838 6.37886C106.796 4.24527 104.749 2.72869 102.754 1.86949C100.794 1.02759 98.9772 0.866126 97.3568 1.39664C95.7364 1.92715 94.364 3.13234 93.2799 4.97184C92.1785 6.84594 91.4231 9.27939 91.0425 12.203C90.2352 18.3558 91.1521 25.9099 93.6259 33.4697C96.0997 41.0295 99.8306 47.6667 104.121 52.1472C106.162 54.2808 108.209 55.7974 110.204 56.6566C112.165 57.5043 113.981 57.66 115.602 57.1295Z" fill="white"/>
</mask>
<g mask="url(#mask1_147_980)">
<path opacity="0.3" d="M106.773 29.4562C108.549 34.8824 107.604 39.9627 104.697 40.7931C101.837 41.6119 98.1524 37.9848 96.4225 32.7085C94.6925 27.4322 95.5402 22.3808 98.3485 21.4178C101.209 20.4317 104.997 24.0242 106.773 29.4562Z" fill="url(#paint10_linear_147_980)"/>
</g>
<path opacity="0.3" d="M111.058 28.3893L129.135 23.2745C130.612 22.8593 132.134 23.4705 132.52 24.6469C132.907 25.8232 132.001 27.0976 130.514 27.484L112.309 32.2182C111.098 32.5354 109.847 31.9357 109.506 30.892C109.166 29.8482 109.852 28.7295 111.058 28.3893Z" fill="url(#paint11_linear_147_980)"/>
<path d="M106.837 17.952L127.417 10.8305C129.141 10.2307 130.969 10.9746 131.465 12.497C131.961 14.0193 130.929 15.7031 129.188 16.2452L108.405 22.7555C107.062 23.1764 105.637 22.4556 105.211 21.1467C104.784 19.8377 105.505 18.4134 106.837 17.952Z" fill="url(#paint12_linear_147_980)"/>
<path d="M116.375 23.7474L133.437 18.7305C134.827 18.3211 136.269 18.9151 136.644 20.0568C137.018 21.1986 136.177 22.4384 134.781 22.819L117.603 27.4783C116.455 27.7896 115.267 27.213 114.933 26.1923C114.598 25.1774 115.239 24.0818 116.375 23.7474Z" fill="url(#paint13_linear_147_980)"/>
<path d="M132.267 12.2029C132.768 13.731 134.527 14.5441 136.234 14.0135C137.97 13.4715 138.985 11.7416 138.466 10.1558C137.947 8.57001 136.107 7.78001 134.389 8.37972C132.705 8.9679 131.765 10.6748 132.267 12.2029Z" fill="url(#paint14_linear_147_980)"/>
<path d="M111.358 33.7809L133.207 28.447C135.041 27.9972 136.967 28.8852 137.474 30.4306C137.981 31.976 136.863 33.556 135.012 33.9482L112.955 38.6478C111.531 38.9534 110.037 38.1231 109.605 36.7968C109.172 35.4763 109.945 34.1269 111.358 33.7809Z" fill="url(#paint15_linear_147_980)"/>
<path d="M131.696 31.7743C132.077 32.9334 133.513 33.6311 134.92 33.3255C136.35 33.0141 137.209 31.7974 136.817 30.6037C136.425 29.4101 134.943 28.7296 133.524 29.0699C132.123 29.4043 131.316 30.6153 131.696 31.7743Z" fill="#F4F7FA"/>
<path d="M159.387 146.688L2.28564 145.322V149.37C2.28564 150.471 2.97185 151.405 3.90025 151.567L48.325 159.536C48.8498 159.628 49.3861 159.657 49.9166 159.611L157.68 150.523C158.643 150.442 159.387 149.502 159.387 148.378V146.688Z" fill="url(#paint16_linear_147_980)"/>
<path d="M108.815 140.126L4.01549 147.53C2.14139 147.663 0.613281 146.256 0.613281 144.382V69.4695C0.613281 67.6012 2.13562 66.0846 4.01549 66.0846H108.815C110.361 66.0846 111.612 67.457 111.612 69.1466V136.874C111.606 138.557 110.361 140.016 108.815 140.126Z" fill="url(#paint17_linear_147_980)"/>
<path d="M110.487 140.126L5.68786 147.53C3.81376 147.663 2.28564 146.256 2.28564 144.382V69.4695C2.28564 67.6012 3.80799 66.0846 5.68786 66.0846H110.487C112.033 66.0846 113.284 67.457 113.284 69.1466V136.874C113.278 138.557 112.027 140.016 110.487 140.126Z" fill="url(#paint18_linear_147_980)"/>
<path d="M107.218 135.351L9.60921 141.781C8.0811 141.879 6.84131 140.726 6.84131 139.198V73.6098C6.84131 72.0817 8.0811 70.8419 9.60921 70.8362L107.218 70.4325C108.492 70.4268 109.525 71.5512 109.525 72.9409V132.681C109.525 134.071 108.492 135.265 107.218 135.351Z" fill="white"/>
<path d="M61.7897 68.1316C61.7897 68.8294 61.2476 69.3945 60.5845 69.3945C59.9156 69.3945 59.3735 68.8351 59.3735 68.1374C59.3735 67.4397 59.9156 66.8746 60.5845 66.8746C61.2476 66.8688 61.7897 67.4339 61.7897 68.1316Z" fill="white"/>
<path d="M107.87 139.791L2.28564 147.588L48.3193 155.851C48.844 155.943 49.3803 155.972 49.9108 155.926L159.381 146.694L109.548 139.849C108.994 139.763 108.429 139.745 107.87 139.791Z" fill="url(#paint19_linear_147_980)"/>
<path opacity="0.3" d="M17.6934 147.778L105.591 141.193L132.798 144.901L45.6549 151.941L17.6934 147.778Z" fill="url(#paint20_linear_147_980)"/>
<path d="M109.536 83.113L6.83545 84.3874V72.7852C6.83545 71.482 7.89071 70.4268 9.19393 70.4268H107.189C108.492 70.4268 109.548 71.482 109.548 72.7852V83.113H109.536Z" fill="url(#paint21_linear_147_980)"/>
<path d="M71.224 114.194L13.1558 116.593V89.1678L71.224 88.1932V114.194Z" fill="#D8DEE8"/>
<path d="M104.26 112.833L74.6494 114.056V88.1356L104.26 87.6396V112.833Z" fill="#D8DEE8"/>
<path d="M104.26 131.528L13.1558 136.954V120.174L104.26 116.12V131.528Z" fill="#D8DEE8"/>
<path d="M14.1992 76.9139C14.1992 77.6463 13.5649 78.2402 12.7749 78.246C11.9907 78.2517 11.3506 77.6636 11.3506 76.9312C11.3506 76.1989 11.9907 75.6049 12.7749 75.5992C13.5591 75.5934 14.1992 76.1816 14.1992 76.9139Z" fill="url(#paint22_linear_147_980)"/>
<path d="M19.3374 76.8851C19.3374 77.6001 18.7088 78.1825 17.9304 78.1883C17.1519 78.1941 16.5176 77.6174 16.5176 76.9024C16.5176 76.1873 17.1519 75.6049 17.9304 75.5992C18.7088 75.5934 19.3374 76.17 19.3374 76.8851Z" fill="url(#paint23_linear_147_980)"/>
<path d="M24.4291 76.8563C24.4291 77.5655 23.8063 78.1479 23.0336 78.1537C22.2609 78.1595 21.6323 77.5886 21.6323 76.8735C21.6323 76.1585 22.2609 75.5819 23.0336 75.5761C23.8063 75.5703 24.4291 76.147 24.4291 76.8563Z" fill="url(#paint24_linear_147_980)"/>
<path opacity="0.48" d="M85.2362 119.58C77.1573 115.232 70.8027 120.739 64.673 115.307C60.9536 112.014 62.7816 109.558 58.2088 104.633C53.1458 99.1783 49.8474 101.012 44.7556 96.1048C38.3202 89.9001 41.5379 85.0678 35.9964 80.6161C29.2727 75.2129 22.0185 80.2124 15.6119 75.0284C12.8498 72.791 11.3332 69.5445 10.5432 66.0846H4.27507C3.17945 66.0846 2.28564 66.9726 2.28564 68.074V145.731C2.28564 146.827 3.17945 147.657 4.27507 147.576L111.081 139.993C111.606 139.959 112.067 139.647 112.367 139.209C104.548 138.926 99.7446 136.303 96.6768 133.593C90.6682 128.287 91.7119 123.063 85.2362 119.58Z" fill="white"/>
<path d="M151.925 80.9446L140.236 100.072L104.577 99.6683L88.7592 130.271L47.9269 131.701L26.7409 164.351C26.3661 164.933 25.7376 165.308 25.0456 165.366L22.2777 165.596C21.0206 165.792 18.3392 165.412 18.7486 164.206L33.1014 131.736L44.9053 126.453L84.6016 124.937L99.6174 94.8533L136.096 94.4496L148.321 75.8759L151.925 80.9446Z" fill="url(#paint25_linear_147_980)"/>
<path d="M130.18 82.2304L123.624 79.2146L130.93 77.7268L130.18 82.2304Z" fill="url(#paint26_linear_147_980)"/>
<path d="M155.154 75.8759L158.58 80.9446H150.974L148.402 77.7269L155.154 75.8759Z" fill="url(#paint27_linear_147_980)"/>
<path d="M159.387 58.3286L156.204 55.9701L154.832 75.0455L156.204 77.5021L158.58 80.9446L159.387 58.3286Z" fill="url(#paint28_linear_147_980)"/>
<path d="M70.0474 122.734L86.5106 127.232L102.328 96.6294L85.8648 92.1316L70.0474 122.734Z" fill="url(#paint29_linear_147_980)"/>
<path d="M6.92763 162.038L19.2563 165.406C20.5595 165.763 21.9435 165.233 22.6816 164.103L45.684 128.656L29.2208 124.158L6.08573 159.807C5.53215 160.649 5.95886 161.779 6.92763 162.038Z" fill="url(#paint30_linear_147_980)"/>
<path d="M29.2095 124.164L45.6785 128.662L86.5108 127.232L70.0475 122.734L29.2095 124.164Z" fill="url(#paint31_linear_147_980)"/>
<path d="M85.8647 92.1316L102.328 96.6294L137.988 97.0331L121.525 92.5352L85.8647 92.1316Z" fill="url(#paint32_linear_147_980)"/>
<path d="M123.623 79.2147L129.868 78.886L121.524 92.5352L137.988 97.033L149.722 77.8423L156.204 77.502V55.9701L123.623 79.2147Z" fill="url(#paint33_linear_147_980)"/>
<g opacity="0.3">
<path d="M75.7908 121.621C80.525 117.821 84.8153 120.134 87.8427 117.031C90.4318 114.379 87.7504 112.216 90.7144 105.666C93.1247 100.337 96.6596 97.8808 97.3688 97.4022C98.2799 96.7909 99.1622 96.3296 99.9522 95.9779L85.8648 92.1259L70.0474 122.728L73.7206 123.732C74.2626 123.034 74.9431 122.302 75.7908 121.621Z" fill="url(#paint34_linear_147_980)"/>
</g>
<path opacity="0.3" d="M104.369 92.9273C101.359 93.1348 100.817 93.2444 100.811 93.3886C100.794 93.8095 105.626 94.6399 110.568 94.7668C114.962 94.8821 115.735 94.3458 120.44 94.6514C123.502 94.8475 125.555 95.2338 125.607 94.9974C125.665 94.7149 122.822 93.6769 119.754 93.0483C115.573 92.1891 111.785 92.4256 104.369 92.9273Z" fill="url(#paint35_linear_147_980)"/>
<path opacity="0.3" d="M20.6976 146.757C23.2464 142.605 24.1863 138.367 28.6149 136.314C32.0114 134.74 34.318 135.893 37.3396 133.904C39.6923 132.353 40.9609 129.89 41.6875 127.572L29.2089 124.164L6.99072 158.4C14.6659 154.68 18.5525 150.263 20.6976 146.757Z" fill="url(#paint36_linear_147_980)"/>
<defs>
<linearGradient id="paint0_linear_147_980" x1="130.309" y1="99.1703" x2="116.497" y2="154.547" gradientUnits="userSpaceOnUse">
<stop stop-color="#7EBDF9"/>
<stop offset="0.9964" stop-color="#0071DC"/>
</linearGradient>
<linearGradient id="paint1_linear_147_980" x1="124.525" y1="134.429" x2="157.83" y2="103.277" gradientUnits="userSpaceOnUse">
<stop offset="0.00359712" stop-color="#90BCE6"/>
<stop offset="1" stop-color="#75B9FA"/>
</linearGradient>
<linearGradient id="paint2_linear_147_980" x1="65.6287" y1="49.3078" x2="55.3687" y2="74.4956" gradientUnits="userSpaceOnUse">
<stop stop-color="#FFC444"/>
<stop offset="0.9964" stop-color="#F36F56"/>
</linearGradient>
<linearGradient id="paint3_linear_147_980" x1="62.998" y1="48.2362" x2="52.7379" y2="73.4241" gradientUnits="userSpaceOnUse">
<stop stop-color="#FFC444"/>
<stop offset="0.9964" stop-color="#F36F56"/>
</linearGradient>
<linearGradient id="paint4_linear_147_980" x1="32.9867" y1="44.5006" x2="51.6901" y2="55.9944" gradientUnits="userSpaceOnUse">
<stop offset="0.00359712" stop-color="#98C1E8"/>
<stop offset="1" stop-color="#72B7F9"/>
</linearGradient>
<linearGradient id="paint5_linear_147_980" x1="61.5022" y1="10.6086" x2="104.87" y2="90.882" gradientUnits="userSpaceOnUse">
<stop stop-color="#82C1FC"/>
<stop offset="0.9964" stop-color="#0071DC"/>
</linearGradient>
<linearGradient id="paint6_linear_147_980" x1="56.2738" y1="12.4917" x2="100.183" y2="93.7667" gradientUnits="userSpaceOnUse">
<stop stop-color="#84C1FA"/>
<stop offset="0.9964" stop-color="#0071DC"/>
</linearGradient>
<linearGradient id="paint7_linear_147_980" x1="85.1805" y1="16.174" x2="127.776" y2="42.3506" gradientUnits="userSpaceOnUse">
<stop offset="0.00359712" stop-color="#9CBFDF"/>
<stop offset="1" stop-color="#7BBBF8"/>
</linearGradient>
<linearGradient id="paint8_linear_147_980" x1="88.816" y1="34.5523" x2="118.686" y2="25.6063" gradientUnits="userSpaceOnUse">
<stop stop-color="#311944"/>
<stop offset="1" stop-color="#406588"/>
</linearGradient>
<linearGradient id="paint9_linear_147_980" x1="83.0349" y1="6.54166" x2="111.351" y2="58.9536" gradientUnits="userSpaceOnUse">
<stop stop-color="#FFC444"/>
<stop offset="0.9964" stop-color="#F36F56"/>
</linearGradient>
<linearGradient id="paint10_linear_147_980" x1="91.1929" y1="11.8167" x2="112.086" y2="50.4887" gradientUnits="userSpaceOnUse">
<stop stop-color="#FFC444"/>
<stop offset="0.9964" stop-color="#F36F56"/>
</linearGradient>
<linearGradient id="paint11_linear_147_980" x1="125.61" y1="19.9548" x2="109.362" y2="47.6381" gradientUnits="userSpaceOnUse">
<stop offset="0.00359712" stop-color="#94C1EC"/>
<stop offset="1" stop-color="#5CAEFB"/>
</linearGradient>
<linearGradient id="paint12_linear_147_980" x1="130.259" y1="4.74313" x2="114.612" y2="20.6823" gradientUnits="userSpaceOnUse">
<stop stop-color="#FFE192"/>
<stop offset="1" stop-color="#FFC221"/>
</linearGradient>
<linearGradient id="paint13_linear_147_980" x1="130.189" y1="15.642" x2="114.632" y2="42.1492" gradientUnits="userSpaceOnUse">
<stop offset="0.00359712" stop-color="#8DBAE5"/>
<stop offset="1" stop-color="#6BB0F0"/>
</linearGradient>
<linearGradient id="paint14_linear_147_980" x1="136.521" y1="10.0029" x2="119.246" y2="27.5998" gradientUnits="userSpaceOnUse">
<stop stop-color="#FFE5A2"/>
<stop offset="1" stop-color="#FFC221"/>
</linearGradient>
<linearGradient id="paint15_linear_147_980" x1="128.899" y1="24.5123" x2="109.978" y2="56.7502" gradientUnits="userSpaceOnUse">
<stop stop-color="#82C1FC"/>
<stop offset="0.9964" stop-color="#0071DC"/>
</linearGradient>
<linearGradient id="paint16_linear_147_980" x1="68.6448" y1="152.726" x2="57.609" y2="157.361" gradientUnits="userSpaceOnUse">
<stop stop-color="#40447E"/>
<stop offset="0.9964" stop-color="#3C3B6B"/>
</linearGradient>
<linearGradient id="paint17_linear_147_980" x1="53.9085" y1="104.087" x2="41.9317" y2="109.118" gradientUnits="userSpaceOnUse">
<stop stop-color="#40447E"/>
<stop offset="0.9964" stop-color="#3C3B6B"/>
</linearGradient>
<linearGradient id="paint18_linear_147_980" x1="2.28679" y1="106.81" x2="113.279" y2="106.81" gradientUnits="userSpaceOnUse">
<stop stop-color="#40447E"/>
<stop offset="0.9964" stop-color="#3C3B6B"/>
</linearGradient>
<linearGradient id="paint19_linear_147_980" x1="2.28679" y1="147.855" x2="159.386" y2="147.855" gradientUnits="userSpaceOnUse">
<stop stop-color="#40447E"/>
<stop offset="0.9964" stop-color="#3C3B6B"/>
</linearGradient>
<linearGradient id="paint20_linear_147_980" x1="17.6927" y1="146.567" x2="132.798" y2="146.567" gradientUnits="userSpaceOnUse">
<stop stop-color="#40447E"/>
<stop offset="0.9964" stop-color="#3C3B6B"/>
</linearGradient>
<linearGradient id="paint21_linear_147_980" x1="84.1944" y1="49.5805" x2="25.2724" y2="112.799" gradientUnits="userSpaceOnUse">
<stop stop-color="#80BAF0"/>
<stop offset="0.9964" stop-color="#0071DC"/>
</linearGradient>
<linearGradient id="paint22_linear_147_980" x1="11.3506" y1="76.9232" x2="14.1972" y2="76.9232" gradientUnits="userSpaceOnUse">
<stop stop-color="#444B8C"/>
<stop offset="0.9964" stop-color="#26264F"/>
</linearGradient>
<linearGradient id="paint23_linear_147_980" x1="16.5177" y1="76.8932" x2="19.3381" y2="76.8932" gradientUnits="userSpaceOnUse">
<stop stop-color="#444B8C"/>
<stop offset="0.9964" stop-color="#26264F"/>
</linearGradient>
<linearGradient id="paint24_linear_147_980" x1="21.637" y1="76.8635" x2="24.4316" y2="76.8635" gradientUnits="userSpaceOnUse">
<stop stop-color="#444B8C"/>
<stop offset="0.9964" stop-color="#26264F"/>
</linearGradient>
<linearGradient id="paint25_linear_147_980" x1="102.764" y1="89.0379" x2="53.6549" y2="171.91" gradientUnits="userSpaceOnUse">
<stop stop-color="#FFF0C7"/>
<stop offset="1" stop-color="#FFC221"/>
</linearGradient>
<linearGradient id="paint26_linear_147_980" x1="121.818" y1="89.3659" x2="123.348" y2="86.7643" gradientUnits="userSpaceOnUse">
<stop stop-color="#FFE192"/>
<stop offset="1" stop-color="#FFC221"/>
</linearGradient>
<linearGradient id="paint27_linear_147_980" x1="155.621" y1="60.8714" x2="153.785" y2="76.7872" gradientUnits="userSpaceOnUse">
<stop stop-color="#FFDF8B"/>
<stop offset="1" stop-color="#FFC221"/>
</linearGradient>
<linearGradient id="paint28_linear_147_980" x1="156.464" y1="75.2751" x2="160.137" y2="48.3409" gradientUnits="userSpaceOnUse">
<stop stop-color="#FFDC80"/>
<stop offset="1" stop-color="#FFC221"/>
</linearGradient>
<linearGradient id="paint29_linear_147_980" x1="95.3541" y1="92.8358" x2="77.4489" y2="125.739" gradientUnits="userSpaceOnUse">
<stop stop-color="#FFDF8A"/>
<stop offset="1" stop-color="#FFC221"/>
</linearGradient>
<linearGradient id="paint30_linear_147_980" x1="39.8424" y1="122.67" x2="6.46639" y2="174.21" gradientUnits="userSpaceOnUse">
<stop stop-color="#FFE08D"/>
<stop offset="1" stop-color="#FFC221"/>
</linearGradient>
<linearGradient id="paint31_linear_147_980" x1="81.8867" y1="121.443" x2="11.8729" y2="133.838" gradientUnits="userSpaceOnUse">
<stop stop-color="#FFDE88"/>
<stop offset="1" stop-color="#FFC221"/>
</linearGradient>
<linearGradient id="paint32_linear_147_980" x1="112.646" y1="87.5448" x2="111.269" y2="101.012" gradientUnits="userSpaceOnUse">
<stop stop-color="#FFDF8C"/>
<stop offset="1" stop-color="#FFC221"/>
</linearGradient>
<linearGradient id="paint33_linear_147_980" x1="130.773" y1="89.9802" x2="159.544" y2="53.4046" gradientUnits="userSpaceOnUse">
<stop stop-color="#FFDF8A"/>
<stop offset="1" stop-color="#FFC221"/>
</linearGradient>
<linearGradient id="paint34_linear_147_980" x1="93.979" y1="92.0875" x2="76.0738" y2="124.99" gradientUnits="userSpaceOnUse">
<stop stop-color="#FFE191"/>
<stop offset="1" stop-color="#FB6FBB"/>
</linearGradient>
<linearGradient id="paint35_linear_147_980" x1="115.817" y1="89.3953" x2="110.806" y2="98.6036" gradientUnits="userSpaceOnUse">
<stop stop-color="#FFDF89"/>
<stop offset="1" stop-color="#FFC221"/>
</linearGradient>
<linearGradient id="paint36_linear_147_980" x1="38.4265" y1="121.753" x2="5.05039" y2="173.293" gradientUnits="userSpaceOnUse">
<stop stop-color="#FFDE87"/>
<stop offset="1" stop-color="#FFC221"/>
</linearGradient>
</defs>
</svg>
