<svg width="108" height="123" viewBox="0 0 108 123" fill="none" xmlns="http://www.w3.org/2000/svg">
<path d="M16.7663 16.0647C16.9272 36.4708 18.0886 95.1606 18.4147 115.031C18.4639 117.93 19.9916 120.248 21.8768 120.284L104.287 121.048C106.239 121.084 107.834 118.658 107.834 115.66V16.5784C107.834 13.6211 106.284 11.2133 104.359 11.191L20.2999 10.6147C18.3388 10.5879 16.744 13.0449 16.7663 16.0647Z" fill="url(#paint0_linear_147_840)"/>
<path d="M20.5187 18.8746C20.6527 35.9347 21.6132 95.4018 21.8857 112.011C21.9259 114.432 23.1901 116.371 24.7492 116.402L101.509 117.041C103.121 117.068 104.444 115.044 104.444 112.538V19.299C104.444 16.8241 103.162 14.8139 101.567 14.796L23.4447 14.3136C21.8187 14.2957 20.5009 16.3506 20.5187 18.8746Z" fill="#7BBFFF"/>
<path opacity="0.53" d="M46.9151 10.7979L17.2798 51.333C17.4629 61.9515 17.6684 73.2803 17.8561 83.6754L71.02 10.9587L46.9151 10.7979Z" fill="url(#paint1_linear_147_840)"/>
<path opacity="0.53" d="M107.839 71.413L71.7705 120.744L87.1823 120.887L107.839 92.6365V71.413Z" fill="url(#paint2_linear_147_840)"/>
<path opacity="0.53" d="M107.838 16.5739C107.838 13.6166 106.288 11.2088 104.363 11.1865L95.5894 11.1284L18.5708 116.469C19.0041 118.658 20.3219 120.253 21.881 120.279L43.8327 120.481L107.838 32.9417V16.5739Z" fill="url(#paint3_linear_147_840)"/>
<path d="M106.816 112.011C99.7889 112.212 90.5552 115.625 86.3427 110.005C82.1257 104.385 83.7339 87.124 83.7339 87.124C83.7339 87.124 78.5564 86.5835 75.8716 86.6907C73.1868 86.5835 68.0094 87.124 68.0094 87.124C68.0094 87.124 69.6131 104.385 65.4006 110.005C61.1835 115.625 51.9499 112.212 44.9275 112.011C37.9051 111.81 41.9166 121.847 41.9166 121.847L75.2998 122.817C75.2998 122.839 75.2998 122.848 75.2998 122.848L75.8672 122.83L76.4345 122.848C76.4345 122.848 76.4345 122.835 76.4345 122.817L109.818 121.847C109.827 121.843 113.843 111.81 106.816 112.011Z" fill="#FFD3B2"/>
<path d="M62.412 67.7723C62.412 67.7723 49.4348 71.0154 49.4348 58.0383C49.4348 58.0383 37.5387 49.3854 44.0295 37.4893C50.5204 25.5932 57.0067 32.084 57.0067 32.084C57.0067 32.084 50.5159 18.0213 62.412 18.0213C62.412 18.0213 69.9839 14.7781 67.8173 11.5305C65.6552 8.28731 62.412 3.95862 67.8173 0.715443C73.2226 -2.52773 76.4702 6.12073 76.4702 9.36837C76.4702 12.616 75.3891 6.1252 81.8755 7.20626C88.3663 8.28731 88.3663 10.4494 87.2808 15.8592C86.1997 21.2645 100.258 15.8592 99.1769 37.4893C99.1769 37.4893 103.501 37.4893 104.582 43.9801C104.582 43.9801 113.235 67.7723 92.6861 67.7723H62.412Z" fill="#2E2E2E"/>
<path d="M58.0831 48.3043C58.0831 48.3043 57.0021 74.2586 60.2452 78.5873C63.4884 82.9115 67.8171 92.6455 75.3845 93.7266C82.9564 94.8076 92.3151 78.9581 93.2979 75.2771C94.102 72.2663 93.7714 42.899 93.7714 42.899C93.7714 42.899 71.0603 24.5121 58.0831 48.3043Z" fill="#FFD3B3"/>
<path d="M60.2498 63.4435C60.2498 63.4435 58.0877 56.9527 54.8445 59.1193C51.6013 61.2814 59.7137 75.085 59.7137 75.085L60.2498 63.4435Z" fill="#FFD3B2"/>
<path d="M92.6904 63.4436C92.6904 63.4436 92.6904 53.7096 98.0957 59.1193C103.501 64.5246 92.6904 72.0965 92.6904 72.0965V63.4436Z" fill="#FFD3B2"/>
<path d="M53.759 43.98C53.759 43.98 49.4347 56.9572 62.4119 52.633C75.3891 48.3087 75.3891 48.3087 75.3891 48.3087C75.3891 48.3087 88.3662 40.7369 90.5283 43.9845C92.6904 47.2277 94.8526 55.2195 94.8526 55.2195C94.8526 55.2195 99.1768 43.9845 94.8526 37.4982C90.5283 31.0029 63.493 25.5931 53.759 43.98Z" fill="#2E2E2E"/>
<path d="M91.0424 63.8277C90.1892 64.2879 89.5951 65.2304 88.7106 65.6906C87.6608 66.2355 86.5172 66.3294 85.3959 66.0703C83.4572 65.6191 81.3576 64.2611 79.4188 65.4002C79.3518 65.4404 79.3786 65.5833 79.459 65.5744C82.0545 65.2304 84.1808 67.2853 86.7271 67.2496C87.6876 67.2362 88.8222 67.1558 89.6665 66.6331C90.4215 66.1685 92.0743 64.7658 92.0743 64.7658C92.0743 64.7658 91.2345 63.7295 91.0424 63.8277Z" fill="#2E2E2E"/>
<path d="M61.0226 63.8277C61.8759 64.2879 62.47 65.2304 63.3545 65.6906C64.4043 66.2355 65.5479 66.3294 66.6692 66.0703C68.6079 65.6191 70.7075 64.2611 72.6462 65.4002C72.7133 65.4404 72.6865 65.5833 72.606 65.5744C70.0106 65.2304 67.8842 67.2853 65.3379 67.2496C64.3775 67.2362 63.2428 67.1558 62.3985 66.6331C61.6436 66.1685 59.9907 64.7658 59.9907 64.7658C59.9907 64.7658 60.8306 63.7295 61.0226 63.8277Z" fill="#2E2E2E"/>
<path d="M80.6558 57.6005C80.6558 57.9892 81.0355 58.2662 81.4018 58.1411C83.1842 57.5469 87.8032 56.3497 91.2921 58.4136C91.2921 58.4136 89.34 53.9285 81.0176 57.069C80.7987 57.1538 80.6558 57.3683 80.6558 57.6005Z" fill="#2E2E2E"/>
<path d="M71.6232 57.6005C71.6232 57.9892 71.2435 58.2662 70.8771 58.1411C69.0947 57.5469 64.4757 56.3497 60.9868 58.4136C60.9868 58.4136 62.939 53.9285 71.2613 57.069C71.4758 57.1538 71.6232 57.3683 71.6232 57.6005Z" fill="#2E2E2E"/>
<path d="M81.219 82.3084C80.7812 81.9109 78.637 80.0302 77.6944 80.3295C77.0243 80.5439 76.6223 80.9996 76.4168 81.3078C76.2158 81.004 75.8137 80.5439 75.1392 80.3295C74.1966 80.0302 72.0479 81.9153 71.6146 82.3084C71.5654 82.3531 71.5342 82.3799 71.5342 82.3799C72.7984 84.2025 74.411 85.0647 76.4123 84.819C78.4181 85.0647 80.0263 84.2025 81.2905 82.3799C81.2994 82.3799 81.2726 82.3531 81.219 82.3084Z" fill="url(#paint4_linear_147_840)"/>
<path d="M76.4389 92.6008C76.3585 92.6008 76.2915 92.5338 76.2915 92.4534V92.0067C76.2915 91.9263 76.3585 91.8593 76.4389 91.8593C76.5193 91.8593 76.5863 91.9263 76.5863 92.0067V92.4534C76.5863 92.5338 76.5238 92.6008 76.4389 92.6008ZM76.4389 91.1177C76.3585 91.1177 76.2915 91.0507 76.2915 90.9703V90.5236C76.2915 90.4432 76.3585 90.3762 76.4389 90.3762C76.5193 90.3762 76.5863 90.4432 76.5863 90.5236V90.9703C76.5863 91.0507 76.5238 91.1177 76.4389 91.1177ZM76.4389 89.6391C76.3585 89.6391 76.2915 89.5721 76.2915 89.4917V89.045C76.2915 88.9645 76.3585 88.8975 76.4389 88.8975C76.5193 88.8975 76.5863 88.9645 76.5863 89.045V89.4917C76.5863 89.5721 76.5238 89.6391 76.4389 89.6391ZM76.4389 88.156C76.3585 88.156 76.2915 88.089 76.2915 88.0086V87.5618C76.2915 87.4814 76.3585 87.4144 76.4389 87.4144C76.5193 87.4144 76.5863 87.4814 76.5863 87.5618V88.0086C76.5863 88.089 76.5238 88.156 76.4389 88.156ZM76.4389 86.6729C76.3585 86.6729 76.2915 86.6059 76.2915 86.5255V86.0787C76.2915 85.9983 76.3585 85.9313 76.4389 85.9313C76.5193 85.9313 76.5863 85.9983 76.5863 86.0787V86.5255C76.5863 86.6059 76.5238 86.6729 76.4389 86.6729ZM76.4389 85.1898C76.3585 85.1898 76.2915 85.1228 76.2915 85.0424V84.5956C76.2915 84.5152 76.3585 84.4482 76.4389 84.4482C76.5193 84.4482 76.5863 84.5152 76.5863 84.5956V85.0424C76.5863 85.1228 76.5238 85.1898 76.4389 85.1898ZM76.4389 83.7067C76.3585 83.7067 76.2915 83.6397 76.2915 83.5593V83.1125C76.2915 83.0321 76.3585 82.9651 76.4389 82.9651C76.5193 82.9651 76.5863 83.0321 76.5863 83.1125V83.5593C76.5863 83.6441 76.5238 83.7067 76.4389 83.7067ZM76.4389 82.228C76.3585 82.228 76.2915 82.161 76.2915 82.0806V81.6339C76.2915 81.5535 76.3585 81.4865 76.4389 81.4865C76.5193 81.4865 76.5863 81.5535 76.5863 81.6339V82.0806C76.5863 82.161 76.5238 82.228 76.4389 82.228ZM76.4389 80.7449C76.3585 80.7449 76.2915 80.6779 76.2915 80.5975V80.1508C76.2915 80.0704 76.3585 80.0034 76.4389 80.0034C76.5193 80.0034 76.5863 80.0704 76.5863 80.1508V80.5975C76.5863 80.6779 76.5238 80.7449 76.4389 80.7449ZM76.4389 79.2618C76.3585 79.2618 76.2915 79.1948 76.2915 79.1144V78.6677C76.2915 78.5873 76.3585 78.5203 76.4389 78.5203C76.5193 78.5203 76.5863 78.5873 76.5863 78.6677V79.1144C76.5863 79.1948 76.5238 79.2618 76.4389 79.2618ZM76.4389 77.7787C76.3585 77.7787 76.2915 77.7117 76.2915 77.6313V77.1846C76.2915 77.1042 76.3585 77.0372 76.4389 77.0372C76.5193 77.0372 76.5863 77.1042 76.5863 77.1846V77.6313C76.5863 77.7162 76.5238 77.7787 76.4389 77.7787ZM76.4389 76.3001C76.3585 76.3001 76.2915 76.2331 76.2915 76.1527V75.706C76.2915 75.6256 76.3585 75.5585 76.4389 75.5585C76.5193 75.5585 76.5863 75.6256 76.5863 75.706V76.1527C76.5863 76.2331 76.5238 76.3001 76.4389 76.3001ZM76.4389 74.817C76.3585 74.817 76.2915 74.75 76.2915 74.6696V74.2229C76.2915 74.1424 76.3585 74.0754 76.4389 74.0754C76.5193 74.0754 76.5863 74.1424 76.5863 74.2229V74.6696C76.5863 74.75 76.5238 74.817 76.4389 74.817ZM76.4389 73.3339C76.3585 73.3339 76.2915 73.2669 76.2915 73.1865V72.7397C76.2915 72.6593 76.3585 72.5923 76.4389 72.5923C76.5193 72.5923 76.5863 72.6593 76.5863 72.7397V73.1865C76.5863 73.2669 76.5238 73.3339 76.4389 73.3339ZM76.4389 71.8508C76.3585 71.8508 76.2915 71.7838 76.2915 71.7034V71.2566C76.2915 71.1762 76.3585 71.1092 76.4389 71.1092C76.5193 71.1092 76.5863 71.1762 76.5863 71.2566V71.7034C76.5863 71.7838 76.5238 71.8508 76.4389 71.8508ZM76.4389 70.3721C76.3585 70.3721 76.2915 70.3051 76.2915 70.2247V69.778C76.2915 69.6976 76.3585 69.6306 76.4389 69.6306C76.5193 69.6306 76.5863 69.6976 76.5863 69.778V70.2247C76.5863 70.3051 76.5238 70.3721 76.4389 70.3721ZM76.4389 68.889C76.3585 68.889 76.2915 68.822 76.2915 68.7416V68.2949C76.2915 68.2145 76.3585 68.1475 76.4389 68.1475C76.5193 68.1475 76.5863 68.2145 76.5863 68.2949V68.7416C76.5863 68.822 76.5238 68.889 76.4389 68.889ZM76.4389 67.4059C76.3585 67.4059 76.2915 67.3389 76.2915 67.2585V66.8118C76.2915 66.7314 76.3585 66.6644 76.4389 66.6644C76.5193 66.6644 76.5863 66.7314 76.5863 66.8118V67.2585C76.5863 67.3389 76.5238 67.4059 76.4389 67.4059ZM76.4389 65.9228C76.3585 65.9228 76.2915 65.8558 76.2915 65.7754V65.3287C76.2915 65.2483 76.3585 65.1813 76.4389 65.1813C76.5193 65.1813 76.5863 65.2483 76.5863 65.3287V65.7754C76.5863 65.8558 76.5238 65.9228 76.4389 65.9228ZM76.4389 64.4397C76.3585 64.4397 76.2915 64.3727 76.2915 64.2923V63.8456C76.2915 63.7652 76.3585 63.6982 76.4389 63.6982C76.5193 63.6982 76.5863 63.7652 76.5863 63.8456V64.2923C76.5863 64.3772 76.5238 64.4397 76.4389 64.4397ZM76.4389 62.9611C76.3585 62.9611 76.2915 62.8941 76.2915 62.8137V62.367C76.2915 62.2865 76.3585 62.2195 76.4389 62.2195C76.5193 62.2195 76.5863 62.2865 76.5863 62.367V62.8137C76.5863 62.8941 76.5238 62.9611 76.4389 62.9611ZM76.4389 61.478C76.3585 61.478 76.2915 61.411 76.2915 61.3306V60.8839C76.2915 60.8034 76.3585 60.7364 76.4389 60.7364C76.5193 60.7364 76.5863 60.8034 76.5863 60.8839V61.3306C76.5863 61.411 76.5238 61.478 76.4389 61.478ZM76.4389 59.9949C76.3585 59.9949 76.2915 59.9279 76.2915 59.8475V59.4008C76.2915 59.3203 76.3585 59.2533 76.4389 59.2533C76.5193 59.2533 76.5863 59.3203 76.5863 59.4008V59.8475C76.5863 59.9279 76.5238 59.9949 76.4389 59.9949ZM76.4389 58.5118C76.3585 58.5118 76.2915 58.4448 76.2915 58.3644V57.9176C76.2915 57.8372 76.3585 57.7702 76.4389 57.7702C76.5193 57.7702 76.5863 57.8372 76.5863 57.9176V58.3644C76.5863 58.4492 76.5238 58.5118 76.4389 58.5118ZM76.4389 57.0332C76.3585 57.0332 76.2915 56.9661 76.2915 56.8857V56.439C76.2915 56.3586 76.3585 56.2916 76.4389 56.2916C76.5193 56.2916 76.5863 56.3586 76.5863 56.439V56.8857C76.5863 56.9661 76.5238 57.0332 76.4389 57.0332ZM76.4389 55.55C76.3585 55.55 76.2915 55.483 76.2915 55.4026V54.9559C76.2915 54.8755 76.3585 54.8085 76.4389 54.8085C76.5193 54.8085 76.5863 54.8755 76.5863 54.9559V55.4026C76.5863 55.483 76.5238 55.55 76.4389 55.55ZM76.4389 54.0669C76.3585 54.0669 76.2915 53.9999 76.2915 53.9195V53.4728C76.2915 53.3924 76.3585 53.3254 76.4389 53.3254C76.5193 53.3254 76.5863 53.3924 76.5863 53.4728V53.9195C76.5863 53.9999 76.5238 54.0669 76.4389 54.0669ZM76.4389 52.5838C76.3585 52.5838 76.2915 52.5168 76.2915 52.4364V51.9897C76.2915 51.9093 76.3585 51.8423 76.4389 51.8423C76.5193 51.8423 76.5863 51.9093 76.5863 51.9897V52.4364C76.5863 52.5168 76.5238 52.5838 76.4389 52.5838Z" fill="white"/>
<path d="M91.5471 65.5878H91.1003C91.0199 65.5878 90.9529 65.5208 90.9529 65.4404C90.9529 65.36 91.0199 65.293 91.1003 65.293H91.5471C91.6275 65.293 91.6945 65.36 91.6945 65.4404C91.6989 65.5208 91.6319 65.5878 91.5471 65.5878ZM90.0684 65.5878H89.6217C89.5413 65.5878 89.4743 65.5208 89.4743 65.4404C89.4743 65.36 89.5413 65.293 89.6217 65.293H90.0684C90.1488 65.293 90.2158 65.36 90.2158 65.4404C90.2158 65.5208 90.1488 65.5878 90.0684 65.5878ZM88.5853 65.5878H88.1386C88.0582 65.5878 87.9912 65.5208 87.9912 65.4404C87.9912 65.36 88.0582 65.293 88.1386 65.293H88.5853C88.6657 65.293 88.7327 65.36 88.7327 65.4404C88.7327 65.5208 88.6657 65.5878 88.5853 65.5878ZM87.1022 65.5878H86.6555C86.5751 65.5878 86.5081 65.5208 86.5081 65.4404C86.5081 65.36 86.5751 65.293 86.6555 65.293H87.1022C87.1826 65.293 87.2496 65.36 87.2496 65.4404C87.2496 65.5208 87.1826 65.5878 87.1022 65.5878ZM85.6191 65.5878H85.1724C85.092 65.5878 85.025 65.5208 85.025 65.4404C85.025 65.36 85.092 65.293 85.1724 65.293H85.6191C85.6995 65.293 85.7665 65.36 85.7665 65.4404C85.7665 65.5208 85.704 65.5878 85.6191 65.5878ZM84.1405 65.5878H83.6938C83.6133 65.5878 83.5463 65.5208 83.5463 65.4404C83.5463 65.36 83.6133 65.293 83.6938 65.293H84.1405C84.2209 65.293 84.2879 65.36 84.2879 65.4404C84.2879 65.5208 84.2209 65.5878 84.1405 65.5878ZM82.6574 65.5878H82.2107C82.1302 65.5878 82.0632 65.5208 82.0632 65.4404C82.0632 65.36 82.1302 65.293 82.2107 65.293H82.6574C82.7378 65.293 82.8048 65.36 82.8048 65.4404C82.8048 65.5208 82.7378 65.5878 82.6574 65.5878ZM81.1743 65.5878H80.7275C80.6471 65.5878 80.5801 65.5208 80.5801 65.4404C80.5801 65.36 80.6471 65.293 80.7275 65.293H81.1743C81.2547 65.293 81.3217 65.36 81.3217 65.4404C81.3217 65.5208 81.2547 65.5878 81.1743 65.5878ZM79.6912 65.5878H79.2444C79.164 65.5878 79.097 65.5208 79.097 65.4404C79.097 65.36 79.164 65.293 79.2444 65.293H79.6912C79.7716 65.293 79.8386 65.36 79.8386 65.4404C79.8386 65.5208 79.776 65.5878 79.6912 65.5878ZM78.2081 65.5878H77.7613C77.6809 65.5878 77.6139 65.5208 77.6139 65.4404C77.6139 65.36 77.6809 65.293 77.7613 65.293H78.2081C78.2885 65.293 78.3555 65.36 78.3555 65.4404C78.3599 65.5208 78.2929 65.5878 78.2081 65.5878ZM76.7294 65.5878H76.2827C76.2023 65.5878 76.1353 65.5208 76.1353 65.4404C76.1353 65.36 76.2023 65.293 76.2827 65.293H76.7294C76.8098 65.293 76.8768 65.36 76.8768 65.4404C76.8768 65.5208 76.8098 65.5878 76.7294 65.5878ZM75.2463 65.5878H74.7996C74.7192 65.5878 74.6522 65.5208 74.6522 65.4404C74.6522 65.36 74.7192 65.293 74.7996 65.293H75.2463C75.3267 65.293 75.3937 65.36 75.3937 65.4404C75.3937 65.5208 75.3267 65.5878 75.2463 65.5878ZM73.7632 65.5878H73.3165C73.2361 65.5878 73.1691 65.5208 73.1691 65.4404C73.1691 65.36 73.2361 65.293 73.3165 65.293H73.7632C73.8436 65.293 73.9106 65.36 73.9106 65.4404C73.9106 65.5208 73.8436 65.5878 73.7632 65.5878ZM72.2801 65.5878H71.8334C71.753 65.5878 71.686 65.5208 71.686 65.4404C71.686 65.36 71.753 65.293 71.8334 65.293H72.2801C72.3605 65.293 72.4275 65.36 72.4275 65.4404C72.432 65.5208 72.365 65.5878 72.2801 65.5878ZM70.8015 65.5878H70.3548C70.2743 65.5878 70.2073 65.5208 70.2073 65.4404C70.2073 65.36 70.2743 65.293 70.3548 65.293H70.8015C70.8819 65.293 70.9489 65.36 70.9489 65.4404C70.9489 65.5208 70.8819 65.5878 70.8015 65.5878ZM69.3184 65.5878H68.8716C68.7912 65.5878 68.7242 65.5208 68.7242 65.4404C68.7242 65.36 68.7912 65.293 68.8716 65.293H69.3184C69.3988 65.293 69.4658 65.36 69.4658 65.4404C69.4658 65.5208 69.3988 65.5878 69.3184 65.5878ZM67.8353 65.5878H67.3885C67.3081 65.5878 67.2411 65.5208 67.2411 65.4404C67.2411 65.36 67.3081 65.293 67.3885 65.293H67.8353C67.9157 65.293 67.9827 65.36 67.9827 65.4404C67.9827 65.5208 67.9157 65.5878 67.8353 65.5878ZM66.3522 65.5878H65.9054C65.825 65.5878 65.758 65.5208 65.758 65.4404C65.758 65.36 65.825 65.293 65.9054 65.293H66.3522C66.4326 65.293 66.4996 65.36 66.4996 65.4404C66.4996 65.5208 66.437 65.5878 66.3522 65.5878ZM64.8735 65.5878H64.4268C64.3464 65.5878 64.2794 65.5208 64.2794 65.4404C64.2794 65.36 64.3464 65.293 64.4268 65.293H64.8735C64.9539 65.293 65.0209 65.36 65.0209 65.4404C65.0209 65.5208 64.9539 65.5878 64.8735 65.5878ZM63.3904 65.5878H62.9437C62.8633 65.5878 62.7963 65.5208 62.7963 65.4404C62.7963 65.36 62.8633 65.293 62.9437 65.293H63.3904C63.4708 65.293 63.5378 65.36 63.5378 65.4404C63.5378 65.5208 63.4708 65.5878 63.3904 65.5878ZM61.9073 65.5878H61.4606C61.3802 65.5878 61.3132 65.5208 61.3132 65.4404C61.3132 65.36 61.3802 65.293 61.4606 65.293H61.9073C61.9877 65.293 62.0547 65.36 62.0547 65.4404C62.0547 65.5208 61.9877 65.5878 61.9073 65.5878ZM60.4242 65.5878H59.9775C59.8971 65.5878 59.8301 65.5208 59.8301 65.4404C59.8301 65.36 59.8971 65.293 59.9775 65.293H60.4242C60.5046 65.293 60.5716 65.36 60.5716 65.4404C60.5716 65.5208 60.5091 65.5878 60.4242 65.5878Z" fill="white"/>
<path d="M83.5506 82.6525H83.1039C83.0235 82.6525 82.9565 82.5855 82.9565 82.5051C82.9565 82.4247 83.0235 82.3577 83.1039 82.3577H83.5506C83.631 82.3577 83.698 82.4247 83.698 82.5051C83.698 82.5855 83.6355 82.6525 83.5506 82.6525ZM82.072 82.6525H81.6253C81.5449 82.6525 81.4779 82.5855 81.4779 82.5051C81.4779 82.4247 81.5449 82.3577 81.6253 82.3577H82.072C82.1524 82.3577 82.2194 82.4247 82.2194 82.5051C82.2194 82.5855 82.1524 82.6525 82.072 82.6525ZM80.5889 82.6525H80.1422C80.0618 82.6525 79.9948 82.5855 79.9948 82.5051C79.9948 82.4247 80.0618 82.3577 80.1422 82.3577H80.5889C80.6693 82.3577 80.7363 82.4247 80.7363 82.5051C80.7363 82.5855 80.6693 82.6525 80.5889 82.6525ZM79.1058 82.6525H78.6591C78.5787 82.6525 78.5117 82.5855 78.5117 82.5051C78.5117 82.4247 78.5787 82.3577 78.6591 82.3577H79.1058C79.1862 82.3577 79.2532 82.4247 79.2532 82.5051C79.2532 82.5855 79.1862 82.6525 79.1058 82.6525ZM77.6227 82.6525H77.176C77.0956 82.6525 77.0286 82.5855 77.0286 82.5051C77.0286 82.4247 77.0956 82.3577 77.176 82.3577H77.6227C77.7031 82.3577 77.7701 82.4247 77.7701 82.5051C77.7701 82.5855 77.7076 82.6525 77.6227 82.6525ZM76.1441 82.6525H75.6973C75.6169 82.6525 75.5499 82.5855 75.5499 82.5051C75.5499 82.4247 75.6169 82.3577 75.6973 82.3577H76.1441C76.2245 82.3577 76.2915 82.4247 76.2915 82.5051C76.2915 82.5855 76.2245 82.6525 76.1441 82.6525ZM74.661 82.6525H74.2142C74.1338 82.6525 74.0668 82.5855 74.0668 82.5051C74.0668 82.4247 74.1338 82.3577 74.2142 82.3577H74.661C74.7414 82.3577 74.8084 82.4247 74.8084 82.5051C74.8084 82.5855 74.7414 82.6525 74.661 82.6525ZM73.1778 82.6525H72.7311C72.6507 82.6525 72.5837 82.5855 72.5837 82.5051C72.5837 82.4247 72.6507 82.3577 72.7311 82.3577H73.1778C73.2582 82.3577 73.3253 82.4247 73.3253 82.5051C73.3253 82.5855 73.2582 82.6525 73.1778 82.6525ZM71.6947 82.6525H71.248C71.1676 82.6525 71.1006 82.5855 71.1006 82.5051C71.1006 82.4247 71.1676 82.3577 71.248 82.3577H71.6947C71.7751 82.3577 71.8422 82.4247 71.8422 82.5051C71.8422 82.5855 71.7796 82.6525 71.6947 82.6525ZM70.2161 82.6525H69.7694C69.689 82.6525 69.622 82.5855 69.622 82.5051C69.622 82.4247 69.689 82.3577 69.7694 82.3577H70.2161C70.2965 82.3577 70.3635 82.4247 70.3635 82.5051C70.3635 82.5855 70.2965 82.6525 70.2161 82.6525ZM68.733 82.6525H68.2863C68.2059 82.6525 68.1389 82.5855 68.1389 82.5051C68.1389 82.4247 68.2059 82.3577 68.2863 82.3577H68.733C68.8134 82.3577 68.8804 82.4247 68.8804 82.5051C68.8804 82.5855 68.8134 82.6525 68.733 82.6525ZM67.2499 82.6525H66.8032C66.7228 82.6525 66.6558 82.5855 66.6558 82.5051C66.6558 82.4247 66.7228 82.3577 66.8032 82.3577H67.2499C67.3303 82.3577 67.3973 82.4247 67.3973 82.5051C67.3973 82.5855 67.3303 82.6525 67.2499 82.6525Z" fill="white"/>
<path d="M91.5471 57.3593H91.1003C91.0199 57.3593 90.9529 57.2923 90.9529 57.2119C90.9529 57.1315 91.0199 57.0645 91.1003 57.0645H91.5471C91.6275 57.0645 91.6945 57.1315 91.6945 57.2119C91.6989 57.2923 91.6319 57.3593 91.5471 57.3593ZM90.0684 57.3593H89.6217C89.5413 57.3593 89.4743 57.2923 89.4743 57.2119C89.4743 57.1315 89.5413 57.0645 89.6217 57.0645H90.0684C90.1488 57.0645 90.2158 57.1315 90.2158 57.2119C90.2158 57.2923 90.1488 57.3593 90.0684 57.3593ZM88.5853 57.3593H88.1386C88.0582 57.3593 87.9912 57.2923 87.9912 57.2119C87.9912 57.1315 88.0582 57.0645 88.1386 57.0645H88.5853C88.6657 57.0645 88.7327 57.1315 88.7327 57.2119C88.7327 57.2923 88.6657 57.3593 88.5853 57.3593ZM87.1022 57.3593H86.6555C86.5751 57.3593 86.5081 57.2923 86.5081 57.2119C86.5081 57.1315 86.5751 57.0645 86.6555 57.0645H87.1022C87.1826 57.0645 87.2496 57.1315 87.2496 57.2119C87.2496 57.2923 87.1826 57.3593 87.1022 57.3593ZM85.6191 57.3593H85.1724C85.092 57.3593 85.025 57.2923 85.025 57.2119C85.025 57.1315 85.092 57.0645 85.1724 57.0645H85.6191C85.6995 57.0645 85.7665 57.1315 85.7665 57.2119C85.7665 57.2923 85.704 57.3593 85.6191 57.3593ZM84.1405 57.3593H83.6938C83.6133 57.3593 83.5463 57.2923 83.5463 57.2119C83.5463 57.1315 83.6133 57.0645 83.6938 57.0645H84.1405C84.2209 57.0645 84.2879 57.1315 84.2879 57.2119C84.2879 57.2923 84.2209 57.3593 84.1405 57.3593ZM82.6574 57.3593H82.2107C82.1302 57.3593 82.0632 57.2923 82.0632 57.2119C82.0632 57.1315 82.1302 57.0645 82.2107 57.0645H82.6574C82.7378 57.0645 82.8048 57.1315 82.8048 57.2119C82.8048 57.2923 82.7378 57.3593 82.6574 57.3593ZM81.1743 57.3593H80.7275C80.6471 57.3593 80.5801 57.2923 80.5801 57.2119C80.5801 57.1315 80.6471 57.0645 80.7275 57.0645H81.1743C81.2547 57.0645 81.3217 57.1315 81.3217 57.2119C81.3217 57.2923 81.2547 57.3593 81.1743 57.3593ZM79.6912 57.3593H79.2444C79.164 57.3593 79.097 57.2923 79.097 57.2119C79.097 57.1315 79.164 57.0645 79.2444 57.0645H79.6912C79.7716 57.0645 79.8386 57.1315 79.8386 57.2119C79.8386 57.2923 79.776 57.3593 79.6912 57.3593ZM78.2081 57.3593H77.7613C77.6809 57.3593 77.6139 57.2923 77.6139 57.2119C77.6139 57.1315 77.6809 57.0645 77.7613 57.0645H78.2081C78.2885 57.0645 78.3555 57.1315 78.3555 57.2119C78.3599 57.2923 78.2929 57.3593 78.2081 57.3593ZM76.7294 57.3593H76.2827C76.2023 57.3593 76.1353 57.2923 76.1353 57.2119C76.1353 57.1315 76.2023 57.0645 76.2827 57.0645H76.7294C76.8098 57.0645 76.8768 57.1315 76.8768 57.2119C76.8768 57.2923 76.8098 57.3593 76.7294 57.3593ZM75.2463 57.3593H74.7996C74.7192 57.3593 74.6522 57.2923 74.6522 57.2119C74.6522 57.1315 74.7192 57.0645 74.7996 57.0645H75.2463C75.3267 57.0645 75.3937 57.1315 75.3937 57.2119C75.3937 57.2923 75.3267 57.3593 75.2463 57.3593ZM73.7632 57.3593H73.3165C73.2361 57.3593 73.1691 57.2923 73.1691 57.2119C73.1691 57.1315 73.2361 57.0645 73.3165 57.0645H73.7632C73.8436 57.0645 73.9106 57.1315 73.9106 57.2119C73.9106 57.2923 73.8436 57.3593 73.7632 57.3593ZM72.2801 57.3593H71.8334C71.753 57.3593 71.686 57.2923 71.686 57.2119C71.686 57.1315 71.753 57.0645 71.8334 57.0645H72.2801C72.3605 57.0645 72.4275 57.1315 72.4275 57.2119C72.432 57.2923 72.365 57.3593 72.2801 57.3593ZM70.8015 57.3593H70.3548C70.2743 57.3593 70.2073 57.2923 70.2073 57.2119C70.2073 57.1315 70.2743 57.0645 70.3548 57.0645H70.8015C70.8819 57.0645 70.9489 57.1315 70.9489 57.2119C70.9489 57.2923 70.8819 57.3593 70.8015 57.3593ZM69.3184 57.3593H68.8716C68.7912 57.3593 68.7242 57.2923 68.7242 57.2119C68.7242 57.1315 68.7912 57.0645 68.8716 57.0645H69.3184C69.3988 57.0645 69.4658 57.1315 69.4658 57.2119C69.4658 57.2923 69.3988 57.3593 69.3184 57.3593ZM67.8353 57.3593H67.3885C67.3081 57.3593 67.2411 57.2923 67.2411 57.2119C67.2411 57.1315 67.3081 57.0645 67.3885 57.0645H67.8353C67.9157 57.0645 67.9827 57.1315 67.9827 57.2119C67.9827 57.2923 67.9157 57.3593 67.8353 57.3593ZM66.3522 57.3593H65.9054C65.825 57.3593 65.758 57.2923 65.758 57.2119C65.758 57.1315 65.825 57.0645 65.9054 57.0645H66.3522C66.4326 57.0645 66.4996 57.1315 66.4996 57.2119C66.4996 57.2923 66.437 57.3593 66.3522 57.3593ZM64.8735 57.3593H64.4268C64.3464 57.3593 64.2794 57.2923 64.2794 57.2119C64.2794 57.1315 64.3464 57.0645 64.4268 57.0645H64.8735C64.9539 57.0645 65.0209 57.1315 65.0209 57.2119C65.0209 57.2923 64.9539 57.3593 64.8735 57.3593ZM63.3904 57.3593H62.9437C62.8633 57.3593 62.7963 57.2923 62.7963 57.2119C62.7963 57.1315 62.8633 57.0645 62.9437 57.0645H63.3904C63.4708 57.0645 63.5378 57.1315 63.5378 57.2119C63.5378 57.2923 63.4708 57.3593 63.3904 57.3593ZM61.9073 57.3593H61.4606C61.3802 57.3593 61.3132 57.2923 61.3132 57.2119C61.3132 57.1315 61.3802 57.0645 61.4606 57.0645H61.9073C61.9877 57.0645 62.0547 57.1315 62.0547 57.2119C62.0547 57.2923 61.9877 57.3593 61.9073 57.3593ZM60.4242 57.3593H59.9775C59.8971 57.3593 59.8301 57.2923 59.8301 57.2119C59.8301 57.1315 59.8971 57.0645 59.9775 57.0645H60.4242C60.5046 57.0645 60.5716 57.1315 60.5716 57.2119C60.5716 57.2923 60.5091 57.3593 60.4242 57.3593Z" fill="white"/>
<path d="M84.0689 86.4629C83.993 86.4629 83.926 86.4048 83.9215 86.3289C83.9215 86.3289 83.9081 86.168 83.8902 85.8777C83.8858 85.7973 83.9483 85.7258 84.0287 85.7213C84.1091 85.7169 84.1806 85.7794 84.1851 85.8598C84.1985 86.1412 84.2119 86.2976 84.2119 86.2976C84.2208 86.378 84.1583 86.4495 84.0779 86.4584C84.0779 86.4629 84.0734 86.4629 84.0689 86.4629ZM84.0064 84.9842C83.926 84.9842 83.859 84.9172 83.859 84.8368C83.859 84.6939 83.8545 84.5464 83.8545 84.3901C83.8545 84.3097 83.9215 84.2427 84.0019 84.2427C84.0823 84.2427 84.1493 84.3097 84.1493 84.3901C84.1493 84.5464 84.1493 84.6939 84.1538 84.8324C84.1538 84.9172 84.0868 84.9842 84.0064 84.9842ZM84.0153 83.5011H84.0108C83.9304 83.4967 83.8634 83.4297 83.8679 83.3492C83.8724 83.2018 83.8768 83.0544 83.8858 82.9025C83.8902 82.8221 83.9617 82.7551 84.0421 82.7596C84.1225 82.764 84.1851 82.8311 84.1851 82.9159C84.1806 83.0678 84.1717 83.2152 84.1672 83.3582C84.1627 83.4386 84.0957 83.5011 84.0153 83.5011ZM84.0957 82.018C84.0913 82.018 84.0868 82.018 84.0823 82.018C84.0019 82.0136 83.9394 81.9421 83.9438 81.8572C83.9528 81.7098 83.9662 81.5624 83.9796 81.4105C83.9885 81.3301 84.06 81.272 84.1404 81.2765C84.2208 81.2854 84.2833 81.3569 84.2744 81.4373C84.261 81.5847 84.2476 81.7321 84.2387 81.8795C84.2387 81.96 84.1717 82.018 84.0957 82.018ZM84.2431 80.5439C84.2387 80.5439 84.2297 80.5439 84.2253 80.5439C84.1449 80.5349 84.0868 80.459 84.0957 80.3786C84.1136 80.2312 84.1359 80.0837 84.1538 79.9363C84.1672 79.8559 84.2387 79.8023 84.3235 79.8112C84.404 79.8246 84.462 79.8961 84.4486 79.981C84.4263 80.1284 84.4084 80.2758 84.3906 80.4188C84.3816 80.4858 84.3191 80.5439 84.2431 80.5439ZM84.4754 79.0786C84.4665 79.0786 84.4576 79.0786 84.4486 79.0742C84.3682 79.0608 84.3146 78.9803 84.3325 78.8999C84.3593 78.7525 84.3906 78.6096 84.4174 78.4622C84.4352 78.3817 84.5112 78.3326 84.5916 78.346C84.672 78.3639 84.7211 78.4398 84.7077 78.5202C84.6765 78.6632 84.6497 78.8106 84.6229 78.9535C84.605 79.025 84.5424 79.0786 84.4754 79.0786ZM84.7971 77.6268C84.7837 77.6268 84.7703 77.6268 84.7613 77.6223C84.6809 77.6 84.6363 77.5196 84.6541 77.4436C84.6899 77.3007 84.7301 77.1533 84.7703 77.0103C84.7926 76.9299 84.873 76.8852 84.9534 76.9076C85.0338 76.9299 85.0785 77.0103 85.0562 77.0907C85.016 77.2337 84.9758 77.3766 84.94 77.5151C84.9222 77.5866 84.8596 77.6268 84.7971 77.6268ZM85.2259 76.2107C85.2081 76.2107 85.1947 76.2062 85.1768 76.2018C85.1008 76.175 85.0606 76.0901 85.0874 76.0141C85.1366 75.8712 85.1902 75.7327 85.2438 75.5898C85.2751 75.5138 85.3599 75.4736 85.4359 75.5049C85.5118 75.5362 85.552 75.621 85.5208 75.697C85.4671 75.8355 85.418 75.9739 85.3689 76.1124C85.3421 76.1705 85.284 76.2107 85.2259 76.2107ZM85.7799 74.8348C85.7575 74.8348 85.7352 74.8303 85.7173 74.8214C85.6414 74.7857 85.6101 74.6963 85.6458 74.6249C85.7084 74.4908 85.7754 74.3524 85.8424 74.2228C85.8781 74.1513 85.9675 74.1201 86.0434 74.1603C86.1149 74.196 86.1462 74.2853 86.106 74.3613C86.0389 74.4908 85.9764 74.6248 85.9139 74.7544C85.8915 74.8035 85.8379 74.8348 85.7799 74.8348ZM86.4946 73.5349C86.4678 73.5349 86.441 73.5259 86.4142 73.5125C86.3472 73.4678 86.3248 73.3785 86.3695 73.307C86.4499 73.1775 86.5348 73.0524 86.6197 72.9318C86.6688 72.8648 86.7582 72.8469 86.8252 72.896C86.8922 72.9452 86.91 73.0345 86.8609 73.1015C86.776 73.2177 86.6956 73.3428 86.6152 73.4634C86.5929 73.5125 86.5437 73.5349 86.4946 73.5349ZM87.3836 72.3555C87.3478 72.3555 87.3121 72.3421 87.2853 72.3198C87.2227 72.2662 87.2183 72.1724 87.2719 72.1098C87.3746 71.9981 87.4774 71.8865 87.5801 71.7793C87.6382 71.7212 87.732 71.7212 87.7901 71.7793C87.8482 71.8373 87.8482 71.9311 87.7901 71.9892C87.6873 72.092 87.5891 72.1992 87.4908 72.3064C87.464 72.3376 87.4238 72.3555 87.3836 72.3555ZM88.4691 71.3504C88.4244 71.3504 88.3798 71.3281 88.353 71.2923C88.3038 71.2253 88.3172 71.136 88.3797 71.0868C88.5004 70.9975 88.6254 70.9082 88.7505 70.8233C88.8175 70.7786 88.9113 70.7965 88.956 70.8635C89.0007 70.9305 88.9828 71.0243 88.9158 71.069C88.7952 71.1494 88.6791 71.2343 88.5629 71.3236C88.5316 71.337 88.5004 71.3504 88.4691 71.3504ZM89.7288 70.5776C89.6752 70.5776 89.6216 70.5463 89.5948 70.4927C89.5591 70.4168 89.5904 70.3319 89.6663 70.2961C89.8003 70.2336 89.9433 70.1711 90.0817 70.113C90.1577 70.0817 90.2426 70.1175 90.2738 70.1934C90.3051 70.2693 90.2694 70.3542 90.189 70.3855C90.0549 70.4391 89.9209 70.4972 89.7914 70.5597C89.769 70.5731 89.7512 70.5776 89.7288 70.5776Z" fill="white"/>
<path d="M6.79541 110.304H43.9311V104.609H6.79541C7.59057 104.609 7.59057 110.304 6.79541 110.304Z" fill="#7CBFFF"/>
<path d="M43.931 108.879V106.275C43.931 105.355 43.1983 104.613 42.2915 104.613H6.95166C6.24138 104.613 5.66064 104.171 5.66064 103.626C5.66064 103.461 5.83486 103.327 6.05376 103.327H44.677C45.5615 103.327 46.9686 104.394 46.9686 105.712V109.353C46.9686 110.595 45.6017 111.6 44.7663 111.6H6.25925C5.92868 111.6 5.66511 111.394 5.66511 111.144C5.66511 110.684 6.15204 110.313 6.75064 110.313H42.5283C43.3056 110.304 43.931 109.665 43.931 108.879Z" fill="url(#paint5_linear_147_840)"/>
<path d="M42.9036 105.922H8.08199C8.00158 105.922 7.93457 105.855 7.93457 105.775C7.93457 105.694 8.00158 105.627 8.08199 105.627H42.8992C42.9796 105.627 43.0466 105.694 43.0466 105.775C43.0466 105.855 42.9841 105.922 42.9036 105.922Z" fill="url(#paint6_linear_147_840)"/>
<path d="M42.9036 106.771H8.08199C8.00158 106.771 7.93457 106.704 7.93457 106.623C7.93457 106.543 8.00158 106.476 8.08199 106.476H42.8992C42.9796 106.476 43.0466 106.543 43.0466 106.623C43.0511 106.704 42.9841 106.771 42.9036 106.771Z" fill="url(#paint7_linear_147_840)"/>
<path d="M42.9036 107.615H8.08199C8.00158 107.615 7.93457 107.548 7.93457 107.468C7.93457 107.387 8.00158 107.32 8.08199 107.32H42.8992C42.9796 107.32 43.0466 107.387 43.0466 107.468C43.0511 107.548 42.9841 107.615 42.9036 107.615Z" fill="url(#paint8_linear_147_840)"/>
<path d="M42.9036 108.459H8.08199C8.00158 108.459 7.93457 108.392 7.93457 108.312C7.93457 108.232 8.00158 108.165 8.08199 108.165H42.8992C42.9796 108.165 43.0466 108.232 43.0466 108.312C43.0466 108.392 42.9841 108.459 42.9036 108.459Z" fill="url(#paint9_linear_147_840)"/>
<path d="M42.9036 109.304H8.08199C8.00158 109.304 7.93457 109.237 7.93457 109.156C7.93457 109.076 8.00158 109.009 8.08199 109.009H42.8992C42.9796 109.009 43.0466 109.076 43.0466 109.156C43.0466 109.237 42.9841 109.304 42.9036 109.304Z" fill="url(#paint10_linear_147_840)"/>
<path d="M47.5941 112.212V114.128C47.5941 114.459 47.402 114.771 47.067 114.986L46.7364 115.2C46.4639 115.375 46.522 115.701 46.8436 115.817C47.0581 115.893 47.0938 116.107 46.9196 116.223L46.5041 116.5C46.2316 116.679 46.2316 116.996 46.5041 117.179L46.8034 117.38C47.0625 117.555 47.0536 117.854 46.7856 118.019L46.4639 118.22C46.2406 118.359 46.2048 118.604 46.3791 118.774L46.5577 118.948C46.6828 119.073 46.7543 119.225 46.7543 119.382V122.41H3.28418V112.033L47.5941 112.212Z" fill="#C6E3FF"/>
<path d="M4.78991 114.432H46.0711C46.1605 114.432 46.2319 114.378 46.2319 114.311C46.2319 114.244 46.1605 114.191 46.0711 114.191H4.78991C4.70057 114.191 4.62909 114.244 4.62909 114.311C4.62463 114.378 4.70057 114.432 4.78991 114.432Z" fill="url(#paint11_linear_147_840)"/>
<path d="M4.78991 116.237H45.0928C45.1821 116.237 45.2536 116.183 45.2536 116.116C45.2536 116.049 45.1821 115.995 45.0928 115.995H4.78991C4.70057 115.995 4.62909 116.049 4.62909 116.116C4.62463 116.183 4.70057 116.237 4.78991 116.237Z" fill="url(#paint12_linear_147_840)"/>
<path d="M4.78991 117.568H44.5925C44.6818 117.568 44.7533 117.514 44.7533 117.447C44.7533 117.38 44.6818 117.327 44.5925 117.327H4.78991C4.70057 117.327 4.62909 117.38 4.62909 117.447C4.62463 117.514 4.70057 117.568 4.78991 117.568Z" fill="url(#paint13_linear_147_840)"/>
<path d="M2.4935 111.367H48.5456C48.8986 111.367 49.2113 111.56 49.2425 111.819C49.2827 112.118 48.9656 112.368 48.5725 112.368H5.87069C5.12021 112.368 4.47247 112.761 4.31611 113.306C3.61923 115.759 3.66837 118.314 4.32952 120.945C4.4814 121.557 5.20061 121.999 6.03151 121.999H47.7014C48.0543 121.999 48.367 122.191 48.3982 122.451C48.4384 122.75 48.1213 123 47.7282 123H2.79727C1.72515 123 0.795976 122.428 0.608354 121.638C-0.168935 118.443 -0.235943 115.375 0.608354 112.471C0.795976 111.819 1.57773 111.359 2.47117 111.359H2.4935V111.367Z" fill="url(#paint14_linear_147_840)"/>
<path d="M45.5747 112.752C45.5569 112.748 37.0469 97.8364 35.8943 96.4337C35.7023 96.1969 35.403 96.0763 35.0992 96.112L32.7227 96.3934L29.9307 102.433L34.581 99.726C34.1209 102.907 40.0935 107.637 42.1439 109.366C42.3539 109.54 42.3673 109.853 42.1797 110.05L41.3622 110.907C42.7068 112.27 44.2569 113.141 46.0036 113.547L45.5747 112.752Z" fill="#FFD3B2"/>
<path d="M41.8403 110.443C41.8403 110.443 41.3176 110.613 41.1434 111.077C41.0585 111.3 41.1479 111.551 41.3444 111.689C42.2021 112.306 45.0388 114.293 46.3476 114.682C46.4549 114.713 46.5576 114.615 46.5308 114.508C46.4638 114.204 46.2449 113.597 45.548 112.708L45.6106 112.833C45.691 112.994 45.5167 113.159 45.3604 113.074C44.4804 112.583 42.698 111.501 41.8403 110.443Z" fill="#2E2E2E"/>
<path d="M42.2601 116.411C42.2467 116.402 40.9691 113.324 40.9557 113.315C39.7853 106.185 36.9263 100.079 36.0865 98.4706C35.9435 98.1981 35.6755 98.0239 35.3717 97.9971L32.9862 97.7916L29.0283 103.143L34.1298 101.432C33.0354 104.457 37.9269 110.3 39.5843 112.404C39.754 112.618 39.7049 112.926 39.4815 113.083L38.5077 113.757C39.5485 115.361 40.8887 116.531 42.5192 117.282L42.2601 116.411Z" fill="#FFD3B2"/>
<path d="M39.0664 113.396C39.0664 113.396 38.5214 113.454 38.2534 113.874C38.1239 114.075 38.1641 114.338 38.3249 114.512C39.0441 115.29 41.4162 117.809 42.6178 118.457C42.7161 118.511 42.8367 118.435 42.8323 118.323C42.8278 118.01 42.7385 117.371 42.2337 116.362L42.2694 116.5C42.3141 116.675 42.1086 116.804 41.9746 116.683C41.2241 116.027 39.6963 114.606 39.0664 113.396Z" fill="#2E2E2E"/>
<path d="M21.8228 96.666C21.8228 96.666 19.6652 99.8734 19.4909 101.339C19.3123 102.804 20.0896 103.309 22.3455 103.496C29.0641 104.05 32.3743 102.04 32.3743 102.04C32.8344 99.1095 34.7374 96.1612 35.8051 96.246C35.8051 96.246 36.1044 95.8485 31.6908 96.1969C30.6455 96.2728 21.8228 96.666 21.8228 96.666Z" fill="#2E2E2E"/>
<path d="M28.2069 77.752C28.2069 77.752 27.1348 78.1808 26.9025 78.7437C26.7149 79.1948 25.5668 79.1725 25.3881 80.0793C25.2943 80.5484 24.9191 80.8968 24.4456 80.937C23.2662 81.0309 21.4213 81.5088 20.988 83.5191C20.6574 85.0513 21.4034 85.6946 22.2164 85.9582C22.815 86.1502 23.1769 86.7712 23.0071 87.3787C22.8463 87.9595 22.9759 88.6519 23.9542 89.2639C26.1565 90.6353 28.734 86.731 28.734 86.731L29.7124 79.6639L28.2069 77.752Z" fill="#2E2E2E"/>
<path d="M27.6573 96.2417C27.6573 96.2417 30.1678 93.8517 31.4052 92.2659C32.0753 91.4082 32.2853 90.2825 31.9726 89.2416C31.4097 87.3386 30.4046 85.3686 30.3152 85.0648C30.1767 84.5958 27.358 84.6136 27.358 84.6136C27.358 84.6136 21.8142 88.2097 19.6387 94.3029L22.0822 95.0624C22.0822 95.0624 23.5296 92.6367 24.9591 91.091C24.9591 91.091 22.4843 94.361 22.3994 95.6967L27.6573 96.2417Z" fill="url(#paint15_linear_147_840)"/>
<path d="M32.4417 97.1841L30.5521 95.1292L28.3721 95.7144C28.3721 95.7144 25.8303 96.1075 24.3784 95.7144C22.9221 95.3213 22.9221 95.3213 22.9221 95.3213L19.6343 94.2983L19.1161 95.7591C18.9865 96.1299 19.1161 96.5409 19.4377 96.7687C19.7236 96.9697 20.0542 97.1931 20.2686 97.2869C20.7019 97.4745 30.2394 97.345 30.2394 97.345L32.4417 97.1841Z" fill="#FFD3B2"/>
<path d="M28.7648 81.0487L27.4023 84.7476C27.5274 85.5159 29.4617 85.5383 29.761 85.0781C29.7923 85.0335 29.8102 84.9754 29.8191 84.9218L30.4311 82.0315C30.4802 81.8037 30.3686 81.5669 30.1631 81.4597L29.4126 81.0577C29.1222 80.9013 28.8631 80.736 28.7648 81.0487Z" fill="#FFD3B2"/>
<path d="M30.7351 77.6492C30.7351 77.6492 31.6866 78.3952 31.9904 80.1463C32.2942 81.8975 31.5526 82.4648 30.8423 82.3755C30.132 82.2861 29.1091 81.9913 28.3005 80.6913C27.4919 79.3958 29.4888 76.7289 30.7351 77.6492Z" fill="#FFD3B2"/>
<path d="M29.2565 80.0659C29.2565 80.0659 29.0689 77.5733 31.088 78.1004L31.4722 78.5605C31.4722 78.5605 32.5533 77.5063 31.5079 76.5726C30.4626 75.639 28.908 75.7462 27.9431 77.2382C26.9782 78.7303 26.594 79.7979 27.2373 80.8164C27.8806 81.8305 28.4792 81.0443 28.4792 81.0443C28.4792 81.0443 28.2112 80.1866 28.5105 79.8471C28.8098 79.5076 29.118 80.1017 29.118 80.1017L29.2565 80.0659Z" fill="#2E2E2E"/>
<path d="M28.9621 80.258C28.9621 80.258 28.8727 78.976 28.1982 79.2931C27.5236 79.6103 28.3456 80.4948 28.6806 80.7986L28.9621 80.258Z" fill="#FFD3B2"/>
<path d="M99.6165 92.2898C99.6165 92.2898 94.3139 94.2106 91.8257 93.2993C91.7141 93.2591 91.6068 93.2145 91.5086 93.1609C89.1901 91.9368 88.9042 88.6222 88.9042 88.6222L87.8633 88.8277C87.8633 88.8277 87.5238 94.157 91.1735 96.4487C92.9693 97.5744 95.7345 97.9675 99.9828 96.6229L99.6165 92.2898Z" fill="#FFD3B2"/>
<path d="M88.8506 88.9081L88.9042 88.6177C88.9042 88.6177 89.1231 87.9119 88.5469 87.2195C87.716 86.2144 87.1084 86.5852 87.1084 86.5852C87.1084 86.5852 87.1531 86.7996 87.1486 86.9917C87.1442 87.1436 86.961 87.224 86.8493 87.1212L85.4958 85.8749C85.4958 85.8749 85.1161 87.8538 88.0242 89.2119L88.8506 88.9081Z" fill="#FFD3B2"/>
<path d="M102.936 84.3336C102.936 84.3336 104.133 84.9144 104.352 85.5844C104.526 86.1205 105.848 86.1875 105.982 87.2418C106.049 87.7868 106.451 88.2201 106.996 88.3049C108.345 88.5104 110.427 89.2118 110.758 91.557C111.012 93.3439 110.101 94.0229 109.14 94.2597C108.439 94.4339 107.97 95.1174 108.113 95.8277C108.251 96.5067 108.046 97.2974 106.867 97.9183C104.222 99.3121 101.586 94.6126 101.586 94.6126L101.046 86.4109L102.936 84.3336Z" fill="#2E2E2E"/>
<path d="M101.586 119.303L101.323 120.853C101.323 120.853 102.203 129.783 102.359 133.352C102.386 133.91 102.239 134.464 101.944 134.942L100.412 137.431L104.307 135.13L104.383 134.656L103.744 133.781L104.58 123.779C104.629 123.189 104.508 122.604 104.231 122.081L103.427 120.567L101.586 119.303Z" fill="url(#paint16_linear_147_840)"/>
<path d="M106.92 120.035C106.92 120.035 112.084 129.832 112.906 132.066C113.728 134.304 114.014 136.166 114.028 136.345C114.046 136.622 114.39 136.886 115.337 136.886C115.823 136.886 116.065 136.689 116.181 136.501C116.279 136.341 116.288 136.14 116.203 135.965C115.904 135.362 114.957 133.428 114.604 132.552C114.184 131.507 113.282 126.763 112.79 125.115C112.294 123.466 111.736 121.679 109.583 120.031C109.578 120.035 108.1 118.588 106.92 120.035Z" fill="url(#paint17_linear_147_840)"/>
<path d="M103.659 103.985C102.328 98.3383 105.701 95.1487 105.701 95.1487C103.99 93.5048 101.149 92.5845 100.099 92.2852C99.8397 92.2138 99.5672 92.2674 99.3573 92.4371C98.4549 93.1653 96.0739 95.2783 96.4313 97.0026C96.6904 98.2445 99.0312 104.44 99.0312 104.44C99.0312 104.44 101.198 105.463 103.659 103.985Z" fill="url(#paint18_linear_147_840)"/>
<path d="M106.612 106.781C106.072 105.146 103.659 103.985 103.659 103.985C101.202 105.463 99.0313 104.436 99.0313 104.436C99.0313 104.436 98.5443 106.294 98.8794 108.023C99.2144 109.752 101.318 120.848 101.318 120.848C104.638 121.518 109.739 120.174 109.739 120.174C107.626 116.421 107.153 108.412 106.612 106.781Z" fill="url(#paint19_linear_147_840)"/>
<path d="M102.114 88.4435L103.195 93.3082C103.297 93.7371 102.909 93.6656 102.475 93.5852C101.765 93.4512 100.849 93.1742 100.546 92.6248C100.514 92.5667 100.501 92.5042 100.492 92.4416L100.027 89.0689C99.9917 88.8009 100.135 88.5418 100.38 88.4301L101.278 88.0325C101.622 87.8806 102.024 88.0772 102.114 88.4435Z" fill="#FFD3B2"/>
<path d="M100.036 84.012C100.036 84.012 98.884 84.7937 98.3881 86.7816C97.8923 88.7695 98.6963 89.4843 99.5228 89.4396C100.349 89.3949 101.546 89.1403 102.583 87.7153C103.619 86.2858 101.546 83.056 100.036 84.012Z" fill="#FFD3B2"/>
<path d="M101.537 86.9068C101.537 86.9068 101.962 84.0567 99.5943 84.4945L99.1163 84.9903C99.1163 84.9903 97.9593 83.6859 99.2414 82.7031C100.523 81.7159 102.301 81.9705 103.284 83.7619C104.267 85.5577 104.624 86.8174 103.802 87.9297C102.976 89.0465 102.359 88.0906 102.359 88.0906C102.359 88.0906 102.739 87.1256 102.422 86.7102C102.109 86.2947 101.703 86.9514 101.703 86.9514L101.537 86.9068Z" fill="#2E2E2E"/>
<path d="M101.859 87.1525C101.859 87.1525 102.069 85.6872 102.815 86.1071C103.566 86.5271 102.547 87.4741 102.136 87.8002L101.859 87.1525Z" fill="#FFD3B2"/>
<path d="M105.714 95.2335C105.714 95.2335 108.015 98.91 108.475 101.671C108.935 104.431 104.566 105.58 102.958 103.971L103.186 102.823C103.186 102.823 105.714 103.283 105.947 101.903C106.179 100.523 103.878 97.7664 103.878 97.7664C103.878 97.7664 104.566 95.6892 105.714 95.2335Z" fill="#FFD3B2"/>
<path d="M103.793 106.33L101.18 97.2035C101.149 97.1008 101.064 97.0248 100.956 97.0114C100.483 96.9578 99.1116 96.8015 97.5257 96.6675C95.6182 96.5066 93.4025 96.3771 92.0757 96.4888C91.8881 96.5066 91.772 96.7032 91.8569 96.873C92.6118 98.3963 95.7076 104.592 97.2577 106.625C97.3113 106.692 97.3872 106.732 97.4721 106.732L103.534 106.674C103.717 106.669 103.842 106.5 103.793 106.33Z" fill="url(#paint20_linear_147_840)"/>
<path d="M97.2579 95.8768L95.3638 95.5596C95.2611 95.5417 95.1806 95.64 95.2119 95.7383L95.3995 96.3056C95.4174 96.3548 95.4576 96.3905 95.5112 96.3994L97.3338 96.6451C97.4276 96.6585 97.508 96.5737 97.4857 96.4798L97.3696 95.984C97.3517 95.9259 97.3115 95.8857 97.2579 95.8768Z" fill="url(#paint21_linear_147_840)"/>
<path d="M98.6741 97.4805L98.5177 96.6674C98.4998 96.587 98.4328 96.5245 98.3524 96.5156L94.5241 96.1269C94.3945 96.1135 94.2918 96.2297 94.323 96.3592L94.5643 97.3732C94.5821 97.4537 94.6536 97.5117 94.7385 97.5162L98.4775 97.7038C98.6026 97.7083 98.6964 97.6011 98.6741 97.4805Z" fill="url(#paint22_linear_147_840)"/>
<path d="M103.163 104.123C103.163 104.123 103.525 102.627 103.382 102.095C103.235 101.563 102.949 100.88 102.002 101.032C101.055 101.184 99.9336 101.581 99.9336 101.581C99.9336 101.581 99.9917 102.274 100.711 102.05L100.264 102.394C100.264 102.394 100.327 102.948 100.939 102.653L100.523 103.114C100.523 103.114 100.787 103.569 101.234 103.279C101.68 102.989 101.895 104.302 103.163 104.123Z" fill="#FFD3B2"/>
<defs>
<linearGradient id="paint0_linear_147_840" x1="80.092" y1="44.525" x2="155.084" y2="-45.2882" gradientUnits="userSpaceOnUse">
<stop stop-color="#57ADFF"/>
<stop offset="1" stop-color="#0071DC"/>
</linearGradient>
<linearGradient id="paint1_linear_147_840" x1="100.237" y1="-39.8698" x2="-38.4494" y2="138.169" gradientUnits="userSpaceOnUse">
<stop stop-color="white"/>
<stop offset="1" stop-color="white"/>
</linearGradient>
<linearGradient id="paint2_linear_147_840" x1="161.904" y1="13.4839" x2="23.2174" y2="191.523" gradientUnits="userSpaceOnUse">
<stop stop-color="white"/>
<stop offset="1" stop-color="white"/>
</linearGradient>
<linearGradient id="paint3_linear_147_840" x1="131.281" y1="-13.2328" x2="-7.045" y2="164.344" gradientUnits="userSpaceOnUse">
<stop stop-color="white"/>
<stop offset="1" stop-color="white"/>
</linearGradient>
<linearGradient id="paint4_linear_147_840" x1="75.4604" y1="73.816" x2="76.5417" y2="83.4646" gradientUnits="userSpaceOnUse">
<stop stop-color="#A22B25"/>
<stop offset="1" stop-color="#FF7069"/>
</linearGradient>
<linearGradient id="paint5_linear_147_840" x1="-30.0976" y1="151.889" x2="48.1555" y2="89.4939" gradientUnits="userSpaceOnUse">
<stop stop-color="#54ACFF"/>
<stop offset="1" stop-color="#0071DC"/>
</linearGradient>
<linearGradient id="paint6_linear_147_840" x1="7.93514" y1="105.776" x2="43.0506" y2="105.776" gradientUnits="userSpaceOnUse">
<stop stop-color="#DAE3FE"/>
<stop offset="1" stop-color="#E9EFFD"/>
</linearGradient>
<linearGradient id="paint7_linear_147_840" x1="7.93514" y1="106.621" x2="43.0506" y2="106.621" gradientUnits="userSpaceOnUse">
<stop stop-color="#DAE3FE"/>
<stop offset="1" stop-color="#E9EFFD"/>
</linearGradient>
<linearGradient id="paint8_linear_147_840" x1="7.93514" y1="107.467" x2="43.0506" y2="107.467" gradientUnits="userSpaceOnUse">
<stop stop-color="#DAE3FE"/>
<stop offset="1" stop-color="#E9EFFD"/>
</linearGradient>
<linearGradient id="paint9_linear_147_840" x1="7.93514" y1="108.312" x2="43.0506" y2="108.312" gradientUnits="userSpaceOnUse">
<stop stop-color="#DAE3FE"/>
<stop offset="1" stop-color="#E9EFFD"/>
</linearGradient>
<linearGradient id="paint10_linear_147_840" x1="7.93514" y1="109.157" x2="43.0506" y2="109.157" gradientUnits="userSpaceOnUse">
<stop stop-color="#DAE3FE"/>
<stop offset="1" stop-color="#E9EFFD"/>
</linearGradient>
<linearGradient id="paint11_linear_147_840" x1="4.62552" y1="114.309" x2="46.233" y2="114.309" gradientUnits="userSpaceOnUse">
<stop stop-color="#DAE3FE"/>
<stop offset="1" stop-color="#E9EFFD"/>
</linearGradient>
<linearGradient id="paint12_linear_147_840" x1="4.62552" y1="116.116" x2="45.256" y2="116.116" gradientUnits="userSpaceOnUse">
<stop stop-color="#DAE3FE"/>
<stop offset="1" stop-color="#E9EFFD"/>
</linearGradient>
<linearGradient id="paint13_linear_147_840" x1="4.62552" y1="117.445" x2="44.7549" y2="117.445" gradientUnits="userSpaceOnUse">
<stop stop-color="#D7EBFF"/>
<stop offset="1" stop-color="#E9EFFD"/>
</linearGradient>
<linearGradient id="paint14_linear_147_840" x1="25.3508" y1="63.8232" x2="24.9062" y2="94.6502" gradientUnits="userSpaceOnUse">
<stop stop-color="#0071DC"/>
<stop offset="1" stop-color="#50AAFF"/>
</linearGradient>
<linearGradient id="paint15_linear_147_840" x1="62.9631" y1="67.925" x2="39.8429" y2="82.5975" gradientUnits="userSpaceOnUse">
<stop stop-color="#FFE193"/>
<stop offset="1" stop-color="#FFC221"/>
</linearGradient>
<linearGradient id="paint16_linear_147_840" x1="101.091" y1="148.347" x2="105.418" y2="97.7788" gradientUnits="userSpaceOnUse">
<stop stop-color="#A22B25"/>
<stop offset="1" stop-color="#C0423C"/>
</linearGradient>
<linearGradient id="paint17_linear_147_840" x1="109.795" y1="149.1" x2="114.123" y2="98.5179" gradientUnits="userSpaceOnUse">
<stop stop-color="#A22B25"/>
<stop offset="1" stop-color="#C0423C"/>
</linearGradient>
<linearGradient id="paint18_linear_147_840" x1="124.664" y1="84.4831" x2="108.657" y2="93.9683" gradientUnits="userSpaceOnUse">
<stop stop-color="#FFE296"/>
<stop offset="1" stop-color="#FFC221"/>
</linearGradient>
<linearGradient id="paint19_linear_147_840" x1="125.833" y1="94.0666" x2="107.01" y2="110.073" gradientUnits="userSpaceOnUse">
<stop stop-color="#FFE191"/>
<stop offset="1" stop-color="#FFC221"/>
</linearGradient>
<linearGradient id="paint20_linear_147_840" x1="99.205" y1="95.803" x2="93.0603" y2="121.406" gradientUnits="userSpaceOnUse">
<stop stop-color="#09005D"/>
<stop offset="1" stop-color="#1A0F91"/>
</linearGradient>
<linearGradient id="paint21_linear_147_840" x1="95.358" y1="91.7673" x2="96.6667" y2="97.5141" gradientUnits="userSpaceOnUse">
<stop stop-color="#4DA8FF"/>
<stop offset="1" stop-color="#0071DC"/>
</linearGradient>
<linearGradient id="paint22_linear_147_840" x1="96.043" y1="94.1778" x2="96.6689" y2="97.9332" gradientUnits="userSpaceOnUse">
<stop stop-color="#4EA9FF"/>
<stop offset="1" stop-color="#0071DC"/>
</linearGradient>
</defs>
</svg>
