<svg width="91" height="116" viewBox="0 0 91 116" fill="none" xmlns="http://www.w3.org/2000/svg">
<path d="M49.7276 49.6607C51.9705 50.8007 54.7937 49.7554 56.0284 47.3231C57.263 44.8909 56.444 41.9978 54.197 40.8578C54.0818 40.8002 53.9624 40.7508 53.8431 40.7014C54.2587 39.3557 54.5756 38.0017 54.7855 36.6436C54.9131 36.6436 55.0448 36.6395 55.1765 36.6313C57.7363 36.4049 59.7693 34.0509 59.7158 31.3759C59.6623 28.7009 57.5428 26.7172 54.983 26.9436C54.8472 26.9559 54.7197 26.9765 54.588 27.0012C54.3205 25.676 53.9542 24.3797 53.4933 23.1286C53.6126 23.0586 53.7278 22.9887 53.8431 22.9064C56.0325 21.3713 56.7362 18.3424 55.4069 16.1406C54.0818 13.9389 51.2257 13.3956 49.0363 14.9307C48.9251 15.0089 48.8181 15.0953 48.7153 15.1817C47.851 14.2269 46.9004 13.338 45.8715 12.5273C45.9456 12.4079 46.0155 12.2886 46.0773 12.1651C47.3119 9.7329 48.9251 7.07846 46.6617 5.97552C41.4268 3.41985 39.1839 5.60925 37.9493 8.03735C37.8835 8.16493 37.83 8.2925 37.7765 8.42008C36.5172 8.07027 35.2414 7.82335 33.9574 7.69165C33.9656 7.55585 33.9697 7.42004 33.9697 7.28423C33.9162 4.6092 34.7105 3.16058 32.1383 3.11119C26.5331 3.00419 24.6401 5.4364 24.6936 8.11143C24.6977 8.25135 24.71 8.38716 24.7224 8.52297C23.4383 8.88924 22.1749 9.3584 20.9485 9.92221C20.8909 9.80286 20.8292 9.68352 20.7592 9.56829C19.434 7.36654 16.5779 6.8233 14.3885 8.35835C12.1991 9.8934 11.4954 12.9224 12.8247 15.1241C12.8946 15.2352 12.9687 15.3422 13.0428 15.4451C12.0716 16.4163 11.1621 17.4699 10.3225 18.6016C10.2155 18.5317 10.1044 18.4658 9.98915 18.4082C7.74625 17.2682 4.92307 18.3136 3.68845 20.7458C2.45382 23.178 3.27279 26.0711 5.51981 27.2111C5.63504 27.2687 5.75439 27.3181 5.87373 27.3675C5.45808 28.7132 5.14119 30.0672 4.9313 31.4253C4.80373 31.4253 4.67203 31.4294 4.54034 31.4376C1.98055 31.6681 -0.0524683 34.018 0.00103217 36.693C0.0545326 39.368 2.17397 41.3517 4.73376 41.1212C4.86957 41.1089 4.99715 41.0883 5.12884 41.0636C5.39635 42.3888 5.76262 43.6851 6.22355 44.9362C6.1042 45.0062 5.98897 45.0761 5.87373 45.1584C3.68433 46.6935 2.98059 49.7224 4.30987 51.9242C5.63504 54.1259 10.0303 55.1507 12.2197 53.6156C12.3308 53.5374 10.8945 52.9695 11.0015 52.8831C11.8658 53.8379 12.8164 54.7268 13.8453 55.5375C13.7712 55.6569 13.7013 55.7762 13.6395 55.9038C12.4049 58.336 13.2239 61.2291 15.4709 62.3691C17.7138 63.5091 20.537 62.4638 21.7716 60.0316C21.8375 59.904 21.8909 59.7764 21.9444 59.6488C23.2038 59.9986 24.4795 60.2456 25.7636 60.3773C25.7553 60.5131 25.7512 60.6489 25.7512 60.7847C25.8047 63.4597 27.9242 65.4433 30.4839 65.2129C33.0437 64.9865 35.0768 62.6325 35.0233 59.9575C35.0191 59.8176 35.0068 59.6818 34.9944 59.5459C36.2785 59.1797 37.5419 58.7105 38.7683 58.1467C38.8259 58.266 38.8876 58.3854 38.9576 58.5006C40.2828 60.7024 43.1347 61.2456 45.3283 59.7106C47.5177 58.1755 48.2214 55.1466 46.8921 52.9448C46.8222 52.8337 46.7481 52.7267 46.674 52.6238C47.6452 51.6526 48.5548 50.599 49.3943 49.4673C49.5013 49.5331 49.6124 49.6031 49.7276 49.6607ZM21.7428 50.0146C13.5901 45.8786 10.6147 35.3679 15.0964 26.5444C19.5781 17.7168 29.8172 13.9183 37.9699 18.0584C46.1225 22.1985 49.0939 32.7052 44.6163 41.5327C40.1346 50.3562 29.8913 54.1547 21.7428 50.0146Z" fill="white"/>
<path d="M55.1722 36.6313C57.732 36.4049 59.765 34.0509 59.7115 31.3759C59.658 28.7008 57.5386 26.7172 54.9788 26.9477C54.843 26.96 54.7154 26.9806 54.5837 27.0053C54.3162 25.6801 53.9499 24.3838 53.489 23.1327C53.6084 23.0627 53.7236 22.9928 53.8388 22.9104C56.0282 21.3754 58.7403 17.6674 57.197 15.6097C54.2627 11.7083 51.2255 13.3997 49.0361 14.9348C48.925 15.013 48.818 15.0994 48.7151 15.1858C47.8509 14.231 46.9002 13.3421 45.8714 12.5314C45.9454 12.412 46.0154 12.2927 46.0771 12.1692C46.7479 10.8482 46.8097 9.38718 46.3652 8.14844C44.2499 11.8729 42.1593 15.6138 40.1098 19.3753C46.6121 24.141 48.6822 33.5282 44.6162 41.5368C41.1716 48.3191 34.3235 52.1299 27.6401 51.6525C27.3437 52.4262 27.0474 53.2041 26.7305 53.9695C25.8622 56.0478 24.8786 58.0849 23.895 60.118C24.5164 60.2332 25.1379 60.3278 25.7634 60.3937C25.7552 60.5295 25.7511 60.6653 25.7511 60.8011C25.8046 63.4761 27.4302 65.7479 32.0724 65.5009C34.6404 65.3651 35.0807 62.6489 35.0272 59.9739C35.0231 59.834 35.0108 59.6982 34.9984 59.5624C36.2824 59.1961 37.5459 58.7269 38.7723 58.1631C38.8299 58.2825 38.8916 58.4018 38.9616 58.5171C40.2867 60.7188 44.8919 61.6571 47.0854 60.1221C49.2748 58.587 48.2254 55.163 46.9002 52.9612C46.8303 52.8501 46.7562 52.7431 46.6821 52.6402C47.6533 51.669 48.5629 50.6155 49.4024 49.4837C49.5094 49.5537 49.6205 49.6195 49.7357 49.6771C51.9786 50.8171 54.8018 49.7718 56.0365 47.3396C57.2711 44.9074 56.4521 42.0142 54.2051 40.8743C54.0899 40.8166 53.9705 40.7673 53.8512 40.7179C54.2668 39.3721 54.5837 38.0182 54.7936 36.6601C54.9129 36.6436 55.0446 36.6436 55.1722 36.6313Z" fill="white"/>
<path d="M52.1432 49.9364C54.3861 51.0764 57.2093 50.0311 58.4439 47.5988C59.6785 45.1666 58.8595 42.2735 56.6125 41.1335C56.4973 41.0759 56.3779 41.0265 56.2586 40.9771C56.6743 39.6314 56.9911 38.2774 57.201 36.9193C57.3286 36.9193 57.4603 36.9152 57.592 36.907C60.1518 36.6806 62.1848 34.3266 62.1313 31.6516C62.0778 28.9766 59.9584 26.9929 57.3986 27.2234C57.2628 27.2358 57.1352 27.2563 57.0035 27.281C56.736 25.9559 56.3697 24.6595 55.9088 23.4084C56.0281 23.3384 56.1434 23.2685 56.2586 23.1862C58.448 21.6511 59.1517 18.6222 57.8225 16.4204C56.4973 14.2187 53.6412 13.6754 51.4518 15.2105C51.3407 15.2887 51.2337 15.3751 51.1308 15.4615C50.2665 14.5068 49.3159 13.6178 48.287 12.8071C48.3611 12.6877 48.4311 12.5684 48.4928 12.4408C49.7274 10.0086 48.9085 7.11546 46.6614 5.97549C44.4185 4.83552 41.5954 5.88084 40.3607 8.31305C40.2949 8.44063 40.2414 8.56821 40.1879 8.69578C38.9286 8.34597 37.6528 8.09905 36.3688 7.96735C36.377 7.83155 36.3811 7.69574 36.3811 7.55993C36.3276 4.88491 34.2082 2.90127 31.6484 3.13174C29.0886 3.35809 27.0556 5.71211 27.1091 8.38713C27.1132 8.52705 27.1255 8.66286 27.1379 8.79867C25.8539 9.16494 24.5904 9.6341 23.364 10.1979C23.3064 10.0786 23.2447 9.95922 23.1747 9.84399C21.8496 7.64224 18.9935 7.099 16.8041 8.63405C14.6147 10.1691 13.9109 13.1981 15.2402 15.3998C15.3102 15.5109 15.3842 15.6179 15.4583 15.7208C14.4871 16.692 13.5776 17.7456 12.738 18.8773C12.631 18.8074 12.5199 18.7415 12.4047 18.6839C10.1618 17.5439 7.3386 18.5893 6.10398 21.0215C4.86935 23.4537 5.68832 26.3468 7.93534 27.4868C8.05057 27.5444 8.16992 27.5938 8.28926 27.6432C7.87361 28.9889 7.55672 30.3429 7.34683 31.701C7.21926 31.701 7.08756 31.7051 6.95587 31.7133C4.39608 31.9438 2.36306 34.2937 2.41656 36.9687C2.47006 39.6437 4.5895 41.6274 7.14929 41.3969C7.2851 41.3846 7.41268 41.364 7.54437 41.3393C7.81188 42.6645 8.17815 43.9608 8.63908 45.2119C8.51973 45.2819 8.4045 45.3518 8.28926 45.4341C6.09986 46.9692 5.39612 49.9981 6.7254 52.1999C8.05057 54.4016 10.9067 54.9449 13.0961 53.4098C13.2072 53.3316 13.3142 53.2452 13.4171 53.1588C14.2813 54.1136 15.232 55.0025 16.2608 55.8132C16.1868 55.9326 16.1168 56.0519 16.0551 56.1795C14.8204 58.6117 15.6394 61.5049 17.8864 62.6448C20.1293 63.7848 22.9525 62.7395 24.1871 60.3073C24.253 60.1797 24.3065 60.0521 24.36 59.9245C25.6193 60.2743 26.8951 60.5213 28.1791 60.653C28.1709 60.7888 28.1667 60.9246 28.1667 61.0604C28.2202 63.7354 30.3397 65.719 32.8995 65.4886C35.4593 65.2622 37.4923 62.9082 37.4388 60.2332C37.4347 60.0933 37.4223 59.9575 37.41 59.8216C38.694 59.4554 39.9574 58.9862 41.1838 58.4224C41.2414 58.5417 41.3032 58.6611 41.3731 58.7763C42.6983 60.9781 45.5503 61.5213 47.7438 59.9863C49.9332 58.4512 50.6369 55.4223 49.3077 53.2205C49.2377 53.1094 49.1636 53.0024 49.0895 52.8995C50.0608 51.9283 50.9703 50.8747 51.8098 49.743C51.9168 49.8088 52.0238 49.8747 52.1432 49.9364ZM24.1583 50.2903C16.0057 46.1502 13.0343 35.6436 17.5119 26.816C21.9936 17.9884 32.2328 14.1899 40.3854 18.33C48.5381 22.4701 51.5094 32.9768 47.0318 41.8043C42.546 50.6278 32.3069 54.4304 24.1583 50.2903Z" fill="#D8E2EC"/>
<path opacity="0.75" d="M86.5363 47.5002C86.5363 31.4583 72.8813 18.4576 56.0328 18.4576C39.1884 18.4576 25.5293 31.4624 25.5293 47.5002C25.5293 57.2331 30.5583 65.8508 38.2789 71.1186C41.5547 73.3532 43.5384 77.0406 43.5384 81.0038V83.2261C43.5384 88.0535 47.4521 91.9714 52.2836 91.9714H59.7778C64.6052 91.9714 68.5231 88.0576 68.5231 83.2261V81.0038C68.5231 77.0365 70.5108 73.3532 73.7826 71.1186C81.5072 65.8508 86.5363 57.2372 86.5363 47.5002Z" fill="#F4F7FA"/>
<path d="M56.0328 108.503C59.7695 108.503 62.7986 106.9 62.7986 104.922C62.7986 102.945 59.7695 101.342 56.0328 101.342C52.2962 101.342 49.2671 102.945 49.2671 104.922C49.2671 106.9 52.2962 108.503 56.0328 108.503Z" fill="url(#paint0_linear_147_686)"/>
<path d="M47.0449 98.5231V102.182C47.0449 103.42 47.7487 104.552 48.8681 105.087C50.4196 105.828 52.9958 106.639 56.745 106.544C59.7863 106.466 61.7658 105.968 63.0292 105.449C64.2474 104.947 65.0293 103.741 65.0293 102.424V100.4L47.0449 98.5231Z" fill="url(#paint1_linear_147_686)"/>
<path opacity="0.3" d="M47.0449 101.729C47.3207 101.996 47.6375 102.223 47.9915 102.392C49.7323 103.223 61.1279 105.075 63.877 104.042C64.235 103.906 64.556 103.729 64.8359 103.511C64.9552 103.165 65.0211 102.799 65.0211 102.42V100.396L47.0449 98.5231V101.729Z" fill="url(#paint2_linear_147_686)"/>
<path d="M47.8389 96.0334C46.8265 95.9264 45.9458 96.7206 45.9458 97.7413V97.8441C45.9458 99.231 46.736 100.507 47.9912 101.104C49.732 101.935 61.1276 103.787 63.8767 102.754C65.2595 102.235 66.1196 101.046 66.1196 99.5685V99.4862C66.1196 98.6055 65.457 97.8688 64.5804 97.7783L47.8389 96.0334Z" fill="url(#paint3_linear_147_686)"/>
<path opacity="0.3" d="M64.5807 97.7783L47.8433 96.0333C47.1848 95.9634 46.5799 96.2802 46.2383 96.7906C46.5757 97.5848 47.1848 98.2474 47.9914 98.6302C49.7323 99.4615 61.6135 101.556 63.877 100.49C64.7577 100.075 65.4491 99.375 65.8194 98.5231C65.5437 98.1157 65.0993 97.8318 64.5807 97.7783Z" fill="url(#paint4_linear_147_686)"/>
<path d="M47.1845 90.1072C46.5014 90.1072 45.9458 90.6628 45.9458 91.3459V94.2102C45.9458 95.5971 46.736 96.8729 47.9912 97.4697C49.732 98.301 61.6132 100.396 63.8767 99.3298C65.2142 98.7002 66.1196 97.4121 66.1196 95.9346V91.3459C66.1196 90.6628 65.564 90.1072 64.8808 90.1072H47.1845Z" fill="url(#paint5_linear_147_686)"/>
<path d="M56.0326 93.3252C61.4648 93.3252 65.8685 92.2842 65.8685 91C65.8685 89.7158 61.4648 88.6748 56.0326 88.6748C50.6004 88.6748 46.1968 89.7158 46.1968 91C46.1968 92.2842 50.6004 93.3252 56.0326 93.3252Z" fill="url(#paint6_linear_147_686)"/>
<path d="M86.5363 47.5002C86.5363 31.4583 72.8813 18.4576 56.0328 18.4576C39.1884 18.4576 25.5293 31.4624 25.5293 47.5002C25.5293 57.2331 30.5583 65.8508 38.2789 71.1186C41.5547 73.3532 43.5384 77.0406 43.5384 81.0038V83.2261C43.5384 88.0535 47.4521 91.9714 52.2836 91.9714H59.7778C64.6052 91.9714 68.5231 88.0576 68.5231 83.2261V81.0038C68.5231 77.0365 70.5108 73.3532 73.7826 71.1186C81.5072 65.8508 86.5363 57.2372 86.5363 47.5002Z" fill="url(#paint7_linear_147_686)"/>
<path opacity="0.5" d="M56.0328 90.8642C60.0081 90.8642 63.2307 90.1032 63.2307 89.1645C63.2307 88.2258 60.0081 87.4648 56.0328 87.4648C52.0576 87.4648 48.835 88.2258 48.835 89.1645C48.835 90.1032 52.0576 90.8642 56.0328 90.8642Z" fill="#F4F7FA"/>
<path d="M54.1563 90.2059C53.9505 90.2059 53.7694 90.0536 53.7447 89.8437L48.4482 48.6689C48.4194 48.4426 48.5799 48.2327 48.8062 48.2039C49.0326 48.1751 49.2424 48.3356 49.2713 48.5619L54.5678 89.7367C54.5966 89.9631 54.4361 90.173 54.2098 90.2018C54.1933 90.2059 54.1768 90.2059 54.1563 90.2059Z" fill="url(#paint8_linear_147_686)"/>
<path d="M57.4442 90.2058C57.4277 90.2058 57.4071 90.2058 57.3907 90.2016C57.1643 90.1728 57.0038 89.9629 57.0326 89.7366L62.3292 48.5618C62.358 48.3355 62.5679 48.1709 62.7942 48.2038C63.0206 48.2326 63.1811 48.4425 63.1523 48.6688L57.8557 89.8436C57.831 90.0535 57.65 90.2058 57.4442 90.2058Z" fill="url(#paint9_linear_147_686)"/>
<path d="M61.757 48.6318C61.6212 48.6318 61.4895 48.5659 61.4113 48.4466L59.9504 46.2284C59.9339 46.2037 59.9133 46.1913 59.8927 46.1955C59.8557 46.1955 59.8392 46.2202 59.8351 46.2284L58.8721 47.8457C58.7116 48.1132 58.4318 48.2779 58.1231 48.2861C57.8145 48.2943 57.5264 48.1421 57.3494 47.8828L56.0242 45.895C56.0078 45.8745 55.9913 45.8621 55.9666 45.8621C55.9378 45.8662 55.9255 45.8703 55.9131 45.8909L54.7485 47.5741C54.5797 47.8169 54.304 47.961 54.0118 47.9651C53.7196 47.9651 53.4439 47.8211 53.271 47.5782L51.5919 45.1748C51.5755 45.1543 51.5549 45.146 51.5343 45.1419C51.5096 45.1419 51.4932 45.1543 51.4767 45.179L49.9458 47.8211C49.8305 48.0186 49.5754 48.0886 49.3778 47.9733C49.1803 47.8581 49.1103 47.6029 49.2256 47.4054L50.7565 44.7633C50.9129 44.4958 51.1886 44.3271 51.4973 44.3147C51.8018 44.2983 52.094 44.4464 52.2751 44.7016L53.9542 47.105C53.9707 47.1255 53.9871 47.1379 54.0118 47.1379C54.0324 47.1379 54.053 47.1255 54.0653 47.1091L55.23 45.4259C55.3987 45.179 55.6827 45.0349 55.9749 45.039C56.2712 45.0431 56.551 45.1913 56.7156 45.4423L58.0408 47.4301C58.0573 47.4507 58.0778 47.4712 58.0984 47.463C58.1355 47.463 58.1478 47.4383 58.156 47.4301L59.119 45.8127C59.2795 45.5452 59.5594 45.3806 59.8722 45.3724C60.1808 45.3641 60.473 45.5164 60.6459 45.7798L62.1068 47.998C62.2344 48.1914 62.1809 48.4466 61.9875 48.5742C61.9175 48.6112 61.8352 48.6318 61.757 48.6318Z" fill="url(#paint10_linear_147_686)"/>
<path opacity="0.3" d="M56.5843 70.4106C57.2386 59.2166 76.1078 56.5951 76.0296 46.5987C75.9802 40.4421 68.4819 35.8698 66.881 34.9521C55.0821 28.2028 40.5588 35.9974 37.5587 30.4828C36.8138 29.1082 37.1636 27.6143 37.3611 26.7624C37.6616 25.4743 38.3447 24.2767 39.3571 23.182C31.0316 28.3674 25.5293 37.3226 25.5293 47.5041C25.5293 57.2371 30.5583 65.8548 38.2789 71.1225C41.5547 73.3572 43.5384 77.0446 43.5384 81.0078V83.2301C43.5384 88.0575 47.4521 91.9754 52.2836 91.9754H59.7778C64.6052 91.9754 68.5231 88.0616 68.5231 83.2301V81.4522C67.4901 82.2424 66.309 82.7939 65.0085 82.7815C60.5021 82.7486 56.2591 75.9787 56.5843 70.4106Z" fill="url(#paint11_linear_147_686)"/>
<path opacity="0.44" d="M82.7708 48.6319C84.0878 59.6159 71.7498 73.9458 56.5227 73.9458C42.4809 73.9458 30.3198 62.3403 30.2745 48.6319C30.2334 36.6519 39.6371 25.2974 49.8886 24.1328C56.6585 23.3673 62.1361 27.2276 68.2722 31.5529C74.7293 36.1086 81.8737 41.1418 82.7708 48.6319Z" fill="#F4F7FA"/>
<path d="M99.5952 43.1873C99.3771 43.1832 99.1343 43.0062 99.1343 42.7881L99.447 23.6802C99.4553 23.2481 99.3441 22.9312 98.912 22.923L70.6885 22.462C70.4704 22.4579 70.3016 22.2069 70.3057 21.9888C70.3099 21.7706 70.4868 21.5278 70.7049 21.5278L98.9285 21.9888C99.7927 22.0011 100.394 22.8283 100.377 23.6925L100.064 42.8004C100.064 43.0227 99.8092 43.1914 99.5952 43.1873Z" fill="url(#paint12_linear_147_686)"/>
<path d="M61.0544 22.2603C64.5896 23.5114 68.0383 25.0753 71.4006 26.9601L98.0767 22.6019L99.3361 22.9887L99.4431 22.6348L99.4801 22.5113L75.4584 0L42.9425 5.24716L42.9136 5.34593L42.8066 5.69986L43.7943 6.00028L61.0544 22.2603Z" fill="url(#paint13_linear_147_686)"/>
<path d="M72.174 27.4004L99.2617 22.9764L75.2976 0.39917L42.8022 5.70395L59.9841 21.8899C64.1654 23.2891 68.2314 25.1246 72.174 27.4004Z" fill="url(#paint14_linear_147_686)"/>
<path d="M72.2854 27.4622C75.4296 29.3389 80.6397 32.767 83.8621 35.7507L88.2738 21.322C88.4137 20.8652 88.2944 20.3467 87.9528 19.7787C86.356 17.1655 79.8742 13.6262 71.6804 11.1199C63.4866 8.61361 56.1324 7.91811 53.3462 9.19389C52.9141 9.39143 52.5931 9.63424 52.3997 9.92643C52.3174 10.0417 52.2557 10.1651 52.2145 10.2927L49.4448 19.3425C51.2844 19.6265 53.7948 20.0915 56.7168 20.894C64.7007 23.0875 70.3059 26.2811 72.2854 27.4622Z" fill="url(#paint15_linear_147_686)"/>
<path opacity="0.3" d="M58.0042 21.2643C57.8766 20.6429 57.8396 20.005 57.9054 19.3424C58.3046 15.3299 54.7612 11.7906 52.4031 9.92222C52.3825 9.90576 52.362 9.8893 52.3455 9.87695L49.4482 19.3424C52.3537 19.791 55.2057 20.433 58.0042 21.2643Z" fill="url(#paint16_linear_147_686)"/>
<path d="M83.9844 86.6912V74.9047H76.3379V86.6912C76.3379 87.8394 75.6177 88.8642 74.5395 89.2551C67.5062 91.7861 62.436 98.7247 62.436 105.12C62.436 113.125 70.3706 117.244 80.1611 117.244C89.9517 117.244 97.8863 113.125 97.8863 105.12C97.8863 98.7247 92.8161 91.782 85.7828 89.2551C84.7005 88.8683 83.9844 87.8394 83.9844 86.6912Z" fill="url(#paint17_linear_147_686)"/>
<path d="M65.4686 99.5807C64.341 101.14 63.7031 102.898 63.7031 104.766C63.7031 111.116 71.0697 116.265 80.1566 116.265C89.2434 116.265 96.61 111.116 96.61 104.766C96.61 102.902 95.9721 101.14 94.8445 99.5807H65.4686Z" fill="url(#paint18_linear_147_686)"/>
<path d="M80.1614 100.857C88.271 100.857 94.8452 100.285 94.8452 99.5808C94.8452 98.8762 88.271 98.3051 80.1614 98.3051C72.0517 98.3051 65.4775 98.8762 65.4775 99.5808C65.4775 100.285 72.0517 100.857 80.1614 100.857Z" fill="url(#paint19_linear_147_686)"/>
<g opacity="0.3">
<path d="M81.6955 111.976C79.716 111.968 75.6294 111.956 72.4852 108.906C70.5839 107.063 68.2134 103.313 69.3575 100.219C71.0942 95.5229 79.5472 96.062 80.1316 92.1688C80.3991 90.3992 78.6789 90.0823 78.2797 87.0122C77.8352 83.6294 79.6954 82.2836 79.6707 79.1929C79.6625 78.0818 79.4073 76.6331 78.4279 74.9047H76.3413V86.6912C76.3413 87.8394 75.6211 88.8642 74.5429 89.2551C67.5096 91.7861 62.4395 98.7247 62.4395 105.12C62.4395 113.125 70.374 117.244 80.1646 117.244C89.9551 117.244 97.8897 113.125 97.8897 105.12C97.8897 104.663 97.8609 104.202 97.8115 103.741C95.0583 106.816 89.3214 112.001 81.6955 111.976Z" fill="white"/>
</g>
<path d="M83.6633 76.3533H76.6547C75.9839 76.3533 75.4365 75.8101 75.4365 75.1352C75.4365 74.4643 75.9798 73.917 76.6547 73.917H83.6633C84.3341 73.917 84.8814 74.4602 84.8814 75.1352C84.8814 75.8101 84.3341 76.3533 83.6633 76.3533Z" fill="url(#paint20_linear_147_686)"/>
<path d="M7.7832 95.811L32.3646 94.741L60.6869 95.7328L32.7473 101.84L7.7832 95.811Z" fill="url(#paint21_linear_147_686)"/>
<path d="M27.5867 119.499L7.67626 114.141C5.67205 113.602 4.1123 111.614 4.1123 109.688V109.668C4.1123 107.742 5.67205 106.449 7.67626 106.803L29.0312 110.297L27.5867 119.499Z" fill="url(#paint22_linear_147_686)"/>
<path d="M60.7198 115.475L28.5455 119.067C26.5289 119.294 24.8745 117.886 24.8745 115.927V114.598C24.8745 112.635 26.533 110.915 28.5455 110.754L60.7198 108.194C59.2959 110.841 58.9666 113.318 60.7198 115.475Z" fill="url(#paint23_linear_147_686)"/>
<path d="M60.9992 115.832L28.8166 119.483C26.1868 119.779 24.0098 117.94 24.0098 115.372V115.343C24.0098 112.775 26.1868 110.519 28.8166 110.314L60.9992 107.803C61.1926 107.787 61.349 107.951 61.349 108.165C61.349 108.379 61.1926 108.565 60.9992 108.581L28.8166 111.203C26.7012 111.375 24.9563 113.194 24.9563 115.256V115.285C24.9563 117.347 26.7012 118.833 28.8166 118.598L60.9992 115.059C61.1926 115.038 61.349 115.195 61.349 115.409C61.349 115.623 61.1926 115.808 60.9992 115.832Z" fill="url(#paint24_linear_147_686)"/>
<path d="M28.4262 110.314L7.67626 106.799C5.67205 106.445 4.1123 103.815 4.1123 100.922V100.889C4.1123 97.9962 5.67205 95.6998 7.67626 95.7738L29.6855 96.5928L28.4262 110.314Z" fill="url(#paint25_linear_147_686)"/>
<path d="M60.7198 107.239L30.348 109.532C27.352 109.758 24.8745 107.556 24.8745 104.61V102.61C24.8745 99.663 27.3561 97.2102 30.348 97.1279L60.7198 96.3007C59.2918 100.276 58.9749 103.992 60.7198 107.239Z" fill="url(#paint26_linear_147_686)"/>
<path d="M60.9992 107.803L28.8166 110.314C26.1868 110.519 24.0098 107.552 24.0098 103.7V103.659C24.0098 99.8069 26.1868 96.6175 28.8166 96.5516L60.9992 95.7532C61.1926 95.7491 61.349 96.0043 61.349 96.3253C61.349 96.6463 61.1926 96.9138 60.9992 96.9179L28.8166 97.885C26.7012 97.9467 24.9563 100.519 24.9563 103.614V103.655C24.9563 106.75 26.7012 109.141 28.8166 108.988L60.9992 106.643C61.1926 106.63 61.349 106.877 61.349 107.198C61.349 107.515 61.1926 107.787 60.9992 107.803Z" fill="url(#paint27_linear_147_686)"/>
<path opacity="0.5" d="M21.9894 107.416L17.553 106.643C16.5159 103.815 16.5941 101.219 17.553 98.1155L21.9894 98.4324C21.0799 101.696 21.2198 104.655 21.9894 107.416Z" fill="white"/>
<path d="M36.3889 82.0655C36.0102 81.8268 36.3477 81.1148 36.3559 79.588C36.3642 77.7361 35.8744 77.3698 36.2613 76.6414C36.821 75.5837 38.3807 75.3862 38.7758 75.3368C39.9405 75.1886 40.1504 75.6249 42.2039 75.8965C44.0682 76.1434 44.3481 75.8471 45.093 76.271C46.2165 76.913 45.949 77.8061 46.9038 78.625C48.5664 80.0448 50.7023 78.4892 52.0028 79.6251C53.1921 80.6622 52.9452 83.3043 52.011 85.0039C49.7681 89.07 42.6525 89.3745 41.6443 87.646C41.101 86.7159 42.5373 85.5636 41.7842 84.008C41.315 83.0409 40.3767 82.7569 39.4343 81.7157C39.319 81.5881 39.1421 81.44 38.9116 81.4153C38.6318 81.3865 38.4095 81.5593 38.3025 81.6334C37.7428 82.0326 36.7592 82.3001 36.3889 82.0655Z" fill="url(#paint28_linear_147_686)"/>
<path d="M38.0925 80.3248C37.5534 79.8392 35.648 80.7981 34.3928 82.0574C32.9153 83.5348 33.0388 84.7242 31.7548 86.5555C31.1169 87.465 30.0181 88.6956 28.0674 89.7779C28.2073 90.1236 28.3513 90.4693 28.4913 90.815C29.4419 90.8644 31.3021 90.815 33.0306 89.6668C34.2323 88.8684 34.8455 87.819 36.0184 85.753C37.1954 83.683 38.7675 80.9298 38.0925 80.3248Z" fill="url(#paint29_linear_147_686)"/>
<path d="M26.4294 108.812L27.0303 107.511C27.1167 107.326 27.2484 107.17 27.4171 107.054L27.7176 106.849C27.7176 106.849 28.4378 106.824 28.553 107.277C28.5818 107.853 27.4748 109.145 26.771 109.664C26.6558 109.75 26.4871 109.865 26.3842 109.808C26.2113 109.713 26.3266 109.182 26.4294 108.812Z" fill="url(#paint30_linear_147_686)"/>
<path d="M27.5533 106.149C27.6521 106.705 27.5327 106.993 27.4052 107.157C27.3146 107.272 26.578 108.511 26.8866 108.705C27.0265 108.795 27.9649 107.606 28.0554 107.425C28.1377 107.26 28.1912 107.297 28.1953 106.853C28.1953 106.56 28.2529 106.322 28.2982 106.174C28.0472 106.169 27.8002 106.161 27.5533 106.149Z" fill="url(#paint31_linear_147_686)"/>
<path d="M26.4379 101.758C26.4379 101.758 25.7712 102.569 25.8864 103.449C26.0017 104.33 27.1746 103.03 27.3351 102.593C27.4956 102.157 27.6849 101.536 27.6849 101.536C27.6849 101.536 26.8536 101.03 26.4379 101.758Z" fill="url(#paint32_linear_147_686)"/>
<path d="M26.6852 100.499C26.6852 100.499 26.8745 101.433 26.5288 101.931C26.356 102.178 26.1255 102.388 26.1955 102.589C26.2407 102.725 26.4177 102.82 26.5659 102.803C26.8498 102.77 27.0062 102.334 27.1132 102.025C27.2737 101.569 27.356 100.597 27.356 100.597L26.6852 100.499Z" fill="url(#paint33_linear_147_686)"/>
<path d="M27.2279 101.285C27.0181 101.21 26.8123 101.136 26.6024 101.062C26.2732 100.326 25.8699 99.1157 25.9892 97.6383C26.2979 93.8438 29.7918 91.8026 30.1787 91.5845C31.1376 92.0577 32.1129 92.7245 32.1541 93.5763C32.2076 94.6464 30.7507 95.2225 29.3927 96.8028C28.5819 97.7535 27.7136 99.161 27.2279 101.285Z" fill="url(#paint34_linear_147_686)"/>
<path d="M27.496 106.585C26.7881 103.914 26.9486 101.729 27.1338 100.47C27.4178 98.5643 27.994 94.6917 30.5661 93.2307C31.1258 92.9097 31.9324 92.6216 32.9078 91.7409C33.7226 91.0042 34.2371 90.2305 34.5498 89.6873C37.9944 88.6461 41.1839 89.033 42.6037 90.8726C42.7683 91.0866 43.1799 91.5475 43.2622 92.2306C43.4515 93.7739 41.9493 95.6464 40.2497 96.0456C38.0891 96.5559 38.5706 95.5147 36.661 96.2679C36.126 96.4777 33.5992 96.5765 32.6979 97.6095C31.5497 98.9223 31.2328 99.3791 30.99 99.8606C30.2698 101.301 29.7224 102.363 29.6525 103.733C29.636 104.054 29.6319 104.7 29.2615 105.396C28.9775 105.931 28.5907 106.293 28.3026 106.515C28.031 106.54 27.7635 106.565 27.496 106.585Z" fill="url(#paint35_linear_147_686)"/>
<path d="M29.1866 94.4366C29.5776 94.4119 30.1785 94.3954 30.9069 94.4613C34.3556 94.7741 33.8041 95.8729 36.6561 96.2638C37.3311 96.3585 42.1543 96.5972 43.1338 95.626C44.2367 94.5313 43.8993 92.2307 42.8704 91.3953C42.4342 91.0414 42.0103 91.0537 39.2447 91.1031C38.2035 91.1196 37.1623 91.1319 36.1211 91.1525C31.7135 91.243 30.8699 90.9467 30.0715 91.6793C29.7011 92.025 29.1578 92.7616 29.1866 94.4366Z" fill="url(#paint36_linear_147_686)"/>
<path d="M38.3807 80.2218C38.3807 80.2218 41.8541 79.1806 43.3974 80.9008C43.6813 81.2177 43.9077 81.6334 44.0764 82.44C44.9324 86.5513 41.8335 89.0535 43.0805 91.2182C43.5743 92.0783 44.4386 92.3294 45.06 93.8768C45.167 94.1401 45.5456 95.0867 45.2082 95.3871C44.9077 95.6546 44.4056 95.099 43.5249 95.2143C42.5907 95.3336 42.3767 96.0538 41.7471 95.955C41.3355 95.8892 41.1586 95.5394 40.5454 94.671C39.6606 93.4117 39.2161 92.7862 38.9033 92.5639C37.6605 91.6997 36.7098 92.8479 35.2941 91.9919C34.7797 91.6832 32.8701 89.2593 33.4298 89.9259C34.7426 88.2633 35.0389 86.897 35.0636 85.9463C35.0883 84.9051 34.7879 84.436 35.0431 83.2055C35.0431 83.2055 35.327 81.8309 36.3847 80.6457C36.5328 80.4769 36.7139 80.3 38.3807 80.2218Z" fill="url(#paint37_linear_147_686)"/>
<path d="M39.4838 77.9541C39.4386 78.1763 39.2081 79.3575 39.6937 79.6579C39.8007 79.7237 40.0024 79.7608 40.4057 79.8307C40.6691 79.876 40.8913 79.9048 41.0477 79.9254C41.0271 80.1229 40.9613 80.448 40.7349 80.7402C40.1011 81.5674 38.813 81.3658 38.6319 81.3329C37.9858 81.2217 37.3479 81.0242 37.1915 80.9049C36.957 80.7197 36.7718 80.5839 36.6606 80.4439C36.9117 80.3205 37.4138 79.9995 37.7512 79.8925C38.0023 79.8143 38.241 79.7567 38.4591 79.7114C38.492 79.4809 38.5249 79.2546 38.562 79.0241C38.8624 78.6702 39.1711 78.3121 39.4838 77.9541Z" fill="url(#paint38_linear_147_686)"/>
<path d="M39.4053 78.448C39.4053 78.448 39.3354 79.197 38.611 79.3369C37.9608 79.4604 37.4587 77.8883 37.788 77.4809C37.8991 77.3451 38.1707 77.2134 38.4094 77.2175C38.5781 77.2216 39.146 77.4315 39.2284 77.9953C39.3395 77.876 39.4794 77.8389 39.5494 77.8883C39.6358 77.95 39.5905 78.1352 39.5823 78.1764C39.5452 78.3204 39.4506 78.411 39.4053 78.448Z" fill="url(#paint39_linear_147_686)"/>
<path opacity="0.15" d="M33.4305 89.9301C33.5869 89.7284 33.7309 89.535 33.8626 89.3416C34.591 89.0905 35.2248 88.9959 35.7351 88.9671C36.8875 88.9012 37.5171 89.1687 38.299 88.6913C39.1839 88.1481 39.0192 87.4073 39.8753 86.9875C40.7765 86.5431 41.4185 87.0328 42.2869 86.8641C42.8095 86.7653 43.4474 86.4073 44.0894 85.3784C43.6079 87.8477 42.1717 89.6214 43.0894 91.2182C43.5832 92.0783 44.4475 92.3294 45.0689 93.8768C45.1759 94.1401 45.5545 95.0867 45.2171 95.3871C44.9166 95.6546 44.4146 95.099 43.5339 95.2143C42.5997 95.3336 42.3857 96.0538 41.756 95.955C41.3445 95.8892 41.1675 95.5394 40.5543 94.671C39.6695 93.4117 39.225 92.7862 38.9122 92.5639C37.6694 91.6997 36.7187 92.8479 35.303 91.9919C34.7804 91.6874 32.8667 89.2634 33.4305 89.9301Z" fill="url(#paint40_linear_147_686)"/>
<path d="M32.385 90.3623L40.262 90.6833C40.369 90.6874 40.4677 90.745 40.5295 90.8356L40.7517 91.1854C40.8628 91.3582 40.7311 91.5846 40.5295 91.5764L32.1875 91.3253L32.385 90.3623Z" fill="url(#paint41_linear_147_686)"/>
<path d="M24.1583 86.0411L32.2944 86.1358C32.5331 86.1399 32.7554 86.2675 32.8788 86.4774L35.7349 91.4118L27.1419 91.136C26.9074 91.1278 26.6892 91.0043 26.5658 90.8027L23.9196 86.465C23.8085 86.2757 23.9443 86.0411 24.1583 86.0411Z" fill="url(#paint42_linear_147_686)"/>
<path d="M32.8787 86.4773C32.7593 86.2674 32.5371 86.1399 32.2943 86.1357H32.1173C32.0926 86.3991 32.0145 86.6378 31.854 86.8354C31.356 87.4444 30.5206 87.0782 29.9032 87.7243C29.2283 88.4322 29.8621 89.2676 29.2571 89.926C28.6192 90.6216 27.578 90.066 26.3887 90.5187L26.5615 90.8026C26.685 91.0043 26.899 91.1319 27.1377 91.136L35.7307 91.4117L32.8787 86.4773Z" fill="url(#paint43_linear_147_686)"/>
<path d="M39.6111 90.0412C39.5082 89.7696 39.4012 89.5021 39.2983 89.2305C40.4301 88.9095 41.9898 88.4403 43.5948 87.8518C43.8459 87.7613 44.1422 87.646 44.241 87.3785C44.5085 86.6336 42.7553 85.8764 42.0639 84.2632C41.426 82.7693 41.7511 80.6827 42.4796 80.4317C43.9899 79.909 49.4223 86.5596 47.5251 89.3951C46.4509 91.0042 43.1051 91.2841 39.6111 90.0412Z" fill="url(#paint44_linear_147_686)"/>
<path d="M39.2989 89.2304C38.587 88.86 37.7351 89.251 37.6816 89.2798C37.5252 89.3539 37.2988 89.4897 37.0725 89.7243C37.0478 89.7613 36.7433 90.1893 36.8544 90.3251C36.9449 90.4321 37.2947 90.3416 37.7104 90.0782C37.8873 90.0535 38.1466 90.0288 38.4594 90.0535C39.0356 90.1029 39.2989 90.2798 39.5088 90.1235C39.6611 90.0082 39.7105 89.7654 39.6529 89.5843C39.5953 89.3909 39.4183 89.2963 39.2989 89.2304Z" fill="url(#paint45_linear_147_686)"/>
<defs>
<linearGradient id="paint0_linear_147_686" x1="55.3974" y1="110.006" x2="55.9391" y2="105.673" gradientUnits="userSpaceOnUse">
<stop offset="0.003597" stop-color="#0071DC"/>
<stop offset="1" stop-color="#81C2FF"/>
</linearGradient>
<linearGradient id="paint1_linear_147_686" x1="53.1695" y1="106.057" x2="58.5868" y2="96.3053" gradientUnits="userSpaceOnUse">
<stop offset="0.003597" stop-color="#0071DC"/>
<stop offset="1" stop-color="#8EC8FF"/>
</linearGradient>
<linearGradient id="paint2_linear_147_686" x1="47.0429" y1="101.435" x2="65.0229" y2="101.435" gradientUnits="userSpaceOnUse">
<stop offset="0.003597" stop-color="#0071DC"/>
<stop offset="1" stop-color="#84C3FF"/>
</linearGradient>
<linearGradient id="paint3_linear_147_686" x1="53.6849" y1="103.392" x2="59.0345" y2="93.099" gradientUnits="userSpaceOnUse">
<stop offset="0.003597" stop-color="#0071DC"/>
<stop offset="1" stop-color="#88C5FF"/>
</linearGradient>
<linearGradient id="paint4_linear_147_686" x1="46.2373" y1="98.4052" x2="65.8195" y2="98.4052" gradientUnits="userSpaceOnUse">
<stop offset="0.003597" stop-color="#0071DC"/>
<stop offset="1" stop-color="#85C4FF"/>
</linearGradient>
<linearGradient id="paint5_linear_147_686" x1="45.9469" y1="94.8671" x2="66.1182" y2="94.8671" gradientUnits="userSpaceOnUse">
<stop offset="0.003597" stop-color="#0071DC"/>
<stop offset="1" stop-color="#73BBFF"/>
</linearGradient>
<linearGradient id="paint6_linear_147_686" x1="55.5316" y1="93.3454" x2="57.5179" y2="84.0456" gradientUnits="userSpaceOnUse">
<stop offset="0.003597" stop-color="#0071DC"/>
<stop offset="1" stop-color="#7BBFFF"/>
</linearGradient>
<linearGradient id="paint7_linear_147_686" x1="51.7171" y1="41.4539" x2="91.1262" y2="104.021" gradientUnits="userSpaceOnUse">
<stop stop-color="#FFC221"/>
<stop offset="1" stop-color="#FFDF89"/>
</linearGradient>
<linearGradient id="paint8_linear_147_686" x1="44.5177" y1="89.6298" x2="52.5534" y2="66.1547" gradientUnits="userSpaceOnUse">
<stop offset="0.494" stop-color="#EBEFF2"/>
<stop offset="1" stop-color="white"/>
</linearGradient>
<linearGradient id="paint9_linear_147_686" x1="52.1998" y1="92.2594" x2="60.2355" y2="68.7842" gradientUnits="userSpaceOnUse">
<stop offset="0.494" stop-color="#EBEFF2"/>
<stop offset="1" stop-color="white"/>
</linearGradient>
<linearGradient id="paint10_linear_147_686" x1="41.719" y1="88.6718" x2="49.7547" y2="65.1967" gradientUnits="userSpaceOnUse">
<stop offset="0.494" stop-color="#EBEFF2"/>
<stop offset="1" stop-color="white"/>
</linearGradient>
<linearGradient id="paint11_linear_147_686" x1="53.1001" y1="27.3506" x2="45.2449" y2="92.0879" gradientUnits="userSpaceOnUse">
<stop stop-color="#FFE8AA"/>
<stop offset="1" stop-color="#FFC221"/>
</linearGradient>
<linearGradient id="paint12_linear_147_686" x1="102.777" y1="2.90203" x2="67.0958" y2="62.6853" gradientUnits="userSpaceOnUse">
<stop stop-color="#FFC444"/>
<stop offset="0.9964" stop-color="#F36F56"/>
</linearGradient>
<linearGradient id="paint13_linear_147_686" x1="67.7188" y1="34.8631" x2="72.5147" y2="5.80719" gradientUnits="userSpaceOnUse">
<stop stop-color="#84C3FF"/>
<stop offset="0.9964" stop-color="#0071DC"/>
</linearGradient>
<linearGradient id="paint14_linear_147_686" x1="81.6355" y1="-12.5646" x2="57.706" y2="48.1633" gradientUnits="userSpaceOnUse">
<stop stop-color="#8FC9FF"/>
<stop offset="0.9964" stop-color="#0071DC"/>
</linearGradient>
<linearGradient id="paint15_linear_147_686" x1="5.26372" y1="204.636" x2="71.917" y2="11.8083" gradientUnits="userSpaceOnUse">
<stop stop-color="#8DC8FF"/>
<stop offset="0.9964" stop-color="#0071DC"/>
</linearGradient>
<linearGradient id="paint16_linear_147_686" x1="50.5155" y1="29.052" x2="56.6307" y2="11.3607" gradientUnits="userSpaceOnUse">
<stop stop-color="#8AC6FF"/>
<stop offset="0.9964" stop-color="#0071DC"/>
</linearGradient>
<linearGradient id="paint17_linear_147_686" x1="93.0848" y1="75.6966" x2="61.2735" y2="147.412" gradientUnits="userSpaceOnUse">
<stop offset="0.00359712" stop-color="#B1D9FF"/>
<stop offset="1" stop-color="#75BCFF"/>
</linearGradient>
<linearGradient id="paint18_linear_147_686" x1="63.7049" y1="107.922" x2="96.6132" y2="107.922" gradientUnits="userSpaceOnUse">
<stop stop-color="#88C5FF"/>
<stop offset="0.9964" stop-color="#0071DC"/>
</linearGradient>
<linearGradient id="paint19_linear_147_686" x1="79.6246" y1="100.297" x2="87.3283" y2="89.9872" gradientUnits="userSpaceOnUse">
<stop stop-color="#89C6FF"/>
<stop offset="0.9964" stop-color="#0071DC"/>
</linearGradient>
<linearGradient id="paint20_linear_147_686" x1="81.3776" y1="72.3917" x2="77.448" y2="81.2504" gradientUnits="userSpaceOnUse">
<stop offset="0.00359712" stop-color="#D9ECFF"/>
<stop offset="1" stop-color="#0071DC"/>
</linearGradient>
<linearGradient id="paint21_linear_147_686" x1="7.78163" y1="98.2917" x2="60.6864" y2="98.2917" gradientUnits="userSpaceOnUse">
<stop stop-color="#75BCFF"/>
<stop offset="0.9964" stop-color="#0071DC"/>
</linearGradient>
<linearGradient id="paint22_linear_147_686" x1="13.6397" y1="119.266" x2="17.9523" y2="109.457" gradientUnits="userSpaceOnUse">
<stop stop-color="#FFD159"/>
<stop offset="0.9964" stop-color="#FFC221"/>
</linearGradient>
<linearGradient id="paint23_linear_147_686" x1="24.8752" y1="113.64" x2="60.7205" y2="113.64" gradientUnits="userSpaceOnUse">
<stop stop-color="#FFE5A0"/>
<stop offset="1" stop-color="#FFC221"/>
</linearGradient>
<linearGradient id="paint24_linear_147_686" x1="24.0097" y1="113.657" x2="61.3504" y2="113.657" gradientUnits="userSpaceOnUse">
<stop stop-color="#FFD565"/>
<stop offset="0.9964" stop-color="#FFC221"/>
</linearGradient>
<linearGradient id="paint25_linear_147_686" x1="19.9003" y1="92.8172" x2="12.3396" y2="118.285" gradientUnits="userSpaceOnUse">
<stop stop-color="#83C3FF"/>
<stop offset="0.9964" stop-color="#0071DC"/>
</linearGradient>
<linearGradient id="paint26_linear_147_686" x1="24.8752" y1="102.926" x2="60.7205" y2="102.926" gradientUnits="userSpaceOnUse">
<stop stop-color="#FFE294"/>
<stop offset="1" stop-color="#FFC221"/>
</linearGradient>
<linearGradient id="paint27_linear_147_686" x1="24.0097" y1="103.036" x2="61.3504" y2="103.036" gradientUnits="userSpaceOnUse">
<stop stop-color="#84C3FF"/>
<stop offset="0.9964" stop-color="#0071DC"/>
</linearGradient>
<linearGradient id="paint28_linear_147_686" x1="34.7234" y1="75.6187" x2="54.8103" y2="89.032" gradientUnits="userSpaceOnUse">
<stop stop-color="#2E2E2E"/>
<stop offset="0.9999" stop-color="#2E2E2E"/>
</linearGradient>
<linearGradient id="paint29_linear_147_686" x1="38.291" y1="85.4718" x2="28.0308" y2="85.5528" gradientUnits="userSpaceOnUse">
<stop offset="0.00359712" stop-color="#AED8FF"/>
<stop offset="1" stop-color="#0071DC"/>
</linearGradient>
<linearGradient id="paint30_linear_147_686" x1="25.9239" y1="109.158" x2="28.6143" y2="107.326" gradientUnits="userSpaceOnUse">
<stop stop-color="#2E2E2E"/>
<stop offset="1" stop-color="#2E2E2E"/>
</linearGradient>
<linearGradient id="paint31_linear_147_686" x1="26.8174" y1="109.873" x2="32.0028" y2="93.8971" gradientUnits="userSpaceOnUse">
<stop stop-color="#F7A087"/>
<stop offset="0.9964" stop-color="#F8A48C"/>
</linearGradient>
<linearGradient id="paint32_linear_147_686" x1="25.8688" y1="102.563" x2="27.6928" y2="102.549" gradientUnits="userSpaceOnUse">
<stop stop-color="#2E2E2E"/>
<stop offset="1" stop-color="#2E2E2E"/>
</linearGradient>
<linearGradient id="paint33_linear_147_686" x1="24.8514" y1="107.58" x2="27.7595" y2="98.6208" gradientUnits="userSpaceOnUse">
<stop stop-color="#FFEBD3"/>
<stop offset="0.9964" stop-color="#F36F56"/>
</linearGradient>
<linearGradient id="paint34_linear_147_686" x1="-183.506" y1="218.809" x2="-169.058" y2="210.478" gradientUnits="userSpaceOnUse">
<stop stop-color="#2E2E2E"/>
</linearGradient>
<linearGradient id="paint35_linear_147_686" x1="37.1628" y1="87.7626" x2="33.5533" y2="103.693" gradientUnits="userSpaceOnUse">
<stop stop-color="#2E2E2E"/>
</linearGradient>
<linearGradient id="paint36_linear_147_686" x1="-182.85" y1="220.198" x2="-168.395" y2="211.862" gradientUnits="userSpaceOnUse">
<stop stop-color="#2E2E2E"/>
</linearGradient>
<linearGradient id="paint37_linear_147_686" x1="45.2909" y1="87.9043" x2="33.3115" y2="87.9989" gradientUnits="userSpaceOnUse">
<stop offset="0.00359712" stop-color="#A7D4FF"/>
<stop offset="1" stop-color="#0071DC"/>
</linearGradient>
<linearGradient id="paint38_linear_147_686" x1="39.436" y1="82.7432" x2="38.0909" y2="76.8609" gradientUnits="userSpaceOnUse">
<stop stop-color="#F7A087"/>
<stop offset="0.9964" stop-color="#F7A087"/>
</linearGradient>
<linearGradient id="paint39_linear_147_686" x1="38.5456" y1="77.5463" x2="39.8849" y2="84.1636" gradientUnits="userSpaceOnUse">
<stop stop-color="#F8A58D"/>
<stop offset="0.9964" stop-color="#F7A087"/>
</linearGradient>
<linearGradient id="paint40_linear_147_686" x1="45.3133" y1="90.6533" x2="33.3339" y2="90.748" gradientUnits="userSpaceOnUse">
<stop stop-color="#86C4FF"/>
<stop offset="0.9964" stop-color="#0071DC"/>
</linearGradient>
<linearGradient id="paint41_linear_147_686" x1="32.178" y1="91.0025" x2="40.7834" y2="90.9345" gradientUnits="userSpaceOnUse">
<stop stop-color="#80C1FF"/>
<stop offset="0.9964" stop-color="#0071DC"/>
</linearGradient>
<linearGradient id="paint42_linear_147_686" x1="23.9005" y1="88.7732" x2="35.7123" y2="88.6799" gradientUnits="userSpaceOnUse">
<stop stop-color="#80C1FF"/>
<stop offset="0.9964" stop-color="#0071DC"/>
</linearGradient>
<linearGradient id="paint43_linear_147_686" x1="26.3784" y1="88.8305" x2="35.7127" y2="88.7568" gradientUnits="userSpaceOnUse">
<stop stop-color="#55ACFF"/>
<stop offset="0.9964" stop-color="#0071DC"/>
</linearGradient>
<linearGradient id="paint44_linear_147_686" x1="47.9027" y1="85.5734" x2="39.2703" y2="85.6416" gradientUnits="userSpaceOnUse">
<stop offset="0.00359712" stop-color="#B7DCFF"/>
<stop offset="1" stop-color="#0071DC"/>
</linearGradient>
<linearGradient id="paint45_linear_147_686" x1="37.5536" y1="89.2628" x2="40.4355" y2="91.9359" gradientUnits="userSpaceOnUse">
<stop stop-color="#F7A087"/>
<stop offset="0.9964" stop-color="#F7A087"/>
</linearGradient>
</defs>
</svg>
