<svg width="106" height="113" viewBox="0 0 106 113" fill="none" xmlns="http://www.w3.org/2000/svg">
<path d="M4.79263 109.323H3.37962C2.93471 109.323 2.57218 108.971 2.56394 108.527L1.96661 82.3877C1.95425 81.9322 2.32501 81.5546 2.78228 81.5546H5.15927C5.61654 81.5546 5.98318 81.9239 5.97494 82.3795L5.6083 108.519C5.60418 108.966 5.24166 109.323 4.79263 109.323Z" fill="url(#paint0_linear_147_1312)"/>
<path d="M30.8283 109.324H29.4153C28.9704 109.324 28.6078 108.983 28.5996 108.556L28.0023 83.3523C27.9899 82.9132 28.3607 82.552 28.8179 82.552H31.1949C31.6522 82.552 32.0188 82.9091 32.0106 83.3482L31.6439 108.552C31.6398 108.979 31.2773 109.324 30.8283 109.324Z" fill="url(#paint1_linear_147_1312)"/>
<path d="M32.2903 88.2567H1.5708V81.5669H31.7589C32.0514 81.5669 32.2903 81.8049 32.2903 82.0963V88.2567Z" fill="url(#paint2_linear_147_1312)"/>
<path d="M7.77541 88.2567H2.51886C1.98744 88.2567 1.55076 87.8422 1.52193 87.3128L0.00181043 58.8995C-0.0393851 58.091 0.627983 57.422 1.43954 57.4671L1.56312 57.4753C4.22436 57.6149 6.34593 59.7367 6.47775 62.388L7.77541 88.2567Z" fill="url(#paint3_linear_147_1312)"/>
<path d="M26.849 85.5687C31.1251 91.4418 29.8974 97.7787 21.3205 102.043C20.715 101.497 20.546 100.984 21.1557 99.8267C27.9901 94.9263 26.9437 90.4773 22.7418 87.6495L26.849 85.5687Z" fill="#FFD3B2"/>
<path d="M17.918 88.2405C21.3414 94.327 20.5916 99.0755 10.75 102.219C10.2104 100.832 10.4369 100.061 11.2691 99.7856C18.7172 96.0549 16.8181 93.1286 13.1188 89.9642L17.918 88.2405Z" fill="#FFD3B2"/>
<path d="M10.7537 100.077C10.4736 101.251 10.6013 101.858 11.4953 102.104C12.0349 104.029 11.7383 105.092 10.8155 105.515C9.66617 103.89 8.79694 102.141 8.5127 100.147C9.36544 99.8307 10.5478 99.5557 10.7537 100.077Z" fill="#2E2E2E"/>
<path d="M21.1513 99.8267C20.8712 100.992 21.003 101.6 21.8887 101.842C22.4243 103.754 22.1277 104.813 21.2131 105.232C20.072 103.615 19.2069 101.879 18.9268 99.8924C19.7754 99.5845 20.9495 99.3096 21.1513 99.8267Z" fill="#2E2E2E"/>
<path d="M8.62824 76.4492C8.04326 80.418 9.93414 86.3075 13.0732 90.4363C15.2978 90.6825 17.7119 90.4691 19.578 89.3035L17.2175 83.9681L18.3298 83.6356L22.9561 88.3595C25.0406 88.6633 26.433 87.6126 28.0643 86.5455C26.2517 82.5603 22.1239 80.7011 21.0611 75.1359L8.62824 76.4492Z" fill="#2E2E2E"/>
<path d="M22.3958 76.6708C18.3463 77.9513 13.4687 78.0826 8.08447 77.5121L8.9537 66.5745C8.9537 66.5745 7.88262 58.953 12.7643 58.1075C15.6397 57.3277 15.6397 57.3359 15.6397 57.3359C15.6397 57.3359 19.3185 56.7655 22.3917 58.1198C25.469 59.4742 28.0067 67.6005 28.0067 67.6005L24.3279 69.0657L23.3927 66.0409L22.3958 76.6708Z" fill="url(#paint4_linear_147_1312)"/>
<path fill-rule="evenodd" clip-rule="evenodd" d="M23.9284 50.2028C23.9284 50.2028 23.5329 49.0906 24.5422 48.8936C25.5474 48.6966 24.5875 51.6434 24.5875 51.6434L23.9284 50.2028Z" fill="url(#paint5_linear_147_1312)"/>
<path fill-rule="evenodd" clip-rule="evenodd" d="M15.8786 53.2153L15.479 57.5658C15.479 57.5658 17.786 58.9078 19.7675 57.734L19.4132 53.9336L15.8786 53.2153Z" fill="#FFD3B2"/>
<path fill-rule="evenodd" clip-rule="evenodd" d="M24.394 50.1208C24.394 50.1208 25.4033 48.397 24.118 47.49C24.118 47.49 24.8101 45.9715 23.5042 44.8756C23.5042 44.8756 21.4238 40.0286 17.0612 43.4269C17.0612 43.4269 13.3041 42.3146 12.093 46.9688C12.093 46.9688 10.8448 47.6665 11.4174 49.4067C11.4174 49.4067 11.2773 55.8585 16.9499 53.6832L24.394 50.1208Z" fill="#2E2E2E"/>
<path fill-rule="evenodd" clip-rule="evenodd" d="M22.5277 46.5171C22.5277 46.5171 27.3352 53.7364 22.367 55.9486C17.679 58.0376 15.7016 53.2398 15.7016 53.2398C15.7016 53.2398 13.6377 51.1097 14.3339 49.4722C15.0301 47.8346 21.3536 45.6183 22.5277 46.5171Z" fill="#FFD3B2"/>
<path fill-rule="evenodd" clip-rule="evenodd" d="M15.2321 52.1031C15.2321 52.1031 19.9407 50.6174 19.537 47.8512C19.537 47.8512 20.3527 47.9332 20.604 46.977C20.604 46.977 22.915 49.0455 23.5206 47.6008C23.5206 47.6008 23.1169 44.0179 20.295 45.1793C17.4731 46.3408 14.8943 47.5228 14.1404 48.3478C13.3865 49.1727 12.7562 51.1715 15.2321 52.1031Z" fill="#2E2E2E"/>
<path fill-rule="evenodd" clip-rule="evenodd" d="M16.319 53.8843L15.4827 51.5942C15.4827 51.5942 13.8678 50.8554 14.0779 52.099C14.2922 53.3466 15.7464 54.0361 16.319 53.8843Z" fill="#2E2E2E"/>
<path d="M72.3948 111.084H74.8336C75.5998 111.084 76.226 110.526 76.2425 109.828L77.2765 68.4623C77.293 67.74 76.6586 67.1449 75.8676 67.1449H71.7645C70.9777 67.1449 70.3433 67.7318 70.3556 68.45L70.9859 109.816C70.9983 110.518 71.6245 111.084 72.3948 111.084Z" fill="url(#paint6_linear_147_1312)"/>
<path d="M19.3595 111.146H22.0867C22.7747 111.146 23.3349 110.645 23.3473 110.017L24.3854 68.3843C24.4019 67.7359 23.8334 67.2064 23.1248 67.2064H18.7251C18.0207 67.2064 17.4522 67.7318 17.4646 68.3761L18.099 110.009C18.1072 110.641 18.6675 111.146 19.3595 111.146Z" fill="url(#paint7_linear_147_1312)"/>
<path d="M18.0535 74.6556H76.5471C77.6223 74.6556 78.4957 73.7855 78.4957 72.7143V69.0903C78.4957 68.0191 77.6223 67.149 76.5471 67.149H18.0535C16.9783 67.149 16.105 68.0191 16.105 69.0903V72.7143C16.105 73.7855 16.9783 74.6556 18.0535 74.6556Z" fill="url(#paint8_linear_147_1312)"/>
<path d="M20.0681 66.993L19.8745 63.1228L26.1321 62.2691C26.1321 62.2691 28.1425 53.5928 30.2764 52.7556C32.4103 51.9224 32.1137 52.5914 32.0396 52.7761C31.9654 52.9608 30.7172 53.4328 30.7172 53.4328C30.7172 53.4328 32.1261 53.1414 32.0148 53.5559C31.9077 53.9704 30.4659 54.5163 30.4659 54.5163C30.4659 54.5163 32.1755 54.2782 31.8253 54.6887C31.4752 55.1032 30.5689 55.1853 30.5689 55.1853C30.5689 55.1853 31.7141 54.9062 31.5741 55.3494C31.434 55.7927 30.4041 56.1456 30.4041 56.1456C30.4041 56.1456 30.4577 57.34 30.2228 57.9186C29.9921 58.4973 29.1064 64.9122 28.0766 65.7248C27.0384 66.5415 20.0681 66.993 20.0681 66.993Z" fill="#FFD3B2"/>
<path d="M20.3275 67.5266C19.9897 65.8193 19.7672 64.2186 20.0515 63.0982C17.0154 62.4826 14.0822 61.8423 12.3726 60.8614C9.13054 58.3784 8.96164 62.3102 8.95752 66.5744C12.5374 67.4404 16.348 67.699 20.3275 67.5266Z" fill="url(#paint9_linear_147_1312)"/>
<path d="M32.8757 66.9932H44.3939C44.6494 66.9932 44.8595 66.7839 44.8595 66.5294V55.0541C44.8595 54.7996 44.6494 54.5903 44.3939 54.5903H32.8757C32.6203 54.5903 32.4102 54.7996 32.4102 55.0541V66.5294C32.4102 66.788 32.6203 66.9932 32.8757 66.9932Z" fill="url(#paint10_linear_147_1312)"/>
<path d="M45.1975 66.9932H56.7899C57.0247 66.9932 57.2183 66.8044 57.2183 66.5663V55.0172C57.2183 54.7832 57.0288 54.5903 56.7899 54.5903H45.1975C44.9627 54.5903 44.769 54.7791 44.769 55.0172V66.5663C44.769 66.8044 44.9585 66.9932 45.1975 66.9932Z" fill="url(#paint11_linear_147_1312)"/>
<path d="M57.6222 66.9932H69.2558C69.4824 66.9932 69.6637 66.8126 69.6637 66.5869V54.9966C69.6637 54.7709 69.4824 54.5903 69.2558 54.5903H57.6222C57.3956 54.5903 57.2144 54.7709 57.2144 54.9966V66.5869C57.2144 66.8126 57.3997 66.9932 57.6222 66.9932Z" fill="url(#paint12_linear_147_1312)"/>
<path d="M45.7864 54.7872H57.4695C57.6796 54.7872 57.8526 54.619 57.8526 54.4056V42.7661C57.8526 42.5568 57.6837 42.3844 57.4695 42.3844H45.7864C45.5763 42.3844 45.4033 42.5527 45.4033 42.7661V54.4056C45.4033 54.6149 45.5722 54.7872 45.7864 54.7872Z" fill="url(#paint13_linear_147_1312)"/>
<path d="M33.4817 54.5943H44.8805C45.1689 54.5943 45.4037 54.3604 45.4037 54.0731V42.7168C45.4037 42.4295 45.1689 42.1956 44.8805 42.1956H33.4817C33.1933 42.1956 32.9585 42.4295 32.9585 42.7168V54.0731C32.9585 54.3604 33.1892 54.5943 33.4817 54.5943Z" fill="url(#paint14_linear_147_1312)"/>
<g opacity="0.3">
<path d="M31.0752 9.83013C30.9063 9.98609 30.6467 9.97788 30.4861 9.81371C30.1812 9.48948 29.8558 9.17756 29.5221 8.87796C29.3532 8.7261 29.3367 8.47164 29.485 8.29927L29.4891 8.29516C29.6416 8.12279 29.9052 8.11047 30.0741 8.26233C30.4243 8.57425 30.7662 8.90669 31.0916 9.24733C31.2399 9.40329 31.2399 9.64134 31.104 9.8014C31.0958 9.80961 31.0875 9.82192 31.0752 9.83013ZM27.796 7.53999C27.4252 7.28964 27.038 7.0557 26.6466 6.83818C26.4448 6.72737 26.3747 6.47701 26.486 6.27591C26.5972 6.0748 26.8526 6.00503 27.0504 6.11584C27.4623 6.34157 27.866 6.59193 28.2574 6.85459C28.4469 6.98182 28.4963 7.24039 28.3686 7.42918C28.3604 7.44149 28.348 7.45791 28.3398 7.47022C28.208 7.62618 27.9731 7.65902 27.796 7.53999ZM24.6692 5.91884C24.2532 5.75878 23.8247 5.61513 23.3922 5.492C23.1697 5.43044 23.0461 5.20061 23.1079 4.97898C23.1739 4.76146 23.4004 4.63423 23.6229 4.69579C24.076 4.82713 24.5251 4.97898 24.9659 5.14725C25.1801 5.22934 25.2872 5.46738 25.2048 5.6808C25.1883 5.72594 25.1636 5.76699 25.1306 5.80392C25.0194 5.93115 24.8381 5.9804 24.6692 5.91884ZM21.2541 5.03234C20.8092 4.97077 20.3602 4.92563 19.9153 4.901C19.6846 4.88869 19.5116 4.69169 19.5239 4.46596C19.5363 4.23612 19.734 4.06375 19.9606 4.07606C20.4302 4.10068 20.904 4.14994 21.3695 4.2156C21.5961 4.24844 21.7526 4.45775 21.7238 4.68348C21.7114 4.76557 21.6785 4.83534 21.629 4.89279C21.5384 4.9954 21.3983 5.05286 21.2541 5.03234ZM17.7278 4.92563C17.2829 4.96256 16.8339 5.01592 16.3931 5.08979C16.1665 5.12673 15.9523 4.97488 15.9152 4.74915C15.8781 4.52342 16.0305 4.31 16.2571 4.27306C16.7226 4.19508 17.1964 4.13762 17.6619 4.10069C17.8926 4.08017 18.0903 4.25254 18.1109 4.47827C18.1192 4.59319 18.0821 4.6999 18.012 4.78198C17.9379 4.85996 17.839 4.91331 17.7278 4.92563ZM14.2632 5.59871C13.8348 5.73415 13.4105 5.88601 12.9985 6.05428C12.7843 6.14047 12.5413 6.04197 12.4548 5.82855C12.3683 5.61513 12.4671 5.37709 12.6813 5.28679C13.118 5.11031 13.567 4.94615 14.012 4.80661C14.2303 4.73684 14.4651 4.85996 14.5351 5.07748C14.5805 5.22113 14.5434 5.36888 14.4527 5.47148C14.4033 5.52894 14.3415 5.57409 14.2632 5.59871ZM3.3423 16.4666C3.12397 16.4009 2.99626 16.1711 3.05805 15.9536C3.18988 15.5021 3.3423 15.0548 3.5112 14.6156C3.59359 14.4022 3.83665 14.2955 4.05087 14.3776C4.26508 14.4597 4.37219 14.7018 4.2898 14.9152C4.12914 15.3297 3.98083 15.7566 3.85725 16.1875C3.84077 16.245 3.81193 16.2983 3.77486 16.3435C3.67187 16.4584 3.50708 16.5117 3.3423 16.4666ZM11.0376 7.01876C10.6504 7.24449 10.2714 7.48664 9.90476 7.7452C9.71526 7.87654 9.45573 7.83139 9.3239 7.6467C9.19207 7.45791 9.23739 7.20345 9.42277 7.06801C9.80589 6.79714 10.2096 6.54268 10.6133 6.30463C10.8111 6.18972 11.0665 6.25538 11.1818 6.45238C11.2724 6.60834 11.2519 6.80124 11.1365 6.93257C11.1159 6.96541 11.0788 6.99414 11.0376 7.01876ZM4.65644 13.1012C4.45458 12.9904 4.38455 12.7359 4.49578 12.5389C4.72647 12.1285 4.97365 11.7263 5.2373 11.3364C5.365 11.1476 5.62454 11.0983 5.81404 11.2256C6.00354 11.3528 6.05297 11.6113 5.92526 11.8001C5.67397 12.1695 5.43504 12.5553 5.22082 12.9411C5.20846 12.9657 5.19198 12.9904 5.17139 13.0109C5.0478 13.1586 4.82946 13.1997 4.65644 13.1012ZM8.21574 9.12011C7.89029 9.42381 7.57309 9.74805 7.27648 10.0805C7.12406 10.2529 6.8604 10.2652 6.6915 10.1133C6.5226 9.96146 6.50612 9.707 6.65443 9.53463C6.65443 9.53052 6.65855 9.53053 6.65855 9.52642C6.97163 9.17757 7.30532 8.83692 7.64724 8.51679C7.81614 8.36083 8.07567 8.36904 8.23634 8.53321C8.38464 8.68917 8.38464 8.92721 8.24869 9.08727C8.23633 9.09958 8.22398 9.1119 8.21574 9.12011Z" fill="url(#paint15_linear_147_1312)"/>
<path d="M3.21524 19.1917C3.26879 19.1302 3.30587 19.0522 3.31411 18.966C3.33471 18.7526 3.36354 18.5392 3.39238 18.3258C3.42534 18.1 3.26879 17.8907 3.04222 17.8579C2.81564 17.825 2.60554 17.981 2.57259 18.2108C2.53963 18.4325 2.51079 18.6623 2.4902 18.8839C2.46548 19.1097 2.63438 19.3149 2.86096 19.3395C3.00102 19.3477 3.13285 19.2902 3.21524 19.1917Z" fill="url(#paint16_linear_147_1312)"/>
</g>
<g opacity="0.3">
<path d="M6.94766 31.2581C7.07949 31.1063 7.08361 30.8805 6.94766 30.7205C6.8076 30.5563 6.67165 30.388 6.53983 30.2198C6.39976 30.0392 6.13611 30.0063 5.95485 30.1459C5.77359 30.2854 5.74063 30.5481 5.8807 30.7287C6.02076 30.9052 6.16495 31.0857 6.30913 31.2581C6.45744 31.4346 6.72109 31.4551 6.89411 31.3074C6.91883 31.2909 6.93531 31.2745 6.94766 31.2581Z" fill="url(#paint17_linear_147_1312)"/>
<path d="M31.0345 31.9845C30.8779 32.1487 30.6143 32.1569 30.4454 32.001C30.2806 31.845 30.2724 31.5823 30.4289 31.4141C30.7296 31.098 31.0221 30.7656 31.2981 30.4208C31.4423 30.2444 31.7019 30.2156 31.8831 30.3552C32.0603 30.4988 32.0891 30.7574 31.949 30.938C31.8296 31.0857 31.706 31.2335 31.5824 31.3812C31.4052 31.5864 31.2199 31.7875 31.0345 31.9845ZM32.6782 29.2265C32.4804 29.1075 32.4187 28.853 32.534 28.6601C32.7606 28.2826 32.9748 27.8927 33.1684 27.5028C33.2673 27.2976 33.5186 27.2114 33.7246 27.314C33.9305 27.4166 34.017 27.6628 33.914 27.868C33.7081 28.2826 33.4856 28.693 33.2467 29.087C33.2343 29.1075 33.222 29.128 33.2055 29.1444C33.0778 29.2922 32.8512 29.3332 32.6782 29.2265ZM29.3661 33.5113C29.0035 33.7986 28.6245 34.0736 28.2414 34.3321C28.0519 34.4594 27.7924 34.4101 27.6647 34.2172C27.537 34.0284 27.5864 33.7699 27.78 33.6426C28.1467 33.4005 28.5051 33.1378 28.847 32.8628C29.0283 32.7192 29.2878 32.7479 29.432 32.9285C29.5597 33.0845 29.5514 33.3102 29.4237 33.4579C29.4073 33.4785 29.3867 33.4949 29.3661 33.5113ZM34.2477 26.0376C34.0294 25.9678 33.9099 25.7298 33.9841 25.5163C34.1242 25.1018 34.2436 24.675 34.3466 24.2481C34.4002 24.0265 34.6226 23.887 34.8492 23.9403C35.0716 23.9937 35.2117 24.2153 35.1582 24.441C35.0511 24.8884 34.9233 25.3399 34.775 25.779C34.7586 25.8324 34.7297 25.8775 34.6968 25.9186C34.5855 26.0376 34.4125 26.0909 34.2477 26.0376ZM26.2805 35.4567C25.8644 35.6578 25.436 35.8466 25.0035 36.0107C24.7892 36.0928 24.5503 35.9861 24.4679 35.7727C24.3855 35.5593 24.4926 35.3212 24.7068 35.2392C25.1188 35.0791 25.5266 34.9026 25.9221 34.7138C26.1281 34.6153 26.3794 34.6974 26.4783 34.9067C26.5524 35.0586 26.5236 35.2351 26.4206 35.3582C26.3794 35.3951 26.3341 35.4279 26.2805 35.4567ZM22.8407 36.6797C22.3917 36.7864 21.9303 36.8767 21.473 36.9424C21.2464 36.9752 21.0363 36.8193 20.9992 36.5935C20.9663 36.3678 21.1228 36.1544 21.3494 36.1216C21.7861 36.0559 22.2227 35.9738 22.6512 35.8712C22.8736 35.8179 23.1002 35.9574 23.1497 36.179C23.1826 36.3145 23.1455 36.4458 23.059 36.5443C23.0055 36.61 22.9272 36.6551 22.8407 36.6797ZM19.2114 37.123C18.7458 37.1271 18.2803 37.1148 17.8189 37.0819C17.5882 37.0655 17.4193 36.8685 17.4317 36.6387C17.4482 36.4089 17.6459 36.2406 17.8766 36.2529C18.3133 36.2857 18.7623 36.298 19.2031 36.2898C19.4338 36.2857 19.6192 36.4704 19.6233 36.7002C19.6233 36.807 19.5862 36.9014 19.5244 36.9752C19.4462 37.0655 19.3349 37.123 19.2114 37.123ZM15.5738 36.7741C15.1206 36.6797 14.6634 36.5648 14.2226 36.4294C14.0042 36.3637 13.8765 36.1339 13.9424 35.9122C14.0084 35.6947 14.239 35.5675 14.4615 35.6332C14.8817 35.7604 15.3143 35.8671 15.7468 35.9574C15.9734 36.0025 16.1134 36.2242 16.0681 36.4458C16.0517 36.5156 16.0228 36.5771 15.9775 36.6305C15.8786 36.7454 15.7303 36.8029 15.5738 36.7741ZM12.101 35.6332C11.6808 35.4403 11.2647 35.2309 10.861 35.0011C10.6592 34.8903 10.5891 34.6358 10.7045 34.4388C10.8157 34.2418 11.0711 34.168 11.2688 34.2829C11.652 34.5004 12.0474 34.7015 12.447 34.8821C12.6571 34.9765 12.7478 35.2227 12.653 35.4321C12.6365 35.469 12.6159 35.5018 12.5912 35.5306C12.4718 35.6619 12.274 35.7111 12.101 35.6332ZM8.96601 33.7617C8.69412 33.5564 8.42635 33.3389 8.16682 33.1214C8.07207 33.0434 7.98144 32.9613 7.89081 32.8793C7.72191 32.7274 7.70131 32.4647 7.85785 32.2965C8.01028 32.1282 8.27393 32.1118 8.44283 32.2636C8.52934 32.3416 8.61585 32.4196 8.70648 32.4935C8.95366 32.7028 9.20495 32.908 9.46448 33.105C9.64574 33.2445 9.68282 33.5031 9.54275 33.6837C9.53863 33.6919 9.53039 33.696 9.52627 33.7042C9.39033 33.8643 9.14315 33.893 8.96601 33.7617Z" fill="url(#paint18_linear_147_1312)"/>
<path d="M35.4304 22.43C35.4839 22.3684 35.521 22.2904 35.5293 22.2001C35.5499 21.9785 35.5705 21.7487 35.5828 21.5229C35.5952 21.2931 35.4222 21.1002 35.1915 21.0879C34.9608 21.0756 34.7671 21.248 34.7548 21.4778C34.7424 21.6912 34.7259 21.9087 34.7054 22.1222C34.6848 22.3479 34.8495 22.5531 35.0802 22.5736C35.2162 22.5859 35.3439 22.5285 35.4304 22.43Z" fill="url(#paint19_linear_147_1312)"/>
</g>
<path d="M30.9107 16.9427C30.8942 16.8606 30.8324 16.799 30.75 16.7867L28.4142 16.4214C27.9776 15.4118 27.3761 14.4637 26.6181 13.6183L27.2649 11.3528C27.2855 11.2748 27.2566 11.1886 27.1907 11.1393L24.8632 9.5223C24.7931 9.47305 24.7066 9.47715 24.6366 9.5264L22.7251 10.9136C21.6705 10.495 20.5665 10.261 19.4665 10.1995L18.3172 8.14329C18.276 8.06941 18.1936 8.03248 18.1153 8.04889L15.3182 8.5455C15.2358 8.56192 15.174 8.62348 15.1616 8.70556L14.795 11.0326C13.7816 11.4677 12.8299 12.0669 11.9813 12.8221L9.70732 12.1777C9.62904 12.1531 9.54253 12.1859 9.4931 12.2516L7.86999 14.5704C7.82056 14.6402 7.82468 14.7264 7.87411 14.7962L9.26652 16.7005C8.84633 17.7512 8.61151 18.8511 8.54972 19.9469L6.48582 21.092C6.41167 21.133 6.37459 21.2151 6.39107 21.2931L6.88954 24.0757C6.90602 24.1578 6.96781 24.2194 7.0502 24.2317L9.38599 24.597C9.82266 25.6066 10.4241 26.5547 11.1821 27.4001L10.5353 29.6656C10.5106 29.7436 10.5436 29.8298 10.6095 29.8791L12.937 31.4961C13.0071 31.5454 13.0936 31.5413 13.1636 31.492L15.0751 30.1048C16.1297 30.5234 17.2337 30.7574 18.3337 30.8189L19.483 32.8751C19.5242 32.949 19.6066 32.9859 19.6849 32.9695L22.4779 32.4729C22.5603 32.4565 22.6221 32.3949 22.6345 32.3128L23.0011 29.9858C24.0145 29.5507 24.9662 28.9515 25.8148 28.1963L28.0888 28.8407C28.167 28.8612 28.2536 28.8325 28.303 28.7668L29.9261 26.448C29.9755 26.3782 29.9714 26.292 29.922 26.2222L28.5296 24.3179C28.9498 23.2672 29.1846 22.1673 29.2464 21.0715L31.3103 19.9264C31.3844 19.8854 31.4215 19.8033 31.405 19.7253L30.9107 16.9427Z" fill="url(#paint20_linear_147_1312)"/>
<path opacity="0.56" d="M20.7683 22.6557C19.5819 23.6817 17.7775 23.5545 16.7476 22.3725C16.2491 21.7979 16.002 21.0673 16.0555 20.3122C16.1091 19.557 16.4551 18.8634 17.0319 18.3668C18.2183 17.3407 20.0227 17.468 21.0526 18.65C21.9877 19.7253 21.9671 21.3095 21.0608 22.3602C20.9743 22.4628 20.8754 22.5613 20.7683 22.6557ZM16.7188 20.3573C16.6776 20.936 16.8671 21.4983 17.2461 21.9374C18.037 22.8445 19.4171 22.943 20.3275 22.1549C21.2379 21.3669 21.3368 19.992 20.5458 19.0809C19.7549 18.1739 18.3748 18.0754 17.4644 18.8634C17.382 18.9332 17.3038 19.0111 17.2337 19.0932C16.933 19.4462 16.7517 19.8853 16.7188 20.3573Z" fill="white"/>
<path opacity="0.56" d="M24.1468 25.0771C24.3034 24.8965 24.4517 24.7077 24.5876 24.5107C24.6329 24.4492 24.6741 24.3876 24.7153 24.3219C24.9213 24.01 25.0985 23.6776 25.2509 23.341C25.255 23.3369 25.255 23.3328 25.2591 23.3287C25.2632 23.3164 25.2715 23.3041 25.2756 23.2877C25.288 23.263 25.2962 23.2343 25.3085 23.2097C25.3374 23.1399 25.3168 23.066 25.2632 23.0209C25.2509 23.0086 25.2344 23.0004 25.2179 22.9922C25.1314 22.9552 25.0367 22.9963 24.9996 23.0825C24.8183 23.5175 24.5876 23.9361 24.3116 24.3219C22.9563 26.255 20.7523 27.2523 18.5484 27.162C17.3207 27.1128 16.0972 26.7229 15.0179 25.9759C14.8284 25.8446 14.6471 25.705 14.4741 25.5573C13.3124 24.5641 12.5338 23.2097 12.2619 21.687C11.9488 19.9387 12.3402 18.1697 13.3577 16.7128C15.4669 13.7044 19.6359 12.9656 22.6556 15.0629C22.8409 15.1942 23.0222 15.3297 23.1911 15.4774C23.9326 16.1136 24.5258 16.9016 24.9254 17.7922C24.9378 17.8168 24.9501 17.8332 24.9707 17.8496C25.0161 17.8907 25.0861 17.903 25.1479 17.8742C25.2303 17.8373 25.2674 17.7388 25.2303 17.6567C24.8101 16.7251 24.188 15.896 23.4094 15.227C23.2282 15.0752 23.0428 14.9274 22.8451 14.792C19.673 12.5881 15.2939 13.3679 13.0858 16.524C12.0147 18.0548 11.6069 19.9099 11.9323 21.7445C12.2166 23.3451 13.0323 24.7611 14.2517 25.8076C14.4329 25.9636 14.6224 26.1114 14.8202 26.2468C16.3568 27.3139 18.2188 27.7202 20.0602 27.396C21.6751 27.1046 23.1005 26.2919 24.1468 25.0771Z" fill="white"/>
<g opacity="0.3">
<path d="M48.6617 6.19378C48.7359 6.1117 48.7441 5.98447 48.6823 5.88597C48.5629 5.70538 48.4393 5.52069 48.3075 5.34832C48.2251 5.2334 48.0644 5.20877 47.9491 5.29496C47.8337 5.37705 47.809 5.53711 47.8955 5.65203C48.0191 5.8203 48.1385 5.99267 48.2539 6.16505C48.3322 6.28407 48.4887 6.3169 48.6082 6.23892C48.6247 6.23072 48.6453 6.2143 48.6617 6.19378Z" fill="url(#paint21_linear_147_1312)"/>
<path d="M47.4181 4.66706C47.3151 4.76556 47.1544 4.76146 47.0556 4.65885C46.8084 4.40029 46.5447 4.14993 46.277 3.9201C46.2193 3.87085 46.1616 3.8216 46.104 3.77645C45.9927 3.68616 45.9804 3.5261 46.071 3.41528C46.1616 3.31678 46.3223 3.29216 46.4335 3.38245C46.4953 3.4317 46.5571 3.48506 46.6148 3.53431C46.899 3.77645 47.175 4.03912 47.4346 4.31C47.5252 4.40439 47.5293 4.55625 47.4428 4.65064C47.4304 4.65475 47.4263 4.66296 47.4181 4.66706ZM45.0493 3.00897C44.6827 2.77503 44.2996 2.56572 43.9082 2.38103C43.7805 2.31947 43.727 2.16761 43.7888 2.04038C43.8506 1.91315 44.003 1.8598 44.1307 1.92136C44.5385 2.11426 44.9422 2.33588 45.3254 2.58214C45.4448 2.65601 45.4819 2.81607 45.4036 2.93509C45.3954 2.94741 45.3913 2.95562 45.383 2.96382C45.2965 3.05412 45.1565 3.07874 45.0493 3.00897ZM42.6971 1.89674C42.2851 1.7613 41.8608 1.65048 41.4365 1.5643C41.2964 1.53557 41.2058 1.40423 41.2346 1.26469C41.2635 1.12515 41.3953 1.03486 41.5354 1.06359C41.9803 1.14977 42.4252 1.2688 42.8577 1.40834C42.9937 1.45348 43.0637 1.59713 43.0225 1.73257C43.0102 1.7654 42.9937 1.79413 42.9731 1.81876C42.9072 1.89674 42.8001 1.92957 42.6971 1.89674ZM40.143 1.39192C39.7104 1.35909 39.2696 1.35498 38.8412 1.37961C38.7011 1.38782 38.5775 1.277 38.5734 1.13746C38.5652 0.997919 38.6764 0.874793 38.8165 0.870689C39.2696 0.846064 39.731 0.850168 40.1841 0.883001C40.3242 0.891209 40.4313 1.01434 40.4231 1.15798C40.419 1.21544 40.3984 1.26469 40.3613 1.30573C40.3077 1.36319 40.2295 1.40013 40.143 1.39192ZM37.5435 1.52736C37.1151 1.60123 36.6908 1.70384 36.2747 1.83107C36.1387 1.87211 35.9946 1.79823 35.9534 1.6628C35.9122 1.52736 35.9863 1.38371 36.1223 1.34267C36.5548 1.21134 37.0038 1.10463 37.4488 1.02665C37.5888 1.00202 37.7207 1.09642 37.7454 1.23596C37.7577 1.31394 37.7371 1.39192 37.6877 1.44528C37.6589 1.48221 37.6053 1.51505 37.5435 1.52736ZM35.0553 2.28253C34.6598 2.45901 34.2726 2.66011 33.9018 2.88174C33.7824 2.95562 33.6217 2.91457 33.5475 2.79555C33.4734 2.67653 33.5146 2.51647 33.6341 2.44259C34.0213 2.20865 34.4291 1.99524 34.8452 1.81055C34.9729 1.75309 35.1253 1.81055 35.183 1.94188C35.2242 2.03628 35.2077 2.13888 35.1418 2.21276C35.1253 2.24559 35.0924 2.26611 35.0553 2.28253ZM32.8307 3.6246C32.4929 3.89137 32.1634 4.18277 31.8585 4.49058C31.7596 4.58908 31.5949 4.59319 31.496 4.49058C31.3971 4.39208 31.3971 4.23202 31.4919 4.12941C31.8132 3.80518 32.1551 3.50147 32.5094 3.22239C32.6206 3.1362 32.7813 3.15262 32.8719 3.26343C32.9502 3.36193 32.942 3.49737 32.8637 3.58766C32.8555 3.59997 32.8431 3.61229 32.8307 3.6246ZM29.9182 6.63297C29.7946 6.55909 29.7575 6.40313 29.8276 6.28411C30.0253 5.94757 30.2478 5.61513 30.4867 5.29911C30.5238 5.24986 30.5567 5.20471 30.5938 5.15546C30.6762 5.04054 30.841 5.02412 30.9522 5.11031C31.0634 5.1965 31.084 5.35656 30.9975 5.46738C30.9646 5.51252 30.9275 5.55767 30.8945 5.60281C30.668 5.90652 30.4579 6.22255 30.2643 6.54267C30.256 6.55499 30.2478 6.5673 30.2395 6.57961C30.1654 6.6699 30.0294 6.69453 29.9182 6.63297Z" fill="url(#paint22_linear_147_1312)"/>
</g>
<g opacity="0.3">
<path d="M47.6818 19.2204C47.3852 19.5529 47.068 19.873 46.7343 20.1685C46.6272 20.2629 46.4665 20.2547 46.3717 20.148C46.277 20.0413 46.2894 19.8812 46.3923 19.7868C46.7095 19.5036 47.0144 19.1999 47.2986 18.8839C47.3934 18.7772 47.5541 18.769 47.6612 18.8593C47.7683 18.9495 47.7765 19.1096 47.6818 19.2204C47.6859 19.2163 47.6859 19.2163 47.6818 19.2204ZM48.1555 18.2272C48.0402 18.1451 48.0072 17.9892 48.0896 17.8701C48.3327 17.5213 48.5551 17.1519 48.7529 16.7743C48.8188 16.6512 48.9753 16.602 49.0989 16.6676C49.2225 16.7333 49.2719 16.8892 49.206 17.0124C49 17.4064 48.7652 17.7922 48.5098 18.1574C48.5057 18.1656 48.4974 18.1739 48.4933 18.178C48.4109 18.2806 48.2626 18.3011 48.1555 18.2272ZM45.6755 20.9934C45.3089 21.2479 44.9217 21.4777 44.5262 21.687C44.4026 21.7527 44.2461 21.7035 44.1801 21.5803C44.1142 21.4572 44.1637 21.3012 44.2873 21.2356C44.6621 21.0386 45.0329 20.8169 45.3872 20.5748C45.5025 20.4927 45.6632 20.5256 45.7456 20.6405C45.8115 20.739 45.8032 20.8662 45.7291 20.9524C45.7126 20.9688 45.6961 20.9811 45.6755 20.9934ZM49.4243 15.9412C49.2925 15.8919 49.2266 15.7442 49.276 15.6128C49.4243 15.2147 49.552 14.8043 49.655 14.3939C49.688 14.2585 49.8281 14.1723 49.964 14.2051C50.0999 14.2379 50.1865 14.3775 50.1535 14.5129C50.0464 14.9439 49.9146 15.3748 49.758 15.7934C49.7457 15.8222 49.7333 15.8468 49.7127 15.8714C49.6427 15.9494 49.5273 15.9822 49.4243 15.9412ZM43.2986 22.2329C42.8825 22.3889 42.4499 22.5243 42.0133 22.631C41.8773 22.6638 41.7372 22.5817 41.7043 22.4422C41.6713 22.3068 41.7537 22.1672 41.8938 22.1344C42.3099 22.0318 42.7218 21.9046 43.1173 21.7568C43.2491 21.7076 43.3974 21.7732 43.4469 21.9046C43.4798 21.9949 43.4592 22.0934 43.4015 22.1631C43.3768 22.1919 43.3439 22.2206 43.2986 22.2329ZM40.695 22.869C40.2501 22.9224 39.8011 22.947 39.352 22.947C39.212 22.947 39.0966 22.8321 39.0966 22.6926C39.0966 22.553 39.212 22.4381 39.352 22.4381C39.7763 22.4381 40.2089 22.4135 40.6332 22.3642C40.7733 22.3478 40.901 22.4463 40.9175 22.5859C40.9257 22.6597 40.901 22.7295 40.8557 22.7829C40.8186 22.828 40.7609 22.8608 40.695 22.869ZM38.009 22.8649C37.5641 22.8116 37.1192 22.7295 36.6867 22.6187C36.5507 22.5859 36.4642 22.4463 36.5013 22.3068C36.5342 22.1713 36.6743 22.0851 36.8144 22.1221C37.2263 22.2247 37.6506 22.3027 38.075 22.356C38.215 22.3724 38.3139 22.4997 38.2974 22.6392C38.2892 22.6926 38.2686 22.7377 38.2356 22.7746C38.1821 22.8403 38.0997 22.8773 38.009 22.8649Z" fill="url(#paint23_linear_147_1312)"/>
<path d="M50.3306 13.3186C50.3636 13.2817 50.3842 13.2324 50.3924 13.1832C50.4172 12.9656 50.4378 12.7481 50.4501 12.5306C50.4584 12.3911 50.3512 12.2679 50.2071 12.2597C50.067 12.2515 49.9434 12.3582 49.9352 12.5019C49.9228 12.7071 49.9063 12.9164 49.8816 13.1216C49.8651 13.2611 49.9681 13.3884 50.1082 13.4048C50.1947 13.4171 50.2771 13.3802 50.3306 13.3186Z" fill="url(#paint24_linear_147_1312)"/>
</g>
<path d="M47.344 9.46483C47.3358 9.41148 47.2904 9.36633 47.2369 9.35812L45.6756 9.11187C45.3831 8.43468 44.9794 7.80264 44.4727 7.23626L44.9052 5.72182C44.9217 5.66846 44.9011 5.611 44.8558 5.57817L43.2986 4.49466C43.2533 4.46183 43.1915 4.46183 43.1462 4.49466L41.8691 5.42221C41.1647 5.14313 40.4273 4.98306 39.6899 4.94612L38.9154 3.57943C38.8865 3.53018 38.833 3.50555 38.7794 3.51376L36.9092 3.8462C36.8556 3.85441 36.8103 3.89956 36.802 3.95291L36.5549 5.5084C35.8751 5.79979 35.2407 6.20201 34.6722 6.70682L33.1521 6.27588C33.0986 6.25946 33.0409 6.27999 33.0079 6.32513L31.9204 7.87651C31.8874 7.92166 31.8874 7.98322 31.9204 8.02837L32.8514 9.30067C32.5713 10.0025 32.4106 10.7371 32.3735 11.4718L30.9893 12.2393C30.9399 12.268 30.9152 12.3213 30.9234 12.3747L31.2571 14.238C31.2654 14.2914 31.3107 14.3365 31.3642 14.3447L32.9255 14.591C33.218 15.2682 33.6217 15.9002 34.1285 16.4666L33.6959 17.981C33.6794 18.0344 33.7 18.0918 33.7453 18.1247L35.3025 19.2082C35.3478 19.241 35.4096 19.241 35.4549 19.2082L36.732 18.2806C37.4365 18.5597 38.1739 18.7198 38.9113 18.7567L39.6816 20.1316C39.7105 20.1809 39.764 20.2055 39.8176 20.1973L41.6878 19.8648C41.7414 19.8566 41.7867 19.8115 41.7949 19.7581L42.0421 18.2026C42.7218 17.9112 43.3563 17.509 43.9248 17.0042L45.4449 17.4352C45.4984 17.4516 45.5561 17.4311 45.5891 17.3859L46.6766 15.8345C46.7096 15.7894 46.7096 15.7278 46.6766 15.6827L45.7456 14.4104C46.0257 13.7086 46.1864 12.9739 46.2235 12.2393L47.6035 11.4718C47.653 11.443 47.6777 11.3897 47.6694 11.3363L47.344 9.46483Z" fill="url(#paint25_linear_147_1312)"/>
<path opacity="0.56" d="M40.5797 13.3145C40.1883 13.6552 39.6857 13.8194 39.1708 13.7824C38.6517 13.7455 38.1821 13.5115 37.8402 13.1216C37.1398 12.3172 37.2264 11.0942 38.0338 10.3924C38.8412 9.69465 40.073 9.78084 40.7733 10.5853C41.1152 10.9752 41.28 11.4759 41.2429 11.9889C41.2141 12.4075 41.0534 12.7974 40.7815 13.1093C40.7197 13.1832 40.6538 13.2489 40.5797 13.3145ZM38.2274 12.7851C38.4787 13.0724 38.8247 13.2448 39.2037 13.2735C39.5827 13.3022 39.9535 13.1791 40.2419 12.9287C40.5302 12.6784 40.7033 12.3336 40.7321 11.9561C40.7609 11.5785 40.6373 11.2091 40.3861 10.9218C39.8711 10.3308 38.9648 10.2651 38.3716 10.7782C38.318 10.8233 38.2686 10.8725 38.2233 10.9259C37.7701 11.4512 37.7578 12.2433 38.2274 12.7851Z" fill="white"/>
<path opacity="0.56" d="M42.9321 14.9973C43.0392 14.8742 43.1381 14.747 43.2328 14.6115C43.4223 14.3406 43.583 14.0534 43.7107 13.7537C43.7148 13.7414 43.723 13.725 43.7272 13.7127C43.7725 13.606 43.7395 13.4911 43.6571 13.4213C43.6365 13.4049 43.6159 13.3885 43.5871 13.3803C43.4553 13.3269 43.307 13.3885 43.2493 13.5157C43.1298 13.7989 42.9815 14.0657 42.8044 14.3201C42.7961 14.3324 42.7838 14.3489 42.7755 14.3612C42.3512 14.9522 41.7992 15.4159 41.1607 15.7279C40.8146 15.8961 40.4439 16.0193 40.0566 16.0931C40.0525 16.0931 40.0484 16.0931 40.0484 16.0931C40.0402 16.0931 40.0278 16.0972 40.0196 16.0972C38.8826 16.2983 37.7332 16.048 36.7898 15.3913C36.6662 15.3051 36.5509 15.2148 36.4397 15.1204C35.6858 14.4761 35.1832 13.6019 35.0102 12.6169C34.8083 11.4841 35.0596 10.3432 35.7187 9.39921C36.3779 8.45525 37.3707 7.8232 38.5077 7.6221C39.6447 7.42099 40.794 7.67135 41.7374 8.32802C41.8569 8.4101 41.9722 8.50039 42.0835 8.59479C42.5613 9.00521 42.9486 9.51823 43.2081 10.0928C43.2246 10.1298 43.2452 10.1585 43.274 10.1831C43.3482 10.2447 43.4512 10.2652 43.5459 10.2242C43.6736 10.1667 43.7313 10.0148 43.6736 9.88761C43.3852 9.24325 42.9527 8.67277 42.4171 8.2131C42.2936 8.10639 42.1617 8.00789 42.0299 7.91349C40.9712 7.17884 39.6859 6.89565 38.4129 7.12138C37.14 7.34712 36.0318 8.05304 35.2944 9.10781C34.557 10.1626 34.2728 11.4431 34.4994 12.7113C34.6971 13.8153 35.2573 14.7921 36.1019 15.5144C36.2254 15.6212 36.3573 15.7238 36.4932 15.8182C38.553 17.2341 41.3337 16.8483 42.9321 14.9973Z" fill="white"/>
<path d="M96.5636 86.3896H94.269V111.113H96.5636V86.3896Z" fill="url(#paint26_linear_147_1312)"/>
<path d="M105.462 111.589H85.3672C85.3672 110.768 86.0345 110.099 86.8626 110.099H103.971C104.795 110.099 105.462 110.768 105.462 111.589Z" fill="url(#paint27_linear_147_1312)"/>
<path d="M108.449 85.5318C108.449 86.882 107.337 87.9902 105.981 87.9902H85.6473C84.292 87.9902 83.1797 86.882 83.1797 85.5318V83.3073C83.1797 81.957 84.292 80.8489 85.6473 80.8489H105.981C107.337 80.8489 108.449 81.957 108.449 83.3073V85.5318Z" fill="url(#paint28_linear_147_1312)"/>
<path d="M78.4749 69.9071C78.4749 69.9071 75.0639 70.4324 71.2328 72.9852C70.6313 73.3875 70.2976 74.0893 70.3883 74.8034C70.8455 78.4274 72.7364 90.1489 78.9569 101.604C79.2865 102.207 79.3812 102.909 79.2329 103.582L78.1536 108.593L76.1474 110.465H81.3133L84.7531 101.193L83.2825 100.73C82.1413 100.368 81.3586 99.3259 81.338 98.1357L81.165 88.1913C81.3133 83.7587 78.4379 80.7011 78.4379 80.7011L86.6852 80.303L78.4749 69.9071Z" fill="#FFD3B2"/>
<path d="M74.1331 111.376C73.6635 111.987 79.196 112.8 81.9891 111.458C81.9891 111.458 85.8656 104.739 85.8656 101.284C85.8656 101.284 85.5566 100.578 83.2826 100.738C83.2826 100.738 81.9809 108.692 80.609 109.582C79.2372 110.473 76.7655 109.673 76.7655 109.673C76.7655 109.673 74.8293 110.469 74.1331 111.376Z" fill="#2E2E2E"/>
<path d="M85.6471 80.8529C85.6018 80.7791 76.7653 79.7941 76.7653 79.7941C76.7653 79.7941 77.0537 82.47 76.1515 86.1555C75.2493 89.8411 62.2727 105.806 62.2727 105.806L63.6322 110.103C59.4261 111.565 55.2901 111.799 51.2158 110.846L59.6486 105.806C59.6486 105.806 67.5375 79.0184 72.3739 74.237L81.2309 71.1835L85.6471 80.8529Z" fill="#FFD3B2"/>
<path d="M63.1177 108.655C63.1177 108.655 64.5843 110.067 63.5915 111.639C63.5915 111.639 51.9908 113.687 48.8394 112.759C48.8394 112.759 49.4944 111.273 53.0413 109.578L52.7777 109.779C52.4481 110.034 52.6417 110.559 53.0578 110.539C55.3977 110.403 60.2382 109.976 63.1177 108.655Z" fill="#2E2E2E"/>
<path d="M77.5889 22.6228C77.5889 23.3247 83.9453 49.3534 83.9453 49.3534L102.051 54.6601C105.544 55.6821 109.293 54.2702 111.229 51.2044C116.049 43.5788 113.746 33.5072 106.088 28.7135L103.526 27.1087C98.0589 23.6858 93.3379 19.2 89.6468 13.922L88.6828 12.543L77.5889 22.6228Z" fill="#2E2E2E"/>
<path d="M108.432 47.7323C108.42 47.7323 108.408 47.7282 108.403 47.7158C108.395 47.6994 108.399 47.6789 108.416 47.6707C109.137 47.2398 110.805 45.8484 110.772 42.2491C110.752 39.8768 110.117 37.5334 108.943 35.469C106.834 31.7629 103.184 29.2429 99.6535 26.8091C99.4104 26.6409 99.1674 26.4726 98.9243 26.3043C95.3238 23.809 91.3484 20.7801 89.7336 16.4009C89.7253 16.3845 89.7377 16.364 89.7542 16.3558C89.7707 16.3476 89.7912 16.3599 89.7995 16.3763C91.4102 20.739 95.3732 23.7597 98.9655 26.251C99.2086 26.4192 99.4516 26.5875 99.6947 26.7558C103.229 29.1937 106.887 31.7177 109.005 35.4402C110.187 37.5128 110.822 39.8686 110.842 42.2532C110.875 45.8895 109.182 47.2972 108.453 47.7323C108.445 47.7323 108.436 47.7323 108.432 47.7323Z" fill="white"/>
<path d="M106.962 43.8619C106.958 43.8619 106.958 43.8619 106.954 43.8619C106.933 43.8578 106.925 43.8414 106.925 43.8209C107.403 41.3994 107.333 39.2406 106.711 37.3937C105.59 34.0611 102.624 31.6356 100.16 29.8954C99.6661 29.5465 99.1553 29.1977 98.6609 28.857C96.3828 27.2975 94.0306 25.6804 92.3209 23.4847C92.3086 23.4682 92.3127 23.4477 92.3251 23.4354C92.3415 23.4231 92.3621 23.4272 92.3745 23.4395C94.0759 25.6312 96.424 27.24 98.698 28.7996C99.1924 29.1361 99.7032 29.4891 100.198 29.8379C101.87 31.0199 103.118 32.0665 104.115 33.1336C105.405 34.5044 106.274 35.8916 106.768 37.3732C107.39 39.2283 107.464 41.3994 106.982 43.8332C106.991 43.8496 106.978 43.8619 106.962 43.8619Z" fill="white"/>
<path d="M93.9484 65.9713C93.9484 65.9713 80.9924 51.7462 78.0716 48.0196C76.4938 46.0044 75.9995 43.3531 76.7286 40.907C78.0593 36.4335 80.428 31.8039 80.6463 31.0816C80.9759 29.9776 87.6249 30.0227 87.6249 30.0227C87.6249 30.0227 100.704 38.4814 105.846 52.8092L100.074 54.5986C100.074 54.5986 96.6591 48.8897 93.2851 45.2616C93.2851 45.2616 105.009 63.0983 105.85 65.9467L93.9484 65.9713Z" fill="url(#paint29_linear_147_1312)"/>
<path d="M78.8579 23.3903C78.9279 23.6201 81.6469 30.8681 81.7828 30.9871C81.9187 31.1062 85.5893 31.3032 87.3154 30.1253L83.031 21.7773L78.8579 23.3903Z" fill="#FFD3B2"/>
<path d="M74.8413 57.7875L79.1957 53.6053L85.2226 56.1417C85.2226 56.1417 91.2207 57.0692 94.6523 56.1417C98.0838 55.2141 98.0838 55.2141 98.0838 55.2141L105.841 52.8091L107.06 56.2402C107.369 57.1103 107.06 58.0789 106.302 58.6124C105.631 59.0885 104.844 59.6097 104.341 59.8272C103.32 60.2746 79.1586 59.5194 79.1586 59.5194L74.8413 57.7875Z" fill="#FFD3B2"/>
<path d="M79.5626 11.402C79.5626 11.402 76.4194 12.9369 74.4956 17.6978C72.5717 22.4586 74.3266 24.5066 76.3988 24.6831C78.4709 24.8596 81.54 24.6421 84.6173 21.4654C87.6946 18.2847 83.6574 9.55917 79.5626 11.402Z" fill="#FFD3B2"/>
<path d="M82.2901 19.1138C82.2901 19.1138 84.3334 12.1941 78.2941 12.4568L76.9305 13.528C76.9305 13.528 74.5 9.89168 78.0346 7.89294C81.565 5.8942 87.0811 7.18291 88.9061 11.9766C90.7311 16.7662 90.006 19.9675 87.5631 22.4505C85.1243 24.9294 83.9132 22.3438 83.9132 22.3438C83.9132 22.3438 85.1902 20.0824 84.5517 18.9455C83.9132 17.8087 82.6773 19.2944 82.6773 19.2944L82.2901 19.1138Z" fill="#2E2E2E"/>
<path d="M82.3146 19.5529C82.3146 19.5529 85.1283 16.5732 86.1541 18.7115C87.1839 20.8498 83.3569 21.3751 81.915 21.4572L82.3146 19.5529Z" fill="#FFD3B2"/>
<path d="M110.974 76.2523C110.756 74.4382 109.236 71.4873 107.851 69.0987L103.229 61.0052C98.7677 62.3309 93.8078 63.3446 91.678 63.2543C91.4967 63.2461 91.402 63.4678 91.5297 63.595L93.9478 65.9754L94.2692 65.9508C89.4658 66.2955 84.7077 66.7306 83.6407 67.141C81.3338 68.0316 72.4644 71.1877 72.4644 71.1877L84.6376 81.5508C84.6376 81.5508 98.8996 81.5549 104.243 81.3251C109.577 81.0911 111.39 79.6916 110.974 76.2523Z" fill="#2E2E2E"/>
<path d="M72.1886 57.5904H86.2816C86.5082 57.5904 86.6894 57.4098 86.6894 57.184V43.1436C86.6894 42.9179 86.5082 42.7373 86.2816 42.7373H72.1886C71.962 42.7373 71.7808 42.9179 71.7808 43.1436V57.184C71.7849 57.4098 71.9661 57.5904 72.1886 57.5904Z" fill="url(#paint30_linear_147_1312)"/>
<defs>
<linearGradient id="paint0_linear_147_1312" x1="35.3047" y1="72.9905" x2="-2.41945" y2="100.063" gradientUnits="userSpaceOnUse">
<stop stop-color="#0071DC"/>
<stop offset="1" stop-color="#319BFF"/>
</linearGradient>
<linearGradient id="paint1_linear_147_1312" x1="40.6145" y1="79.6751" x2="26.5619" y2="101.009" gradientUnits="userSpaceOnUse">
<stop stop-color="#0071DC"/>
<stop offset="1" stop-color="#399FFF"/>
</linearGradient>
<linearGradient id="paint2_linear_147_1312" x1="26.5724" y1="76.0337" x2="-4.90835" y2="105.23" gradientUnits="userSpaceOnUse">
<stop stop-color="#0071DC"/>
<stop offset="1" stop-color="#379EFF"/>
</linearGradient>
<linearGradient id="paint3_linear_147_1312" x1="14.4647" y1="63.5056" x2="-16.1503" y2="91.8991" gradientUnits="userSpaceOnUse">
<stop stop-color="#0071DC"/>
<stop offset="1" stop-color="#339CFF"/>
</linearGradient>
<linearGradient id="paint4_linear_147_1312" x1="31.726" y1="43.0419" x2="-1.34266" y2="97.3567" gradientUnits="userSpaceOnUse">
<stop stop-color="#FFC837"/>
<stop offset="1" stop-color="#FFC221"/>
</linearGradient>
<linearGradient id="paint5_linear_147_1312" x1="27.0531" y1="54.8479" x2="19.7796" y2="40.5399" gradientUnits="userSpaceOnUse">
<stop stop-color="#C4421B"/>
<stop offset="1" stop-color="#5C0E16"/>
</linearGradient>
<linearGradient id="paint6_linear_147_1312" x1="47.345" y1="50.5513" x2="90.0647" y2="112.507" gradientUnits="userSpaceOnUse">
<stop stop-color="#0071DC"/>
<stop offset="1" stop-color="#3A9FFF"/>
</linearGradient>
<linearGradient id="paint7_linear_147_1312" x1="4.54746" y1="68.3608" x2="48.1798" y2="123.167" gradientUnits="userSpaceOnUse">
<stop stop-color="#0071DC"/>
<stop offset="1" stop-color="#379EFF"/>
</linearGradient>
<linearGradient id="paint8_linear_147_1312" x1="10.7779" y1="32.552" x2="74.7587" y2="100.23" gradientUnits="userSpaceOnUse">
<stop stop-color="#0071DC"/>
<stop offset="1" stop-color="#46A5FF"/>
</linearGradient>
<linearGradient id="paint9_linear_147_1312" x1="20.2779" y1="53.4848" x2="-4.85107" y2="104.479" gradientUnits="userSpaceOnUse">
<stop stop-color="#FFC52E"/>
<stop offset="1" stop-color="#FFC221"/>
</linearGradient>
<linearGradient id="paint10_linear_147_1312" x1="44.2347" y1="49.3081" x2="18.1209" y2="103.273" gradientUnits="userSpaceOnUse">
<stop stop-color="#55ACFF"/>
<stop offset="1" stop-color="#0071DC"/>
</linearGradient>
<linearGradient id="paint11_linear_147_1312" x1="36.3683" y1="21.132" x2="64.1071" y2="96.9256" gradientUnits="userSpaceOnUse">
<stop stop-color="#FFC62F"/>
<stop offset="1" stop-color="#FFE398"/>
</linearGradient>
<linearGradient id="paint12_linear_147_1312" x1="56.6506" y1="52.4215" x2="120.03" y2="131.171" gradientUnits="userSpaceOnUse">
<stop stop-color="#FFC734"/>
<stop offset="1" stop-color="#FFC221"/>
</linearGradient>
<linearGradient id="paint13_linear_147_1312" x1="51.0854" y1="42.3123" x2="54.5708" y2="83.0214" gradientUnits="userSpaceOnUse">
<stop stop-color="#FFC221"/>
<stop offset="1" stop-color="#FFCE4E"/>
</linearGradient>
<linearGradient id="paint14_linear_147_1312" x1="30.038" y1="14.8242" x2="41.4974" y2="57.2185" gradientUnits="userSpaceOnUse">
<stop stop-color="#57ADFF"/>
<stop offset="1" stop-color="#0071DC"/>
</linearGradient>
<linearGradient id="paint15_linear_147_1312" x1="24.3334" y1="3.3423" x2="8.94653" y2="21.3127" gradientUnits="userSpaceOnUse">
<stop stop-color="#0071DC"/>
<stop offset="1" stop-color="#96CCFF"/>
</linearGradient>
<linearGradient id="paint16_linear_147_1312" x1="3.39301" y1="18.0711" x2="2.49434" y2="19.1207" gradientUnits="userSpaceOnUse">
<stop stop-color="#0071DC"/>
<stop offset="1" stop-color="#9DCFFF"/>
</linearGradient>
<linearGradient id="paint17_linear_147_1312" x1="6.73253" y1="30.3726" x2="6.11585" y2="31.0929" gradientUnits="userSpaceOnUse">
<stop stop-color="#0071DC"/>
<stop offset="1" stop-color="#9FD0FF"/>
</linearGradient>
<linearGradient id="paint18_linear_147_1312" x1="30.0949" y1="19.8113" x2="14.246" y2="38.3213" gradientUnits="userSpaceOnUse">
<stop stop-color="#0071DC"/>
<stop offset="1" stop-color="#A0D1FF"/>
</linearGradient>
<linearGradient id="paint19_linear_147_1312" x1="35.5863" y1="21.315" x2="34.699" y2="22.3511" gradientUnits="userSpaceOnUse">
<stop stop-color="#0071DC"/>
<stop offset="1" stop-color="#A6D4FF"/>
</linearGradient>
<linearGradient id="paint20_linear_147_1312" x1="-46.7607" y1="11.6851" x2="104.175" y2="32.1235" gradientUnits="userSpaceOnUse">
<stop stop-color="#0071DC"/>
<stop offset="1" stop-color="#A6D4FF"/>
</linearGradient>
<linearGradient id="paint21_linear_147_1312" x1="48.5025" y1="5.51001" x2="48.0639" y2="6.02226" gradientUnits="userSpaceOnUse">
<stop stop-color="#0071DC"/>
<stop offset="1" stop-color="#9DCFFF"/>
</linearGradient>
<linearGradient id="paint22_linear_147_1312" x1="42.9234" y1="0.373122" x2="34.3277" y2="10.4122" gradientUnits="userSpaceOnUse">
<stop stop-color="#0071DC"/>
<stop offset="1" stop-color="#A2D2FF"/>
</linearGradient>
<linearGradient id="paint23_linear_147_1312" x1="48.6997" y1="13.0845" x2="38.8888" y2="24.5427" gradientUnits="userSpaceOnUse">
<stop stop-color="#0071DC"/>
<stop offset="1" stop-color="#A6D4FF"/>
</linearGradient>
<linearGradient id="paint24_linear_147_1312" x1="50.5004" y1="12.4431" x2="49.8294" y2="13.2267" gradientUnits="userSpaceOnUse">
<stop stop-color="#0071DC"/>
<stop offset="1" stop-color="#A0D1FF"/>
</linearGradient>
<linearGradient id="paint25_linear_147_1312" x1="-45.2437" y1="0.488133" x2="105.692" y2="20.9266" gradientUnits="userSpaceOnUse">
<stop stop-color="#0071DC"/>
<stop offset="1" stop-color="#9CCFFF"/>
</linearGradient>
<linearGradient id="paint26_linear_147_1312" x1="93.6242" y1="109.977" x2="98.5475" y2="78.892" gradientUnits="userSpaceOnUse">
<stop stop-color="#2B3582"/>
<stop offset="1" stop-color="#150E42"/>
</linearGradient>
<linearGradient id="paint27_linear_147_1312" x1="95.6134" y1="110.292" x2="100.537" y2="79.2064" gradientUnits="userSpaceOnUse">
<stop stop-color="#2B3582"/>
<stop offset="1" stop-color="#150E42"/>
</linearGradient>
<linearGradient id="paint28_linear_147_1312" x1="91.7816" y1="109.685" x2="96.705" y2="78.6" gradientUnits="userSpaceOnUse">
<stop stop-color="#5AAFFF"/>
<stop offset="1" stop-color="#0071DC"/>
</linearGradient>
<linearGradient id="paint29_linear_147_1312" x1="90.8675" y1="45.6717" x2="95.7258" y2="93.8732" gradientUnits="userSpaceOnUse">
<stop stop-color="#FFCB42"/>
<stop offset="1" stop-color="#FFC221"/>
</linearGradient>
<linearGradient id="paint30_linear_147_1312" x1="84.5907" y1="32.2688" x2="71.9921" y2="74.7023" gradientUnits="userSpaceOnUse">
<stop stop-color="#58AEFF"/>
<stop offset="1" stop-color="#0071DC"/>
</linearGradient>
</defs>
</svg>
