<svg width="224" height="211" viewBox="0 0 224 211" fill="none" xmlns="http://www.w3.org/2000/svg">
<path d="M148.958 7.69237C133.494 4.4045 117.408 2.82202 101.691 3.82836C87.7555 4.71946 71.9614 7.15464 60.7458 15.8583C55.3992 20.0065 49.0308 27.4657 47.2794 34.0491C47.2794 34.0491 38.0764 68.687 19.6781 76.1077C1.2722 83.5285 -11.5029 210.204 128.047 197.836C128.047 197.836 210.014 194.594 214.945 101.22C216.136 78.6658 215.468 53.8685 201.187 35.0094C190.24 20.5596 174.907 14.1298 157.285 9.63591C154.535 8.93685 151.761 8.29157 148.958 7.69237Z" fill="#F4F7FA"/>
<path d="M142.174 84.5963L143.103 89.3745C141.022 90.1965 139.032 91.1874 137.165 92.3397L133.977 88.6754C133.109 87.6768 131.588 87.5846 130.59 88.468L124.313 93.999C123.307 94.8824 123.2 96.4111 124.068 97.4175L127.286 101.128C125.904 102.864 124.667 104.723 123.599 106.674L118.944 105.092C117.692 104.662 116.317 105.353 115.879 106.62L113.129 114.594C112.691 115.87 113.351 117.26 114.611 117.69L119.282 119.288C118.936 121.47 118.782 123.705 118.813 125.964L113.92 126.962C112.606 127.231 111.746 128.522 111.992 129.851L113.543 138.186C113.789 139.522 115.064 140.383 116.378 140.121L121.279 139.123C122.07 141.243 123.031 143.271 124.152 145.176L120.38 148.525C119.366 149.432 119.251 150.999 120.127 152.021L125.627 158.466C126.51 159.495 128.047 159.603 129.069 158.689L132.84 155.324C134.569 156.745 136.42 158.013 138.364 159.103L136.743 163.928C136.305 165.234 136.981 166.655 138.256 167.093L146.253 169.866C147.536 170.311 148.926 169.605 149.364 168.299L150.962 163.513C153.151 163.859 155.395 164.005 157.668 163.958L158.636 168.913C158.898 170.273 160.196 171.149 161.517 170.88L169.821 169.19C171.15 168.921 172.011 167.6 171.742 166.248L170.766 161.339C172.894 160.502 174.922 159.495 176.827 158.312L180.061 162.046C180.96 163.083 182.512 163.183 183.526 162.276L189.856 156.584C190.87 155.677 190.954 154.103 190.055 153.065L186.829 149.363C188.235 147.573 189.479 145.66 190.555 143.647L195.149 145.215C196.432 145.652 197.814 144.953 198.237 143.655L200.872 135.551C201.294 134.26 200.595 132.854 199.312 132.424L194.765 130.88C195.087 128.645 195.21 126.363 195.141 124.058L199.835 123.098C201.148 122.829 201.993 121.531 201.717 120.202L199.996 111.906C199.719 110.584 198.436 109.724 197.123 109.993L192.445 110.945C191.607 108.81 190.601 106.782 189.433 104.877L192.982 101.712C193.981 100.821 194.065 99.2842 193.182 98.2779L187.628 91.994C186.745 90.9877 185.216 90.8955 184.217 91.7866L180.645 94.9669C178.894 93.5765 177.027 92.332 175.068 91.2719L176.589 86.7242C177.012 85.4567 176.328 84.0893 175.068 83.6668L167.186 81.0242C165.927 80.6017 164.559 81.2854 164.137 82.5452L162.6 87.1083C160.434 86.7857 158.214 86.6628 155.971 86.7319L155.034 81.9921C154.772 80.6862 153.513 79.8489 152.207 80.1101L144.064 81.7694C142.765 82.0152 141.92 83.2904 142.174 84.5963ZM132.886 129.912C130.328 116.507 138.963 103.525 152.168 100.828C165.373 98.1319 178.256 106.736 180.968 120.11C183.687 133.561 175.091 146.736 161.74 149.463C148.381 152.174 135.46 143.394 132.886 129.912Z" fill="#D8DEE8"/>
<path d="M184.463 63.2021L184.739 64.6079C184.125 64.8537 183.541 65.138 182.996 65.4836L182.058 64.4082C181.805 64.1163 181.359 64.0855 181.06 64.3467L179.216 65.9753C178.924 66.2365 178.886 66.682 179.147 66.9816L180.092 68.0725C179.685 68.5871 179.324 69.1326 179.009 69.701L177.641 69.2324C177.273 69.1095 176.865 69.3093 176.743 69.6857L175.936 72.0287C175.805 72.4051 176.005 72.8122 176.374 72.9351L177.749 73.4037C177.649 74.049 177.603 74.702 177.611 75.3703L176.174 75.6622C175.79 75.739 175.536 76.1231 175.606 76.5149L176.059 78.9655C176.136 79.3572 176.504 79.6107 176.896 79.5339L178.34 79.242C178.571 79.8642 178.855 80.4634 179.185 81.0242L178.079 82.0075C177.78 82.2764 177.749 82.7373 178.002 83.0369L179.623 84.9343C179.884 85.2416 180.338 85.2646 180.637 85.0035L181.743 84.0125C182.25 84.4273 182.796 84.8037 183.364 85.1264L182.888 86.5475C182.757 86.9316 182.957 87.3465 183.334 87.477L185.684 88.2913C186.061 88.4219 186.468 88.2145 186.598 87.8304L187.067 86.4246C187.712 86.5245 188.373 86.5706 189.041 86.5552L189.326 88.0148C189.402 88.4142 189.786 88.6754 190.171 88.5909L192.613 88.0916C193.005 88.0148 193.259 87.623 193.174 87.2235L192.89 85.7793C193.512 85.5335 194.111 85.2339 194.672 84.8882L195.625 85.9867C195.886 86.294 196.347 86.3248 196.646 86.0559L198.505 84.3812C198.805 84.1124 198.828 83.6514 198.567 83.3442L197.622 82.2533C198.037 81.7233 198.406 81.1625 198.721 80.571L200.073 81.0319C200.449 81.1625 200.856 80.9551 200.979 80.571L201.755 78.1896C201.878 77.8055 201.67 77.3983 201.294 77.2677L199.957 76.8145C200.05 76.1539 200.088 75.4855 200.065 74.8095L201.448 74.5253C201.832 74.4485 202.085 74.0644 202.001 73.6726L201.494 71.2297C201.417 70.838 201.033 70.5921 200.649 70.669L199.274 70.9532C199.028 70.3233 198.728 69.7241 198.39 69.171L199.435 68.2415C199.727 67.9803 199.758 67.527 199.496 67.2351L197.86 65.3838C197.599 65.0919 197.153 65.0611 196.854 65.3223L195.801 66.2595C195.287 65.8524 194.741 65.4837 194.157 65.1687L194.603 63.832C194.726 63.4633 194.526 63.0562 194.157 62.9332L191.838 62.1574C191.469 62.0345 191.069 62.2342 190.939 62.6029L190.486 63.9473C189.848 63.8551 189.195 63.8167 188.534 63.8397L188.258 62.4493C188.181 62.0652 187.812 61.8194 187.428 61.8962L185.031 62.3878C184.64 62.4416 184.386 62.818 184.463 63.2021ZM181.736 76.5303C180.983 72.5894 183.526 68.7715 187.405 67.9803C191.284 67.189 195.079 69.7164 195.871 73.6496C196.669 77.6058 194.142 81.4774 190.217 82.284C186.291 83.0753 182.489 80.4942 181.736 76.5303Z" fill="#D8DEE8"/>
<path d="M80.0271 132.432C82.8387 123.866 85.704 110.784 82.347 96.2575C78.4984 79.58 69.9791 76.246 62.3279 58.4162C51.4041 32.966 63.7644 14.537 52.4566 6.75519C46.9409 2.96031 38.268 2.96031 32.9214 6.77056C17.6651 17.6328 21.8517 64.9536 46.0498 83.421C56.9966 91.7712 66.5453 90.7803 74.7573 101.589C82.0244 111.137 81.4482 123.736 80.0271 132.432Z" fill="url(#paint0_linear_147_563)"/>
<mask id="mask0_147_563" style="mask-type:luminance" maskUnits="userSpaceOnUse" x="23" y="3" width="61" height="130">
<path d="M80.0271 132.432C82.8387 123.866 85.704 110.784 82.347 96.2575C78.4984 79.58 69.9791 76.246 62.3279 58.4162C51.4041 32.966 63.7644 14.537 52.4566 6.75519C46.9409 2.96031 38.268 2.96031 32.9214 6.77056C17.6651 17.6328 21.8517 64.9536 46.0498 83.421C56.9966 91.7712 66.5453 90.7803 74.7573 101.589C82.0244 111.137 81.4482 123.736 80.0271 132.432Z" fill="white"/>
</mask>
<g mask="url(#mask0_147_563)">
<path d="M81.7402 110.869C80.826 107.266 79.5892 103.724 78.0759 100.344C74.5959 92.5778 70.755 88.299 65.8923 82.8909C62.7197 79.3572 59.1168 75.3549 54.9609 69.6165C47.1791 58.8771 44.767 55.1053 42.6084 49.0289C38.3295 36.999 38.9825 26.2135 39.7584 20.8515C40.8569 13.2464 43.4073 6.01772 47.3404 -0.650208L47.5786 -0.511934C43.6608 6.12526 41.1257 13.3232 40.0349 20.89C39.2667 26.2212 38.6137 36.9606 42.8695 48.9367C45.0205 54.9824 47.4249 58.7465 55.1914 69.4552C59.3396 75.1782 62.9348 79.1805 66.0997 82.7065C70.9778 88.1377 74.8341 92.4242 78.3294 100.229C79.8504 103.624 81.0872 107.181 82.009 110.799L81.7402 110.869Z" fill="white"/>
<path d="M40.5189 40.5327L40.3192 40.4251C40.2731 40.4021 35.7561 37.9208 31.7461 32.8661C28.0435 28.2032 24.0104 20.3292 25.8771 9.3056L26.146 9.35169C24.3023 20.2677 28.2893 28.0649 31.9536 32.6817C35.4565 37.0989 39.3436 39.534 40.2577 40.0641C40.5112 31.2606 46.1498 25.5606 50.8665 22.3188C56.0057 18.7774 61.1833 17.3332 61.2294 17.3179L61.3063 17.5791C61.2525 17.5944 56.1209 19.0309 51.0201 22.5493C46.3265 25.7834 40.6879 31.491 40.5343 40.3022L40.5189 40.5327Z" fill="white"/>
<path d="M41.8093 68.8406C37.2386 68.8406 31.8689 67.719 26.9141 63.8627L27.0831 63.6476C38.2065 72.3052 51.4425 67.0277 52.7561 66.4669C50.5053 57.7786 52.4949 51.3642 54.569 47.5155C56.8199 43.3212 59.6622 41.1626 59.6929 41.1395L59.8542 41.3623C59.8235 41.3854 57.0273 43.5132 54.8072 47.6615C52.7561 51.4871 50.7895 57.8631 53.0557 66.5207L53.0864 66.6359L52.9789 66.682C52.8867 66.705 48.1085 68.8406 41.8093 68.8406Z" fill="white"/>
<path d="M51.9956 85.4183C48.5694 85.4183 44.4673 84.796 39.6968 83.0522L39.789 82.791C55.4217 88.5064 63.772 82.1073 64.6324 81.3929C60.8298 72.4896 66.1841 58.0936 66.2379 57.9553L66.4914 58.0552C66.4376 58.2011 61.0833 72.5894 64.9166 81.3852L64.955 81.4774L64.8859 81.5466C64.8321 81.585 60.4918 85.4183 51.9956 85.4183Z" fill="white"/>
</g>
<path d="M84.9206 122.1C85.8118 116.707 86.3264 108.28 81.9324 100.744C74.2735 87.5999 60.3077 91.9556 46.9411 77.8746C36.1634 66.513 39.5588 57.6865 27.6134 50.1428C25.6161 48.883 15.0457 41.9231 7.19477 46.1175C2.76997 48.4758 1.16445 53.3231 0.864854 54.2296C-3.68285 67.9726 10.3136 89.4974 28.5659 99.3379C39.0518 104.992 42.4318 103.148 60.8839 109.739C71.7231 113.611 79.8582 118.604 84.9206 122.1Z" fill="url(#paint1_linear_147_563)"/>
<mask id="mask1_147_563" style="mask-type:luminance" maskUnits="userSpaceOnUse" x="0" y="44" width="86" height="79">
<path d="M84.9206 122.1C85.8118 116.707 86.3264 108.28 81.9324 100.744C74.2735 87.5999 60.3077 91.9556 46.9411 77.8746C36.1634 66.513 39.5588 57.6865 27.6134 50.1428C25.6161 48.883 15.0457 41.9231 7.19477 46.1175C2.76997 48.4758 1.16445 53.3231 0.864854 54.2296C-3.68285 67.9726 10.3136 89.4974 28.5659 99.3379C39.0518 104.992 42.4318 103.148 60.8839 109.739C71.7231 113.611 79.8582 118.604 84.9206 122.1Z" fill="white"/>
</mask>
<g mask="url(#mask1_147_563)">
<path d="M86.4572 128.591C83.7839 115.762 78.7369 107.158 71.439 103.002C67.8823 100.974 65.0323 100.652 62.021 100.314C58.7331 99.9448 55.33 99.5531 50.8284 96.8337C46.4497 94.1834 44.8826 91.6407 42.9006 88.4219C41.1415 85.5642 38.9444 81.9998 34.028 77.2601C29.7184 73.1041 26.5765 71.1606 23.8033 69.4399C20.769 67.5578 18.3722 66.0752 15.5913 62.4339C11.059 56.4958 8.69296 48.883 8.55469 39.8183L8.83124 39.8106C8.96951 48.8215 11.3202 56.3729 15.8141 62.2649C18.5643 65.8677 20.9457 67.3427 23.9493 69.2094C26.7302 70.9301 29.8874 72.889 34.22 77.0603C39.1595 81.8231 41.3643 85.4029 43.1311 88.276C45.0977 91.464 46.6417 93.9837 50.9667 96.5955C55.4145 99.2842 58.7869 99.6683 62.0517 100.037C65.0938 100.383 67.9668 100.705 71.5696 102.764C78.9366 106.958 84.0374 115.631 86.7261 128.537L86.4572 128.591Z" fill="white"/>
<path d="M23.9647 70.2311C14.5927 70.2311 7.58678 66.636 3.31562 63.5555C-1.50096 60.0833 -4.00527 56.4881 -4.02832 56.4497L-3.80554 56.2961C-3.7825 56.3345 -1.30123 59.8989 3.48462 63.3404C7.87101 66.4977 15.1381 70.1927 24.9019 69.9469C24.318 68.0571 19.4246 51.5179 25.7546 44.4121L25.962 44.5965C19.3862 51.9788 25.1631 69.8547 25.2245 70.0314L25.2783 70.2081L25.0939 70.2157C24.7098 70.2234 24.3334 70.2311 23.9647 70.2311Z" fill="white"/>
<path d="M23.2427 85.4798C17.2431 85.4798 9.59955 84.243 1.92529 79.6415L2.06357 79.4034C11.6045 85.1264 21.1071 85.6027 27.3986 85.0035C33.644 84.4043 38.0535 82.6451 38.7832 82.3379C36.2405 72.9582 38.5067 59.7376 38.5297 59.607L38.7986 59.6531C38.7756 59.7837 36.5017 73.0581 39.0752 82.3839L39.1059 82.4992L38.9983 82.5453C38.9522 82.5683 34.297 84.6194 27.4293 85.28C26.1695 85.4029 24.756 85.4798 23.2427 85.4798Z" fill="white"/>
<path d="M31.3779 107.258C30.917 107.258 30.456 107.25 29.9951 107.243L30.0028 106.966C39.5975 107.174 46.9799 105.176 51.4892 103.471C55.7911 101.842 58.3492 100.152 58.9099 99.7605C51.8733 91.0184 54.6311 76.7377 54.6542 76.5917L54.923 76.6455C54.8923 76.7915 52.1422 91.0645 59.2095 99.699L59.3017 99.8142L59.1865 99.8987C59.0866 99.9756 48.9695 107.258 31.3779 107.258Z" fill="white"/>
</g>
<path d="M85.105 117.513C82.1014 115.355 77.1926 112.236 70.5862 109.893C58.8405 105.729 53.4554 108.188 48.4775 103.217C43.3306 98.0781 46.6646 93.0157 40.5037 87.2696C39.989 86.7857 33.3672 80.7784 27.3829 83.0215C23.1963 84.5886 21.56 89.3438 20.7995 91.5792C17.8266 100.244 19.555 113.442 28.7964 119.956C37.5615 126.133 48.6542 123.19 52.1802 122.23C58.3565 120.548 59.8238 118.136 66.1076 116.615C73.7434 114.763 80.6111 116.131 85.105 117.513Z" fill="url(#paint2_linear_147_563)"/>
<mask id="mask2_147_563" style="mask-type:luminance" maskUnits="userSpaceOnUse" x="19" y="82" width="67" height="42">
<path d="M85.105 117.513C82.1014 115.355 77.1926 112.236 70.5862 109.893C58.8405 105.729 53.4554 108.188 48.4775 103.217C43.3306 98.0781 46.6646 93.0157 40.5037 87.2696C39.989 86.7857 33.3672 80.7784 27.3829 83.0215C23.1963 84.5886 21.56 89.3438 20.7995 91.5792C17.8266 100.244 19.555 113.442 28.7964 119.956C37.5615 126.133 48.6542 123.19 52.1802 122.23C58.3565 120.548 59.8238 118.136 66.1076 116.615C73.7434 114.763 80.6111 116.131 85.105 117.513Z" fill="white"/>
</mask>
<g mask="url(#mask2_147_563)">
<path d="M87.548 119.495C80.2809 114.179 73.1981 111.675 66.4918 112.052C63.565 112.213 61.4985 112.866 59.5089 113.503C56.9815 114.302 54.5925 115.063 50.6132 114.902C43.4767 114.602 37.3772 112.174 33.4518 108.065C27.3677 101.704 26.0156 91.0415 30.0102 80.909L30.2637 81.0089C26.3075 91.0415 27.6365 101.589 33.6515 107.873C37.5309 111.929 43.5612 114.325 50.6286 114.625C54.554 114.786 56.9201 114.041 59.4244 113.242C61.4371 112.605 63.5112 111.944 66.4764 111.783C73.2519 111.406 80.3961 113.926 87.7093 119.28L87.548 119.495Z" fill="white"/>
<path d="M30.7553 104.009L30.5556 103.939C30.4404 103.901 18.8637 99.6683 18.1416 90.6881L18.4181 90.6651C19.0711 98.8233 28.927 103.002 30.4558 103.601C29.7644 92.0248 43.7455 85.6411 43.8838 85.572L43.999 85.8255C43.8607 85.8869 29.8796 92.2783 30.7477 103.794L30.7553 104.009Z" fill="white"/>
<path d="M32.9448 117.706C28.7428 117.706 23.3654 116.676 17.2275 113.181L17.3658 112.943C25.9696 117.844 33.06 117.859 37.4848 117.006C41.7483 116.192 44.4293 114.441 44.9901 114.049C38.2761 104.615 46.4573 93.4152 46.5418 93.3L46.7646 93.4613C46.6801 93.5689 38.5526 104.7 45.2897 113.995L45.3665 114.103L45.2589 114.187C45.2282 114.21 42.3859 116.346 37.5309 117.275C36.225 117.529 34.6886 117.706 32.9448 117.706Z" fill="white"/>
</g>
<path d="M223.718 192.558L7.07227 190.653V196.284C7.07227 197.813 8.01714 199.111 9.30003 199.349L70.5635 210.442C71.2933 210.572 72.0308 210.611 72.7605 210.549L221.368 197.897C222.697 197.782 223.718 196.484 223.718 194.909V192.558Z" fill="url(#paint3_linear_147_563)"/>
<path d="M145.094 183.424L9.30751 193.726C6.88002 193.91 4.90576 191.951 4.90576 189.347V85.0879C4.90576 82.4838 6.88002 80.3789 9.30751 80.3789H145.094C147.099 80.3789 148.712 82.284 148.712 84.6424V178.9C148.712 181.243 147.099 183.271 145.094 183.424Z" fill="url(#paint4_linear_147_563)"/>
<path d="M147.26 183.424L11.474 193.726C9.04652 193.91 7.07227 191.951 7.07227 189.347V85.0879C7.07227 82.4838 9.04652 80.3789 11.474 80.3789H147.26C149.265 80.3789 150.878 82.284 150.878 84.6424V178.9C150.878 181.243 149.265 183.271 147.26 183.424Z" fill="url(#paint5_linear_147_563)"/>
<path d="M143.027 176.78L16.5591 185.729C14.5849 185.867 12.9717 184.262 12.9717 182.134V90.8494C12.9717 88.7215 14.5772 86.9931 16.5591 86.9854L143.027 86.4246C144.679 86.4169 146.015 87.9763 146.015 89.9122V173.054C146.015 174.997 144.679 176.657 143.027 176.78Z" fill="url(#paint6_linear_147_563)"/>
<path d="M84.1602 83.2289C84.1602 84.1968 83.4612 84.9881 82.6008 84.9881C81.7404 84.9881 81.0337 84.2045 81.0337 83.2366C81.0337 82.2687 81.7327 81.4774 82.6008 81.4774C83.4612 81.4697 84.1602 82.261 84.1602 83.2289Z" fill="white"/>
<path opacity="0.48" d="M114.542 154.825C104.072 148.771 95.8446 156.438 87.9015 148.879C83.0849 144.293 85.451 140.874 79.5205 134.022C72.9601 126.432 68.6813 128.983 62.0902 122.153C53.7476 113.519 57.9189 106.797 50.7363 100.598C42.025 93.0772 32.6223 100.037 24.3258 92.8237C20.746 89.7125 18.7871 85.1878 17.7577 80.3789H9.64559C8.22443 80.3789 7.06445 81.6157 7.06445 83.1444V191.222C7.06445 192.75 8.21675 193.903 9.64559 193.787L148.036 183.24C148.712 183.186 149.319 182.764 149.703 182.142C139.57 181.742 133.348 178.101 129.369 174.329C121.587 166.954 122.939 159.68 114.542 154.825Z" fill="white"/>
<path d="M152.668 182.956L7.07227 193.803L70.5558 205.303C71.2856 205.433 72.0231 205.472 72.7529 205.41L223.718 192.558L154.988 183.033C154.22 182.925 153.444 182.894 152.668 182.956Z" fill="url(#paint7_linear_147_563)"/>
<path opacity="0.3" d="M28.3125 194.079L149.534 184.907L187.052 190.069L66.8758 199.872L28.3125 194.079Z" fill="url(#paint8_linear_147_563)"/>
<g opacity="0.75">
<path d="M38.7755 94.1604L24.8481 94.2064V89.6971H38.7755V94.1604Z" fill="white"/>
<path d="M111.746 93.9069L47.625 94.1296V89.6971H111.746V93.9069Z" fill="white"/>
<path d="M61.0684 101.566L47.625 101.689V97.2638L61.0684 97.1793V101.566Z" fill="white"/>
<path d="M131.581 100.897L69.603 101.481V97.1333L131.581 96.7645V100.897Z" fill="white"/>
<path d="M61.0684 109.048L47.625 109.255V104.823L61.0684 104.662V109.048Z" fill="white"/>
<path d="M131.581 107.957L69.603 108.91V104.562L131.581 103.824V107.957Z" fill="white"/>
<path d="M38.7755 117.006L24.8481 117.298V112.797L38.7755 112.543V117.006Z" fill="white"/>
<path d="M111.746 115.447L47.625 116.814V112.39L111.746 111.237V115.447Z" fill="white"/>
<path d="M61.0684 124.012L47.625 124.381V119.949L61.0684 119.626V124.012Z" fill="white"/>
<path d="M131.581 122.084L69.603 123.774V119.426L131.581 117.944V122.084Z" fill="white"/>
<path d="M61.0684 131.495L47.625 131.94V127.515L61.0684 127.108V131.495Z" fill="white"/>
<path d="M131.581 129.144L69.603 131.21V126.855L131.581 125.011V129.144Z" fill="white"/>
<path d="M61.0684 138.977L47.625 139.499V135.074L61.0684 134.598V138.977Z" fill="white"/>
<path d="M131.581 136.204L69.603 138.639V134.291L131.581 132.071V136.204Z" fill="white"/>
<path d="M82.793 145.476L69.8105 146.06V141.712L82.793 141.166V145.476Z" fill="white"/>
<path d="M141.045 142.841L91.0356 145.099V140.828L141.045 138.739V142.841Z" fill="white"/>
<path d="M38.7755 155.078L24.8481 155.793V151.283L38.7755 150.623V155.078Z" fill="white"/>
<path d="M111.746 151.345L47.625 154.625V150.2L111.746 147.143V151.345Z" fill="white"/>
<path d="M61.0684 161.423L47.625 162.192V157.767L61.0684 157.045V161.423Z" fill="white"/>
<path d="M131.581 157.39L69.603 160.932V156.584L131.581 153.258V157.39Z" fill="white"/>
<path d="M61.0684 168.906L47.625 169.751V165.326L61.0684 164.527V168.906Z" fill="white"/>
<path d="M131.581 164.45L69.603 168.368V164.012L131.581 160.317V164.45Z" fill="white"/>
<path d="M38.7755 177.924L24.8481 178.892V174.383L38.7755 173.469V177.924Z" fill="white"/>
<path d="M111.746 172.885L47.625 177.317V172.885L111.746 168.683V172.885Z" fill="white"/>
</g>
<path d="M160.365 28.8561L41.833 24.9614C37.8614 24.8308 34.6196 27.965 34.6196 31.9673V147.496C34.6196 151.498 37.8537 154.602 41.833 154.433L160.365 149.37C163.791 149.224 166.565 146.113 166.565 142.418V35.7468C166.565 32.0595 163.799 28.9714 160.365 28.8561Z" fill="url(#paint9_linear_147_563)"/>
<path opacity="0.74" d="M41.8332 152.128C39.1292 152.243 36.9321 150.131 36.9321 147.412V32.0365C36.9321 29.317 39.1292 27.1815 41.8332 27.266L160.366 30.9994C162.701 31.0762 164.591 33.1734 164.591 35.6854V142.495C164.591 145.015 162.701 147.127 160.366 147.227L41.8332 152.128Z" fill="white"/>
<path d="M160.365 28.8561L41.833 24.9614C37.8614 24.8308 34.6196 27.965 34.6196 31.9673V37.1603L166.565 40.5404V35.7468C166.565 32.0595 163.799 28.9714 160.365 28.8561Z" fill="url(#paint10_linear_147_563)"/>
<path d="M47.441 31.637C47.441 32.9352 46.3963 33.9569 45.1057 33.9262C43.8151 33.8878 42.7627 32.8046 42.7627 31.5064C42.7627 30.2005 43.8151 29.1788 45.1057 29.2172C46.3963 29.2556 47.441 30.3387 47.441 31.637Z" fill="white"/>
<path d="M55.6068 31.8752C55.6068 33.1657 54.5698 34.1874 53.2946 34.149C52.0117 34.1106 50.9746 33.0351 50.9746 31.7369C50.9746 30.4386 52.0117 29.4246 53.2946 29.463C54.5698 29.5014 55.6068 30.5846 55.6068 31.8752Z" fill="white"/>
<path d="M63.688 32.1133C63.688 33.4038 62.6587 34.4179 61.3911 34.3794C60.1236 34.341 59.0942 33.2732 59.0942 31.9827C59.0942 30.6921 60.1236 29.6781 61.3911 29.7165C62.6587 29.7472 63.688 30.8227 63.688 32.1133Z" fill="white"/>
<path d="M105.639 51.6177L43.0234 50.4962V54.1758L105.639 55.1668V51.6177Z" fill="white"/>
<path d="M152.706 52.4627V55.9119L159.328 56.0118V52.5856L152.706 52.4627Z" fill="white"/>
<path d="M56.2594 63.1791L43.0234 63.0408V59.2459L56.2594 59.4149V63.1791Z" fill="white"/>
<path d="M126.979 63.9319L64.7095 63.2712V59.5225L126.979 60.3214V63.9319Z" fill="white"/>
<path d="M77.6151 69.7625L64.7095 69.6703V65.9215L77.6151 66.0367V69.7625Z" fill="white"/>
<path d="M146.599 70.2311L85.8579 69.8163V66.1136L146.599 66.6667V70.2311Z" fill="white"/>
<path d="M77.6151 76.1154L64.7095 76.077V72.3282L77.6151 72.3974V76.1154Z" fill="white"/>
<path d="M146.599 76.3229L85.8579 76.1385V72.4358L146.599 72.7584V76.3229Z" fill="white"/>
<path d="M56.2594 82.4838L43.0234 82.4915V78.6966L56.2594 78.712V82.4838Z" fill="white"/>
<path d="M126.979 82.43L64.7095 82.4761V78.7273L126.979 78.8195V82.43Z" fill="white"/>
<path d="M77.6151 88.8214L64.7095 88.8752V85.1341L77.6151 85.1033V88.8214Z" fill="white"/>
<path d="M146.599 88.5064L85.8579 88.783V85.0803L146.599 84.942V88.5064Z" fill="white"/>
<path d="M77.6151 95.1744L64.7095 95.2819V91.5331L77.6151 91.4563V95.1744Z" fill="white"/>
<path d="M146.599 94.5982L85.8579 95.1052V91.4025L146.599 91.0338V94.5982Z" fill="white"/>
<path d="M77.6151 101.527L64.7095 101.681V97.9322L77.6151 97.8093V101.527Z" fill="white"/>
<path d="M146.599 100.698L85.8579 101.427V97.7247L146.599 97.1255V100.698Z" fill="white"/>
<path d="M98.6406 107.55L86.0576 107.75V104.047L98.6406 103.87V107.55Z" fill="white"/>
<path d="M156.025 106.636L106.676 107.419V103.763L156.025 103.094V106.636Z" fill="white"/>
<path d="M56.2594 114.656L43.0234 114.917V111.114L56.2594 110.884V114.656Z" fill="white"/>
<path d="M126.979 113.265L64.7095 114.487V110.738L126.979 109.655V113.265Z" fill="white"/>
<path d="M77.6151 120.586L64.7095 120.894V117.145L77.6151 116.868V120.586Z" fill="white"/>
<path d="M146.599 118.973L85.8579 120.394V116.691L146.599 115.401V118.973Z" fill="white"/>
<path d="M77.6151 126.939L64.7095 127.293V123.544L77.6151 123.221V126.939Z" fill="white"/>
<path d="M146.599 125.065L85.8579 126.716V123.014L146.599 121.493V125.065Z" fill="white"/>
<path d="M56.2594 133.953L43.0234 134.368V130.573L56.2594 130.189V133.953Z" fill="white"/>
<path d="M126.979 131.763L64.7095 133.692V129.943L126.979 128.153V131.763Z" fill="white"/>
<path d="M77.6151 139.645L64.7095 140.098V136.35L77.6151 135.927V139.645Z" fill="white"/>
<path d="M146.599 137.248L85.8579 139.361V135.658L146.599 133.684V137.248Z" fill="white"/>
<g opacity="0.5">
<path d="M114.289 73.2731C100.446 53.1311 76.4785 59.5378 61.3221 37.2755C58.5873 33.2579 56.7359 29.1788 55.4607 25.4069L41.833 24.9614C37.8614 24.8308 34.6196 27.965 34.6196 31.9673V147.496C34.6196 151.498 37.8537 154.602 41.833 154.433L156.025 149.555C153.405 145.783 130.621 131.81 124.736 110.354C119.359 90.7265 122.647 85.426 114.289 73.2731Z" fill="white"/>
</g>
<path d="M208.63 38.351C208.63 16.3884 188.373 -0.757737 164.236 0.0258206C150.493 0.471373 138.54 6.6707 131.074 15.8122V15.8045C131.027 15.8583 130.981 15.9198 130.935 15.9812C130.805 16.1425 130.682 16.3039 130.559 16.4652C130.328 16.7571 130.098 17.0567 129.883 17.3563C129.752 17.533 129.622 17.7096 129.499 17.894C129.284 18.1936 129.076 18.5009 128.876 18.8005C128.761 18.9772 128.638 19.1462 128.531 19.3229C128.3 19.6762 128.085 20.0373 127.87 20.3906C127.793 20.5212 127.709 20.6518 127.632 20.7824C127.348 21.2741 127.079 21.7657 126.818 22.265C126.749 22.3956 126.687 22.5339 126.618 22.6645C126.426 23.0409 126.242 23.4173 126.065 23.8014C125.98 23.9858 125.896 24.1778 125.811 24.3622C125.665 24.7002 125.519 25.0382 125.381 25.3839C125.304 25.5836 125.22 25.7834 125.143 25.9831C125.005 26.3365 124.882 26.6898 124.759 27.0432C124.697 27.2276 124.628 27.4119 124.567 27.604C124.421 28.0495 124.283 28.5028 124.152 28.956C124.121 29.0482 124.091 29.1404 124.068 29.2402C123.914 29.7857 123.783 30.3388 123.653 30.8995C123.614 31.0609 123.584 31.2299 123.553 31.3912C123.468 31.7906 123.392 32.1901 123.322 32.5973C123.284 32.8047 123.253 33.0121 123.223 33.2118C123.169 33.5882 123.115 33.957 123.069 34.3334C123.046 34.5485 123.015 34.7559 123 34.971C122.961 35.3704 122.931 35.7699 122.9 36.1694C122.885 36.3537 122.869 36.5381 122.862 36.7301C122.831 37.314 122.815 37.9055 122.815 38.497C122.815 52.5933 131.35 65.0227 144.148 71.683C145.324 72.2975 146.537 72.8583 147.789 73.373C148.412 73.6265 149.049 73.8723 149.687 74.1028C154.188 75.7237 159.097 76.6839 164.252 76.8299C164.959 76.8529 165.665 76.8529 166.372 76.8452C166.61 76.8452 166.841 76.8299 167.079 76.8222C167.547 76.8068 168.008 76.7915 168.469 76.7684C168.753 76.7531 169.03 76.73 169.314 76.707C169.729 76.6762 170.136 76.6455 170.551 76.5994C170.851 76.5687 171.15 76.5303 171.45 76.4919C171.834 76.4458 172.226 76.3997 172.61 76.3382C172.917 76.2921 173.224 76.246 173.524 76.1923C173.893 76.1308 174.269 76.0694 174.638 75.9925C174.945 75.9311 175.252 75.8696 175.56 75.8082C175.921 75.7314 176.282 75.6545 176.635 75.57C176.942 75.5009 177.25 75.4241 177.549 75.3473C177.903 75.2551 178.256 75.1629 178.602 75.063C178.901 74.9785 179.201 74.894 179.5 74.8018C179.608 74.7711 179.723 74.7404 179.831 74.702L179.823 74.6943C196.508 69.4629 208.63 55.2897 208.63 38.351Z" fill="url(#paint11_linear_147_563)"/>
<path d="M205.312 38.3587C205.312 60.2676 185.154 77.4367 161.148 76.7377C138.033 76.0617 119.919 58.954 119.919 38.5047C119.919 18.0553 138.033 0.886201 161.148 0.13337C185.154 -0.650188 205.312 16.4498 205.312 38.3587Z" fill="url(#paint12_linear_147_563)"/>
<path d="M150.317 48.9675L133.171 40.2485V37.4369L150.309 27.5118V32.29L138.448 38.6276L150.309 44.2047V48.9675H150.317Z" fill="white"/>
<path d="M168.546 23.6401L158.798 53.1004L153.904 53.0543L163.576 23.7093L168.546 23.6401Z" fill="white"/>
<path d="M172.172 44.2738L184.702 38.5585L172.172 32.1517V27.2814L190.44 37.2909V40.2331L172.172 49.1211V44.2738Z" fill="white"/>
<g opacity="0.3">
<path d="M171.588 67.2044C166.38 55.7352 171.642 45.1342 164.613 37.7749C157.546 30.3848 148.481 37.2909 138.878 31.3758C135.206 29.1173 131.143 24.7847 128.147 15.866C122.969 22.2189 119.919 30.0545 119.919 38.497C119.919 58.9463 138.033 76.054 161.148 76.73C166.572 76.8913 171.796 76.1308 176.651 74.6098C174.254 72.1208 172.671 69.5781 171.588 67.2044Z" fill="url(#paint13_linear_147_563)"/>
</g>
<defs>
<linearGradient id="paint0_linear_147_563" x1="33.1028" y1="4.96657" x2="69.5712" y2="121.002" gradientUnits="userSpaceOnUse">
<stop stop-color="#FFE192"/>
<stop offset="1" stop-color="#FFC221"/>
</linearGradient>
<linearGradient id="paint1_linear_147_563" x1="99.8798" y1="338.966" x2="91.851" y2="303.545" gradientUnits="userSpaceOnUse">
<stop stop-color="#FFE08F"/>
<stop offset="1" stop-color="#FFC221"/>
</linearGradient>
<linearGradient id="paint2_linear_147_563" x1="65.054" y1="92.7592" x2="12.9617" y2="135.549" gradientUnits="userSpaceOnUse">
<stop stop-color="#FFDC81"/>
<stop offset="1" stop-color="#FFC221"/>
</linearGradient>
<linearGradient id="paint3_linear_147_563" x1="98.5746" y1="200.9" x2="83.3543" y2="207.293" gradientUnits="userSpaceOnUse">
<stop stop-color="#40447E"/>
<stop offset="0.9964" stop-color="#3C3B6B"/>
</linearGradient>
<linearGradient id="paint4_linear_147_563" x1="73.8101" y1="133.237" x2="58.0292" y2="139.865" gradientUnits="userSpaceOnUse">
<stop stop-color="#40447E"/>
<stop offset="0.9964" stop-color="#3C3B6B"/>
</linearGradient>
<linearGradient id="paint5_linear_147_563" x1="7.06856" y1="137.058" x2="150.88" y2="137.058" gradientUnits="userSpaceOnUse">
<stop stop-color="#40447E"/>
<stop offset="0.9964" stop-color="#3C3B6B"/>
</linearGradient>
<linearGradient id="paint6_linear_147_563" x1="16.3058" y1="183.42" x2="162.291" y2="64.542" gradientUnits="userSpaceOnUse">
<stop stop-color="#82C2FF"/>
<stop offset="0.9964" stop-color="#0071DC"/>
</linearGradient>
<linearGradient id="paint7_linear_147_563" x1="7.06856" y1="194.18" x2="223.715" y2="194.18" gradientUnits="userSpaceOnUse">
<stop stop-color="#40447E"/>
<stop offset="0.9964" stop-color="#3C3B6B"/>
</linearGradient>
<linearGradient id="paint8_linear_147_563" x1="28.314" y1="192.389" x2="187.049" y2="192.389" gradientUnits="userSpaceOnUse">
<stop stop-color="#40447E"/>
<stop offset="0.9964" stop-color="#3C3B6B"/>
</linearGradient>
<linearGradient id="paint9_linear_147_563" x1="144.831" y1="-1.26372" x2="16.3674" y2="255.663" gradientUnits="userSpaceOnUse">
<stop offset="0.00359712" stop-color="#8FB8DF"/>
<stop offset="1" stop-color="#0071DC"/>
</linearGradient>
<linearGradient id="paint10_linear_147_563" x1="89.2702" y1="-9.28753" x2="111.591" y2="79.9968" gradientUnits="userSpaceOnUse">
<stop offset="0.00359712" stop-color="#91BDE7"/>
<stop offset="1" stop-color="#0071DC"/>
</linearGradient>
<linearGradient id="paint11_linear_147_563" x1="108.759" y1="-75.9143" x2="172.097" y2="51.1892" gradientUnits="userSpaceOnUse">
<stop stop-color="#FFC444"/>
<stop offset="0.9964" stop-color="#F36F56"/>
</linearGradient>
<linearGradient id="paint12_linear_147_563" x1="146.006" y1="7.5713" x2="207.527" y2="121.673" gradientUnits="userSpaceOnUse">
<stop stop-color="#FFC444"/>
<stop offset="0.9964" stop-color="#F36F56"/>
</linearGradient>
<linearGradient id="paint13_linear_147_563" x1="129.111" y1="15.1541" x2="188.877" y2="135.089" gradientUnits="userSpaceOnUse">
<stop stop-color="#FFC444"/>
<stop offset="0.9964" stop-color="#F36F56"/>
</linearGradient>
</defs>
</svg>
