<svg width="146" height="145" viewBox="0 0 146 145" fill="none" xmlns="http://www.w3.org/2000/svg">
<path d="M5.21981 121.397C2.34759 121.567 0 119.558 0 116.919V21.8656C0 19.2266 2.34759 17.1704 5.21981 17.2711L140.834 22.1942C143.034 22.2737 144.814 24.2026 144.814 26.4919V109.087C144.814 111.376 143.034 113.348 140.834 113.475L5.21981 121.397Z" fill="url(#paint0_linear_147_1457)"/>
<path d="M93.6389 131.916C91.4715 131.164 89.8499 129.23 89.3942 126.861L86.2411 110.481L59.2518 111.488L55.9291 128.557C55.4628 130.947 57.3281 133.347 59.469 134.227L70.7618 138.864C72.8604 139.728 75.1179 140.067 77.3648 139.865L101.228 137.724C101.927 137.661 102.483 137.088 102.568 136.347C102.648 135.61 103.141 134.778 102.473 134.55L93.6389 131.916Z" fill="url(#paint1_linear_147_1457)"/>
<path d="M93.9036 130.92C91.7362 130.173 90.1199 128.27 89.6642 125.928L86.5111 109.749L60.1789 110.746L56.8615 127.597C56.3952 129.956 57.6246 132.324 59.7708 133.194L71.053 137.772C73.1516 138.625 75.4038 138.964 77.6454 138.763L101.482 136.649C102.176 136.585 102.738 136.018 102.817 135.292C102.897 134.561 102.478 133.877 101.815 133.649L93.9036 130.92Z" fill="url(#paint2_linear_147_1457)"/>
<path d="M6.29599 121.397C3.42376 121.567 1.07617 119.558 1.07617 116.919V21.8657C1.07617 19.2266 3.42376 17.1705 6.29599 17.2712L141.91 22.1942C144.11 22.2737 145.89 24.2027 145.89 26.492V109.087C145.89 111.376 144.11 113.348 141.91 113.475L6.29599 121.397Z" fill="url(#paint3_linear_147_1457)"/>
<path d="M141.91 24.1391L6.29573 19.4916C4.75894 19.4387 3.5083 20.5356 3.5083 21.9452V95.897V116.787C3.5083 118.196 4.75894 119.267 6.29573 119.182L141.91 111.53C143.087 111.461 144.041 110.412 144.041 109.182V90.3063V26.4337C144.041 25.2043 143.087 24.1762 141.91 24.1391Z" fill="url(#paint4_linear_147_1457)"/>
<path d="M6.29583 111.101C5.69701 111.133 5.20947 110.709 5.20947 110.157V21.9982C5.20947 21.4524 5.69701 21.0179 6.29583 21.0391L141.91 25.4958C142.371 25.5117 142.742 25.9144 142.742 26.3914V103.533C142.742 104.01 142.371 104.424 141.91 104.445L6.29583 111.101Z" fill="url(#paint5_linear_147_1457)"/>
<path opacity="0.68" d="M137.295 99.6912L12.2417 105.187V34.2183L137.295 36.8415V99.6912Z" fill="white"/>
<path d="M137.295 34.6954L12.2417 31.7913V25.7289L137.295 29.3272V34.6954Z" fill="url(#paint6_linear_147_1457)"/>
<path d="M127.793 31.7648C127.793 32.1464 127.491 32.4537 127.12 32.4431C126.749 32.4325 126.447 32.1146 126.447 31.733C126.447 31.3515 126.749 31.0441 127.12 31.0547C127.491 31.06 127.793 31.378 127.793 31.7648Z" fill="url(#paint7_linear_147_1457)"/>
<path d="M130.565 31.8337C130.565 32.2152 130.263 32.5173 129.892 32.5067C129.521 32.4961 129.219 32.1781 129.219 31.7966C129.219 31.415 129.521 31.113 129.892 31.1236C130.263 31.1342 130.565 31.4521 130.565 31.8337Z" fill="url(#paint8_linear_147_1457)"/>
<path d="M133.315 31.9079C133.315 32.2894 133.018 32.5915 132.647 32.5809C132.276 32.5703 131.979 32.2523 131.979 31.8708C131.979 31.4892 132.276 31.1872 132.647 31.1978C133.018 31.2084 133.315 31.5263 133.315 31.9079Z" fill="url(#paint9_linear_147_1457)"/>
<path opacity="0.68" d="M111.985 88.3666L14.9707 91.4137V36.0572L111.985 37.9384V88.3666Z" fill="white"/>
<path opacity="0.68" d="M135.959 52.5962L113.681 52.4902V37.9702L135.959 38.3994V52.5962Z" fill="white"/>
<path d="M135.959 55.1982L113.681 55.1505V54.0641L135.959 54.133V55.1982Z" fill="white"/>
<path d="M127.666 57.0319H113.681V55.9455L127.666 55.9614V57.0319Z" fill="white"/>
<path opacity="0.68" d="M135.959 73.4225L113.681 73.7988V59.2734L135.959 59.2257V73.4225Z" fill="white"/>
<path d="M135.959 76.0244L113.681 76.4589V75.3673L135.959 74.9592V76.0244Z" fill="white"/>
<path d="M127.666 78.0382L113.681 78.3349V77.2486L127.666 76.9624V78.0382Z" fill="white"/>
<path opacity="0.68" d="M135.959 94.2488L113.681 95.102V80.5766L135.959 80.0519V94.2488Z" fill="white"/>
<path d="M135.959 96.8507L113.681 97.7622V96.6705L135.959 95.7855V96.8507Z" fill="white"/>
<path d="M127.666 99.0393L113.681 99.6382V98.5518L127.666 97.9689V99.0393Z" fill="white"/>
<path d="M82.1076 95.1548L14.9707 97.6455V94.0102L82.1076 91.7421V95.1548Z" fill="white"/>
<path d="M111.985 94.0473L102.404 94.4023V91.0532L111.985 90.7299V94.0473Z" fill="white"/>
<path d="M100.925 94.4553L91.1323 94.821V91.4347L100.925 91.1061V94.4553Z" fill="white"/>
<path d="M45.6855 100.783L14.9707 102.044V100.226L45.6855 99.0127V100.783Z" fill="white"/>
<path opacity="0.5" d="M122.531 1.26186L32.098 0.000621651C28.5315 -0.0470721 25.6328 2.65558 25.6328 6.03653V38.4736C25.6328 41.8598 28.5315 44.5731 32.098 44.536L122.531 43.6192C125.742 43.5874 128.339 40.9696 128.339 37.7741V7.12819C128.339 3.93271 125.742 1.30425 122.531 1.26186Z" fill="url(#paint10_linear_147_1457)"/>
<path opacity="0.5" d="M32.0981 40.3125C31.0011 40.3231 30.1108 39.4805 30.1108 38.4418V6.08428C30.1108 5.04561 31.0011 4.20832 32.0981 4.22422L122.531 5.27878C123.522 5.28938 124.327 6.10017 124.327 7.09114V37.8006C124.327 38.7863 123.522 39.5971 122.531 39.6024L32.0981 40.3125Z" fill="url(#paint11_linear_147_1457)"/>
<path opacity="0.61" d="M61.7795 7.43553L36.1945 7.17587C34.9068 7.16527 33.8628 8.14564 33.8628 9.36978V34.0486C33.8628 35.2728 34.9068 36.2584 36.1945 36.2478L61.7795 36.1048C63.0302 36.0995 64.0423 35.1138 64.0423 33.9109V9.63474C64.037 8.4318 63.0249 7.44613 61.7795 7.43553Z" fill="white"/>
<path d="M118.44 18.474L72.606 18.2833V15.3898L118.44 15.6548V18.474Z" fill="white"/>
<path d="M118.44 23.3017L72.606 23.2381V20.35L118.44 20.4878V23.3017Z" fill="white"/>
<path d="M105.658 28.1505L72.606 28.1982V25.3048L105.658 25.3154V28.1505Z" fill="white"/>
<path d="M130.098 36.7407C129.584 37.4614 129.07 38.1768 128.556 38.8975C130.813 40.5774 133.532 43.1634 133.484 46.2953C133.415 51.0223 127.109 52.5538 126.706 57.3868C126.298 62.2833 132.138 68.2927 135.954 67.5561C140.813 66.6181 145.132 54.186 140.575 45.3679C137.676 39.7613 132.143 37.472 130.098 36.7407Z" fill="url(#paint12_linear_147_1457)"/>
<path d="M129.722 38.6272C129.722 38.6272 128.063 38.0549 127.581 37.4931C127.099 36.9314 127.507 34.976 127.528 33.418C127.549 31.86 128.265 34.1175 128.429 34.6262C128.593 35.1349 128.477 36.322 129.748 37.2441L129.722 38.6272Z" fill="url(#paint13_linear_147_1457)"/>
<path d="M125.864 48.166C125.265 46.9842 125.016 46.9895 124.867 46.3642C124.533 44.944 125.397 43.1369 126.134 43.1104C126.606 43.0945 126.648 43.8311 127.649 44.9811C128.879 46.3907 129.626 46.2052 130.347 47.4241C130.516 47.7102 131.279 48.9979 130.808 49.9571C130.209 51.1813 127.851 51.3773 126.865 50.4288C126.404 49.9836 126.6 49.6233 125.864 48.166Z" fill="url(#paint14_linear_147_1457)"/>
<path d="M127.629 49.4377C127.629 49.4377 127.21 51.6846 127.507 53.5129C127.777 55.1663 130.835 56.8779 131.423 57.3708C132.011 57.8636 129.87 58.3988 127.904 58.1392C125.938 57.8848 120.559 56.1625 119.743 55.2034C118.927 54.2442 120.697 54.7158 122.181 54.5357C123.67 54.3555 125.09 51.8595 125.133 50.5877C125.18 49.3158 127.629 49.4377 127.629 49.4377Z" fill="url(#paint15_linear_147_1457)"/>
<path d="M126.987 51.1177C126.987 51.1177 125.482 51.7801 124.152 50.7149C122.96 49.761 124.735 46.8305 125.943 46.7934C126.346 46.7828 126.94 47.069 127.289 47.4929C127.496 47.742 127.507 47.9116 127.851 48.3143C128.169 48.6853 128.307 48.7171 128.354 48.8973C128.413 49.1251 128.312 49.5014 127.496 50.1479C127.904 50.0737 128.254 50.1797 128.392 50.4182C128.413 50.4553 128.46 50.5718 128.445 50.6937C128.397 51.1389 127.819 51.3455 126.987 51.1177Z" fill="url(#paint16_linear_147_1457)"/>
<path d="M83.1727 44.7055C83.1727 44.7055 82.2718 44.8856 81.9645 43.1475C81.726 41.7856 81.4133 41.4093 81.1908 41.7432C80.9682 42.077 81.1855 42.8348 81.1855 42.8348C81.1855 42.8348 79.7494 42.2784 78.8591 41.1973C77.9688 40.1163 78.043 41.2609 78.1596 41.918C78.2761 42.5699 79.6964 44.2338 80.2475 44.4458C80.7986 44.6578 81.9645 46.0197 81.9645 46.0197L83.1727 44.7055Z" fill="url(#paint17_linear_147_1457)"/>
<path d="M112.525 141.031C112.992 141.985 112.864 142.398 112.748 142.578C112.403 143.108 111.582 142.61 109.436 142.865C109.181 142.896 108.705 142.96 108.1 142.817C107.586 142.695 106.982 142.419 107.003 142.282C107.014 142.234 107.104 142.213 107.141 142.202C107.74 142.075 111.471 140.93 111.471 140.93L112.525 141.031Z" fill="url(#paint18_linear_147_1457)"/>
<path d="M113.331 139.118L112.7 140.803C112.605 141.063 112.366 141.243 112.091 141.264C111.81 141.285 111.508 141.206 111.466 140.771C111.413 140.183 111.725 138.689 111.725 138.689L113.331 139.118Z" fill="url(#paint19_linear_147_1457)"/>
<path d="M138.402 136.304L139.303 138.763L140.612 138.556L140.31 136.278L138.402 136.304Z" fill="url(#paint20_linear_147_1457)"/>
<path d="M139.711 140.12C140.347 139.367 140.909 139.436 141.025 138.917C141.115 138.509 140.866 138.01 140.49 137.825C139.966 137.56 139.324 137.973 139.181 138.069C138.201 138.705 138.466 139.701 137.544 140.135C137.358 140.22 137.062 140.316 136.754 140.607C136.622 140.729 136.293 141.036 136.373 141.248C136.463 141.492 137.046 141.481 137.597 141.476C138.259 141.466 138.593 141.46 138.911 141.264C139.356 140.983 139.224 140.697 139.711 140.12Z" fill="url(#paint21_linear_147_1457)"/>
<path d="M136.341 84.9432C137.104 89.8609 137.263 94.1587 137.167 97.7092C137.067 101.53 136.728 102.245 136.95 104.831C137.438 110.459 139.367 110.926 140.84 117.121C142.467 123.957 141.64 129.786 141.301 132.012C141.004 133.956 140.617 135.557 140.31 136.675C139.78 137.343 138.773 137.311 137.713 137.29C136.187 131.095 134.64 125.287 133.113 119.092C130.172 109.892 127.231 100.693 124.29 91.4931C128.307 89.3098 132.324 87.1265 136.341 84.9432Z" fill="url(#paint22_linear_147_1457)"/>
<path opacity="0.3" d="M137.713 137.29C136.187 131.095 134.64 125.287 133.113 119.092C130.172 109.892 127.231 100.693 124.29 91.4931C128.307 89.3098 132.324 87.1265 136.341 84.9432C136.394 85.2664 136.431 85.5844 136.478 85.9024C131.439 92.2085 131.02 96.5487 131.598 99.352C132.297 102.754 134.47 104.1 135.016 109.113C135.403 112.701 134.454 113.517 135.042 116.707C135.795 120.819 137.983 122.807 139.282 125.022C140.532 127.163 141.428 130.364 140.67 135.281C140.548 135.795 140.426 136.262 140.315 136.659C139.78 137.343 138.773 137.306 137.713 137.29Z" fill="url(#paint23_linear_147_1457)"/>
<path d="M129.346 90.926C129.25 93.2842 128.858 96.8506 127.327 100.841C125.271 106.188 123.018 107.465 122.086 111.932C121.111 116.596 122.897 118.424 122.987 122.722C123.071 126.744 121.662 132.499 114.688 139.669C113.559 139.568 112.43 139.462 111.296 139.362C112.203 135.885 113.406 130.464 114.015 123.676C114.317 120.279 114.359 117.793 114.381 116.866C114.508 111.228 115.313 101.636 118.302 84.3337C121.98 86.5276 125.663 88.7268 129.346 90.926Z" fill="url(#paint24_linear_147_1457)"/>
<path d="M81.0952 45.368C81.8159 44.9546 82.5313 44.5466 83.252 44.1332C91.2116 51.9603 98.1484 54.1171 103.029 54.6312C110.4 55.4102 115.546 52.416 125.376 54.4563C128.471 55.0975 133.871 56.2951 136.865 60.7095C137.649 61.87 137.93 62.7444 139.239 71.0643C140.908 81.7 140.967 83.5548 140.734 85.8441C140.304 90.0358 140.039 92.5742 138.11 94.8211C132.981 100.788 122.075 97.7092 120.708 97.3065C118.18 96.5593 114.258 95.3934 112.7 92.0601C111.545 89.5854 112.785 88.1281 113.172 83.311C113.368 80.8839 113.977 73.3006 110.374 68.7856C107.788 65.5424 104.184 65.3464 100.666 64.2441C95.0854 62.5059 87.9048 57.9326 81.0952 45.368Z" fill="url(#paint25_linear_147_1457)"/>
<g opacity="0.3">
<path d="M133.5 91.9807C130.501 89.278 128.731 90.1047 126.908 87.9585C122.684 82.9931 128.969 74.8268 125.265 70.9106C122.297 67.7735 116.633 71.2763 113.395 67.5615C111.248 65.0973 113.183 62.914 111.275 60.365C108.254 56.327 101.487 59.2204 92.6319 56.6873C90.5493 56.0885 88.6999 55.2936 87.0889 54.4298C91.9536 60.3544 96.7124 63.0147 100.666 64.2547C104.19 65.357 107.788 65.553 110.374 68.7962C113.978 73.3059 113.368 80.8945 113.172 83.3216C112.785 88.1387 111.545 89.596 112.7 92.0708C114.258 95.4093 118.185 96.5699 120.708 97.3171C121.958 97.688 131.174 100.285 136.669 96.1724C135.922 94.7045 134.905 93.2525 133.5 91.9807Z" fill="url(#paint26_linear_147_1457)"/>
</g>
<path d="M44.4032 140.602C44.4032 140.602 50.0311 143.161 50.1212 143.569C50.2112 143.978 46.5017 143.432 44.9861 143.49C43.4705 143.548 42.2252 143.103 42.363 142.462C42.5008 141.821 43.0307 140.204 43.0307 140.204L44.4032 140.602Z" fill="url(#paint27_linear_147_1457)"/>
<path d="M44.6099 138.525L44.2654 141.058C44.2654 141.058 43.3752 141.376 42.7763 140.999L42.522 138.222L44.6099 138.525Z" fill="url(#paint28_linear_147_1457)"/>
<path d="M18.1082 138.588L17.4564 139.637C17.2709 139.929 17.2179 140.284 17.308 140.618C17.5359 141.492 17.9916 143.193 18.193 143.638C18.4633 144.242 22.1039 144.603 22.1039 144.603C22.1039 144.603 22.4271 144.147 21.6746 143.596C20.9168 143.045 20.4346 142.955 20.1643 142.144C19.8994 141.328 19.7192 139.028 19.7192 139.028L18.1082 138.588Z" fill="url(#paint29_linear_147_1457)"/>
<path d="M20.8317 135.917C20.5933 136.108 19.4221 139.659 19.4221 139.659C19.4221 139.659 19.0459 140.141 18.3252 139.431C17.6045 138.715 18.0019 139.113 18.0019 139.113L18.1344 135.621L20.8317 135.917Z" fill="url(#paint30_linear_147_1457)"/>
<path d="M47.7046 87.63C48.0013 95.1868 48.0119 103.395 47.5774 112.166C47.0899 122.044 46.1042 131.169 44.8642 139.447C44.4031 139.463 43.9209 139.463 43.4121 139.452C43.073 139.441 42.7391 139.425 42.4212 139.404C41.78 137.687 41.0169 135.43 40.3386 132.738C39.6231 129.903 39.1886 127.359 38.8812 124.932C37.8002 116.373 39.0667 115.626 38.187 109.283C37.408 103.666 36.3005 103.443 35.0022 95.4677C33.5925 86.8139 34.6418 85.5156 35.1505 85.044C37.3232 83.0461 42.4318 84.408 47.7046 87.63Z" fill="url(#paint31_linear_147_1457)"/>
<path opacity="0.3" d="M35.1507 85.044C37.2227 83.1415 41.9656 84.2915 46.9734 87.2008C41.2131 93.4275 40.5825 97.4656 41.2767 100.083C42.0557 103.046 44.4298 103.899 44.4192 107.137C44.4086 111.117 40.8156 112.171 40.8951 116.379C40.9481 119.161 42.522 119.134 42.8983 122.574C43.3381 126.644 41.2767 128.043 41.9444 131.058C42.2305 132.351 43.0519 134.047 45.3889 135.79C45.2194 137.025 45.0498 138.249 44.8696 139.452C44.4086 139.468 43.9263 139.468 43.4176 139.457C43.0784 139.447 42.7446 139.431 42.4266 139.41C41.7854 137.693 41.0223 135.435 40.344 132.743C39.6286 129.908 39.194 127.364 38.8867 124.937C37.8056 116.379 39.0722 115.632 38.1925 109.288C37.4135 103.671 36.3059 103.448 35.0076 95.473C33.5927 86.8087 34.6419 85.5103 35.1507 85.044Z" fill="url(#paint32_linear_147_1457)"/>
<path d="M44.1329 87.5029C39.1728 94.7629 33.8205 103.798 29.0352 114.609C25.4211 122.78 22.7979 130.454 20.869 137.29C20.6093 137.412 19.9946 137.65 19.2103 137.55C18.1398 137.406 17.4986 136.723 17.329 136.532C16.5447 131.63 16.6295 127.481 16.8998 124.481C17.0694 122.563 17.3714 119.368 18.5956 115.425C19.9628 111.005 20.9061 110.762 22.6919 106.088C24.5467 101.239 24.0963 100.025 25.8715 93.9575C26.6028 91.4615 27.8217 87.752 29.8354 83.3112C34.6048 84.7049 39.3689 86.1039 44.1329 87.5029Z" fill="url(#paint33_linear_147_1457)"/>
<path d="M67.0417 96.713C66.0879 98.1968 62.8023 98.022 60.5607 97.2218C55.3144 95.3458 51.9599 88.6793 51.6631 83.3694C51.5995 82.23 51.6419 81.1172 51.4088 81.0801C50.8259 80.9953 49.3367 87.8844 48.1656 93.7242C47.2223 94.0687 45.7968 94.4343 44.1646 94.1694C41.4938 93.7295 41.1758 92.0761 38.1923 90.9951C36.4488 90.3645 34.7425 90.3645 31.3297 90.3592C27.4771 90.3539 27.3711 90.8308 26.6292 90.4863C26.6292 90.4863 26.4438 90.3857 26.2901 90.2744C23.545 88.303 31.3986 73.3325 29.1358 59.5172C28.8867 57.9804 28.4999 56.4065 29.3584 54.8697C31.5735 50.8952 40.3332 50.3388 45.7597 52.9514C47.2488 53.6668 49.7395 55.2354 51.9652 56.8888C52.8555 57.5512 53.7776 58.2878 54.742 59.1304C57.079 61.1759 58.7112 62.5961 60.0519 64.5727C65.4625 72.5323 59.2094 79.167 64.1165 89.3523C65.807 92.8445 68.038 95.1603 67.0417 96.713Z" fill="url(#paint34_linear_147_1457)"/>
<path d="M52.4902 51.5153C52.4902 51.5153 51.0806 53.1157 49.565 53.9424C48.1978 54.6896 45.1825 53.4284 44.4829 53.28C43.7834 53.1316 44.6207 55.0129 45.9403 56.3059C47.2545 57.5989 51.6105 60.5612 52.7817 60.6142C53.9581 60.6619 52.5909 59.6339 51.8702 58.4362C51.1495 57.2386 52.1669 54.7638 53.0731 54.0007C53.9899 53.2429 52.4902 51.5153 52.4902 51.5153Z" fill="url(#paint35_linear_147_1457)"/>
<path d="M64.9272 96.66C64.9272 96.66 66.9516 97.6245 68.3824 97.8312C69.8132 98.0326 70.1259 99.1772 69.7284 99.6011C69.331 100.02 67.0523 99.5588 66.2892 99.1348C65.5314 98.7003 64.9272 96.66 64.9272 96.66Z" fill="url(#paint36_linear_147_1457)"/>
<path d="M55.7278 52.7661C57.3282 52.6442 58.9392 50.6781 58.616 49.8143C58.5206 49.5706 58.3139 49.5282 55.1873 49.0142C53.6346 48.7598 52.8556 48.6538 52.3204 49.083C51.9918 49.3427 51.7375 49.8143 51.658 50.2542C51.6156 50.4821 51.6156 50.7947 51.6527 51.42C51.6898 51.9712 51.6792 51.95 51.6898 52.1142C51.7269 52.5064 51.8329 53.1953 52.2144 54.1545C52.3734 53.9796 52.5854 53.7729 52.8503 53.5663C52.951 53.4868 53.3591 53.1794 53.8201 52.9939C54.6097 52.6707 55.2085 52.8031 55.7278 52.7661Z" fill="url(#paint37_linear_147_1457)"/>
<path d="M51.6264 53.084C51.6264 53.084 51.6953 54.6155 53.1367 55.2832C54.4297 55.882 56.1414 53.19 55.6698 52.1619C55.5108 51.8174 55.0233 51.4465 54.5251 51.3299C54.2284 51.261 54.0853 51.3193 53.6084 51.1974C53.1685 51.0861 53.0784 50.9854 52.9088 51.0172C52.6969 51.0596 52.4213 51.3034 52.2199 52.252C52.1139 51.881 51.8808 51.632 51.6264 51.6161C51.584 51.6161 51.4674 51.6267 51.372 51.685C51.0223 51.9128 51.0912 52.4799 51.6264 53.084Z" fill="url(#paint38_linear_147_1457)"/>
<path d="M85.87 75.4417L15.0448 76.1465C14.3029 76.1571 13.7041 76.7241 13.7041 77.4236V98.5043C13.7041 99.1985 14.3082 99.7443 15.0448 99.7284L85.87 97.5557C86.5218 97.5398 87.0465 96.994 87.0465 96.3475V76.6128C87.0465 75.9557 86.5218 75.4364 85.87 75.4417Z" fill="url(#paint39_linear_147_1457)"/>
<path opacity="0.48" d="M83.8194 77.6144L17.3609 78.404C16.6825 78.4146 16.1367 78.9339 16.1367 79.5698V96.2626C16.1367 96.8985 16.6878 97.3967 17.3609 97.3808L83.8194 95.4624C84.4182 95.4465 84.9005 94.9537 84.9005 94.3549V78.6795C84.9058 78.0807 84.4182 77.6038 83.8194 77.6144Z" fill="white"/>
<path d="M17.1435 83.947C14.9814 82.8871 10.318 80.1739 8.88191 75.1766C6.49193 66.8567 14.9867 58.9237 19.3692 55.9561C24.3983 52.5539 29.4485 52.0028 32.5168 51.6689C36.327 51.2556 38.6481 51.0012 40.3969 52.432C44.9119 56.1309 42.1986 68.3299 37.726 69.5859C36.2634 69.9992 35.707 68.9288 32.644 68.1869C31.6477 67.9484 24.1916 66.1519 20.3178 70.0946C17.6046 72.8555 17.2601 77.7998 19.1732 82.4208C18.5001 82.9348 17.8218 83.4436 17.1435 83.947Z" fill="url(#paint40_linear_147_1457)"/>
<path d="M17.5781 83.6237L18.7228 82.7653C18.7228 82.7653 19.4382 83.2634 20.3179 83.1945C20.7948 83.1574 21.4307 83.4436 21.5738 83.5972C21.7169 83.7509 22.3846 84.1113 21.4307 84.0212C20.4768 83.9258 20.3232 84.1908 20.4556 84.6677C20.5881 85.1446 21.383 86.4801 21.7911 86.7662C22.1938 87.0524 21.0333 87.2432 20.5616 87.0683C20.0847 86.8934 19.3216 86.5755 18.7652 85.5421C18.5585 85.1605 17.5781 83.6237 17.5781 83.6237Z" fill="url(#paint41_linear_147_1457)"/>
<defs>
<linearGradient id="paint0_linear_147_1457" x1="15.13" y1="71.3959" x2="39.1798" y2="68.8832" gradientUnits="userSpaceOnUse">
<stop offset="0.003597" stop-color="#0071DC"/>
<stop offset="1" stop-color="#82C2FF"/>
</linearGradient>
<linearGradient id="paint1_linear_147_1457" x1="66.397" y1="144.869" x2="71.4925" y2="137.57" gradientUnits="userSpaceOnUse">
<stop stop-color="#444B8C"/>
<stop offset="0.9964" stop-color="#26264F"/>
</linearGradient>
<linearGradient id="paint2_linear_147_1457" x1="81.8215" y1="142.998" x2="74.023" y2="100.664" gradientUnits="userSpaceOnUse">
<stop stop-color="#444B8C"/>
<stop offset="0.9964" stop-color="#26264F"/>
</linearGradient>
<linearGradient id="paint3_linear_147_1457" x1="101.06" y1="26.1314" x2="140.085" y2="-29.5673" gradientUnits="userSpaceOnUse">
<stop stop-color="#444B8C"/>
<stop offset="0.9964" stop-color="#26264F"/>
</linearGradient>
<linearGradient id="paint4_linear_147_1457" x1="84.1092" y1="32.7449" x2="35.2931" y2="187.791" gradientUnits="userSpaceOnUse">
<stop stop-color="#444B8C"/>
<stop offset="0.9964" stop-color="#26264F"/>
</linearGradient>
<linearGradient id="paint5_linear_147_1457" x1="107.75" y1="6.8437" x2="-7.82861" y2="198.232" gradientUnits="userSpaceOnUse">
<stop stop-color="#FFDF89"/>
<stop offset="1" stop-color="#DBDBDB"/>
</linearGradient>
<linearGradient id="paint6_linear_147_1457" x1="74.6705" y1="31.0168" x2="71.9701" y2="53.3703" gradientUnits="userSpaceOnUse">
<stop stop-color="#444B8C"/>
<stop offset="0.9964" stop-color="#26264F"/>
</linearGradient>
<linearGradient id="paint7_linear_147_1457" x1="133.113" y1="19.0547" x2="127.539" y2="30.8584" gradientUnits="userSpaceOnUse">
<stop stop-color="#FFDA77"/>
<stop offset="1" stop-color="#FFC221"/>
</linearGradient>
<linearGradient id="paint8_linear_147_1457" x1="135.353" y1="20.2532" x2="129.797" y2="32.0181" gradientUnits="userSpaceOnUse">
<stop stop-color="#FFDE88"/>
<stop offset="1" stop-color="#FFC221"/>
</linearGradient>
<linearGradient id="paint9_linear_147_1457" x1="137.58" y1="21.4438" x2="132.042" y2="33.1704" gradientUnits="userSpaceOnUse">
<stop stop-color="#FFDE88"/>
<stop offset="1" stop-color="#FFC221"/>
</linearGradient>
<linearGradient id="paint10_linear_147_1457" x1="50.2449" y1="-9.43247" x2="122.347" y2="77.4795" gradientUnits="userSpaceOnUse">
<stop offset="0.00359712" stop-color="#A0D1FF"/>
<stop offset="1" stop-color="#0071DC"/>
</linearGradient>
<linearGradient id="paint11_linear_147_1457" x1="129.566" y1="-34.2197" x2="-44.9306" y2="152.989" gradientUnits="userSpaceOnUse">
<stop offset="0.00359712" stop-color="#A2D2FF"/>
<stop offset="1" stop-color="#0071DC"/>
</linearGradient>
<linearGradient id="paint12_linear_147_1457" x1="133.891" y1="52.1574" x2="141.422" y2="82.8374" gradientUnits="userSpaceOnUse">
<stop stop-color="#80C1FF"/>
<stop offset="0.9964" stop-color="#0071DC"/>
</linearGradient>
<linearGradient id="paint13_linear_147_1457" x1="133.767" y1="47.5375" x2="128.118" y2="36.1354" gradientUnits="userSpaceOnUse">
<stop offset="0.003597" stop-color="#FFD197"/>
<stop offset="1" stop-color="#FFD296"/>
</linearGradient>
<linearGradient id="paint14_linear_147_1457" x1="127.936" y1="49.4739" x2="127.68" y2="40.7784" gradientUnits="userSpaceOnUse">
<stop stop-color="#2E2E2E"/>
<stop offset="1" stop-color="#2E2E2E"/>
</linearGradient>
<linearGradient id="paint15_linear_147_1457" x1="126.054" y1="36.5731" x2="125.372" y2="62.122" gradientUnits="userSpaceOnUse">
<stop offset="0.003597" stop-color="#FFD296"/>
<stop offset="1" stop-color="#FFD197"/>
</linearGradient>
<linearGradient id="paint16_linear_147_1457" x1="132.714" y1="45.395" x2="124.276" y2="50.5719" gradientUnits="userSpaceOnUse">
<stop offset="0.003597" stop-color="#FFD197"/>
<stop offset="1" stop-color="#FFD197"/>
</linearGradient>
<linearGradient id="paint17_linear_147_1457" x1="85.2154" y1="50.5516" x2="81.0038" y2="43.7719" gradientUnits="userSpaceOnUse">
<stop offset="0.003597" stop-color="#FFD197"/>
<stop offset="1" stop-color="#FFD196"/>
</linearGradient>
<linearGradient id="paint18_linear_147_1457" x1="108.163" y1="148.408" x2="112.533" y2="133.25" gradientUnits="userSpaceOnUse">
<stop stop-color="#2E2E2E"/>
<stop offset="0.9964" stop-color="#2E2E2E"/>
</linearGradient>
<linearGradient id="paint19_linear_147_1457" x1="111.29" y1="145.318" x2="115.886" y2="121.506" gradientUnits="userSpaceOnUse">
<stop stop-color="#FFD296"/>
<stop offset="0.9964" stop-color="#FFD197"/>
</linearGradient>
<linearGradient id="paint20_linear_147_1457" x1="139.569" y1="141.853" x2="139.234" y2="117.603" gradientUnits="userSpaceOnUse">
<stop stop-color="#FFD197"/>
<stop offset="0.9964" stop-color="#FFD197"/>
</linearGradient>
<linearGradient id="paint21_linear_147_1457" x1="137.895" y1="142.793" x2="142.265" y2="127.636" gradientUnits="userSpaceOnUse">
<stop stop-color="#2E2E2E"/>
<stop offset="0.9964" stop-color="#2E2E2E"/>
</linearGradient>
<linearGradient id="paint22_linear_147_1457" x1="131.153" y1="91.3548" x2="144.103" y2="139.817" gradientUnits="userSpaceOnUse">
<stop stop-color="#311944"/>
<stop offset="1" stop-color="#2E2E2E"/>
</linearGradient>
<linearGradient id="paint23_linear_147_1457" x1="131.153" y1="91.3548" x2="144.103" y2="139.817" gradientUnits="userSpaceOnUse">
<stop stop-color="#86C4FF"/>
<stop offset="0.9964" stop-color="#0071DC"/>
</linearGradient>
<linearGradient id="paint24_linear_147_1457" x1="90.0732" y1="113.566" x2="139.449" y2="110.638" gradientUnits="userSpaceOnUse">
<stop stop-color="#2E2E2E"/>
<stop offset="1" stop-color="#2E2E2E"/>
</linearGradient>
<linearGradient id="paint25_linear_147_1457" x1="110.372" y1="57.9303" x2="117.903" y2="88.6102" gradientUnits="userSpaceOnUse">
<stop stop-color="#7CBFFF"/>
<stop offset="0.9964" stop-color="#0071DC"/>
</linearGradient>
<linearGradient id="paint26_linear_147_1457" x1="102.939" y1="57.6892" x2="131.29" y2="100.832" gradientUnits="userSpaceOnUse">
<stop stop-color="#85C4FF"/>
<stop offset="0.9964" stop-color="#0071DC"/>
</linearGradient>
<linearGradient id="paint27_linear_147_1457" x1="47.1281" y1="131.728" x2="45.7303" y2="149.518" gradientUnits="userSpaceOnUse">
<stop stop-color="#2E2E2E"/>
<stop offset="1" stop-color="#2E2E2E"/>
</linearGradient>
<linearGradient id="paint28_linear_147_1457" x1="43.5195" y1="141.633" x2="43.7737" y2="123.207" gradientUnits="userSpaceOnUse">
<stop stop-color="#FFD158"/>
<stop offset="0.9964" stop-color="#FFC221"/>
</linearGradient>
<linearGradient id="paint29_linear_147_1457" x1="20.7133" y1="129.653" x2="19.3155" y2="147.443" gradientUnits="userSpaceOnUse">
<stop stop-color="#2E2E2E"/>
<stop offset="1" stop-color="#2E2E2E"/>
</linearGradient>
<linearGradient id="paint30_linear_147_1457" x1="19.3112" y1="141.299" x2="19.5654" y2="122.873" gradientUnits="userSpaceOnUse">
<stop stop-color="#FFD66A"/>
<stop offset="0.9964" stop-color="#FFC221"/>
</linearGradient>
<linearGradient id="paint31_linear_147_1457" x1="47.9167" y1="111.784" x2="34.2936" y2="111.784" gradientUnits="userSpaceOnUse">
<stop stop-color="#2E2E2E"/>
<stop offset="0.9964" stop-color="#2E2E2E"/>
</linearGradient>
<linearGradient id="paint32_linear_147_1457" x1="47.9168" y1="111.785" x2="34.2938" y2="111.785" gradientUnits="userSpaceOnUse">
<stop stop-color="#2E2E2E"/>
<stop offset="0.9964" stop-color="#2E2E2E"/>
</linearGradient>
<linearGradient id="paint33_linear_147_1457" x1="44.1347" y1="110.441" x2="16.71" y2="110.441" gradientUnits="userSpaceOnUse">
<stop stop-color="#2E2E2E"/>
<stop offset="0.9964" stop-color="#2E2E2E"/>
</linearGradient>
<linearGradient id="paint34_linear_147_1457" x1="42.2188" y1="109.33" x2="52.321" y2="52.1487" gradientUnits="userSpaceOnUse">
<stop stop-color="#FFC221"/>
<stop offset="1" stop-color="#FFD668"/>
</linearGradient>
<linearGradient id="paint35_linear_147_1457" x1="48.8021" y1="61.7225" x2="48.8021" y2="50.715" gradientUnits="userSpaceOnUse">
<stop stop-color="#FFD197"/>
<stop offset="0.9964" stop-color="#FFD296"/>
</linearGradient>
<linearGradient id="paint36_linear_147_1457" x1="69.8916" y1="98.2124" x2="64.9293" y2="98.2124" gradientUnits="userSpaceOnUse">
<stop stop-color="#FFD197"/>
<stop offset="0.9964" stop-color="#FFD197"/>
</linearGradient>
<linearGradient id="paint37_linear_147_1457" x1="47.0514" y1="57.111" x2="56.8227" y2="48.9063" gradientUnits="userSpaceOnUse">
<stop stop-color="#2E2E2E"/>
<stop offset="0.9964" stop-color="#2E2E2E"/>
</linearGradient>
<linearGradient id="paint38_linear_147_1457" x1="56.5829" y1="58.5502" x2="51.4365" y2="48.5434" gradientUnits="userSpaceOnUse">
<stop stop-color="#FFD494"/>
<stop offset="0.9964" stop-color="#FFD099"/>
</linearGradient>
<linearGradient id="paint39_linear_147_1457" x1="49.7765" y1="87.6373" x2="91.1983" y2="35.1204" gradientUnits="userSpaceOnUse">
<stop stop-color="#FFCC5E"/>
<stop offset="0.9964" stop-color="#FFC221"/>
</linearGradient>
<linearGradient id="paint40_linear_147_1457" x1="18.6337" y1="105.164" x2="28.7358" y2="47.982" gradientUnits="userSpaceOnUse">
<stop stop-color="#FFC221"/>
<stop offset="1" stop-color="#FFDA78"/>
</linearGradient>
<linearGradient id="paint41_linear_147_1457" x1="19.0674" y1="88.982" x2="20.1658" y2="82.7645" gradientUnits="userSpaceOnUse">
<stop stop-color="#FFD296"/>
<stop offset="0.9964" stop-color="#FFD296"/>
</linearGradient>
</defs>
</svg>
