<svg width="114" height="111" viewBox="0 0 114 111" fill="none" xmlns="http://www.w3.org/2000/svg">
<path d="M122.844 110.857H1.67901C0.964904 110.857 0.539947 110.103 0.929856 109.534L10.016 96.4302C10.1825 96.1892 10.4629 96.0447 10.7652 96.049L114.056 96.3426C114.358 96.3426 114.639 96.4871 114.801 96.7281L123.589 109.538C123.983 110.108 123.558 110.857 122.844 110.857Z" fill="url(#paint0_linear_147_1287)"/>
<path d="M70.3244 8.23627C72.2964 8.23627 73.8949 6.39252 73.8949 4.11814C73.8949 1.84375 72.2964 0 70.3244 0C68.3525 0 66.7539 1.84375 66.7539 4.11814C66.7539 6.39252 68.3525 8.23627 70.3244 8.23627Z" fill="url(#paint1_linear_147_1287)"/>
<path d="M54.9123 33.9089C54.9123 33.9089 49.9924 7.7982 71.893 4.64388C71.893 4.64388 72.9883 4.42921 74.4033 4.97246C75.1174 5.24408 77.8337 5.26599 79.2268 5.25722C79.6737 5.25284 80.0242 5.63837 79.9803 6.08523C79.9453 6.43571 79.7394 6.74238 79.424 6.90448L75.2182 9.06431C74.1799 9.16507 71.709 9.26584 71.4505 8.25821C71.2841 7.6142 70.57 7.28124 69.9741 7.57915C66.9337 9.08622 58.5923 16.4507 61.5933 31.5169C61.7072 32.0821 62.0533 30.6714 61.532 30.9123C59.9417 31.6527 57.1772 34.6975 54.9123 33.9089Z" fill="#FFD3B2"/>
<path d="M30.1511 73.627C34.1772 73.0137 40.8057 71.1649 46.5842 69.3555C44.8449 66.6262 43.2634 63.8179 41.7125 60.9572C36.5517 63.3711 31.4435 66.0654 26.3834 69.062C26.0286 69.2197 25.7175 69.4607 25.4722 69.7498C25.4722 69.7498 25.4678 69.7542 25.4678 69.7586C25.3013 69.9601 25.1655 70.1835 25.0647 70.4245C24.7975 70.8757 24.4952 71.3927 24.4996 71.4453C24.6661 73.2415 25.7788 91.6241 26.0724 99.1989C26.1206 100.447 24.2981 100.592 23.1283 101.398C21.4241 102.48 19.514 103.269 17.6915 104.114C17.5732 104.171 17.4374 104.246 17.4155 104.377C17.3761 104.605 17.6871 104.71 17.9193 104.719C20.2456 104.828 22.756 104.246 25.0998 103.987C26.6901 103.812 28.2804 103.632 29.8707 103.457C30.0591 103.427 30.4183 103.067 30.449 102.879C30.5804 102.112 30.2869 101.521 29.9145 100.881C29.8225 100.719 29.7261 100.557 29.6429 100.391C29.2004 99.4837 29.2924 98.6732 29.3756 97.7137C29.472 96.636 29.5684 95.5583 29.6604 94.4805C29.9014 91.7643 30.1423 89.0481 30.3833 86.3319C30.5848 84.0625 30.7863 81.7932 30.9878 79.5238C31.0404 78.9236 31.093 78.3234 31.1456 77.7232C31.2551 76.4965 31.0054 75.2699 30.4358 74.179L30.1511 73.627Z" fill="#FFD3B2"/>
<path d="M107.331 107.186C106.95 104.877 103.98 103.269 102.359 101.885C101.211 100.899 100.05 99.9175 98.9635 98.8616C97.1629 97.1049 91.0339 88.2509 88.5324 85.3375C86.32 82.7571 83.9017 80.0014 79.3016 78.4199C76.2656 73.4212 72.0292 68.1684 66.9428 62.6483C64.1346 64.7249 61.2256 66.7051 58.5488 68.9438L72.8396 80.0847C75.569 82.3672 78.2896 84.6672 80.9971 86.976C84.5588 90.0076 88.1381 93.0261 91.6779 96.0885C93.1762 97.3852 94.9724 98.3929 96.1991 99.9788C96.8738 100.851 96.6066 101.451 96.957 102.353C97.2549 103.111 97.9997 103.199 98.6919 103.405C99.555 103.663 100.046 103.97 100.449 104.824C101.018 106.038 101.465 106.984 102.762 107.632C103.564 108.035 104.497 108.211 105.39 108.11C105.837 108.062 107.112 108 107.305 107.523C107.358 107.418 107.349 107.299 107.331 107.186Z" fill="#FFD3B2"/>
<path d="M39.189 62.1576C40.2667 62.4993 40.9983 62.9768 41.4364 63.3142C42.5711 64.1904 43.1844 65.2812 43.9643 66.4904C44.4024 67.1694 44.8142 67.866 45.2085 68.5713C45.6247 69.3161 45.6597 69.9032 46.5315 69.6447C48.2489 69.1365 49.9312 68.4224 51.6179 67.8222C52.8621 67.3797 54.6495 66.705 55.9288 67.3972C56.8532 67.8967 57.7644 68.7203 58.6406 69.3293C59.968 70.2493 61.2955 71.178 62.6142 72.1112C63.7269 68.878 66.522 67.2308 70.7891 66.9679C68.6074 63.301 66.1628 60.0591 63.3677 57.3604L59.9943 53.4219L50.0976 51.9148C48.6694 54.2718 49.1294 55.9672 48.1437 57.8291C46.8864 58.3373 45.8306 58.7973 45.0245 59.1566C44.0431 59.5991 43.1581 59.9934 42.0147 60.5848C40.845 61.185 39.8855 61.7414 39.189 62.1576Z" fill="#2E2E2E"/>
<path d="M61.1242 54.7405C64.2741 42.189 72.8433 40.3533 72.8433 40.3533C71.678 36.9274 69.1195 33.6241 67.0473 31.346C65.1766 29.2869 62.272 28.5115 59.6259 29.3658C56.7125 30.3077 53.9875 32.2441 52.5681 34.5091C50.8551 37.2428 49.3086 52.9619 49.5584 52.9575C49.5627 52.9575 52.4717 56.6726 61.1242 54.7405Z" fill="url(#paint2_linear_147_1287)"/>
<path d="M73.1766 27.5871C72.2084 28.6955 71.2402 29.8039 70.272 30.9123C69.0365 32.3274 67.3411 35.3853 65.0805 34.5661C63.5428 34.0053 62.9382 31.7097 63.5866 30.2946C63.6479 30.1632 63.7399 30.0536 63.8451 29.9529L69.295 24.6606C69.7287 24.2401 70.3859 24.1568 70.9072 24.4591L72.8086 25.55C73.5446 25.9618 73.7198 26.9387 73.1766 27.5871Z" fill="#FFD3B2"/>
<path d="M79.7572 22.4482C79.7572 22.4482 91.6472 24.3803 88.0198 35.9855C84.3923 47.5908 83.8578 51.6213 87.332 51.0343C86.9026 51.5424 86.1228 52.2916 84.975 52.5807C82.7889 53.1284 80.8349 51.6038 79.8098 50.8021C76.8438 48.4845 75.8275 45.2513 75.477 44.1473C72.7082 35.3547 78.938 23.9115 79.7572 22.4482Z" fill="#2E2E2E"/>
<path d="M74.8458 18.5273C74.8458 18.5273 71.4418 17.857 67.052 20.4725C62.6623 23.0879 62.8156 25.7647 64.3446 27.1447C65.8692 28.5291 68.4233 30.1983 72.7692 29.528C77.1108 28.8621 79.1874 19.5305 74.8458 18.5273Z" fill="#FFD3B2"/>
<path d="M72.3489 26.2729C72.3489 26.2729 78.1318 22.019 73.2075 18.5974L71.4727 18.7026C71.4727 18.7026 71.7618 14.2865 75.7573 14.8254C79.7484 15.3599 83.3233 19.697 81.8775 24.5862C80.4318 29.4754 77.9259 31.5783 74.5087 32.0734C73.707 32.1916 72.7125 32.2223 72.0991 31.552C71.4902 30.8861 71.626 29.8916 71.6698 29.6419C72.029 29.5324 74.8285 28.643 74.9862 27.171C74.9994 27.0396 75.0344 26.7154 74.8416 26.5095C74.3247 25.9575 72.5591 26.6365 72.5591 26.6365L72.3489 26.2729Z" fill="#2E2E2E"/>
<path d="M71.5948 37.6897C71.5948 37.6897 88.3653 52.5325 71.1523 64.5146C71.1523 64.5146 70.4777 65.1323 69.2554 65.3645C68.6377 65.4828 66.7275 66.635 65.7593 67.2395C65.4483 67.4323 65.0365 67.314 64.8788 66.9854C64.7517 66.727 64.7649 66.4203 64.9138 66.175L67.6476 61.6669C68.331 61.1499 69.2904 61.2069 69.9038 61.8027C70.2981 62.1839 70.9377 62.105 71.2268 61.645C72.7076 59.2836 78.6789 50.4954 67.1919 42.96C64.6115 41.2558 68.7735 35.7226 71.5948 37.6897Z" fill="#FFD3B2"/>
<path d="M74.9159 8.54733L69.7463 4.95491C69.6674 4.04805 70.1669 3.24194 71.3892 3.20251L76.2871 5.09949L74.9159 8.54733Z" fill="url(#paint3_linear_147_1287)"/>
<path d="M78.3944 13.0684C80.5187 13.0684 82.2409 11.0815 82.2409 8.63045C82.2409 6.17944 80.5187 4.1925 78.3944 4.1925C76.27 4.1925 74.5479 6.17944 74.5479 8.63045C74.5479 11.0815 76.27 13.0684 78.3944 13.0684Z" fill="url(#paint4_linear_147_1287)"/>
<path d="M79.2313 13.1648C81.3557 13.1648 83.0778 11.1779 83.0778 8.72689C83.0778 6.27588 81.3557 4.28894 79.2313 4.28894C77.1069 4.28894 75.3848 6.27588 75.3848 8.72689C75.3848 11.1779 77.1069 13.1648 79.2313 13.1648Z" fill="url(#paint5_linear_147_1287)"/>
<defs>
<linearGradient id="paint0_linear_147_1287" x1="60.8245" y1="117.482" x2="71.9337" y2="59.7147" gradientUnits="userSpaceOnUse">
<stop stop-color="#329BFF"/>
<stop offset="1" stop-color="#0071DC"/>
</linearGradient>
<linearGradient id="paint1_linear_147_1287" x1="64.1453" y1="11.874" x2="77.23" y2="-4.55042" gradientUnits="userSpaceOnUse">
<stop stop-color="#66B5FF"/>
<stop offset="1" stop-color="#0071DC"/>
</linearGradient>
<linearGradient id="paint2_linear_147_1287" x1="180.52" y1="2.5757" x2="137.149" y2="16.8262" gradientUnits="userSpaceOnUse">
<stop stop-color="#FFCC44"/>
<stop offset="1" stop-color="#FFC221"/>
</linearGradient>
<linearGradient id="paint3_linear_147_1287" x1="76.1068" y1="1.80373" x2="69.8288" y2="13.0577" gradientUnits="userSpaceOnUse">
<stop stop-color="#56ADFF"/>
<stop offset="1" stop-color="#0071DC"/>
</linearGradient>
<linearGradient id="paint4_linear_147_1287" x1="83.3654" y1="13.9963" x2="76.946" y2="7.06745" gradientUnits="userSpaceOnUse">
<stop stop-color="#56ADFF"/>
<stop offset="1" stop-color="#0071DC"/>
</linearGradient>
<linearGradient id="paint5_linear_147_1287" x1="86.1981" y1="0.805181" x2="66.8185" y2="22.8476" gradientUnits="userSpaceOnUse">
<stop stop-color="#5EB0FF"/>
<stop offset="1" stop-color="#0071DC"/>
</linearGradient>
</defs>
</svg>
