<svg width="99" height="113" viewBox="0 0 99 113" fill="none" xmlns="http://www.w3.org/2000/svg">
<path d="M55.2493 87.3174L52.4155 106.879H85.3022L81.0189 87.3174H55.2493Z" fill="url(#paint0_linear_147_1398)"/>
<path d="M0 24.676V82.9035C0 87.6948 3.8172 91.6099 8.60385 91.7357C29.8711 92.2857 104.258 93.6141 124.5 93.3158C127.981 93.2645 130.796 90.482 130.899 87.0004C131.29 73.4747 131.924 40.9469 129.575 25.8412C129.081 22.6626 126.396 20.2809 123.181 20.1783C105.362 19.6097 26.5107 17.7967 6.27345 18.2534C2.78716 18.3373 0 21.1851 0 24.676Z" fill="url(#paint1_linear_147_1398)"/>
<path d="M3.6543 24.3918V79.7109C3.6543 82.5074 5.90081 84.7865 8.69729 84.8285L121.591 86.2221C124.365 86.264 126.634 84.0315 126.648 81.2583L126.839 26.4332C126.849 24.4524 125.269 22.8257 123.283 22.7791L7.69988 20.4441C5.48133 20.3928 3.6543 22.1779 3.6543 24.3918Z" fill="url(#paint2_linear_147_1398)"/>
<path opacity="0.65" d="M127.496 88.4919L3.64941 86.3805C3.56086 86.3805 3.49561 86.3059 3.49561 86.222C3.49561 86.1335 3.57018 86.0682 3.65407 86.0682L127.496 88.1796C127.585 88.1796 127.65 88.2542 127.65 88.338C127.65 88.4266 127.58 88.4919 127.496 88.4919Z" fill="white"/>
<path opacity="0.65" d="M66.7989 91.0693C66.0019 91.0693 65.354 90.4214 65.354 89.6244C65.354 88.8274 66.0019 88.1796 66.7989 88.1796C67.5959 88.1796 68.2437 88.8274 68.2437 89.6244C68.2437 90.4214 67.5959 91.0693 66.7989 91.0693ZM66.7989 88.4918C66.1743 88.4918 65.6663 88.9999 65.6663 89.6244C65.6663 90.249 66.1743 90.757 66.7989 90.757C67.4234 90.757 67.9314 90.249 67.9314 89.6244C67.9314 88.9999 67.4234 88.4918 66.7989 88.4918Z" fill="white"/>
<path d="M92.3866 112.08H44.2497C42.9401 112.08 41.9613 111.148 42.213 110.151L42.8329 107.708C43.0193 106.972 43.8256 106.436 44.7857 106.403L91.1888 104.954C92.1908 104.921 93.081 105.457 93.3001 106.217L94.414 110.109C94.703 111.125 93.7149 112.08 92.3866 112.08Z" fill="url(#paint3_linear_147_1398)"/>
<path d="M70.1638 107.065C70.0799 107.065 70.01 106.995 70.0054 106.911C70.0054 106.823 70.0753 106.753 70.1592 106.753L72.1493 106.725C72.2332 106.725 72.3078 106.795 72.3078 106.879C72.3078 106.967 72.2379 107.037 72.154 107.037L70.1638 107.065Z" fill="white"/>
<path d="M43.9981 110.733C43.9888 110.733 43.9795 110.733 43.9748 110.733C43.8909 110.719 43.8303 110.64 43.8443 110.556L44.1286 108.78C44.2824 107.825 45.0934 107.121 46.0582 107.107L67.1483 106.8C67.1483 106.8 67.1483 106.8 67.153 106.8C67.2369 106.8 67.3068 106.869 67.3115 106.953C67.3115 107.042 67.2416 107.112 67.1577 107.112L46.0675 107.419C45.2519 107.433 44.5714 108.025 44.4409 108.827L44.1566 110.603C44.1379 110.682 44.0727 110.733 43.9981 110.733Z" fill="white"/>
<path d="M100.04 86.031L24.3389 84.9776V3.45543C24.3389 1.72627 25.7418 0.323364 27.4709 0.323364H97.1826C98.7999 0.323364 100.114 1.63305 100.114 3.25501L100.04 86.031Z" fill="url(#paint4_linear_147_1398)"/>
<path opacity="0.49" d="M97.6113 86.0123L26.5806 85.0102V5.61802C26.5806 3.90284 27.9508 2.51392 29.6474 2.51392H94.7449C96.3296 2.51392 97.6113 3.81428 97.6113 5.4176V86.0123Z" fill="white"/>
<g opacity="0.75">
<path opacity="0.76" d="M91.394 53.0837H34.3364C34.1127 53.0837 33.9263 52.9019 33.9263 52.6735V25.4963C33.9263 25.2726 34.108 25.0862 34.3364 25.0862H91.394C91.6178 25.0862 91.8042 25.2679 91.8042 25.4963V52.6735C91.8042 52.8972 91.6224 53.0837 91.394 53.0837Z" fill="white"/>
<path opacity="0.76" d="M94.3118 64.3162H30.3701C30.2583 64.3162 30.165 64.223 30.165 64.1111V58.3224C30.165 58.2105 30.2583 58.1173 30.3701 58.1173H94.3071C94.419 58.1173 94.5122 58.2105 94.5122 58.3224V64.1111C94.5122 64.223 94.4236 64.3162 94.3118 64.3162Z" fill="white"/>
<path opacity="0.76" d="M94.0646 74.5888H30.3653C30.1835 74.5888 30.0391 74.4443 30.0391 74.2625V68.7161C30.0391 68.5344 30.1835 68.3899 30.3653 68.3899H94.0599C94.2417 68.3899 94.3862 68.5344 94.3862 68.7161V74.2625C94.3862 74.4396 94.2417 74.5888 94.0646 74.5888Z" fill="white"/>
<path opacity="0.76" d="M94.1625 84.1666H30.5565C30.3514 84.1666 30.1836 83.9989 30.1836 83.7938V78.3406C30.1836 78.1356 30.3514 77.9678 30.5565 77.9678H94.1579C94.3629 77.9678 94.5307 78.1356 94.5307 78.3406V83.7938C94.5307 83.9989 94.3676 84.1666 94.1625 84.1666Z" fill="white"/>
</g>
<path d="M7.5127 55.4747C7.5127 55.4747 15.6365 76.8958 18.1999 81.3515C21.1782 86.525 29.8799 83.2298 29.4465 78.9C29.013 74.5701 18.8478 56.6772 18.8478 56.6772L7.5127 55.4747Z" fill="url(#paint5_linear_147_1398)"/>
<path d="M18.489 39.8657L68.9702 22.3644L68.4435 69.7322L17.1094 58.2806L18.489 39.8657Z" fill="url(#paint6_linear_147_1398)"/>
<path d="M69.0216 70.5292C71.7604 70.5292 73.9807 59.6303 73.9807 46.1858C73.9807 32.7413 71.7604 21.8424 69.0216 21.8424C66.2828 21.8424 64.0625 32.7413 64.0625 46.1858C64.0625 59.6303 66.2828 70.5292 69.0216 70.5292Z" fill="url(#paint7_linear_147_1398)"/>
<path d="M69.3941 68.8653C68.9467 68.4085 67.9679 66.6514 67.1336 62.1025C66.3227 57.7073 65.8799 52.0071 65.8799 46.0506C65.8799 40.0941 66.3273 34.3939 67.1336 29.9988C67.9726 25.4499 68.9467 23.6927 69.3941 23.236C69.8416 23.6927 70.8203 25.4499 71.6546 29.9988C72.4656 34.3939 72.9084 40.0941 72.9084 46.0506C72.9084 52.0071 72.4609 57.7073 71.6546 62.1025C70.8203 66.6467 69.8462 68.4085 69.3941 68.8653Z" fill="url(#paint8_linear_147_1398)"/>
<mask id="mask0_147_1398" style="mask-type:luminance" maskUnits="userSpaceOnUse" x="65" y="23" width="14" height="46">
<path d="M69.3941 68.8653C68.9467 68.4085 67.9679 66.6514 67.1336 62.1025C66.3227 57.7073 65.8799 52.0071 65.8799 46.0506C65.8799 40.0941 66.3273 34.3939 67.1336 29.9988C67.9726 25.4499 68.9467 23.6927 69.3941 23.236C69.8416 23.6927 70.8203 25.4499 71.6546 29.9988C72.4656 34.3939 78.8509 40.0941 78.8509 46.0506C78.8509 52.0071 72.4656 57.7073 71.6546 62.1025C70.8203 66.6467 69.8462 68.4085 69.3941 68.8653Z" fill="white"/>
</mask>
<g mask="url(#mask0_147_1398)">
<path d="M75.7518 45.8688C75.7518 50.003 73.524 53.3587 69.1148 53.3587C64.7057 53.3587 61.1309 50.0076 61.1309 45.8688C61.1309 41.7347 64.7057 38.3789 69.1148 38.3789C73.524 38.3789 75.7518 41.73 75.7518 45.8688Z" fill="url(#paint9_linear_147_1398)"/>
</g>
<path d="M10.3468 38.8496C12.7238 38.5747 16.1262 38.4768 19.8082 39.3157C18.5964 45.6544 18.7782 52.2588 20.1811 59.0962H9.79683C8.14224 59.0962 6.73002 57.8937 6.46901 56.2578C5.95166 52.9812 5.31779 47.4675 5.99361 43.0444C6.33385 40.8258 8.11428 39.1106 10.3468 38.8496Z" fill="url(#paint10_linear_147_1398)"/>
<path d="M16.5779 43.7017H8.48676C8.21178 43.7017 7.96941 43.5572 7.83891 43.3148C7.70841 43.0725 7.71773 42.7928 7.86688 42.5598C7.92747 42.4619 8.05797 42.4339 8.15584 42.4992C8.25372 42.5598 8.28169 42.6903 8.21644 42.7882C8.15119 42.8907 8.14652 43.0119 8.20245 43.1144C8.25838 43.2216 8.36558 43.2822 8.48676 43.2822H16.5779C16.755 43.2822 16.8995 43.1377 16.8995 42.9606V42.3827C16.8995 42.2056 16.755 42.0611 16.5779 42.0611H8.42617C8.30965 42.0611 8.21644 41.9679 8.21644 41.8513C8.21644 41.7348 8.30965 41.6416 8.42617 41.6416H16.5779C16.9834 41.6416 17.3143 41.9725 17.3143 42.378V42.956C17.3143 43.3708 16.9834 43.7017 16.5779 43.7017Z" fill="white"/>
<path d="M15.8558 47.2858H7.7646C7.48961 47.2858 7.24724 47.1413 7.11674 46.8989C6.98624 46.6566 6.99556 46.3769 7.14471 46.1439C7.2053 46.046 7.3358 46.018 7.43368 46.0833C7.53155 46.1439 7.55952 46.2744 7.49427 46.3723C7.42902 46.4748 7.42435 46.596 7.48028 46.6985C7.53621 46.8057 7.64341 46.8663 7.7646 46.8663H15.8558C16.0329 46.8663 16.1774 46.7218 16.1774 46.5447V45.9668C16.1774 45.7897 16.0329 45.6452 15.8558 45.6452H7.70401C7.58749 45.6452 7.49427 45.552 7.49427 45.4354C7.49427 45.3189 7.58749 45.2257 7.70401 45.2257H15.8558C16.2612 45.2257 16.5922 45.5566 16.5922 45.9621V46.5401C16.5922 46.9549 16.2612 47.2858 15.8558 47.2858Z" fill="white"/>
<path d="M25.8255 38.5839C25.7369 38.5839 25.6577 38.528 25.625 38.4395C25.5924 38.3276 25.653 38.2111 25.7602 38.1785L63.9975 26.0091C64.1047 25.9765 64.2259 26.037 64.2585 26.1442C64.2911 26.2561 64.2305 26.3726 64.1233 26.4052L25.886 38.5746C25.8674 38.5839 25.8441 38.5839 25.8255 38.5839Z" fill="white"/>
<path d="M20.6516 40.7C20.5677 40.7 20.4931 40.6534 20.4605 40.5695C20.4185 40.4623 20.4698 40.3411 20.5723 40.2991L22.5392 39.4928C22.6464 39.4509 22.7676 39.5021 22.8095 39.6047C22.8515 39.7119 22.8002 39.8331 22.6977 39.875L20.7308 40.6813C20.7028 40.6953 20.6795 40.7 20.6516 40.7Z" fill="white"/>
<path d="M16.5779 51.4851H8.48676C8.21178 51.4851 7.96941 51.3406 7.83891 51.0983C7.70841 50.8559 7.71773 50.5763 7.86688 50.3432C7.92747 50.2453 8.05797 50.2174 8.15584 50.2826C8.25372 50.3432 8.28169 50.4737 8.21644 50.5716C8.15119 50.6741 8.14652 50.7953 8.20245 50.9025C8.25838 51.0097 8.36558 51.0703 8.48676 51.0703H16.5779C16.755 51.0703 16.8995 50.9258 16.8995 50.7487V50.1708C16.8995 49.9936 16.755 49.8492 16.5779 49.8492H8.42617C8.30965 49.8492 8.21644 49.7559 8.21644 49.6394C8.21644 49.5229 8.30965 49.4297 8.42617 49.4297H16.5779C16.9834 49.4297 17.3143 49.7606 17.3143 50.1661V50.744C17.3143 51.1542 16.9834 51.4851 16.5779 51.4851Z" fill="white"/>
<path d="M17.3333 56.1412H9.24214C8.96715 56.1412 8.72478 55.9967 8.59428 55.7544C8.46378 55.512 8.4731 55.2324 8.62225 54.9993C8.68284 54.9015 8.81334 54.8735 8.91122 54.9387C9.00909 54.9993 9.03706 55.1298 8.97181 55.2277C8.90656 55.3303 8.90189 55.4514 8.95782 55.5586C9.01375 55.6658 9.12095 55.7264 9.24214 55.7264H17.3333C17.5104 55.7264 17.6549 55.5819 17.6549 55.4048V54.8269C17.6549 54.6498 17.5104 54.5053 17.3333 54.5053H9.18154C9.06502 54.5053 8.97181 54.4121 8.97181 54.2956C8.97181 54.179 9.06502 54.0858 9.18154 54.0858H17.3333C17.7388 54.0858 18.0697 54.4167 18.0697 54.8222V55.4002C18.0744 55.8103 17.7435 56.1412 17.3333 56.1412Z" fill="white"/>
<path d="M24.5621 81.4682C24.1892 81.4682 23.8117 81.4262 23.4342 81.347C21.7889 80.9881 20.4513 79.9022 19.7615 78.3687L13.2969 64.0088C13.2503 63.9063 13.2969 63.7804 13.3995 63.7338C13.502 63.6872 13.6278 63.7338 13.6744 63.8363L20.139 78.201C20.7729 79.6132 22.008 80.6106 23.5227 80.9415C25.0095 81.2678 26.5196 80.8809 27.6569 79.8835C27.7175 79.8322 27.7781 79.7763 27.8386 79.7204C27.9225 79.6412 28.053 79.6505 28.1323 79.7344C28.2115 79.8183 28.2022 79.9488 28.1183 80.028C28.053 80.0886 27.9925 80.1445 27.9272 80.2004C26.9811 81.0301 25.7925 81.4682 24.5621 81.4682Z" fill="white"/>
<path d="M12.5322 62.0093C12.453 62.0093 12.3784 61.9627 12.3411 61.8881L11.6187 60.2848C11.5721 60.1823 11.6187 60.0564 11.7212 60.0098C11.8238 59.9632 11.9496 60.0098 11.9962 60.1123L12.7186 61.7157C12.7653 61.8182 12.7186 61.944 12.6161 61.9907C12.5881 62.0046 12.5602 62.0093 12.5322 62.0093Z" fill="white"/>
<path d="M74.5727 45.6498C74.4655 45.6498 74.3723 45.5659 74.3676 45.4587C74.2232 43.4313 73.5194 41.9212 72.2796 40.9657C70.131 39.3158 67.0688 39.8844 67.0362 39.8891C66.9243 39.9124 66.8125 39.8378 66.7938 39.7259C66.7705 39.6141 66.8451 39.5022 66.9569 39.4836C67.0875 39.4603 70.2382 38.8777 72.5313 40.6394C73.8736 41.6695 74.6286 43.2821 74.7825 45.4308C74.7918 45.5473 74.7032 45.6451 74.5914 45.6545C74.582 45.6498 74.5774 45.6498 74.5727 45.6498Z" fill="white"/>
<path d="M48.4771 6.95569H51.1011C52.1731 6.95569 52.9514 7.16542 53.4362 7.58024C53.9255 7.99505 54.1679 8.65688 54.1679 9.56108C54.1679 10.1577 54.0374 10.6564 53.7811 11.0572C53.5247 11.458 53.1705 11.7004 52.7277 11.7843V11.8542C53.3103 11.9987 53.7298 12.2737 53.9861 12.6698C54.2425 13.0707 54.373 13.5973 54.373 14.2592C54.373 15.1913 54.1213 15.9231 53.6226 16.4498C53.1239 16.9764 52.4387 17.2421 51.5718 17.2421H48.4771V6.95569ZM50.2808 11.0898H51.1617C51.5672 11.0898 51.8468 10.9826 52.0146 10.7682C52.1777 10.5538 52.2616 10.2322 52.2616 9.80344C52.2616 9.37465 52.1684 9.07169 51.982 8.88526C51.7956 8.69883 51.4973 8.60561 51.0964 8.60561H50.2854V11.0898H50.2808ZM50.2808 12.6885V15.5689H51.2456C51.6464 15.5689 51.94 15.4477 52.1358 15.2007C52.3315 14.9583 52.4294 14.5808 52.4294 14.0681C52.4294 13.1499 52.0239 12.6885 51.2176 12.6885H50.2808Z" fill="#0071DC"/>
<path d="M55.7856 17.2421V6.95569H57.7012V15.5689H60.3532V17.2421H55.7856Z" fill="#0071DC"/>
<path d="M68.6586 12.0826C68.6586 13.7838 68.3417 15.0935 67.7032 16.0117C67.0646 16.9252 66.1511 17.382 64.9673 17.382C63.7741 17.382 62.8606 16.9252 62.2221 16.0117C61.5835 15.0982 61.2666 13.7838 61.2666 12.0686C61.2666 10.3674 61.5835 9.05775 62.2221 8.15356C62.8606 7.2447 63.7788 6.7926 64.9813 6.7926C66.1698 6.7926 67.0786 7.24936 67.7125 8.16288C68.3417 9.07174 68.6586 10.3814 68.6586 12.0826ZM63.2148 12.0826C63.2148 13.2571 63.364 14.1474 63.6576 14.7626C63.9512 15.3778 64.3893 15.6854 64.958 15.6854C66.1138 15.6854 66.6871 14.4829 66.6871 12.0826C66.6871 9.6823 66.1138 8.47981 64.9719 8.47981C64.3893 8.47981 63.9512 8.78743 63.6576 9.39799C63.364 10.0132 63.2148 10.9081 63.2148 12.0826Z" fill="#0071DC"/>
<path d="M73.2682 11.5372H76.4143V16.8179C75.5241 17.2001 74.5733 17.3865 73.5712 17.3865C72.3734 17.3865 71.4552 16.9298 70.8073 16.0209C70.1641 15.1121 69.8379 13.7977 69.8379 12.0872C69.8379 10.4373 70.2061 9.14156 70.9472 8.2094C71.6882 7.27724 72.7183 6.81116 74.0466 6.81116C74.8669 6.81116 75.6499 7.0209 76.3956 7.44503L75.7897 9.0064C75.2071 8.67082 74.6618 8.49837 74.1585 8.49837C73.4314 8.49837 72.8534 8.82463 72.4293 9.47248C72.0052 10.1203 71.7908 11.0059 71.7908 12.1291C71.7908 13.285 71.9446 14.1659 72.2522 14.7811C72.5598 15.3964 73.0072 15.704 73.5945 15.704C73.9021 15.704 74.2191 15.662 74.536 15.5828V13.2244H73.2636V11.5372H73.2682Z" fill="#0071DC"/>
<path d="M94.9637 33.3312L82.7571 34.0257C81.7363 34.0816 80.8555 33.3126 80.7809 32.2919L79.7648 18.1323C79.6856 17.0464 80.5478 16.1235 81.6338 16.1235H94.8565C95.8912 16.1235 96.7302 16.9625 96.7302 17.9972V31.4623C96.7302 32.455 95.9565 33.2753 94.9637 33.3312Z" fill="url(#paint11_linear_147_1398)"/>
<path d="M88.2473 32.3384C87.632 32.3384 87.0727 32.0215 86.7511 31.4948C84.9521 28.5212 82.8081 24.6061 82.8081 22.835C82.8081 20.0665 85.2504 17.8153 88.2473 17.8153C91.2488 17.8153 93.6864 20.0665 93.6864 22.835C93.6864 24.6061 91.5425 28.5212 89.7434 31.4948C89.4218 32.0215 88.8625 32.3384 88.2473 32.3384ZM88.2473 18.5098C85.6326 18.5098 83.5026 20.4487 83.5026 22.835C83.5026 24.0748 84.9055 27.0996 87.3477 31.1359C87.5388 31.4528 87.8744 31.6439 88.2473 31.6439C88.6201 31.6439 88.9557 31.4528 89.1468 31.1359C91.5891 27.0996 92.992 24.0748 92.992 22.835C92.992 20.4487 90.862 18.5098 88.2473 18.5098Z" fill="white"/>
<path d="M87.828 26.3399C85.9684 26.3399 84.4536 24.8252 84.4536 22.9655C84.4536 22.7744 84.6074 22.6159 84.8032 22.6159C84.9989 22.6159 85.1527 22.7697 85.1527 22.9655C85.1527 24.443 86.3552 25.6408 87.828 25.6408C89.3055 25.6408 90.5033 24.4383 90.5033 22.9655C90.5033 21.488 89.3009 20.2902 87.828 20.2902C86.9751 20.2902 86.1921 20.6817 85.6794 21.3668C85.5629 21.5206 85.3485 21.5533 85.19 21.4367C85.0362 21.3202 85.0036 21.1058 85.1201 20.9474C85.754 20.0991 86.7654 19.5911 87.8234 19.5911C89.683 19.5911 91.1978 21.1058 91.1978 22.9655C91.1978 24.8252 89.6877 26.3399 87.828 26.3399Z" fill="white"/>
<path d="M88.1729 64.829L79.2335 65.7705C78.1289 65.887 77.1641 65.0201 77.1641 63.9062V53.5871C77.1641 52.655 77.8492 51.8673 78.772 51.7321L87.7115 50.4457C88.8394 50.2826 89.8508 51.1588 89.8508 52.3007V62.9647C89.8461 63.9248 89.1237 64.7311 88.1729 64.829Z" fill="url(#paint12_linear_147_1398)"/>
<path d="M82.7849 61.4079C81.7781 61.4079 80.7341 60.9745 80.4265 60.3266C80.0723 59.5856 80.7761 59.0589 81.0045 58.9144C81.6849 58.4763 82.2908 58.3271 82.8082 58.467C83.3442 58.6161 83.5586 59.0216 83.5819 59.0682L82.8874 59.4178L82.8921 59.4271C82.8874 59.4224 82.7989 59.2686 82.5891 59.2174C82.3887 59.1661 82.0252 59.1894 81.4286 59.5716C81.1769 59.7347 81.0744 59.8745 81.135 59.9957C81.3354 60.4152 82.5658 60.8393 83.4747 60.5364C83.7776 60.4338 84.0386 59.5529 83.787 57.4043C83.6005 55.8336 83.2277 54.3002 83.223 54.2862C83.1904 54.1464 83.237 53.9972 83.3442 53.8994C83.456 53.8062 83.6098 53.7782 83.745 53.8341C83.8382 53.8714 86.0102 54.7709 86.6021 56.4675C86.8724 57.2365 86.7745 58.0382 86.3131 58.8492C86.2059 59.0356 85.9682 59.1008 85.7818 58.9936C85.5954 58.8864 85.5301 58.6534 85.6373 58.4623C85.9869 57.8471 86.0614 57.2785 85.8657 56.7192C85.5814 55.8942 84.7611 55.2743 84.1552 54.9108C84.281 55.5213 84.4488 56.3976 84.556 57.3064C84.8403 59.7254 84.5746 60.9838 83.7217 61.2681C83.4234 61.3613 83.1065 61.4079 82.7849 61.4079Z" fill="white"/>
<defs>
<linearGradient id="paint0_linear_147_1398" x1="69.3792" y1="117.187" x2="68.0437" y2="90.7442" gradientUnits="userSpaceOnUse">
<stop stop-color="#66B5FF"/>
<stop offset="1" stop-color="#0071DC"/>
</linearGradient>
<linearGradient id="paint1_linear_147_1398" x1="0.00057794" y1="55.7719" x2="131.285" y2="55.7719" gradientUnits="userSpaceOnUse">
<stop stop-color="#66B5FF"/>
<stop offset="1" stop-color="#0071DC"/>
</linearGradient>
<linearGradient id="paint2_linear_147_1398" x1="100.259" y1="8.3874" x2="-75.9925" y2="232.349" gradientUnits="userSpaceOnUse">
<stop stop-color="#FDF53F"/>
<stop offset="1" stop-color="#D93C65"/>
</linearGradient>
<linearGradient id="paint3_linear_147_1398" x1="69.6185" y1="107.07" x2="53.9158" y2="141.548" gradientUnits="userSpaceOnUse">
<stop stop-color="#61B2FF"/>
<stop offset="0.0677083" stop-color="#50AAFF"/>
<stop offset="1" stop-color="#0071DC"/>
</linearGradient>
<linearGradient id="paint4_linear_147_1398" x1="123.785" y1="-98.514" x2="20.4785" y2="141.22" gradientUnits="userSpaceOnUse">
<stop stop-color="#4FA9FF"/>
<stop offset="1" stop-color="#0071DC"/>
</linearGradient>
<linearGradient id="paint5_linear_147_1398" x1="5.83467" y1="84.8737" x2="23.5836" y2="61.0641" gradientUnits="userSpaceOnUse">
<stop stop-color="#59AEFF"/>
<stop offset="1" stop-color="#0071DC"/>
</linearGradient>
<linearGradient id="paint6_linear_147_1398" x1="35.7259" y1="27.2947" x2="68.0329" y2="84.8343" gradientUnits="userSpaceOnUse">
<stop stop-color="#FFDA77"/>
<stop offset="1" stop-color="#FFF2CE"/>
</linearGradient>
<linearGradient id="paint7_linear_147_1398" x1="139.962" y1="21.0731" x2="104.359" y2="33.6761" gradientUnits="userSpaceOnUse">
<stop stop-color="#FFC221"/>
<stop offset="1" stop-color="#FFD159"/>
</linearGradient>
<linearGradient id="paint8_linear_147_1398" x1="37.2745" y1="86.1591" x2="81.4531" y2="30.9919" gradientUnits="userSpaceOnUse">
<stop stop-color="#FFC733"/>
<stop offset="1" stop-color="#FFC221"/>
</linearGradient>
<linearGradient id="paint9_linear_147_1398" x1="80.7685" y1="38.9629" x2="54.515" y2="54.2949" gradientUnits="userSpaceOnUse">
<stop stop-color="#54ACFF"/>
<stop offset="1" stop-color="#0071DC"/>
</linearGradient>
<linearGradient id="paint10_linear_147_1398" x1="13.3094" y1="57.7516" x2="12.0107" y2="25.0676" gradientUnits="userSpaceOnUse">
<stop stop-color="#5EB0FF"/>
<stop offset="1" stop-color="#0071DC"/>
</linearGradient>
<linearGradient id="paint11_linear_147_1398" x1="96.2353" y1="13.7652" x2="80.0539" y2="35.975" gradientUnits="userSpaceOnUse">
<stop stop-color="#FFC221"/>
<stop offset="1" stop-color="#FFC11C"/>
</linearGradient>
<linearGradient id="paint12_linear_147_1398" x1="89.9508" y1="45.9943" x2="78.2113" y2="68.3628" gradientUnits="userSpaceOnUse">
<stop stop-color="#FFC221"/>
<stop offset="1" stop-color="#FFCE4D"/>
</linearGradient>
</defs>
</svg>
