<svg width="197" height="197" viewBox="0 0 197 197" fill="none" xmlns="http://www.w3.org/2000/svg">
<path d="M170.723 51.783C152.233 26.4757 120.575 24.8933 118.616 24.803C93.6485 23.6454 75.8229 36.3788 69.3979 41.1153C64.7304 44.5561 58.2576 49.4147 52.2148 57.9585C49.4589 61.856 39.8585 76.3204 39.7045 95.7814C39.4656 126.032 62.2347 145.722 66.3712 149.152C88.7315 167.705 127.845 176.944 157.177 155.779C191.633 130.923 191.283 79.9205 170.723 51.783Z" fill="#EBD6D0"/>
<path d="M176.728 102.945C176.728 133.992 151.57 160.308 119.476 161.774C86.1403 163.298 58.1567 137.624 58.1567 104.373C58.1567 71.1219 86.135 44.7791 119.471 45.496C151.57 46.1863 176.728 71.8972 176.728 102.945Z" fill="url(#paint0_linear_147_1955)"/>
<path d="M180.456 102.945C180.456 133.992 155.297 160.308 123.204 161.774C89.8678 163.298 61.8843 137.624 61.8843 104.373C61.8843 71.1219 89.8678 44.7738 123.204 45.4959C155.297 46.1862 180.456 71.8971 180.456 102.945Z" fill="url(#paint1_linear_147_1955)"/>
<path d="M176.909 102.987C176.909 132.24 153.179 156.99 122.965 158.312C91.6522 159.682 65.4263 135.532 65.4263 104.336C65.4263 73.1398 91.6522 48.3528 122.965 48.9688C153.179 49.5582 176.909 73.7345 176.909 102.987Z" fill="url(#paint2_linear_147_1955)"/>
<path d="M110.784 105.791C113.216 102.636 114.432 97.9212 114.432 91.6395C114.432 85.634 113.194 81.009 110.725 77.7752C108.256 74.5414 104.709 72.9219 100.095 72.9219C90.6748 72.9219 85.9648 79.1611 85.9648 91.6395C85.9648 97.7566 87.1914 102.435 89.65 105.668C92.1085 108.902 95.5918 110.522 100.095 110.522C104.789 110.522 108.352 108.945 110.784 105.791ZM100.174 102.042C98.8097 102.042 97.8167 101.187 97.2061 99.4824C96.5901 97.7779 96.2821 95.1866 96.2821 91.7192C96.2821 88.2518 96.5901 85.6764 97.2061 83.9985C97.822 82.3205 98.8097 81.4815 100.174 81.4815C102.797 81.4815 104.109 84.8959 104.109 91.7192C104.109 98.6009 102.797 102.042 100.174 102.042Z" fill="white"/>
<path d="M152.669 101.691C150.199 98.4574 146.652 96.8379 142.038 96.8379C132.618 96.8379 127.908 103.077 127.908 115.556C127.908 121.646 129.135 126.308 131.593 129.542C134.052 132.776 137.535 134.395 142.038 134.395C146.732 134.395 150.3 132.818 152.727 129.664C155.159 126.51 156.375 121.805 156.375 115.556C156.375 109.55 155.138 104.93 152.669 101.691ZM142.118 125.963C140.753 125.963 139.76 125.108 139.149 123.404C138.533 121.699 138.225 119.108 138.225 115.641C138.225 112.173 138.533 109.598 139.149 107.92C139.765 106.242 140.753 105.403 142.118 105.403C144.741 105.403 146.052 108.817 146.052 115.641C146.052 122.522 144.741 125.963 142.118 125.963Z" fill="white"/>
<path d="M141.523 74.4033C141.29 74.0051 140.86 73.7449 140.403 73.7449H134.328C133.373 73.7449 132.496 74.2812 132.034 75.1148L100.637 131.724C100.414 132.128 100.419 132.632 100.652 133.031C100.886 133.429 101.316 133.684 101.773 133.684H108.623C109.095 133.684 109.531 133.418 109.764 133.004L141.539 75.7096C141.762 75.306 141.757 74.8016 141.523 74.4033Z" fill="white"/>
<g opacity="0.3">
<path opacity="0.3" d="M97.3655 78.678C95.3955 72.253 95.4858 62.4932 105.097 48.0767C80.2993 55.2186 61.8843 77.7063 61.8843 104.607C61.8843 137.852 89.8678 163.531 123.204 162.007C135.496 161.445 146.748 157.25 155.945 150.591C155.658 141.723 153.731 132.017 148.304 123.064C133.383 98.4471 103.552 98.8347 97.3655 78.678Z" fill="url(#paint3_linear_147_1955)"/>
</g>
<mask id="mask0_147_1955" style="mask-type:luminance" maskUnits="userSpaceOnUse" x="35" y="22" width="130" height="96">
<path d="M113.184 22.6577C57.3391 22.6577 51.0202 70.3625 51.0202 70.3625H35V74.6954L66.4881 117.998L104.959 67.7288H89.8042L111.246 42.5914C111.246 42.5914 135.889 46.9933 144.396 49.8501C155.388 53.9016 164.032 63.0985 164.032 63.0985C164.032 63.0985 155.451 22.6577 113.184 22.6577Z" fill="white"/>
</mask>
<g mask="url(#mask0_147_1955)">
<path d="M162.859 71.5255V71.706C161.191 69.5396 158.207 66.5288 156.418 64.7871C156.386 64.7075 156.328 64.6331 156.296 64.5535C155.297 62.2755 153.954 59.8117 152.196 57.3479C150.449 54.8787 148.235 52.4521 145.649 50.2112C145.341 49.9192 144.98 49.6643 144.651 49.3882C144.481 49.2554 144.311 49.1174 144.141 48.9846L143.892 48.7829C143.801 48.7138 143.711 48.6554 143.626 48.5864C143.27 48.3315 142.915 48.0713 142.559 47.8111L142.293 47.6147L142.012 47.4341C141.826 47.312 141.64 47.1899 141.454 47.0677C140.722 46.5633 139.93 46.1226 139.16 45.6606C138.767 45.4376 138.353 45.2305 137.955 45.0181C137.759 44.9119 137.557 44.8004 137.355 44.6995C137.148 44.6039 136.941 44.503 136.734 44.4074C133.431 42.8198 129.825 41.6675 126.13 41.0356C125.668 40.9613 125.206 40.8922 124.739 40.8179C124.277 40.7542 123.804 40.717 123.342 40.6639L122.641 40.5896L121.94 40.5524L121.239 40.5099C121.006 40.4993 120.777 40.4781 120.538 40.4781C120.071 40.4781 119.604 40.4728 119.136 40.4674C119.02 40.4674 118.898 40.4621 118.791 40.4674L118.478 40.4834L117.857 40.5152L117.236 40.5471C117.182 40.5471 117.145 40.5471 117.071 40.5524L116.434 40.6002L115.584 40.6586L114.947 40.7064L114.841 40.7117H114.804C114.804 40.7117 114.581 40.7117 114.952 40.717L113.577 40.9082C113.349 40.94 113.12 40.9613 112.897 41.0091L112.223 41.1365L111.549 41.2639L111.214 41.3277C111.103 41.3489 110.991 41.3808 110.885 41.4073C110.444 41.5135 110.003 41.6197 109.568 41.7259C109.345 41.7737 109.133 41.8427 108.92 41.9064L108.278 42.0976L107.635 42.2835L107.009 42.5012C106.589 42.6498 106.17 42.7826 105.766 42.9419C105.362 43.1065 104.954 43.2658 104.55 43.4357C101.348 44.7898 98.4701 46.5421 96.0222 48.5439L95.5602 48.9103L95.1248 49.3032C94.8328 49.5634 94.5354 49.8077 94.2593 50.0732C94.2487 50.0838 94.238 50.0944 94.2274 50.105C93.6911 50.636 93.1442 51.1352 92.661 51.6821C92.5335 51.8149 92.4061 51.9529 92.284 52.0857L92.0928 52.2874L91.9176 52.4998C91.6839 52.776 91.4503 53.0574 91.2167 53.3282C91.1583 53.3972 91.0998 53.461 91.0414 53.53L90.8821 53.7424C90.7706 53.8857 90.6644 54.0291 90.5582 54.1672C90.3511 54.4539 90.1228 54.7141 89.9316 55.0115C88.344 57.2788 87.128 59.5462 86.3049 61.7073C85.4766 63.8632 84.9827 65.8863 84.696 67.6757C84.6642 67.8988 84.6323 68.1218 84.6057 68.3395C84.5792 68.5572 84.5367 68.7643 84.5261 68.9767C84.4889 69.3962 84.4571 69.7997 84.4199 70.1821C84.3987 70.5697 84.3987 70.9467 84.3774 71.2971C84.3721 71.4724 84.3562 71.6476 84.3562 71.8122C84.3615 71.9821 84.3668 72.1467 84.3721 72.306C84.3774 72.6246 84.3827 72.9273 84.388 73.2087C84.388 73.2884 84.3987 73.3309 84.404 73.384C84.4093 73.4371 84.4199 73.4902 84.4252 73.538C84.4358 73.6388 84.4464 73.6229 84.4571 73.7132C84.4624 73.7928 84.473 73.8247 84.4783 73.8247H100.148L90.6273 83.8765L68.4794 106.943L36.8213 73.8406H53.4681C53.4893 73.8406 53.5158 73.5698 53.5424 73.3574C53.6061 72.8955 53.6751 72.4494 53.7495 71.9025C53.792 71.6317 53.8291 71.3768 53.8769 71.0847C53.8982 70.9414 53.9247 70.8086 53.946 70.6546C53.9672 70.506 53.9884 70.3467 54.0203 70.2192C54.1371 69.6723 54.2592 69.0935 54.3867 68.4776C54.4557 68.1696 54.5247 67.8563 54.5938 67.5377C54.6681 67.2138 54.7584 66.8899 54.8486 66.5553C55.0292 65.8863 55.2044 65.1854 55.4221 64.4632C55.6558 63.7464 55.9 62.9977 56.1496 62.2224C56.2717 61.8348 56.431 61.4472 56.5797 61.0542C56.7284 60.6666 56.8824 60.263 57.0417 59.8542C58.332 56.6257 60.1002 53.1052 62.4578 49.574C64.8048 46.0376 67.7997 42.5118 71.3521 39.2462C71.7822 38.8267 72.2601 38.4443 72.7167 38.0408C72.9503 37.8443 73.1787 37.6425 73.4123 37.4461L73.7681 37.1487L74.1292 36.862C74.6177 36.485 75.1115 36.1026 75.6 35.715L75.9717 35.4283L76.3594 35.1575C76.6195 34.9716 76.8744 34.7911 77.1346 34.6105C78.1488 33.8671 79.2427 33.2034 80.3312 32.5131C80.8781 32.1786 81.4463 31.8653 82.0092 31.5414C82.2853 31.3821 82.572 31.2228 82.8535 31.0635C83.1455 30.9148 83.4322 30.7661 83.7243 30.6121C88.3546 28.1961 93.4734 26.3642 98.7887 25.265C99.4524 25.1429 100.121 25.0154 100.791 24.888C101.46 24.7712 102.134 24.6862 102.808 24.5906L103.817 24.4526L104.831 24.357L105.846 24.2667C106.185 24.2349 106.52 24.203 106.86 24.1871C107.534 24.1552 108.214 24.0809 108.894 24.049C109.058 24.0437 109.233 23.98 109.398 23.98H109.908L110.922 24.0331L111.936 24.0649C112.276 24.0649 112.611 24.1074 112.95 24.1233L114.963 24.2402C115.42 24.2455 115.122 24.2508 115.239 24.2561L115.292 24.2614L115.398 24.272L115.605 24.2986L116.03 24.3464L116.874 24.4473L117.299 24.495L117.506 24.5216L117.767 24.5535L118.834 24.7021L119.901 24.8561L120.432 24.9358C120.607 24.9623 120.761 24.9995 120.926 25.0314C121.574 25.1641 122.227 25.2969 122.875 25.4243C123.199 25.488 123.517 25.573 123.836 25.6526L124.797 25.8969L125.747 26.1411L126.687 26.4226C127.309 26.6137 127.935 26.7943 128.551 27.0067C129.162 27.2244 129.772 27.4421 130.378 27.6598C135.194 29.4811 139.585 31.9131 143.366 34.7433C143.605 34.9185 143.838 35.0938 144.077 35.269C144.306 35.4495 144.534 35.6354 144.762 35.8212C145.214 36.1876 145.67 36.5434 146.106 36.9204C146.966 37.6903 147.821 38.4231 148.607 39.2249C148.809 39.4214 149 39.6179 149.202 39.809L149.494 40.1011L149.775 40.4037C150.147 40.8073 150.518 41.2108 150.88 41.6038L151.156 41.9011L151.416 42.2091C151.586 42.4162 151.761 42.618 151.926 42.8251C152.265 43.2339 152.616 43.6269 152.924 44.0464C154.65 46.2659 156.11 48.5121 157.321 50.7316C157.91 51.8095 158.436 52.8822 158.903 53.9388C160.337 57.1726 161.261 60.2471 161.839 62.987C161.903 63.3322 161.972 63.6667 162.036 64.0013C162.1 64.3305 162.174 64.6544 162.211 64.9783C162.301 65.6261 162.392 66.2421 162.477 66.8368C162.546 67.4368 162.588 68.0103 162.636 68.5572C162.657 68.828 162.684 69.0935 162.705 69.359C162.715 69.6192 162.774 69.8688 162.784 70.1183C162.774 70.6175 162.859 71.0901 162.859 71.5255Z" fill="url(#paint4_linear_147_1955)"/>
<path opacity="0.4" d="M162.859 71.5254V71.706C161.192 69.5395 158.207 66.5288 156.418 64.7871C156.386 64.7074 156.328 64.6331 156.296 64.5534C155.298 62.2755 153.954 59.8116 152.197 57.3478C150.45 54.8787 148.235 52.452 145.649 50.2112C145.341 49.9192 144.98 49.6643 144.651 49.3882C144.481 49.2554 144.311 49.1173 144.141 48.9846L143.892 48.7828C143.801 48.7138 143.711 48.6554 143.626 48.5864C143.27 48.3315 142.915 48.0713 142.559 47.8111L142.293 47.6146L142.012 47.4341C141.826 47.312 141.64 47.1898 141.454 47.0677C140.722 46.5633 139.93 46.1225 139.161 45.6606C138.768 45.4375 138.353 45.2304 137.955 45.018C137.759 44.9119 137.557 44.8003 137.355 44.6995C137.148 44.6039 136.941 44.503 136.734 44.4074C133.431 42.8197 129.826 41.6675 126.13 41.0356C125.668 40.9612 125.206 40.8922 124.739 40.8179C124.277 40.7541 123.804 40.717 123.342 40.6639L122.641 40.5895L121.94 40.5524L121.239 40.5099C121.006 40.4993 120.777 40.478 120.538 40.478C120.071 40.478 119.604 40.4727 119.137 40.4674C119.02 40.4674 118.898 40.4621 118.791 40.4674L118.478 40.4833L117.857 40.5152L117.236 40.5471C117.183 40.5471 117.145 40.5471 117.071 40.5524L116.434 40.6002L115.584 40.6586L114.947 40.7064L114.841 40.7117H114.804C114.804 40.7117 114.581 40.7117 114.952 40.717L113.577 40.9081C113.349 40.94 113.12 40.9612 112.897 41.009L112.223 41.1365L111.549 41.2639L111.214 41.3276C111.103 41.3489 110.991 41.3807 110.885 41.4073C110.444 41.5135 110.003 41.6197 109.568 41.7259C109.345 41.7737 109.133 41.8427 108.92 41.9064L108.278 42.0976L107.635 42.2834L107.009 42.5011C106.589 42.6498 106.17 42.7826 105.766 42.9419C105.363 43.1065 104.954 43.2658 104.55 43.4357C101.348 44.7897 98.4702 46.542 96.0223 48.5439L95.5603 48.9103L95.1249 49.3032C94.8329 49.5634 94.5355 49.8076 94.2594 50.0731C94.2488 50.0838 94.2382 50.0944 94.2275 50.105C101.263 41.8108 112.653 36.4265 125.514 36.4265C138.688 36.4265 150.327 42.0816 157.31 50.7157C157.899 51.7936 158.425 52.8662 158.892 53.9229C160.326 57.1566 161.25 60.2311 161.829 62.9711C161.893 63.3162 161.962 63.6507 162.025 63.9853C162.089 64.3145 162.163 64.6384 162.201 64.9623C162.291 65.6101 162.381 66.2261 162.466 66.8208C162.535 67.4208 162.578 67.9943 162.625 68.5412C162.647 68.812 162.673 69.0775 162.694 69.343C162.705 69.6032 162.763 69.8528 162.774 70.1024C162.774 70.6174 162.859 71.09 162.859 71.5254Z" fill="url(#paint5_linear_147_1955)"/>
</g>
<path d="M46.4434 166.792V171.629C46.4434 173.19 56.2137 174.459 68.262 174.459C80.3104 174.459 90.0807 173.19 90.0807 171.629V166.792H46.4434Z" fill="url(#paint6_linear_147_1955)"/>
<path d="M90.0754 166.792C90.0754 168.353 80.305 169.622 68.2567 169.622C56.2083 169.622 46.438 168.353 46.438 166.792C46.438 165.231 56.2083 163.961 68.2567 163.961C80.305 163.961 90.0754 165.225 90.0754 166.792Z" fill="url(#paint7_linear_147_1955)"/>
<path d="M68.2565 169.818C57.5835 169.818 46.4272 168.799 46.4272 166.834C46.4272 166.728 46.4644 166.537 46.5759 166.537C46.6821 166.537 46.6396 166.686 46.6396 166.792C46.6396 168.04 55.5179 169.425 68.2619 169.425C81.0058 169.425 89.8841 168.034 89.8841 166.792C89.8841 166.686 89.9 166.585 90.0115 166.585C90.123 166.585 90.0911 166.728 90.0911 166.834C90.0911 168.799 78.9296 169.818 68.2565 169.818Z" fill="url(#paint8_linear_147_1955)"/>
<path d="M66.196 166.946C66.4084 166.797 66.6368 166.654 66.881 166.505C67.12 166.362 67.4386 166.229 67.8209 166.112C68.2032 165.995 68.6811 165.9 69.2599 165.825C69.8334 165.751 70.5555 165.714 71.4157 165.708C72.26 165.703 73.0512 165.73 73.7893 165.788C74.5274 165.846 75.1805 165.931 75.7434 166.048C76.3062 166.165 76.7629 166.303 77.1133 166.473C77.4638 166.643 77.6709 166.834 77.7399 167.052L80.1984 167.078C80.379 167.078 80.533 167.094 80.671 167.121C80.8091 167.147 80.8728 167.185 80.8728 167.227V167.429L77.7134 167.397C77.6019 167.647 77.3204 167.87 76.8691 168.077C76.4177 168.284 75.839 168.459 75.138 168.613L73.9858 168.454C73.8849 168.438 73.7999 168.417 73.7309 168.395C73.6672 168.369 73.63 168.347 73.63 168.316C73.63 168.278 73.7203 168.231 73.8955 168.183C74.076 168.135 74.2725 168.071 74.4955 167.997C74.7185 167.923 74.9363 167.838 75.154 167.737C75.3664 167.636 75.5097 167.519 75.5841 167.376L68.1289 167.301C67.9324 167.445 67.7147 167.588 67.4704 167.726C67.2262 167.864 66.9076 167.992 66.504 168.103C66.1005 168.215 65.6013 168.305 65.0066 168.374C64.4066 168.443 63.6526 168.48 62.7446 168.486C62.0596 168.491 61.3958 168.464 60.7427 168.406C60.0896 168.353 59.5108 168.268 59.0063 168.156C58.5019 168.045 58.0877 167.912 57.7638 167.747C57.4399 167.583 57.2594 167.397 57.2222 167.19L55.1991 167.169C55.0185 167.169 54.8646 167.153 54.7212 167.126C54.5831 167.1 54.5088 167.062 54.5088 167.02V166.818L57.2753 166.845C57.3974 166.632 57.647 166.447 58.0293 166.287C58.4116 166.128 58.8789 165.99 59.4311 165.862L60.3551 165.99C60.6365 166.027 60.7746 166.075 60.7746 166.128C60.7746 166.154 60.7161 166.192 60.5993 166.234C60.4825 166.277 60.3445 166.33 60.1852 166.388C60.0259 166.447 59.8719 166.516 59.7232 166.595C59.5745 166.675 59.463 166.765 59.3887 166.866L66.196 166.946ZM59.3727 167.222C59.4258 167.355 59.5533 167.466 59.7391 167.567C59.925 167.662 60.1586 167.742 60.44 167.806C60.7215 167.87 61.0347 167.912 61.3852 167.944C61.7357 167.97 62.1074 167.986 62.4897 167.986C62.9357 167.986 63.3287 167.965 63.6632 167.928C63.9924 167.891 64.2845 167.843 64.5393 167.779C64.7889 167.716 65.0119 167.647 65.1978 167.562C65.3836 167.477 65.5535 167.392 65.7022 167.291L59.3727 167.222ZM75.6 167.041C75.5469 166.908 75.4088 166.786 75.1964 166.685C74.984 166.585 74.7132 166.5 74.3893 166.431C74.0601 166.362 73.6778 166.308 73.2424 166.277C72.807 166.245 72.3291 166.229 71.8034 166.229C71.3361 166.229 70.9325 166.25 70.598 166.293C70.2635 166.33 69.9714 166.383 69.7219 166.452C69.4776 166.521 69.2652 166.595 69.09 166.685C68.9147 166.776 68.7554 166.871 68.6068 166.972L75.6 167.041Z" fill="#FCB048"/>
<path d="M68.262 164.264C58.5342 164.264 48.4027 165.119 46.7832 166.776C46.8469 166.834 46.9053 166.898 46.9584 166.962C48.3231 165.809 56.6863 164.652 68.2567 164.652C80.1245 164.652 88.6205 165.873 89.6506 167.052C89.7037 166.988 89.7568 166.924 89.8152 166.866C88.4824 165.151 78.1598 164.264 68.262 164.264Z" fill="url(#paint9_linear_147_1955)"/>
<path d="M40.374 161.71V166.547C40.374 168.108 50.1444 169.378 62.1927 169.378C74.241 169.378 84.0114 168.108 84.0114 166.547V161.71H40.374Z" fill="url(#paint10_linear_147_1955)"/>
<path d="M84.0114 161.71C84.0114 163.271 74.241 164.54 62.1927 164.54C50.1444 164.54 40.374 163.271 40.374 161.71C40.374 160.149 50.1444 158.88 62.1927 158.88C74.241 158.874 84.0114 160.143 84.0114 161.71Z" fill="url(#paint11_linear_147_1955)"/>
<path d="M62.1926 164.731C51.5195 164.731 40.3633 163.712 40.3633 161.747C40.3633 161.641 40.4005 161.45 40.512 161.45C40.6182 161.45 40.5757 161.598 40.5757 161.705C40.5757 162.952 49.454 164.338 62.1979 164.338C74.9418 164.338 83.8201 162.947 83.8201 161.705C83.8201 161.598 83.836 161.497 83.9475 161.497C84.0537 161.497 84.0272 161.641 84.0272 161.747C84.0219 163.717 72.8656 164.731 62.1926 164.731Z" fill="url(#paint12_linear_147_1955)"/>
<path d="M60.1321 161.864C60.3445 161.715 60.5728 161.572 60.8171 161.423C61.056 161.28 61.3746 161.147 61.7569 161.03C62.1392 160.913 62.6171 160.818 63.1959 160.743C63.7694 160.669 64.4916 160.632 65.3518 160.627C66.1961 160.621 66.9872 160.648 67.7253 160.706C68.4634 160.765 69.1166 160.85 69.6794 160.966C70.2423 161.083 70.6989 161.221 71.0494 161.391C71.3998 161.561 71.6069 161.752 71.676 161.97L74.1345 161.997C74.315 161.997 74.469 162.013 74.6071 162.039C74.7451 162.066 74.8088 162.103 74.8088 162.145V162.347L71.6494 162.315C71.5379 162.565 71.2565 162.788 70.8051 162.995C70.3538 163.202 69.775 163.377 69.0741 163.531L67.9218 163.372C67.8209 163.356 67.736 163.335 67.6669 163.313C67.5979 163.287 67.566 163.266 67.566 163.234C67.566 163.197 67.6563 163.149 67.8315 163.101C68.0121 163.053 68.2085 162.99 68.4316 162.915C68.6546 162.841 68.8723 162.756 69.09 162.655C69.3024 162.554 69.4458 162.437 69.5201 162.294L62.0649 162.22C61.8684 162.363 61.6507 162.506 61.4065 162.644C61.1622 162.782 60.8436 162.91 60.4401 163.021C60.0365 163.133 59.5374 163.223 58.9426 163.292C58.3426 163.361 57.5886 163.398 56.6806 163.404C55.9956 163.409 55.3319 163.383 54.6787 163.324C54.0256 163.271 53.4468 163.186 52.9424 163.075C52.4379 162.963 52.0237 162.83 51.6998 162.666C51.3759 162.501 51.1954 162.315 51.1582 162.108L49.1351 162.087C48.9546 162.087 48.8006 162.071 48.6572 162.044C48.5192 162.018 48.4448 161.981 48.4448 161.938V161.736L51.2113 161.763C51.3334 161.551 51.583 161.365 51.9653 161.205C52.3477 161.046 52.8149 160.908 53.3672 160.786L54.2911 160.913C54.5725 160.951 54.7106 160.998 54.7106 161.051C54.7106 161.078 54.6522 161.115 54.5354 161.158C54.4185 161.2 54.2805 161.253 54.1212 161.312C53.9619 161.37 53.8079 161.439 53.6592 161.519C53.5105 161.598 53.399 161.689 53.3247 161.79L60.1321 161.864ZM53.3088 162.14C53.3619 162.273 53.4893 162.384 53.6751 162.485C53.861 162.581 54.0946 162.66 54.3761 162.724C54.6575 162.788 54.9708 162.83 55.3212 162.862C55.6717 162.889 56.0434 162.905 56.4257 162.905C56.8718 162.905 57.2647 162.883 57.5992 162.846C57.9284 162.809 58.2205 162.761 58.4754 162.698C58.7249 162.634 58.948 162.565 59.1338 162.48C59.3196 162.395 59.4896 162.31 59.6382 162.209L53.3088 162.14ZM69.536 161.959C69.4829 161.827 69.3449 161.705 69.1325 161.604C68.9201 161.503 68.6493 161.418 68.3254 161.349C67.9961 161.28 67.6138 161.227 67.1784 161.195C66.743 161.163 66.2651 161.147 65.7394 161.147C65.2721 161.147 64.8686 161.168 64.534 161.211C64.1995 161.248 63.9075 161.301 63.6579 161.37C63.4136 161.439 63.2012 161.513 63.026 161.604C62.8508 161.694 62.6915 161.79 62.5428 161.89L69.536 161.959Z" fill="#FCB048"/>
<path d="M62.1981 159.182C52.4702 159.182 42.3388 160.037 40.7192 161.694C40.783 161.752 40.8414 161.816 40.8945 161.88C42.2591 160.728 50.6223 159.57 62.1928 159.57C74.0606 159.57 82.5565 160.791 83.5866 161.97C83.6397 161.906 83.6929 161.843 83.7513 161.784C82.4185 160.069 72.0959 159.182 62.1981 159.182Z" fill="url(#paint13_linear_147_1955)"/>
<path d="M45.6099 156.639V161.477C45.6099 163.038 55.3802 164.307 67.4285 164.307C79.4769 164.307 89.2472 163.038 89.2472 161.477V156.639H45.6099Z" fill="url(#paint14_linear_147_1955)"/>
<path d="M89.2418 156.639C89.2418 158.2 79.4715 159.469 67.4232 159.469C55.3748 159.469 45.6045 158.2 45.6045 156.639C45.6045 155.078 55.3748 153.809 67.4232 153.809C79.4768 153.809 89.2418 155.078 89.2418 156.639Z" fill="url(#paint15_linear_147_1955)"/>
<path d="M67.4284 159.666C56.7554 159.666 45.5991 158.646 45.5991 156.682C45.5991 156.575 45.6363 156.384 45.7478 156.384C45.854 156.384 45.8115 156.533 45.8115 156.639C45.8115 157.887 54.6898 159.273 67.4337 159.273C80.1777 159.273 89.0559 157.882 89.0559 156.639C89.0559 156.533 89.0719 156.432 89.1834 156.432C89.2896 156.432 89.263 156.575 89.263 156.682C89.2577 158.646 78.0962 159.666 67.4284 159.666Z" fill="url(#paint16_linear_147_1955)"/>
<path d="M65.363 156.798C65.5754 156.65 65.8038 156.506 66.048 156.358C66.287 156.214 66.6056 156.082 66.9879 155.965C67.3702 155.848 67.8481 155.752 68.4269 155.678C69.0004 155.604 69.7225 155.567 70.5827 155.561C71.427 155.556 72.2182 155.582 72.9563 155.641C73.6944 155.699 74.3475 155.784 74.9104 155.901C75.4732 156.018 75.9299 156.156 76.2803 156.326C76.6308 156.496 76.8379 156.687 76.9069 156.905L79.3654 156.931C79.546 156.931 79.7 156.947 79.838 156.974C79.9761 157 80.0398 157.037 80.0398 157.08V157.282L76.8804 157.25C76.7689 157.499 76.4874 157.722 76.0361 157.929C75.5847 158.137 75.0059 158.312 74.305 158.466L73.1528 158.306C73.0519 158.291 72.9669 158.269 72.8979 158.248C72.8289 158.221 72.797 158.2 72.797 158.168C72.797 158.131 72.8873 158.083 73.0625 158.036C73.243 157.988 73.4395 157.924 73.6625 157.85C73.8855 157.775 74.1032 157.691 74.321 157.59C74.5334 157.489 74.6767 157.372 74.7511 157.229L67.2959 157.154C67.0994 157.298 66.8817 157.441 66.6374 157.579C66.3932 157.717 66.0746 157.844 65.671 157.956C65.2675 158.068 64.7683 158.158 64.1736 158.227C63.5736 158.296 62.8196 158.333 61.9115 158.338C61.2266 158.344 60.5628 158.317 59.9097 158.259C59.2566 158.206 58.6778 158.121 58.1733 158.009C57.6689 157.898 57.2547 157.765 56.9308 157.6C56.6069 157.436 56.4263 157.25 56.3892 157.043L54.3661 157.021C54.1855 157.021 54.0315 157.006 53.8882 156.979C53.7501 156.952 53.6758 156.915 53.6758 156.873V156.671L56.4423 156.698C56.5644 156.485 56.814 156.299 57.1963 156.14C57.5786 155.981 58.0459 155.843 58.5981 155.721L59.5221 155.848C59.8035 155.885 59.9415 155.933 59.9415 155.986C59.9415 156.013 59.8831 156.05 59.7663 156.092C59.6495 156.135 59.5114 156.188 59.3521 156.246C59.1928 156.305 59.0389 156.374 58.8902 156.453C58.7415 156.533 58.63 156.623 58.5556 156.724L65.363 156.798ZM58.545 157.075C58.5981 157.207 58.7256 157.319 58.9114 157.42C59.0973 157.515 59.3309 157.595 59.6123 157.659C59.8938 157.722 60.207 157.765 60.5575 157.797C60.908 157.823 61.2797 157.839 61.662 157.839C62.108 157.839 62.501 157.818 62.8355 157.781C63.1647 157.744 63.4568 157.696 63.7116 157.632C63.9612 157.568 64.1842 157.499 64.3701 157.414C64.5559 157.329 64.7258 157.244 64.8745 157.144L58.545 157.075ZM74.7723 156.894C74.7192 156.761 74.5811 156.639 74.3687 156.538C74.1563 156.437 73.8855 156.352 73.5616 156.283C73.2324 156.214 72.8501 156.161 72.4147 156.129C71.9793 156.098 71.5014 156.082 70.9757 156.082C70.5084 156.082 70.1048 156.103 69.7703 156.145C69.4358 156.182 69.1437 156.236 68.8942 156.305C68.6499 156.374 68.4375 156.448 68.2623 156.538C68.087 156.629 67.9277 156.724 67.7791 156.825L74.7723 156.894Z" fill="#FCB048"/>
<path d="M67.4285 154.117C57.7007 154.117 47.5692 154.972 45.9497 156.628C46.0134 156.687 46.0718 156.75 46.1249 156.814C47.4896 155.662 55.8528 154.504 67.4232 154.504C79.291 154.504 87.787 155.726 88.8171 156.904C88.8702 156.841 88.9233 156.777 88.9817 156.719C87.6489 155.003 77.3316 154.117 67.4285 154.117Z" fill="url(#paint17_linear_147_1955)"/>
<path d="M48.7852 151.557V156.395C48.7852 157.956 58.5555 159.225 70.6038 159.225C82.6522 159.225 92.4225 157.956 92.4225 156.395V151.557H48.7852Z" fill="url(#paint18_linear_147_1955)"/>
<path d="M70.6038 154.387C82.654 154.387 92.4225 153.12 92.4225 151.557C92.4225 149.994 82.654 148.727 70.6038 148.727C58.5537 148.727 48.7852 149.994 48.7852 151.557C48.7852 153.12 58.5537 154.387 70.6038 154.387Z" fill="url(#paint19_linear_147_1955)"/>
<path d="M70.6037 154.584C59.9307 154.584 48.7744 153.565 48.7744 151.6C48.7744 151.494 48.8116 151.302 48.9231 151.302C49.0293 151.302 48.9868 151.451 48.9868 151.557C48.9868 152.805 57.8651 154.191 70.609 154.191C83.353 154.191 92.2312 152.8 92.2312 151.557C92.2312 151.451 92.2472 151.35 92.3587 151.35C92.4702 151.35 92.4383 151.494 92.4383 151.6C92.433 153.565 81.2714 154.584 70.6037 154.584Z" fill="url(#paint20_linear_147_1955)"/>
<path d="M68.5383 151.717C68.7507 151.568 68.9791 151.425 69.2233 151.276C69.4623 151.133 69.7809 151 70.1632 150.883C70.5455 150.766 71.0234 150.671 71.6022 150.596C72.1757 150.522 72.8978 150.485 73.758 150.479C74.6023 150.474 75.3935 150.501 76.1316 150.559C76.8697 150.617 77.5228 150.702 78.0857 150.819C78.6485 150.936 79.1052 151.074 79.4556 151.244C79.8061 151.414 80.0132 151.605 80.0822 151.823L82.5407 151.849C82.7213 151.849 82.8753 151.865 83.0133 151.892C83.1514 151.918 83.2151 151.956 83.2151 151.998V152.2L80.0557 152.168C79.9441 152.418 79.6627 152.641 79.2114 152.848C78.76 153.055 78.1812 153.23 77.4803 153.384L76.3281 153.225C76.2272 153.209 76.1422 153.188 76.0732 153.166C76.0095 153.14 75.9723 153.118 75.9723 153.087C75.9723 153.049 76.0626 153.002 76.2378 152.954C76.4183 152.906 76.6148 152.842 76.8378 152.768C77.0608 152.694 77.2785 152.609 77.4962 152.508C77.7086 152.407 77.852 152.29 77.9264 152.147L70.4712 152.072C70.2747 152.216 70.057 152.359 69.8127 152.497C69.5685 152.635 69.2499 152.763 68.8463 152.874C68.4427 152.986 67.9436 153.076 67.3489 153.145C66.7489 153.214 65.9948 153.251 65.0868 153.257C64.4019 153.262 63.7381 153.235 63.085 153.177C62.4319 153.124 61.8531 153.039 61.3486 152.927C60.8442 152.816 60.43 152.683 60.1061 152.518C59.7822 152.354 59.6016 152.168 59.5645 151.961L57.5414 151.94C57.3608 151.94 57.2068 151.924 57.0635 151.897C56.9254 151.871 56.8511 151.833 56.8511 151.791V151.589L59.6176 151.616C59.7397 151.403 59.9893 151.218 60.3716 151.058C60.7539 150.899 61.2212 150.761 61.7734 150.639L62.6974 150.766C62.9788 150.803 63.1168 150.851 63.1168 150.904C63.1168 150.931 63.0584 150.968 62.9416 151.01C62.8248 151.053 62.6867 151.106 62.5274 151.164C62.3681 151.223 62.2141 151.292 62.0655 151.372C61.9168 151.451 61.8053 151.541 61.7309 151.642L68.5383 151.717ZM61.7203 151.987C61.7734 152.12 61.9009 152.232 62.0867 152.333C62.2726 152.428 62.5062 152.508 62.7876 152.572C63.0691 152.635 63.3823 152.678 63.7328 152.71C64.0833 152.736 64.455 152.752 64.8373 152.752C65.2833 152.752 65.6762 152.731 66.0108 152.694C66.34 152.657 66.632 152.609 66.8869 152.545C67.1365 152.481 67.3595 152.412 67.5454 152.327C67.7312 152.242 67.9011 152.157 68.0498 152.056L61.7203 151.987ZM77.9476 151.807C77.8945 151.674 77.7564 151.552 77.544 151.451C77.3316 151.35 77.0608 151.265 76.7369 151.196C76.4077 151.127 76.0254 151.074 75.59 151.042C75.1546 151.01 74.6767 150.995 74.151 150.995C73.6837 150.995 73.2801 151.016 72.9456 151.058C72.6111 151.095 72.319 151.148 72.0695 151.218C71.8252 151.287 71.6128 151.361 71.4376 151.451C71.2623 151.541 71.103 151.637 70.9544 151.738L77.9476 151.807Z" fill="#FCB048"/>
<path d="M70.6038 149.03C60.876 149.03 50.7445 149.885 49.125 151.541C49.1887 151.6 49.2471 151.664 49.3002 151.727C50.6649 150.575 59.0281 149.417 70.5985 149.417C82.4663 149.417 90.9623 150.639 91.9924 151.818C92.0455 151.754 92.0986 151.69 92.157 151.632C90.8242 149.917 80.5069 149.03 70.6038 149.03Z" fill="url(#paint21_linear_147_1955)"/>
<path d="M46.4434 146.072V150.91C46.4434 152.471 56.2137 153.74 68.262 153.74C80.3104 153.74 90.0807 152.471 90.0807 150.91V146.072H46.4434Z" fill="url(#paint22_linear_147_1955)"/>
<path d="M90.0754 146.072C90.0754 147.633 80.305 148.902 68.2567 148.902C56.2083 148.902 46.438 147.633 46.438 146.072C46.438 144.511 56.2083 143.242 68.2567 143.242C80.305 143.242 90.0754 144.511 90.0754 146.072Z" fill="url(#paint23_linear_147_1955)"/>
<path d="M68.2565 149.099C57.5835 149.099 46.4272 148.079 46.4272 146.115C46.4272 146.009 46.4644 145.817 46.5759 145.817C46.6821 145.817 46.6396 145.966 46.6396 146.072C46.6396 147.32 55.5179 148.706 68.2619 148.706C81.0058 148.706 89.8841 147.315 89.8841 146.072C89.8841 145.966 89.9 145.865 90.0115 145.865C90.123 145.865 90.0911 146.009 90.0911 146.115C90.0911 148.079 78.9296 149.099 68.2565 149.099Z" fill="url(#paint24_linear_147_1955)"/>
<path d="M66.196 146.232C66.4084 146.083 66.6368 145.939 66.881 145.791C67.12 145.647 67.4386 145.515 67.8209 145.398C68.2032 145.281 68.6811 145.185 69.2599 145.111C69.8334 145.037 70.5555 145 71.4157 144.994C72.26 144.989 73.0512 145.016 73.7893 145.074C74.5274 145.132 75.1805 145.217 75.7434 145.334C76.3062 145.451 76.7629 145.589 77.1133 145.759C77.4638 145.929 77.6709 146.12 77.7399 146.338L80.1984 146.364C80.379 146.364 80.533 146.38 80.671 146.407C80.8091 146.433 80.8728 146.47 80.8728 146.513V146.715L77.7134 146.683C77.6019 146.932 77.3204 147.155 76.8691 147.363C76.4177 147.57 75.839 147.745 75.138 147.899L73.9858 147.74C73.8849 147.724 73.7999 147.702 73.7309 147.681C73.6672 147.655 73.63 147.633 73.63 147.602C73.63 147.564 73.7203 147.517 73.8955 147.469C74.076 147.421 74.2725 147.357 74.4955 147.283C74.7185 147.209 74.9363 147.124 75.154 147.023C75.3664 146.922 75.5097 146.805 75.5841 146.662L68.1289 146.587C67.9324 146.731 67.7147 146.874 67.4704 147.012C67.2262 147.15 66.9076 147.278 66.504 147.389C66.1005 147.501 65.6013 147.591 65.0066 147.66C64.4066 147.729 63.6526 147.766 62.7446 147.771C62.0596 147.777 61.3958 147.75 60.7427 147.692C60.0896 147.639 59.5108 147.554 59.0063 147.442C58.5019 147.331 58.0877 147.198 57.7638 147.033C57.4399 146.869 57.2594 146.683 57.2222 146.476L55.1991 146.455C55.0185 146.455 54.8646 146.439 54.7212 146.412C54.5831 146.386 54.5088 146.348 54.5088 146.306V146.104L57.2753 146.131C57.3974 145.918 57.647 145.732 58.0293 145.573C58.4116 145.414 58.8789 145.276 59.4311 145.148L60.3551 145.276C60.6365 145.313 60.7746 145.361 60.7746 145.414C60.7746 145.44 60.7161 145.478 60.5993 145.52C60.4825 145.562 60.3445 145.616 60.1852 145.674C60.0259 145.732 59.8719 145.801 59.7232 145.881C59.5745 145.961 59.463 146.051 59.3887 146.152L66.196 146.232ZM59.3727 146.508C59.4258 146.64 59.5533 146.752 59.7391 146.853C59.925 146.948 60.1586 147.028 60.44 147.092C60.7215 147.155 61.0347 147.198 61.3852 147.23C61.7357 147.256 62.1074 147.272 62.4897 147.272C62.9357 147.272 63.3287 147.251 63.6632 147.214C63.9924 147.177 64.2845 147.129 64.5393 147.065C64.7889 147.001 65.0119 146.932 65.1978 146.847C65.3836 146.763 65.5535 146.678 65.7022 146.577L59.3727 146.508ZM75.6 146.327C75.5469 146.194 75.4088 146.072 75.1964 145.971C74.984 145.87 74.7132 145.785 74.3893 145.716C74.0601 145.647 73.6778 145.594 73.2424 145.562C72.807 145.531 72.3291 145.515 71.8034 145.515C71.3361 145.515 70.9325 145.536 70.598 145.578C70.2635 145.616 69.9714 145.669 69.7219 145.738C69.4776 145.807 69.2652 145.881 69.09 145.971C68.9147 146.062 68.7554 146.157 68.6068 146.258L75.6 146.327Z" fill="#FCB048"/>
<path d="M68.262 143.55C58.5342 143.55 48.4027 144.405 46.7832 146.061C46.8469 146.12 46.9053 146.184 46.9584 146.247C48.3231 145.095 56.6863 143.937 68.2567 143.937C80.1245 143.937 88.6205 145.159 89.6506 146.338C89.7037 146.274 89.7568 146.21 89.8152 146.152C88.4824 144.437 78.1598 143.55 68.262 143.55Z" fill="url(#paint25_linear_147_1955)"/>
<path d="M40.374 140.99V145.828C40.374 147.389 50.1444 148.658 62.1927 148.658C74.241 148.658 84.0114 147.389 84.0114 145.828V140.99H40.374Z" fill="url(#paint26_linear_147_1955)"/>
<path d="M62.1927 143.821C74.2428 143.821 84.0114 142.553 84.0114 140.99C84.0114 139.427 74.2428 138.16 62.1927 138.16C50.1426 138.16 40.374 139.427 40.374 140.99C40.374 142.553 50.1426 143.821 62.1927 143.821Z" fill="url(#paint27_linear_147_1955)"/>
<path d="M62.1926 144.017C51.5195 144.017 40.3633 142.998 40.3633 141.033C40.3633 140.927 40.4005 140.736 40.512 140.736C40.6182 140.736 40.5757 140.884 40.5757 140.99C40.5757 142.238 49.454 143.624 62.1979 143.624C74.9418 143.624 83.8201 142.233 83.8201 140.99C83.8201 140.884 83.836 140.783 83.9475 140.783C84.0537 140.783 84.0272 140.927 84.0272 141.033C84.0219 142.998 72.8656 144.017 62.1926 144.017Z" fill="url(#paint28_linear_147_1955)"/>
<path d="M60.1321 141.144C60.3445 140.996 60.5729 140.852 60.8171 140.704C61.0561 140.56 61.3747 140.428 61.757 140.311C62.1393 140.194 62.6172 140.098 63.196 140.024C63.7695 139.95 64.4916 139.912 65.3518 139.907C66.1961 139.902 66.9873 139.928 67.7254 139.987C68.4635 140.045 69.1166 140.13 69.6795 140.247C70.2423 140.364 70.699 140.502 71.0494 140.672C71.3999 140.842 71.607 141.033 71.676 141.251L74.1345 141.277C74.3151 141.277 74.4691 141.293 74.6071 141.32C74.7452 141.346 74.8089 141.383 74.8089 141.426V141.628L71.6495 141.596C71.538 141.845 71.2565 142.068 70.8052 142.275C70.3538 142.482 69.775 142.658 69.0741 142.812L67.9219 142.652C67.821 142.636 67.736 142.615 67.667 142.594C67.598 142.567 67.5661 142.546 67.5661 142.514C67.5661 142.477 67.6564 142.429 67.8316 142.382C68.0121 142.334 68.2086 142.27 68.4316 142.196C68.6546 142.121 68.8724 142.036 69.0901 141.936C69.3025 141.835 69.4458 141.718 69.5202 141.574L62.0703 141.511C61.8738 141.654 61.6561 141.798 61.4118 141.936C61.1676 142.074 60.849 142.201 60.4454 142.313C60.0419 142.424 59.5427 142.514 58.948 142.583C58.348 142.652 57.594 142.69 56.686 142.695C56.001 142.7 55.3372 142.674 54.6841 142.615C54.031 142.562 53.4522 142.477 52.9477 142.366C52.4433 142.254 52.0291 142.121 51.7052 141.957C51.3813 141.792 51.2008 141.606 51.1636 141.399L49.1405 141.378C48.96 141.378 48.806 141.362 48.6626 141.336C48.5245 141.309 48.4502 141.272 48.4502 141.229V141.028L51.2167 141.054C51.3388 140.842 51.5884 140.656 51.9707 140.497C52.353 140.337 52.8203 140.199 53.3725 140.077L54.2965 140.205C54.5779 140.242 54.716 140.289 54.716 140.343C54.716 140.369 54.6576 140.406 54.5407 140.449C54.4239 140.491 54.2859 140.544 54.1266 140.603C53.9673 140.661 53.8133 140.73 53.6646 140.81C53.5159 140.89 53.4044 140.98 53.3301 141.081L60.1321 141.144ZM53.3088 141.421C53.3619 141.553 53.4894 141.665 53.6752 141.766C53.8611 141.861 54.0947 141.941 54.3761 142.005C54.6576 142.068 54.9708 142.111 55.3213 142.143C55.6718 142.169 56.0435 142.185 56.4258 142.185C56.8718 142.185 57.2647 142.164 57.5993 142.127C57.9285 142.09 58.2205 142.042 58.4754 141.978C58.725 141.914 58.948 141.845 59.1339 141.76C59.3197 141.675 59.4896 141.59 59.6383 141.49L53.3088 141.421ZM69.5361 141.24C69.483 141.107 69.3449 140.99 69.1325 140.884C68.9201 140.783 68.6493 140.698 68.3254 140.629C67.9962 140.56 67.6139 140.507 67.1785 140.475C66.7431 140.443 66.2652 140.428 65.7395 140.428C65.2722 140.428 64.8686 140.449 64.5341 140.491C64.1996 140.528 63.9075 140.582 63.658 140.651C63.4137 140.72 63.2013 140.794 63.0261 140.884C62.8508 140.974 62.6915 141.07 62.5429 141.171L69.5361 141.24Z" fill="#FCB048"/>
<path d="M62.1981 138.463C52.4702 138.463 42.3388 139.318 40.7192 140.974C40.783 141.033 40.8414 141.097 40.8945 141.16C42.2591 140.008 50.6223 138.851 62.1928 138.851C74.0606 138.851 82.5565 140.072 83.5866 141.251C83.6397 141.187 83.6929 141.123 83.7513 141.065C82.4185 139.35 72.0959 138.463 62.1981 138.463Z" fill="url(#paint29_linear_147_1955)"/>
<path d="M45.6099 135.919V140.757C45.6099 142.318 55.3802 143.587 67.4285 143.587C79.4769 143.587 89.2472 142.318 89.2472 140.757V135.919H45.6099Z" fill="url(#paint30_linear_147_1955)"/>
<path d="M67.4285 138.75C79.4787 138.75 89.2472 137.482 89.2472 135.919C89.2472 134.356 79.4787 133.089 67.4285 133.089C55.3784 133.089 45.6099 134.356 45.6099 135.919C45.6099 137.482 55.3784 138.75 67.4285 138.75Z" fill="url(#paint31_linear_147_1955)"/>
<path d="M67.4284 138.946C56.7554 138.946 45.5991 137.927 45.5991 135.962C45.5991 135.856 45.6363 135.665 45.7478 135.665C45.854 135.665 45.8115 135.813 45.8115 135.919C45.8115 137.167 54.6898 138.553 67.4337 138.553C80.1777 138.553 89.0559 137.162 89.0559 135.919C89.0559 135.813 89.0719 135.712 89.1834 135.712C89.2896 135.712 89.263 135.856 89.263 135.962C89.2577 137.932 78.0962 138.946 67.4284 138.946Z" fill="url(#paint32_linear_147_1955)"/>
<path d="M65.363 136.079C65.5754 135.93 65.8038 135.787 66.048 135.638C66.287 135.495 66.6056 135.362 66.9879 135.245C67.3702 135.128 67.8481 135.033 68.4269 134.958C69.0004 134.884 69.7225 134.847 70.5827 134.841C71.427 134.836 72.2182 134.863 72.9563 134.921C73.6944 134.98 74.3475 135.065 74.9104 135.181C75.4732 135.298 75.9299 135.436 76.2803 135.606C76.6308 135.776 76.8379 135.967 76.9069 136.185L79.3654 136.211C79.546 136.211 79.7 136.227 79.838 136.254C79.9761 136.28 80.0398 136.318 80.0398 136.36V136.562L76.8804 136.53C76.7689 136.78 76.4874 137.003 76.0361 137.21C75.5847 137.417 75.0059 137.592 74.305 137.746L73.1528 137.587C73.0519 137.571 72.9669 137.55 72.8979 137.528C72.8289 137.502 72.797 137.481 72.797 137.449C72.797 137.412 72.8873 137.364 73.0625 137.316C73.243 137.268 73.4395 137.204 73.6625 137.13C73.8855 137.056 74.1032 136.971 74.321 136.87C74.5334 136.769 74.6767 136.652 74.7511 136.509L67.2959 136.434C67.0994 136.578 66.8817 136.721 66.6374 136.859C66.3932 136.997 66.0746 137.125 65.671 137.236C65.2675 137.348 64.7683 137.438 64.1736 137.507C63.5736 137.576 62.8196 137.613 61.9115 137.619C61.2266 137.624 60.5628 137.597 59.9097 137.539C59.2566 137.486 58.6778 137.401 58.1733 137.289C57.6689 137.178 57.2547 137.045 56.9308 136.881C56.6069 136.716 56.4263 136.53 56.3892 136.323L54.3661 136.302C54.1855 136.302 54.0315 136.286 53.8882 136.259C53.7501 136.233 53.6758 136.196 53.6758 136.153V135.951L56.4423 135.978C56.5644 135.765 56.814 135.58 57.1963 135.42C57.5786 135.261 58.0459 135.123 58.5981 135.001L59.5221 135.128C59.8035 135.165 59.9415 135.213 59.9415 135.266C59.9415 135.293 59.8831 135.33 59.7663 135.372C59.6495 135.415 59.5114 135.468 59.3521 135.526C59.1928 135.585 59.0389 135.654 58.8902 135.734C58.7415 135.813 58.63 135.903 58.5556 136.004L65.363 136.079ZM58.545 136.355C58.5981 136.488 58.7256 136.599 58.9114 136.7C59.0973 136.796 59.3309 136.875 59.6123 136.939C59.8938 137.003 60.207 137.045 60.5575 137.077C60.908 137.104 61.2797 137.119 61.662 137.119C62.108 137.119 62.501 137.098 62.8355 137.061C63.1647 137.024 63.4568 136.976 63.7116 136.912C63.9612 136.849 64.1842 136.78 64.3701 136.695C64.5559 136.61 64.7258 136.525 64.8745 136.424L58.545 136.355ZM74.7723 136.174C74.7192 136.042 74.5811 135.919 74.3687 135.819C74.1563 135.718 73.8855 135.633 73.5616 135.564C73.2324 135.495 72.8501 135.442 72.4147 135.41C71.9793 135.378 71.5014 135.362 70.9757 135.362C70.5084 135.362 70.1048 135.383 69.7703 135.426C69.4358 135.463 69.1437 135.516 68.8942 135.585C68.6499 135.654 68.4375 135.728 68.2623 135.819C68.087 135.909 67.9277 136.004 67.7791 136.105L74.7723 136.174Z" fill="#FCB048"/>
<path d="M67.4285 133.397C57.7007 133.397 47.5692 134.252 45.9497 135.909C46.0134 135.967 46.0718 136.031 46.1249 136.094C47.4896 134.942 55.8528 133.785 67.4232 133.785C79.291 133.785 87.787 135.006 88.8171 136.185C88.8702 136.121 88.9233 136.057 88.9817 135.999C87.6489 134.284 77.3316 133.397 67.4285 133.397Z" fill="url(#paint33_linear_147_1955)"/>
<path d="M42.8857 130.838V135.675C42.8857 137.236 52.6561 138.505 64.7044 138.505C76.7527 138.505 86.5231 137.236 86.5231 135.675V130.838H42.8857Z" fill="url(#paint34_linear_147_1955)"/>
<path d="M64.7044 133.668C76.7545 133.668 86.5231 132.401 86.5231 130.838C86.5231 129.275 76.7545 128.008 64.7044 128.008C52.6543 128.008 42.8857 129.275 42.8857 130.838C42.8857 132.401 52.6543 133.668 64.7044 133.668Z" fill="url(#paint35_linear_147_1955)"/>
<path d="M64.7043 133.865C54.0313 133.865 42.875 132.845 42.875 130.88C42.875 130.774 42.9122 130.583 43.0237 130.583C43.1299 130.583 43.0874 130.732 43.0874 130.838C43.0874 132.086 51.9657 133.472 64.7096 133.472C77.4535 133.472 86.3318 132.08 86.3318 130.838C86.3318 130.732 86.3478 130.631 86.4593 130.631C86.5655 130.631 86.5389 130.774 86.5389 130.88C86.5336 132.845 75.3773 133.865 64.7043 133.865Z" fill="url(#paint36_linear_147_1955)"/>
<path d="M62.6438 130.997C62.8562 130.848 63.0845 130.705 63.3288 130.556C63.5677 130.413 63.8863 130.28 64.2686 130.164C64.651 130.047 65.1289 129.951 65.7076 129.877C66.2811 129.802 67.0033 129.765 67.8635 129.76C68.7078 129.755 69.499 129.781 70.2371 129.84C70.9751 129.898 71.6283 129.983 72.1911 130.1C72.754 130.217 73.2106 130.355 73.5611 130.525C73.9116 130.695 74.1186 130.886 74.1877 131.103L76.6462 131.13C76.8267 131.13 76.9807 131.146 77.1188 131.172C77.2568 131.199 77.3206 131.236 77.3206 131.279V131.48L74.1611 131.449C74.0496 131.698 73.7682 131.921 73.3168 132.128C72.8655 132.335 72.2867 132.511 71.5858 132.664L70.4335 132.505C70.3326 132.489 70.2477 132.468 70.1786 132.447C70.1096 132.42 70.0778 132.394 70.0778 132.367C70.0778 132.33 70.168 132.282 70.3433 132.234C70.5238 132.187 70.7203 132.123 70.9433 132.049C71.1663 131.974 71.384 131.889 71.6017 131.788C71.8141 131.687 71.9575 131.571 72.0318 131.427L64.5766 131.353C64.3802 131.496 64.1624 131.64 63.9182 131.778C63.6739 131.916 63.3553 132.043 62.9518 132.155C62.5482 132.266 62.0491 132.357 61.4544 132.426C60.8543 132.495 60.1003 132.532 59.1923 132.537C58.5073 132.542 57.8436 132.516 57.1904 132.457C56.5373 132.404 55.9585 132.319 55.4541 132.208C54.9496 132.096 54.5355 131.964 54.2116 131.799C53.8876 131.634 53.7071 131.449 53.6699 131.241L51.6468 131.22C51.4663 131.22 51.3123 131.204 51.1689 131.178C51.0309 131.151 50.9565 131.114 50.9565 131.072V130.87L53.723 130.896C53.8452 130.684 54.0947 130.498 54.4771 130.339C54.8594 130.179 55.3267 130.041 55.8789 129.914L56.8028 130.041C57.0843 130.079 57.2223 130.126 57.2223 130.179C57.2223 130.206 57.1639 130.243 57.0471 130.286C56.9303 130.328 56.7922 130.381 56.6329 130.44C56.4736 130.498 56.3196 130.567 56.1709 130.647C56.0223 130.726 55.9107 130.817 55.8364 130.918L62.6438 130.997ZM55.8205 131.273C55.8736 131.406 56.001 131.518 56.1869 131.618C56.3727 131.714 56.6064 131.794 56.8878 131.857C57.1692 131.921 57.4825 131.964 57.833 131.995C58.1834 132.022 58.5551 132.038 58.9374 132.038C59.3835 132.038 59.7764 132.017 60.1109 131.98C60.4402 131.942 60.7322 131.895 60.9871 131.831C61.2366 131.767 61.4597 131.698 61.6455 131.613C61.8314 131.528 62.0013 131.443 62.15 131.342L55.8205 131.273ZM72.0478 131.093C71.9947 130.96 71.8566 130.838 71.6442 130.737C71.4318 130.636 71.161 130.551 70.8371 130.482C70.5079 130.413 70.1255 130.36 69.6901 130.328C69.2547 130.296 68.7768 130.28 68.2511 130.28C67.7838 130.28 67.3803 130.302 67.0458 130.344C66.7112 130.381 66.4192 130.434 66.1696 130.503C65.9254 130.572 65.713 130.647 65.5377 130.737C65.3625 130.827 65.2032 130.923 65.0545 131.024L72.0478 131.093Z" fill="#FCB048"/>
<path d="M64.7098 128.315C54.9819 128.315 44.8505 129.17 43.231 130.827C43.2947 130.885 43.3531 130.949 43.4062 131.013C44.7708 129.861 53.1341 128.703 64.7045 128.703C76.5723 128.703 85.0682 129.924 86.0984 131.103C86.1515 131.039 86.2046 130.976 86.263 130.917C84.9302 129.202 74.6076 128.315 64.7098 128.315Z" fill="url(#paint37_linear_147_1955)"/>
<path d="M92.73 134.252L88.7847 137.056C87.5103 137.964 92.1406 146.656 99.1232 156.474C106.106 166.293 112.802 173.519 114.076 172.611L118.021 169.808L92.73 134.252Z" fill="url(#paint38_linear_147_1955)"/>
<path d="M118.021 169.808C116.747 170.716 110.051 163.489 103.069 153.671C96.0859 143.853 91.4556 135.155 92.73 134.252C94.0044 133.344 100.7 140.571 107.683 150.389C114.666 160.207 119.296 168.9 118.021 169.808Z" fill="url(#paint39_linear_147_1955)"/>
<path d="M102.909 153.782C96.7234 145.085 91.0842 135.404 92.6878 134.263C92.778 134.199 92.9533 134.119 93.017 134.21C93.0807 134.3 92.932 134.348 92.8418 134.406C91.8276 135.128 95.8419 143.168 103.228 153.554C110.614 163.935 116.891 170.371 117.91 169.643C118 169.579 118.091 169.537 118.154 169.627C118.218 169.718 118.085 169.776 117.995 169.84C116.391 170.981 109.096 162.48 102.909 153.782Z" fill="url(#paint40_linear_147_1955)"/>
<path d="M104.051 150.442C104.295 150.533 104.545 150.633 104.805 150.745C105.06 150.857 105.352 151.037 105.665 151.281C105.984 151.526 106.339 151.86 106.732 152.29C107.125 152.715 107.577 153.283 108.076 153.979C108.57 154.664 109.005 155.322 109.387 155.959C109.77 156.597 110.078 157.175 110.306 157.701C110.54 158.227 110.688 158.678 110.752 159.066C110.816 159.448 110.779 159.729 110.641 159.915L112.042 161.933C112.143 162.077 112.223 162.215 112.281 162.342C112.34 162.469 112.35 162.544 112.313 162.57L112.149 162.687L110.343 160.096C110.078 160.149 109.727 160.048 109.297 159.799C108.867 159.549 108.389 159.183 107.858 158.699L107.322 157.669C107.274 157.574 107.242 157.494 107.226 157.425C107.205 157.356 107.21 157.313 107.232 157.298C107.263 157.276 107.348 157.324 107.497 157.436C107.64 157.552 107.81 157.68 107.996 157.818C108.187 157.956 108.384 158.083 108.591 158.206C108.798 158.322 108.979 158.37 109.133 158.349L104.874 152.232C104.646 152.157 104.401 152.057 104.146 151.94C103.892 151.823 103.605 151.632 103.281 151.372C102.957 151.111 102.596 150.756 102.192 150.304C101.789 149.853 101.322 149.264 100.791 148.525C100.392 147.973 100.026 147.416 99.6967 146.853C99.3622 146.29 99.0967 145.77 98.8949 145.297C98.6931 144.819 98.5604 144.405 98.5073 144.044C98.4542 143.688 98.4966 143.433 98.6506 143.279L97.4877 141.617C97.3869 141.474 97.3072 141.336 97.2435 141.203C97.1851 141.076 97.1745 140.996 97.2116 140.969L97.3762 140.853L98.9586 143.12C99.2029 143.099 99.5002 143.194 99.8507 143.412C100.201 143.635 100.589 143.932 101.008 144.309L101.444 145.138C101.576 145.387 101.619 145.531 101.576 145.562C101.555 145.578 101.491 145.552 101.391 145.483C101.29 145.408 101.168 145.329 101.024 145.233C100.886 145.138 100.737 145.053 100.589 144.978C100.435 144.904 100.297 144.862 100.175 144.862L104.051 150.442ZM99.8719 145.042C99.7976 145.164 99.7763 145.329 99.8029 145.541C99.8347 145.748 99.9038 145.987 100.015 146.253C100.127 146.518 100.275 146.8 100.451 147.102C100.631 147.405 100.833 147.713 101.056 148.026C101.316 148.387 101.56 148.695 101.784 148.95C102.007 149.2 102.214 149.407 102.41 149.577C102.607 149.747 102.792 149.885 102.968 149.986C103.143 150.092 103.313 150.172 103.477 150.241L99.8719 145.042ZM109.425 158.158C109.504 158.036 109.52 157.855 109.478 157.627C109.435 157.398 109.35 157.128 109.217 156.82C109.085 156.512 108.904 156.172 108.681 155.795C108.458 155.423 108.193 155.02 107.885 154.595C107.614 154.218 107.359 153.899 107.136 153.65C106.908 153.4 106.695 153.193 106.499 153.028C106.302 152.864 106.116 152.736 105.947 152.651C105.771 152.561 105.601 152.487 105.437 152.423L109.425 158.158Z" fill="#FCB048"/>
<path d="M107.433 150.57C101.794 142.642 95.2255 134.884 92.937 134.523C92.9263 134.608 92.9104 134.693 92.8892 134.778C94.6202 135.224 100.408 141.368 107.115 150.798C113.991 160.467 117.926 168.098 117.565 169.622C117.644 169.627 117.729 169.632 117.809 169.648C118.43 167.556 113.173 158.636 107.433 150.57Z" fill="url(#paint41_linear_147_1955)"/>
<defs>
<linearGradient id="paint0_linear_147_1955" x1="75.6913" y1="183.385" x2="165.113" y2="12.4434" gradientUnits="userSpaceOnUse">
<stop stop-color="#0C60AE"/>
<stop offset="0.9964" stop-color="#26264F"/>
</linearGradient>
<linearGradient id="paint1_linear_147_1955" x1="20.9453" y1="295.165" x2="110.367" y2="124.223" gradientUnits="userSpaceOnUse">
<stop stop-color="#FFEDBF"/>
<stop offset="0.9964" stop-color="#FFC221"/>
</linearGradient>
<linearGradient id="paint2_linear_147_1955" x1="152.599" y1="68.8331" x2="-3.04444" y2="241.011" gradientUnits="userSpaceOnUse">
<stop stop-color="#FFE7A8"/>
<stop offset="0.9964" stop-color="#FFC221"/>
</linearGradient>
<linearGradient id="paint3_linear_147_1955" x1="61.8823" y1="105.071" x2="155.94" y2="105.071" gradientUnits="userSpaceOnUse">
<stop stop-color="#FFE6A5"/>
<stop offset="0.9964" stop-color="#FFC221"/>
</linearGradient>
<linearGradient id="paint4_linear_147_1955" x1="72.677" y1="110.002" x2="133.065" y2="27.24" gradientUnits="userSpaceOnUse">
<stop stop-color="#FCB148"/>
<stop offset="0.0520724" stop-color="#FDBA46"/>
<stop offset="0.1424" stop-color="#FFC244"/>
<stop offset="0.3183" stop-color="#FFC444"/>
<stop offset="0.4849" stop-color="#FDB946"/>
<stop offset="0.7754" stop-color="#F99C4D"/>
<stop offset="0.8658" stop-color="#F8924F"/>
<stop offset="1" stop-color="#F8924F"/>
</linearGradient>
<linearGradient id="paint5_linear_147_1955" x1="121.753" y1="70.2104" x2="144.077" y2="39.6163" gradientUnits="userSpaceOnUse">
<stop stop-color="#FCB148"/>
<stop offset="0.0520724" stop-color="#FDBA46"/>
<stop offset="0.1424" stop-color="#FFC244"/>
<stop offset="0.3183" stop-color="#FFC444"/>
<stop offset="0.4849" stop-color="#FDB946"/>
<stop offset="0.7754" stop-color="#F99C4D"/>
<stop offset="0.8658" stop-color="#F8924F"/>
<stop offset="1" stop-color="#F8924F"/>
</linearGradient>
<linearGradient id="paint6_linear_147_1955" x1="42.7106" y1="170.626" x2="92.9103" y2="170.626" gradientUnits="userSpaceOnUse">
<stop stop-color="#FCB148"/>
<stop offset="0.0520724" stop-color="#FDBA46"/>
<stop offset="0.1424" stop-color="#FFC244"/>
<stop offset="0.3183" stop-color="#FFC444"/>
<stop offset="0.4849" stop-color="#FDB946"/>
<stop offset="0.7754" stop-color="#F99C4D"/>
<stop offset="0.8658" stop-color="#F8924F"/>
<stop offset="1" stop-color="#F8924F"/>
</linearGradient>
<linearGradient id="paint7_linear_147_1955" x1="68.0411" y1="164.971" x2="70.6875" y2="187.126" gradientUnits="userSpaceOnUse">
<stop stop-color="#FFDB44"/>
<stop offset="1" stop-color="#FEEF06"/>
</linearGradient>
<linearGradient id="paint8_linear_147_1955" x1="67.9259" y1="163.983" x2="68.7386" y2="170.787" gradientUnits="userSpaceOnUse">
<stop stop-color="#FFDB44"/>
<stop offset="1" stop-color="#FEEF06"/>
</linearGradient>
<linearGradient id="paint9_linear_147_1955" x1="68.6901" y1="170.074" x2="67.8802" y2="163.294" gradientUnits="userSpaceOnUse">
<stop offset="0.00359712" stop-color="#F36F56"/>
<stop offset="0.3059" stop-color="#F99C4C"/>
<stop offset="0.545" stop-color="#FDB946"/>
<stop offset="0.6817" stop-color="#FFC444"/>
<stop offset="0.8038" stop-color="#FFC244"/>
<stop offset="0.8667" stop-color="#FEBA46"/>
<stop offset="0.916" stop-color="#FCAD49"/>
<stop offset="0.958" stop-color="#F99A4D"/>
<stop offset="0.9955" stop-color="#F58152"/>
<stop offset="1" stop-color="#F57E53"/>
</linearGradient>
<linearGradient id="paint10_linear_147_1955" x1="36.6454" y1="165.543" x2="86.845" y2="165.543" gradientUnits="userSpaceOnUse">
<stop stop-color="#FCB148"/>
<stop offset="0.0520724" stop-color="#FDBA46"/>
<stop offset="0.1424" stop-color="#FFC244"/>
<stop offset="0.3183" stop-color="#FFC444"/>
<stop offset="0.4849" stop-color="#FDB946"/>
<stop offset="0.7754" stop-color="#F99C4D"/>
<stop offset="0.8658" stop-color="#F8924F"/>
<stop offset="1" stop-color="#F8924F"/>
</linearGradient>
<linearGradient id="paint11_linear_147_1955" x1="61.9759" y1="159.888" x2="64.6224" y2="182.043" gradientUnits="userSpaceOnUse">
<stop stop-color="#FFDB44"/>
<stop offset="1" stop-color="#FEEF06"/>
</linearGradient>
<linearGradient id="paint12_linear_147_1955" x1="61.8607" y1="158.9" x2="62.6735" y2="165.704" gradientUnits="userSpaceOnUse">
<stop stop-color="#FFDB44"/>
<stop offset="1" stop-color="#FEEF06"/>
</linearGradient>
<linearGradient id="paint13_linear_147_1955" x1="62.6249" y1="164.991" x2="61.815" y2="158.211" gradientUnits="userSpaceOnUse">
<stop offset="0.00359712" stop-color="#F36F56"/>
<stop offset="0.3059" stop-color="#F99C4C"/>
<stop offset="0.545" stop-color="#FDB946"/>
<stop offset="0.6817" stop-color="#FFC444"/>
<stop offset="0.8038" stop-color="#FFC244"/>
<stop offset="0.8667" stop-color="#FEBA46"/>
<stop offset="0.916" stop-color="#FCAD49"/>
<stop offset="0.958" stop-color="#F99A4D"/>
<stop offset="0.9955" stop-color="#F58152"/>
<stop offset="1" stop-color="#F57E53"/>
</linearGradient>
<linearGradient id="paint14_linear_147_1955" x1="41.879" y1="160.475" x2="92.0787" y2="160.475" gradientUnits="userSpaceOnUse">
<stop stop-color="#FCB148"/>
<stop offset="0.0520724" stop-color="#FDBA46"/>
<stop offset="0.1424" stop-color="#FFC244"/>
<stop offset="0.3183" stop-color="#FFC444"/>
<stop offset="0.4849" stop-color="#FDB946"/>
<stop offset="0.7754" stop-color="#F99C4D"/>
<stop offset="0.8658" stop-color="#F8924F"/>
<stop offset="1" stop-color="#F8924F"/>
</linearGradient>
<linearGradient id="paint15_linear_147_1955" x1="67.2095" y1="154.82" x2="69.8559" y2="176.975" gradientUnits="userSpaceOnUse">
<stop stop-color="#FFDB44"/>
<stop offset="1" stop-color="#FEEF06"/>
</linearGradient>
<linearGradient id="paint16_linear_147_1955" x1="67.0944" y1="153.832" x2="67.9071" y2="160.636" gradientUnits="userSpaceOnUse">
<stop stop-color="#FFDB44"/>
<stop offset="1" stop-color="#FEEF06"/>
</linearGradient>
<linearGradient id="paint17_linear_147_1955" x1="67.8585" y1="159.922" x2="67.0486" y2="153.143" gradientUnits="userSpaceOnUse">
<stop offset="0.00359712" stop-color="#F36F56"/>
<stop offset="0.3059" stop-color="#F99C4C"/>
<stop offset="0.545" stop-color="#FDB946"/>
<stop offset="0.6817" stop-color="#FFC444"/>
<stop offset="0.8038" stop-color="#FFC244"/>
<stop offset="0.8667" stop-color="#FEBA46"/>
<stop offset="0.916" stop-color="#FCAD49"/>
<stop offset="0.958" stop-color="#F99A4D"/>
<stop offset="0.9955" stop-color="#F58152"/>
<stop offset="1" stop-color="#F57E53"/>
</linearGradient>
<linearGradient id="paint18_linear_147_1955" x1="45.0548" y1="155.392" x2="95.2544" y2="155.392" gradientUnits="userSpaceOnUse">
<stop stop-color="#FCB148"/>
<stop offset="0.0520724" stop-color="#FDBA46"/>
<stop offset="0.1424" stop-color="#FFC244"/>
<stop offset="0.3183" stop-color="#FFC444"/>
<stop offset="0.4849" stop-color="#FDB946"/>
<stop offset="0.7754" stop-color="#F99C4D"/>
<stop offset="0.8658" stop-color="#F8924F"/>
<stop offset="1" stop-color="#F8924F"/>
</linearGradient>
<linearGradient id="paint19_linear_147_1955" x1="70.3853" y1="149.737" x2="73.0318" y2="171.892" gradientUnits="userSpaceOnUse">
<stop stop-color="#FFDB44"/>
<stop offset="1" stop-color="#FEEF06"/>
</linearGradient>
<linearGradient id="paint20_linear_147_1955" x1="70.2701" y1="148.749" x2="71.0828" y2="155.553" gradientUnits="userSpaceOnUse">
<stop stop-color="#FFDB44"/>
<stop offset="1" stop-color="#FEEF06"/>
</linearGradient>
<linearGradient id="paint21_linear_147_1955" x1="71.0342" y1="154.84" x2="70.2243" y2="148.06" gradientUnits="userSpaceOnUse">
<stop offset="0.00359712" stop-color="#F36F56"/>
<stop offset="0.3059" stop-color="#F99C4C"/>
<stop offset="0.545" stop-color="#FDB946"/>
<stop offset="0.6817" stop-color="#FFC444"/>
<stop offset="0.8038" stop-color="#FFC244"/>
<stop offset="0.8667" stop-color="#FEBA46"/>
<stop offset="0.916" stop-color="#FCAD49"/>
<stop offset="0.958" stop-color="#F99A4D"/>
<stop offset="0.9955" stop-color="#F58152"/>
<stop offset="1" stop-color="#F57E53"/>
</linearGradient>
<linearGradient id="paint22_linear_147_1955" x1="42.7106" y1="149.908" x2="92.9103" y2="149.908" gradientUnits="userSpaceOnUse">
<stop stop-color="#FCB148"/>
<stop offset="0.0520724" stop-color="#FDBA46"/>
<stop offset="0.1424" stop-color="#FFC244"/>
<stop offset="0.3183" stop-color="#FFC444"/>
<stop offset="0.4849" stop-color="#FDB946"/>
<stop offset="0.7754" stop-color="#F99C4D"/>
<stop offset="0.8658" stop-color="#F8924F"/>
<stop offset="1" stop-color="#F8924F"/>
</linearGradient>
<linearGradient id="paint23_linear_147_1955" x1="68.0411" y1="144.253" x2="70.6875" y2="166.408" gradientUnits="userSpaceOnUse">
<stop stop-color="#FFDB44"/>
<stop offset="1" stop-color="#FEEF06"/>
</linearGradient>
<linearGradient id="paint24_linear_147_1955" x1="67.9259" y1="143.265" x2="68.7386" y2="150.069" gradientUnits="userSpaceOnUse">
<stop stop-color="#FFDB44"/>
<stop offset="1" stop-color="#FEEF06"/>
</linearGradient>
<linearGradient id="paint25_linear_147_1955" x1="68.6901" y1="149.355" x2="67.8802" y2="142.575" gradientUnits="userSpaceOnUse">
<stop offset="0.00359712" stop-color="#F36F56"/>
<stop offset="0.3059" stop-color="#F99C4C"/>
<stop offset="0.545" stop-color="#FDB946"/>
<stop offset="0.6817" stop-color="#FFC444"/>
<stop offset="0.8038" stop-color="#FFC244"/>
<stop offset="0.8667" stop-color="#FEBA46"/>
<stop offset="0.916" stop-color="#FCAD49"/>
<stop offset="0.958" stop-color="#F99A4D"/>
<stop offset="0.9955" stop-color="#F58152"/>
<stop offset="1" stop-color="#F57E53"/>
</linearGradient>
<linearGradient id="paint26_linear_147_1955" x1="36.6454" y1="144.824" x2="86.845" y2="144.824" gradientUnits="userSpaceOnUse">
<stop stop-color="#FCB148"/>
<stop offset="0.0520724" stop-color="#FDBA46"/>
<stop offset="0.1424" stop-color="#FFC244"/>
<stop offset="0.3183" stop-color="#FFC444"/>
<stop offset="0.4849" stop-color="#FDB946"/>
<stop offset="0.7754" stop-color="#F99C4D"/>
<stop offset="0.8658" stop-color="#F8924F"/>
<stop offset="1" stop-color="#F8924F"/>
</linearGradient>
<linearGradient id="paint27_linear_147_1955" x1="61.9759" y1="139.17" x2="64.6224" y2="161.324" gradientUnits="userSpaceOnUse">
<stop stop-color="#FFDB44"/>
<stop offset="1" stop-color="#FEEF06"/>
</linearGradient>
<linearGradient id="paint28_linear_147_1955" x1="61.8607" y1="138.182" x2="62.6735" y2="144.986" gradientUnits="userSpaceOnUse">
<stop stop-color="#FFDB44"/>
<stop offset="1" stop-color="#FEEF06"/>
</linearGradient>
<linearGradient id="paint29_linear_147_1955" x1="62.6249" y1="144.272" x2="61.815" y2="137.492" gradientUnits="userSpaceOnUse">
<stop offset="0.00359712" stop-color="#F36F56"/>
<stop offset="0.3059" stop-color="#F99C4C"/>
<stop offset="0.545" stop-color="#FDB946"/>
<stop offset="0.6817" stop-color="#FFC444"/>
<stop offset="0.8038" stop-color="#FFC244"/>
<stop offset="0.8667" stop-color="#FEBA46"/>
<stop offset="0.916" stop-color="#FCAD49"/>
<stop offset="0.958" stop-color="#F99A4D"/>
<stop offset="0.9955" stop-color="#F58152"/>
<stop offset="1" stop-color="#F57E53"/>
</linearGradient>
<linearGradient id="paint30_linear_147_1955" x1="41.879" y1="139.756" x2="92.0787" y2="139.756" gradientUnits="userSpaceOnUse">
<stop stop-color="#FCB148"/>
<stop offset="0.0520724" stop-color="#FDBA46"/>
<stop offset="0.1424" stop-color="#FFC244"/>
<stop offset="0.3183" stop-color="#FFC444"/>
<stop offset="0.4849" stop-color="#FDB946"/>
<stop offset="0.7754" stop-color="#F99C4D"/>
<stop offset="0.8658" stop-color="#F8924F"/>
<stop offset="1" stop-color="#F8924F"/>
</linearGradient>
<linearGradient id="paint31_linear_147_1955" x1="67.2095" y1="134.101" x2="69.856" y2="156.256" gradientUnits="userSpaceOnUse">
<stop stop-color="#FFDB44"/>
<stop offset="1" stop-color="#FEEF06"/>
</linearGradient>
<linearGradient id="paint32_linear_147_1955" x1="67.0944" y1="133.113" x2="67.9071" y2="139.918" gradientUnits="userSpaceOnUse">
<stop stop-color="#FFDB44"/>
<stop offset="1" stop-color="#FEEF06"/>
</linearGradient>
<linearGradient id="paint33_linear_147_1955" x1="67.8585" y1="139.204" x2="67.0486" y2="132.424" gradientUnits="userSpaceOnUse">
<stop offset="0.00359712" stop-color="#F36F56"/>
<stop offset="0.3059" stop-color="#F99C4C"/>
<stop offset="0.545" stop-color="#FDB946"/>
<stop offset="0.6817" stop-color="#FFC444"/>
<stop offset="0.8038" stop-color="#FFC244"/>
<stop offset="0.8667" stop-color="#FEBA46"/>
<stop offset="0.916" stop-color="#FCAD49"/>
<stop offset="0.958" stop-color="#F99A4D"/>
<stop offset="0.9955" stop-color="#F58152"/>
<stop offset="1" stop-color="#F57E53"/>
</linearGradient>
<linearGradient id="paint34_linear_147_1955" x1="39.1568" y1="134.673" x2="89.3565" y2="134.673" gradientUnits="userSpaceOnUse">
<stop stop-color="#FCB148"/>
<stop offset="0.0520724" stop-color="#FDBA46"/>
<stop offset="0.1424" stop-color="#FFC244"/>
<stop offset="0.3183" stop-color="#FFC444"/>
<stop offset="0.4849" stop-color="#FDB946"/>
<stop offset="0.7754" stop-color="#F99C4D"/>
<stop offset="0.8658" stop-color="#F8924F"/>
<stop offset="1" stop-color="#F8924F"/>
</linearGradient>
<linearGradient id="paint35_linear_147_1955" x1="64.4873" y1="129.018" x2="67.1338" y2="151.173" gradientUnits="userSpaceOnUse">
<stop stop-color="#FFDB44"/>
<stop offset="1" stop-color="#FEEF06"/>
</linearGradient>
<linearGradient id="paint36_linear_147_1955" x1="64.3721" y1="128.031" x2="65.1849" y2="134.835" gradientUnits="userSpaceOnUse">
<stop stop-color="#FFDB44"/>
<stop offset="1" stop-color="#FEEF06"/>
</linearGradient>
<linearGradient id="paint37_linear_147_1955" x1="65.1364" y1="134.121" x2="64.3265" y2="127.341" gradientUnits="userSpaceOnUse">
<stop offset="0.00359712" stop-color="#F36F56"/>
<stop offset="0.3059" stop-color="#F99C4C"/>
<stop offset="0.545" stop-color="#FDB946"/>
<stop offset="0.6817" stop-color="#FFC444"/>
<stop offset="0.8038" stop-color="#FFC244"/>
<stop offset="0.8667" stop-color="#FEBA46"/>
<stop offset="0.916" stop-color="#FCAD49"/>
<stop offset="0.958" stop-color="#F99A4D"/>
<stop offset="0.9955" stop-color="#F58152"/>
<stop offset="1" stop-color="#F57E53"/>
</linearGradient>
<linearGradient id="paint38_linear_147_1955" x1="87.4413" y1="133.432" x2="116.537" y2="174.34" gradientUnits="userSpaceOnUse">
<stop stop-color="#FCB148"/>
<stop offset="0.0520724" stop-color="#FDBA46"/>
<stop offset="0.1424" stop-color="#FFC244"/>
<stop offset="0.3183" stop-color="#FFC444"/>
<stop offset="0.4849" stop-color="#FDB946"/>
<stop offset="0.7754" stop-color="#F99C4D"/>
<stop offset="0.8658" stop-color="#F8924F"/>
<stop offset="1" stop-color="#F8924F"/>
</linearGradient>
<linearGradient id="paint39_linear_147_1955" x1="106.73" y1="150.797" x2="90.2124" y2="165.793" gradientUnits="userSpaceOnUse">
<stop stop-color="#FFDB44"/>
<stop offset="1" stop-color="#FEEF06"/>
</linearGradient>
<linearGradient id="paint40_linear_147_1955" x1="107.469" y1="150.131" x2="102.396" y2="154.736" gradientUnits="userSpaceOnUse">
<stop stop-color="#FFDB44"/>
<stop offset="1" stop-color="#FEEF06"/>
</linearGradient>
<linearGradient id="paint41_linear_147_1955" x1="102.949" y1="154.282" x2="108.004" y2="149.694" gradientUnits="userSpaceOnUse">
<stop offset="0.00359712" stop-color="#F36F56"/>
<stop offset="0.3059" stop-color="#F99C4C"/>
<stop offset="0.545" stop-color="#FDB946"/>
<stop offset="0.6817" stop-color="#FFC444"/>
<stop offset="0.8038" stop-color="#FFC244"/>
<stop offset="0.8667" stop-color="#FEBA46"/>
<stop offset="0.916" stop-color="#FCAD49"/>
<stop offset="0.958" stop-color="#F99A4D"/>
<stop offset="0.9955" stop-color="#F58152"/>
<stop offset="1" stop-color="#F57E53"/>
</linearGradient>
</defs>
</svg>
