<svg width="175" height="174" viewBox="0 0 175 174" fill="none" xmlns="http://www.w3.org/2000/svg">
<path opacity="0.3" d="M151.974 144.128C148.546 147.739 145.304 150.063 142.745 151.902C112.645 173.515 77.0232 167.214 69.453 165.679C58.2747 163.405 36.6634 159.018 21.0448 140.63C-2.59105 112.815 1.09157 68.9987 19.424 40.0716C22.7774 34.7833 40.4888 5.41501 76.4953 0.704645C98.2867 -2.14767 123.68 3.60046 142.075 19.0241C180.683 51.3939 177.932 116.78 151.974 144.128Z" fill="#AAD5FF"/>
<path d="M47.3016 108.453C47.3016 108.453 47.7984 87.5046 38.1602 81.8994C28.5159 76.2942 10.1835 72.7894 9.50036 42.7127C9.09049 25.1016 8.65578 17.4022 8.36391 14.0465C8.25212 12.7354 9.41342 11.6789 10.7051 11.9213C19.8341 13.6426 49.5 20.7268 55.7226 40.9913C63.094 65.0092 47.3016 108.453 47.3016 108.453Z" fill="url(#paint0_linear_147_2283)"/>
<path d="M17.7655 20.2917C27.7887 29.2401 39.3769 45.0677 45.556 60.9015C46.3509 63.5114 48.6673 69.0607 49.6733 78.9164C50.5738 87.1378 50.1267 95.8253 49.0337 101.58C48.9654 101.946 48.6114 102.182 48.2512 102.114C47.624 101.996 47.7109 101.325 47.7171 101.343C48.9654 91.5188 48.4437 79.2893 45.5932 68.2529C41.9479 54.6997 33.8126 41.5629 25.3978 30.4208L24.5346 29.3209C18.0139 20.9442 16.6415 20.882 17.2501 20.2979C17.3929 20.1612 17.6227 20.1612 17.7655 20.2917Z" fill="url(#paint1_linear_147_2283)"/>
<path d="M67.1926 144.675C68.534 145.228 53.8097 128.959 47.8231 102.3C44.9975 89.7416 43.9604 73.8395 36.3405 68.1783C29.9999 63.4618 9.74862 67.9919 3.1348 69.6449C2.30885 69.8499 2.09149 70.925 2.78082 71.4346C6.16536 73.9265 13.4375 79.8486 15.6358 86.1498C18.536 94.452 26.9073 99.3115 34.1918 100.312C41.4763 101.312 45.5626 102.462 49.8041 113.747C54.0395 125.02 63.3733 143.097 67.1926 144.675Z" fill="url(#paint2_linear_147_2283)"/>
<path d="M12.7729 72.6154C21.3367 72.4289 30.7513 75.7411 35.8747 82.7507L36.3591 83.4218C37.4769 84.994 43.9665 96.2542 47.7795 105.694C47.8292 105.812 47.7671 105.942 47.6553 105.992C47.4566 106.073 47.3386 105.855 47.3572 105.874C44.7862 100.567 41.1471 93.8679 38.2718 88.8655C35.1853 83.4032 33.0304 79.712 26.5718 76.4557C19.3929 72.9634 12.748 72.982 12.7729 72.982C12.6735 72.9758 12.5928 72.895 12.5928 72.7894C12.599 72.6899 12.6797 72.6154 12.7729 72.6154Z" fill="url(#paint3_linear_147_2283)"/>
<path d="M47.8477 11.8343C47.6925 37.4679 47.2578 125.877 48.5681 157.191C48.7047 160.509 51.0211 163.138 53.8529 163.2C67.8817 163.529 119.296 164.113 142.211 162.647C146.987 162.342 150.713 157.756 150.731 152.157C150.806 125.256 150.719 49.5918 147.701 14.9725C147.341 10.8276 144.503 7.55891 140.957 7.19849C125.661 5.63873 73.9801 2.04692 54.1945 3.84904C50.6237 4.17218 47.8788 7.64591 47.8477 11.8343Z" fill="url(#paint4_linear_147_2283)"/>
<path d="M54.2256 19.602C53.7784 40.2952 52.4308 109.136 53.5673 134.571C53.735 138.287 56.2811 141.257 59.4607 141.425C72.5393 142.121 117.147 143.426 136.28 141.344C139.727 140.971 142.385 137.659 142.509 133.614C143.161 112.498 144.993 48.3923 143.888 23.2435C143.714 19.2291 141.006 15.9915 137.585 15.687C123.425 14.4131 76.0046 11.5919 59.7402 12.872C56.691 13.1143 54.3001 16.0226 54.2256 19.602Z" fill="url(#paint5_linear_147_2283)"/>
<path d="M87.8972 7.90681C87.9096 8.69601 88.4437 9.33608 89.1144 9.36715C92.4306 9.5225 101.764 9.9575 105.938 10.175C106.757 10.2185 107.391 9.34229 107.223 8.39773L107.192 8.23616C107.074 7.58989 106.608 7.11139 106.049 7.06168C103.23 6.80068 94.7097 6.09226 89.0833 6.40919C88.4064 6.44647 87.8848 7.11139 87.8972 7.90681Z" fill="url(#paint6_linear_147_2283)"/>
<path d="M79.2716 54.358C78.1537 83.3908 90.2635 99.237 108.776 108.695L121.687 101.611C102.578 89.6236 90.7479 72.2487 88.7979 47.5659L79.2716 54.358Z" fill="url(#paint7_linear_147_2283)"/>
<path d="M108.13 108.36C119.699 112.43 121.097 112.797 131.996 108.055C133.219 107.527 133.604 105.961 132.753 104.936L118.141 87.1879C117.569 86.4919 116.495 86.5416 115.986 87.2811L112.036 93.0541L108.13 108.36Z" fill="url(#paint8_linear_147_2283)"/>
<path d="M78.7437 54.9795C79.4951 43.8748 79.9857 42.2653 88.3259 34.3919C89.2947 33.4784 90.8783 33.7394 91.4931 34.9201L102.05 55.3524C102.46 56.1478 101.994 57.1234 101.113 57.2974L94.2566 58.6646L79.8863 56.4212C79.1908 56.3094 78.694 55.6817 78.7437 54.9795Z" fill="url(#paint9_linear_147_2283)"/>
<path d="M100.976 169.998H6.87988C3.07926 169.998 -0.000976562 167.177 -0.000976562 163.703V107.614C-0.000976562 104.271 2.84949 101.511 6.49485 101.325L104.224 96.3413C108.317 96.13 111.701 99.2247 111.478 102.972L107.845 164.051C107.646 167.382 104.634 169.998 100.976 169.998Z" fill="url(#paint10_linear_147_2283)"/>
<path d="M56.1261 136.149L107.565 96.9316C106.559 96.4966 105.429 96.2728 104.23 96.3288L6.50071 101.313C4.81775 101.4 3.30868 102.033 2.16602 103.015L40.6628 135.789C44.836 139.356 51.7107 139.517 56.1261 136.149Z" fill="url(#paint11_linear_147_2283)"/>
<path d="M48.9721 134.211C46.4135 134.211 43.8673 133.372 41.8242 131.719L27.3172 119.999C26.8887 119.657 26.8515 119.06 27.2241 118.669C27.6029 118.277 28.2488 118.24 28.6773 118.588L43.1842 130.308C46.2644 132.8 50.7482 133.005 54.0892 130.805L61.6035 125.859C62.0631 125.554 62.7089 125.654 63.0381 126.076C63.3672 126.499 63.2616 127.089 62.8021 127.387L55.2878 132.334C53.3813 133.589 51.1767 134.211 48.9721 134.211Z" fill="white"/>
<path d="M22.6033 115.866C22.3611 115.866 22.1189 115.792 21.9264 115.63L19.9764 114.052C19.5479 113.71 19.5107 113.113 19.8833 112.722C20.2559 112.33 20.9079 112.293 21.3364 112.641L23.2864 114.219C23.7149 114.561 23.7522 115.158 23.3796 115.549C23.1747 115.761 22.889 115.866 22.6033 115.866Z" fill="white"/>
<path d="M148.713 76.0952C148.713 76.0952 150.899 77.1578 151.303 78.382C151.626 79.3639 154.048 79.4882 154.284 81.4208C154.408 82.4151 155.147 83.2167 156.134 83.3658C158.606 83.7449 162.413 85.0312 163.022 89.319C163.487 92.5939 161.817 93.8368 160.065 94.2655C158.78 94.5825 157.923 95.8315 158.184 97.1365C158.432 98.3855 158.06 99.8272 155.905 100.964C151.067 103.518 146.235 94.9118 146.235 94.9118L145.248 79.8859L148.713 76.0952Z" fill="#2E2E2E"/>
<path d="M122.395 72.5347C122.395 72.5347 132.052 87.8216 143.534 90.7733C143.534 90.7733 141.299 97.1491 139.572 97.8824C139.572 97.8824 125.444 86.0878 121.811 74.7096L122.395 72.5347Z" fill="#FEBBBA"/>
<path d="M168.599 170.302L168.909 172.875C168.971 173.366 169.35 173.751 169.841 173.807C170.667 173.9 171.989 174 173.287 173.863C173.859 173.801 174.225 173.229 174.051 172.683C173.734 171.688 173.157 170.197 172.325 169.321H169.468C168.94 169.314 168.536 169.774 168.599 170.302Z" fill="#2E2E2E"/>
<path d="M146.242 140.139L145.758 142.973C145.758 142.973 147.372 159.328 147.658 165.866C147.701 166.891 147.441 167.904 146.9 168.78L144.093 173.341L151.223 169.134L151.365 168.264L150.198 166.661L151.726 148.342C151.812 147.267 151.595 146.185 151.086 145.235L149.614 142.463L146.242 140.139Z" fill="#FEBBBA"/>
<path d="M143.627 174H145.9C146.329 174 146.726 173.807 146.987 173.466C147.695 172.546 149.167 170.744 149.868 170.694C150.812 170.632 150.694 173.994 150.694 173.994H151.222L151.893 169.812C152.061 168.761 151.539 167.717 150.595 167.227C150.595 167.227 150.378 168.83 149.204 169.532C148.03 170.24 144.434 172.776 144.434 172.776C144.434 172.776 143.994 172.714 143.509 172.801C142.795 172.937 142.894 174 143.627 174Z" fill="#2E2E2E"/>
<path d="M156.004 141.487C156.004 141.487 165.456 159.428 166.959 163.523C168.461 167.618 168.989 171.036 169.008 171.359C169.039 171.862 169.666 172.347 171.399 172.347C172.293 172.347 172.728 171.987 172.945 171.639C173.125 171.34 173.138 170.974 172.982 170.657C172.436 169.551 170.703 166.009 170.057 164.405C169.287 162.491 167.642 153.804 166.735 150.79C165.828 147.77 164.81 144.495 160.866 141.481C160.873 141.487 158.165 138.834 156.004 141.487Z" fill="#FEBBBA"/>
<path d="M150.036 112.088C147.595 101.748 153.774 95.9063 153.774 95.9063C149.874 92.1653 142.776 90.4626 142.776 90.4626C142.776 90.4626 136.001 95.4216 136.802 99.2992C137.274 101.574 141.565 112.921 141.565 112.921C141.565 112.921 145.533 114.791 150.036 112.088Z" fill="url(#paint12_linear_147_2283)"/>
<path d="M155.439 117.208C154.446 114.219 150.036 112.088 150.036 112.088C145.534 114.791 141.566 112.914 141.566 112.914C141.566 112.914 140.678 116.32 141.292 119.483C141.907 122.646 145.758 142.972 145.758 142.972C151.831 144.203 161.171 141.736 161.171 141.736C157.302 134.863 156.433 120.197 155.439 117.208Z" fill="url(#paint13_linear_147_2283)"/>
<path d="M147.204 83.6269L149.185 92.5381C149.378 93.3211 148.658 93.1968 147.869 93.0477C146.571 92.8053 144.894 92.2957 144.335 91.289C144.279 91.1834 144.248 91.0715 144.236 90.9535L143.385 84.7766C143.317 84.2856 143.584 83.8134 144.037 83.6083L145.683 82.8812C146.31 82.5892 147.043 82.9496 147.204 83.6269Z" fill="#FEBBBA"/>
<path d="M153.775 95.9062C153.775 95.9062 167.611 105.812 155.545 116.22C155.545 116.22 155.085 116.742 154.178 117.01C153.719 117.146 152.371 118.172 151.682 118.706C151.465 118.88 151.142 118.818 150.993 118.582C150.875 118.395 150.862 118.166 150.955 117.967L152.669 114.344C153.148 113.903 153.874 113.865 154.383 114.269C154.713 114.524 155.191 114.418 155.371 114.045C156.302 112.144 158.066 106.551 150.856 100.238C150.583 100.001 150.514 99.6099 150.682 99.2868C151.198 98.3049 152.353 96.3723 153.775 95.9062Z" fill="#FEBBBA"/>
<path d="M143.41 75.5051C143.41 75.5051 141.298 76.9343 140.391 80.5759C139.485 84.2174 140.957 85.5224 142.472 85.4416C143.981 85.3608 146.173 84.8947 148.067 82.2848C149.961 79.6748 146.173 73.7589 143.41 75.5051Z" fill="#FEBBBA"/>
<path d="M146.155 80.812C146.155 80.812 146.931 75.5983 142.603 76.3937L141.727 77.3072C141.727 77.3072 139.609 74.9209 141.95 73.1126C144.292 71.3105 147.546 71.7703 149.347 75.0576C151.148 78.3449 151.8 80.6504 150.291 82.6949C148.782 84.7394 147.645 82.987 147.645 82.987C147.645 82.987 148.335 81.2221 147.763 80.464C147.192 79.7059 146.447 80.9052 146.447 80.9052L146.155 80.812Z" fill="#2E2E2E"/>
<path d="M146.744 81.2595C146.744 81.2595 147.123 78.575 148.495 79.3455C149.868 80.1099 148.005 81.8499 147.253 82.4464L146.744 81.2595Z" fill="#FEBBBA"/>
<path d="M122.462 75.679C122.431 75.9959 123.605 76.2134 123.977 74.8649C123.872 74.2808 123.692 71.7268 123.245 71.329C120.86 69.2162 116.618 66.8362 116.618 66.8362C116.146 67.5632 116.768 68.0417 116.768 68.0417L118.885 69.471C118.662 70.2043 118.339 70.8506 118.308 71.6895C118.283 72.3233 118.513 72.9447 118.935 73.4232C119.357 73.9079 119.922 74.5294 120.438 75.0016C121.4 75.9027 122.462 75.679 122.462 75.679Z" fill="#FEBBBA"/>
<path d="M121.314 74.6413L121.637 74.5108C121.593 74.4052 120.575 71.9319 120.084 71.4161C119.898 71.2235 119.805 71.0557 119.817 70.919C119.823 70.8444 119.855 70.7761 119.929 70.7015L121.643 71.6212L122.401 72.8081L122.699 72.6217L121.891 71.3602L119.879 70.2852L119.786 70.3597C119.581 70.5275 119.476 70.7015 119.463 70.9066C119.451 71.1489 119.569 71.3975 119.83 71.6709C120.202 72.0438 121.022 73.9391 121.314 74.6413Z" fill="#FFD4D3"/>
<defs>
<linearGradient id="paint0_linear_147_2283" x1="-21.8083" y1="-10.1006" x2="37.601" y2="57.0706" gradientUnits="userSpaceOnUse">
<stop stop-color="#E8F4FF"/>
<stop offset="1" stop-color="#55ACFF"/>
</linearGradient>
<linearGradient id="paint1_linear_147_2283" x1="-0.0489298" y1="37.5888" x2="188.532" y2="172.326" gradientUnits="userSpaceOnUse">
<stop stop-color="white"/>
<stop offset="1" stop-color="#0071DC"/>
</linearGradient>
<linearGradient id="paint2_linear_147_2283" x1="1.373" y1="51.3736" x2="47.1628" y2="101.421" gradientUnits="userSpaceOnUse">
<stop stop-color="#CAE5FF"/>
<stop offset="1" stop-color="#4BA8FF"/>
</linearGradient>
<linearGradient id="paint3_linear_147_2283" x1="16.3976" y1="76.4395" x2="128.572" y2="152.611" gradientUnits="userSpaceOnUse">
<stop stop-color="white"/>
<stop offset="1" stop-color="#0071DC"/>
</linearGradient>
<linearGradient id="paint4_linear_147_2283" x1="147.579" y1="182.42" x2="46.4454" y2="-14.519" gradientUnits="userSpaceOnUse">
<stop stop-color="#0053A1"/>
<stop offset="1" stop-color="#0071DC"/>
</linearGradient>
<linearGradient id="paint5_linear_147_2283" x1="124.772" y1="41.9033" x2="-83.6079" y2="316.696" gradientUnits="userSpaceOnUse">
<stop stop-color="#5FB1FF"/>
<stop offset="1" stop-color="#0071DC"/>
</linearGradient>
<linearGradient id="paint6_linear_147_2283" x1="108.675" y1="-46.92" x2="97.9659" y2="6.27744" gradientUnits="userSpaceOnUse">
<stop stop-color="#50AAFF"/>
<stop offset="1" stop-color="#0071DC"/>
</linearGradient>
<linearGradient id="paint7_linear_147_2283" x1="109.397" y1="-24.3195" x2="92.8" y2="165.909" gradientUnits="userSpaceOnUse">
<stop stop-color="#C1E1FF"/>
<stop offset="1" stop-color="#ACD7FF"/>
</linearGradient>
<linearGradient id="paint8_linear_147_2283" x1="131.97" y1="-22.348" x2="115.374" y2="167.879" gradientUnits="userSpaceOnUse">
<stop stop-color="#C4E2FF"/>
<stop offset="1" stop-color="#B4DAFF"/>
</linearGradient>
<linearGradient id="paint9_linear_147_2283" x1="97.4975" y1="-25.3569" x2="80.9011" y2="164.871" gradientUnits="userSpaceOnUse">
<stop stop-color="#AAD6FF"/>
<stop offset="1" stop-color="#ACD7FF"/>
</linearGradient>
<linearGradient id="paint10_linear_147_2283" x1="58.8191" y1="116.266" x2="33.7864" y2="215.369" gradientUnits="userSpaceOnUse">
<stop stop-color="#FFBD0F"/>
<stop offset="1" stop-color="#FFC221"/>
</linearGradient>
<linearGradient id="paint11_linear_147_2283" x1="89.7973" y1="50.2862" x2="-10.8352" y2="193.249" gradientUnits="userSpaceOnUse">
<stop stop-color="#FFE8AC"/>
<stop offset="1" stop-color="#FFC221"/>
</linearGradient>
<linearGradient id="paint12_linear_147_2283" x1="145.533" y1="99.9397" x2="149.498" y2="136.701" gradientUnits="userSpaceOnUse">
<stop stop-color="#FFC733"/>
<stop offset="1" stop-color="#FFC221"/>
</linearGradient>
<linearGradient id="paint13_linear_147_2283" x1="167.346" y1="101.744" x2="147.529" y2="133.431" gradientUnits="userSpaceOnUse">
<stop stop-color="#40A2FF"/>
<stop offset="1" stop-color="#0071DC"/>
</linearGradient>
</defs>
</svg>
