<svg width="254" height="209" viewBox="0 0 254 209" fill="none" xmlns="http://www.w3.org/2000/svg">
<g clip-path="url(#clip0_147_1879)">
<path d="M254 -25H0V229H254V-25Z" fill="white"/>
<path d="M210.074 133.117C191.451 176.646 142.295 195.343 103.777 192.153C93.261 191.283 72.0989 189.531 55.5786 173.907C23.8526 143.907 28.7409 81.1871 59.1113 44.2646C63.0206 39.5064 90.098 7.65029 132.285 8.07476C163.176 8.38969 184.852 25.8342 187.487 28.0114C190.815 30.7568 198.161 37.2813 204.781 47.633C220.343 71.9582 221.706 105.916 210.074 133.117Z" fill="url(#paint0_linear_147_1879)"/>
<path d="M179.785 177.68C179.785 177.68 165.545 133.863 169.468 111.667C172.973 91.8605 179.778 64.3108 181.196 58.6146C181.292 58.2244 181.819 58.1559 182.017 58.5051C185.262 64.2286 201.214 95.3522 189.247 134.767C175.979 178.46 179.785 177.68 179.785 177.68Z" fill="#7CBFFF"/>
<path opacity="0.43" d="M183.551 72.8003C183.681 79.3318 183.496 85.8632 183.14 92.3809C182.777 98.8987 182.181 105.403 181.346 111.879C180.922 115.118 180.422 118.342 179.867 121.567C179.292 124.785 178.642 127.982 177.909 131.172C177.156 134.349 176.314 137.512 175.362 140.641C174.383 143.763 173.295 146.851 172.063 149.884C171.987 150.068 171.782 150.151 171.597 150.082C171.412 150.007 171.33 149.801 171.398 149.617V149.61C172.638 146.604 173.733 143.544 174.719 140.442C175.684 137.334 176.533 134.192 177.3 131.029C178.039 127.859 178.71 124.668 179.292 121.464C179.861 118.26 180.374 115.042 180.812 111.811C181.675 105.355 182.298 98.8576 182.688 92.3535C183.078 85.8495 183.284 79.3249 183.188 72.814V72.8072C183.188 72.7045 183.27 72.6223 183.373 72.6155C183.462 72.6155 183.551 72.6976 183.551 72.8003Z" fill="white"/>
<path d="M176.513 187.175C176.513 187.175 179.245 141.182 191 121.95C201.488 104.786 217.879 81.6183 221.281 76.8327C221.514 76.5041 222.027 76.6273 222.082 77.0244C223.013 83.5353 226.512 118.335 200.982 150.664C172.686 186.511 176.513 187.175 176.513 187.175Z" fill="#C2E2FF"/>
<path opacity="0.43" d="M218.296 90.8952C216.037 97.0227 213.483 103.034 210.765 108.97C208.047 114.905 205.124 120.745 201.981 126.469C200.407 129.331 198.763 132.151 197.066 134.945C195.361 137.731 193.581 140.47 191.739 143.174C189.877 145.858 187.939 148.494 185.913 151.061C183.866 153.608 181.723 156.086 179.47 158.462C179.334 158.606 179.108 158.613 178.964 158.476C178.82 158.339 178.813 158.113 178.95 157.969C181.196 155.621 183.339 153.17 185.386 150.643C187.419 148.103 189.357 145.488 191.226 142.818C193.074 140.134 194.854 137.416 196.573 134.643C198.277 131.864 199.921 129.057 201.509 126.209C204.665 120.513 207.616 114.693 210.354 108.778C213.086 102.863 215.667 96.8652 217.947 90.7651V90.7583C217.981 90.6624 218.091 90.6145 218.187 90.6487C218.282 90.6966 218.33 90.7994 218.296 90.8952Z" fill="white"/>
<path d="M31.3014 70.267C35.5461 82.4603 62.3976 152.28 115.498 135.732C115.498 135.732 106.591 84.6512 32.1435 68.7813C31.4931 68.6444 31.0207 69.4728 31.3014 70.267Z" fill="#C2E2FF"/>
<path opacity="0.43" d="M40.373 77.0721C42.646 80.1735 45.0422 83.1859 47.4864 86.1641C49.9305 89.1354 52.4431 92.052 55.0174 94.9137C60.1658 100.63 65.5676 106.128 71.2843 111.27C77.0079 116.404 83.0464 121.204 89.5436 125.298C91.173 126.311 92.823 127.297 94.5072 128.208C96.1982 129.118 97.9167 129.967 99.6625 130.748C103.161 132.302 106.803 133.548 110.548 134.308C110.74 134.349 110.863 134.534 110.829 134.725C110.795 134.917 110.603 135.04 110.411 135.006C106.612 134.212 102.928 132.932 99.3955 131.35C97.6291 130.556 95.9038 129.686 94.2059 128.762C92.508 127.838 90.8512 126.845 89.2149 125.811C82.6904 121.669 76.6519 116.815 70.9352 111.646C65.2253 106.464 59.8372 100.932 54.7024 95.1808C52.1351 92.3053 49.6361 89.375 47.1988 86.39C44.7684 83.3982 42.3858 80.3721 40.1128 77.2501C40.0649 77.1817 40.0786 77.0858 40.1471 77.0379C40.2292 76.99 40.3251 77.0037 40.373 77.0721Z" fill="white"/>
<path d="M71.4418 7.2325C71.6061 6.15077 72.6194 6.36301 73.482 7.0408C120.592 44.2713 139.139 114.166 126.952 134.239C126.952 134.239 53.5386 125.38 71.4418 7.2325Z" fill="#7CBFFF"/>
<path opacity="0.43" d="M74.6598 21.6303C74.7077 21.8905 74.7762 22.1849 74.8378 22.4724L75.0432 23.3282L75.4745 25.0329C75.7689 26.1626 76.0701 27.2991 76.3782 28.4219C77.0012 30.6812 77.6516 32.9268 78.3226 35.1724C79.6576 39.6568 81.0817 44.1206 82.5879 48.5502C85.6208 57.4094 88.9276 66.1727 92.6794 74.7444C94.569 79.0233 96.5065 83.2818 98.6084 87.4649C98.8617 87.9921 99.1287 88.5124 99.4025 89.0327L100.21 90.5937L101.018 92.1547C101.292 92.675 101.573 93.1816 101.854 93.6951C102.415 94.7221 102.963 95.7559 103.538 96.7691L105.284 99.8089C105.427 100.062 105.571 100.316 105.722 100.569L106.174 101.322L107.084 102.821L107.995 104.321C108.303 104.814 108.625 105.307 108.94 105.799L109.891 107.271C110.213 107.758 110.514 108.264 110.85 108.737L112.835 111.626C115.533 115.446 118.415 119.136 121.503 122.655C121.544 122.703 121.537 122.778 121.489 122.82C121.441 122.861 121.373 122.854 121.325 122.813C118.148 119.362 115.211 115.692 112.438 111.906L110.411 109.024C110.069 108.552 109.761 108.052 109.432 107.566L108.467 106.094C108.145 105.601 107.817 105.115 107.502 104.622L106.578 103.123L105.653 101.623L105.188 100.877C105.037 100.624 104.893 100.37 104.743 100.117C99.9708 92.0314 95.7808 83.6173 92.0427 75.0182L90.6597 71.7867L89.3247 68.5347C88.8728 67.453 88.4552 66.3576 88.0239 65.269L87.3803 63.6327L86.7573 61.9896C85.0868 57.6079 83.5121 53.192 82.047 48.735C80.5819 44.2849 79.1784 39.8074 77.8981 35.2956C77.2614 33.0432 76.6452 30.777 76.0564 28.5109C75.7689 27.3744 75.4745 26.2379 75.2006 25.1014L74.7967 23.3898L74.605 22.534C74.5434 22.2465 74.4818 21.9658 74.4338 21.6508C74.427 21.5892 74.4681 21.5276 74.5297 21.5208C74.5913 21.5139 74.6461 21.555 74.6598 21.6166V21.6303Z" fill="white"/>
<path d="M61.7197 191.763H196.278V164.829H61.7197C64.602 164.829 64.602 191.763 61.7197 191.763Z" fill="#FFE49C"/>
<path d="M196.278 185.019V172.696C196.278 168.348 193.622 164.829 190.335 164.829H62.2879C59.7068 164.829 57.6187 162.741 57.6187 160.16C57.6187 159.379 58.2554 158.743 59.0359 158.743H198.989C202.2 158.743 207.294 163.788 207.294 170.012V187.224C207.294 193.091 202.344 197.849 199.318 197.849H59.7684C58.5772 197.849 57.6118 196.884 57.6118 195.692C57.6118 193.522 59.3713 191.756 61.5485 191.756H191.191C194.005 191.763 196.278 188.743 196.278 185.019Z" fill="url(#paint1_linear_147_1879)"/>
<path d="M192.547 170.587H66.3822C66.2521 170.587 66.1494 170.484 66.1494 170.354C66.1494 170.224 66.2521 170.121 66.3822 170.121H192.554C192.684 170.121 192.787 170.224 192.787 170.354C192.78 170.484 192.677 170.587 192.547 170.587Z" fill="url(#paint2_linear_147_1879)"/>
<path d="M192.547 174.585H66.3822C66.2521 174.585 66.1494 174.482 66.1494 174.352C66.1494 174.222 66.2521 174.12 66.3822 174.12H192.554C192.684 174.12 192.787 174.222 192.787 174.352C192.78 174.476 192.677 174.585 192.547 174.585Z" fill="url(#paint3_linear_147_1879)"/>
<path d="M192.547 178.577H66.3822C66.2521 178.577 66.1494 178.474 66.1494 178.344C66.1494 178.214 66.2521 178.111 66.3822 178.111H192.554C192.684 178.111 192.787 178.214 192.787 178.344C192.78 178.474 192.677 178.577 192.547 178.577Z" fill="url(#paint4_linear_147_1879)"/>
<path d="M192.547 182.575H66.3822C66.2521 182.575 66.1494 182.472 66.1494 182.342C66.1494 182.212 66.2521 182.109 66.3822 182.109H192.554C192.684 182.109 192.787 182.212 192.787 182.342C192.78 182.472 192.677 182.575 192.547 182.575Z" fill="url(#paint5_linear_147_1879)"/>
<path d="M192.547 186.573H66.3822C66.2521 186.573 66.1494 186.471 66.1494 186.34C66.1494 186.21 66.2521 186.108 66.3822 186.108H192.554C192.684 186.108 192.787 186.21 192.787 186.34C192.78 186.471 192.677 186.573 192.547 186.573Z" fill="url(#paint6_linear_147_1879)"/>
<path d="M79.6638 158.613H191.438C194.005 158.613 196.093 156.531 196.093 153.957V134.034C196.093 131.467 194.012 129.379 191.438 129.379H79.6638C77.0964 129.379 75.0083 131.46 75.0083 134.034V153.957C75.0083 156.531 77.0964 158.613 79.6638 158.613Z" fill="#FFE5A0"/>
<path d="M168.68 155.258H181.908C182.181 155.258 182.401 155.039 182.401 154.765V133.247C182.401 132.973 182.181 132.754 181.908 132.754H168.674C168.4 132.754 168.181 132.973 168.181 133.247V154.765C168.181 155.032 168.407 155.258 168.68 155.258Z" fill="#FFDC81"/>
<path d="M161.005 155.258H165.839C165.976 155.258 166.092 155.148 166.092 155.005V133C166.092 132.863 165.983 132.747 165.839 132.747H161.005C160.868 132.747 160.752 132.857 160.752 133V155.005C160.752 155.142 160.868 155.258 161.005 155.258Z" fill="#FFDC81"/>
<path d="M67.758 129.543H205.151C205.911 129.543 206.527 128.927 206.527 128.167V105.464C206.527 104.704 205.911 104.088 205.151 104.088H67.758C66.998 104.088 66.3818 104.704 66.3818 105.464V128.167C66.3818 128.927 66.998 129.543 67.758 129.543Z" fill="url(#paint7_linear_147_1879)"/>
<path d="M175.903 125.921H189.014C189.938 125.921 190.691 125.168 190.691 124.244V110.455C190.691 109.531 189.938 108.778 189.014 108.778H175.903C174.979 108.778 174.226 109.531 174.226 110.455V124.244C174.226 125.175 174.972 125.921 175.903 125.921Z" fill="#84C3FF"/>
<path d="M167.188 125.921H171.665C172.138 125.921 172.514 125.538 172.514 125.072V109.634C172.514 109.161 172.131 108.785 171.665 108.785H167.188C166.715 108.785 166.339 109.168 166.339 109.634V125.072C166.339 125.545 166.715 125.921 167.188 125.921Z" fill="#84C3FF"/>
<path d="M193.197 125.223H196.127C196.6 125.223 196.976 124.839 196.976 124.374V108.935C196.976 108.463 196.593 108.086 196.127 108.086H193.197C192.725 108.086 192.348 108.47 192.348 108.935V124.374C192.341 124.839 192.725 125.223 193.197 125.223Z" fill="#84C3FF"/>
<path d="M69.5177 137.587C69.5656 137.567 96.6156 90.1967 100.272 85.7397C100.888 84.9866 101.839 84.6101 102.798 84.7196L110.349 85.6165L119.215 104.807L104.441 96.201C105.906 106.313 86.9212 121.341 80.4103 126.825C79.7462 127.379 79.6983 128.379 80.2939 129.002L82.8955 131.72C78.6302 136.047 73.7077 138.82 68.1484 140.107L69.5177 137.587Z" fill="url(#paint8_linear_147_1879)"/>
<path d="M81.3892 130.255C81.3892 130.255 83.046 130.789 83.6074 132.268C83.8744 132.973 83.5869 133.774 82.9707 134.212C80.239 136.17 71.2292 142.489 67.0735 143.722C66.7312 143.824 66.4094 143.516 66.4847 143.167C66.6969 142.202 67.3884 140.271 69.6135 137.45L69.4149 137.854C69.1616 138.368 69.7162 138.895 70.216 138.614C72.9956 137.053 78.6644 133.616 81.3892 130.255Z" fill="url(#paint9_linear_147_1879)"/>
<path d="M80.054 149.212C80.1019 149.185 84.155 139.408 84.2029 139.374C87.9205 116.72 96.9987 97.317 99.6825 92.2096C100.134 91.3538 100.99 90.7855 101.956 90.7034L109.534 90.0598L122.104 107.052L105.892 101.616C109.37 111.222 93.822 129.782 88.5572 136.471C88.0232 137.149 88.1738 138.135 88.879 138.628L91.9735 140.764C88.6736 145.865 84.4083 149.582 79.2256 151.965L80.054 149.212Z" fill="url(#paint10_linear_147_1879)"/>
<path d="M90.2004 139.634C90.2004 139.634 91.9325 139.826 92.7814 141.154C93.1854 141.791 93.069 142.633 92.5555 143.188C90.2757 145.659 82.731 153.669 78.9107 155.723C78.5958 155.894 78.2192 155.655 78.2192 155.299C78.2329 154.313 78.5205 152.28 80.1225 149.069L80.0061 149.507C79.8624 150.061 80.5128 150.465 80.9441 150.089C83.354 147.987 88.2081 143.475 90.2004 139.634Z" fill="url(#paint11_linear_147_1879)"/>
<path d="M144.985 86.4792C144.985 86.4792 151.838 96.6735 152.4 101.322C152.961 105.971 150.503 107.58 143.335 108.175C121.988 109.942 111.465 103.54 111.465 103.54C110.007 94.2293 108.966 91.8605 96.7729 86.801C96.7729 86.801 112.198 88.0265 115.299 86.8215C118.407 85.6166 144.985 86.4792 144.985 86.4792Z" fill="url(#paint12_linear_147_1879)"/>
<path d="M117.661 29.3668C117.661 29.3668 122.433 23.7186 127.506 30.6471C128.424 31.9 131.956 30.8662 133.25 33.4952C133.921 34.8507 135.359 35.6244 136.851 35.3505C140.555 34.6659 146.608 34.6111 149.593 40.41C151.872 44.8396 150.113 47.4344 147.833 48.9063C146.156 49.9949 145.56 52.1926 146.573 53.9179C147.545 55.5678 147.73 57.7997 145.218 60.4904C139.597 66.5152 128.472 56.6701 128.472 56.6701L119.64 35.7955L117.661 29.3668Z" fill="url(#paint13_linear_147_1879)"/>
<path d="M126.452 85.1303C126.452 85.1303 118.469 77.5309 114.546 72.4988C112.424 69.7808 111.753 66.1933 112.739 62.8865C114.533 56.8412 117.723 50.5836 118.011 49.6114C118.456 48.1189 127.404 48.1805 127.404 48.1805C127.404 48.1805 145.013 59.6071 151.928 78.9686L144.157 81.3854C144.157 81.3854 139.556 73.6695 135.017 68.7675C135.017 68.7675 142.877 79.1535 143.157 83.4051L126.452 85.1303Z" fill="url(#paint14_linear_147_1879)"/>
<path d="M111.246 88.1292L117.244 81.6046L124.172 83.4668C124.172 83.4668 132.244 84.7197 136.865 83.4668C141.486 82.2139 141.486 82.2139 141.486 82.2139L151.927 78.9619L153.57 83.5969C153.988 84.7745 153.57 86.0821 152.55 86.801C151.646 87.4446 150.585 88.1497 149.914 88.4441C148.538 89.0466 118.236 88.6358 118.236 88.6358L111.246 88.1292Z" fill="url(#paint15_linear_147_1879)"/>
<path d="M121.249 37.4181L127.26 48.605C126.863 51.0492 120.715 51.1177 119.763 49.6594C119.667 49.5088 119.612 49.3376 119.571 49.1664L115.977 41.6971C115.82 40.9714 117.819 38.5135 118.476 38.1643L120.865 36.8909C121.796 36.398 117.956 36.3569 121.249 37.4181Z" fill="url(#paint16_linear_147_1879)"/>
<path d="M109.083 34.796C109.083 34.796 108.405 38.5752 111.376 43.3813C114.347 48.1874 117.305 47.9684 118.804 46.2568C120.304 44.5452 122.104 41.6902 121.29 36.8978C120.461 32.1053 110.103 29.9761 109.083 34.796Z" fill="url(#paint17_linear_147_1879)"/>
<path d="M117.689 37.4182C117.689 37.4182 112.883 31.099 109.186 36.6103L109.247 38.5136C109.247 38.5136 104.448 38.2877 104.968 33.8649C105.488 29.4422 109.411 26.4161 114.841 27.9291C120.277 29.4422 123.446 31.1606 124.063 34.933C124.679 38.7053 121.598 38.0892 121.598 38.0892C121.598 38.0892 120.42 35.4875 119.003 35.3095C117.579 35.1315 118.093 37.1923 118.093 37.1923L117.689 37.4182Z" fill="url(#paint18_linear_147_1879)"/>
<path d="M118.791 37.247C118.791 37.247 116.299 34.0155 118.565 33.3446C120.831 32.6736 120.749 36.5144 120.598 37.9385L118.791 37.247Z" fill="url(#paint19_linear_147_1879)"/>
<path d="M131.094 90.7103C131.073 90.7103 131.053 90.7103 131.032 90.7103L103.448 90.683C102.764 90.683 102.216 90.1284 102.216 89.4506C102.216 88.766 102.77 88.2046 103.455 88.2183L131.039 88.2456C131.724 88.2456 132.271 88.8002 132.271 89.478C132.271 90.1421 131.751 90.6761 131.094 90.7103Z" fill="url(#paint20_linear_147_1879)"/>
<path d="M78.6576 65.6663H101.627C103.325 65.6663 104.865 66.6453 105.584 68.1789L116.203 90.6966H87.6605C86.572 90.6966 85.5861 90.0325 85.189 89.0124L76.9528 68.1789C76.4736 66.9739 77.3636 65.6663 78.6576 65.6663Z" fill="url(#paint21_linear_147_1879)"/>
<path d="M94.8423 77.2161C95.3421 78.7634 94.9724 80.2627 94.0208 80.5708C93.0691 80.8789 91.8915 79.8725 91.3986 78.3252C90.8988 76.7779 91.2685 75.2786 92.2202 74.9705C93.165 74.6624 94.3425 75.6688 94.8423 77.2161Z" fill="#7CBFFF"/>
<path d="M180.881 56.3484C194.742 56.3484 205.979 45.1113 205.979 31.2496C205.979 17.388 194.742 6.15088 180.881 6.15088C167.019 6.15088 155.782 17.388 155.782 31.2496C155.782 45.1113 167.019 56.3484 180.881 56.3484Z" fill="#84C3FF"/>
<path d="M161.129 43.9769C161.054 43.9769 160.978 43.9359 160.93 43.8674C158.541 40.1019 157.281 35.7339 157.281 31.2564C157.281 18.2415 167.866 7.65698 180.881 7.65698C181.1 7.65698 181.319 7.65698 181.531 7.66383C182.551 7.69121 183.578 7.78706 184.578 7.94453C184.701 7.96507 184.79 8.08146 184.769 8.21154C184.749 8.33477 184.632 8.42377 184.502 8.40324C183.516 8.24577 182.517 8.15677 181.511 8.12938C181.298 8.12253 181.086 8.12253 180.874 8.12253C168.112 8.12253 157.733 18.5016 157.733 31.2632C157.733 35.6586 158.972 39.9376 161.314 43.6278C161.382 43.7373 161.348 43.8811 161.245 43.9495C161.211 43.9632 161.17 43.9769 161.129 43.9769Z" fill="#C2E2FF"/>
<path d="M179.388 54.808C179.381 54.808 179.381 54.808 179.374 54.808C175.431 54.5616 171.583 53.3087 168.249 51.1863C167.119 50.4674 166.037 49.6459 165.045 48.7422C164.949 48.6532 164.942 48.5094 165.031 48.4135C165.12 48.3177 165.264 48.3108 165.36 48.3998C166.339 49.283 167.393 50.0909 168.502 50.7961C171.768 52.8705 175.54 54.1029 179.408 54.3425C179.538 54.3493 179.634 54.4589 179.627 54.589C179.614 54.7122 179.511 54.808 179.388 54.808Z" fill="#C2E2FF"/>
<path d="M200.413 18.6454C200.338 18.6454 200.262 18.6111 200.221 18.5427C198.366 15.7288 195.867 13.3052 192.998 11.5389C192.889 11.4704 192.855 11.3266 192.923 11.2171C192.991 11.1075 193.135 11.0733 193.245 11.1418C196.168 12.9424 198.715 15.4139 200.611 18.2825C200.68 18.3921 200.653 18.5358 200.543 18.6043C200.502 18.6317 200.454 18.6454 200.413 18.6454Z" fill="#C2E2FF"/>
<path d="M180.881 20.5146L159.896 26.9092L180.881 33.3105L201.872 26.9092L180.881 20.5146Z" fill="white"/>
<path d="M180.88 35.5493L167.674 31.5237V40.7183C167.674 42.2314 168.728 43.5322 170.207 43.8471C177.3 45.3533 184.119 45.4013 190.65 43.8951C192.095 43.5596 193.115 42.2656 193.115 40.78V31.8112L180.88 35.5493Z" fill="white"/>
<path d="M164.758 39.3626C163.607 39.8692 162.608 39.8829 161.745 39.3968C161.492 39.2531 161.369 38.9587 161.423 38.678L163.293 29.3875L165.148 38.6027C165.209 38.9176 165.045 39.2325 164.758 39.3626Z" fill="white"/>
<path d="M180.881 25.9644L163.025 27.8608V30.9554H163.553L163.607 28.2442L180.881 25.9644Z" fill="white"/>
</g>
<defs>
<linearGradient id="paint0_linear_147_1879" x1="228.958" y1="216.478" x2="93.4306" y2="70.1946" gradientUnits="userSpaceOnUse">
<stop stop-color="#E1F1FF"/>
<stop offset="1" stop-color="#F0F8FF"/>
</linearGradient>
<linearGradient id="paint1_linear_147_1879" x1="57.6161" y1="178.293" x2="207.294" y2="178.293" gradientUnits="userSpaceOnUse">
<stop stop-color="#5AAFFF"/>
<stop offset="1" stop-color="#0071DC"/>
</linearGradient>
<linearGradient id="paint2_linear_147_1879" x1="66.1478" y1="170.353" x2="192.78" y2="170.353" gradientUnits="userSpaceOnUse">
<stop stop-color="#DAE3FE"/>
<stop offset="1" stop-color="#E9EFFD"/>
</linearGradient>
<linearGradient id="paint3_linear_147_1879" x1="66.1478" y1="174.351" x2="192.78" y2="174.351" gradientUnits="userSpaceOnUse">
<stop stop-color="#DAE3FE"/>
<stop offset="1" stop-color="#E9EFFD"/>
</linearGradient>
<linearGradient id="paint4_linear_147_1879" x1="66.1478" y1="178.348" x2="192.78" y2="178.348" gradientUnits="userSpaceOnUse">
<stop stop-color="#DAE3FE"/>
<stop offset="1" stop-color="#E9EFFD"/>
</linearGradient>
<linearGradient id="paint5_linear_147_1879" x1="66.1478" y1="182.346" x2="192.78" y2="182.346" gradientUnits="userSpaceOnUse">
<stop stop-color="#DAE3FE"/>
<stop offset="1" stop-color="#E9EFFD"/>
</linearGradient>
<linearGradient id="paint6_linear_147_1879" x1="66.1478" y1="186.344" x2="192.78" y2="186.344" gradientUnits="userSpaceOnUse">
<stop stop-color="#DAE3FE"/>
<stop offset="1" stop-color="#E9EFFD"/>
</linearGradient>
<linearGradient id="paint7_linear_147_1879" x1="158.449" y1="45.4939" x2="142.771" y2="96.3297" gradientUnits="userSpaceOnUse">
<stop stop-color="#4FA9FF"/>
<stop offset="1" stop-color="#0071DC"/>
</linearGradient>
<linearGradient id="paint8_linear_147_1879" x1="63.0347" y1="97.9028" x2="105.679" y2="122.244" gradientUnits="userSpaceOnUse">
<stop stop-color="#FEBBBA"/>
<stop offset="1" stop-color="#FF928E"/>
</linearGradient>
<linearGradient id="paint9_linear_147_1879" x1="68.6094" y1="122.241" x2="87.8181" y2="168.731" gradientUnits="userSpaceOnUse">
<stop stop-color="#2E2E2E"/>
<stop offset="1" stop-color="#2E2E2E"/>
</linearGradient>
<linearGradient id="paint10_linear_147_1879" x1="67.1598" y1="103.973" x2="-78.7481" y2="12.6327" gradientUnits="userSpaceOnUse">
<stop stop-color="#FEBBBA"/>
<stop offset="1" stop-color="#FF928E"/>
</linearGradient>
<linearGradient id="paint11_linear_147_1879" x1="76.0589" y1="134.369" x2="104.278" y2="176.005" gradientUnits="userSpaceOnUse">
<stop stop-color="#2E2E2E"/>
<stop offset="1" stop-color="#2E2E2E"/>
</linearGradient>
<linearGradient id="paint12_linear_147_1879" x1="313.319" y1="561.16" x2="354.073" y2="662.118" gradientUnits="userSpaceOnUse">
<stop stop-color="#FFC221"/>
<stop offset="1" stop-color="#FFD870"/>
</linearGradient>
<linearGradient id="paint13_linear_147_1879" x1="110.351" y1="15.1969" x2="128.892" y2="36.6018" gradientUnits="userSpaceOnUse">
<stop stop-color="#2E2E2E"/>
<stop offset="1" stop-color="#2E2E2E"/>
</linearGradient>
<linearGradient id="paint14_linear_147_1879" x1="163.553" y1="-21.5431" x2="151.976" y2="12.7271" gradientUnits="userSpaceOnUse">
<stop stop-color="#FFDF8B"/>
<stop offset="1" stop-color="#FFC221"/>
</linearGradient>
<linearGradient id="paint15_linear_147_1879" x1="137.724" y1="83.8726" x2="180.205" y2="83.8726" gradientUnits="userSpaceOnUse">
<stop stop-color="#FEBBBA"/>
<stop offset="1" stop-color="#FF928E"/>
</linearGradient>
<linearGradient id="paint16_linear_147_1879" x1="120.435" y1="63.5692" x2="121.417" y2="48.2679" gradientUnits="userSpaceOnUse">
<stop stop-color="#FEBBBA"/>
<stop offset="1" stop-color="#FF928E"/>
</linearGradient>
<linearGradient id="paint17_linear_147_1879" x1="121.881" y1="50.6227" x2="103.396" y2="15.2476" gradientUnits="userSpaceOnUse">
<stop stop-color="#FEBBBA"/>
<stop offset="1" stop-color="#FF928E"/>
</linearGradient>
<linearGradient id="paint18_linear_147_1879" x1="98.7852" y1="30.5606" x2="124.669" y2="35.754" gradientUnits="userSpaceOnUse">
<stop stop-color="#2E2E2E"/>
<stop offset="1" stop-color="#2E2E2E"/>
</linearGradient>
<linearGradient id="paint19_linear_147_1879" x1="126.112" y1="48.4116" x2="107.627" y2="13.0368" gradientUnits="userSpaceOnUse">
<stop stop-color="#FEBBBA"/>
<stop offset="1" stop-color="#FF928E"/>
</linearGradient>
<linearGradient id="paint20_linear_147_1879" x1="135.777" y1="83.3821" x2="113.882" y2="90.5632" gradientUnits="userSpaceOnUse">
<stop stop-color="#0071DC"/>
<stop offset="1" stop-color="#339CFF"/>
</linearGradient>
<linearGradient id="paint21_linear_147_1879" x1="47.4413" y1="-4.77379" x2="68.7444" y2="32.275" gradientUnits="userSpaceOnUse">
<stop stop-color="#0071DC"/>
<stop offset="1" stop-color="#2796FF"/>
</linearGradient>
<clipPath id="clip0_147_1879">
<rect width="254" height="254" fill="white" transform="translate(0 -25)"/>
</clipPath>
</defs>
</svg>
