<svg width="270" height="271" viewBox="0 0 270 271" fill="none" xmlns="http://www.w3.org/2000/svg">
<path d="M242.532 57.3509C186.253 -13.5272 53.0021 -17.4913 13.827 38.7218C-7.76116 69.6989 1.25563 116.002 5.71285 138.846C13.9015 180.887 34.1032 207.956 38.5139 213.698C49.2149 227.628 75.2138 261.471 114.324 269.204C181.154 282.417 264.538 215.131 269.154 139.209C271.806 95.4373 247.398 63.4737 242.532 57.3509Z" fill="#D8E9F9"/>
<mask id="mask0_147_320" style="mask-type:luminance" maskUnits="userSpaceOnUse" x="11" y="9" width="144" height="136">
<path d="M154.457 9.21486H11.1743V144.811H154.457V9.21486Z" fill="white"/>
</mask>
<g mask="url(#mask0_147_320)">
<path d="M143.171 207.268C140.658 209.929 137.56 211.223 133.903 211.139L80.2578 82.7637L89.5258 78.8927L143.171 207.268Z" fill="url(#paint0_linear_147_320)"/>
<path d="M89.5249 78.8926C87.2172 81.954 84.1371 83.266 80.2569 82.7636L72.4497 51.8887C72.3753 51.5258 72.8499 51.3304 73.0546 51.6375L89.5249 78.8926Z" fill="url(#paint1_linear_147_320)"/>
<path d="M72.4501 51.8979L75.4836 63.9017C76.9538 63.6784 78.2752 63.12 79.4569 62.2453L73.0456 51.6467C72.8502 51.3396 72.3663 51.535 72.4501 51.8979Z" fill="url(#paint2_linear_147_320)"/>
<path d="M60.3166 14.947C60.3166 14.947 54.7427 26.3739 58.8556 42.472C62.9686 58.5701 74.2651 66.3493 78.2012 63.9206C82.1374 61.4919 87.2366 52.0564 83.0865 44.3982C78.9364 36.7306 62.7359 25.2852 60.3166 14.947Z" fill="url(#paint3_linear_147_320)"/>
<path d="M60.3166 14.947C60.3166 14.947 54.7427 26.3739 58.8556 42.472C62.9686 58.5701 74.2651 66.3493 78.2012 63.9206C82.1374 61.4919 87.2366 52.0564 83.0865 44.3982C78.9364 36.7306 62.7359 25.2852 60.3166 14.947Z" fill="url(#paint4_linear_147_320)"/>
<g opacity="0.3">
<path d="M60.3166 14.947C60.5492 15.9427 60.9028 16.9384 61.3681 17.9526C59.1441 26.4204 60.4282 31.0358 62.5963 33.7157C65.6205 37.4658 69.7893 36.7399 72.9345 41.6345C77.066 48.0644 72.8507 53.9081 76.2471 58.4584C77.1125 59.6216 78.499 60.7289 80.816 61.4454C79.9599 62.5434 79.0573 63.3995 78.2012 63.9206C74.2651 66.3493 62.9686 58.5701 58.8556 42.472C54.7427 26.3739 60.3166 14.947 60.3166 14.947Z" fill="url(#paint5_linear_147_320)"/>
</g>
</g>
<mask id="mask1_147_320" style="mask-type:luminance" maskUnits="userSpaceOnUse" x="11" y="9" width="144" height="136">
<path d="M154.457 9.21486H11.1743V144.811H154.457V9.21486Z" fill="white"/>
</mask>
<g mask="url(#mask1_147_320)">
<path d="M152.894 212.218C150.196 216.527 146.334 219.132 141.318 220.016L33.4053 59.7797L44.981 51.9819L152.894 212.218Z" fill="url(#paint6_linear_147_320)"/>
<path d="M145.617 218.704C147.236 217.978 148.688 217.001 149.982 215.791L41.3241 54.4477L36.9692 57.3788L145.617 218.704Z" fill="url(#paint7_linear_147_320)"/>
<path d="M44.9812 51.9815C42.6641 56.783 38.8304 59.3978 33.4054 59.7793L14.3948 19.8598C14.1901 19.3945 14.7856 18.9851 15.1485 19.3573L44.9812 51.9815Z" fill="url(#paint8_linear_147_320)"/>
<path d="M14.3948 19.8604L21.7832 35.3722C23.728 34.665 25.375 33.5577 26.7429 32.0409L15.1485 19.3579C14.7856 18.995 14.1901 19.3951 14.3948 19.8604Z" fill="url(#paint9_linear_147_320)"/>
</g>
<path d="M182.68 81.8704C182.68 77.8319 180.065 74.4076 176.603 73.5422C176.482 73.5143 176.343 73.4864 176.213 73.4584C175.831 73.384 175.44 73.3468 175.049 73.3375L100.961 71.5043L25.2348 69.634C25.0766 69.634 24.9091 69.634 24.7509 69.634C22.6945 69.6898 20.8055 70.4063 19.3073 71.5788C19.2794 71.5974 19.2515 71.6253 19.2236 71.6439C19.0096 71.8207 18.7956 71.9975 18.6001 72.1929C18.5908 72.1929 18.5908 72.2022 18.5815 72.2022C18.4606 72.3139 18.3489 72.4349 18.2372 72.5558C16.7298 74.175 15.8179 76.3431 15.8179 78.7531V85.4622V190.77C15.8179 191.579 15.9202 192.352 16.1156 193.087C16.2366 193.524 16.3855 193.952 16.5623 194.362C17.7534 197.079 20.2751 199.033 23.3179 199.479C23.9321 199.573 24.5741 199.6 25.2348 199.563L140.062 192.715L175.077 190.63C179.274 190.379 182.689 186.443 182.689 181.827V87.8537V81.8704H182.68Z" fill="#D8DEE8"/>
<path d="M177.33 73.3187L27.6181 69.6245C22.435 69.4943 18.2104 73.5793 18.2104 78.7437V190.723C18.2104 195.888 22.435 199.824 27.6181 199.517L177.33 190.584C181.527 190.332 184.905 186.396 184.905 181.79V81.8517C184.905 77.2456 181.527 73.4211 177.33 73.3187Z" fill="white"/>
<path d="M27.6168 196.539C24.0994 196.743 21.2241 194.054 21.2241 190.555V78.7994C21.2241 75.3006 24.0994 72.5091 27.6168 72.5928L177.329 75.9985C180.186 76.0637 182.493 78.6691 182.493 81.805V181.911C182.493 185.047 180.176 187.736 177.329 187.903L27.6168 196.539Z" fill="url(#paint10_linear_147_320)"/>
<path d="M177.33 73.3187L27.6181 69.6245C22.435 69.4943 18.2104 73.5793 18.2104 78.7437V85.4528L184.905 87.8442V81.861C184.905 77.2456 181.527 73.4211 177.33 73.3187Z" fill="#D8DEE8"/>
<path d="M34.9123 78.1576C34.9123 79.8325 33.5537 81.1632 31.8788 81.1352C30.1945 81.1073 28.8267 79.7208 28.8267 78.0459C28.8267 76.371 30.1945 75.031 31.8788 75.0682C33.5537 75.0961 34.9123 76.4826 34.9123 78.1576Z" fill="white"/>
<path d="M45.4828 78.3621C45.4828 80.0184 44.1429 81.349 42.4866 81.3211C40.8302 81.2932 39.481 79.916 39.481 78.2504C39.481 76.5847 40.8302 75.2634 42.4866 75.2913C44.1429 75.3285 45.4828 76.6964 45.4828 78.3621Z" fill="white"/>
<path d="M55.9143 78.5575C55.9143 80.2046 54.5929 81.5166 52.9552 81.4887C51.3175 81.4608 49.9868 80.0929 49.9868 78.4366C49.9868 76.7802 51.3175 75.4682 52.9552 75.5054C54.5929 75.5426 55.9143 76.9105 55.9143 78.5575Z" fill="white"/>
<path d="M176.055 182.292L29.1714 190.174V102.36L176.055 102.872V182.292Z" fill="url(#paint11_linear_147_320)"/>
<path d="M109.336 94.0229L29.1714 93.2692V98.0148L109.336 98.5173V94.0229Z" fill="#D8DEE8"/>
<path d="M167.922 94.572V98.8803L176.055 98.9362V94.6464L167.922 94.572Z" fill="#D8DEE8"/>
<g opacity="0.5">
<path d="M120.223 130.006C102.795 104.789 72.3386 113.434 52.8813 85.2202C49.3546 80.1116 46.9632 74.8914 45.3161 70.0619L27.6269 69.6246C22.4438 69.4943 18.2192 73.5793 18.2192 78.7437V190.723C18.2192 195.888 22.4438 199.824 27.6269 199.517L142.37 192.668C139.02 187.904 135.921 182.544 133.297 176.514C123.192 153.353 130.673 145.137 120.223 130.006Z" fill="white"/>
</g>
<mask id="mask2_147_320" style="mask-type:luminance" maskUnits="userSpaceOnUse" x="27" y="40" width="192" height="149">
<path d="M66.7273 188.536L151.805 183.632L218.608 108.046L175.841 40.4524L29.4691 60.924L27.2358 182.33L66.7273 188.536Z" fill="white"/>
</mask>
<g mask="url(#mask2_147_320)">
<path d="M196.378 113.098C196.378 113.098 198.025 111.061 201.114 110.93C204.204 110.8 208.409 108.874 210.205 108.697C210.643 108.651 210.857 108.52 210.894 108.362C210.968 108.027 208.968 107.552 207.19 107.515C204.036 107.441 202.203 108.697 201.775 108.064C201.3 107.357 203.338 105.384 202.966 104.947C202.677 104.612 201.291 105.71 199.811 106.389C198.76 106.873 194.638 111.972 194.638 111.972L196.378 113.098Z" fill="url(#paint12_linear_147_320)"/>
<path d="M198.629 112.289C198.378 124.544 192.432 135.673 182.922 141.154C182.531 141.377 182.131 141.6 181.722 141.805C164.34 150.682 146.92 135.664 144.826 133.793C144.287 133.309 141.691 130.937 138.983 127C135.931 122.571 132.748 116.151 132.199 108.232C131.976 104.994 131.287 95.1114 136.415 92.1151C141.691 89.0351 150.075 95.009 153.49 97.4377C167.903 107.711 168.257 120.319 176.185 121.603C179.74 122.18 185.379 120.561 193.865 109.079C195.447 110.149 197.038 111.219 198.629 112.289Z" fill="url(#paint13_linear_147_320)"/>
<path opacity="0.3" d="M182.923 141.154C182.532 141.377 182.132 141.6 181.722 141.805C164.34 150.682 146.921 135.664 144.827 133.793C144.287 133.31 141.691 130.937 138.983 127.001C139.821 123.195 140.965 118.142 140.965 118.142C140.965 118.142 148.428 117.211 151.964 126.051C153.239 129.243 154.784 132.36 157.398 134.594C160.032 136.855 162.079 136.511 165.401 135.999C168.462 135.524 171.654 137.86 174.306 138.976C177.051 140.149 179.899 141.349 182.923 141.154Z" fill="url(#paint14_linear_147_320)"/>
</g>
<mask id="mask3_147_320" style="mask-type:luminance" maskUnits="userSpaceOnUse" x="27" y="40" width="192" height="149">
<path d="M66.7273 188.536L151.805 183.632L218.608 108.046L175.841 40.4524L29.4691 60.924L27.2358 182.33L66.7273 188.536Z" fill="white"/>
</mask>
<g mask="url(#mask3_147_320)">
<path d="M136.442 164.408C135.763 181.799 135.893 201.424 137.559 222.854C139.196 244.033 142.034 263.285 145.338 280.277C143.384 280.658 141.439 281.049 139.494 281.431C134.86 276.369 129.1 268.515 126.681 257.86C125.173 251.254 125.964 247.969 125.211 239.92C124.01 227.107 120.595 220.193 117.245 209.696C114.23 200.27 110.806 186.508 109.531 168.353C118.483 167.041 127.453 165.729 136.442 164.408Z" fill="url(#paint15_linear_147_320)"/>
</g>
<mask id="mask4_147_320" style="mask-type:luminance" maskUnits="userSpaceOnUse" x="27" y="40" width="192" height="149">
<path d="M66.7273 188.536L151.805 183.632L218.608 108.046L175.841 40.4524L29.4691 60.924L27.2358 182.33L66.7273 188.536Z" fill="white"/>
</mask>
<g mask="url(#mask4_147_320)">
<path opacity="0.3" d="M133.753 245.698C131.613 236.877 127.482 234.486 127.333 226.195C127.23 220.332 129.268 219.895 129.129 214.284C128.924 205.77 124.104 201.238 121.684 195.85C119.135 190.165 118.158 181.073 125.034 166.083C119.851 166.846 114.678 167.599 109.504 168.362C110.779 186.517 114.203 200.28 117.218 209.706C120.568 220.202 123.983 227.116 125.183 239.929C125.937 247.978 125.155 251.254 126.653 257.87C129.073 268.524 134.833 276.378 139.467 281.44C139.96 281.338 140.462 281.245 140.956 281.142C135.949 274.861 134.181 269.306 133.735 264.821C133.018 257.525 135.912 254.594 133.753 245.698Z" fill="url(#paint16_linear_147_320)"/>
</g>
<mask id="mask5_147_320" style="mask-type:luminance" maskUnits="userSpaceOnUse" x="27" y="40" width="192" height="149">
<path d="M66.7273 188.536L151.805 183.632L218.608 108.046L175.841 40.4524L29.4691 60.924L27.2358 182.33L66.7273 188.536Z" fill="white"/>
</mask>
<g mask="url(#mask5_147_320)">
<path d="M117.004 163.058C114.696 185.047 112.565 207.463 110.658 230.279C109.225 247.401 107.95 264.309 106.814 281.002C104.851 281.105 102.888 281.198 100.915 281.3C99.2214 277.522 96.9974 271.772 95.6481 264.523C94.0104 255.72 94.7548 250.621 94.3082 241.585C93.8057 231.461 92.4285 229.163 90.4465 216.284C86.4266 190.174 84.4167 177.128 90.7908 169.535C92.8752 167.078 99.2865 160.974 117.004 163.058Z" fill="url(#paint17_linear_147_320)"/>
</g>
<mask id="mask6_147_320" style="mask-type:luminance" maskUnits="userSpaceOnUse" x="27" y="40" width="192" height="149">
<path d="M66.7273 188.536L151.805 183.632L218.608 108.046L175.841 40.4524L29.4691 60.924L27.2358 182.33L66.7273 188.536Z" fill="white"/>
</mask>
<g mask="url(#mask6_147_320)">
<path d="M66.1968 94.1439C76.7582 90.5055 92.9122 86.5136 112.723 87.5092C124.224 88.0862 135.288 89.4354 143.142 91.7711C144.203 97.9218 144.11 104.854 145.17 111.005C145.412 117.165 145.496 125.512 144.826 135.366C144.156 145.22 143.505 145.36 141.969 159.253C139.466 181.902 140.518 187.838 136.107 190.5C133.241 192.231 132.208 190.072 117.599 188.35C107.819 187.196 102.841 186.657 97.8998 188.313C91.1721 190.574 88.9295 194.492 86.1565 193.161C83.5045 191.886 83.1603 187.122 82.8439 178.822C82.3507 166.018 82.3786 157.317 82.3321 154.209C82.1181 139.926 78.6379 128.973 74.1807 114.969C71.3705 106.222 68.4393 99.1315 66.1968 94.1439Z" fill="url(#paint18_linear_147_320)"/>
</g>
<mask id="mask7_147_320" style="mask-type:luminance" maskUnits="userSpaceOnUse" x="27" y="40" width="192" height="149">
<path d="M66.7273 188.536L151.805 183.632L218.608 108.046L175.841 40.4524L29.4691 60.924L27.2358 182.33L66.7273 188.536Z" fill="white"/>
</mask>
<g mask="url(#mask7_147_320)">
<path d="M111.411 73.3183C111.252 76.9194 110.722 79.7482 110.257 81.6744C109.717 83.889 109.391 84.4473 108.982 84.8847C108.368 85.5547 107.456 86.0944 102.412 87.0528C99.6767 87.5739 99.3231 87.5367 99.2486 87.8065C98.8857 89.1465 106.023 94.2365 113.709 93.6037C118.417 93.2222 122.819 90.7284 122.633 89.2582C122.447 87.7786 117.738 88.2718 116.482 85.5454C115.607 83.6471 116.826 81.1161 118.222 79.0317C117.096 76.5658 112.527 75.8121 111.411 73.3183Z" fill="url(#paint19_linear_147_320)"/>
<path d="M120.196 77.0869C121.713 75.9982 122.597 73.4951 121.908 71.4944C121.312 69.773 119.749 69.0285 118.8 68.5819C116.074 67.2885 112.1 67.3071 109.979 69.5962C108.722 70.9547 109.225 74.8257 109.281 75.505C109.346 76.2773 109.783 76.6868 110.09 77.3567C110.518 78.2873 111.179 79.7668 112.24 82.2234C112.556 81.7116 112.975 81.0881 113.533 80.4461C113.747 80.1948 114.603 79.2364 115.645 78.5571C117.73 77.1799 118.753 78.1198 120.196 77.0869Z" fill="url(#paint20_linear_147_320)"/>
<path d="M110.369 79.8226C110.369 79.8226 111.197 83.6285 114.985 84.6241C118.381 85.5267 121.387 77.9523 119.795 75.598C119.265 74.8071 117.925 74.1092 116.66 74.0534C115.915 74.0254 115.59 74.2395 114.371 74.165C113.245 74.0906 112.993 73.8766 112.593 74.0441C112.091 74.2488 111.532 74.9932 111.449 77.4684C111.03 76.5844 110.36 76.0726 109.727 76.1563C109.625 76.1657 109.346 76.2494 109.141 76.4541C108.397 77.1799 108.806 78.5757 110.369 79.8226Z" fill="url(#paint21_linear_147_320)"/>
<path d="M112.602 73.5322C112.723 73.709 112.035 74.165 111.709 75.0304C111.086 76.7053 112.081 79.3201 113.719 80.0645C114.687 80.5019 115.171 79.9714 116.883 80.353C117.944 80.5856 118.753 81.0136 119.256 81.3114C119.172 83.3586 118.074 85.0521 116.585 85.5174C114.984 86.0106 113.514 84.8846 112.9 84.4194C112.491 84.103 111.169 83.098 110.853 81.4231C110.527 79.683 111.607 79.0595 111.002 77.7568C110.695 77.0961 110.155 76.6774 109.876 75.4956C109.801 75.1792 109.764 74.9094 109.755 74.7233C110.909 74.0626 112.425 73.2717 112.602 73.5322Z" fill="url(#paint22_linear_147_320)"/>
<path d="M117.814 81.5908C117.814 81.5908 116.967 81.7397 115.757 81.2465C115.701 81.2186 115.627 81.2186 115.608 81.2465C115.543 81.3582 116.157 82.177 116.958 82.2049C117.525 82.2328 118.102 81.8513 118.074 81.7024C118.056 81.6466 117.944 81.6094 117.814 81.5908Z" fill="url(#paint23_linear_147_320)"/>
</g>
<path d="M75.9485 154.153L79.4473 153.995C79.4473 153.995 83.281 150.71 85.0304 150.943C86.7798 151.176 89.3946 152.46 89.711 152.729C90.0274 152.999 88.7525 154.46 87.4777 154.302C86.2029 154.144 83.3555 154.823 82.8437 155.977C82.3319 157.14 80.1266 157.81 79.7544 157.122L75.0459 158.033L75.9485 154.153Z" fill="url(#paint24_linear_147_320)"/>
<path d="M77.0002 152.888C77.2422 155.875 76.6187 157.894 75.5765 159.262C70.9518 165.357 55.2632 162.63 45.9486 154.284C39.0627 148.114 35.4244 138.614 35.5546 130.155C35.8152 113.638 50.5361 97.5775 72.4872 92.1618C75.744 102.295 79.0009 112.429 82.2577 122.571C68.7 122.646 60.4741 133.161 61.6931 140.745C62.605 146.393 68.9326 151.548 77.0002 152.888Z" fill="url(#paint25_linear_147_320)"/>
<path opacity="0.3" d="M130.412 182.972C123.228 179.696 123.265 173.136 116.566 170.298C107.009 166.259 96.4662 175.183 94.8191 172.643C93.107 170 105.697 162.156 104.022 154.218C102.691 147.919 93.9072 148.924 89.2081 140.26C84.7509 132.053 89.0685 124.562 85.1231 121.687C83.7087 120.654 81.2149 120.226 76.4878 122.339C79.7819 133.058 82.1454 142.512 82.3222 154.2C82.3687 157.317 82.3408 166.008 82.834 178.812C83.1503 187.112 83.4946 191.877 86.1466 193.151C88.9196 194.482 91.1622 190.555 97.8899 188.303C102.831 186.647 107.819 187.187 117.589 188.341C132.198 190.062 133.231 192.212 136.097 190.49C137.968 189.364 138.852 187.643 139.447 184.321C136.516 184.609 133.399 184.339 130.412 182.972Z" fill="url(#paint26_linear_147_320)"/>
<path d="M88.6317 174.178C88.6317 177.398 85.9983 180.133 82.7322 180.292C79.4567 180.45 76.7861 177.947 76.7861 174.69C76.7861 171.442 79.4567 168.707 82.7322 168.576C85.9983 168.446 88.6317 170.949 88.6317 174.178Z" fill="white"/>
<path d="M112.165 173.145C112.165 176.318 109.615 179.008 106.461 179.157C103.288 179.305 100.71 176.84 100.71 173.648C100.71 170.456 103.288 167.758 106.461 167.637C109.615 167.506 112.165 169.982 112.165 173.145Z" fill="white"/>
<path d="M134.936 172.15C134.936 175.267 132.47 177.91 129.418 178.059C126.347 178.208 123.853 175.779 123.853 172.634C123.853 169.489 126.347 166.846 129.418 166.725C132.47 166.604 134.936 169.033 134.936 172.15Z" fill="white"/>
<path d="M12.915 216.22L68.4302 213.8L132.376 216.043L69.2863 229.833L12.915 216.22Z" fill="url(#paint27_linear_147_320)"/>
<path d="M57.6458 269.706L12.6828 257.609C8.15117 256.39 4.63379 251.905 4.63379 247.55V247.503C4.63379 243.149 8.15117 240.236 12.6828 241.036L60.9027 248.927L57.6458 269.706Z" fill="url(#paint28_linear_147_320)"/>
<path d="M132.46 260.615L59.8139 268.729C55.2637 269.241 51.5229 266.068 51.5229 261.638V258.633C51.5229 254.204 55.2637 250.314 59.8139 249.951L132.46 244.172C129.24 250.156 128.505 255.748 132.46 260.615Z" fill="url(#paint29_linear_147_320)"/>
<path d="M133.092 261.425L60.4183 269.669C54.4815 270.339 49.5684 266.189 49.5684 260.392V260.327C49.5684 254.529 54.4908 249.43 60.4183 248.974L133.092 243.307C133.53 243.27 133.883 243.633 133.883 244.117C133.883 244.601 133.53 245.019 133.092 245.057L60.4183 250.975C55.6447 251.366 51.6993 255.469 51.6993 260.122V260.187C51.6993 264.84 55.6447 268.199 60.4183 267.668L133.092 259.675C133.53 259.629 133.883 259.982 133.883 260.466C133.883 260.941 133.53 261.369 133.092 261.425Z" fill="url(#paint30_linear_147_320)"/>
<path d="M59.5348 248.965L12.6828 241.028C8.15117 240.227 4.63379 234.291 4.63379 227.758V227.684C4.63379 221.152 8.15117 215.969 12.6828 216.136L62.3822 217.978L59.5348 248.965Z" fill="url(#paint31_linear_147_320)"/>
<path d="M132.46 242.023L63.8799 247.197C57.1149 247.708 51.5132 242.739 51.5132 236.086V231.573C51.5132 224.92 57.1149 219.374 63.8799 219.197L132.46 217.327C129.231 226.297 128.514 234.69 132.46 242.023Z" fill="url(#paint32_linear_147_320)"/>
<path d="M133.092 243.298L60.4183 248.965C54.4815 249.43 49.5684 242.73 49.5684 234.03V233.937C49.5684 225.236 54.4908 218.034 60.4183 217.885L133.092 216.08C133.53 216.071 133.883 216.648 133.883 217.373C133.883 218.099 133.53 218.695 133.092 218.713L60.4183 220.891C55.6447 221.03 51.6993 226.837 51.6993 233.825V233.918C51.6993 240.906 55.6447 246.303 60.4183 245.959L133.092 240.664C133.53 240.637 133.883 241.195 133.883 241.921C133.883 242.646 133.53 243.261 133.092 243.298Z" fill="url(#paint33_linear_147_320)"/>
<path opacity="0.5" d="M44.9998 242.423L34.9873 240.674C32.6517 234.29 32.8285 228.428 34.9873 221.421L44.9998 222.137C42.9526 229.507 43.2597 236.179 44.9998 242.423Z" fill="white"/>
<path d="M219.128 155.121C219.128 155.121 235.813 126.228 258.378 175.36C275.946 213.623 264.594 256.186 223.939 267.864C183.285 279.542 119.795 255.953 139.727 239.334C182 204.067 214.085 172.81 219.128 155.121Z" fill="url(#paint34_linear_147_320)"/>
<g opacity="0.3">
<path d="M240.066 181.083C241.257 184.582 241.527 194.548 241.024 206.021C240.577 216.248 241.508 221.598 225.233 229.033C219.659 231.583 215.798 239.678 207.255 244.489C203.384 246.676 188.803 254.567 169.96 251.375C157.5 249.263 148.223 243.149 141.97 237.454C183.127 202.969 214.169 172.504 219.12 155.121C219.12 155.121 225.215 144.569 235.022 147.072C232.649 149.715 231.84 156.861 240.066 181.083Z" fill="url(#paint35_linear_147_320)"/>
</g>
<g opacity="0.3">
<path d="M158.877 256.242C178.102 266.859 210.214 273.335 234.129 255.572C256.275 239.12 258.248 211.567 258.993 203.164C260.286 188.471 257.411 175.677 253.27 165.357C254.935 168.26 256.638 171.582 258.378 175.37C275.947 213.633 264.594 256.195 223.94 267.873C183.927 279.365 121.787 256.698 138.852 240.125C143.7 245.587 150.251 251.477 158.877 256.242Z" fill="url(#paint36_linear_147_320)"/>
</g>
<path opacity="0.3" d="M189.166 259.396C189.733 259.396 190.31 259.386 190.887 259.377C205.738 259.042 226.582 254.11 241.573 232.504C254.228 214.247 252.534 193.654 248.887 179.585C244.932 164.361 237.907 153.297 237.832 153.186C237.758 153.065 237.59 153.027 237.469 153.102C237.348 153.176 237.311 153.344 237.385 153.465C237.46 153.576 244.448 164.575 248.375 179.724C251.995 193.682 253.679 214.107 241.135 232.196C226.275 253.626 205.599 258.512 190.878 258.847C174.901 259.2 162.301 254.427 162.18 254.38C162.041 254.324 161.892 254.399 161.836 254.529C161.78 254.659 161.855 254.818 161.985 254.873C162.106 254.92 173.914 259.396 189.166 259.396Z" fill="url(#paint37_linear_147_320)"/>
<path d="M109.429 256.66C110.49 255.515 112.388 250.612 108.927 249.597C105.446 248.583 103.511 247.299 98.7186 243.456C93.9264 239.613 92.6888 242.916 99.4631 249.151C106.237 255.404 107.931 258.279 109.429 256.66Z" fill="url(#paint38_linear_147_320)"/>
<path d="M113.97 249.495L111.113 251.989C110.517 252.51 109.652 252.575 108.982 252.157C108.675 251.961 108.47 251.626 108.442 251.263C108.414 250.891 108.563 250.537 108.842 250.295L113.011 246.732L113.97 249.495Z" fill="#FFD79B"/>
<path d="M199.393 225.515C204.436 229.926 193.912 244.405 177.106 239.715C156.747 234.029 130.841 236.588 113.384 250.798C112.37 249.895 109.867 248.481 111.011 247.327C126.784 231.378 141.393 222.221 153.49 219.765C171.784 216.042 185.044 212.944 199.393 225.515Z" fill="url(#paint39_linear_147_320)"/>
<g opacity="0.24">
<path d="M140.313 231.573C137.363 233.294 136.73 229.796 135.204 227.507C141.746 223.487 147.887 220.9 153.489 219.765C171.783 216.052 185.043 212.944 199.392 225.515C204.435 229.926 193.911 244.405 177.106 239.715C171.029 238.022 164.451 237.072 157.76 236.933C152.382 233.546 147.98 225.776 140.313 231.573Z" fill="#2E2E2E"/>
</g>
<path d="M202.37 240.59L203.402 240.981C203.402 240.981 210.093 234.662 211.284 233.053C212.736 231.089 196.358 226.083 191.036 219.523C185.443 212.637 189.863 227.693 189.863 227.693L202.37 240.59Z" fill="url(#paint40_linear_147_320)"/>
<path d="M208.436 178.608C208.436 178.608 202.5 179.426 195.986 190.974C191.091 199.656 180.455 206.849 180.455 206.849L179.367 213.679L188.188 215.233L191.343 213.158L199.95 194.836L208.436 178.608Z" fill="url(#paint41_linear_147_320)"/>
<path d="M219.957 177.872C219.957 177.872 234.604 179.678 234.911 196.529C235.199 212.078 229.588 218.099 215.826 231.071C214.439 232.373 212.197 232.373 212.029 232.559C211.136 233.564 210.224 234.616 209.312 235.714C196.992 223.896 183.099 219.886 183.099 219.886C183.099 219.886 195.95 193.31 201.589 184.498C207.423 175.416 216.198 176.97 219.957 177.872Z" fill="url(#paint42_linear_147_320)"/>
<g opacity="0.3">
<path d="M195.643 217.122C201.821 220.425 210.587 220.053 213.806 215.959C216.235 212.879 216.626 211.725 219.576 206.886C221.949 202.997 223.112 202.364 228.304 199.088C230.267 197.851 232.482 196.064 234.669 193.375C234.808 194.361 234.892 195.403 234.911 196.52C235.199 212.069 229.588 218.09 215.826 231.061C214.439 232.364 212.197 232.364 212.029 232.55C211.136 233.555 210.224 234.607 209.312 235.705C196.992 223.878 183.099 219.876 183.099 219.876C183.099 219.876 185.23 215.698 188.059 209.817C190.106 213.26 191.679 215 195.643 217.122Z" fill="url(#paint43_linear_147_320)"/>
</g>
<path d="M205.738 217.615C205.738 217.615 202.965 217.745 200.993 216.945C199.02 216.154 199.187 215.968 196.917 215.68C194.712 215.401 190.366 214.088 192.832 211.855C195.568 209.361 200.258 210.059 201.607 211.716C202.91 213.307 205.161 214.321 205.161 214.321L205.738 217.615Z" fill="#FFD79B"/>
<path d="M230.49 186.275C230.49 186.275 238.623 187.224 233.877 213.409C231.421 226.995 219.25 225.078 204.557 219.467C203.561 217.383 204.845 212.981 204.845 212.981C204.845 212.981 223.093 220.509 223.567 209.529C224.098 197.218 225.745 184.972 230.49 186.275Z" fill="url(#paint44_linear_147_320)"/>
<path d="M216.551 183.446C220.032 183.446 223.568 180.869 223.735 180.748C223.791 180.701 223.81 180.618 223.763 180.562C223.717 180.506 223.633 180.487 223.577 180.534C223.53 180.571 218.878 183.958 215.118 183.018C214.076 182.758 213.36 182.246 212.997 181.502C212.299 180.087 213.09 178.263 213.099 178.245C213.127 178.18 213.099 178.096 213.034 178.068C212.969 178.04 212.885 178.068 212.857 178.133C212.82 178.208 212.011 180.087 212.764 181.613C213.164 182.432 213.937 182.99 215.063 183.27C215.547 183.391 216.049 183.446 216.551 183.446Z" fill="url(#paint45_linear_147_320)"/>
<path d="M211.378 232.02C211.415 232.02 211.452 232.001 211.48 231.973C211.527 231.918 211.527 231.834 211.471 231.787C211.341 231.666 198.23 219.932 186.403 217.038C186.328 217.02 186.263 217.066 186.244 217.131C186.226 217.206 186.272 217.271 186.337 217.29C198.109 220.165 211.164 231.852 211.294 231.973C211.313 232.011 211.341 232.02 211.378 232.02Z" fill="url(#paint46_linear_147_320)"/>
<path d="M220.422 171.991C220.422 171.991 219.966 177.212 220.375 178.207C220.785 179.194 219.491 180.543 216.932 181.064C214.373 181.585 216.402 175.853 216.402 175.853L220.422 171.991Z" fill="#FFD79B"/>
<path d="M215.238 169.628C213.638 167.05 217.044 161.151 218.607 161.439C219.51 161.607 218.84 163.645 220.729 166.111C222.199 168.027 223.809 168.381 223.874 169.916C223.902 170.642 223.585 171.498 223.101 172.103C222.85 172.41 222.45 172.773 221.594 173.425C220.84 174.001 220.877 173.992 220.654 174.15C220.105 174.55 219.091 175.183 217.407 175.769C217.453 175.369 217.49 174.858 217.453 174.281C217.444 174.057 217.379 173.183 217.1 172.373C216.588 170.893 215.694 170.363 215.238 169.628Z" fill="url(#paint47_linear_147_320)"/>
<path d="M219.445 175.323C219.445 175.323 217.379 176.951 214.876 175.834C212.643 174.839 214.216 169.572 216.077 169.023C216.7 168.837 217.733 169.051 218.45 169.572C218.868 169.879 218.961 170.13 219.659 170.624C220.301 171.07 220.534 171.07 220.683 171.331C220.869 171.656 220.86 172.289 219.855 173.62C220.46 173.341 221.046 173.369 221.353 173.676C221.399 173.722 221.52 173.89 221.548 174.085C221.641 174.783 220.832 175.341 219.445 175.323Z" fill="#FFD79B"/>
<path d="M203.794 221.142C203.924 221.161 204.054 221.254 204.082 221.384C204.091 221.403 204.036 222.063 204.036 222.082C204.045 222.24 203.952 222.38 203.803 222.426L191.353 226.474L168.08 217.364L179.135 218.211L203.794 221.142Z" fill="#616161"/>
<path d="M203.793 221.049C203.942 221.067 204.063 221.198 204.082 221.347C204.091 221.505 203.998 221.644 203.849 221.691L191.399 225.739L168.126 216.629L179.181 217.476L203.793 221.049Z" fill="#0071DC"/>
<path d="M191.947 225.562L190.096 201.284C190.068 200.894 189.77 200.577 189.388 200.521L161.519 196.157C161.268 196.12 161.017 196.194 160.831 196.362C160.644 196.529 160.542 196.771 160.551 197.023L161.594 219.644C161.612 220.034 161.901 220.36 162.282 220.435L191.231 225.794L191.947 225.562Z" fill="url(#paint48_linear_147_320)"/>
<path d="M191.352 226.474L189.435 201.666C189.407 201.275 189.11 200.959 188.728 200.903L160.859 196.539C160.608 196.502 160.356 196.576 160.17 196.744C159.984 196.911 159.882 197.153 159.891 197.405L160.933 220.035C160.952 220.426 161.231 220.751 161.613 220.826L191.352 226.474Z" fill="#616161"/>
<path d="M191.353 226.474L161.623 220.826C161.241 220.751 160.962 220.426 160.943 220.035L160.627 213.214C169.486 218.239 180.577 218.881 190.925 220.9L191.353 226.474Z" fill="#616161"/>
<path d="M141.002 221.384C141.411 219.969 142.304 218.415 139.103 217.271C136.777 216.443 132.729 216.182 129.063 215.987C123.917 215.726 122.726 218.806 130.254 220.76C135.176 222.063 140.425 223.394 141.002 221.384Z" fill="url(#paint49_linear_147_320)"/>
<path d="M136.992 219.225C136.945 220.016 137.448 220.63 138.099 220.732C139.625 220.946 139.337 220.165 139.383 219.374C139.43 218.583 140.044 218.034 138.276 217.866C137.615 217.811 137.038 218.434 136.992 219.225Z" fill="#FFDEAE"/>
<path d="M152.624 214.684L151.117 214.451C151.117 214.451 148.185 214.721 140.108 216.955C138.378 217.243 136.023 222.286 141.085 222.482C146.148 222.677 152.317 226.455 152.317 226.455L152.624 214.684Z" fill="url(#paint50_linear_147_320)"/>
<path d="M205.208 238.161C205.208 238.161 204.473 244.712 189.25 244.107C174.026 243.512 146.836 227.711 147.004 219.42C147.171 211.129 157.295 214.442 167.773 219.234C176.613 223.282 190.273 225.627 193.074 226.055C196.666 226.613 206.073 235.016 205.208 238.161Z" fill="url(#paint51_linear_147_320)"/>
<g opacity="0.2">
<path d="M185.295 229.954C178.251 229.237 176.669 224.175 167.904 222.714C162.218 221.765 160.218 223.449 157.324 221.505C155.034 219.969 153.871 217.308 153.304 214.405C157.193 214.73 162.432 216.787 167.783 219.225C176.371 223.152 189.501 225.478 192.814 226.008C192.916 226.027 195.131 225.227 195.131 225.227C195.131 225.227 196.787 226.176 197.969 226.92C193.354 229.405 187.873 230.214 185.295 229.954Z" fill="url(#paint52_linear_147_320)"/>
</g>
<path d="M171.271 20.0089C162.59 20.0089 154.559 22.1212 148.018 25.7038C137.968 31.2125 131.417 40.2013 131.417 50.3441C131.417 56.104 133.529 61.4918 137.186 66.0793L133.343 76.2964C133.045 77.0967 133.567 77.9155 134.33 78.0644C134.33 78.0644 134.339 78.0644 134.357 78.0644C134.413 78.0737 134.478 78.083 134.534 78.083C134.925 78.1203 135.79 78.1761 136.339 78.083C136.293 77.99 136.237 77.9062 136.191 77.8132C139.801 77.1432 145.291 76.1382 148.985 75.5055C155.341 78.7716 163.008 80.6792 171.253 80.6792C183.35 80.6792 194.19 76.5756 201.495 70.0898C207.478 64.7858 211.098 57.8813 211.098 50.3348C211.116 33.5946 193.278 20.0089 171.271 20.0089Z" fill="#2E2E2E"/>
<path d="M212.783 50.3532C212.783 57.8997 209.163 64.8042 203.18 70.1082C195.875 76.594 185.035 80.6976 172.938 80.6976C164.684 80.6976 157.026 78.79 150.67 75.5239C146.464 76.2404 139.941 77.4501 136.498 78.0921C135.484 78.2782 134.656 77.2919 135.019 76.3241L138.862 66.107C135.196 61.5195 133.093 56.1317 133.093 50.3718C133.093 40.2197 139.634 31.2402 149.693 25.7315C156.235 22.1489 164.265 20.0366 172.947 20.0366C194.935 20.0087 212.783 33.5944 212.783 50.3532Z" fill="url(#paint53_linear_147_320)"/>
<path opacity="0.3" d="M203.18 70.1082C195.875 76.594 185.035 80.6976 172.938 80.6976C164.684 80.6976 157.026 78.79 150.67 75.5239C146.464 76.2404 139.941 77.45 136.498 78.0921C135.484 78.2782 134.656 77.2919 135.019 76.3241L138.862 66.1069C135.196 61.5194 133.093 56.1317 133.093 50.3718C133.093 40.2197 139.634 31.2402 149.693 25.7314C154.951 26.4479 159.51 28.2718 162.283 31.938C168.378 40.015 161.502 51.3488 167.867 57.0808C174.185 62.7663 184.29 54.6149 193.475 58.4766C196.918 59.9096 200.463 63.1572 203.18 70.1082Z" fill="url(#paint54_linear_147_320)"/>
<g opacity="0.8">
<path d="M170.853 69.5314C170.62 69.5314 170.434 69.3732 170.425 69.1685L170.378 68.117C170.369 68.0053 170.416 67.903 170.499 67.8192C170.583 67.7355 170.704 67.689 170.825 67.689L174.426 67.6052L170.686 67.1586C170.481 67.1307 170.323 66.9818 170.313 66.7957L170.267 65.8465C170.257 65.7349 170.304 65.6325 170.397 65.5488C170.481 65.465 170.602 65.4185 170.723 65.4185L177.227 65.2789C177.469 65.2696 177.655 65.4371 177.664 65.6511L177.683 66.2839C177.692 66.4979 177.488 66.6933 177.246 66.7119C177.004 66.7305 176.79 66.563 176.79 66.349L176.78 66.0885L171.188 66.2094L171.197 66.4235L177.348 67.1679C177.553 67.1958 177.711 67.3447 177.711 67.5308L177.72 67.9216C177.72 68.0333 177.674 68.1356 177.59 68.2101C177.506 68.2938 177.385 68.3403 177.264 68.3403L171.29 68.4799L171.3 68.7405L176.129 68.6195H176.138C176.38 68.6195 176.566 68.787 176.557 69.001C176.548 69.215 176.343 69.3918 176.101 69.4011L170.853 69.5314C170.862 69.5314 170.862 69.5314 170.853 69.5314Z" fill="white"/>
<path d="M174.1 72.7416C172.463 72.7416 171.095 71.6157 171.03 70.1733C171.02 69.9593 171.216 69.7732 171.458 69.7546C171.7 69.736 171.914 69.8942 171.923 70.1082C171.969 71.169 173.002 71.9972 174.221 71.9692C174.808 71.9506 175.338 71.7459 175.738 71.383C176.129 71.0201 176.343 70.5455 176.334 70.0431C176.324 69.829 176.52 69.6429 176.771 69.6243C177.013 69.6057 177.218 69.7639 177.227 69.9779C177.246 70.6944 176.938 71.3737 176.371 71.8948C175.803 72.4159 175.04 72.7137 174.212 72.7323C174.175 72.7416 174.138 72.7416 174.1 72.7416Z" fill="white"/>
<path d="M188.32 41.5224C187.603 34.7388 181.815 28.9882 174.483 28.0856C164.619 26.8852 156.775 34.255 157.519 43.2066C158.012 49.1806 162.246 54.0938 167.755 56.113C169.253 56.662 170.221 57.9834 170.286 59.3978L170.388 61.6868C170.444 62.8128 171.505 63.6968 172.761 63.6689L175.032 63.6223C176.279 63.5944 177.274 62.6825 177.246 61.5659L177.19 59.2861C177.153 57.881 178.019 56.541 179.442 55.9641C185.119 53.6657 189.008 48.0733 188.32 41.5224ZM174.185 62.0218C174.157 62.1707 174.027 62.2824 173.859 62.2917C173.85 62.2917 173.841 62.2917 173.831 62.2917C173.682 62.2917 173.552 62.1986 173.515 62.0684L169.811 47.5243C169.765 47.3475 169.886 47.1613 170.081 47.1148C170.277 47.0683 170.472 47.18 170.509 47.3568L173.775 60.3004L175.813 47.3847C175.841 47.1986 176.027 47.0683 176.223 47.0869C176.418 47.1055 176.548 47.273 176.52 47.4591L174.185 62.0218Z" fill="white"/>
</g>
<defs>
<linearGradient id="paint0_linear_147_320" x1="105.986" y1="144.054" x2="134.225" y2="148.82" gradientUnits="userSpaceOnUse">
<stop stop-color="#0071DC"/>
<stop offset="0.9964" stop-color="#49A7FF"/>
</linearGradient>
<linearGradient id="paint1_linear_147_320" x1="75.5917" y1="50.3337" x2="99.6282" y2="129.173" gradientUnits="userSpaceOnUse">
<stop stop-color="#FFD669"/>
<stop offset="0.9964" stop-color="#FFC221"/>
</linearGradient>
<linearGradient id="paint2_linear_147_320" x1="70.3162" y1="44.7696" x2="81.0741" y2="72.294" gradientUnits="userSpaceOnUse">
<stop stop-color="#52ABFF"/>
<stop offset="1" stop-color="#0071DC"/>
</linearGradient>
<linearGradient id="paint3_linear_147_320" x1="56.2248" y1="17.9832" x2="77.0872" y2="55.9857" gradientUnits="userSpaceOnUse">
<stop stop-color="#56ADFF"/>
<stop offset="1" stop-color="#0071DC"/>
</linearGradient>
<linearGradient id="paint4_linear_147_320" x1="56.2248" y1="17.9832" x2="77.0872" y2="55.9857" gradientUnits="userSpaceOnUse">
<stop stop-color="#56ADFF"/>
<stop offset="1" stop-color="#0071DC"/>
</linearGradient>
<linearGradient id="paint5_linear_147_320" x1="53.689" y1="19.3753" x2="74.5513" y2="57.3778" gradientUnits="userSpaceOnUse">
<stop stop-color="#FFDF89"/>
<stop offset="1" stop-color="#FFC221"/>
</linearGradient>
<linearGradient id="paint6_linear_147_320" x1="85.0902" y1="136.235" x2="124.838" y2="135.055" gradientUnits="userSpaceOnUse">
<stop stop-color="#5EB0FF"/>
<stop offset="1" stop-color="#0071DC"/>
</linearGradient>
<linearGradient id="paint7_linear_147_320" x1="107.947" y1="123.477" x2="90.6214" y2="139.172" gradientUnits="userSpaceOnUse">
<stop stop-color="#51AAFF"/>
<stop offset="1" stop-color="#0071DC"/>
</linearGradient>
<linearGradient id="paint8_linear_147_320" x1="18.2512" y1="16.8761" x2="72.3923" y2="117.699" gradientUnits="userSpaceOnUse">
<stop stop-color="#FFCC45"/>
<stop offset="0.9964" stop-color="#FFC221"/>
</linearGradient>
<linearGradient id="paint9_linear_147_320" x1="9.55586" y1="10.7336" x2="31.6797" y2="45.2904" gradientUnits="userSpaceOnUse">
<stop stop-color="#4EA9FF"/>
<stop offset="1" stop-color="#0071DC"/>
</linearGradient>
<linearGradient id="paint10_linear_147_320" x1="21.2274" y1="134.57" x2="182.495" y2="134.57" gradientUnits="userSpaceOnUse">
<stop stop-color="white"/>
<stop offset="0.9964" stop-color="#EBEFF2"/>
</linearGradient>
<linearGradient id="paint11_linear_147_320" x1="103.683" y1="7.57391" x2="101.879" y2="235.498" gradientUnits="userSpaceOnUse">
<stop stop-color="#FFC221"/>
<stop offset="1" stop-color="#FFD872"/>
</linearGradient>
<linearGradient id="paint12_linear_147_320" x1="205.829" y1="107.019" x2="188.037" y2="120.747" gradientUnits="userSpaceOnUse">
<stop stop-color="#FFC774"/>
<stop offset="0.9964" stop-color="white"/>
</linearGradient>
<linearGradient id="paint13_linear_147_320" x1="190.057" y1="86.5861" x2="151.916" y2="124.995" gradientUnits="userSpaceOnUse">
<stop stop-color="#6FB9FF"/>
<stop offset="0.9964" stop-color="#0071DC"/>
</linearGradient>
<linearGradient id="paint14_linear_147_320" x1="157.665" y1="139.549" x2="165.02" y2="122.555" gradientUnits="userSpaceOnUse">
<stop stop-color="#5EB0FF"/>
<stop offset="0.9964" stop-color="#0071DC"/>
</linearGradient>
<linearGradient id="paint15_linear_147_320" x1="150.991" y1="262.761" x2="120.755" y2="183.444" gradientUnits="userSpaceOnUse">
<stop stop-color="#0071DC"/>
<stop offset="1" stop-color="#4EA9FF"/>
</linearGradient>
<linearGradient id="paint16_linear_147_320" x1="145.726" y1="264.733" x2="115.499" y2="185.441" gradientUnits="userSpaceOnUse">
<stop stop-color="#2E2E2E"/>
<stop offset="1" stop-color="#2E2E2E"/>
</linearGradient>
<linearGradient id="paint17_linear_147_320" x1="132.413" y1="266.469" x2="92.822" y2="191.7" gradientUnits="userSpaceOnUse">
<stop stop-color="#2E2E2E"/>
<stop offset="1" stop-color="#2E2E2E"/>
</linearGradient>
<linearGradient id="paint18_linear_147_320" x1="86.8198" y1="176.822" x2="139.231" y2="55.7206" gradientUnits="userSpaceOnUse">
<stop stop-color="#61B2FF"/>
<stop offset="0.9964" stop-color="#0071DC"/>
</linearGradient>
<linearGradient id="paint19_linear_147_320" x1="104.313" y1="100.803" x2="121.431" y2="69.5489" gradientUnits="userSpaceOnUse">
<stop stop-color="#FFC46B"/>
<stop offset="0.9964" stop-color="white"/>
</linearGradient>
<linearGradient id="paint20_linear_147_320" x1="102.391" y1="88.8897" x2="118.172" y2="69.6887" gradientUnits="userSpaceOnUse">
<stop stop-color="#2E2E2E"/>
<stop offset="1" stop-color="#2E2E2E"/>
</linearGradient>
<linearGradient id="paint21_linear_147_320" x1="115.134" y1="75.4658" x2="106.268" y2="108.258" gradientUnits="userSpaceOnUse">
<stop stop-color="#FFD79C"/>
<stop offset="0.9964" stop-color="#FFC221"/>
</linearGradient>
<linearGradient id="paint22_linear_147_320" x1="104.6" y1="90.9345" x2="120.614" y2="71.4498" gradientUnits="userSpaceOnUse">
<stop stop-color="#2E2E2E"/>
<stop offset="1" stop-color="#2E2E2E"/>
</linearGradient>
<linearGradient id="paint23_linear_147_320" x1="117.377" y1="80.3057" x2="115.643" y2="84.141" gradientUnits="userSpaceOnUse">
<stop stop-color="white"/>
<stop offset="1" stop-color="#FFC221"/>
</linearGradient>
<linearGradient id="paint24_linear_147_320" x1="81.2135" y1="151.773" x2="83.6451" y2="159.194" gradientUnits="userSpaceOnUse">
<stop stop-color="#FFCD83"/>
<stop offset="0.9964" stop-color="white"/>
</linearGradient>
<linearGradient id="paint25_linear_147_320" x1="48.2012" y1="159.125" x2="100.175" y2="39.0336" gradientUnits="userSpaceOnUse">
<stop stop-color="#5EB0FF"/>
<stop offset="0.9964" stop-color="#0071DC"/>
</linearGradient>
<linearGradient id="paint26_linear_147_320" x1="96.2952" y1="180.913" x2="148.737" y2="59.741" gradientUnits="userSpaceOnUse">
<stop stop-color="#61B2FF"/>
<stop offset="0.9964" stop-color="#0071DC"/>
</linearGradient>
<linearGradient id="paint27_linear_147_320" x1="12.9194" y1="221.818" x2="132.38" y2="221.818" gradientUnits="userSpaceOnUse">
<stop stop-color="#FFCC46"/>
<stop offset="0.9964" stop-color="#FFC221"/>
</linearGradient>
<linearGradient id="paint28_linear_147_320" x1="26.1473" y1="269.179" x2="35.8853" y2="247.03" gradientUnits="userSpaceOnUse">
<stop stop-color="#60B1FF"/>
<stop offset="0.9964" stop-color="#0071DC"/>
</linearGradient>
<linearGradient id="paint29_linear_147_320" x1="51.5177" y1="256.475" x2="132.457" y2="256.475" gradientUnits="userSpaceOnUse">
<stop stop-color="#FFE294"/>
<stop offset="1" stop-color="#FFC221"/>
</linearGradient>
<linearGradient id="paint30_linear_147_320" x1="49.564" y1="256.513" x2="133.88" y2="256.513" gradientUnits="userSpaceOnUse">
<stop stop-color="#87C5FF"/>
<stop offset="0.9964" stop-color="#0071DC"/>
</linearGradient>
<linearGradient id="paint31_linear_147_320" x1="40.2839" y1="209.457" x2="23.2117" y2="266.963" gradientUnits="userSpaceOnUse">
<stop stop-color="#FFD464"/>
<stop offset="0.9964" stop-color="#FFC221"/>
</linearGradient>
<linearGradient id="paint32_linear_147_320" x1="51.5172" y1="232.282" x2="132.457" y2="232.282" gradientUnits="userSpaceOnUse">
<stop stop-color="#FFEDBF"/>
<stop offset="1" stop-color="#FFDF8B"/>
</linearGradient>
<linearGradient id="paint33_linear_147_320" x1="49.564" y1="232.532" x2="133.88" y2="232.532" gradientUnits="userSpaceOnUse">
<stop stop-color="#FFDA78"/>
<stop offset="0.9964" stop-color="#FFC221"/>
</linearGradient>
<linearGradient id="paint34_linear_147_320" x1="234.491" y1="163.696" x2="135.456" y2="375.257" gradientUnits="userSpaceOnUse">
<stop stop-color="#71BAFF"/>
<stop offset="0.9964" stop-color="#0071DC"/>
</linearGradient>
<linearGradient id="paint35_linear_147_320" x1="189" y1="195.187" x2="198.151" y2="248.999" gradientUnits="userSpaceOnUse">
<stop stop-color="#8DC8FF"/>
<stop offset="0.9964" stop-color="#0071DC"/>
</linearGradient>
<linearGradient id="paint36_linear_147_320" x1="234.492" y1="163.696" x2="135.456" y2="375.258" gradientUnits="userSpaceOnUse">
<stop stop-color="#66B5FF"/>
<stop offset="0.9964" stop-color="#0071DC"/>
</linearGradient>
<linearGradient id="paint37_linear_147_320" x1="251.531" y1="206.228" x2="161.815" y2="206.228" gradientUnits="userSpaceOnUse">
<stop stop-color="#6BB7FF"/>
<stop offset="0.9964" stop-color="#0071DC"/>
</linearGradient>
<linearGradient id="paint38_linear_147_320" x1="110.17" y1="256.035" x2="96.6621" y2="240.522" gradientUnits="userSpaceOnUse">
<stop stop-color="#2E2E2E"/>
<stop offset="0.9964" stop-color="#2E2E2E"/>
</linearGradient>
<linearGradient id="paint39_linear_147_320" x1="204.605" y1="214.194" x2="99.7934" y2="261.897" gradientUnits="userSpaceOnUse">
<stop stop-color="#2E2E2E"/>
<stop offset="1" stop-color="#2E2E2E"/>
</linearGradient>
<linearGradient id="paint40_linear_147_320" x1="241.563" y1="240.701" x2="150.563" y2="217.965" gradientUnits="userSpaceOnUse">
<stop stop-color="#311944"/>
<stop offset="1" stop-color="#893976"/>
</linearGradient>
<linearGradient id="paint41_linear_147_320" x1="191.449" y1="187.979" x2="201.253" y2="220.659" gradientUnits="userSpaceOnUse">
<stop stop-color="#FFE08E"/>
<stop offset="1" stop-color="#FFC221"/>
</linearGradient>
<linearGradient id="paint42_linear_147_320" x1="210.13" y1="212.406" x2="241.977" y2="363.822" gradientUnits="userSpaceOnUse">
<stop stop-color="#FFD66A"/>
<stop offset="1" stop-color="#FFC221"/>
</linearGradient>
<linearGradient id="paint43_linear_147_320" x1="203.606" y1="228.771" x2="216.074" y2="190.042" gradientUnits="userSpaceOnUse">
<stop stop-color="#FFDE86"/>
<stop offset="1" stop-color="#FFC221"/>
</linearGradient>
<linearGradient id="paint44_linear_147_320" x1="220.493" y1="210.226" x2="252.339" y2="361.642" gradientUnits="userSpaceOnUse">
<stop stop-color="#FFDF89"/>
<stop offset="1" stop-color="#FFC221"/>
</linearGradient>
<linearGradient id="paint45_linear_147_320" x1="212.447" y1="180.752" x2="223.789" y2="180.752" gradientUnits="userSpaceOnUse">
<stop stop-color="#FFDF8B"/>
<stop offset="1" stop-color="#FFC221"/>
</linearGradient>
<linearGradient id="paint46_linear_147_320" x1="186.226" y1="224.53" x2="211.506" y2="224.53" gradientUnits="userSpaceOnUse">
<stop stop-color="#FFDF89"/>
<stop offset="1" stop-color="#FFC221"/>
</linearGradient>
<linearGradient id="paint47_linear_147_320" x1="219.621" y1="186.598" x2="219.247" y2="162.914" gradientUnits="userSpaceOnUse">
<stop stop-color="#311944"/>
<stop offset="1" stop-color="#6B3976"/>
</linearGradient>
<linearGradient id="paint48_linear_147_320" x1="192.782" y1="211.98" x2="159.756" y2="209.958" gradientUnits="userSpaceOnUse">
<stop stop-color="#0071DC"/>
<stop offset="0.9964" stop-color="#45A5FF"/>
</linearGradient>
<linearGradient id="paint49_linear_147_320" x1="140.902" y1="221.658" x2="125.678" y2="215.467" gradientUnits="userSpaceOnUse">
<stop stop-color="#2E2E2E"/>
<stop offset="0.9964" stop-color="#2E2E2E"/>
</linearGradient>
<linearGradient id="paint50_linear_147_320" x1="211.888" y1="230.053" x2="136.667" y2="218.043" gradientUnits="userSpaceOnUse">
<stop stop-color="#2E2E2E"/>
<stop offset="1" stop-color="#2E2E2E"/>
</linearGradient>
<linearGradient id="paint51_linear_147_320" x1="240.075" y1="246.657" x2="149.075" y2="223.921" gradientUnits="userSpaceOnUse">
<stop stop-color="#2E2E2E"/>
<stop offset="1" stop-color="#2E2E2E"/>
</linearGradient>
<linearGradient id="paint52_linear_147_320" x1="207.978" y1="232.651" x2="153.018" y2="217.34" gradientUnits="userSpaceOnUse">
<stop stop-color="#2E2E2E"/>
<stop offset="1" stop-color="#2E2E2E"/>
</linearGradient>
<linearGradient id="paint53_linear_147_320" x1="133.081" y1="50.3535" x2="212.782" y2="50.3535" gradientUnits="userSpaceOnUse">
<stop stop-color="#FFD156"/>
<stop offset="0.9964" stop-color="#FFC221"/>
</linearGradient>
<linearGradient id="paint54_linear_147_320" x1="138.907" y1="32.992" x2="200.751" y2="114.439" gradientUnits="userSpaceOnUse">
<stop stop-color="#FFCE4E"/>
<stop offset="0.9964" stop-color="#FFC221"/>
</linearGradient>
</defs>
</svg>
