<svg width="216" height="197" viewBox="0 0 216 197" fill="none" xmlns="http://www.w3.org/2000/svg">
<path d="M180.117 147.468C161.071 191.839 110.798 210.898 71.4111 207.646C60.6549 206.756 39.02 204.97 22.1193 189.049C-10.3263 158.461 -5.33312 94.5353 25.7297 56.893C29.7284 52.0451 57.4192 19.5698 100.567 20.0043C132.154 20.3234 154.327 38.1058 157.025 40.326C160.431 43.1234 167.944 49.7773 174.715 60.3286C190.621 85.1247 192.018 119.739 180.117 147.468Z" fill="url(#paint0_linear_149_7844)"/>
<path d="M102.658 180.863C102.218 183.127 100.268 294.29 112.154 344.118C112.343 344.935 111.944 345.774 111.169 346.088C109.345 346.843 105.781 347.912 101.484 348.059C100.164 348.101 98.9687 347.241 98.5914 345.962C95.1955 334.412 78.9287 276.493 76.7906 221.174C74.4218 159.356 76.7906 219.078 76.7906 219.078L78.1741 180.863H102.658Z" fill="url(#paint1_linear_149_7844)"/>
<path d="M55.6191 184.259C45.8926 242.912 57.7363 329.214 61.7191 346.109C61.9707 347.136 62.7882 347.933 63.8364 348.101C65.6181 348.394 68.5529 348.646 71.4457 347.807C72.4309 347.514 73.1436 346.612 73.1855 345.585C73.7306 331.918 72.7663 248.089 81.822 214.948C82.2832 213.271 83.3103 211.804 84.7148 210.797L102.281 198.304L103.623 178.117L55.6191 184.259Z" fill="#2E2E2E"/>
<path d="M117.542 73.1373C88.4251 72.6552 56.2899 80.7886 56.2899 80.7886C47.6115 131.434 54.7806 189.876 54.7806 189.876C77.3361 195.788 102.763 186.271 102.763 186.271C106.516 165.099 123.998 105.503 123.998 105.503C138.232 103.742 149.95 99.6337 159.613 94.2045C152.255 85.6728 148.776 74.8143 147.266 68.3789C136.953 71.5652 126.535 73.2841 117.542 73.1373Z" fill="url(#paint2_linear_149_7844)"/>
<path d="M203.571 30.2275C200.72 26.7687 197.093 28.4037 197.093 28.4037C192.817 46.5152 170.346 61.1888 147.245 68.3579C148.754 74.7724 152.234 85.6309 159.592 94.1835C197.911 72.6552 203.571 30.2275 203.571 30.2275Z" fill="url(#paint3_linear_149_7844)"/>
<path d="M202.88 31.1081C203.173 32.0514 199.714 33.5188 197.681 29.6198C197.618 27.7541 196.465 19.7675 197.597 18.2372C203.529 10.1458 215.038 0 215.038 0C216.987 1.92853 215.373 3.81516 215.373 3.81516L209.797 9.62171C210.971 11.7389 212.396 13.5207 213.067 16.0572C213.57 17.9857 213.256 20.061 212.292 21.8218C211.306 23.5826 209.965 25.8885 208.707 27.6703C206.296 31.0871 202.88 31.1081 202.88 31.1081Z" fill="url(#paint4_linear_149_7844)"/>
<path d="M207.344 13.3945L202.25 17.7128L200.657 22.01L205.185 27.041C205.185 27.041 206.715 18.5303 207.847 16.6856C208.979 14.8409 208.392 13.9396 207.344 13.3945Z" fill="url(#paint5_linear_149_7844)"/>
<path d="M67.4622 108.983L56.2893 80.7891C56.2893 80.7891 29.0802 99.2778 24.6152 122.714C29.751 123.091 39.1002 124.433 48.2607 129.044C50.2731 117.976 67.4622 108.983 67.4622 108.983Z" fill="url(#paint6_linear_149_7844)"/>
<path d="M91.2337 135.521C91.2337 135.521 60.6916 152.773 50.3782 138.036C48.24 134.976 47.7369 131.936 48.261 129.044C39.1004 124.411 29.7513 123.09 24.6155 122.713C23.2739 129.777 23.9866 137.282 28.1372 144.891C46.1857 177.907 95.2795 143.067 95.2795 143.067L91.2337 135.521Z" fill="url(#paint7_linear_149_7844)"/>
<path d="M87.5663 157.364L104.231 99.1515C104.42 98.4807 104.986 97.9985 105.657 97.9357C108.675 97.5793 117.438 96.5941 127.541 95.7346C139.721 94.7075 153.849 93.869 162.297 94.5817C163.492 94.6865 164.225 95.9442 163.68 97.0343C158.88 106.761 139.113 146.275 129.218 159.229C128.883 159.649 128.38 159.9 127.835 159.9L89.1594 159.544C88.0484 159.523 87.2518 158.433 87.5663 157.364Z" fill="url(#paint8_linear_149_7844)"/>
<path d="M129.259 90.6834L141.355 88.671C142.005 88.5662 142.529 89.1741 142.319 89.803L141.124 93.4295C141.019 93.7439 140.747 93.9745 140.411 94.0164L128.777 95.5676C128.169 95.6515 127.687 95.1065 127.813 94.5195L128.547 91.3542C128.652 90.9979 128.924 90.7254 129.259 90.6834Z" fill="url(#paint9_linear_149_7844)"/>
<path d="M120.225 100.912L121.21 95.7343C121.315 95.2102 121.734 94.8119 122.258 94.77L146.658 92.2964C147.476 92.2126 148.146 92.9672 147.937 93.7638L146.386 100.22C146.26 100.744 145.82 101.101 145.275 101.143L121.419 102.337C120.686 102.379 120.078 101.667 120.225 100.912Z" fill="url(#paint10_linear_149_7844)"/>
<path d="M91.5905 143.298C91.5905 143.298 89.2637 133.76 90.207 130.364C91.1503 126.969 92.9531 122.629 99.0112 123.594C105.069 124.558 112.196 127.115 112.196 127.115C112.196 127.115 111.84 131.517 107.228 130.113L110.079 132.314C110.079 132.314 109.681 135.857 105.782 133.949L108.423 136.884C108.423 136.884 106.746 139.777 103.895 137.932C101.065 136.045 99.682 144.43 91.5905 143.298Z" fill="url(#paint11_linear_149_7844)"/>
<path d="M88.048 49.4917L78.7827 76.2815C78.6359 76.7217 78.8036 77.2248 79.2229 77.4344C81.7593 78.8389 90.8569 82.8637 101.82 75.9042C102.973 75.1705 103.749 73.9966 103.916 72.655L106.914 49.4707H88.048V49.4917Z" fill="url(#paint12_linear_149_7844)"/>
<path d="M108.213 24.6719C108.213 24.6719 118.379 43.8314 117.08 51.5665C115.78 59.3016 103.161 58.7566 92.1556 52.4679L84.4624 31.7781L108.213 24.6719Z" fill="url(#paint13_linear_149_7844)"/>
<path d="M92.6378 42.301C93.078 42.1124 93.2457 41.5464 92.9732 41.1481C92.1556 39.9113 90.6254 37.3539 90.1433 35.1319C90.1433 35.1319 88.3195 33.958 94.7969 32.4068C101.274 30.8556 110.959 28.4449 112.992 22.9318C114.984 17.5445 109.764 4.02384 101.463 14.7985C101.148 15.2177 100.52 15.2177 100.205 14.7985C98.8426 13.0167 95.2581 9.34826 90.29 11.5703C85.6364 13.6665 85.1123 17.0624 85.1752 18.7813C85.1962 19.2844 84.735 19.6827 84.2528 19.5779C81.9051 19.1377 76.2662 18.7394 73.625 24.525C71.4449 29.3044 72.8703 31.9876 74.149 33.3082C74.5683 33.7274 74.3796 34.4402 73.8136 34.6079C72.2624 35.09 70.271 36.3896 70.4806 40.0161C70.7531 45.0261 76.3501 44.5859 77.9432 44.3553C78.1947 44.3134 78.4672 44.3973 78.6349 44.6069C79.9975 46.1162 86.1604 52.5306 92.8264 53.3062C93.4134 53.3691 93.8536 52.8031 93.6649 52.2581L90.7721 43.8732C90.6464 43.4749 90.8141 43.0557 91.1914 42.888L92.6378 42.301Z" fill="url(#paint14_linear_149_7844)"/>
<path d="M93.791 43.4962C93.791 43.4962 86.5381 38.5281 86.014 42.7206C85.49 46.913 92.5333 48.7787 96.034 47.2275L93.791 43.4962Z" fill="url(#paint15_linear_149_7844)"/>
<defs>
<linearGradient id="paint0_linear_149_7844" x1="199.433" y1="232.443" x2="61.3177" y2="82.8774" gradientUnits="userSpaceOnUse">
<stop stop-color="#D5EAFF"/>
<stop offset="1" stop-color="#D3EAFF"/>
</linearGradient>
<linearGradient id="paint1_linear_149_7844" x1="75.7303" y1="264.446" x2="112.186" y2="264.446" gradientUnits="userSpaceOnUse">
<stop stop-color="#09005D"/>
<stop offset="1" stop-color="#1A0F91"/>
</linearGradient>
<linearGradient id="paint2_linear_149_7844" x1="216.308" y1="10.936" x2="55.5924" y2="154.954" gradientUnits="userSpaceOnUse">
<stop stop-color="#FFE295"/>
<stop offset="1" stop-color="#FFC221"/>
</linearGradient>
<linearGradient id="paint3_linear_149_7844" x1="206.229" y1="19.4392" x2="133.408" y2="111.741" gradientUnits="userSpaceOnUse">
<stop stop-color="#FEBBBA"/>
<stop offset="1" stop-color="#FF928E"/>
</linearGradient>
<linearGradient id="paint4_linear_149_7844" x1="191.024" y1="51.6678" x2="153.227" y2="137.664" gradientUnits="userSpaceOnUse">
<stop stop-color="#FEBBBA"/>
<stop offset="1" stop-color="#FF928E"/>
</linearGradient>
<linearGradient id="paint5_linear_149_7844" x1="247.451" y1="3.47007" x2="192.719" y2="25.7338" gradientUnits="userSpaceOnUse">
<stop stop-color="#FEBBBA"/>
<stop offset="1" stop-color="#FF928E"/>
</linearGradient>
<linearGradient id="paint6_linear_149_7844" x1="189.748" y1="-18.7031" x2="29.0319" y2="125.315" gradientUnits="userSpaceOnUse">
<stop stop-color="#FFE193"/>
<stop offset="1" stop-color="#FFC221"/>
</linearGradient>
<linearGradient id="paint7_linear_149_7844" x1="23.9886" y1="140.895" x2="95.2712" y2="140.895" gradientUnits="userSpaceOnUse">
<stop stop-color="#FEBBBA"/>
<stop offset="1" stop-color="#FF928E"/>
</linearGradient>
<linearGradient id="paint8_linear_149_7844" x1="197.273" y1="-47.2752" x2="166.66" y2="22.9945" gradientUnits="userSpaceOnUse">
<stop stop-color="#0071DC"/>
<stop offset="1" stop-color="#2294FF"/>
</linearGradient>
<linearGradient id="paint9_linear_149_7844" x1="141.377" y1="64.4732" x2="133.029" y2="101.13" gradientUnits="userSpaceOnUse">
<stop stop-color="#55ACFF"/>
<stop offset="1" stop-color="#0071DC"/>
</linearGradient>
<linearGradient id="paint10_linear_149_7844" x1="137.008" y1="79.8486" x2="133.016" y2="103.803" gradientUnits="userSpaceOnUse">
<stop stop-color="#51AAFF"/>
<stop offset="1" stop-color="#0071DC"/>
</linearGradient>
<linearGradient id="paint11_linear_149_7844" x1="89.9792" y1="133.421" x2="112.187" y2="133.421" gradientUnits="userSpaceOnUse">
<stop stop-color="#FEBBBA"/>
<stop offset="1" stop-color="#FF928E"/>
</linearGradient>
<linearGradient id="paint12_linear_149_7844" x1="87.1155" y1="87.0303" x2="101.494" y2="44.8221" gradientUnits="userSpaceOnUse">
<stop stop-color="#FEBBBA"/>
<stop offset="1" stop-color="#FF928E"/>
</linearGradient>
<linearGradient id="paint13_linear_149_7844" x1="113.609" y1="46.7598" x2="82.6218" y2="27.86" gradientUnits="userSpaceOnUse">
<stop stop-color="#FEBBBA"/>
<stop offset="1" stop-color="#FF928E"/>
</linearGradient>
<linearGradient id="paint14_linear_149_7844" x1="66.2194" y1="7.93758" x2="106.251" y2="39.5558" gradientUnits="userSpaceOnUse">
<stop stop-color="#2E2E2E"/>
<stop offset="1" stop-color="#2E2E2E"/>
</linearGradient>
<linearGradient id="paint15_linear_149_7844" x1="105.47" y1="53.8083" x2="77.5907" y2="36.8037" gradientUnits="userSpaceOnUse">
<stop stop-color="#FEBBBA"/>
<stop offset="1" stop-color="#FF928E"/>
</linearGradient>
</defs>
</svg>
