<svg width="191" height="180" viewBox="0 0 191 180" fill="none" xmlns="http://www.w3.org/2000/svg">
<path d="M127.078 6.56249C113.885 3.75755 100.162 2.40751 86.7535 3.26603C74.8653 4.02625 61.3911 6.10373 51.8229 13.529C47.2616 17.0679 41.8287 23.4314 40.3345 29.0479C40.3345 29.0479 32.4833 58.598 16.7874 64.9288C1.085 71.2595 -9.81362 179.328 109.239 168.777C109.239 168.777 179.166 166.011 183.373 86.3525C184.389 67.1111 183.819 45.9561 171.636 29.8671C162.297 17.5397 149.216 12.0544 134.182 8.22054C131.836 7.62417 129.47 7.07367 127.078 6.56249Z" fill="#F4F7FA"/>
<path d="M121.292 72.1705L122.085 76.2468C120.309 76.948 118.611 77.7934 117.019 78.7765L114.299 75.6504C113.558 74.7985 112.261 74.7198 111.409 75.4735L106.055 80.1921C105.196 80.9457 105.104 82.2499 105.845 83.1084L108.591 86.2738C107.411 87.7549 106.356 89.3409 105.445 91.0055L101.474 89.6554C100.405 89.2884 99.2323 89.8783 98.8587 90.9596L96.5125 97.7622C96.139 98.8501 96.7026 100.036 97.7774 100.403L101.762 101.766C101.467 103.628 101.336 105.535 101.362 107.462L97.1876 108.314C96.0669 108.543 95.3329 109.644 95.5426 110.778L96.8664 117.888C97.0761 119.029 98.164 119.763 99.2847 119.54L103.466 118.688C104.141 120.497 104.96 122.227 105.917 123.852L102.699 126.709C101.834 127.483 101.736 128.82 102.483 129.691L107.175 135.19C107.929 136.068 109.24 136.16 110.111 135.38L113.329 132.509C114.804 133.722 116.383 134.803 118.041 135.734L116.658 139.849C116.285 140.963 116.861 142.176 117.949 142.549L124.772 144.915C125.866 145.295 127.052 144.692 127.426 143.578L128.789 139.495C130.657 139.79 132.57 139.915 134.51 139.876L135.336 144.103C135.559 145.263 136.666 146.01 137.794 145.78L144.878 144.339C146.012 144.109 146.746 142.982 146.516 141.829L145.684 137.641C147.499 136.926 149.23 136.068 150.855 135.059L153.614 138.244C154.381 139.128 155.705 139.214 156.57 138.44L161.97 133.584C162.835 132.811 162.907 131.467 162.14 130.583L159.388 127.424C160.587 125.897 161.649 124.265 162.566 122.548L166.485 123.885C167.58 124.258 168.759 123.662 169.12 122.554L171.368 115.64C171.728 114.539 171.132 113.34 170.037 112.973L166.158 111.656C166.433 109.749 166.538 107.802 166.479 105.836L170.483 105.017C171.604 104.788 172.324 103.68 172.089 102.546L170.621 95.4685C170.385 94.3413 169.29 93.6073 168.169 93.8366L164.178 94.6493C163.464 92.8274 162.605 91.0972 161.609 89.4719L164.637 86.7719C165.489 86.0116 165.561 84.7009 164.808 83.8424L160.069 78.4816C159.316 77.623 158.011 77.5444 157.159 78.3046L154.112 81.0178C152.618 79.8316 151.025 78.7699 149.354 77.8655L150.652 73.9858C151.012 72.9045 150.429 71.7379 149.354 71.3775L142.63 69.123C141.555 68.7626 140.389 69.3459 140.028 70.4207L138.718 74.3135C136.87 74.0382 134.976 73.9334 133.062 73.9924L132.262 69.9488C132.04 68.8347 130.965 68.1203 129.851 68.3432L122.904 69.7587C121.796 69.9685 121.075 71.0564 121.292 72.1705ZM113.368 110.83C111.186 99.3941 118.552 88.3185 129.818 86.0182C141.083 83.7179 152.074 91.0579 154.387 102.468C156.707 113.943 149.374 125.182 137.984 127.509C126.587 129.822 115.564 122.332 113.368 110.83Z" fill="#D8DEE8"/>
<path d="M157.37 53.9188L157.606 55.1181C157.081 55.3278 156.583 55.5703 156.118 55.8652L155.318 54.9477C155.102 54.6986 154.722 54.6724 154.466 54.8953L152.894 56.2846C152.645 56.5074 152.612 56.8875 152.835 57.1431L153.641 58.0737C153.293 58.5128 152.985 58.9781 152.717 59.4631L151.55 59.0633C151.236 58.9585 150.888 59.1289 150.783 59.45L150.095 61.4488C149.984 61.77 150.154 62.1173 150.469 62.2222L151.642 62.6219C151.557 63.1724 151.517 63.7295 151.524 64.2997L150.298 64.5487C149.971 64.6142 149.754 64.9419 149.813 65.2761L150.2 67.3667C150.266 67.701 150.58 67.9172 150.914 67.8517L152.146 67.6027C152.343 68.1335 152.586 68.6447 152.867 69.1231L151.924 69.962C151.668 70.1913 151.642 70.5846 151.858 70.8401L153.241 72.4589C153.464 72.721 153.85 72.7407 154.106 72.5179L155.05 71.6724C155.482 72.0263 155.948 72.3475 156.433 72.6227L156.026 73.8351C155.915 74.1628 156.085 74.5167 156.406 74.6281L158.412 75.3228C158.733 75.4342 159.08 75.2573 159.192 74.9296L159.591 73.7303C160.142 73.8155 160.705 73.8548 161.276 73.8417L161.518 75.0869C161.584 75.4277 161.911 75.6505 162.239 75.5784L164.323 75.1524C164.657 75.0869 164.874 74.7526 164.801 74.4118L164.559 73.1798C165.09 72.9701 165.601 72.7145 166.079 72.4196L166.892 73.3567C167.115 73.6189 167.508 73.6451 167.764 73.4157L169.35 71.987C169.605 71.7576 169.625 71.3644 169.402 71.1023L168.596 70.1717C168.95 69.7195 169.264 69.2411 169.533 68.7364L170.687 69.1297C171.008 69.2411 171.355 69.0641 171.46 68.7364L172.122 66.7048C172.227 66.3771 172.05 66.0298 171.729 65.9184L170.588 65.5317C170.667 64.9681 170.7 64.398 170.68 63.8212L171.86 63.5788C172.187 63.5132 172.404 63.1855 172.332 62.8513L171.899 60.7673C171.833 60.433 171.506 60.2233 171.178 60.2889L170.005 60.5313C169.795 59.9939 169.54 59.4828 169.251 59.0109L170.143 58.2179C170.392 57.9951 170.418 57.6084 170.195 57.3594L168.799 55.78C168.576 55.5309 168.196 55.5047 167.941 55.7276L167.043 56.5271C166.604 56.1798 166.138 55.8652 165.64 55.5965L166.02 54.4562C166.125 54.1416 165.955 53.7943 165.64 53.6894L163.661 53.0275C163.347 52.9226 163.006 53.093 162.894 53.4076L162.508 54.5545C161.964 54.4758 161.407 54.4431 160.843 54.4627L160.607 53.2765C160.542 52.9488 160.227 52.7391 159.899 52.8047L157.855 53.2241C157.52 53.27 157.304 53.5911 157.37 53.9188ZM155.043 65.2893C154.401 61.9273 156.57 58.6701 159.88 57.9951C163.189 57.3201 166.427 59.4762 167.102 62.8317C167.783 66.2068 165.627 69.5098 162.278 70.1979C158.929 70.8729 155.685 68.6709 155.043 65.2893Z" fill="#D8DEE8"/>
<path d="M68.2723 112.979C70.6709 105.672 73.1154 94.5114 70.2515 82.1186C66.9681 67.8907 59.7002 65.0465 53.1728 49.8356C43.8536 28.1236 54.3983 12.4015 44.7514 5.7627C40.046 2.52523 32.647 2.52523 28.0857 5.77581C15.0702 15.0426 18.6419 55.4127 39.2857 71.1675C48.6246 78.2913 56.7707 77.4459 63.7765 86.6668C69.9762 94.8129 69.4847 105.561 68.2723 112.979Z" fill="url(#paint0_linear_149_7924)"/>
<mask id="mask0_149_7924" style="mask-type:luminance" maskUnits="userSpaceOnUse" x="20" y="3" width="52" height="110">
<path d="M68.2723 112.979C70.6709 105.672 73.1154 94.5114 70.2515 82.1186C66.9681 67.8907 59.7002 65.0465 53.1728 49.8356C43.8536 28.1236 54.3983 12.4015 44.7514 5.7627C40.046 2.52523 32.647 2.52523 28.0857 5.77581C15.0702 15.0426 18.6419 55.4127 39.2857 71.1675C48.6246 78.2913 56.7707 77.4459 63.7765 86.6668C69.9762 94.8129 69.4847 105.561 68.2723 112.979Z" fill="white"/>
</mask>
<g mask="url(#mask0_149_7924)">
<path d="M69.734 94.5836C68.9542 91.51 67.899 88.4888 66.608 85.6052C63.6392 78.9795 60.3624 75.3292 56.214 70.7155C53.5073 67.7008 50.4337 64.2864 46.8882 59.3909C40.2494 50.2289 38.1916 47.0111 36.35 41.8272C32.6997 31.5643 33.2567 22.3631 33.9187 17.7887C34.8558 11.3006 37.0316 5.13368 40.387 -0.554832L40.5902 -0.436869C37.2479 5.22543 35.0852 11.3661 34.1546 17.8214C33.4992 22.3696 32.9422 31.5315 36.5729 41.7486C38.4079 46.9063 40.4591 50.1175 47.0848 59.2532C50.6238 64.1357 53.6908 67.5501 56.3909 70.5582C60.5525 75.1916 63.8424 78.8485 66.8242 85.5069C68.1218 88.4036 69.177 91.4379 69.9634 94.5247L69.734 94.5836Z" fill="white"/>
<path d="M34.5671 34.5788L34.3967 34.4871C34.3574 34.4674 30.5039 32.3506 27.0829 28.0384C23.9241 24.0603 20.4835 17.3429 22.076 7.93849L22.3053 7.97781C20.7325 17.2905 24.1338 23.9424 27.2599 27.8811C30.2483 31.6494 33.5644 33.7269 34.3443 34.1791C34.5606 26.6687 39.3709 21.8059 43.3948 19.0403C47.7792 16.0191 52.1963 14.787 52.2356 14.7739L52.3011 14.9967C52.2553 15.0098 47.8775 16.2353 43.5259 19.2369C39.5216 21.9959 34.7113 26.8653 34.5802 34.3822L34.5671 34.5788Z" fill="white"/>
<path d="M35.6683 58.729C31.769 58.729 27.188 57.7721 22.9609 54.4822L23.1051 54.2987C32.5947 61.6846 43.8865 57.1823 45.0072 56.7039C43.087 49.2918 44.7844 43.8195 46.5539 40.5362C48.4741 36.9579 50.8989 35.1164 50.9251 35.0967L51.0627 35.2868C51.0365 35.3064 48.651 37.1218 46.757 40.6607C45.0072 43.9244 43.3295 49.3639 45.2628 56.7498L45.289 56.8481L45.1973 56.8874C45.1186 56.9071 41.0423 58.729 35.6683 58.729Z" fill="white"/>
<path d="M44.358 72.8716C41.4351 72.8716 37.9355 72.3407 33.8657 70.8531L33.9444 70.6302C47.2809 75.5061 54.4047 70.047 55.1387 69.4375C51.8946 61.8419 56.4625 49.5604 56.5084 49.4425L56.7246 49.5277C56.6788 49.6522 52.1109 61.9271 55.3812 69.4309L55.4139 69.5096L55.3549 69.5685C55.3091 69.6013 51.6063 72.8716 44.358 72.8716Z" fill="white"/>
</g>
<path d="M72.4472 104.165C73.2074 99.5643 73.6465 92.375 69.8979 85.9459C63.3639 74.7327 51.4495 78.4486 40.0463 66.4359C30.8516 56.7431 33.7482 49.2131 23.5574 42.7774C21.8535 41.7027 12.8357 35.7651 6.13798 39.3434C2.36311 41.3553 0.993411 45.4906 0.737821 46.2639C-3.1419 57.9883 8.79874 76.3515 24.3701 84.7466C33.3157 89.5701 36.1993 87.9972 51.941 93.6202C61.1881 96.9232 68.1284 101.183 72.4472 104.165Z" fill="url(#paint1_linear_149_7924)"/>
<mask id="mask1_149_7924" style="mask-type:luminance" maskUnits="userSpaceOnUse" x="0" y="38" width="73" height="67">
<path d="M72.4472 104.165C73.2074 99.5643 73.6465 92.375 69.8979 85.9459C63.3639 74.7327 51.4495 78.4486 40.0463 66.4359C30.8516 56.7431 33.7482 49.2131 23.5574 42.7774C21.8535 41.7027 12.8357 35.7651 6.13798 39.3434C2.36311 41.3553 0.993411 45.4906 0.737821 46.2639C-3.1419 57.9883 8.79874 76.3515 24.3701 84.7466C33.3157 89.5701 36.1993 87.9972 51.941 93.6202C61.1881 96.9232 68.1284 101.183 72.4472 104.165Z" fill="white"/>
</mask>
<g mask="url(#mask1_149_7924)">
<path d="M73.7583 109.703C71.4777 98.758 67.1719 91.418 60.946 87.8725C57.9117 86.1424 55.4803 85.8671 52.9113 85.5788C50.1064 85.2642 47.2032 84.93 43.3627 82.61C39.6272 80.349 38.2903 78.1798 36.5994 75.4338C35.0987 72.9959 33.2243 69.955 29.03 65.9114C25.3535 62.366 22.6731 60.7079 20.3072 59.2399C17.7185 57.6343 15.6738 56.3694 13.3014 53.263C9.43481 48.1971 7.4163 41.7025 7.29834 33.9692L7.53427 33.9627C7.65223 41.6501 9.65763 48.0922 13.4915 53.1188C15.8377 56.1925 17.8693 57.4508 20.4317 59.0433C22.8041 60.5113 25.4977 62.1824 29.1939 65.741C33.4078 69.8043 35.2887 72.8582 36.796 75.3093C38.4738 78.029 39.791 80.1786 43.4807 82.4068C47.2752 84.7006 50.1523 85.0283 52.9375 85.3428C55.5328 85.6378 57.9838 85.913 61.0574 87.6694C67.3423 91.2476 71.6939 98.6466 73.9877 109.657L73.7583 109.703Z" fill="white"/>
<path d="M20.4448 59.9152C12.4494 59.9152 6.47251 56.8481 2.82871 54.2202C-1.28039 51.2579 -3.41686 48.1908 -3.43652 48.1581L-3.24647 48.027C-3.22681 48.0598 -1.11 51.1006 2.97289 54.0366C6.71499 56.7302 12.9147 59.8825 21.2443 59.6727C20.7462 58.0606 16.5716 43.9507 21.9717 37.8886L22.1487 38.0459C16.5388 44.3439 21.4671 59.5941 21.5196 59.7448L21.5654 59.8956L21.4081 59.9021C21.0805 59.9087 20.7593 59.9152 20.4448 59.9152Z" fill="white"/>
<path d="M19.8288 72.924C14.7104 72.924 8.18961 71.8689 1.64258 67.9433L1.76054 67.7401C9.9001 72.6226 18.0069 73.0289 23.3743 72.5177C28.7024 72.0065 32.4641 70.5058 33.0867 70.2436C30.9175 62.2417 32.8508 50.9629 32.8704 50.8515L33.0998 50.8909C33.0802 51.0023 31.1403 62.3269 33.3357 70.2829L33.362 70.3812L33.2702 70.4206C33.2309 70.4402 29.2594 72.19 23.4005 72.7536C22.3257 72.8585 21.1199 72.924 19.8288 72.924Z" fill="white"/>
<path d="M26.7695 91.5034C26.3763 91.5034 25.9831 91.4969 25.5898 91.4903L25.5964 91.2544C33.7818 91.4313 40.0798 89.7274 43.9268 88.2725C47.5968 86.8831 49.7791 85.4413 50.2576 85.1071C44.2545 77.6491 46.6072 65.466 46.6269 65.3415L46.8563 65.3874C46.83 65.5119 44.4838 77.6884 50.5131 85.0547L50.5918 85.153L50.4935 85.2251C50.4083 85.2906 41.7772 91.5034 26.7695 91.5034Z" fill="white"/>
</g>
<path d="M72.6046 100.253C70.0422 98.411 65.8544 95.7502 60.2183 93.7514C50.1979 90.1993 45.6038 92.2965 41.3571 88.0563C36.9662 83.672 39.8105 79.3531 34.5545 74.4511C34.1154 74.0382 28.4662 68.9133 23.3609 70.8269C19.7892 72.1639 18.3933 76.2205 17.7445 78.1276C15.2083 85.5201 16.6828 96.7791 24.5668 102.337C32.0444 107.606 41.5078 105.096 44.5159 104.276C49.785 102.841 51.0368 100.783 56.3976 99.4858C62.9119 97.9064 68.7708 99.0729 72.6046 100.253Z" fill="url(#paint2_linear_149_7924)"/>
<mask id="mask2_149_7924" style="mask-type:luminance" maskUnits="userSpaceOnUse" x="16" y="70" width="57" height="36">
<path d="M72.6046 100.253C70.0422 98.411 65.8544 95.7502 60.2183 93.7514C50.1979 90.1993 45.6038 92.2965 41.3571 88.0563C36.9662 83.672 39.8105 79.3531 34.5545 74.4511C34.1154 74.0382 28.4662 68.9133 23.3609 70.8269C19.7892 72.1639 18.3933 76.2205 17.7445 78.1276C15.2083 85.5201 16.6828 96.7791 24.5668 102.337C32.0444 107.606 41.5078 105.096 44.5159 104.276C49.785 102.841 51.0368 100.783 56.3976 99.4858C62.9119 97.9064 68.7708 99.0729 72.6046 100.253Z" fill="white"/>
</mask>
<g mask="url(#mask2_149_7924)">
<path d="M74.6888 101.943C68.4891 97.4082 62.4467 95.2718 56.7254 95.5929C54.2285 95.7305 52.4656 96.2876 50.7682 96.8315C48.612 97.5131 46.5739 98.1619 43.1791 98.0243C37.0908 97.7687 31.8873 95.6977 28.5384 92.1916C23.3479 86.7652 22.1945 77.6688 25.6024 69.0246L25.8187 69.1098C22.4436 77.6688 23.5773 86.6669 28.7088 92.0277C32.0183 95.488 37.1629 97.5327 43.1922 97.7883C46.5411 97.926 48.5596 97.2903 50.6961 96.6087C52.4131 96.0647 54.1826 95.5011 56.7123 95.3635C62.4925 95.0424 68.5874 97.192 74.8264 101.76L74.6888 101.943Z" fill="white"/>
<path d="M26.2376 88.7313L26.0672 88.6724C25.9689 88.6396 16.0926 85.0286 15.4766 77.3674L15.7125 77.3478C16.2695 84.3077 24.6778 87.8728 25.982 88.384C25.3921 78.5077 37.3197 73.0617 37.4376 73.0027L37.5359 73.219C37.418 73.2714 25.4904 78.724 26.231 88.5478L26.2376 88.7313Z" fill="white"/>
<path d="M28.1059 100.416C24.5211 100.416 19.9336 99.5381 14.6973 96.5562L14.8152 96.353C22.1553 100.534 28.2042 100.547 31.9791 99.8199C35.6163 99.1252 37.9035 97.631 38.3819 97.2967C32.6541 89.2489 39.6337 79.6938 39.7058 79.5955L39.8958 79.7331C39.8237 79.8248 32.89 89.321 38.6375 97.2508L38.7031 97.3426L38.6113 97.4147C38.5851 97.4343 36.1603 99.2562 32.0184 100.049C30.9043 100.265 29.5936 100.416 28.1059 100.416Z" fill="white"/>
</g>
<path d="M190.858 164.275L6.0332 162.65V167.453C6.0332 168.757 6.83929 169.865 7.93374 170.068L60.1986 179.532C60.8212 179.643 61.4504 179.676 62.073 179.623L188.852 168.83C189.986 168.731 190.858 167.624 190.858 166.28V164.275Z" fill="url(#paint3_linear_149_7924)"/>
<path d="M123.782 156.482L7.94027 165.271C5.86933 165.428 4.18506 163.757 4.18506 161.535V72.5897C4.18506 70.3681 5.86933 68.5724 7.94027 68.5724H123.782C125.492 68.5724 126.868 70.1977 126.868 72.2096V152.622C126.868 154.621 125.492 156.351 123.782 156.482Z" fill="url(#paint4_linear_149_7924)"/>
<path d="M125.63 156.482L9.78841 165.271C7.71748 165.428 6.0332 163.757 6.0332 161.535V72.5897C6.0332 70.368 7.71748 68.5723 9.78841 68.5723H125.63C127.34 68.5723 128.716 70.1976 128.716 72.2096V152.622C128.716 154.621 127.34 156.351 125.63 156.482Z" fill="url(#paint5_linear_149_7924)"/>
<path d="M122.019 150.813L14.1274 158.448C12.4431 158.566 11.0669 157.197 11.0669 155.381V77.505C11.0669 75.6896 12.4366 74.2151 14.1274 74.2085L122.019 73.7301C123.428 73.7235 124.569 75.0539 124.569 76.7054V147.635C124.569 149.293 123.428 150.709 122.019 150.813Z" fill="url(#paint6_linear_149_7924)"/>
<path d="M71.7987 71.0038C71.7987 71.8295 71.2023 72.5045 70.4683 72.5045C69.7343 72.5045 69.1313 71.8361 69.1313 71.0103C69.1313 70.1846 69.7277 69.5095 70.4683 69.5095C71.2023 69.503 71.7987 70.178 71.7987 71.0038Z" fill="white"/>
<path opacity="0.48" d="M97.7181 132.083C88.7856 126.919 81.7667 133.459 74.9903 127.011C70.8812 123.098 72.8997 120.182 67.8403 114.336C62.2436 107.861 58.5932 110.037 52.9702 104.211C45.853 96.8445 49.4116 91.1101 43.284 85.8214C35.8522 79.4054 27.8307 85.343 20.7528 79.1891C17.6988 76.5349 16.0276 72.6749 15.1495 68.5723H8.22886C7.01645 68.5723 6.02686 69.6275 6.02686 70.9316V163.134C6.02686 164.438 7.0099 165.421 8.22886 165.323L126.292 156.325C126.868 156.279 127.386 155.919 127.714 155.388C119.07 155.047 113.761 151.941 110.367 148.723C103.728 142.431 104.881 136.225 97.7181 132.083Z" fill="white"/>
<path d="M130.243 156.083L6.0332 165.336L60.1921 175.147C60.8147 175.259 61.4438 175.291 62.0664 175.239L190.858 164.275L132.223 156.148C131.567 156.057 130.905 156.03 130.243 156.083Z" fill="url(#paint7_linear_149_7924)"/>
<path opacity="0.3" d="M24.1538 165.572L127.569 157.747L159.577 162.151L57.0528 170.514L24.1538 165.572Z" fill="url(#paint8_linear_149_7924)"/>
<g opacity="0.75">
<path d="M33.0804 80.3299L21.1987 80.3692V76.5222H33.0804V80.3299Z" fill="white"/>
<path d="M95.3327 80.1137L40.6299 80.3038V76.5224H95.3327V80.1137Z" fill="white"/>
<path d="M52.0987 86.6475L40.6299 86.7524V82.9775L52.0987 82.9054V86.6475Z" fill="white"/>
<path d="M112.254 86.0773L59.3794 86.5754V82.8661L112.254 82.5515V86.0773Z" fill="white"/>
<path d="M52.0987 93.0308L40.6299 93.2077V89.4263L52.0987 89.2887V93.0308Z" fill="white"/>
<path d="M112.254 92.1002L59.3794 92.9128V89.2035L112.254 88.5743V92.1002Z" fill="white"/>
<path d="M33.0804 99.8204L21.1987 100.069V96.229L33.0804 96.0128V99.8204Z" fill="white"/>
<path d="M95.3327 98.4898L40.6299 99.6563V95.8814L95.3327 94.8984V98.4898Z" fill="white"/>
<path d="M52.0987 105.797L40.6299 106.112V102.331L52.0987 102.055V105.797Z" fill="white"/>
<path d="M112.254 104.152L59.3794 105.594V101.885L112.254 100.62V104.152Z" fill="white"/>
<path d="M52.0987 112.18L40.6299 112.561V108.786L52.0987 108.438V112.18Z" fill="white"/>
<path d="M112.254 110.175L59.3794 111.938V108.222L112.254 106.649V110.175Z" fill="white"/>
<path d="M52.0987 118.563L40.6299 119.009V115.234L52.0987 114.828V118.563Z" fill="white"/>
<path d="M112.254 116.198L59.3794 118.275V114.566L112.254 112.672V116.198Z" fill="white"/>
<path d="M70.6322 124.108L59.5566 124.606V120.897L70.6322 120.431V124.108Z" fill="white"/>
<path d="M120.328 121.86L77.6641 123.787V120.143L120.328 118.36V121.86Z" fill="white"/>
<path d="M33.0804 132.3L21.1987 132.909V129.062L33.0804 128.499V132.3Z" fill="white"/>
<path d="M95.3327 129.115L40.6299 131.913V128.138L95.3327 125.53V129.115Z" fill="white"/>
<path d="M52.0987 137.713L40.6299 138.369V134.594L52.0987 133.978V137.713Z" fill="white"/>
<path d="M112.254 134.272L59.3794 137.294V133.584L112.254 130.747V134.272Z" fill="white"/>
<path d="M52.0987 144.096L40.6299 144.817V141.042L52.0987 140.361V144.096Z" fill="white"/>
<path d="M112.254 140.295L59.3794 143.638V139.922L112.254 136.769V140.295Z" fill="white"/>
<path d="M33.0804 151.79L21.1987 152.616V148.769L33.0804 147.989V151.79Z" fill="white"/>
<path d="M95.3327 147.491L40.6299 151.272V147.491L95.3327 143.906V147.491Z" fill="white"/>
</g>
<path d="M136.81 24.6176L35.6885 21.2949C32.3003 21.1835 29.5347 23.8574 29.5347 27.2718V125.831C29.5347 129.246 32.2937 131.893 35.6885 131.749L136.81 127.43C139.733 127.306 142.099 124.652 142.099 121.499V30.4962C142.099 27.3505 139.74 24.7159 136.81 24.6176Z" fill="url(#paint9_linear_149_7924)"/>
<path opacity="0.74" d="M35.689 129.783C33.3821 129.881 31.5078 128.079 31.5078 125.759V27.3307C31.5078 25.0107 33.3821 23.1888 35.689 23.2609L136.811 26.446C138.803 26.5115 140.415 28.3006 140.415 30.4437V121.565C140.415 123.714 138.803 125.517 136.811 125.602L35.689 129.783Z" fill="white"/>
<path d="M136.81 24.6176L35.6885 21.2949C32.3003 21.1835 29.5347 23.8574 29.5347 27.2718V31.702L142.099 34.5856V30.4962C142.099 27.3505 139.74 24.7159 136.81 24.6176Z" fill="url(#paint10_linear_149_7924)"/>
<path d="M40.4731 26.99C40.4731 28.0976 39.5818 28.9692 38.4808 28.943C37.3798 28.9102 36.4819 27.9862 36.4819 26.8786C36.4819 25.7645 37.3798 24.8929 38.4808 24.9256C39.5818 24.9584 40.4731 25.8825 40.4731 26.99Z" fill="white"/>
<path d="M47.4391 27.1929C47.4391 28.2939 46.5544 29.1656 45.4665 29.1328C44.372 29.1 43.4873 28.1825 43.4873 27.075C43.4873 25.9674 44.372 25.1023 45.4665 25.1351C46.5544 25.1679 47.4391 26.0919 47.4391 27.1929Z" fill="white"/>
<path d="M54.3336 27.3964C54.3336 28.4974 53.4554 29.3624 52.3741 29.3297C51.2927 29.2969 50.4146 28.386 50.4146 27.2849C50.4146 26.1839 51.2927 25.3189 52.3741 25.3516C53.4554 25.3779 54.3336 26.2954 54.3336 27.3964Z" fill="white"/>
<path d="M90.1224 44.036L36.7041 43.0792V46.2184L90.1224 47.0638V44.036Z" fill="white"/>
<path d="M130.276 44.7567V47.6993L135.926 47.7845V44.8616L130.276 44.7567Z" fill="white"/>
<path d="M47.9959 53.8988L36.7041 53.7808V50.5434L47.9959 50.6875V53.8988Z" fill="white"/>
<path d="M108.328 54.5414L55.2051 53.9778V50.7796L108.328 51.4612V54.5414Z" fill="white"/>
<path d="M66.2151 59.5154L55.2051 59.4367V56.2386L66.2151 56.3369V59.5154Z" fill="white"/>
<path d="M125.066 59.9151L73.2471 59.5613V56.4024L125.066 56.8743V59.9151Z" fill="white"/>
<path d="M66.2151 64.935L55.2051 64.9022V61.7041L66.2151 61.7631V64.935Z" fill="white"/>
<path d="M125.066 65.1122L73.2471 64.9549V61.7961L125.066 62.0713V65.1122Z" fill="white"/>
<path d="M47.9959 70.368L36.7041 70.3746V67.1371L47.9959 67.1502V70.368Z" fill="white"/>
<path d="M108.328 70.3224L55.2051 70.3617V67.1636L108.328 67.2422V70.3224Z" fill="white"/>
<path d="M66.2151 75.7748L55.2051 75.8207V72.6291L66.2151 72.6029V75.7748Z" fill="white"/>
<path d="M125.066 75.5061L73.2471 75.742V72.5832L125.066 72.4652V75.5061Z" fill="white"/>
<path d="M66.2151 81.1947L55.2051 81.2865V78.0883L66.2151 78.0228V81.1947Z" fill="white"/>
<path d="M125.066 80.7032L73.2471 81.1357V77.9769L125.066 77.6623V80.7032Z" fill="white"/>
<path d="M66.2151 86.6143L55.2051 86.7454V83.5473L66.2151 83.4424V86.6143Z" fill="white"/>
<path d="M125.066 85.9066L73.2471 86.5291V83.3703L125.066 82.8591V85.9066Z" fill="white"/>
<path d="M84.1523 91.7524L73.4175 91.9228V88.764L84.1523 88.6133V91.7524Z" fill="white"/>
<path d="M133.107 90.9728L91.0063 91.6413V88.5218L133.107 87.9516V90.9728Z" fill="white"/>
<path d="M47.9959 97.8146L36.7041 98.0374V94.7934L47.9959 94.5968V97.8146Z" fill="white"/>
<path d="M108.328 96.6284L55.2051 97.6704V94.4722L108.328 93.5482V96.6284Z" fill="white"/>
<path d="M66.2151 102.874L55.2051 103.136V99.938L66.2151 99.7021V102.874Z" fill="white"/>
<path d="M125.066 101.498L73.2471 102.71V99.5514L125.066 98.4504V101.498Z" fill="white"/>
<path d="M66.2151 108.294L55.2051 108.595V105.397L66.2151 105.122V108.294Z" fill="white"/>
<path d="M125.066 106.695L73.2471 108.104V104.945L125.066 103.647V106.695Z" fill="white"/>
<path d="M47.9959 114.277L36.7041 114.631V111.394L47.9959 111.066V114.277Z" fill="white"/>
<path d="M108.328 112.409L55.2051 114.054V110.856L108.328 109.329V112.409Z" fill="white"/>
<path d="M66.2151 119.133L55.2051 119.52V116.322L66.2151 115.962V119.133Z" fill="white"/>
<path d="M125.066 117.089L73.2471 118.891V115.732L125.066 114.048V117.089Z" fill="white"/>
<g opacity="0.5">
<path d="M97.502 62.5105C85.6924 45.3269 65.2452 50.7926 52.3149 31.8003C49.9819 28.3728 48.4025 24.8929 47.3146 21.675L35.6885 21.2949C32.3003 21.1835 29.5347 23.8574 29.5347 27.2718V125.831C29.5347 129.246 32.2937 131.893 35.6885 131.749L133.108 127.588C130.873 124.37 111.435 112.449 106.415 94.1446C101.827 77.4002 104.632 72.8782 97.502 62.5105Z" fill="white"/>
</g>
<path d="M177.986 32.7179C177.986 13.9812 160.704 -0.646438 140.112 0.022028C128.388 0.402136 118.191 5.69089 111.821 13.4897V13.4831C111.781 13.529 111.742 13.5814 111.703 13.6338C111.591 13.7715 111.486 13.9091 111.381 14.0467C111.185 14.2958 110.988 14.5513 110.805 14.8069C110.693 14.9577 110.582 15.1084 110.477 15.2657C110.294 15.5213 110.117 15.7834 109.946 16.039C109.848 16.1897 109.743 16.3339 109.651 16.4846C109.455 16.7861 109.271 17.0941 109.088 17.3956C109.022 17.507 108.95 17.6184 108.884 17.7298C108.642 18.1493 108.413 18.5687 108.19 18.9947C108.131 19.1061 108.078 19.2241 108.019 19.3355C107.856 19.6566 107.698 19.9777 107.548 20.3054C107.475 20.4627 107.403 20.6265 107.331 20.7838C107.207 21.0722 107.082 21.3605 106.964 21.6554C106.899 21.8258 106.827 21.9962 106.761 22.1666C106.643 22.4681 106.538 22.7695 106.433 23.071C106.381 23.2283 106.322 23.3856 106.27 23.5494C106.145 23.9295 106.027 24.3162 105.916 24.7029C105.89 24.7815 105.863 24.8601 105.844 24.9453C105.713 25.4106 105.601 25.8825 105.49 26.3609C105.457 26.4985 105.431 26.6427 105.405 26.7803C105.332 27.1211 105.267 27.4619 105.208 27.8093C105.175 27.9862 105.149 28.1632 105.123 28.3335C105.077 28.6547 105.031 28.9692 104.992 29.2904C104.972 29.4739 104.946 29.6508 104.933 29.8343C104.9 30.1751 104.874 30.5159 104.847 30.8567C104.834 31.014 104.821 31.1713 104.815 31.3351C104.788 31.8332 104.775 32.3378 104.775 32.8424C104.775 44.8683 112.056 55.472 122.975 61.1539C123.977 61.6782 125.013 62.1566 126.081 62.5957C126.612 62.812 127.156 63.0217 127.7 63.2183C131.54 64.6011 135.728 65.4203 140.125 65.5448C140.728 65.5645 141.331 65.5645 141.934 65.558C142.137 65.558 142.334 65.5448 142.537 65.5383C142.937 65.5252 143.33 65.5121 143.723 65.4924C143.966 65.4793 144.202 65.4596 144.444 65.44C144.798 65.4138 145.146 65.3876 145.499 65.3482C145.755 65.322 146.011 65.2893 146.266 65.2565C146.594 65.2172 146.928 65.1778 147.256 65.1254C147.518 65.0861 147.78 65.0468 148.036 65.0009C148.35 64.9485 148.671 64.896 148.986 64.8305C149.248 64.7781 149.51 64.7256 149.772 64.6732C150.08 64.6077 150.388 64.5421 150.69 64.4701C150.952 64.4111 151.214 64.3455 151.47 64.28C151.771 64.2014 152.073 64.1227 152.368 64.0375C152.623 63.9654 152.879 63.8933 153.134 63.8147C153.226 63.7885 153.324 63.7623 153.416 63.7295L153.41 63.7229C167.644 59.2599 177.986 47.1686 177.986 32.7179Z" fill="url(#paint11_linear_149_7924)"/>
<path d="M175.155 32.7245C175.155 51.4153 157.959 66.0626 137.479 65.4662C117.759 64.8895 102.306 50.2946 102.306 32.849C102.306 15.4033 117.759 0.756044 137.479 0.113792C157.959 -0.554674 175.155 14.0336 175.155 32.7245Z" fill="url(#paint12_linear_149_7924)"/>
<path d="M128.238 41.7749L113.61 34.3365V31.9379L128.231 23.4707V27.547L118.113 32.9537L128.231 37.7116V41.7749H128.238Z" fill="white"/>
<path d="M143.789 20.1676L135.473 45.3007L131.298 45.2613L139.549 20.2266L143.789 20.1676Z" fill="white"/>
<path d="M146.883 37.7709L157.572 32.895L146.883 27.4293V23.2743L162.467 31.8137V34.3237L146.883 41.9062V37.7709Z" fill="white"/>
<g opacity="0.3">
<path d="M146.386 57.3331C141.942 47.5486 146.431 38.5047 140.435 32.2263C134.406 25.9218 126.672 31.8135 118.48 26.7672C115.348 24.8404 111.881 21.1442 109.325 13.5355C104.908 18.9553 102.306 25.64 102.306 32.8424C102.306 50.288 117.76 64.8829 137.479 65.4596C142.106 65.5972 146.563 64.9484 150.704 63.6508C148.66 61.5274 147.31 59.3582 146.386 57.3331Z" fill="url(#paint13_linear_149_7924)"/>
</g>
<defs>
<linearGradient id="paint0_linear_149_7924" x1="28.2404" y1="4.2368" x2="59.3522" y2="103.229" gradientUnits="userSpaceOnUse">
<stop stop-color="#FFE192"/>
<stop offset="1" stop-color="#FFC221"/>
</linearGradient>
<linearGradient id="paint1_linear_149_7924" x1="85.2091" y1="289.177" x2="78.3596" y2="258.959" gradientUnits="userSpaceOnUse">
<stop stop-color="#FFE08F"/>
<stop offset="1" stop-color="#FFC221"/>
</linearGradient>
<linearGradient id="paint2_linear_149_7924" x1="55.4988" y1="79.1343" x2="11.058" y2="115.639" gradientUnits="userSpaceOnUse">
<stop stop-color="#FFDC81"/>
<stop offset="1" stop-color="#FFC221"/>
</linearGradient>
<linearGradient id="paint3_linear_149_7924" x1="84.0954" y1="171.392" x2="71.1107" y2="176.845" gradientUnits="userSpaceOnUse">
<stop stop-color="#40447E"/>
<stop offset="0.9964" stop-color="#3C3B6B"/>
</linearGradient>
<linearGradient id="paint4_linear_149_7924" x1="62.9685" y1="113.667" x2="49.5055" y2="119.321" gradientUnits="userSpaceOnUse">
<stop stop-color="#40447E"/>
<stop offset="0.9964" stop-color="#3C3B6B"/>
</linearGradient>
<linearGradient id="paint5_linear_149_7924" x1="6.03004" y1="116.926" x2="128.718" y2="116.926" gradientUnits="userSpaceOnUse">
<stop stop-color="#40447E"/>
<stop offset="0.9964" stop-color="#3C3B6B"/>
</linearGradient>
<linearGradient id="paint6_linear_149_7924" x1="13.9113" y1="156.479" x2="138.454" y2="55.0617" gradientUnits="userSpaceOnUse">
<stop stop-color="#82C2FF"/>
<stop offset="0.9964" stop-color="#0071DC"/>
</linearGradient>
<linearGradient id="paint7_linear_149_7924" x1="6.03004" y1="165.659" x2="190.854" y2="165.659" gradientUnits="userSpaceOnUse">
<stop stop-color="#40447E"/>
<stop offset="0.9964" stop-color="#3C3B6B"/>
</linearGradient>
<linearGradient id="paint8_linear_149_7924" x1="24.1551" y1="164.13" x2="159.575" y2="164.13" gradientUnits="userSpaceOnUse">
<stop stop-color="#40447E"/>
<stop offset="0.9964" stop-color="#3C3B6B"/>
</linearGradient>
<linearGradient id="paint9_linear_149_7924" x1="123.558" y1="-1.07815" x2="13.9634" y2="218.11" gradientUnits="userSpaceOnUse">
<stop offset="0.00359712" stop-color="#8FB8DF"/>
<stop offset="1" stop-color="#0071DC"/>
</linearGradient>
<linearGradient id="paint10_linear_149_7924" x1="76.158" y1="-7.9234" x2="95.2004" y2="68.2465" gradientUnits="userSpaceOnUse">
<stop offset="0.00359712" stop-color="#91BDE7"/>
<stop offset="1" stop-color="#0071DC"/>
</linearGradient>
<linearGradient id="paint11_linear_149_7924" x1="92.7837" y1="-64.7638" x2="146.818" y2="43.6704" gradientUnits="userSpaceOnUse">
<stop stop-color="#FFC444"/>
<stop offset="0.9964" stop-color="#F36F56"/>
</linearGradient>
<linearGradient id="paint12_linear_149_7924" x1="124.561" y1="6.45921" x2="177.045" y2="103.801" gradientUnits="userSpaceOnUse">
<stop stop-color="#FFC444"/>
<stop offset="0.9964" stop-color="#F36F56"/>
</linearGradient>
<linearGradient id="paint13_linear_149_7924" x1="110.148" y1="12.9282" x2="161.135" y2="115.246" gradientUnits="userSpaceOnUse">
<stop stop-color="#FFC444"/>
<stop offset="0.9964" stop-color="#F36F56"/>
</linearGradient>
</defs>
</svg>
