<svg xmlns="http://www.w3.org/2000/svg">
   <defs>
      <symbol viewBox="0 0 22 19" id="like">
         <path d="M10.7468 17.7331L11.0003 17.882L11.2536 17.7329C12.1624 17.1982 14.5555 15.7118 16.7277 13.6791C18.8754 11.6694 20.9286 9.01385 20.9286 6.13686V6.13622C20.9268 4.79799 20.3986 3.5143 19.4585 2.56686C18.5183 1.61928 17.2427 1.08545 15.9114 1.08371H15.9107C13.817 1.08371 12.0173 2.21157 11.2636 4.06782C11.2416 4.12166 11.2045 4.16708 11.1576 4.19877C11.1106 4.23049 11.0558 4.24719 11 4.24719C10.9442 4.24719 10.8894 4.23049 10.8424 4.19877C10.7954 4.16701 10.7582 4.12147 10.7362 4.06749L10.2732 4.25621L10.7364 4.06785C9.98288 2.21503 8.18356 1.08371 6.08929 1.08371L6.08863 1.08371C4.75726 1.08545 3.4817 1.61928 2.54147 2.56686C1.60137 3.5143 1.07316 4.79799 1.07143 6.13622V6.13686C1.07143 9.01768 3.12396 11.6734 5.27161 13.6825C7.44369 15.7144 9.83691 17.1988 10.7468 17.7331ZM9.81005 4.44457L9.8102 4.44493C9.90659 4.68142 10.0708 4.88432 10.2826 5.02741C10.4945 5.17053 10.7442 5.24719 11 5.24719C11.2558 5.24719 11.5055 5.17053 11.7174 5.02741C11.9292 4.88432 12.0934 4.68142 12.1898 4.44493L12.1901 4.44428C12.7761 3.00075 14.1838 2.08381 15.9104 2.08371C16.9744 2.0852 17.9951 2.51178 18.7487 3.27121C19.5024 4.03085 19.9272 5.06155 19.9286 6.13751C19.9283 8.56671 18.163 10.9664 16.0444 12.9489C14.1271 14.7432 12.0194 16.1043 10.9998 16.72C9.9795 16.1051 7.8719 14.7457 5.95477 12.9522C3.83657 10.9707 2.07156 8.57055 2.07143 6.13715C2.07291 5.06132 2.49766 4.03076 3.25133 3.27121C4.00486 2.51178 5.02562 2.0852 6.08959 2.08371C7.81571 2.08381 9.22394 3.00336 9.81005 4.44457ZM11.401 2.66339C12.4075 1.31242 14.0301 0.500081 15.9104 0.5C17.3911 0.501758 18.8114 1.09528 19.8596 2.15165C20.9079 3.20821 21.4983 4.64155 21.5 6.13742C21.4997 9.36923 19.1054 12.3741 16.518 14.6577C13.9562 16.9188 11.3369 18.3576 11.1369 18.4644L11.1339 18.4659C11.0925 18.4884 11.0465 18.5 11 18.5C10.9535 18.5 10.9075 18.4884 10.8661 18.4659L10.8631 18.4644C10.6631 18.3576 8.04375 16.9188 5.48196 14.6577C2.89455 12.3741 0.500144 9.36906 0.5 6.13716C0.501743 4.64138 1.09214 3.20815 2.14045 2.15165C3.18862 1.09528 4.60892 0.501758 6.08957 0.5C7.9699 0.500081 9.59255 1.31242 10.599 2.66339L11 3.20158L11.401 2.66339Z"/>
      </symbol>
        <symbol viewBox="0 0 16 15" id="star">
          <path d="M4.12215 13.4616L5.07464 9.34393L5.14248 9.05065L4.91503 8.85346L1.72002 6.08348L5.94324 5.71688L6.2433 5.69083L6.36056 5.4134L8 1.53436L9.63944 5.4134L9.7567 5.69083L10.0568 5.71688L14.28 6.08348L11.085 8.85346L10.8575 9.05065L10.9254 9.34393L11.8778 13.4616L8.25827 11.2781L8 11.1223L7.74173 11.2781L4.12215 13.4616Z" />
      </symbol>
      <symbol viewBox="0 0 18 18" id="copy">
          <path d="M11.6667 6.33333V3.84444C11.6667 2.84889 11.6667 2.35111 11.4729 1.97067C11.3022 1.63556 11.0311 1.36444 10.696 1.19378C10.3156 1 9.81778 1 8.82222 1H3.84445C2.84889 1 2.35111 1 1.97067 1.19378C1.63617 1.36422 1.36422 1.63617 1.19378 1.97067C1 2.35111 1 2.84889 1 3.84444V8.82222C1 9.81778 1 10.3156 1.19378 10.696C1.36432 11.0304 1.63624 11.3023 1.97067 11.4729C2.35111 11.6667 2.84889 11.6667 3.84178 11.6667H6.33333M11.6667 6.33333H14.1556C15.1511 6.33333 15.6489 6.33333 16.0293 6.52711C16.3639 6.6975 16.6358 6.96947 16.8062 7.304C17 7.68444 17 8.18222 17 9.17778V14.1556C17 15.1511 17 15.6489 16.8062 16.0293C16.6358 16.3638 16.3638 16.6358 16.0293 16.8062C15.6498 17 15.152 17 14.1582 17H9.17422C8.18133 17 7.68444 17 7.304 16.8062C6.9695 16.6358 6.69755 16.3638 6.52711 16.0293C6.33333 15.6489 6.33333 15.152 6.33333 14.1582V11.6667M11.6667 6.33333H9.17778C8.18222 6.33333 7.68444 6.33333 7.304 6.52711C6.9695 6.69755 6.69755 6.9695 6.52711 7.304C6.33333 7.68356 6.33333 8.18133 6.33333 9.17511V11.6667" stroke-width="1.5" stroke-linecap="round" stroke-linejoin="round"/>
      </symbol>
       <symbol viewBox="0 0 28 28" id="odnockassniki">
            <g clip-path="url(#clip0_147_213)">
            <path d="M0 13.44C0 7.1043 0 3.93648 1.96824 1.96824C3.93648 0 7.1043 0 13.44 0H14.56C20.8957 0 24.0635 0 26.0318 1.96824C28 3.93648 28 7.1043 28 13.44V14.56C28 20.8957 28 24.0635 26.0318 26.0318C24.0635 28 20.8957 28 14.56 28H13.44C7.1043 28 3.93648 28 1.96824 26.0318C0 24.0635 0 20.8957 0 14.56V13.44Z"/>
            <path d="M9.50193 13.4814L8.14453 15.5555C8.82323 16.1317 10.52 17.2839 11.8774 17.2839L9.50193 22.1234H12.2167L13.9135 18.321L15.6102 22.1234H18.325L15.9496 17.2839C16.402 17.2839 17.7142 16.9382 19.343 15.5555L17.9857 13.4814C15.2709 15.5555 12.2167 15.6938 9.50193 13.4814Z" fill="white"/>
            <path d="M10.8594 9.39025V9.27631C10.8594 7.58955 12.2268 6.22217 13.9135 6.22217C15.6003 6.22217 16.9677 7.58955 16.9677 9.2763V9.39025C16.9677 11.077 15.6003 12.4444 13.9135 12.4444C12.2268 12.4444 10.8594 11.077 10.8594 9.39025Z" stroke="white" stroke-width="2.5"/>
            </g>
            <defs>
            <clipPath id="clip0_147_213">
            <rect width="28" height="28" fill="white"/>
            </clipPath>
             </defs>
      </symbol>
      <symbol viewBox="0 0 28 28" id="zen">
       <g clip-path="url(#clip0_147_218)">
         <path d="M16.7 16.7C14.5 18.97 14.34 21.8 14.15 28C19.93 28 23.92 27.98 25.98 25.98C27.98 23.92 28 19.74 28 14.15C21.8 14.35 18.97 14.5 16.7 16.7ZM0 14.15C0 19.74 0.02 23.92 2.02 25.98C4.08 27.98 8.07 28 13.85 28C13.65 21.8 13.5 18.97 11.3 16.7C9.03 14.5 6.2 14.34 0 14.15ZM13.85 0C8.08 0 4.08 0.02 2.02 2.02C0.02 4.08 0 8.26 0 13.85C6.2 13.65 9.03 13.5 11.3 11.3C13.5 9.03 13.66 6.2 13.85 0ZM16.7 11.3C14.5 9.03 14.34 6.2 14.15 0C19.93 0 23.92 0.02 25.98 2.02C27.98 4.08 28 8.26 28 13.85C21.8 13.65 18.97 13.5 16.7 11.3Z"/>
         <path d="M28 14.15V13.85C21.8 13.65 18.97 13.5 16.7 11.3C14.5 9.03 14.34 6.2 14.15 0H13.85C13.65 6.2 13.5 9.03 11.3 11.3C9.03 13.5 6.2 13.66 0 13.85V14.15C6.2 14.35 9.03 14.5 11.3 16.7C13.5 18.97 13.66 21.8 13.85 28H14.15C14.35 21.8 14.5 18.97 16.7 16.7C18.97 14.5 21.8 14.34 28 14.15Z" fill="white"/>
         </g>
         <defs>   
         <clipPath id="clip0_147_218">
         <rect width="28" height="28" fill="white"/>  
         </clipPath>
         </defs>
      </symbol>
      <symbol viewBox="0 0 28 28" id="whatsap">
         <path d="M24.6058 2.73237C23.9054 2.0883 21.0696 0.045936 14.7574 0.0205124C14.7574 0.0205124 7.30916 -0.428628 3.65338 2.87643C1.62903 4.88489 0.920077 7.81707 0.843202 11.4526C0.766328 15.0882 0.672371 21.9017 7.29208 23.7492V26.5712C7.29208 26.5712 7.29208 27.7152 8.00957 27.9441C8.92352 28.2322 9.46163 27.3593 10.3414 26.4271C10.8197 25.9102 11.486 25.1559 11.9814 24.5797C14.7977 24.8407 17.6382 24.6345 20.3863 23.9695C21.3002 23.6729 26.4764 23.0204 27.322 16.1984C28.2189 9.173 26.9291 4.73235 24.6058 2.73237ZM25.3746 15.6984C24.6571 21.3848 20.4632 21.7407 19.6944 21.9865C17.33 22.5647 14.889 22.7735 12.4597 22.6051C12.4597 22.6051 9.58976 25.9949 8.69289 26.9271C8.643 26.9856 8.57981 27.0315 8.50852 27.0609C8.43723 27.0904 8.35989 27.1026 8.2829 27.0966C8.12915 27.0542 8.08644 26.8763 8.08644 26.6135C8.08644 26.3508 8.08644 21.9271 8.08644 21.9271C2.48318 20.3763 2.80776 14.5797 2.87609 11.5459C2.94443 8.51198 3.51671 6.02048 5.22502 4.34252C8.29144 1.5883 14.6207 1.99508 14.6207 1.99508C19.9592 1.99508 22.5217 3.61372 23.1111 4.14761C25.1012 5.82556 26.1006 9.82553 25.3746 15.6984Z"/>
         <path d="M14.1813 16.1463C14.3041 16.1553 14.4273 16.1378 14.5424 16.0948C14.6576 16.0519 14.7618 15.9846 14.8478 15.8977L15.307 15.3275C15.4642 15.1568 15.6774 15.0463 15.9091 15.0155C16.1408 14.9848 16.376 15.0357 16.5733 15.1594C16.9662 15.3831 17.3469 15.6271 17.7138 15.8904C18.0619 16.1463 18.7654 16.7238 18.7654 16.7311C18.9311 16.8634 19.0416 17.0514 19.0758 17.2591C19.11 17.4668 19.0654 17.6796 18.9505 17.8569C18.6985 18.289 18.3786 18.6789 18.0026 19.0119C17.7313 19.2551 17.3943 19.4151 17.0325 19.4724C16.9859 19.4803 16.9383 19.4803 16.8918 19.4724C16.7537 19.4745 16.6162 19.4547 16.4845 19.4139C15.5615 19.0989 14.6732 18.6924 13.8333 18.2004C13.0515 17.7771 12.3082 17.2879 11.6116 16.7384C11.2616 16.4651 10.9278 16.1722 10.6118 15.8612H10.5748C10.2616 15.545 9.96499 15.2131 9.68613 14.867C9.13195 14.1776 8.63655 13.4441 8.20501 12.674C7.7065 11.846 7.29697 10.9689 6.98308 10.0569C6.93933 9.92473 6.91684 9.7866 6.91644 9.64754C6.91197 9.60135 6.91197 9.55484 6.91644 9.50865C6.9734 9.15332 7.13575 8.82263 7.38299 8.55832C7.66785 8.1325 8.02045 7.75483 8.42718 7.43987C8.60791 7.32604 8.82472 7.28175 9.03637 7.31545C9.24802 7.34915 9.43973 7.45847 9.57504 7.62262C9.57504 7.62262 10.1675 8.35364 10.4193 8.66067C10.6711 8.96769 10.9821 9.50134 11.1598 9.78644C11.282 9.98401 11.331 10.2172 11.2986 10.4465C11.2662 10.6757 11.1544 10.8868 10.9821 11.0438L10.4045 11.4897C10.3163 11.576 10.2481 11.6802 10.2046 11.795C10.1612 11.9099 10.1434 12.0327 10.1527 12.1549C10.4349 13.0985 10.9511 13.9577 11.6545 14.6546C12.358 15.3516 13.2265 15.8643 14.1813 16.1463Z"/>
         <path d="M17.8631 12.1734C17.8918 11.712 17.8233 11.2498 17.6617 10.8139C17.5001 10.378 17.2486 9.97711 16.922 9.63478C16.206 8.94474 15.2365 8.54559 14.2173 8.52124"  stroke-width="0.8" stroke-linecap="round" stroke-linejoin="round"/>
         <path d="M15.4309 12.1739C15.4442 12.0142 15.4223 11.8535 15.3665 11.7027C15.3108 11.5518 15.2226 11.4142 15.1077 11.2991C14.9928 11.184 14.854 11.094 14.7004 11.0352C14.5469 10.9764 14.3822 10.95 14.2173 10.9579"  stroke-width="0.8" stroke-linecap="round" stroke-linejoin="round"/>
         <path d="M20.2978 12.1736C20.3364 11.3571 20.2007 10.5417 19.8988 9.77728C19.597 9.0129 19.1355 8.31569 18.5425 7.72844C17.9723 7.19207 17.2958 6.7706 16.5529 6.48888C15.8101 6.20716 15.0159 6.0709 14.2173 6.08812"  stroke-width="0.8" stroke-linecap="round" stroke-linejoin="round"/>
      </symbol>
      <symbol viewBox="0 0 28 28" id="vk">
         <path d="M0 13.44C0 7.1043 0 3.93648 1.96824 1.96824C3.93648 0 7.1043 0 13.44 0H14.56C20.8957 0 24.0635 0 26.0318 1.96824C28 3.93648 28 7.1043 28 13.44V14.56C28 20.8957 28 24.0635 26.0318 26.0318C24.0635 28 20.8957 28 14.56 28H13.44C7.1043 28 3.93648 28 1.96824 26.0318C0 24.0635 0 20.8957 0 14.56V13.44Z"/>
         <path d="M15.0367 20.1599C8.43717 20.1599 4.67296 15.6437 4.51611 8.12891H7.82192C7.9305 13.6446 10.3676 15.9809 12.298 16.4627V8.12891H15.4109V12.8859C17.3171 12.6812 19.3197 10.5134 19.9953 8.12891H23.1081C22.5893 11.0674 20.4176 13.2351 18.8733 14.1263C20.4176 14.8489 22.8911 16.7397 23.8322 20.1599H20.4056C19.6696 17.8717 17.8359 16.1014 15.4109 15.8605V20.1599H15.0367Z" fill="white"/>
      </symbol>
      <symbol viewBox="0 0 28 28" id="tg">
         <path d="M13.75 0C6.16 0 0 6.16 0 13.75C0 21.34 6.16 27.5 13.75 27.5C21.34 27.5 27.5 21.34 27.5 13.75C27.5 6.16 21.34 0 13.75 0ZM20.13 9.35C19.9238 11.5225 19.03 16.8025 18.5763 19.2363C18.3838 20.2675 17.9988 20.6113 17.6413 20.6525C16.8438 20.7213 16.2388 20.13 15.4688 19.6213C14.2588 18.8238 13.5713 18.3288 12.4025 17.5588C11.0413 16.665 11.9213 16.17 12.705 15.3725C12.9113 15.1663 16.4313 11.9625 16.5 11.6738C16.5096 11.63 16.5083 11.5846 16.4963 11.5415C16.4843 11.4983 16.462 11.4588 16.4313 11.4263C16.3488 11.3575 16.2388 11.385 16.1425 11.3988C16.0188 11.4263 14.0938 12.705 10.34 15.235C9.79 15.6063 9.295 15.7988 8.855 15.785C8.36 15.7713 7.425 15.51 6.72375 15.2763C5.8575 15.0013 5.18375 14.85 5.23875 14.3688C5.26625 14.1213 5.61 13.8738 6.25625 13.6125C10.2713 11.8663 12.9388 10.7113 14.2725 10.1613C18.095 8.56625 18.8788 8.29125 19.4013 8.29125C19.5113 8.29125 19.7725 8.31875 19.9375 8.45625C20.075 8.56625 20.1163 8.7175 20.13 8.8275C20.1163 8.91 20.1438 9.1575 20.13 9.35Z" />
      </symbol>
      <symbol viewBox="0 0 17 9" id="acardion">
         <path d="M1 1L7.81768 7.36317C8.20189 7.72176 8.79811 7.72176 9.18232 7.36317L16 1" fill="transparent" stroke="#2E2E2E" stroke-width="1.5"/>
      </symbol>
       <symbol viewBox="0 0 6 11" fill="none" id="arrowList">
            <path d="M1 10L4.79289 6.20711C5.18342 5.81658 5.18342 5.18342 4.79289 4.79289L1 1" fill="transparent" stroke="#2E2E2E"/>
      </symbol>
       <symbol viewBox="0 0 9 17" fill="none" id="arrowSlider">
         <path d="M1 16L7.36317 9.18232C7.72176 8.79811 7.72176 8.20189 7.36317 7.81768L1 1" fill="transparent"  stroke-width="1.5"/>
      </symbol>
       <symbol viewBox="0 0 18 18" fill="none" id="calendar">
            <g clip-path="url(#clip0_150_8732)">
            <path d="M16.1251 3H14.1251V4.5C14.1251 4.64445 14.0967 4.78749 14.0414 4.92095C13.9861 5.05441 13.9051 5.17567 13.8029 5.27781C13.7008 5.37996 13.5795 5.46098 13.4461 5.51626C13.3126 5.57154 13.1696 5.6 13.0251 5.6C12.8807 5.6 12.7376 5.57154 12.6042 5.51626C12.4707 5.46098 12.3495 5.37996 12.2473 5.27781C12.1452 5.17567 12.0641 5.05441 12.0089 4.92095C11.9536 4.78749 11.9251 4.64445 11.9251 4.5V3H6.10013V4.5C6.10013 4.79173 5.98424 5.07152 5.77795 5.27781C5.57166 5.4841 5.29187 5.6 5.00013 5.6C4.70839 5.6 4.4286 5.4841 4.22231 5.27781C4.01602 5.07152 3.90013 4.79173 3.90013 4.5V3H1.90013C1.78114 2.99864 1.66309 3.02116 1.55296 3.06623C1.44282 3.11129 1.34284 3.17798 1.25894 3.26236C1.17503 3.34674 1.10889 3.44708 1.06444 3.55746C1.01998 3.66784 0.998115 3.78602 1.00013 3.905V15.095C0.998142 15.2119 1.0192 15.328 1.0621 15.4367C1.105 15.5455 1.1689 15.6447 1.25016 15.7288C1.33141 15.8128 1.42843 15.88 1.53566 15.9265C1.6429 15.9731 1.75825 15.998 1.87513 16H16.1251C16.242 15.998 16.3574 15.9731 16.4646 15.9265C16.5718 15.88 16.6688 15.8128 16.7501 15.7288C16.8314 15.6447 16.8953 15.5455 16.9382 15.4367C16.9811 15.328 17.0021 15.2119 17.0001 15.095V3.905C17.0021 3.78812 16.9811 3.67199 16.9382 3.56325C16.8953 3.45451 16.8314 3.35528 16.7501 3.27124C16.6688 3.1872 16.5718 3.11999 16.4646 3.07345C16.3574 3.02691 16.242 3.00195 16.1251 3ZM5.00013 13H4.00013V12H5.00013V13ZM5.00013 10.5H4.00013V9.5H5.00013V10.5ZM5.00013 8H4.00013V7H5.00013V8ZM8.00013 13H7.00013V12H8.00013V13ZM8.00013 10.5H7.00013V9.5H8.00013V10.5ZM8.00013 8H7.00013V7H8.00013V8ZM11.0001 13H10.0001V12H11.0001V13ZM11.0001 10.5H10.0001V9.5H11.0001V10.5ZM11.0001 8H10.0001V7H11.0001V8ZM14.0001 13H13.0001V12H14.0001V13ZM14.0001 10.5H13.0001V9.5H14.0001V10.5ZM14.0001 8H13.0001V7H14.0001V8Z" fill="white"/>
            <path d="M5 5C5.13261 5 5.25979 4.94732 5.35355 4.85355C5.44732 4.75979 5.5 4.63261 5.5 4.5V1.5C5.5 1.36739 5.44732 1.24021 5.35355 1.14645C5.25979 1.05268 5.13261 1 5 1C4.86739 1 4.74021 1.05268 4.64645 1.14645C4.55268 1.24021 4.5 1.36739 4.5 1.5V4.5C4.5 4.63261 4.55268 4.75979 4.64645 4.85355C4.74021 4.94732 4.86739 5 5 5Z" fill="white"/>
            <path d="M13 5C13.1326 5 13.2598 4.94732 13.3536 4.85355C13.4473 4.75979 13.5 4.63261 13.5 4.5V1.5C13.5 1.36739 13.4473 1.24021 13.3536 1.14645C13.2598 1.05268 13.1326 1 13 1C12.8674 1 12.7402 1.05268 12.6464 1.14645C12.5527 1.24021 12.5 1.36739 12.5 1.5V4.5C12.5 4.63261 12.5527 4.75979 12.6464 4.85355C12.7402 4.94732 12.8674 5 13 5Z" fill="white"/>
            </g>
            <defs>
            <clipPath id="clip0_150_8732">
            <rect width="18" height="18" fill="white"/>
            </clipPath>
            </defs>
      </symbol>
       <symbol viewBox="0 0 20 20" fill="none" id="check">
         <rect width="20" height="20" fill="#0071DC"/>
         <path d="M15.7145 7.4019L8.71452 14.4019C8.65355 14.4631 8.5811 14.5116 8.50134 14.5447C8.42157 14.5779 8.33604 14.5949 8.24967 14.5949C8.1633 14.5949 8.07778 14.5779 7.99801 14.5447C7.91824 14.5116 7.8458 14.4631 7.78483 14.4019L4.72233 11.3394C4.66129 11.2784 4.61286 11.2059 4.57983 11.1261C4.54679 11.0464 4.52979 10.9609 4.52979 10.8746C4.52979 10.7882 4.54679 10.7027 4.57983 10.623C4.61286 10.5432 4.66129 10.4708 4.72233 10.4097C4.78337 10.3487 4.85584 10.3002 4.9356 10.2672C5.01536 10.2342 5.10084 10.2172 5.18717 10.2172C5.2735 10.2172 5.35899 10.2342 5.43875 10.2672C5.5185 10.3002 5.59097 10.3487 5.65202 10.4097L8.25022 13.0079L14.7859 6.47331C14.9092 6.35002 15.0764 6.28076 15.2508 6.28076C15.4251 6.28076 15.5923 6.35002 15.7156 6.47331C15.8389 6.59659 15.9082 6.7638 15.9082 6.93815C15.9082 7.1125 15.8389 7.27971 15.7156 7.40299L15.7145 7.4019Z" fill="white"/>
      </symbol>
       <symbol viewBox="0 0 19 19" fill="none" id="clock"> 
         <path d="M1 9.5C1 10.6162 1.21986 11.7215 1.64702 12.7528C2.07419 13.7841 2.70029 14.7211 3.48959 15.5104C4.27889 16.2997 5.21592 16.9258 6.24719 17.353C7.27846 17.7801 8.38376 18 9.5 18C10.6162 18 11.7215 17.7801 12.7528 17.353C13.7841 16.9258 14.7211 16.2997 15.5104 15.5104C16.2997 14.7211 16.9258 13.7841 17.353 12.7528C17.7801 11.7215 18 10.6162 18 9.5C18 7.24566 17.1045 5.08365 15.5104 3.48959C13.9163 1.89553 11.7543 1 9.5 1C7.24566 1 5.08365 1.89553 3.48959 3.48959C1.89553 5.08365 1 7.24566 1 9.5Z" stroke="#9499AC" stroke-width="1.7" stroke-linecap="round" stroke-linejoin="round"/>
         <path d="M9.5 4.77777V9.49999L12.3333 12.3333" stroke="#9499AC" stroke-width="1.7" stroke-linecap="round" stroke-linejoin="round"/>
      </symbol>
       <symbol viewBox="0 0 15 15" fill="none" id="eye">
         <path d="M7.5 5.625C7.00272 5.625 6.5258 5.82254 6.17417 6.17417C5.82254 6.52581 5.625 7.00272 5.625 7.5C5.625 7.99728 5.82254 8.4742 6.17417 8.82583C6.5258 9.17746 7.00272 9.375 7.5 9.375C7.99728 9.375 8.4742 9.17746 8.82583 8.82583C9.17746 8.4742 9.375 7.99728 9.375 7.5C9.375 7.00272 9.17746 6.52581 8.82583 6.17417C8.4742 5.82254 7.99728 5.625 7.5 5.625ZM7.5 10.625C6.6712 10.625 5.87634 10.2958 5.29029 9.70971C4.70424 9.12366 4.375 8.3288 4.375 7.5C4.375 6.6712 4.70424 5.87634 5.29029 5.29029C5.87634 4.70424 6.6712 4.375 7.5 4.375C8.3288 4.375 9.12366 4.70424 9.70971 5.29029C10.2958 5.87634 10.625 6.6712 10.625 7.5C10.625 8.3288 10.2958 9.12366 9.70971 9.70971C9.12366 10.2958 8.3288 10.625 7.5 10.625ZM7.5 2.8125C4.375 2.8125 1.70625 4.75625 0.625 7.5C1.70625 10.2437 4.375 12.1875 7.5 12.1875C10.625 12.1875 13.2937 10.2437 14.375 7.5C13.2937 4.75625 10.625 2.8125 7.5 2.8125Z" fill="white"/>
      </symbol>
       <symbol viewBox="0 0 18 18" fill="none" id="eyeSilver">
         <path d="M9 6.75C8.40326 6.75 7.83097 6.98705 7.40901 7.40901C6.98705 7.83097 6.75 8.40326 6.75 9C6.75 9.59674 6.98705 10.169 7.40901 10.591C7.83097 11.0129 8.40326 11.25 9 11.25C9.59674 11.25 10.169 11.0129 10.591 10.591C11.0129 10.169 11.25 9.59674 11.25 9C11.25 8.40326 11.0129 7.83097 10.591 7.40901C10.169 6.98705 9.59674 6.75 9 6.75ZM9 12.75C8.00544 12.75 7.05161 12.3549 6.34835 11.6517C5.64509 10.9484 5.25 9.99456 5.25 9C5.25 8.00544 5.64509 7.05161 6.34835 6.34835C7.05161 5.64509 8.00544 5.25 9 5.25C9.99456 5.25 10.9484 5.64509 11.6517 6.34835C12.3549 7.05161 12.75 8.00544 12.75 9C12.75 9.99456 12.3549 10.9484 11.6517 11.6517C10.9484 12.3549 9.99456 12.75 9 12.75ZM9 3.375C5.25 3.375 2.0475 5.7075 0.75 9C2.0475 12.2925 5.25 14.625 9 14.625C12.75 14.625 15.9525 12.2925 17.25 9C15.9525 5.7075 12.75 3.375 9 3.375Z" fill="#9499AC"/>
      </symbol>
       <symbol viewBox="0 0 19 20" fill="none" id="filter">
         <path d="M11.8747 9.99864V18.753C11.9222 19.0863 11.8034 19.4418 11.5303 19.6751C11.4205 19.7781 11.29 19.8598 11.1464 19.9156C11.0028 19.9713 10.8488 20 10.6933 20C10.5378 20 10.3838 19.9713 10.2402 19.9156C10.0965 19.8598 9.96605 19.7781 9.8562 19.6751L7.46966 17.4421C7.34016 17.3236 7.24169 17.1788 7.18196 17.0188C7.12223 16.8588 7.10285 16.6881 7.12533 16.52V9.99864H7.08971L0.250656 1.79976C0.0578421 1.56815 -0.0291593 1.27456 0.00866227 0.983122C0.0464838 0.691686 0.206053 0.426105 0.452503 0.244411C0.678097 0.0888769 0.927437 0 1.18865 0H17.8113C18.0726 0 18.3219 0.0888769 18.5475 0.244411C18.7939 0.426105 18.9535 0.691686 18.9913 0.983122C19.0292 1.27456 18.9422 1.56815 18.7493 1.79976L11.9103 9.99864H11.8747Z" fill="white"/>
      </symbol>
       <symbol  viewBox="0 0 27 30" fill="none" id="filterBorder">
         <path d="M25.8586 2.08036L16.4408 13.998H15.8745V14.998V28.1295V28.1967L15.8835 28.2633C15.9111 28.4674 15.8357 28.6617 15.7155 28.77L15.6983 28.7856L15.6818 28.8019C15.6191 28.8639 15.544 28.9137 15.4605 28.948L15.8396 29.8733L15.4605 28.948C15.3769 28.9822 15.2869 29 15.1957 29C15.1045 29 15.0145 28.9822 14.9309 28.948C14.8474 28.9137 14.7723 28.8639 14.7096 28.8019L14.7089 28.8012L11.3175 25.4516L11.3175 25.4516L11.3094 25.4437C11.2363 25.3731 11.1816 25.2877 11.1487 25.1947C11.1158 25.1017 11.1052 25.0028 11.1175 24.9056L11.1255 24.8431V24.78V14.998V13.998H10.5592L1.14137 2.08036C1.14129 2.08026 1.14121 2.08016 1.14113 2.08005C1.03171 1.94116 0.983837 1.76751 1.00484 1.59671C1.0253 1.43029 1.11016 1.27516 1.24567 1.16497C1.4225 1.03975 1.57054 1 1.68914 1H25.3109C25.4295 1 25.5775 1.03975 25.7543 1.16497C25.8898 1.27517 25.9747 1.43029 25.9952 1.59671C26.0161 1.76741 25.9683 1.94095 25.8591 2.0798C25.8589 2.07999 25.8588 2.08017 25.8586 2.08036Z" stroke="#0071DC" stroke-width="2"/>
      </symbol>
       <symbol viewBox="0 0 29 29" fill="none" id="promo">
         <path d="M8.83594 11.7812C8.83594 12.1211 8.76986 12.4421 8.6377 12.7441C8.50553 13.0462 8.32617 13.3105 8.09961 13.5371C7.87305 13.7637 7.60872 13.943 7.30664 14.0752C7.00456 14.2074 6.68359 14.2734 6.34375 14.2734C6.00391 14.2734 5.68294 14.2074 5.38086 14.0752C5.07878 13.943 4.81445 13.7637 4.58789 13.5371C4.36133 13.3105 4.18197 13.0462 4.0498 12.7441C3.91764 12.4421 3.85156 12.1211 3.85156 11.7812C3.85156 11.4414 3.91764 11.1204 4.0498 10.8184C4.18197 10.5163 4.36133 10.252 4.58789 10.0254C4.81445 9.79883 5.07878 9.61947 5.38086 9.4873C5.68294 9.35514 6.00391 9.28906 6.34375 9.28906C6.68359 9.28906 7.00456 9.35514 7.30664 9.4873C7.60872 9.61947 7.87305 9.79883 8.09961 10.0254C8.32617 10.252 8.50553 10.5163 8.6377 10.8184C8.76986 11.1204 8.83594 11.4414 8.83594 11.7812ZM6.34375 12.9141C6.65527 12.9141 6.9196 12.8055 7.13672 12.5884C7.35384 12.3713 7.46712 12.1022 7.47656 11.7812C7.47656 11.4697 7.368 11.2054 7.15088 10.9883C6.93376 10.7712 6.66471 10.6579 6.34375 10.6484C6.03223 10.6484 5.7679 10.757 5.55078 10.9741C5.33366 11.1912 5.22038 11.4603 5.21094 11.7812C5.21094 12.0928 5.3195 12.3571 5.53662 12.5742C5.75374 12.7913 6.02279 12.9046 6.34375 12.9141ZM13.5938 14.7266C13.9336 14.7266 14.2546 14.7926 14.5566 14.9248C14.8587 15.057 15.123 15.2363 15.3496 15.4629C15.5762 15.6895 15.7555 15.9538 15.8877 16.2559C16.0199 16.5579 16.0859 16.8789 16.0859 17.2188C16.0859 17.5586 16.0199 17.8796 15.8877 18.1816C15.7555 18.4837 15.5762 18.748 15.3496 18.9746C15.123 19.2012 14.8587 19.3805 14.5566 19.5127C14.2546 19.6449 13.9336 19.7109 13.5938 19.7109C13.2539 19.7109 12.9329 19.6449 12.6309 19.5127C12.3288 19.3805 12.0645 19.2012 11.8379 18.9746C11.6113 18.748 11.432 18.4837 11.2998 18.1816C11.1676 17.8796 11.1016 17.5586 11.1016 17.2188C11.1016 16.8789 11.1676 16.5579 11.2998 16.2559C11.432 15.9538 11.6113 15.6895 11.8379 15.4629C12.0645 15.2363 12.3288 15.057 12.6309 14.9248C12.9329 14.7926 13.2539 14.7266 13.5938 14.7266ZM13.5938 18.3516C13.9053 18.3516 14.1696 18.243 14.3867 18.0259C14.6038 17.8088 14.7171 17.5397 14.7266 17.2188C14.7266 16.9072 14.618 16.6429 14.4009 16.4258C14.1838 16.2087 13.9147 16.0954 13.5938 16.0859C13.2822 16.0859 13.0179 16.1945 12.8008 16.4116C12.5837 16.6287 12.4704 16.8978 12.4609 17.2188C12.4609 17.5303 12.5695 17.7946 12.7866 18.0117C13.0037 18.2288 13.2728 18.3421 13.5938 18.3516ZM11.7338 9.44056C11.8497 9.20886 12.0865 9.0625 12.3455 9.0625C12.854 9.0625 13.1846 9.59754 12.9573 10.0523L8.20368 19.5594C8.08783 19.7911 7.85101 19.9375 7.59196 19.9375C7.08355 19.9375 6.75287 19.4025 6.98024 18.9477L11.7338 9.44056ZM19.5233 5.4375C19.7885 5.4375 20.0429 5.54286 20.2304 5.73039L28.2929 13.7929C28.6834 14.1834 28.6834 14.8166 28.2929 15.2071L20.2304 23.2696C20.0429 23.4571 19.7885 23.5625 19.5233 23.5625H0.999999C0.447715 23.5625 0 23.1148 0 22.5625V6.4375C0 5.88522 0.447715 5.4375 1 5.4375H19.5233ZM18.7728 21.75C19.038 21.75 19.2924 21.6446 19.4799 21.4571L25.7299 15.2071C26.1204 14.8166 26.1204 14.1834 25.7299 13.7929L19.4799 7.54289C19.2924 7.35536 19.038 7.25 18.7728 7.25H2.8125C2.26022 7.25 1.8125 7.69772 1.8125 8.25V20.75C1.8125 21.3023 2.26022 21.75 2.8125 21.75H18.7728ZM21.75 13.5938C21.9954 13.5938 22.2078 13.6834 22.3872 13.8628C22.5666 14.0422 22.6562 14.2546 22.6562 14.5C22.6562 14.7454 22.5666 14.9578 22.3872 15.1372C22.2078 15.3166 21.9954 15.4062 21.75 15.4062C21.5046 15.4062 21.2922 15.3166 21.1128 15.1372C20.9334 14.9578 20.8438 14.7454 20.8438 14.5C20.8438 14.2546 20.9334 14.0422 21.1128 13.8628C21.2922 13.6834 21.5046 13.5938 21.75 13.5938Z" fill="#9499AC"/>
      </symbol>
       <symbol viewBox="0 0 21 21" fill="none" id="search">
         <path d="M18.8427 17.9074L15.2907 14.3637C16.5443 12.8712 17.1733 10.9524 17.0466 9.00737C16.9198 7.06238 16.0471 5.24141 14.6104 3.92426C13.1737 2.6071 11.2839 1.89545 9.33526 1.93773C7.38661 1.98 5.5295 2.77295 4.15127 4.15118C2.77304 5.52941 1.9801 7.38651 1.93782 9.33517C1.89554 11.2838 2.60719 13.1736 3.92435 14.6103C5.2415 16.047 7.06247 16.9197 9.00746 17.0465C10.9524 17.1733 12.8713 16.5442 14.3638 15.2906L17.9075 18.8426C18.033 18.9639 18.2006 19.0317 18.3751 19.0317C18.5496 19.0317 18.7172 18.9639 18.8427 18.8426C18.9659 18.7182 19.035 18.5501 19.035 18.375C19.035 18.1999 18.9659 18.0318 18.8427 17.9074V17.9074ZM3.28135 9.51563C3.28135 8.28259 3.64699 7.07723 4.33203 6.052C5.01707 5.02676 5.99075 4.22768 7.12993 3.75582C8.26911 3.28395 9.52264 3.16049 10.732 3.40105C11.9413 3.6416 13.0522 4.23537 13.9241 5.10726C14.796 5.97915 15.3897 7.09001 15.6303 8.29936C15.8709 9.50871 15.7474 10.7622 15.2755 11.9014C14.8037 13.0406 14.0046 14.0143 12.9794 14.6993C11.9541 15.3844 10.7488 15.75 9.51572 15.75C7.86293 15.7478 6.27845 15.0903 5.10975 13.9216C3.94105 12.7529 3.28352 11.1684 3.28135 9.51563V9.51563Z" fill="#2E2E2E"/>
      </symbol>
       <symbol viewBox="0 0 18 18" fill="none" id="start">
         <path d="M2.8125 16.875C2.66332 16.875 2.52024 16.8157 2.41475 16.7102C2.30926 16.6048 2.25 16.4617 2.25 16.3125V2.3952C2.25004 2.24781 2.28868 2.10301 2.36208 1.97521C2.43548 1.84741 2.54108 1.74106 2.66836 1.66676C3.09375 1.41961 3.95086 1.125 5.625 1.125C6.93316 1.125 8.39637 1.64215 9.6873 2.09812C10.7269 2.46551 11.7088 2.8125 12.375 2.8125C13.2326 2.80987 14.0811 2.63658 14.8711 2.30273C14.9673 2.26213 15.072 2.24596 15.176 2.25566C15.28 2.26537 15.3799 2.30065 15.4669 2.35836C15.554 2.41607 15.6253 2.49442 15.6747 2.58642C15.7241 2.67842 15.75 2.78121 15.75 2.88563V10.5975C15.7499 10.7342 15.7099 10.8679 15.635 10.9822C15.56 11.0965 15.4534 11.1865 15.3281 11.2412C15.0219 11.3752 13.9039 11.8125 12.375 11.8125C11.5263 11.8125 10.4632 11.5615 9.33785 11.2954C8.07293 10.9965 6.76512 10.6875 5.625 10.6875C4.32879 10.6875 3.66539 10.8837 3.375 11.0078V16.3125C3.375 16.4617 3.31574 16.6048 3.21025 16.7102C3.10476 16.8157 2.96168 16.875 2.8125 16.875Z" fill="#9499AC"/>
      </symbol>
       <symbol viewBox="0 0 18 18" fill="none" id="time">
         <path d="M9 1.5C8.01509 1.5 7.03982 1.69399 6.12987 2.0709C5.21993 2.44781 4.39314 3.00026 3.6967 3.6967C2.29018 5.10322 1.5 7.01088 1.5 9C1.5 10.9891 2.29018 12.8968 3.6967 14.3033C4.39314 14.9997 5.21993 15.5522 6.12987 15.9291C7.03982 16.306 8.01509 16.5 9 16.5C10.9891 16.5 12.8968 15.7098 14.3033 14.3033C15.7098 12.8968 16.5 10.9891 16.5 9C16.5 8.01509 16.306 7.03982 15.9291 6.12987C15.5522 5.21993 14.9997 4.39314 14.3033 3.6967C13.6069 3.00026 12.7801 2.44781 11.8701 2.0709C10.9602 1.69399 9.98491 1.5 9 1.5ZM12.15 12.15L8.25 9.75V5.25H9.375V9.15L12.75 11.175L12.15 12.15Z" fill="#9499AC"/>
      </symbol>
       <symbol viewBox="0 0 45 45" fill="none" id="user">
         <rect width="45" height="45" rx="22.5" fill="#0071DC"/>
         <path d="M26.5419 12.4056C25.5157 11.2976 24.0823 10.6875 22.5003 10.6875C20.9098 10.6875 19.4718 11.2939 18.4503 12.395C17.4178 13.5083 16.9147 15.0212 17.0328 16.6549C17.2669 19.878 19.7196 22.5 22.5003 22.5C25.281 22.5 27.7294 19.8786 27.9673 16.656C28.087 15.037 27.5807 13.5272 26.5419 12.4056ZM31.7816 34.3125H13.2191C12.9761 34.3157 12.7355 34.2646 12.5147 34.1631C12.294 34.0616 12.0986 33.9121 11.9429 33.7256C11.6001 33.3158 11.4619 32.7563 11.5642 32.1905C12.0093 29.7214 13.3983 27.6474 15.5816 26.1914C17.5211 24.8989 19.978 24.1875 22.5003 24.1875C25.0226 24.1875 27.4795 24.8994 29.4191 26.1914C31.6023 27.6469 32.9913 29.7209 33.4364 32.1899C33.5387 32.7558 33.4005 33.3153 33.0577 33.725C32.902 33.9117 32.7067 34.0612 32.486 34.1628C32.2652 34.2645 32.0246 34.3156 31.7816 34.3125Z" fill="white"/>
      </symbol>
      <symbol viewBox="0 0 36 36" fill="none" id="analitics">
         <path d="M34 1H2.0155C1.4572 1 1.00703 1.45715 1.01562 2.01538L1.50793 34.0154C1.51633 34.5616 1.96152 35 2.50781 35H34C34.5523 35 35 34.5523 35 34V2C35 1.44772 34.5523 1 34 1Z" stroke="#0071DC" stroke-width="1.5"/>
         <path d="M35 7.18182H1" stroke="#0071DC" stroke-width="1.5"/>
         <path d="M20.5757 4.09088H4.09082" stroke="#0071DC" stroke-width="1.5"/>
         <path d="M19.5 28.5H19C18.4477 28.5 18 28.0523 18 27.5V19C18 18.4477 18.4477 18 19 18H19.5C20.0523 18 20.5 18.4477 20.5 19V27.5C20.5 28.0523 20.0523 28.5 19.5 28.5Z" stroke="#0071DC" stroke-width="1.5"/>
         <path d="M25 28.5H24.5C23.9477 28.5 23.5 28.0523 23.5 27.5V15C23.5 14.4477 23.9477 14 24.5 14H25C25.5523 14 26 14.4477 26 15V27.5C26 28.0523 25.5523 28.5 25 28.5Z" stroke="#0071DC" stroke-width="1.5"/>
         <path d="M30.5 28.5H30C29.4477 28.5 29 28.0523 29 27.5V22.5C29 21.9477 29.4477 21.5 30 21.5H30.5C31.0523 21.5 31.5 21.9477 31.5 22.5V27.5C31.5 28.0523 31.0523 28.5 30.5 28.5Z" stroke="#0071DC" stroke-width="1.5"/>
         <path d="M17 31H33" stroke="#0071DC" stroke-width="1.5"/>
         <path d="M10 12.5V20.5" stroke="#0071DC" stroke-width="1.5"/>
         <path d="M10 13C12.2091 13 14 14.7909 14 17C14 19.2091 12.2091 21 10 21C7.79086 21 6 19.2091 6 17C6 14.7909 7.79086 13 10 13Z" stroke="#0071DC" stroke-width="1.5"/>
      </symbol>
      <symbol viewBox="0 0 32 36" fill="none" id="bussinnes">
         <path d="M1 19.2075V31.8649C1 32.0734 1.0629 32.2785 1.19427 32.4403C3.92944 35.8097 10.8832 35.8993 13.5098 32.4323C13.629 32.275 13.6854 32.0801 13.6854 31.8827V19.1767C13.6854 19.0413 13.6599 18.9064 13.5984 18.7858C11.8274 15.3149 3.37354 14.8304 1.11199 18.7629C1.0346 18.8974 1 19.0523 1 19.2075Z" stroke="#0071DC" stroke-width="1.5"/>
         <path d="M1 19.4998C4.17136 23.1997 11.5712 22.6711 13.6854 19.4998" stroke="#0071DC" stroke-width="1.5"/>
         <path d="M1 24.2565C4.17136 27.9564 11.5712 27.4278 13.6854 24.2565" stroke="#0071DC" stroke-width="1.5"/>
         <path d="M1 28.4852C4.17136 32.1851 11.5712 31.6565 13.6854 28.4852" stroke="#0071DC" stroke-width="1.5"/>
         <path d="M17.9141 10.2215V31.6699C17.9141 31.8784 17.977 32.0835 18.1083 32.2453C20.8435 35.6147 27.7973 35.7043 30.4239 32.2373C30.5431 32.08 30.5995 31.8851 30.5995 31.6877V10.191C30.5995 10.0556 30.574 9.9207 30.5124 9.80008C28.7415 6.32922 20.2876 5.8444 18.0261 9.77689C17.9487 9.91146 17.9141 10.0663 17.9141 10.2215Z" stroke="#0071DC" stroke-width="1.5"/>
         <path d="M17.9141 19.3051C21.0854 23.005 28.4853 22.4764 30.5995 19.3051" stroke="#0071DC" stroke-width="1.5"/>
         <path d="M17.9141 14.7431C21.0854 18.443 28.4853 17.9145 30.5995 14.7431" stroke="#0071DC" stroke-width="1.5"/>
         <path d="M17.9141 10.5144C21.0854 14.2143 28.4853 13.6858 30.5995 10.5144" stroke="#0071DC" stroke-width="1.5"/>
         <path d="M17.9141 24.0618C21.0854 27.7617 28.4853 27.2331 30.5995 24.0618" stroke="#0071DC" stroke-width="1.5"/>
         <path d="M17.9141 28.2905C21.0854 31.9904 28.4853 31.4618 30.5995 28.2905" stroke="#0071DC" stroke-width="1.5"/>
         <path d="M1.52832 14.214C14.2138 8.92839 21.4374 1.35237 21.085 1M21.085 1H17.9137M21.085 1V4.69992" stroke="#0071DC" stroke-width="1.5"/>
      </symbol>
      <symbol viewBox="0 0 33 33" fill="none" id="child">
         <path d="M16.4997 1C10.1176 8.75 17.8673 14.2206 19.235 6.92647" stroke="#0071DC" stroke-width="1.5"/>
         <path d="M10.8016 15.1323C11.6829 15.1323 12.3972 15.8467 12.3972 16.7279C12.3972 17.6091 11.6829 18.3235 10.8016 18.3235C9.92042 18.3235 9.20605 17.6091 9.20605 16.7279C9.20605 15.8467 9.92042 15.1323 10.8016 15.1323Z" fill="#0071DC"/>
         <path d="M21.7426 15.1323C22.6238 15.1323 23.3381 15.8467 23.3381 16.7279C23.3381 17.6091 22.6238 18.3235 21.7426 18.3235C20.8613 18.3235 20.147 17.6091 20.147 16.7279C20.147 15.8467 20.8613 15.1323 21.7426 15.1323Z" fill="#0071DC"/>
         <path d="M11.4854 22.4265C14.2206 24.7059 16.9559 25.6176 21.5148 22.4265" stroke="#0071DC" stroke-width="1.5"/>
         <path d="M1.24214 16.7394C1.37138 25.1397 8.21977 32 16.6211 32C25.1146 32 32 24.9945 32 16.5009C32 8.00637 25.1138 1 16.6192 1C8.03211 1 1.11005 8.15326 1.24214 16.7394Z" stroke="#0071DC" stroke-width="1.5"/>
      </symbol>
      <symbol viewBox="0 0 37 36" fill="none" id="design">
         <path d="M14.8478 23.738L12.8465 21.7367C12.2976 21.1878 11.9148 20.4737 12.2623 19.7796C13.7947 16.7186 21.3976 9.40636 30.3649 2.54897C34.4533 -0.577466 37.0944 1.32543 34.0355 5.60782C30.4401 10.6413 20.388 21.9685 16.7719 24.2047C16.1117 24.6129 15.3967 24.2869 14.8478 23.738Z" stroke="#0071DC" stroke-width="1.5"/>
         <path d="M13.2354 28.2433C13.419 26.408 10.5436 22.3703 7.11774 23.3491C3.11298 25.0655 0.713312 31.597 1.41965 34.4379C1.50487 34.7807 1.8269 34.9907 2.18005 34.9975C5.4182 35.0597 12.6604 33.994 13.2354 28.2433Z" stroke="#0071DC" stroke-width="1.5"/>
         <path d="M1 33.1374L6.50592 27.6315" stroke="#0071DC" stroke-width="1.5"/>
         <path d="M8.95323 30.0786L4.05908 34.9728" stroke="#0071DC" stroke-width="1.5"/>
         <path d="M13.1402 26.3126L10.272 23.4445C9.88152 23.0539 9.88152 22.4208 10.272 22.0303L11.3049 20.9974C11.6954 20.6069 12.3286 20.6069 12.7191 20.9974L15.5873 23.8656C15.9778 24.2561 15.9778 24.8892 15.5873 25.2798L14.5544 26.3126C14.1639 26.7032 13.5307 26.7032 13.1402 26.3126Z" fill="#F1F1F1" stroke="#0071DC" stroke-width="1.5"/>
      </symbol>
      <symbol viewBox="0 0 36 35" fill="none" id="ege">
         <path d="M25.095 2V4.18462C25.095 4.7369 24.6473 5.18462 24.095 5.18462H19.4258C18.8735 5.18462 18.4258 4.7369 18.4258 4.18462V2C18.4258 1.44772 18.8735 1 19.4258 1H24.095C24.6473 1 25.095 1.44772 25.095 2Z" stroke="#0071DC" stroke-width="1.5"/>
         <path d="M18.4258 4.13843V8.84612" stroke="#0071DC" stroke-width="1.5"/>
         <path d="M8.4375 15H2C1.44772 15 1 15.4477 1 16V24.5V33C1 33.5523 1.44772 34 2 34H34C34.5523 34 35 33.5523 35 33V16C35 15.4477 34.5523 15 34 15H28.0938" stroke="#0071DC" stroke-width="1.5"/>
         <path d="M26.761 16H9.36679C8.37191 16 7.98733 14.7052 8.82091 14.1621L17.7203 8.36406C18.0586 8.14362 18.4964 8.14832 18.8299 8.37597L27.3248 14.1741C28.1373 14.7287 27.7448 16 26.761 16Z" stroke="#0071DC" stroke-width="1.5"/>
         <path d="M13.9795 16.2153V33.4769" stroke="#0071DC" stroke-width="1.5"/>
         <path d="M9.64453 16.2153V33.4769" stroke="#0071DC" stroke-width="1.5"/>
         <path d="M4 15V34" stroke="#0071DC" stroke-width="1.5"/>
         <path d="M32 15V34" stroke="#0071DC" stroke-width="1.5"/>
         <path d="M26.0938 16.2153V33.4769" stroke="#0071DC" stroke-width="1.5"/>
         <path d="M21.7593 16.7385V33.477" stroke="#0071DC" stroke-width="1.5"/>
      </symbol>
      <symbol viewBox="0 0 14 36" fill="none" id="healthe">
         <path d="M2.08974 33.8615L1.09103 21.9726C1.04204 21.3894 1.50222 20.8889 2.08753 20.8889H11.9038C12.4922 20.8889 12.9535 21.3945 12.8996 21.9805L11.8058 33.8694C11.7585 34.384 11.3268 34.7778 10.81 34.7778H3.08623C2.56639 34.7778 2.13325 34.3795 2.08974 33.8615Z" stroke="#0071DC" stroke-width="1.5"/>
         <path d="M2 20.8889L2.44824 18.6892C2.54315 18.2235 2.95279 17.8889 3.4281 17.8889H10.3222C10.7588 17.8889 11.1449 18.1722 11.276 18.5887L12 20.8889" stroke="#0071DC" stroke-width="1.5"/>
         <path d="M3.94434 17.8888V8.66663C3.94434 8.11434 4.39205 7.66663 4.94434 7.66663H9.16656C9.71884 7.66663 10.1666 8.11434 10.1666 8.66663V17.4444" stroke="#0071DC" stroke-width="1.5"/>
         <path d="M4.8335 7.22222V3.45481C4.8335 3.04591 5.08245 2.6782 5.46211 2.52633L7.90655 1.54856C8.56341 1.28581 9.27794 1.76957 9.27794 2.47703V7.66667" stroke="#0071DC" stroke-width="1.5"/>
      </symbol>
      <symbol viewBox="0 0 34 33" fill="none" id="lang">
         <path d="M18.7852 20.9357C15.1303 21.7106 9.80142 23.3821 4.6675 21.1954C4.31491 21.0452 4.09668 20.6923 4.09668 20.3091V3.9134C4.09668 3.29079 4.65744 2.81816 5.27442 2.90175C8.73263 3.37028 15.0274 3.70348 19.7329 2.18333C22.7478 1.33104 29.3309 0.153375 32.561 1.91119C32.8462 2.06641 32.9999 2.3764 32.9999 2.70113V19.4358C32.9999 20.1493 32.2721 20.635 31.5873 20.4345C28.8132 19.6224 25.2227 19.5707 18.7852 20.9357Z" stroke="#0071DC" stroke-width="1.5"/>
         <path d="M4.09668 15.7307C9.4035 18.3025 14.9946 16.5345 18.7852 15.7307C26.3664 14.1233 29.999 13.9448 32.9999 15.195" stroke="#0071DC" stroke-width="1.5"/>
         <path d="M4.09668 11.138C9.4035 13.7097 14.9946 11.9417 18.7852 11.138C26.3664 9.53052 29.999 9.35203 32.9999 10.6022" stroke="#0071DC" stroke-width="1.5"/>
         <path d="M16.9995 7.38875C23.7092 5.09265 29.9986 5.23693 32.9995 6.48708" stroke="#0071DC" stroke-width="1.5"/>
         <path d="M4.09677 2V3.62712V31C4.09677 31.5523 3.64906 32 3.09677 32H2C1.44772 32 1 31.5523 1 31V2C1 1.44772 1.44772 1 2 1H3.09677C3.64906 1 4.09677 1.44771 4.09677 2Z" stroke="#0071DC" stroke-width="1.5"/>
         <path d="M16.9995 3.29639V11.3334" stroke="#0071DC" stroke-width="1.5"/>
      </symbol>
      <symbol viewBox="0 0 37 39" fill="none" id="life">
         <path d="M19.5269 12.8811V17.766" stroke="#0071DC" stroke-width="1.5"/>
         <path d="M17.0845 15.3234H21.9694" stroke="#0071DC" stroke-width="1.5"/>
         <path d="M5.7148 31.3942L5.86829 32.0082C6.06522 32.7959 7.06926 33.0329 7.59769 32.4164L8.05817 31.8792C8.57685 31.2741 8.21379 30.335 7.42294 30.2362L6.80897 30.1594C6.1117 30.0723 5.54437 30.7125 5.7148 31.3942Z" stroke="#0071DC" stroke-width="1.5"/>
         <path d="M31.4674 8.75676L30.7681 9.45607C30.1752 10.049 30.5314 11.0645 31.3648 11.1571L32.2639 11.257C32.9565 11.3339 33.5135 10.6966 33.3445 10.0205L33.1447 9.22133C32.9561 8.46724 32.017 8.20713 31.4674 8.75676Z" stroke="#0071DC" stroke-width="1.5"/>
         <path d="M7.80322 32.4207C17.0845 43.6559 41.9974 35.3516 34.6701 13.3696" stroke="#0071DC" stroke-width="1.5"/>
         <path d="M4.84768 27.8418C-3.4319 16.3006 11.7112 -6.65833 30.7623 8.97332" stroke="#0071DC" stroke-width="1.5"/>
         <path d="M19.1694 32.511L12.6376 29.4372C12.1295 29.1981 11.9195 28.588 12.121 28.0638C12.8537 26.1572 13.3197 23.5481 12.7584 21.8664C12.7155 21.738 12.6385 21.624 12.5647 21.5105C12.0941 20.7863 10.9106 18.1324 11.2226 15.3235C11.7109 10.927 15.7167 6.92151 21.9693 8.48468C25.6636 9.40824 29.7953 14.2616 28.1711 17.6782C27.9973 18.0437 27.9711 18.4782 28.1856 18.8214L29.4838 20.8987C29.8277 21.4488 29.4322 22.1623 28.7835 22.1623C28.2808 22.1623 27.8943 22.6077 27.9267 23.1093C27.9942 24.1532 27.9616 25.4765 27.58 26.2217C27.4591 26.4578 27.3427 26.7077 27.3427 26.973V27.8962C27.3427 28.4878 26.8319 28.9501 26.2432 28.8912L23.1121 28.5781C22.715 28.5384 22.3323 28.7386 22.1384 29.0875L20.4694 32.0918C20.2138 32.5518 19.6455 32.7351 19.1694 32.511Z" stroke="#0071DC" stroke-width="1.5"/>
      </symbol>
      <symbol viewBox="0 0 35 30" fill="none" id="marketing">
         <path d="M8.31173 9.40845H5.02145C2.80047 9.40845 1 11.2089 1 13.4299V13.4299C1 15.6509 2.80046 17.4513 5.02145 17.4513H9.0429" stroke="#0071DC" stroke-width="1.5"/>
         <path d="M5.38672 9.40845V17.0858" stroke="#0071DC" stroke-width="1.5"/>
         <path d="M11.9681 19.2789C10.5057 21.6187 8.67763 21.4724 9.04339 21.4724" stroke="#0071DC" stroke-width="1.5"/>
         <path d="M3.92529 17.4514L5.95803 27.6151C6.05152 28.0825 6.46193 28.419 6.93862 28.419H9.59188H10.6507C11.5416 28.419 11.9878 27.3419 11.3578 26.7119L9.97482 25.3289C9.84396 25.198 9.75198 25.0334 9.70912 24.8534L7.94674 17.4514H3.92529Z" stroke="#0071DC" stroke-width="1.5"/>
         <path d="M24.3977 2.64514V24.2147C24.3977 25.1233 23.6611 25.8599 22.7526 25.8599C21.844 25.8599 21.1074 25.1233 21.1074 24.2147V2.64514C21.1074 1.73655 21.844 1 22.7526 1C23.6611 1 24.3977 1.73655 24.3977 2.64514Z" stroke="#0071DC" stroke-width="1.5"/>
         <path d="M24.3979 17.4513C30.2473 16.3546 28.785 9.77403 24.3979 9.40845" stroke="#0071DC" stroke-width="1.5"/>
         <path d="M29.8818 11.2365L33.9033 9.04297" stroke="#0071DC" stroke-width="1.5"/>
         <path d="M30.6133 13.4299H35.0003" stroke="#0071DC" stroke-width="1.5"/>
         <path d="M29.8818 15.6234L33.9033 17.8169" stroke="#0071DC" stroke-width="1.5"/>
         <path d="M21.1075 2.46265L8.31201 9.40879V17.0861L21.1075 24.3978" stroke="#0071DC" stroke-width="1.5"/>
      </symbol>
      <symbol viewBox="0 0 19 20" fill="none" id="more">
         <path d="M0.666992 1H18.667" stroke="#0071DC" stroke-width="1.5"/>
         <path d="M0.666992 7H18.667" stroke="#0071DC" stroke-width="1.5"/>
         <path d="M0.666992 13H18.667" stroke="#0071DC" stroke-width="1.5"/>
         <path d="M0.666992 19H18.667" stroke="#0071DC" stroke-width="1.5"/>
      </symbol>
      <symbol viewBox="0 0 38 29" fill="none" id="programm">
         <path d="M3.52002 2V20.52C3.52002 21.0723 3.96773 21.52 4.52002 21.52H33.48C34.0323 21.52 34.48 21.0723 34.48 20.52V2C34.48 1.44772 34.0323 1 33.48 1H4.52002C3.96773 1 3.52002 1.44771 3.52002 2Z" stroke="#0071DC" stroke-width="1.5"/>
         <path d="M36.01 24.04H1.99C1.44324 24.04 1 24.4833 1 25.03C1 26.6703 2.32971 28 3.97 28H19H34.03C35.6703 28 37 26.6703 37 25.03C37 24.4833 36.5568 24.04 36.01 24.04Z" stroke="#0071DC" stroke-width="1.5"/>
         <path d="M8 12.18L13.8154 8.79333V10.3533L10.2015 12.5133L13.8154 14.62V16.2467L8 12.9133V12.18ZM23.4346 6.5L20.063 11.2333L16.6915 15.9667H15.0023L21.7454 6.5H23.4346ZM29.4693 12.9133L23.64 16.2467V14.62L27.2539 12.5133L23.64 10.3533V8.79333L29.4693 12.18V12.9133Z" fill="#0071DC"/>
      </symbol>
      <symbol viewBox="0 0 36 29" fill="none" id="upravlenie">
         <path d="M34 1H2C1.44772 1 1 1.44772 1 2V26.8169C1 27.3692 1.44772 27.8169 2 27.8169H34C34.5523 27.8169 35 27.3692 35 26.8169V2C35 1.44772 34.5523 1 34 1Z" stroke="#0071DC" stroke-width="1.5"/>
         <path d="M27.3378 3.39465V7.22564M27.3378 7.22564H24.5068C23.9546 7.22564 23.5068 7.67335 23.5068 8.22564V10.5355C23.5068 11.0878 23.9546 11.5355 24.5068 11.5355H30.1688C30.7211 11.5355 31.1688 11.0878 31.1688 10.5355V8.22564C31.1688 7.67335 30.7211 7.22564 30.1688 7.22564H27.3378Z" stroke="#0071DC" stroke-width="1.5"/>
         <path d="M9.61956 5.78894V9.61993M9.61956 9.61993H6.78857C6.23629 9.61993 5.78857 10.0676 5.78857 10.6199V12.9298C5.78857 13.4821 6.23629 13.9298 6.78857 13.9298H12.4505C13.0028 13.9298 13.4505 13.4821 13.4505 12.9298V10.6199C13.4505 10.0676 13.0028 9.61993 12.4505 9.61993H9.61956Z" stroke="#0071DC" stroke-width="1.5"/>
         <path d="M27.3379 11.5354V25.4227" stroke="#0071DC" stroke-width="1.5"/>
         <path d="M9.61963 14.4087V25.4228" stroke="#0071DC" stroke-width="1.5"/>
         <path d="M9.61963 2.91577V9.62" stroke="#0071DC" stroke-width="1.5"/>
         <path d="M18.2393 3.39465V15.8454" stroke="#0071DC" stroke-width="1.5"/>
         <path d="M14.4087 19.1552V16.8453C14.4087 16.2931 14.8564 15.8453 15.4087 15.8453H21.0707C21.6229 15.8453 22.0707 16.2931 22.0707 16.8453V19.1552C22.0707 19.7075 21.6229 20.1552 21.0707 20.1552H15.4087C14.8564 20.1552 14.4087 19.7075 14.4087 19.1552Z" stroke="#0071DC" stroke-width="1.5"/>
         <path d="M18.2393 20.1552V25.4228" stroke="#0071DC" stroke-width="1.5"/>
      </symbol>
      <symbol viewBox="0 0 18 16" fill="none" id="course">
         <path d="M15.7521 4.1901C16.0083 4.53646 16.0659 4.92839 15.925 5.36589L13.2829 13.6237C13.1612 14.0126 12.9162 14.3392 12.5479 14.6035C12.1796 14.8678 11.7873 15 11.3709 15H2.50302C2.00982 15 1.53424 14.8375 1.07627 14.5124C0.618305 14.1873 0.299649 13.7878 0.120305 13.3138C-0.0334181 12.9067 -0.0398233 12.5208 0.10109 12.1562C0.10109 12.1319 0.110698 12.0499 0.129913 11.9102C0.149128 11.7704 0.161939 11.658 0.168344 11.5729C0.174749 11.5243 0.165141 11.459 0.139521 11.377C0.1139 11.2949 0.104292 11.2357 0.110698 11.1992C0.123508 11.1324 0.149128 11.0686 0.187559 11.0078C0.22599 10.947 0.278833 10.8757 0.346087 10.7936C0.413341 10.7116 0.466183 10.6402 0.504614 10.5794C0.651932 10.3485 0.796048 10.0705 0.936961 9.74544C1.07787 9.42036 1.17395 9.14236 1.22519 8.91146C1.24441 8.85069 1.24601 8.75955 1.23 8.63802C1.21398 8.51649 1.21238 8.43142 1.22519 8.38281C1.24441 8.31597 1.29885 8.2309 1.38852 8.1276C1.4782 8.02431 1.53264 7.95443 1.55185 7.91797C1.68636 7.69922 1.82087 7.4197 1.95538 7.07943C2.08989 6.73915 2.16995 6.46571 2.19557 6.25911C2.20198 6.20443 2.19397 6.1072 2.17155 5.96745C2.14913 5.82769 2.15074 5.74262 2.17636 5.71224C2.20198 5.63325 2.27243 5.54058 2.38773 5.43424C2.50302 5.32791 2.57348 5.25955 2.5991 5.22917C2.72079 5.07118 2.8569 4.81445 3.00742 4.45898C3.15794 4.10352 3.24602 3.81033 3.27164 3.57943C3.27804 3.53082 3.26843 3.45334 3.24281 3.34701C3.21719 3.24067 3.21079 3.16016 3.2236 3.10547C3.23641 3.05686 3.26523 3.00217 3.31007 2.94141C3.3549 2.88064 3.41255 2.81076 3.48301 2.73177C3.55346 2.65278 3.60791 2.58898 3.64634 2.54036C3.69758 2.46745 3.75042 2.37478 3.80486 2.26237C3.85931 2.14996 3.90735 2.04362 3.94898 1.94336C3.99061 1.8431 4.04185 1.73372 4.1027 1.61523C4.16355 1.49674 4.226 1.39952 4.29005 1.32357C4.35411 1.24761 4.43897 1.17622 4.54466 1.10937C4.65034 1.04253 4.76564 1.0076 4.89054 1.00456C5.01544 1.00152 5.16756 1.01823 5.3469 1.05469L5.33729 1.08203C5.58069 1.02734 5.74402 1 5.82729 1H13.1388C13.6127 1 13.9778 1.17014 14.234 1.51042C14.4902 1.85069 14.5479 2.24566 14.407 2.69531L11.7745 10.9531C11.5439 11.6762 11.3149 12.1426 11.0875 12.3522C10.8601 12.5618 10.4486 12.6667 9.85292 12.6667H1.50382C1.33088 12.6667 1.20918 12.7122 1.13872 12.8034C1.06827 12.9006 1.06506 13.0312 1.12912 13.1953C1.28284 13.6207 1.74401 13.8333 2.51263 13.8333H11.3805C11.5663 13.8333 11.7456 13.7862 11.9186 13.6921C12.0915 13.5979 12.2036 13.4718 12.2548 13.3138L15.1372 4.31771C15.182 4.18403 15.198 4.01085 15.1852 3.79818C15.4286 3.88932 15.6176 4.01997 15.7521 4.1901ZM5.52945 4.20833C5.50383 4.28733 5.51023 4.35569 5.54866 4.41341C5.5871 4.47114 5.65115 4.5 5.74082 4.5H11.5823C11.6656 4.5 11.7472 4.47114 11.8273 4.41341C11.9074 4.35569 11.9602 4.28733 11.9858 4.20833L12.1876 3.625C12.2132 3.54601 12.2068 3.47765 12.1684 3.41992C12.1299 3.3622 12.0659 3.33333 11.9762 3.33333H6.13474C6.05147 3.33333 5.9698 3.3622 5.88974 3.41992C5.80967 3.47765 5.75683 3.54601 5.73121 3.625L5.52945 4.20833ZM4.73201 6.54167C4.70639 6.62066 4.71279 6.68902 4.75122 6.74674C4.78965 6.80447 4.85371 6.83333 4.94338 6.83333H10.7849C10.8681 6.83333 10.9498 6.80447 11.0299 6.74674C11.1099 6.68902 11.1628 6.62066 11.1884 6.54167L11.3902 5.95833C11.4158 5.87934 11.4094 5.81098 11.3709 5.75326C11.3325 5.69553 11.2685 5.66667 11.1788 5.66667H5.33729C5.25403 5.66667 5.17236 5.69553 5.0923 5.75326C5.01223 5.81098 4.95939 5.87934 4.93377 5.95833L4.73201 6.54167Z" fill="black"/>
      </symbol>
      <symbol viewBox="0 0 16 16" fill="none" id="data">
         <g clip-path="url(#clip0_154_11285)">
         <path d="M15.09 12.79C15.2171 12.6911 15.3184 12.5629 15.3853 12.4164C15.4522 12.2699 15.4827 12.1094 15.4742 11.9486C15.4658 11.7877 15.4186 11.6313 15.3368 11.4926C15.2549 11.354 15.1407 11.2371 15.004 11.152L15 5.33L14 6V11.15C13.8648 11.2351 13.752 11.3512 13.6709 11.4888C13.5898 11.6263 13.5427 11.7813 13.5337 11.9408C13.5247 12.1002 13.554 12.2595 13.6191 12.4053C13.6842 12.5511 13.7833 12.6793 13.908 12.779L13.53 13.281C13.1938 13.7087 13.0076 14.2351 13 14.779V16.001H13.815C14.0108 16.001 14.201 15.9357 14.3555 15.8154C14.51 15.6951 14.6199 15.5268 14.668 15.337L14.999 14.001V16.001H15.999V14.791C15.9914 14.2443 15.8037 13.7153 15.465 13.286L15.09 12.79ZM8 0L0 4L8 9L16 4L8 0Z" fill="black"/>
         <path d="M8 10L3 6.67001V8.38001C3 9.29001 5.94 12 8 12C10.06 12 13 9.29001 13 8.38001V6.67001L8 10Z" fill="black"/>
         </g>
         <defs>
         <clipPath id="clip0_154_11285">
         <rect width="16" height="16" fill="white"/>
         </clipPath>
         </defs>
      </symbol>
      <symbol viewBox="0 0 19 20" id="dislike">
        <path d="M10.12 19.9945C11.1467 19.9184 12.0865 19.713 12.7397 19.0367C13.4064 18.3474 13.6184 17.3375 13.6184 16.0902C13.6184 15.6574 13.564 15.1334 13.5067 14.6495C13.4818 14.4491 13.4579 14.2567 13.4341 14.0764L13.3806 13.6466H15.3385C16.0567 13.6466 16.7195 13.5384 17.283 13.2418C17.8675 12.9353 18.2973 12.4534 18.5771 11.8081C19.1034 10.5919 19.0948 8.79449 18.7901 6.40401L18.7414 6.01328C18.6134 5.00138 18.5046 4.13776 18.3632 3.42843C18.2047 2.63194 17.9869 1.92962 17.5839 1.37458C16.7339 0.204384 15.2965 0 13.2068 0C10.9805 0 9.31006 0.418785 7.91183 0.825548L7.33688 0.995869C6.35984 1.28641 5.56808 1.52286 4.76773 1.58297C4.72739 1.14947 4.53468 0.747233 4.22713 0.454611C3.91958 0.161989 3.5192 -6.88719e-05 3.10399 0H1.67138C1.2281 0 0.80298 0.184722 0.489536 0.513527C0.176091 0.842332 0 1.28829 0 1.75329L0 12.273C0 13.2408 0.748778 14.0263 1.67138 14.0263H3.10399C3.52791 14.0263 3.93598 13.8573 4.24559 13.5535C4.5552 13.2498 4.74321 12.8339 4.77155 12.3902C4.94327 12.4082 5.11156 12.4524 5.27105 12.5215C6.18888 12.9373 7.92043 14.0584 7.92043 16.7294V17.7844C7.92043 19.0066 8.87741 20.0867 10.12 19.9945ZM4.77537 3.08779C5.78679 3.02367 6.76097 2.73212 7.75329 2.43457L8.29577 2.27427C9.63861 1.88353 11.1667 1.50282 13.2068 1.50282C15.3815 1.50282 16.0758 1.77734 16.4445 2.28529C16.6508 2.56882 16.815 3.00464 16.9602 3.73601C17.0882 4.37795 17.1884 5.16591 17.3166 6.1738C17.3185 6.18837 17.3203 6.203 17.3222 6.21766L17.3699 6.60238C17.6756 9.00689 17.6116 10.4045 17.2725 11.186C17.1197 11.5386 16.9144 11.755 16.6422 11.8983C16.3509 12.0516 15.9354 12.1438 15.3385 12.1438H13.075C12.4246 12.1438 11.8401 12.7148 11.9184 13.4743C11.9432 13.7177 11.9804 14.0123 12.0187 14.3098L12.0855 14.8378C12.1428 15.3207 12.1858 15.7606 12.1858 16.0902C12.1858 17.2173 11.9824 17.7102 11.734 17.9667C11.4714 18.2372 10.9948 18.4226 10.0197 18.4957C9.68445 18.5197 9.35304 18.2212 9.35304 17.7844V16.7294C9.35304 13.1727 6.97682 11.6569 5.83837 11.1419C5.48308 10.9816 5.11824 10.9095 4.77537 10.8814L4.77537 3.08779ZM1.67138 1.50282H3.10399C3.16732 1.50282 3.22805 1.52921 3.27283 1.57618C3.3176 1.62315 3.34276 1.68686 3.34276 1.75329L3.34276 12.273C3.34276 12.3394 3.3176 12.4032 3.27283 12.4501C3.22805 12.4971 3.16732 12.5235 3.10399 12.5235H1.67138C1.60805 12.5235 1.54732 12.4971 1.50254 12.4501C1.45777 12.4032 1.43261 12.3394 1.43261 12.273L1.43261 1.75329C1.43261 1.61503 1.53958 1.50282 1.67138 1.50282Z" fill="#D31819"/>
         <path d="M4.77537 3.08779C5.78679 3.02367 6.76097 2.73212 7.75329 2.43457L8.29577 2.27427C9.63861 1.88353 11.1667 1.50282 13.2068 1.50282C15.3815 1.50282 16.0758 1.77734 16.4445 2.28529C16.6508 2.56882 16.815 3.00464 16.9602 3.73601C17.0882 4.37795 17.1884 5.16591 17.3166 6.1738L17.3222 6.21766L17.3699 6.60238C17.6756 9.00689 17.6116 10.4045 17.2725 11.186C17.1197 11.5386 16.9144 11.755 16.6422 11.8983C16.3509 12.0516 15.9354 12.1438 15.3385 12.1438H13.075C12.4246 12.1438 11.8401 12.7148 11.9184 13.4743C11.9432 13.7177 11.9804 14.0123 12.0187 14.3098L12.0855 14.8378C12.1428 15.3207 12.1858 15.7606 12.1858 16.0902C12.1858 17.2173 11.9824 17.7102 11.734 17.9667C11.4714 18.2372 10.9948 18.4226 10.0197 18.4957C9.68445 18.5197 9.35304 18.2212 9.35304 17.7844V16.7294C9.35304 13.1727 6.97682 11.6569 5.83837 11.1419C5.48308 10.9816 5.11824 10.9095 4.77537 10.8814L4.77537 3.08779Z"/>
      </symbol>
       <symbol viewBox="0 0 20 20"  id="nice">
         <path d="M10.596 0.0430874C11.671 0.119087 12.655 0.324088 13.339 0.999088C14.037 1.68709 14.259 2.69509 14.259 3.94009C14.259 4.37209 14.202 4.89509 14.142 5.37809C14.116 5.57809 14.091 5.77009 14.066 5.95009L14.01 6.37909H16.06C16.812 6.37909 17.506 6.48709 18.096 6.78309C18.708 7.08909 19.158 7.57009 19.451 8.21409C20.002 9.42809 19.993 11.2221 19.674 13.6081L19.623 13.9981C19.489 15.0081 19.375 15.8701 19.227 16.5781C19.061 17.3731 18.833 18.0741 18.411 18.6281C17.521 19.7961 16.016 20.0001 13.828 20.0001C11.497 20.0001 9.748 19.5821 8.284 19.1761L7.682 19.0061C6.659 18.7161 5.83 18.4801 4.992 18.4201C4.94977 18.8528 4.74799 19.2543 4.42597 19.5463C4.10395 19.8384 3.68475 20.0002 3.25 20.0001H1.75C1.28587 20.0001 0.840752 19.8157 0.512563 19.4875C0.184375 19.1593 0 18.7142 0 18.2501V7.75009C0 6.78409 0.784 6.00009 1.75 6.00009H3.25C3.69386 6.00011 4.12113 6.16879 4.4453 6.47198C4.76947 6.77517 4.96632 7.19022 4.996 7.63309C5.17579 7.6152 5.352 7.57106 5.519 7.50209C6.48 7.08709 8.293 5.96809 8.293 3.30209V2.24909C8.293 1.02909 9.295 -0.0489126 10.596 0.0430874ZM5 16.9181C6.059 16.9821 7.079 17.2731 8.118 17.5701L8.686 17.7301C10.092 18.1201 11.692 18.5001 13.828 18.5001C16.105 18.5001 16.832 18.2261 17.218 17.7191C17.434 17.4361 17.606 17.0011 17.758 16.2711C17.8921 15.6303 17.997 14.8438 18.1312 13.8377C18.1331 13.8232 18.1351 13.8087 18.137 13.7941L18.187 13.4101C18.507 11.0101 18.44 9.61509 18.085 8.83509C17.925 8.48309 17.71 8.26709 17.425 8.12409C17.12 7.97109 16.685 7.87909 16.06 7.87909H13.69C13.009 7.87909 12.397 7.30909 12.479 6.55109C12.505 6.30809 12.544 6.01409 12.584 5.71709L12.654 5.19009C12.714 4.70809 12.759 4.26909 12.759 3.94009C12.759 2.81509 12.546 2.32309 12.286 2.06709C12.011 1.79709 11.512 1.61209 10.491 1.53909C10.14 1.51509 9.793 1.81309 9.793 2.24909V3.30209C9.793 6.85209 7.305 8.36509 6.113 8.87909C5.741 9.03909 5.359 9.11109 5 9.13909V16.9181ZM1.75 18.5001H3.25C3.3163 18.5001 3.37989 18.4737 3.42678 18.4269C3.47366 18.38 3.5 18.3164 3.5 18.2501V7.75009C3.5 7.68378 3.47366 7.62019 3.42678 7.57331C3.37989 7.52643 3.3163 7.50009 3.25 7.50009H1.75C1.6837 7.50009 1.62011 7.52643 1.57322 7.57331C1.52634 7.62019 1.5 7.68378 1.5 7.75009V18.2501C1.5 18.3881 1.612 18.5001 1.75 18.5001Z" fill="#0071DC"/>
         <path d="M5 16.9181C6.059 16.9821 7.079 17.2731 8.118 17.5701L8.686 17.7301C10.092 18.1201 11.692 18.5001 13.828 18.5001C16.105 18.5001 16.832 18.2261 17.218 17.7191C17.434 17.4361 17.606 17.0011 17.758 16.2711C17.8921 15.6303 17.997 14.8438 18.1312 13.8377L18.137 13.7941L18.187 13.4101C18.507 11.0101 18.44 9.61509 18.085 8.83509C17.925 8.48309 17.71 8.26709 17.425 8.12409C17.12 7.97109 16.685 7.87909 16.06 7.87909H13.69C13.009 7.87909 12.397 7.30909 12.479 6.55109C12.505 6.30809 12.544 6.01409 12.584 5.71709L12.654 5.19009C12.714 4.70809 12.759 4.26909 12.759 3.94009C12.759 2.81509 12.546 2.32309 12.286 2.06709C12.011 1.79709 11.512 1.61209 10.491 1.53909C10.14 1.51509 9.793 1.81309 9.793 2.24909V3.30209C9.793 6.85209 7.305 8.36509 6.113 8.87909C5.741 9.03909 5.359 9.11109 5 9.13909V16.9181Z"/>
      </symbol>
        <symbol viewBox="0 0 19 19" fill="none" id="student">
         <path d="M16.8128 4.18669L9.68777 1.81169C9.56589 1.77106 9.43411 1.77106 9.31223 1.81169L2.18723 4.18669C2.069 4.22611 1.96617 4.30172 1.89331 4.40282C1.82044 4.50392 1.78124 4.62539 1.78125 4.75001V10.6875C1.78125 10.845 1.84381 10.996 1.95516 11.1074C2.06651 11.2187 2.21753 11.2813 2.375 11.2813C2.53247 11.2813 2.68349 11.2187 2.79484 11.1074C2.90619 10.996 2.96875 10.845 2.96875 10.6875V5.57384L5.46176 6.40435C4.7994 7.47444 4.58877 8.76365 4.87612 9.9889C5.16348 11.2141 5.92532 12.2753 6.99437 12.9393C5.65844 13.4633 4.50359 14.4111 3.65898 15.7069C3.61506 15.7722 3.58455 15.8456 3.56922 15.9228C3.5539 15.9999 3.55407 16.0794 3.56973 16.1565C3.58539 16.2336 3.61621 16.3069 3.66042 16.372C3.70463 16.437 3.76133 16.4927 3.82724 16.5357C3.89315 16.5787 3.96694 16.6081 4.04433 16.6224C4.12173 16.6366 4.20117 16.6353 4.27805 16.6185C4.35494 16.6018 4.42772 16.5699 4.49218 16.5247C4.55663 16.4796 4.61148 16.4221 4.65352 16.3556C5.77199 14.6397 7.5384 13.6563 9.5 13.6563C11.4616 13.6563 13.228 14.6397 14.3465 16.3556C14.4336 16.485 14.5681 16.575 14.721 16.606C14.8739 16.6371 15.0328 16.6067 15.1635 16.5215C15.2941 16.4362 15.386 16.303 15.4192 16.1506C15.4525 15.9982 15.4244 15.8388 15.341 15.7069C14.4964 14.4111 13.3371 13.4633 12.0056 12.9393C13.0737 12.2753 13.8348 11.2149 14.1221 9.99051C14.4094 8.76616 14.1994 7.47784 13.5382 6.40806L16.8128 5.31704C16.931 5.27766 17.0339 5.20205 17.1068 5.10095C17.1797 4.99984 17.2189 4.87836 17.2189 4.75372C17.2189 4.62909 17.1797 4.50761 17.1068 4.4065C17.0339 4.3054 16.931 4.22979 16.8128 4.1904V4.18669ZM13.0625 8.90626C13.0627 9.46948 12.9293 10.0247 12.6733 10.5264C12.4173 11.0281 12.0461 11.4619 11.5899 11.7923C11.1338 12.1227 10.6059 12.3403 10.0494 12.4272C9.49293 12.514 8.92379 12.4677 8.38868 12.292C7.85358 12.1163 7.36775 11.8162 6.97106 11.4164C6.57438 11.0166 6.27814 10.5285 6.10665 9.99198C5.93516 9.45551 5.89332 8.88602 5.98454 8.33025C6.07577 7.77447 6.29746 7.24824 6.63144 6.79474L9.31223 7.68537C9.43411 7.726 9.56589 7.726 9.68777 7.68537L12.3686 6.79474C12.8196 7.4063 13.0629 8.14634 13.0625 8.90626Z" fill="black"/>  
      </symbol>
       <symbol viewBox="0 0 20 20" fill="none" id="teacher">
         <path d="M16.875 3.125H3.125C2.79348 3.125 2.47554 3.2567 2.24112 3.49112C2.0067 3.72554 1.875 4.04348 1.875 4.375V15.625C1.875 15.9565 2.0067 16.2745 2.24112 16.5089C2.47554 16.7433 2.79348 16.875 3.125 16.875H4.17109C4.28938 16.875 4.40525 16.8415 4.50524 16.7783C4.60522 16.7151 4.68522 16.6248 4.73594 16.518C5.03986 15.8763 5.5197 15.3341 6.11965 14.9544C6.71959 14.5748 7.415 14.3732 8.125 14.3732C8.835 14.3732 9.53041 14.5748 10.1304 14.9544C10.7303 15.3341 11.2101 15.8763 11.5141 16.518C11.5648 16.6248 11.6448 16.7151 11.7448 16.7783C11.8448 16.8415 11.9606 16.875 12.0789 16.875H16.875C17.2065 16.875 17.5245 16.7433 17.7589 16.5089C17.9933 16.2745 18.125 15.9565 18.125 15.625V4.375C18.125 4.04348 17.9933 3.72554 17.7589 3.49112C17.5245 3.2567 17.2065 3.125 16.875 3.125ZM8.125 13.125C7.63055 13.125 7.1472 12.9784 6.73607 12.7037C6.32495 12.429 6.00452 12.0385 5.8153 11.5817C5.62608 11.1249 5.57657 10.6222 5.67304 10.1373C5.7695 9.65232 6.0076 9.20686 6.35723 8.85723C6.70686 8.5076 7.15232 8.2695 7.63727 8.17304C8.12223 8.07657 8.62489 8.12608 9.08171 8.3153C9.53852 8.50452 9.92897 8.82495 10.2037 9.23607C10.4784 9.6472 10.625 10.1305 10.625 10.625C10.625 11.288 10.3616 11.9239 9.89277 12.3928C9.42393 12.8616 8.78804 13.125 8.125 13.125ZM16.875 15.625H12.4555C12.183 15.1552 11.8357 14.733 11.4273 14.375H15C15.1658 14.375 15.3247 14.3092 15.4419 14.1919C15.5592 14.0747 15.625 13.9158 15.625 13.75V6.25C15.625 6.08424 15.5592 5.92527 15.4419 5.80806C15.3247 5.69085 15.1658 5.625 15 5.625H5C4.83424 5.625 4.67527 5.69085 4.55806 5.80806C4.44085 5.92527 4.375 6.08424 4.375 6.25V13.75C4.37493 13.8886 4.42094 14.0233 4.5058 14.1329C4.59065 14.2425 4.70954 14.3208 4.84375 14.3555C4.42595 14.7175 4.07136 15.1465 3.79453 15.625H3.125V4.375H16.875V15.625Z" fill="black"/>
      </symbol>
   </defs>
</svg>